  0
SECTION
  2
HEADER
  9
$ACADVER
  1
AC1014
  9
$HANDSEED
  5
FFFF
  9
$MEASUREMENT
 70
     1
  0
ENDSEC
  0
SECTION
  2
TABLES
  0
TABLE
  2
VPORT
  5
8
330
0
100
AcDbSymbolTable
 70
     4
  0
VPORT
  5
2E
330
8
100
AcDbSymbolTableRecord
100
AcDbViewportTableRecord
  2
*ACTIVE
 70
     0
 10
0.0
 20
0.0
 11
1.0
 21
1.0
 12
210.0
 22
148.5
 13
0.0
 23
0.0
 14
10.0
 24
10.0
 15
10.0
 25
10.0
 16
0.0
 26
0.0
 36
1.0
 17
0.0
 27
0.0
 37
0.0
 40
341.0
 41
1.24
 42
50.0
 43
0.0
 44
0.0
 50
0.0
 51
0.0
 71
     0
 72
   100
 73
     1
 74
     3
 75
     0
 76
     0
 77
     0
 78
     0
  0
ENDTAB
  0
TABLE
  2
LTYPE
  5
5
330
0
100
AcDbSymbolTable
 70
     1
  0
LTYPE
  5
14
330
5
100
AcDbSymbolTableRecord
100
AcDbLinetypeTableRecord
  2
BYBLOCK
 70
     0
  3

 72
    65
 73
     0
 40
0.0
  0
LTYPE
  5
15
330
5
100
AcDbSymbolTableRecord
100
AcDbLinetypeTableRecord
  2
BYLAYER
 70
     0
  3

 72
    65
 73
     0
 40
0.0
  0
LTYPE
  5
16
330
5
100
AcDbSymbolTableRecord
100
AcDbLinetypeTableRecord
  2
CONTINUOUS
 70
     0
  3
Solid line
 72
    65
 73
     0
 40
0.0
  0
ENDTAB
  0
TABLE
  2
LAYER
  5
2
100
AcDbSymbolTable
 70
2
  0
LAYER
  5
50
100
AcDbSymbolTableRecord
100
AcDbLayerTableRecord
  2
0
 70
0
  6
CONTINUOUS
  0
LAYER
  5
51
100
AcDbSymbolTableRecord
100
AcDbLayerTableRecord
  2
Layer_1
 70
0
  6
CONTINUOUS
  0
ENDTAB
  0
TABLE
  2
STYLE
  5
3
330
0
100
AcDbSymbolTable
 70
     1
  0
STYLE
  5
11
330
3
100
AcDbSymbolTableRecord
100
AcDbTextStyleTableRecord
  2
STANDARD
 70
     0
 40
0.0
 41
1.0
 50
0.0
 71
     0
 42
2.5
  3
txt
  4

  0
ENDTAB
  0
TABLE
  2
VIEW
  5
6
330
0
100
AcDbSymbolTable
 70
     0
  0
ENDTAB
  0
TABLE
  2
UCS
  5
7
330
0
100
AcDbSymbolTable
 70
     0
  0
ENDTAB
  0
TABLE
  2
APPID
  5
9
330
0
100
AcDbSymbolTable
 70
     2
  0
APPID
  5
12
330
9
100
AcDbSymbolTableRecord
100
AcDbRegAppTableRecord
  2
ACAD
 70
     0
  0
ENDTAB
  0
TABLE
  2
DIMSTYLE
  5
A
330
0
100
AcDbSymbolTable
 70
     1
  0
DIMSTYLE
105
27
330
A
100
AcDbSymbolTableRecord
100
AcDbDimStyleTableRecord
  2
ISO-25
 70
     0
  3

  4

  5

  6

  7

 40
1.0
 41
2.5
 42
0.625
 43
3.75
 44
1.25
 45
0.0
 46
0.0
 47
0.0
 48
0.0
140
2.5
141
2.5
142
0.0
143
0.03937007874016
144
1.0
145
0.0
146
1.0
147
0.625
 71
     0
 72
     0
 73
     0
 74
     0
 75
     0
 76
     0
 77
     1
 78
     8
170
     0
171
     3
172
     1
173
     0
174
     0
175
     0
176
     0
177
     0
178
     0
270
     2
271
     2
272
     2
273
     2
274
     3
340
11
275
     0
280
     0
281
     0
282
     0
283
     0
284
     8
285
     0
286
     0
287
     3
288
     0
  0
ENDTAB
  0
TABLE
  2
BLOCK_RECORD
  5
1
330
0
100
AcDbSymbolTable
 70
     1
  0
BLOCK_RECORD
  5
1F
330
1
100
AcDbSymbolTableRecord
100
AcDbBlockTableRecord
  2
*MODEL_SPACE
  0
BLOCK_RECORD
  5
1B
330
1
100
AcDbSymbolTableRecord
100
AcDbBlockTableRecord
  2
*PAPER_SPACE
  0
ENDTAB
  0
ENDSEC
  0
SECTION
  2
BLOCKS
  0
BLOCK
  5
20
330
1F
100
AcDbEntity
  8
0
100
AcDbBlockBegin
  2
*MODEL_SPACE
 70
     0
 10
0.0
 20
0.0
 30
0.0
  3
*MODEL_SPACE
  1

  0
ENDBLK
  5
21
330
1F
100
AcDbEntity
  8
0
100
AcDbBlockEnd
  0
BLOCK
  5
1C
330
1B
100
AcDbEntity
 67
     1
  8
0
100
AcDbBlockBegin
  2
*PAPER_SPACE
  1

  0
ENDBLK
  5
1D
330
1B
100
AcDbEntity
 67
     1
  8
0
100
AcDbBlockEnd
  0
ENDSEC
  0
SECTION
  2
ENTITIES
  0
LWPOLYLINE
  5
100
100
AcDbEntity
  8
Layer_1
 62
7
100
AcDbPolyline
 90
361
 70
0
 10
12.445700
 20
7.720015
 30
0.0
 10
12.200184
 20
7.770738
 30
0.0
 10
11.954522
 20
7.821490
 30
0.0
 10
11.709195
 20
7.872174
 30
0.0
 10
11.463443
 20
7.922945
 30
0.0
 10
11.217884
 20
7.973677
 30
0.0
 10
11.198137
 20
7.981091
 30
0.0
 10
11.180866
 20
7.992751
 30
0.0
 10
11.165940
 20
8.007339
 30
0.0
 10
11.153878
 20
8.024037
 30
0.0
 10
11.145212
 20
8.043132
 30
0.0
 10
11.069954
 20
8.238194
 30
0.0
 10
10.994652
 20
8.433373
 30
0.0
 10
10.919452
 20
8.628286
 30
0.0
 10
10.844122
 20
8.823536
 30
0.0
 10
10.768852
 20
9.018633
 30
0.0
 10
10.762175
 20
9.039655
 30
0.0
 10
10.759881
 20
9.061291
 30
0.0
 10
10.761127
 20
9.083060
 30
0.0
 10
10.765922
 20
9.104388
 30
0.0
 10
10.774835
 20
9.124099
 30
0.0
 10
10.917882
 20
9.355736
 30
0.0
 10
11.061014
 20
9.587511
 30
0.0
 10
11.203952
 20
9.818971
 30
0.0
 10
11.347136
 20
10.050830
 30
0.0
 10
11.490209
 20
10.282508
 30
0.0
 10
11.498117
 20
10.301042
 30
0.0
 10
11.501061
 20
10.321091
 30
0.0
 10
11.499408
 20
10.341118
 30
0.0
 10
11.493277
 20
10.360085
 30
0.0
 10
11.482363
 20
10.376771
 30
0.0
 10
11.303696
 20
10.575270
 30
0.0
 10
11.124923
 20
10.773888
 30
0.0
 10
10.946393
 20
10.972235
 30
0.0
 10
10.767554
 20
11.170925
 30
0.0
 10
10.588856
 20
11.369459
 30
0.0
 10
10.574537
 20
11.381199
 30
0.0
 10
10.557234
 20
11.388349
 30
0.0
 10
10.538619
 20
11.390330
 30
0.0
 10
10.520499
 20
11.386982
 30
0.0
 10
10.504085
 20
11.378208
 30
0.0
 10
10.291933
 20
11.216458
 30
0.0
 10
10.079655
 20
11.054612
 30
0.0
 10
9.867666
 20
10.892986
 30
0.0
 10
9.655310
 20
10.731081
 30
0.0
 10
9.443121
 20
10.569303
 30
0.0
 10
9.425895
 20
10.559586
 30
0.0
 10
9.406322
 20
10.553979
 30
0.0
 10
9.386512
 20
10.552365
 30
0.0
 10
9.366640
 20
10.554675
 30
0.0
 10
9.347744
 20
10.561683
 30
0.0
 10
9.177545
 20
10.639093
 30
0.0
 10
9.007245
 20
10.716549
 30
0.0
 10
8.837176
 20
10.793899
 30
0.0
 10
8.666814
 20
10.871383
 30
0.0
 10
8.496584
 20
10.948807
 30
0.0
 10
8.478273
 20
10.958919
 30
0.0
 10
8.462596
 20
10.973083
 30
0.0
 10
8.449671
 20
10.989835
 30
0.0
 10
8.439898
 20
11.008278
 30
0.0
 10
8.433846
 20
11.028619
 30
0.0
 10
8.386577
 20
11.310742
 30
0.0
 10
8.339280
 20
11.593033
 30
0.0
 10
8.292047
 20
11.874939
 30
0.0
 10
8.244732
 20
12.157332
 30
0.0
 10
8.197454
 20
12.439505
 30
0.0
 10
8.191805
 20
12.457799
 30
0.0
 10
8.181582
 20
12.474212
 30
0.0
 10
8.167489
 20
12.487644
 30
0.0
 10
8.150445
 20
12.496736
 30
0.0
 10
8.131951
 20
12.500013
 30
0.0
 10
7.879251
 20
12.500013
 30
0.0
 10
7.626401
 20
12.500013
 30
0.0
 10
7.373896
 20
12.500013
 30
0.0
 10
7.120954
 20
12.500013
 30
0.0
 10
6.868210
 20
12.500013
 30
0.0
 10
6.849309
 20
12.496592
 30
0.0
 10
6.832524
 20
12.487535
 30
0.0
 10
6.818467
 20
12.474051
 30
0.0
 10
6.808459
 20
12.457920
 30
0.0
 10
6.802780
 20
12.439505
 30
0.0
 10
6.755526
 20
12.157382
 30
0.0
 10
6.708244
 20
11.875091
 30
0.0
 10
6.661026
 20
11.593185
 30
0.0
 10
6.613726
 20
11.310792
 30
0.0
 10
6.566464
 20
11.028619
 30
0.0
 10
6.560413
 20
11.008249
 30
0.0
 10
6.550509
 20
10.989568
 30
0.0
 10
6.537818
 20
10.973113
 30
0.0
 10
6.522003
 20
10.958828
 30
0.0
 10
6.503726
 20
10.948807
 30
0.0
 10
6.333511
 20
10.871397
 30
0.0
 10
6.163196
 20
10.793941
 30
0.0
 10
5.993112
 20
10.716590
 30
0.0
 10
5.822734
 20
10.639106
 30
0.0
 10
5.652490
 20
10.561683
 30
0.0
 10
5.633790
 20
10.554729
 30
0.0
 10
5.613764
 20
10.552367
 30
0.0
 10
5.593576
 20
10.554030
 30
0.0
 10
5.574575
 20
10.559475
 30
0.0
 10
5.557113
 20
10.569303
 30
0.0
 10
5.344976
 20
10.731053
 30
0.0
 10
5.132714
 20
10.892899
 30
0.0
 10
4.920740
 20
11.054525
 30
0.0
 10
4.708400
 20
11.216430
 30
0.0
 10
4.496226
 20
11.378208
 30
0.0
 10
4.479868
 20
11.386947
 30
0.0
 10
4.461733
 20
11.390326
 30
0.0
 10
4.443181
 20
11.388403
 30
0.0
 10
4.425998
 20
11.381395
 30
0.0
 10
4.411378
 20
11.369459
 30
0.0
 10
4.232697
 20
11.170960
 30
0.0
 10
4.053909
 20
10.972342
 30
0.0
 10
3.875364
 20
10.773995
 30
0.0
 10
3.696511
 20
10.575305
 30
0.0
 10
3.517798
 20
10.376771
 30
0.0
 10
3.506936
 20
10.360151
 30
0.0
 10
3.500733
 20
10.341022
 30
0.0
 10
3.499066
 20
10.320985
 30
0.0
 10
3.502061
 20
10.300791
 30
0.0
 10
3.509952
 20
10.282508
 30
0.0
 10
3.653014
 20
10.050871
 30
0.0
 10
3.796161
 20
9.819096
 30
0.0
 10
3.939113
 20
9.587636
 30
0.0
 10
4.082312
 20
9.355777
 30
0.0
 10
4.225400
 20
9.124099
 30
0.0
 10
4.234319
 20
9.104167
 30
0.0
 10
4.239050
 20
9.082659
 30
0.0
 10
4.240213
 20
9.060987
 30
0.0
 10
4.237861
 20
9.039285
 30
0.0
 10
4.231298
 20
9.018633
 30
0.0
 10
4.156026
 20
8.823570
 30
0.0
 10
4.080709
 20
8.628391
 30
0.0
 10
4.005494
 20
8.433478
 30
0.0
 10
3.930150
 20
8.238228
 30
0.0
 10
3.854864
 20
8.043132
 30
0.0
 10
3.846172
 20
8.023930
 30
0.0
 10
3.833882
 20
8.006975
 30
0.0
 10
3.819129
 20
7.992630
 30
0.0
 10
3.801584
 20
7.980879
 30
0.0
 10
3.782192
 20
7.973677
 30
0.0
 10
3.536691
 20
7.922954
 30
0.0
 10
3.291043
 20
7.872201
 30
0.0
 10
3.045730
 20
7.821518
 30
0.0
 10
2.799994
 20
7.770747
 30
0.0
 10
2.554449
 20
7.720015
 30
0.0
 10
2.536373
 20
7.712777
 30
0.0
 10
2.521349
 20
7.700420
 30
0.0
 10
2.509974
 20
7.684677
 30
0.0
 10
2.502632
 20
7.666607
 30
0.0
 10
2.500000
 20
7.647174
 30
0.0
 10
2.500015
 20
7.366439
 30
0.0
 10
2.500029
 20
7.085538
 30
0.0
 10
2.500044
 20
6.805019
 30
0.0
 10
2.500059
 20
6.524015
 30
0.0
 10
2.500073
 20
6.243231
 30
0.0
 10
2.502735
 20
6.223701
 30
0.0
 10
2.510131
 20
6.205575
 30
0.0
 10
2.521446
 20
6.189932
 30
0.0
 10
2.536252
 20
6.177708
 30
0.0
 10
2.554523
 20
6.170390
 30
0.0
 10
2.794005
 20
6.120875
 30
0.0
 10
3.033630
 20
6.071330
 30
0.0
 10
3.272929
 20
6.021854
 30
0.0
 10
3.512642
 20
5.972291
 30
0.0
 10
3.752166
 20
5.922768
 30
0.0
 10
3.771512
 20
5.915511
 30
0.0
 10
3.788681
 20
5.903791
 30
0.0
 10
3.803381
 20
5.889063
 30
0.0
 10
3.815099
 20
5.872170
 30
0.0
 10
3.823270
 20
5.852833
 30
0.0
 10
3.898034
 20
5.645338
 30
0.0
 10
3.972844
 20
5.437720
 30
0.0
 10
4.047551
 20
5.230384
 30
0.0
 10
4.122388
 20
5.022690
 30
0.0
 10
4.197166
 20
4.815158
 30
0.0
 10
4.203446
 20
4.793944
 30
0.0
 10
4.205441
 20
4.772152
 30
0.0
 10
4.203974
 20
4.750272
 30
0.0
 10
4.199037
 20
4.728890
 30
0.0
 10
4.190082
 20
4.709212
 30
0.0
 10
4.054055
 20
4.488975
 30
0.0
 10
3.917946
 20
4.268606
 30
0.0
 10
3.782023
 20
4.048537
 30
0.0
 10
3.645865
 20
3.828088
 30
0.0
 10
3.509814
 20
3.607812
 30
0.0
 10
3.501881
 20
3.589270
 30
0.0
 10
3.498950
 20
3.569199
 30
0.0
 10
3.500627
 20
3.549147
 30
0.0
 10
3.506770
 20
3.530160
 30
0.0
 10
3.517660
 20
3.513465
 30
0.0
 10
3.696356
 20
3.314971
 30
0.0
 10
3.875160
 20
3.116359
 30
0.0
 10
4.053720
 20
2.918018
 30
0.0
 10
4.232588
 20
2.719333
 30
0.0
 10
4.411316
 20
2.520805
 30
0.0
 10
4.425603
 20
2.509198
 30
0.0
 10
4.442906
 20
2.502117
 30
0.0
 10
4.461545
 20
2.500137
 30
0.0
 10
4.479704
 20
2.503417
 30
0.0
 10
4.496164
 20
2.512056
 30
0.0
 10
4.690886
 20
2.660544
 30
0.0
 10
4.885724
 20
2.809120
 30
0.0
 10
5.080297
 20
2.957494
 30
0.0
 10
5.275206
 20
3.106125
 30
0.0
 10
5.469963
 20
3.254639
 30
0.0
 10
5.487077
 20
3.264128
 30
0.0
 10
5.506349
 20
3.269132
 30
0.0
 10
5.526204
 20
3.269869
 30
0.0
 10
5.545294
 20
3.266472
 30
0.0
 10
5.563325
 20
3.258308
 30
0.0
 10
5.649201
 20
3.207365
 30
0.0
 10
5.734908
 20
3.156523
 30
0.0
 10
5.820770
 20
3.105589
 30
0.0
 10
5.906580
 20
3.054685
 30
0.0
 10
5.992788
 20
3.003546
 30
0.0
 10
6.009052
 20
2.997612
 30
0.0
 10
6.026747
 20
2.998033
 30
0.0
 10
6.042832
 20
3.005089
 30
0.0
 10
6.055083
 20
3.016955
 30
0.0
 10
6.063369
 20
3.032417
 30
0.0
 10
6.240438
 20
3.507751
 30
0.0
 10
6.417612
 20
3.983369
 30
0.0
 10
6.594725
 20
4.458823
 30
0.0
 10
6.771883
 20
4.934397
 30
0.0
 10
6.948883
 20
5.409547
 30
0.0
 10
6.953144
 20
5.428627
 30
0.0
 10
6.952450
 20
5.448262
 30
0.0
 10
6.947027
 20
5.467599
 30
0.0
 10
6.937181
 20
5.484753
 30
0.0
 10
6.922891
 20
5.498390
 30
0.0
 10
6.901399
 20
5.513012
 30
0.0
 10
6.880060
 20
5.527530
 30
0.0
 10
6.858722
 20
5.542048
 30
0.0
 10
6.837131
 20
5.556738
 30
0.0
 10
6.815412
 20
5.571514
 30
0.0
 10
6.800966
 20
5.582051
 30
0.0
 10
6.787160
 20
5.593117
 30
0.0
 10
6.773760
 20
5.604605
 30
0.0
 10
6.760230
 20
5.616929
 30
0.0
 10
6.747445
 20
5.629341
 30
0.0
 10
6.521182
 20
5.829641
 30
0.0
 10
6.339904
 20
6.071717
 30
0.0
 10
6.208162
 20
6.344260
 30
0.0
 10
6.128814
 20
6.635984
 30
0.0
 10
6.102502
 20
6.937187
 30
0.0
 10
6.164383
 20
7.395474
 30
0.0
 10
6.349665
 20
7.819052
 30
0.0
 10
6.650041
 20
8.169707
 30
0.0
 10
7.046368
 20
8.406167
 30
0.0
 10
7.500015
 20
8.489805
 30
0.0
 10
7.953781
 20
8.406118
 30
0.0
 10
8.350147
 20
8.169547
 30
0.0
 10
8.650648
 20
7.818512
 30
0.0
 10
8.835596
 20
7.395402
 30
0.0
 10
8.897450
 20
6.937187
 30
0.0
 10
8.871162
 20
6.636083
 30
0.0
 10
8.791771
 20
6.344152
 30
0.0
 10
8.660178
 20
6.071879
 30
0.0
 10
8.478802
 20
5.829643
 30
0.0
 10
8.252507
 20
5.629341
 30
0.0
 10
8.239613
 20
5.616792
 30
0.0
 10
8.226409
 20
5.604723
 30
0.0
 10
8.212727
 20
5.592954
 30
0.0
 10
8.199001
 20
5.581935
 30
0.0
 10
8.184692
 20
5.571514
 30
0.0
 10
8.163201
 20
5.556892
 30
0.0
 10
8.141862
 20
5.542374
 30
0.0
 10
8.120523
 20
5.527856
 30
0.0
 10
8.098932
 20
5.513167
 30
0.0
 10
8.077214
 20
5.498390
 30
0.0
 10
8.063049
 20
5.484788
 30
0.0
 10
8.053097
 20
5.467389
 30
0.0
 10
8.047743
 20
5.448293
 30
0.0
 10
8.047007
 20
5.428627
 30
0.0
 10
8.051221
 20
5.409547
 30
0.0
 10
8.228275
 20
4.934195
 30
0.0
 10
8.405434
 20
4.458561
 30
0.0
 10
8.582533
 20
3.983090
 30
0.0
 10
8.759677
 20
3.507499
 30
0.0
 10
8.936662
 20
3.032332
 30
0.0
 10
8.944954
 20
3.017023
 30
0.0
 10
8.957370
 20
3.005104
 30
0.0
 10
8.973495
 20
2.998091
 30
0.0
 10
8.990835
 20
2.997612
 30
0.0
 10
9.007243
 20
3.003461
 30
0.0
 10
9.093119
 20
3.054404
 30
0.0
 10
9.178826
 20
3.105246
 30
0.0
 10
9.264688
 20
3.156180
 30
0.0
 10
9.350499
 20
3.207084
 30
0.0
 10
9.436706
 20
3.258223
 30
0.0
 10
9.454400
 20
3.266276
 30
0.0
 10
9.473942
 20
3.269790
 30
0.0
 10
9.493784
 20
3.269036
 30
0.0
 10
9.512600
 20
3.264183
 30
0.0
 10
9.530068
 20
3.254554
 30
0.0
 10
9.724806
 20
3.106066
 30
0.0
 10
9.919659
 20
2.957490
 30
0.0
 10
10.114247
 20
2.809116
 30
0.0
 10
10.309172
 20
2.660485
 30
0.0
 10
10.503944
 20
2.511971
 30
0.0
 10
10.520610
 20
2.503252
 30
0.0
 10
10.538665
 20
2.500047
 30
0.0
 10
10.557123
 20
2.502023
 30
0.0
 10
10.574202
 20
2.508965
 30
0.0
 10
10.588715
 20
2.520720
 30
0.0
 10
10.767412
 20
2.719214
 30
0.0
 10
10.946215
 20
2.917826
 30
0.0
 10
11.124775
 20
3.116167
 30
0.0
 10
11.303643
 20
3.314852
 30
0.0
 10
11.482371
 20
3.513380
 30
0.0
 10
11.493266
 20
3.530012
 30
0.0
 10
11.499473
 20
3.549169
 30
0.0
 10
11.501128
 20
3.569239
 30
0.0
 10
11.498116
 20
3.589461
 30
0.0
 10
11.490217
 20
3.607755
 30
0.0
 10
11.354174
 20
3.827987
 30
0.0
 10
11.218051
 20
4.048350
 30
0.0
 10
11.082112
 20
4.268414
 30
0.0
 10
10.945939
 20
4.488857
 30
0.0
 10
10.809873
 20
4.709128
 30
0.0
 10
10.800889
 20
4.729082
 30
0.0
 10
10.795995
 20
4.750653
 30
0.0
 10
10.794599
 20
4.772421
 30
0.0
 10
10.796651
 20
4.794261
 30
0.0
 10
10.802845
 20
4.815102
 30
0.0
 10
10.877610
 20
5.022591
 30
0.0
 10
10.952419
 20
5.230204
 30
0.0
 10
11.027127
 20
5.437534
 30
0.0
 10
11.101964
 20
5.645223
 30
0.0
 10
11.176742
 20
5.852748
 30
0.0
 10
11.184728
 20
5.871767
 30
0.0
 10
11.196581
 20
5.889002
 30
0.0
 10
11.211024
 20
5.903580
 30
0.0
 10
11.228387
 20
5.915483
 30
0.0
 10
11.247771
 20
5.922683
 30
0.0
 10
11.487253
 20
5.972198
 30
0.0
 10
11.726878
 20
6.021742
 30
0.0
 10
11.966176
 20
6.071219
 30
0.0
 10
12.205888
 20
6.120781
 30
0.0
 10
12.445412
 20
6.170305
 30
0.0
 10
12.463430
 20
6.177543
 30
0.0
 10
12.478449
 20
6.189900
 30
0.0
 10
12.489846
 20
6.205644
 30
0.0
 10
12.497216
 20
6.223713
 30
0.0
 10
12.499862
 20
6.243146
 30
0.0
 10
12.499891
 20
6.523881
 30
0.0
 10
12.499921
 20
6.804782
 30
0.0
 10
12.499951
 20
7.085302
 30
0.0
 10
12.499981
 20
7.366305
 30
0.0
 10
12.500011
 20
7.647089
 30
0.0
 10
12.497386
 20
7.666639
 30
0.0
 10
12.490018
 20
7.684748
 30
0.0
 10
12.478726
 20
7.700370
 30
0.0
 10
12.463946
 20
7.712607
 30
0.0
 10
12.445712
 20
7.720015
 30
0.0
 10
12.445700
 20
7.720015
 30
0.0
 10
12.445700
 20
7.720015
 30
0.0
 10
12.445700
 20
7.720015
 30
0.0
 10
12.445700
 20
7.720015
 30
0.0
 10
12.445700
 20
7.720015
 30
0.0
  0
ENDSEC
  0
SECTION
  2
OBJECTS
  0
DICTIONARY
  5
C
330
0
100
AcDbDictionary
  3
ACAD_GROUP
350
D
  3
ACAD_MLINESTYLE
350
17
  0
DICTIONARY
  5
D
330
C
100
AcDbDictionary
  0
DICTIONARY
  5
1A
330
C
100
AcDbDictionary
  0
DICTIONARY
  5
17
330
C
100
AcDbDictionary
  3
STANDARD
350
18
  0
DICTIONARY
  5
19
330
C
100
AcDbDictionary
  0
ENDSEC
  0
EOF
