<?xml version="1.0" encoding="UTF-8" standalone="no"?>
<!-- Created with Inkscape (http://www.inkscape.org/) -->

<svg
   xmlns:dc="http://purl.org/dc/elements/1.1/"
   xmlns:cc="http://creativecommons.org/ns#"
   xmlns:rdf="http://www.w3.org/1999/02/22-rdf-syntax-ns#"
   xmlns:svg="http://www.w3.org/2000/svg"
   xmlns="http://www.w3.org/2000/svg"
   xmlns:sodipodi="http://sodipodi.sourceforge.net/DTD/sodipodi-0.dtd"
   xmlns:inkscape="http://www.inkscape.org/namespaces/inkscape"
   width="53.149605"
   height="53.149605"
   id="svg3215"
   version="1.1"
   inkscape:version="0.48.5 r10040"
   sodipodi:docname="OSH-Logo.svg">
  <sodipodi:namedview
     id="base"
     pagecolor="#ffffff"
     bordercolor="#666666"
     borderopacity="1.0"
     inkscape:pageopacity="0.0"
     inkscape:pageshadow="2"
     inkscape:zoom="5.6"
     inkscape:cx="62.731364"
     inkscape:cy="8.7756643"
     inkscape:document-units="mm"
     inkscape:current-layer="layer1"
     showgrid="false"
     inkscape:window-width="1600"
     inkscape:window-height="847"
     inkscape:window-x="0"
     inkscape:window-y="31"
     inkscape:window-maximized="1"
     units="mm" />
  <defs
     id="defs3217" />
  <metadata
     id="metadata3220">
    <rdf:RDF>
      <cc:Work
         rdf:about="">
        <dc:format>image/svg+xml</dc:format>
        <dc:type
           rdf:resource="http://purl.org/dc/dcmitype/StillImage" />
        <dc:title />
      </cc:Work>
    </rdf:RDF>
  </metadata>
  <g
     inkscape:label="Layer 1"
     inkscape:groupmode="layer"
     id="layer1"
     transform="translate(0,-999.21258)">
    <path
       id="path3236-3"
       d="M44.098938 1025.0078L43.2289995025 1024.82807461L42.3585434917 1024.64824229L41.489272144 1024.46865473L40.6184993619 1024.28875698L39.748408 1024.109L39.678438014 1024.08272941L39.6172402963 1024.04141437L39.564354397 1023.98972346L39.5216147241 1023.93055896L39.490908 1023.8629L39.2242473442 1023.17173308L38.9574280561 1022.480155L38.6909719005 1021.78951813L38.424055513 1021.09768837L38.157348 1020.4064L38.1336915499 1020.33191148L38.1255643253 1020.25524707L38.1299778953 1020.17811466L38.1469687101 1020.10254346L38.178548 1020.0327L38.6854084065 1019.21193803L39.1925703365 1018.39068781L39.6990420352 1017.57055528L40.2063885287 1016.74900619L40.713338 1015.9281L40.741358335 1015.86243131L40.7517896262 1015.79139146L40.7459334675 1015.72042698L40.7242106369 1015.65322224L40.685538 1015.5941L40.052465895 1014.89075543L39.4190171849 1014.18699244L38.7864305786 1013.48418726L38.1527513475 1012.78016817L37.519568 1012.0767L37.4688331463 1012.03510257L37.4075217956 1012.00976565L37.3415622255 1012.0027465L37.2773572368 1012.01461076L37.219198 1012.0457L36.4674787399 1012.61882965L35.7153122934 1013.19230024L34.9641695217 1013.76499036L34.2117293511 1014.33866964L33.459878 1014.9119L33.3988390664 1014.94633043L33.3294871195 1014.96619602L33.2592949245 1014.9719144L33.1888821962 1014.96373128L33.121928 1014.9389L32.5188601178 1014.66461281L31.9154334797 1014.39016246L31.3128280861 1014.11608562L30.7091818524 1013.84153538L30.106008 1013.5672L30.041125751 1013.53136836L29.9855772623 1013.48118261L29.9397777703 1013.42182444L29.9051503219 1013.35647432L29.883708 1013.2844L29.7162182493 1012.28475248L29.5486288616 1011.28451028L29.3812675577 1010.28562938L29.2136171817 1009.28502318L29.046098 1008.2852L29.0260810676 1008.2203783L28.9898565969 1008.16222192L28.9399202267 1008.11462869L28.8795306154 1008.08241225L28.813998 1008.0708L27.9186064033 1008.0708L27.0226821517 1008.0708L26.1279772248 1008.0708L25.2317269336 1008.0708L24.336178 1008.0708L24.2692045227 1008.08292367L24.2097303972 1008.11501333L24.1599216191 1008.16279266L24.1244606148 1008.2199482L24.104338 1008.2852L23.9369022389 1009.28484752L23.7693668729 1010.28508972L23.6020595172 1011.28397062L23.4344631826 1012.28457682L23.266998 1013.2844L23.2455581374 1013.35657829L23.2104667141 1013.42277231L23.1654953526 1013.48107717L23.1094579936 1013.53169301L23.044698 1013.5672L22.4415761282 1013.84148719L21.8380954683 1014.11593754L21.2354361266 1014.39001438L20.6317358515 1014.66456462L20.028508 1014.9389L19.9622467185 1014.96353975L19.8912887386 1014.97190948L19.8197591023 1014.96601668L19.7524323642 1014.94672068L19.690558 1014.9119L18.9388927295 1014.33877035L18.1867803047 1013.76529976L17.4356914812 1013.19260964L16.683305352 1012.61893036L15.931508 1012.0457L15.8735480748 1012.01473568L15.8092916515 1012.00276339L15.7435554776 1012.00957739L15.6826715798 1012.03440692L15.630868 1012.0767L14.997743905 1012.78004457L14.364243174 1013.48380756L13.7316046176 1014.18661274L13.0978733467 1014.89063183L12.464638 1015.5941L12.4261499335 1015.65299007L12.4041713082 1015.72076714L12.3982660569 1015.79176638L12.4088773339 1015.86331803L12.436838 1015.9281L12.9437503965 1016.74886197L13.4509643475 1017.57011219L13.9574879963 1018.39024472L14.4648865296 1019.21179381L14.971888 1020.0327L15.003493879 1020.10332535L15.0202554542 1020.17953626L15.0243771553 1020.25632671L15.0160413493 1020.3332229L14.992788 1020.4064L14.7260753542 1021.09756692L14.4592040451 1021.789145L14.1926959395 1022.47978187L13.9257275121 1023.17161163L13.658968 1023.8629L13.6281669066 1023.9309383L13.5846207719 1023.9910147L13.5323482637 1024.04184412L13.4701804211 1024.08348084L13.401468 1024.109L12.5315814325 1024.28872539L11.6611773825 1024.46855771L10.7919579251 1024.64814527L9.92123712275 1024.82804302L9.0511977 1025.0078L8.98714835799 1025.03344666L8.93391354244 1025.07723203L8.89361025065 1025.13301564L8.86759364988 1025.19704203L8.8582677 1025.2659L8.85831968999 1026.26062847L8.85837171091 1027.25594869L8.85842366103 1028.24991431L8.85847570087 1029.24559674L8.8585277 1030.2405L8.86795848101 1030.30970224L8.89416637219 1030.37392684L8.93425911801 1030.42935391L8.9867205961 1030.47266913L9.0514577 1030.4986L9.90001837374 1030.67404622L10.7490838434 1030.84959681L11.5969937617 1031.02490848L12.4463682184 1031.20052295L13.295078 1031.376L13.3636237147 1031.40171329L13.4244599498 1031.44324048L13.4765464141 1031.49542718L13.5180661163 1031.55528181L13.547018 1031.6238L13.8119329919 1032.35901844L14.0770055777 1033.09467424L14.3417174081 1033.82932885L14.6068864576 1034.56525237L14.871848 1035.3006L14.8941009342 1035.37576959L14.9011685402 1035.45298344L14.8959710834 1035.53051288L14.8784782629 1035.60627513L14.846748 1035.676L14.3647608043 1036.45636974L13.8824868817 1037.23720372L13.4008693187 1038.016975L12.9184198898 1038.79809313L12.436348 1039.5786L12.4082411683 1039.64430079L12.3978541049 1039.71541516L12.4037951173 1039.78646675L12.4255618793 1039.85374543L12.464148 1039.9129L13.0973260846 1040.61622458L13.7308808373 1041.31996755L14.363573342 1042.02275276L14.9973586542 1042.72675183L15.630648 1043.4302L15.6812710432 1043.47132593L15.742581062 1043.49641649L15.8086252474 1043.50343304L15.8729679058 1043.49180855L15.931288 1043.4612L16.6212491513 1042.93506131L17.3116207501 1042.40860962L18.0010527749 1041.88287442L18.6916756097 1041.35623115L19.381758 1040.83L19.442397784 1040.79637736L19.5106853924 1040.77864755L19.5810388598 1040.77603377L19.6486787068 1040.7880729L19.712568 1040.817L20.0168534113 1040.99750524L20.32053965 1041.17765505L20.6247759634 1041.35813117L20.928828196 1041.53849809L21.234288 1041.7197L21.2919164689 1041.7407261L21.354613954 1041.73923428L21.4116099038 1041.71423117L21.4550194903 1041.6721872L21.484378 1041.6174L22.1117871954 1039.9331443L22.739569627 1038.24788665L23.3671375077 1036.56320496L23.9948622566 1034.87810217L24.622028 1033.1945L24.6371251496 1033.12689133L24.6346646931 1033.0573207L24.6154509191 1032.9888025L24.5805614093 1032.92802084L24.529928 1032.8797L24.4537766626 1032.82788998L24.3781656676 1032.77644758L24.3025574731 1032.72500708L24.2260541929 1032.67295761L24.149098 1032.6206L24.0979103582 1032.5832649L24.0489919036 1032.54405526L24.0015111955 1032.50334747L23.9535725383 1032.45967929L23.908268 1032.4157L23.1065494911 1031.70597561L22.4642264894 1030.84822565L21.9974234483 1029.88252259L21.7162688397 1028.84885457L21.623038 1027.7816L21.8423013997 1026.15774786L22.4988119873 1024.65688274L23.563136531 1023.4144055L24.9674461975 1022.57655507L26.574858 1022.2802L28.1826877264 1022.57672756L29.5871360697 1023.41497274L30.6519037211 1024.65879778L31.3072301001 1026.15800316L31.526398 1027.7816L31.4332521528 1028.8485054L31.1519431159 1029.88290503L30.6856716528 1030.8476527L30.0429984868 1031.70596938L29.241168 1032.4157L29.1954798948 1032.46016781L29.1486933004 1032.50293128L29.1002146905 1032.54463104L29.0515770644 1032.58367526L29.000878 1032.6206L28.9247266626 1032.67241002L28.8491156676 1032.72385242L28.7735074731 1032.77529292L28.6970041929 1032.82734239L28.620048 1032.8797L28.5698569216 1032.92789846L28.5345966176 1032.98954756L28.5156245397 1033.05721145L28.5130153268 1033.12689321L28.527948 1033.1945L29.1553052054 1034.87881569L29.7830356161 1036.56413336L30.4105514937 1038.24887505L31.0382242264 1039.93403787L31.665338 1041.6177L31.6947193206 1041.67194481L31.7387138513 1041.71417716L31.7958486258 1041.73902846L31.8572882401 1041.74072687L31.915428 1041.72L32.2197134113 1041.53949476L32.52339965 1041.35934495L32.8276359634 1041.17886883L33.131688196 1040.99850191L33.437148 1040.8173L33.4998442818 1040.78876639L33.5690844894 1040.77631456L33.639390769 1040.77898809L33.7060616488 1040.79618201L33.767958 1040.8303L34.4579731409 1041.35643869L35.1483987614 1041.88289038L35.8378847344 1042.40862558L36.5285616106 1042.93526885L37.218698 1043.4615L37.2777520616 1043.49239419L37.3417273588 1043.50375058L37.407127627 1043.49674831L37.4676457641 1043.47215154L37.519068 1043.4305L38.1522460846 1042.72717542L38.7858008373 1042.02343245L39.418493342 1041.32064724L40.0522786542 1040.61664817L40.685568 1039.9132L40.7241721542 1039.85426712L40.7461640347 1039.78639071L40.7520267891 1039.71527531L40.7413576617 1039.64362387L40.713368 1039.5788L40.2313268147 1038.79845025L39.7489988704 1038.01763629L39.2673273592 1037.23788498L38.7848238889 1036.45678687L38.302698 1035.6763L38.2708649898 1035.60559456L38.2535259712 1035.5291638L38.2485783434 1035.45203011L38.2558494035 1035.37464632L38.277798 1035.3008L38.5427129919 1034.56560156L38.8077855777 1033.82996576L39.0724974081 1033.09533114L39.3376664576 1032.35942763L39.602628 1031.6241L39.6309260787 1031.55671124L39.6729246464 1031.49564118L39.7241023616 1031.44398883L39.7856223992 1031.40181078L39.854308 1031.3763L40.7028666141 1031.20085378L41.551930023 1031.02530319L42.3998378833 1030.84999152L43.2492102784 1030.67437705L44.097918 1030.4989L44.1617585212 1030.47325334L44.2149761968 1030.42946797L44.2553584959 1030.37368436L44.2814736219 1030.30965797L44.290848 1030.2408L44.2909539796 1029.24607153L44.2910600222 1028.25075131L44.2911659206 1027.25678569L44.2912720018 1026.26110326L44.291378 1025.2662L44.2820774405 1025.19692775L44.255967552 1025.13276402L44.2159593213 1025.07740849L44.1635896734 1025.03405091L44.098978 1025.0078L44.098938 1025.0078L44.098938 1025.0078L44.098938 1025.0078L44.098938 1025.0078L44.098938 1025.0078"
       inkscape:connector-curvature="0"
       style="fill:#000000"
       sodipodi:nodetypes="ccccccssccccccsscccccccccccccccccccccccccccccccccssscccccccccccccccccccc" />
  </g>
</svg>
