<?xml version="1.0" encoding="UTF-8" standalone="no"?>
<!-- Created with Inkscape (http://www.inkscape.org/) -->

<svg
   xmlns:dc="http://purl.org/dc/elements/1.1/"
   xmlns:cc="http://creativecommons.org/ns#"
   xmlns:rdf="http://www.w3.org/1999/02/22-rdf-syntax-ns#"
   xmlns:svg="http://www.w3.org/2000/svg"
   xmlns="http://www.w3.org/2000/svg"
   xmlns:xlink="http://www.w3.org/1999/xlink"
   xmlns:sodipodi="http://sodipodi.sourceforge.net/DTD/sodipodi-0.dtd"
   xmlns:inkscape="http://www.inkscape.org/namespaces/inkscape"
   width="744.09448819"
   height="1052.3622047"
   id="svg2"
   version="1.1"
   inkscape:version="0.48.5 r10040"
   sodipodi:docname="logo-wip.svg">
  <defs
     id="defs4">
    <linearGradient
       id="linearGradient4528">
      <stop
         style="stop-color:#afdde9;stop-opacity:1;"
         offset="0"
         id="stop4530" />
      <stop
         style="stop-color:#d2f5fe;stop-opacity:0.74242425;"
         offset="1"
         id="stop4532" />
    </linearGradient>
    <linearGradient
       inkscape:collect="always"
       xlink:href="#linearGradient4528"
       id="linearGradient5021"
       gradientUnits="userSpaceOnUse"
       gradientTransform="matrix(1,0,0.10688098,1,12.860625,76.597031)"
       x1="165.35391"
       y1="328.62186"
       x2="208.05461"
       y2="407.78217" />
  </defs>
  <sodipodi:namedview
     id="base"
     pagecolor="#ffffff"
     bordercolor="#666666"
     borderopacity="1.0"
     inkscape:pageopacity="0.0"
     inkscape:pageshadow="2"
     inkscape:zoom="0.7"
     inkscape:cx="223.66539"
     inkscape:cy="532.36907"
     inkscape:document-units="px"
     inkscape:current-layer="layer1"
     showgrid="true"
     inkscape:object-nodes="true"
     inkscape:snap-bbox="true"
     inkscape:snap-grids="false"
     inkscape:window-width="1600"
     inkscape:window-height="847"
     inkscape:window-x="0"
     inkscape:window-y="31"
     inkscape:window-maximized="1">
    <inkscape:grid
       type="axonomgrid"
       id="grid2993"
       units="mm"
       empspacing="5"
       visible="true"
       enabled="false"
       snapvisiblegridlinesonly="true" />
    <inkscape:grid
       type="xygrid"
       id="grid4536"
       empspacing="5"
       visible="true"
       enabled="true"
       snapvisiblegridlinesonly="true" />
  </sodipodi:namedview>
  <metadata
     id="metadata7">
    <rdf:RDF>
      <cc:Work
         rdf:about="">
        <dc:format>image/svg+xml</dc:format>
        <dc:type
           rdf:resource="http://purl.org/dc/dcmitype/StillImage" />
        <dc:title></dc:title>
      </cc:Work>
    </rdf:RDF>
  </metadata>
  <g
     inkscape:label="Layer 1"
     inkscape:groupmode="layer"
     id="layer1">
    <g
       id="g3434"
       transform="translate(-122.74376,-38.863897)">
      <path
         sodipodi:nodetypes="ccccc"
         inkscape:connector-curvature="0"
         id="path3392"
         d="m 214.80158,95.669269 0,53.149611 -61.37188,-35.43308 61.37188,-17.716531 z"
         style="fill:#ffcc00;stroke:#000000;stroke-width:1px;stroke-linecap:butt;stroke-linejoin:miter;stroke-opacity:1" />
      <path
         sodipodi:nodetypes="ccccc"
         inkscape:connector-curvature="0"
         id="path3392-3-6"
         d="m 276.17346,77.95273 0,53.14961 -61.37188,-35.43308 61.37188,-17.71653 z"
         style="fill:#ffcc00;stroke:#000000;stroke-width:1px;stroke-linecap:butt;stroke-linejoin:miter;stroke-opacity:1" />
      <path
         inkscape:connector-curvature="0"
         id="path3430"
         d="m 153.4297,113.3858 0,17.71654 122.74376,70.86614 0,-17.71653 z"
         style="fill:#d4aa00;stroke:#000000;stroke-width:1px;stroke-linecap:butt;stroke-linejoin:miter;stroke-opacity:1" />
      <path
         sodipodi:nodetypes="ccccc"
         inkscape:connector-curvature="0"
         id="path3432"
         d="m 214.80158,95.669269 0,17.716531 61.37188,35.43308 0,-17.71654 z"
         style="fill:#aa8800;stroke:#000000;stroke-width:1px;stroke-linecap:butt;stroke-linejoin:miter;stroke-opacity:1" />
      <path
         sodipodi:nodetypes="ccccc"
         inkscape:connector-curvature="0"
         id="path3392-3"
         d="m 276.17346,131.10234 0,53.14961 -61.37188,-35.43308 61.37188,-17.71653 z"
         style="fill:#ffcc00;stroke:#000000;stroke-width:1px;stroke-linecap:butt;stroke-linejoin:miter;stroke-opacity:1" />
    </g>
    <text
       xml:space="preserve"
       style="font-size:40px;font-style:normal;font-variant:normal;font-weight:normal;font-stretch:normal;line-height:125%;letter-spacing:0px;word-spacing:0px;fill:#000000;fill-opacity:1;stroke:none;font-family:Impact;-inkscape-font-specification:Impact"
       x="168.77267"
       y="83.38018"
       id="text3441"
       sodipodi:linespacing="125%"><tspan
         sodipodi:role="line"
         id="tspan3443"
         x="168.77267"
         y="83.38018">Not working?</tspan><tspan
         sodipodi:role="line"
         x="168.77267"
         y="133.38019"
         id="tspan3445">Try Force.</tspan></text>
    <g
       id="g3567"
       transform="translate(-45.714286,-72.857143)">
      <g
         id="g3575"
         transform="matrix(0.27515054,0,0,0.27515054,62.948644,455.59053)">
        <path
           style="font-size:medium;font-style:normal;font-variant:normal;font-weight:normal;font-stretch:normal;text-indent:0;text-align:start;text-decoration:none;line-height:normal;letter-spacing:normal;word-spacing:normal;text-transform:none;direction:ltr;block-progression:tb;writing-mode:lr-tb;text-anchor:start;baseline-shift:baseline;color:#000000;fill:#1f1e1c;fill-opacity:0.95686275;stroke:none;stroke-width:5.65752029;marker:none;visibility:visible;display:inline;overflow:visible;enable-background:accumulate;font-family:Sans;-inkscape-font-specification:Sans"
           d="m 191.03125,628.53125 c -57.6738,0 -104.1875,46.51369 -104.1875,104.1875 l 0,268.93745 c 0,57.6739 46.5137,104.1876 104.1875,104.1876 l 576.9375,0 c 57.6738,0 104.21875,-46.5137 104.21875,-104.1876 l 0,-268.93745 c 0,-57.67381 -46.54495,-104.1875 -104.21875,-104.1875 l -576.9375,0 z m 0,5.65625 576.9375,0 c 54.6374,0 98.5625,43.89384 98.5625,98.53125 l 0,268.93745 c 0,54.6374 -43.9251,98.5313 -98.5625,98.5313 l -576.9375,0 c -54.6374,0 -98.53125,-43.8939 -98.53125,-98.5313 l 0,-268.93745 c 0,-54.63741 43.89385,-98.53125 98.53125,-98.53125 z"
           id="rect3438"
           inkscape:connector-curvature="0" />
        <path
           style="fill:#a40018;fill-opacity:1;fill-rule:nonzero;stroke:none"
           id="rect3440"
           d="m 256.30097,732.93446 c -53.40407,0 -96.85558,43.42204 -96.85558,96.8261 l 0,117.33463 28.28761,0 0,-72.72271 273.88882,0 0,-28.2876 -273.88882,0 0,-16.32432 c 0,-38.2221 30.34593,-68.5385 68.56797,-68.5385 l 205.32085,0 0,-28.2876 -205.32085,0 z m 242.47779,-63.58817 0,277.7489 28.28761,0 0,-114.68266 c 0,-39.6892 32.23791,-71.19047 71.92712,-71.19047 l 103.98641,0 c 39.68922,0 71.21993,31.50127 71.21993,71.19047 l 0,114.68266 28.2876,0 0,-114.68266 c 0,-54.87126 -44.63627,-99.47807 -99.50753,-99.47807 l -103.98641,0 c -28.26291,0 -53.79597,11.84591 -71.92712,30.8217 l 0,-94.40987 -28.28761,0 z"
           inkscape:connector-curvature="0" />
        <path
           style="font-size:72.84078979px;font-style:normal;font-variant:normal;font-weight:normal;font-stretch:normal;text-align:start;line-height:100%;writing-mode:lr-tb;text-anchor:start;fill:#201f1d;fill-opacity:1;stroke:none;font-family:HelveticaTextbook LT Oblique;-inkscape-font-specification:'HelveticaTextbook LT Oblique,'"
           id="text3482"
           d="m 209.91062,1031.0588 c -2.2e-4,8.0125 -2.19607,14.4114 -6.58755,19.1966 -4.39157,4.7853 -10.22745,7.1779 -17.50766,7.1779 -6.045,0 -11.13106,-1.6943 -15.25818,-5.0829 -4.12714,-3.3886 -6.81002,-8.0132 -8.04863,-13.8737 -0.46456,-2.198 -0.70668,-4.5337 -0.72637,-7.0071 0.004,-7.7832 2.21557,-14.056 6.63503,-18.8182 4.41945,-4.7622 10.24623,-7.1433 17.48039,-7.1433 6.548,0 11.87185,1.9005 15.97156,5.7012 3.70195,3.4334 6.1578,8.0118 7.36753,13.7354 0.43556,2.0611 0.66018,4.0992 0.67388,6.1141 l 0,0 z m -6.90352,0.48 c 0.0227,-2.0611 -0.1594,-4.0069 -0.54625,-5.8375 -0.93889,-4.4421 -2.87894,-7.9338 -5.82011,-10.4749 -2.94126,-2.5411 -6.54073,-3.8116 -10.79846,-3.8117 -5.17444,10e-5 -9.33191,1.8317 -12.47238,5.4948 -3.14051,3.6632 -4.71348,8.5166 -4.71894,14.5601 -0.0227,2.0612 0.1595,4.0077 0.54669,5.8396 0.9288,4.3947 2.86389,7.863 5.80528,10.4048 2.94134,2.5418 6.5416,3.8127 10.80078,3.8127 5.17299,0 9.33009,-1.8316 12.47133,-5.4948 3.14115,-3.6632 4.71849,-8.4942 4.73206,-14.4931 l 0,0 z m 50.25718,-12.2262 c -0.0128,4.4884 -2.22204,7.9 -6.62764,10.235 2.80599,1.1444 4.82518,2.3577 6.05756,3.6398 1.23233,1.282 2.0663,2.9536 2.50196,5.0147 0.22234,1.0523 0.33989,2.1506 0.35264,3.295 -0.0323,4.3961 -1.57391,7.9335 -4.62479,10.6123 -3.05094,2.6787 -7.09514,4.0181 -12.13259,4.0181 l -21.22241,0 0.085,-49.3136 21.70449,0 c 3.61775,10e-5 6.63823,0.8584 9.06149,2.575 2.42318,1.7167 3.94933,4.0632 4.57842,7.0396 0.1934,0.9153 0.28201,1.8767 0.26582,2.8841 l 0,0 z m -6.69768,0.4821 c -0.008,-0.6875 -0.0755,-1.3289 -0.20125,-1.9242 -0.7549,-3.5716 -4.08565,-5.3574 -9.99226,-5.3574 l -12.08787,0 -0.0197,15.1795 12.0187,0 c 6.86939,0 10.29686,-2.6326 10.2824,-7.8979 l 0,0 z m 2.35926,21.5662 c -0.007,-0.6875 -0.0734,-1.3289 -0.19917,-1.9242 -0.89017,-4.2116 -4.6777,-6.3174 -11.36265,-6.3175 l -13.11911,0 0.017,17.307 14.21744,0 c 3.34246,0 5.92273,-0.7898 7.74083,-2.3695 1.81802,-1.5797 2.7199,-3.8117 2.70565,-6.6958 l 0,0 z m 51.21786,-34.547 -0.0554,5.9067 -29.26072,0 0.0348,15.1103 26.99281,0 -0.0575,5.9067 -26.99071,0 -0.0208,16.4832 29.74072,0 0.0117,5.9067 -36.40193,0 0.0872,-49.3136 35.91984,0 z m 48.91806,13.3916 c 0.0108,3.2978 -0.83299,6.0227 -2.53148,8.1746 -0.86624,1.0983 -2.31308,2.2658 -4.34055,3.5025 3.07245,1.3275 4.89413,3.3418 5.46505,6.0429 0.18394,0.8705 0.31998,1.9472 0.40808,3.2299 l 0.44465,8.9271 c 0.0298,1.0075 0.0981,1.7635 0.20474,2.2679 0.22235,1.0522 0.96091,1.9451 2.21574,2.6787 l 0.0246,1.0984 -8.17247,0 c -0.22039,-0.8245 -0.38977,-1.6259 -0.50811,-2.4042 -0.37811,-2.655 -0.58636,-5.6998 -0.62476,-9.1345 -0.0113,-1.7859 -0.11861,-3.1595 -0.32176,-4.1209 -0.25166,-1.1905 -0.79976,-2.2664 -1.64429,-3.2279 -1.32709,-1.5119 -3.61644,-2.2679 -6.86806,-2.2679 l -16.13951,0 0.007,21.1554 -6.66123,0 0.0851,-49.3136 22.80282,0 c 9.15827,10e-5 14.4341,3.2964 15.82751,9.8891 0.23238,1.0998 0.34149,2.2673 0.32734,3.5025 l 0,0 z m -6.83602,0.4821 c -0.009,-0.9166 -0.0913,-1.7411 -0.24605,-2.4733 -0.80334,-3.8008 -3.67762,-5.7012 -8.62284,-5.7012 l -16.6216,0 -0.0295,16.7599 15.45411,0 c 6.68494,0 10.04022,-2.8618 10.06584,-8.5854 l 0,0 z m 62.19738,10.3712 c -0.0137,-2.0149 -0.23833,-4.053 -0.67389,-6.1141 -1.20973,-5.7236 -3.66557,-10.302 -7.36752,-13.7354 -4.09972,-3.8007 -9.42357,-5.7012 -15.97156,-5.7012 -7.23415,0 -13.06094,2.3811 -17.48039,7.1433 -4.41946,4.7622 -6.63113,11.035 -6.63502,18.8182 0.0197,2.4734 0.2618,4.8091 0.72637,7.0071 1.23861,5.8605 3.92149,10.4851 8.04863,13.8737 4.12712,3.3886 9.21317,5.0829 15.25817,5.0829 7.28022,0 13.11609,-2.3926 17.50767,-7.1779 4.39147,-4.7852 6.58732,-11.1841 6.58754,-19.1966 l 0,0 z m -6.90352,0.48 c -0.0136,5.9989 -1.59091,10.8299 -4.73207,14.4931 -3.14122,3.6632 -7.29833,5.4948 -12.47133,5.4948 -4.25918,0 -7.85942,-1.2709 -10.80078,-3.8127 -2.94138,-2.5418 -4.87646,-6.0101 -5.80527,-10.4048 -0.38718,-1.8319 -0.56942,-3.7784 -0.54669,-5.8396 0.005,-6.0435 1.57844,-10.8969 4.71894,-14.5601 3.14046,-3.6631 7.29794,-5.4947 12.47237,-5.4948 4.25774,10e-5 7.85721,1.2706 10.79846,3.8117 2.94119,2.5411 4.88123,6.0328 5.82013,10.4749 0.38683,1.8306 0.56891,3.7764 0.54624,5.8375 l 0,0 z m -9.39349,-37.29483 -6.25039,0 -0.0308,7.00493 6.25039,0 0.0307,-7.00493 z m -11.12579,0 -6.25039,0 -0.0307,7.00493 6.25039,0 0.0307,-7.00493 z m 71.2523,26.99283 -6.25039,0 c -0.0448,-0.6414 -0.12515,-1.2367 -0.24119,-1.7859 -1.16127,-5.4943 -5.22133,-8.2415 -12.18013,-8.2416 -3.48086,10e-5 -6.19491,0.7553 -8.14215,2.2658 -1.94728,1.5106 -2.91478,3.5941 -2.90249,6.2504 -0.0111,0.5954 0.0364,1.1445 0.14277,1.6475 0.51299,2.4273 2.40351,4.007 5.67159,4.7392 l 14.07592,3.2279 c 6.16055,1.4197 9.78276,4.6937 10.86669,9.822 0.22262,1.0536 0.32702,2.1988 0.31314,3.4354 -0.0191,4.67 -1.75632,8.3101 -5.21153,10.9204 -3.45528,2.6103 -8.29622,3.9154 -14.52283,3.9154 -6.82332,0 -11.95452,-1.855 -15.3936,-5.565 -1.00073,-1.0522 -1.82038,-2.2197 -2.45899,-3.5025 -1.01976,-2.015 -1.57246,-4.7391 -1.65809,-8.1724 l 6.2504,0 c 0.0662,0.9614 0.18647,1.8543 0.36074,2.6787 1.24835,5.9067 5.78722,8.86 13.61665,8.86 8.37994,0 12.57297,-2.9079 12.57912,-8.7238 0.0155,-1.8766 -0.514,-3.4102 -1.58863,-4.6008 -1.25313,-1.3735 -4.23934,-2.6102 -8.95867,-3.71 l -10.04095,-2.3349 c -5.87558,-1.3736 -9.29238,-4.3269 -10.25043,-8.86 -0.19344,-0.9152 -0.28692,-1.8997 -0.28043,-2.9533 -0.0256,-4.67 1.55586,-8.3443 4.74441,-11.0231 3.18855,-2.6787 7.53003,-4.0181 13.02447,-4.0181 3.52552,0 6.66824,0.5722 9.42819,1.7166 3.41333,1.4198 5.8419,3.5948 7.28569,6.525 0.88183,1.7859 1.4554,4.2816 1.72072,7.4871 l 0,0 z m 45.57986,-14.4229 -0.0575,5.9067 -16.68867,0 -0.0297,43.4069 -6.66331,0 0.0297,-43.4069 -16.68866,0 0.0554,-5.9067 40.04275,0 z m 42.81163,0 -0.0554,5.9067 -29.26073,0 0.0349,15.1103 26.99279,0 -0.0575,5.9067 -26.99071,0 -0.0208,16.4832 29.74071,0 0.0117,5.9067 -36.40193,0 0.0872,-49.3136 35.91984,0 z m 48.91803,13.3916 c 0.0108,3.2978 -0.83299,6.0227 -2.53146,8.1746 -0.86624,1.0983 -2.31308,2.2658 -4.34056,3.5025 3.07246,1.3275 4.89413,3.3418 5.46506,6.0429 0.18394,0.8705 0.31997,1.9472 0.40807,3.2299 l 0.44465,8.9271 c 0.0298,1.0075 0.0981,1.7635 0.20474,2.2679 0.22235,1.0522 0.96091,1.9451 2.21574,2.6787 l 0.0246,1.0984 -8.17247,0 c -0.22039,-0.8245 -0.38976,-1.6259 -0.50811,-2.4042 -0.37812,-2.655 -0.58636,-5.6998 -0.62474,-9.1345 -0.0114,-1.7859 -0.11864,-3.1595 -0.32178,-4.1209 -0.25166,-1.1905 -0.79976,-2.2664 -1.6443,-3.2279 -1.32708,-1.5119 -3.61644,-2.2679 -6.86805,-2.2679 l -16.13951,0 0.007,21.1554 -6.66122,0 0.085,-49.3136 22.80283,0 c 9.15827,10e-5 14.4341,3.2964 15.82752,9.8891 0.23237,1.0998 0.34148,2.2673 0.32732,3.5025 l 0,0 z m -6.83601,0.4821 c -0.009,-0.9166 -0.0913,-1.7411 -0.24606,-2.4733 -0.80334,-3.8008 -3.67761,-5.7012 -8.62283,-5.7012 l -16.62159,0 -0.0295,16.7599 15.45411,0 c 6.68494,0 10.04021,-2.8618 10.06583,-8.5854 l 0,0 z m 56.47025,-0.4821 c 0.0108,3.2978 -0.83299,6.0227 -2.53148,8.1746 -0.86623,1.0983 -2.31308,2.2658 -4.34055,3.5025 3.07245,1.3275 4.89414,3.3418 5.46506,6.0429 0.18394,0.8705 0.31997,1.9472 0.40807,3.2299 l 0.44465,8.9271 c 0.0298,1.0075 0.0981,1.7635 0.20474,2.2679 0.22235,1.0522 0.96092,1.9451 2.21573,2.6787 l 0.0246,1.0984 -8.17246,0 c -0.22039,-0.8245 -0.38977,-1.6259 -0.50811,-2.4042 -0.37811,-2.655 -0.58635,-5.6998 -0.62475,-9.1345 -0.0114,-1.7859 -0.11862,-3.1595 -0.32177,-4.1209 -0.25166,-1.1905 -0.79975,-2.2664 -1.64428,-3.2279 -1.3271,-1.5119 -3.61644,-2.2679 -6.86807,-2.2679 l -16.13951,0 0.007,21.1554 -6.66122,0 0.0851,-49.3136 22.80281,0 c 9.15827,10e-5 14.4341,3.2964 15.82751,9.8891 0.23239,1.0998 0.34149,2.2673 0.32734,3.5025 l 0,0 z m -6.83601,0.4821 c -0.009,-0.9166 -0.0914,-1.7411 -0.24606,-2.4733 -0.80334,-3.8008 -3.67761,-5.7012 -8.62284,-5.7012 l -16.6216,0 -0.0294,16.7599 15.4541,0 c 6.68494,0 10.04023,-2.8618 10.06585,-8.5854 l 0,0 z m 53.29617,-13.8737 -0.0554,5.9067 -29.26071,0 0.0348,15.1103 26.99281,0 -0.0575,5.9067 -26.99071,0 -0.0208,16.4832 29.74072,0 0.0117,5.9067 -36.40194,0 0.0872,-49.3136 35.91984,0 z m 13.24957,0 0,49.3136 -6.66122,0 0,-49.3136 6.66122,0 z m 54.14845,14.8337 -6.4559,0 c -0.85789,-2.9749 -1.95416,-5.1269 -3.28855,-6.4558 -2.50109,-2.518 -5.97207,-3.777 -10.41283,-3.7771 -5.08361,10e-5 -9.0656,1.7974 -11.94596,5.3921 -2.88041,3.5947 -4.32147,8.5285 -4.3232,14.8012 -0.017,2.5181 0.19233,4.8076 0.62795,6.8687 1.83873,8.7 6.92502,13.05 15.25888,13.05 4.76078,0 8.4811,-1.7859 11.161,-5.3575 1.3256,-1.7411 2.44394,-4.466 3.35522,-8.1746 l 6.45579,0 c -0.12261,0.5045 -0.27026,1.2143 -0.44286,2.1296 -1.2727,4.8083 -2.90863,8.3339 -4.90792,10.5766 -4.04284,4.4883 -9.45209,6.7325 -16.22785,6.7325 -5.58667,0 -10.25268,-1.6028 -13.99807,-4.8083 -3.7454,-3.2056 -6.21806,-7.6471 -7.41798,-13.3245 -0.513,-2.4272 -0.76215,-5.0145 -0.74751,-7.7617 0.011,-7.9677 2.09591,-14.2981 6.25473,-18.9912 4.15879,-4.693 9.78677,-7.0394 16.88394,-7.0395 5.58663,10e-5 10.1291,1.3967 13.62743,4.19 3.49825,2.7933 5.67942,6.7765 6.54369,11.9495 l 0,0 z m 49.5715,-14.8337 -0.0871,49.3136 -6.66125,0 0.0127,-23.0083 -25.75614,0 -0.0127,23.0083 -6.66324,0 0.0871,-49.3136 6.66126,0 -0.0842,20.3987 25.75614,0 0.0842,-20.3987 6.66325,0 z"
           inkscape:connector-curvature="0" />
        <path
           inkscape:connector-curvature="0"
           id="path3487"
           d="m 160.34375,979.875 0,3.90625 642.59375,0.53125 0,-3.90625 -642.59375,-0.53125 z"
           style="font-size:medium;font-style:normal;font-variant:normal;font-weight:normal;font-stretch:normal;text-indent:0;text-align:start;text-decoration:none;line-height:normal;letter-spacing:normal;word-spacing:normal;text-transform:none;direction:ltr;block-progression:tb;writing-mode:lr-tb;text-anchor:start;baseline-shift:baseline;color:#000000;fill:#201f1d;fill-opacity:1;fill-rule:evenodd;stroke:none;stroke-width:3.90986133;marker:none;visibility:visible;display:inline;overflow:visible;enable-background:accumulate;font-family:Sans;-inkscape-font-specification:Sans" />
      </g>
    </g>
    <g
       id="g4948"
       transform="matrix(1,0,-0.12762026,1,19.739713,-102.85715)">
      <text
         transform="scale(1.0208608,0.9795655)"
         sodipodi:linespacing="125%"
         id="text2985"
         y="481.79654"
         x="81.491837"
         style="font-size:162.59803772px;font-style:normal;font-variant:normal;font-weight:normal;font-stretch:normal;line-height:125%;letter-spacing:0px;word-spacing:0px;fill:#000000;fill-opacity:1;stroke:none;font-family:Impact;-inkscape-font-specification:Impact"
         xml:space="preserve"><tspan
           style="font-weight:bold;-inkscape-font-specification:Impact Bold"
           y="481.79654"
           x="81.491837"
           id="tspan2987"
           sodipodi:role="line">E   D'16</tspan></text>
      <text
         transform="scale(0.89993675,1.1111892)"
         sodipodi:linespacing="125%"
         id="text2989"
         y="514.22089"
         x="94.374397"
         style="font-size:61.35972595px;font-style:normal;font-variant:normal;font-weight:bold;font-stretch:normal;line-height:125%;letter-spacing:0px;word-spacing:0px;fill:#000000;fill-opacity:1;stroke:none;font-family:DejaVu Sans;-inkscape-font-specification:DejaVu Sans Bold"
         xml:space="preserve"><tspan
           y="514.22089"
           x="94.374397"
           id="tspan2991"
           sodipodi:role="line">RACING TEAM</tspan></text>
      <g
         transform="matrix(1.6033994,0,-0.47726367,1.3428346,58.483572,-88.725761)"
         id="g4518">
        <path
           style="fill:#52c6c6;fill-opacity:0.68141593;stroke:none"
           d="m 199.72354,347.24406 c 0,0 18.34394,-6.76996 21.21522,-17.71653 2.87129,-10.94658 0,-17.71653 -15.34297,-23.03149 -8.85826,-3.06859 -30.68593,0 -36.82312,24.80314 -5.11355,20.66616 31.28252,51.09405 39.33097,58.46457 9.67306,8.85827 4.84425,33.66142 -10.966,24.80315 -28.38665,-14.17323 -17.30552,-37.20473 -17.30552,-37.20473 0,0 -12.5535,3.46813 -14.12805,23.0315 -1.57455,19.56337 16.9317,30.11811 32.36812,31.88976 15.43644,1.77166 35.14095,-14.17323 35.14095,-28.34645 0,-10.63362 1.85367,-26.57481 -23.44272,-40.74803 -25.2964,-14.17323 -25.17207,-17.71654 -25.65478,-30.11812 -0.23344,-5.99737 8.7385,-15.94487 18.41156,-7.08661 9.67305,8.85826 -2.80366,21.25984 -2.80366,21.25984 z"
           id="path3613-2-9"
           inkscape:connector-curvature="0"
           sodipodi:nodetypes="czssscczzssszc" />
        <path
           style="fill:#52c6c6;fill-opacity:0.68141593;stroke:none"
           d="m 200.28429,347.24406 c 0,0 18.34394,-6.76996 21.21522,-17.71653 2.87129,-10.94658 0,-17.71653 -15.34297,-23.03149 -8.85826,-3.06859 -30.68593,0 -36.82312,24.80314 -5.11355,20.66616 31.28252,51.09405 39.33097,58.46457 9.67306,8.85827 4.84425,33.66142 -10.966,24.80315 -28.38665,-14.17323 -17.30552,-37.20473 -17.30552,-37.20473 0,0 -12.5535,3.46813 -14.12805,23.0315 -1.57455,19.56337 16.9317,30.11811 32.36812,31.88976 15.43644,1.77166 35.14095,-14.17323 35.14095,-28.34645 0,-10.63362 1.85367,-26.57481 -23.44272,-40.74803 -25.2964,-14.17323 -25.17207,-17.71654 -25.65478,-30.11812 -0.23344,-5.99737 8.7385,-15.94487 18.41156,-7.08661 9.67305,8.85826 -2.80366,21.25984 -2.80366,21.25984 z"
           id="path3613-2-9-3"
           inkscape:connector-curvature="0"
           sodipodi:nodetypes="czssscczzssszc" />
        <path
           style="fill:#52c6c6;fill-opacity:0.68141593;stroke:none"
           d="m 214.80158,354.33068 c 0,0 9.40309,-10.31328 12.27437,-21.25985 2.87129,-10.94658 -2.50785,-23.03149 -17.85082,-28.34645 -8.85826,-3.06859 -34.08409,-0.60077 -36.82312,24.80314 -3.62934,33.66143 31.28252,51.09405 39.33097,58.46457 9.67306,8.85827 4.84425,33.66142 -10.966,24.80315 -28.38665,-14.17323 -4.37697,-23.03149 -4.37697,-23.03149 0,0 -25.48205,-10.70511 -27.0566,8.85826 -1.57455,19.56337 16.9317,30.11811 32.36812,31.88976 15.43644,1.77166 35.14095,-14.17323 35.14095,-28.34645 0,-10.63362 1.85367,-26.57481 -23.44272,-40.74803 -25.2964,-14.17323 -25.17207,-17.71654 -25.65478,-30.11812 -0.23344,-5.99737 8.7385,-15.94487 18.41156,-7.08661 9.67305,8.85826 8.64504,30.11812 8.64504,30.11812 z"
           id="path3613-2-9-3-9-4"
           inkscape:connector-curvature="0"
           sodipodi:nodetypes="czssscczzssszc" />
        <path
           style="fill:url(#linearGradient5021);fill-opacity:1;stroke:none"
           d="m 205.59579,352.55902 c 0,0 3.53322,-2.34481 7.5415,-5.98503 4.39797,-3.99413 9.36788,-9.5478 10.87007,-15.27481 1.50219,-5.72701 -1e-5,-21.25984 -15.34298,-26.5748 -8.85826,-3.06859 -30.68593,0 -36.82312,24.80314 -5.11355,20.66616 31.28252,51.09405 39.33097,58.46457 9.67306,8.85827 1.08981,29.79578 -16.91244,22.92168 -18.82071,-9.62373 -1.49913,-30.0083 -1.49913,-30.0083 0,0 -22.41345,-1.84683 -23.988,17.71654 -1.57455,19.56337 16.9317,30.11811 32.36812,31.88976 15.43644,1.77166 35.14095,-14.17323 35.14095,-28.34645 0,-10.63362 1.85367,-26.57481 -23.44272,-40.74803 -25.2964,-14.17323 -25.17207,-17.71654 -25.65478,-30.11812 -0.23344,-5.99737 8.7385,-15.94487 18.41156,-7.08661 9.67305,8.85826 0,28.34646 0,28.34646 z"
           id="path3613-2-9-3-9"
           inkscape:connector-curvature="0"
           sodipodi:nodetypes="cszssscczzssszc" />
      </g>
      <g
         transform="translate(-4.7683716e-6,1.7316895)"
         id="g4789">
        <rect
           style="fill:#000000;fill-opacity:1;stroke:none"
           id="rect4543"
           width="10.243901"
           height="10.243901"
           x="90"
           y="480.63049" />
        <rect
           style="fill:#000000;fill-opacity:1;stroke:none"
           id="rect4543-8"
           width="10.243901"
           height="10.243901"
           x="100.2439"
           y="490.87436" />
        <rect
           style="fill:#000000;fill-opacity:1;stroke:none"
           id="rect4543-8-3"
           width="10.243901"
           height="10.243901"
           x="90"
           y="501.11829" />
        <rect
           style="fill:#000000;fill-opacity:1;stroke:none"
           id="rect4543-80"
           width="10.243901"
           height="10.243901"
           x="110.48781"
           y="480.63049" />
        <rect
           style="fill:#000000;fill-opacity:1;stroke:none"
           id="rect4543-8-4"
           width="10.243901"
           height="10.243901"
           x="120.7317"
           y="490.87436" />
        <rect
           style="fill:#000000;fill-opacity:1;stroke:none"
           id="rect4543-8-3-0"
           width="10.243901"
           height="10.243901"
           x="110.48781"
           y="501.11829" />
        <rect
           style="fill:#000000;fill-opacity:1;stroke:none"
           id="rect4543-8-1"
           width="10.243901"
           height="10.243901"
           x="141.21951"
           y="490.87436" />
        <rect
           style="fill:#000000;fill-opacity:1;stroke:none"
           id="rect4543-8-3-9"
           width="10.243901"
           height="10.243901"
           x="130.97562"
           y="501.11829" />
        <rect
           style="fill:#000000;fill-opacity:1;stroke:none"
           id="rect4543-8-3-5"
           width="10.243901"
           height="10.243901"
           x="151.46341"
           y="501.11829" />
        <rect
           style="fill:#000000;fill-opacity:1;stroke:none"
           id="rect4543-8-3-93"
           width="10.243901"
           height="10.243901"
           x="171.95122"
           y="501.11829" />
        <rect
           style="fill:#000000;fill-opacity:1;stroke:none"
           id="rect4543-8-4-0"
           width="10.243901"
           height="10.243901"
           x="202.68292"
           y="490.87436" />
        <rect
           style="fill:#000000;fill-opacity:1;stroke:none"
           id="rect4543-8-3-0-5"
           width="10.243901"
           height="10.243901"
           x="192.43903"
           y="501.11829" />
        <rect
           style="fill:#000000;fill-opacity:1;stroke:none"
           id="rect4543-8-1-2"
           width="10.243901"
           height="10.243901"
           x="223.17073"
           y="490.87436" />
        <rect
           style="fill:#000000;fill-opacity:1;stroke:none"
           id="rect4543-8-3-9-9"
           width="10.243901"
           height="10.243901"
           x="212.92683"
           y="501.11829" />
        <rect
           style="fill:#000000;fill-opacity:1;stroke:none"
           id="rect4543-6-4"
           width="10.243901"
           height="10.243901"
           x="233.41463"
           y="480.63049" />
        <rect
           style="fill:#000000;fill-opacity:1;stroke:none"
           id="rect4543-8-2-3"
           width="10.243901"
           height="10.243901"
           x="243.65854"
           y="490.87436" />
        <rect
           style="fill:#000000;fill-opacity:1;stroke:none"
           id="rect4543-8-3-5-5"
           width="10.243901"
           height="10.243901"
           x="233.41463"
           y="501.11829" />
        <rect
           style="fill:#000000;fill-opacity:1;stroke:none"
           id="rect4543-1"
           width="10.243901"
           height="10.243901"
           x="253.90244"
           y="480.63049" />
        <rect
           style="fill:#000000;fill-opacity:1;stroke:none"
           id="rect4543-8-7"
           width="10.243901"
           height="10.243901"
           x="264.14633"
           y="490.87436" />
        <rect
           style="fill:#000000;fill-opacity:1;stroke:none"
           id="rect4543-8-3-4"
           width="10.243901"
           height="10.243901"
           x="253.90244"
           y="501.11829" />
        <rect
           style="fill:#000000;fill-opacity:1;stroke:none"
           id="rect4543-80-3"
           width="10.243901"
           height="10.243901"
           x="274.39026"
           y="480.63049" />
        <rect
           style="fill:#000000;fill-opacity:1;stroke:none"
           id="rect4543-8-4-1"
           width="10.243901"
           height="10.243901"
           x="284.63416"
           y="490.87436" />
        <rect
           style="fill:#000000;fill-opacity:1;stroke:none"
           id="rect4543-8-3-0-4"
           width="10.243901"
           height="10.243901"
           x="274.39026"
           y="501.11829" />
        <rect
           style="fill:#000000;fill-opacity:1;stroke:none"
           id="rect4543-9-6"
           width="10.243901"
           height="10.243901"
           x="294.87805"
           y="480.63049" />
        <rect
           style="fill:#000000;fill-opacity:1;stroke:none"
           id="rect4543-8-1-9"
           width="10.243901"
           height="10.243901"
           x="305.12192"
           y="490.87436" />
        <rect
           style="fill:#000000;fill-opacity:1;stroke:none"
           id="rect4543-8-3-9-4"
           width="10.243901"
           height="10.243901"
           x="294.87805"
           y="501.11829" />
        <rect
           style="fill:#000000;fill-opacity:1;stroke:none"
           id="rect4543-6-2"
           width="10.243901"
           height="10.243901"
           x="315.36581"
           y="480.63049" />
        <rect
           style="fill:#000000;fill-opacity:1;stroke:none"
           id="rect4543-8-2-2"
           width="10.243901"
           height="10.243901"
           x="325.60974"
           y="490.87436" />
        <rect
           style="fill:#000000;fill-opacity:1;stroke:none"
           id="rect4543-8-3-5-6"
           width="10.243901"
           height="10.243901"
           x="315.36581"
           y="501.11829" />
        <rect
           style="fill:#000000;fill-opacity:1;stroke:none"
           id="rect4543-41"
           width="10.243901"
           height="10.243901"
           x="335.85364"
           y="480.63049" />
        <rect
           style="fill:#000000;fill-opacity:1;stroke:none"
           id="rect4543-8-28"
           width="10.243901"
           height="10.243901"
           x="346.09753"
           y="490.87436" />
        <rect
           style="fill:#000000;fill-opacity:1;stroke:none"
           id="rect4543-8-3-8"
           width="10.243901"
           height="10.243901"
           x="335.85364"
           y="501.11829" />
        <rect
           style="fill:#000000;fill-opacity:1;stroke:none"
           id="rect4543-80-9"
           width="10.243901"
           height="10.243901"
           x="356.34143"
           y="480.63049" />
        <rect
           style="fill:#000000;fill-opacity:1;stroke:none"
           id="rect4543-8-4-2"
           width="10.243901"
           height="10.243901"
           x="366.58533"
           y="490.87436" />
        <rect
           style="fill:#000000;fill-opacity:1;stroke:none"
           id="rect4543-8-3-0-8"
           width="10.243901"
           height="10.243901"
           x="356.34143"
           y="501.11829" />
        <rect
           style="fill:#000000;fill-opacity:1;stroke:none"
           id="rect4543-9-8"
           width="10.243901"
           height="10.243901"
           x="376.82925"
           y="480.63049" />
        <rect
           style="fill:#000000;fill-opacity:1;stroke:none"
           id="rect4543-8-1-8"
           width="10.243901"
           height="10.243901"
           x="387.07315"
           y="490.87436" />
        <rect
           style="fill:#000000;fill-opacity:1;stroke:none"
           id="rect4543-8-3-9-6"
           width="10.243901"
           height="10.243901"
           x="376.82925"
           y="501.11829" />
        <rect
           style="fill:#000000;fill-opacity:1;stroke:none"
           id="rect4543-6-8"
           width="10.243901"
           height="10.243901"
           x="397.31708"
           y="480.63049" />
        <rect
           style="fill:#000000;fill-opacity:1;stroke:none"
           id="rect4543-8-2-38"
           width="10.243901"
           height="10.243901"
           x="407.56094"
           y="490.87436" />
        <rect
           style="fill:#000000;fill-opacity:1;stroke:none"
           id="rect4543-8-3-5-3"
           width="10.243901"
           height="10.243901"
           x="397.31708"
           y="501.11829" />
        <rect
           style="fill:#000000;fill-opacity:1;stroke:none"
           id="rect4543-3"
           width="10.243901"
           height="10.243901"
           x="417.80487"
           y="480.63049" />
        <rect
           style="fill:#000000;fill-opacity:1;stroke:none"
           id="rect4543-8-38"
           width="10.243901"
           height="10.243901"
           x="428.04877"
           y="490.87436" />
        <rect
           style="fill:#000000;fill-opacity:1;stroke:none"
           id="rect4543-8-3-04"
           width="10.243901"
           height="10.243901"
           x="417.80487"
           y="501.11829" />
        <rect
           style="fill:#000000;fill-opacity:1;stroke:none"
           id="rect4543-80-7"
           width="10.243901"
           height="10.243901"
           x="438.29269"
           y="480.63049" />
        <rect
           style="fill:#000000;fill-opacity:1;stroke:none"
           id="rect4543-8-4-6"
           width="10.243901"
           height="10.243901"
           x="448.53656"
           y="490.87436" />
        <rect
           style="fill:#000000;fill-opacity:1;stroke:none"
           id="rect4543-8-3-0-89"
           width="10.243901"
           height="10.243901"
           x="438.29269"
           y="501.11829" />
        <rect
           style="fill:#000000;fill-opacity:1;stroke:none"
           id="rect4543-9-06"
           width="10.243901"
           height="10.243901"
           x="458.78049"
           y="480.63049" />
        <rect
           style="fill:#000000;fill-opacity:1;stroke:none"
           id="rect4543-8-1-87"
           width="10.243901"
           height="10.243901"
           x="469.02435"
           y="490.87436" />
        <rect
           style="fill:#000000;fill-opacity:1;stroke:none"
           id="rect4543-8-3-9-90"
           width="10.243901"
           height="10.243901"
           x="458.78049"
           y="501.11829" />
        <rect
           style="fill:#000000;fill-opacity:1;stroke:none"
           id="rect4543-6-3"
           width="10.243901"
           height="10.243901"
           x="479.26828"
           y="480.63049" />
        <rect
           style="fill:#000000;fill-opacity:1;stroke:none"
           id="rect4543-8-2-33"
           width="10.243901"
           height="10.243901"
           x="489.51218"
           y="490.87436" />
        <rect
           style="fill:#000000;fill-opacity:1;stroke:none"
           id="rect4543-8-3-5-7"
           width="10.243901"
           height="10.243901"
           x="479.26828"
           y="501.11829" />
        <rect
           style="fill:#000000;fill-opacity:1;stroke:none"
           id="rect4543-6-3-3"
           width="10.243901"
           height="10.243901"
           x="499.7561"
           y="480.63049" />
        <rect
           style="fill:#000000;fill-opacity:1;stroke:none"
           id="rect4543-8-3-5-7-6"
           width="10.243901"
           height="10.243901"
           x="499.7561"
           y="501.11829" />
      </g>
      <path
         id="path4946"
         d="m 212.9375,487.8125 0,4.78125 10.21875,0 0,-9.75 c -3.32125,1.82123 -6.76377,3.4206 -10.21875,4.96875 z"
         style="fill:#000000;fill-opacity:1;stroke:none"
         inkscape:connector-curvature="0" />
      <path
         id="path4942"
         d="m 182.1875,497.0625 0,5.78125 10.25,0 0,-7.78125 c -1.28145,0.31748 -2.57933,0.67794 -3.84375,0.9375 -2.17497,0.44648 -4.30178,0.79864 -6.40625,1.0625 z"
         style="fill:#000000;fill-opacity:1;stroke:none"
         inkscape:connector-curvature="0" />
      <path
         id="path4938"
         d="m 161.71875,496.15625 0,6.6875 10.21875,0 0,-5.375 c -0.97678,-0.0399 -1.99486,0.002 -2.9375,-0.0937 -2.43584,-0.24751 -4.85629,-0.78292 -7.28125,-1.21875 z"
         style="fill:#000000;fill-opacity:1;stroke:none"
         inkscape:connector-curvature="0" />
      <path
         id="path4934"
         d="m 130.96875,483.96875 0,8.625 10.25,0 0,-2.84375 c -1.94097,-0.91123 -3.96405,-1.71216 -5.75,-2.78125 -1.56384,-0.93613 -3.07934,-1.94263 -4.5,-3 z"
         style="fill:#000000;fill-opacity:1;stroke:none"
         inkscape:connector-curvature="0" />
    </g>
    <g
       id="g3230"
       transform="matrix(0.16482306,0,0,0.16482306,424.09492,476.54689)">
      <path
         inkscape:connector-curvature="0"
         id="path3028-3"
         d="m -171.48916,656.20721 c -30.13743,-0.0384 -39.79071,0.67858 -62,4.5625 -38.58212,6.74717 -85.51583,23.58779 -110.5,39.65625 -36.1837,23.27129 -64.50505,59.33586 -71.15625,90.59375 -1.8794,8.83241 -1.2597,28.31652 1.1875,37.15625 4.2271,15.26905 14.027,30.78701 24.9375,39.46875 14.4371,11.48795 26.7641,14.53013 55.53125,13.71875 10.39102,-0.29308 22.44491,-1.23567 27.5,-2.15625 20.63855,-3.75849 45.15086,-11.14412 67.90625,-20.46875 5.45345,-2.2347 10.45372,-4.0625 11.09375,-4.0625 0.64003,0 2.26224,2.33614 3.59375,5.1875 3.27016,7.00285 10.60624,14.3229 17.625,17.5625 15.2364,7.03258 43.3802,0.28725 83.15625,-19.90625 8.46245,-4.29621 15.72309,-7.59214 16.125,-7.34375 0.40191,0.24839 0.95361,3.83722 1.21875,7.96875 0.66195,10.31455 4.027,15.80083 12.250001,20 5.8504,2.98757 6.05,3.02891 21.468752,2.9375 14.14567,-0.0839 16.63122,-0.37115 27.40625,-3.25 14.7529,-3.94166 35.6142001,-11.67192 50.5624991,-18.75 6.2679399,-2.96789 12.0054399,-5.40625 12.7499999,-5.40625 0.95047,0 1.34375,1.43988 1.34375,4.8125 0,6.03167 3.79054,13.89934 8.781251,18.28125 1.99946,1.75555 6.58645,4.59206 10.1875,6.28125 5.53444,2.59612 7.9969,3.10967 16.03125,3.4375 20.1504,0.82221 53.639577,-8.84761 89.906247,-25.96875 6.82029,-3.21979 12.70631,-5.84375 13.09375,-5.84375 0.38744,0 0.95994,3.13622 1.28125,6.96875 0.72421,8.63835 3.31096,14.62346 8.5625,19.875 9.33728,9.33728 16.90624,10.48939 39.4375,6.03125 17.16426,-3.39621 48.19707,-14.11098 78.96875,-27.28125 5.90745,-2.52839 11.15347,-4.59375 11.65625,-4.59375 0.50279,0 2.14613,2.11068 3.65625,4.6875 1.51011,2.57682 5.73601,7.67351 9.40625,11.34375 12.9066,12.9066 27.83406,17.52249 49.21875,15.1875 22.84212,-2.49413 62.96296,-17.02825 112.71875,-40.84375 8.4719,-4.05504 15.5594,-7.375 15.75,-7.375 0.1906,0 0.34375,2.88957 0.34375,6.4375 0,16.98507 6.6156,29.80917 18,34.90625 3.544,1.58675 6.6441,2.0206 14.5,2.03125 23.1314,0.0313 50.92236,-7.95306 93.43755,-26.8125 0.7914,-0.35109 1.1534,-0.47908 1.8437,-0.78125 -0.4111,-1.31105 -0.8731,-2.6374 -1.1875,-3.90625 -0.5101,-2.05863 -0.9018,-4.04911 -1.125,-5.96875 -0.4464,-3.83929 -0.6934,-7.32617 -0.7812,-10.5 -0.0288,-1.03878 0.059,-1.84123 0.0624,-2.8125 -8.8382,4.36468 -26.09296,10.40625 -29.81245,10.40625 -2.8808,0 -7.68895,-2.66295 -8.90625,-4.9375 -1.5932,-2.9771 -1.19805,-7.05412 1.28125,-13.0625 4.1181,-9.97966 43.03895,-69.22446 45.84375,-69.78125 0.9201,-0.18264 3.1788,2.98766 6.25,8.8125 2.6411,5.00923 5.4153,9.34071 6.1563,9.625 0.7409,0.2843 6.4429,-2.39082 12.6562,-5.9375 6.2132,-3.54667 14.1004,-7.97897 17.5312,-9.84375 4.7485,-2.58088 6.241,-3.90208 6.25,-5.59375 0.0161,-3.0776 -4.7747,-30.13158 -5.5624,-31.40625 -0.8877,-1.43612 -3.7439,-0.56759 -17.1563,5.1875 -7.4643,3.20282 -11.9756,4.61808 -12.5937,4 -0.53,-0.52996 -1.2014,-3.21762 -1.4688,-6 l -0.4688,-5.0625 -3.8124,0 c -9.2351,0 -80.9452,5.0477 -85.6563,6.03125 -6.5975,1.37737 -9.64235,5.0973 -9.71875,11.875 -0.048,4.26732 0.1398,4.62578 3.1875,5.625 1.788,0.58619 3.68045,1.49295 4.21875,2.03125 0.894,0.89396 -22.3088,40.73575 -32.875,56.4375 -5.2907,7.86215 -18.59795,17.55824 -35.59375,25.9375 -39.92712,19.68482 -64.13885,24.50744 -77.75,15.5 -4.90809,-3.24802 -6.92006,-7.92847 -6.53125,-15.125 l 0.28125,-5.5 23.5,-7.75 c 35.41204,-11.70272 54.47468,-19.96484 70.5,-30.5625 17.2118,-11.38228 29.172,-27.63298 30.25,-41.0625 0.7287,-9.07784 -2.4518,-14.20676 -11.75,-18.90625 -8.2206,-4.15488 -14.2486,-5.01175 -35,-5 -42.131,0.0239 -77.0445,9.30588 -104.9375,27.875 -26.22415,17.45813 -44.45886,38.87317 -60.5625,71.09375 l -8,16 -7.53125,3.21875 c -10.0203,4.27814 -20.39572,6.05105 -25.78125,4.4375 -4.96187,-1.48661 -10.1875,-6.2073 -10.1875,-9.21875 0,-1.24251 6.81887,-13.99443 15.15625,-28.34375 8.33737,-14.34933 17.00325,-29.36363 19.25,-33.34375 2.24675,-3.98012 4.65658,-7.45506 5.34375,-7.71875 0.68716,-0.26369 3.10521,1.99369 5.375,5 2.26979,3.00632 4.85412,5.46875 5.75,5.46875 2.48337,0 32.44154,-10.06847 33.84375,-11.375 0.83814,-0.78095 1.44599,-7.13369 1.90625,-19.875 0.59698,-16.52584 0.48943,-18.77693 -0.90625,-19.3125 -0.86885,-0.33341 -7.25212,0.77422 -14.21875,2.46875 -6.96663,1.69452 -13.09334,2.84052 -13.59375,2.53125 -0.50041,-0.30927 -0.90625,-2.12145 -0.90625,-4.03125 0,-2.23399 -0.55166,-3.67461 -1.5625,-4.0625 -2.76864,-1.06243 -93.64719,10.53901 -95.46875,12.1875 -0.89124,0.80657 -2.6641,4.87122 -3.96875,9.03125 l -2.375,7.5625 2.9375,2.34375 c 2.71843,2.16969 2.84378,2.58109 1.78125,5.40625 -0.63291,1.68285 -8.87939,16.6882 -18.34375,33.34375 -21.03301,37.01431 -23.86713,40.25368 -43.5,50.0625 -12.66358,6.32687 -22.42912,9.06706 -29.21875,8.21875 -7.68144,-0.95973 -10.49249,-3.66305 -11,-10.59375 -0.3964,-5.41333 -0.34725,-5.4463 19.09375,-40.90625 10.70463,-19.525 20.05326,-35.5 20.78125,-35.5 0.728,0 3.32216,3.30277 5.78125,7.34375 4.24504,6.97578 4.64931,7.32156 7.59375,6.84375 2.83299,-0.45973 26.28517,-9.45071 30.40625,-11.65625 1.53437,-0.82117 1.84117,-3.35783 2.46875,-20.625 0.39341,-10.8241 0.35897,-20.04723 -0.0937,-20.5 -0.45276,-0.45276 -6.80791,0.82695 -14.125,2.84375 -14.34776,3.95467 -15.12112,3.87463 -15.15625,-1.65625 l -0.0312,-2.40625 -39.75,0.71875 c -21.8625,0.39939 -44.137657,1.05748 -49.499997,1.46875 -8.76285,0.67207 -10.03521,1.01882 -12.625,3.5 -4.35217,4.16964 -6.6204,9.89769 -5.5,13.875 0.80187,2.84658 1.66372,3.49881 6.75,5.15625 5.57396,1.81636 5.79692,2.01542 5.25,4.75 -0.31433,1.57165 -6.1478,13.53432 -12.96875,26.59375 -6.82095,13.05944 -13.67547,26.225 -15.21875,29.25 -6.69153,13.11615 -14.259881,21.13402 -25.406251,26.90625 -14.52015892,7.51937 -24.589359,9.02646 -29.968749,4.5 -5.06211,-4.25949 -4.39843,-7.53044 5.5312501,-27.5625 4.72983,-9.54191 14.64207,-28.68821 22.0312489,-42.5625 17.770791,-33.36728 21.944021,-42.11848 20.656251,-43.40625 -0.68306,-0.68306 -19.907541,-0.88958 -57.90625,-0.59375 -51.646832,0.40208 -57.886462,0.63051 -67.875002,2.46875 -22.344971,4.11226 -38.265131,9.1727 -56.000001,17.75 -34.12438,16.50395 -56.99544,39.98171 -75.15625,77.15625 l -6.40625,13.125 -6.71875,2.5 c -23.10014,8.54735 -40.46809,10.20079 -50.96875,4.84375 -5.64822,-2.88151 -11.96232,-10.44897 -13.75,-16.46875 -3.17328,-10.68558 -1.39388,-28.74208 4.40625,-44.59375 13.49551,-36.88302 54.96639,-72.38109 103.40625,-88.5 16.96047,-5.64378 26.22325,-6.95422 49.1875,-6.9375 27.73625,0.0202 47.321881,3.61906 65.406251,11.96875 4.064962,1.87683 7.901332,3.40625 8.531252,3.40625 2.07586,0 26.0625,-15.70456 26.0625,-17.0625 0,-3.02558 -33.238362,-13.94768 -57.500003,-18.90625 -26.99328,-5.51686 -36.84884,-6.45901 -69,-6.5 z m 624.96875,84.65625 c 1.10918,0.0511 2.13547,0.3309 3.09375,0.84375 2.70095,1.44551 2.4558,3.19794 -1.5625,10.8125 -4.4731,8.47641 -14.53232,20.3957 -23.78125,28.1875 -8.04549,6.77796 -21.37969,13.96875 -25.90625,13.96875 -2.59696,0 -2.85194,-0.27034 -2.25,-2.25 2.38009,-7.82767 14.97514,-24.25567 29.03125,-37.8125 10.1144,-9.75512 16.56854,-13.97152 21.375,-13.75 z m -520.343747,7.96875 c 2.16178,-0.0145 3.94737,0.48239 5.28125,1.5625 1.66855,1.35111 2.37445,2.9147 2.3125,5.09375 -0.20193,7.1019 -13.64027,26.69127 -28.218752,41.125 -11.48021,11.36623 -31.163441,24.81207 -40.406251,27.59375 -4.09613,1.23275 -4.73665,1.18686 -6.78125,-0.46875 -5.92759,-4.79987 0.23402,-19.15438 16.75,-39.0625 17.1028,-20.61546 39.388901,-35.76556 51.062503,-35.84375 z"
         style="fill:#f9f9f9;stroke:#999999;stroke-width:6.06711245;stroke-miterlimit:4;stroke-dasharray:none" />
      <g
         id="text3056"
         style="font-size:527.54974365px;font-style:italic;font-variant:normal;font-weight:bold;font-stretch:normal;line-height:125%;letter-spacing:0px;word-spacing:0px;fill:#000080;fill-opacity:1;stroke:none;font-family:Dingbats;-inkscape-font-specification:Dingbats Bold Italic"
         transform="scale(0.99775097,1.0022541)">
        <path
           sodipodi:nodetypes="cccccccc"
           inkscape:connector-curvature="0"
           id="path3114"
           transform="scale(1.0022541,0.99775097)"
           d="m 773.0625,654.96875 -216.90625,385.46875 101.5,0 155.25,-288.65625 47.03125,288.65625 94.0625,0 -67.84375,-385.46875 z"
           style="fill:#000080;font-family:Dingbats;-inkscape-font-specification:Dingbats Bold Italic" />
      </g>
      <rect
         ry="0"
         rx="0"
         transform="matrix(1,0,-0.60971077,0.79262398,0,0)"
         y="1135.0289"
         x="243.46797"
         height="62.656006"
         width="1356.0634"
         id="rect3070"
         style="fill:#000080;fill-opacity:1;stroke:none" />
      <rect
         transform="matrix(1,0,-0.60971077,0.79262398,0,0)"
         y="1224.2931"
         x="248.12759"
         height="40.963665"
         width="1136.9479"
         id="rect3070-3"
         style="fill:#000080;fill-opacity:1;stroke:none" />
      <rect
         transform="matrix(1,0,-0.60971077,0.79262398,0,0)"
         y="1295.9568"
         x="249.19148"
         height="16.688309"
         width="1140.5958"
         id="rect3070-3-8"
         style="fill:#000080;fill-opacity:1;stroke:none" />
      <rect
         ry="0"
         transform="matrix(1,0,-0.21079779,0.97752969,0,0)"
         y="669.40381"
         x="928.08051"
         height="14.425172"
         width="268.15509"
         id="rect3070-3-3"
         style="fill:#000080;fill-opacity:1;stroke:none" />
      <rect
         ry="0"
         transform="matrix(1,0,-0.21079779,0.97752969,0,0)"
         y="669.40381"
         x="1222.4698"
         height="68.202576"
         width="84.704659"
         id="rect3070-3-3-1"
         style="fill:#000080;fill-opacity:1;stroke:none" />
      <rect
         ry="0"
         transform="matrix(1,0,-0.21079779,0.97752969,0,0)"
         y="696.68054"
         x="927.87305"
         height="40.925858"
         width="268.15503"
         id="rect3070-3-3-8"
         style="fill:#000080;fill-opacity:1;stroke:none" />
      <rect
         ry="0"
         transform="matrix(1,0,-0.21079779,0.97752969,0,0)"
         y="769.16772"
         x="1223.6993"
         height="294.42789"
         width="84.704712"
         id="rect3070-3-3-1-4"
         style="fill:#000080;fill-opacity:1;stroke:none" />
    </g>
    <path
       style="fill:#ff0000;fill-opacity:1;stroke:none"
       id="path5069"
       d="m 432.0748,547.90631 c 1.01154,0.99739 1.92996,2.09902 3.03463,2.99216 12.47115,10.08302 26.62365,18.5907 40.20327,26.98442 20.61007,12.73933 34.6751,20.90345 55.92969,33.47569 34.62211,20.17176 69.19655,40.42732 103.63177,60.91695 19.54252,11.62818 40.65364,23.85766 59.39025,36.92281 6.85491,4.77998 13.2864,10.14019 19.9296,15.21029 0,0 -80.42165,-32.26506 -80.42165,-32.26506 l 0,0 c -4.82052,-4.08322 -9.39162,-8.48061 -14.46156,-12.24966 -15.77823,-11.72972 -36.56361,-24.08941 -53.06908,-34.06236 -34.80561,-21.03029 -69.98013,-41.44741 -105.3537,-61.50529 -13.44568,-7.7005 -49.75925,-28.44466 -63.95531,-36.77026 -13.02029,-7.63604 -29.09022,-17.18815 -41.91311,-25.76062 -9.42349,-6.29988 -9.81924,-6.86462 -16.96183,-12.83219 0,0 94.01703,38.94312 94.01703,38.94312 z"
       inkscape:connector-curvature="0" />
    <path
       style="fill:#ff0000;fill-opacity:1;stroke:none"
       id="path5077"
       d="m 357.14898,676.59611 c 11.67916,-8.48853 23.84243,-16.30488 36.14178,-23.85848 26.33297,-14.95151 53.68595,-28.03584 81.19013,-40.66909 14.74399,-6.5463 29.66404,-12.68572 44.63839,-18.68257 8.97975,-3.59618 18.88867,-7.55528 28.02441,-10.79026 4.43761,-1.57137 8.92952,-2.98501 13.39428,-4.47751 20.1878,-6.42081 40.79554,-11.35405 61.33644,-16.4813 7.99679,-2.12729 16.14677,-3.33934 24.39939,-3.72241 5.15253,-0.13967 10.2709,0.47059 15.38233,1.01816 0,0 10.11023,7.5171 10.11023,7.5171 l 0,0 c -5.1006,-0.58204 -10.1991,-1.26862 -15.34558,-1.22638 -8.36316,0.29731 -16.66871,1.24046 -24.83613,3.13366 -20.95476,4.5655 -41.9476,9.10405 -62.40217,15.62993 -4.48663,1.46337 -8.99911,2.84973 -13.45989,4.39011 -10.16571,3.51039 -18.15296,6.68108 -28.18217,10.64822 -15.00701,5.93616 -29.96554,12.00606 -44.70807,18.57718 -27.30434,12.58004 -54.4589,25.67057 -80.29403,41.09038 -8.1192,5.24054 -16.10802,10.57858 -23.89669,16.30197 -2.06236,1.5155 -6.43133,4.80585 -8.62918,6.66874 -0.68158,0.57771 -1.30593,1.21973 -1.9589,1.82959 0,0 -10.90457,-6.89704 -10.90457,-6.89704 z"
       inkscape:connector-curvature="0" />
    <path
       style="fill:#ff0000;fill-opacity:1;stroke:none"
       id="path5079"
       d="m 652.31684,619.28863 c -4.234,5.26805 -7.74855,11.11204 -11.11209,16.96471 -1.37954,2.79768 -5.43197,8.15496 -4.40681,11.52714 0.1187,0.39047 0.43474,0.69081 0.6521,1.03622 5.03902,2.61105 -2.988,-1.51517 -8.34176,-5.14707 -0.51612,-0.35012 1.18846,0.38567 1.79814,0.51702 1.98889,0.42848 4.0467,0.47559 6.06981,0.56402 2.51362,-0.0873 6.35748,0.52666 8.10326,-1.78092 0,0 11.13534,6.61862 11.13534,6.61862 l 0,0 c -0.23893,0.31302 -0.42446,0.67524 -0.7168,0.93908 -2.13655,1.92828 -5.5944,1.71386 -8.23576,1.75177 -8.19136,-0.21818 -15.65344,-1.11965 -21.5053,-8.85206 -0.12821,-0.48716 -0.34171,-0.95955 -0.38462,-1.46146 -0.36259,-4.2411 3.29836,-8.40857 5.11486,-11.90559 3.4708,-5.88067 6.94202,-11.77571 10.76153,-17.43768 0,0 11.0681,6.6662 11.0681,6.6662 z"
       inkscape:connector-curvature="0" />
    <path
       style="fill:#ff0000;fill-opacity:1;stroke:none"
       id="path5081"
       d="m 637.7611,630.37334 c 3.19901,-1.49504 6.45438,-2.86428 9.67517,-4.31049 0,0 10.65254,7.07281 10.65254,7.07281 l 0,0 c -3.17488,1.42498 -6.425,2.70693 -9.48589,4.37122 0,0 -10.84182,-7.13354 -10.84182,-7.13354 z"
       inkscape:connector-curvature="0" />
    <path
       style="fill:#ff0000;fill-opacity:1;stroke:none"
       id="path5083"
       d="m 643.98658,611.29075 c 3.34233,-0.10733 6.63186,-0.9491 9.81665,-1.92329 0,0 10.58963,7.20969 10.58963,7.20969 l 0,0 c -3.22748,1.04929 -6.55044,1.78016 -9.89359,2.35151 0,0 -10.51269,-7.63791 -10.51269,-7.63791 z"
       inkscape:connector-curvature="0" />
    <path
       style="fill:#ff0000;fill-opacity:1;stroke:none"
       id="path5087"
       d="m 673.33032,614.98065 c 2.71235,3.11566 4.40594,6.88936 5.9145,10.6924 1.46777,4.25291 2.91227,8.50171 4.70146,12.63179 0.21085,0.42072 1.23423,2.58391 1.66605,3.02904 0.23043,0.23754 1.17668,0.60435 0.89283,0.43421 -15.51362,-9.29903 -12.5894,-2.95605 -9.56121,-7.24837 1.74421,-4.15536 2.535,-8.62607 3.82859,-12.93429 0.19364,-0.60482 2.12873,-8.08002 3.48074,-7.34609 4.05535,2.20143 7.81006,4.91647 11.71509,7.37471 1.03089,4.1802 1.92548,8.3792 3.08296,12.52847 0.12513,0.36642 0.90541,2.80765 1.24386,3.27755 0.19927,0.27667 0.55675,0.39376 0.83513,0.59064 -3.52989,-2.1187 -7.18274,-4.04488 -10.58969,-6.35611 -0.19293,-0.13089 0.3731,-0.29301 0.50129,-0.48775 0.29456,-0.44745 0.5027,-0.94616 0.75404,-1.41924 2.12226,-5.08567 3.46608,-10.45923 5.00001,-15.74379 1.07462,-4.41877 2.64321,-8.68534 4.46547,-12.84443 0,0 11.14532,6.2835 11.14532,6.2835 l 0,0 c -1.86311,4.06522 -3.44966,8.2469 -4.5871,12.57737 -1.57045,5.3687 -2.9129,10.82186 -4.89738,16.0569 -0.60134,1.29228 -1.40053,3.17165 -1.7415,3.04514 -10.14686,-3.76472 -11.5963,-3.37273 -13.60897,-10.45137 -1.07634,-4.09596 -1.7604,-8.36331 -3.44554,-12.25404 3.52262,1.87044 6.9683,3.8936 10.56787,5.61131 0.21097,0.10067 0.023,-0.67163 -0.21071,-0.66888 -0.29976,0.004 -0.44106,0.41843 -0.59052,0.6783 -0.26373,0.45851 -0.44341,0.96117 -0.63583,1.45387 -0.5889,1.50786 -0.89638,2.6024 -1.38174,4.16413 -1.32598,4.44271 -2.10767,9.04327 -3.80149,13.36537 -0.0288,0.0476 -1.35323,2.41951 -1.69395,2.27751 -9.29483,-3.87374 -11.13907,-3.79758 -14.01759,-10.32119 -1.72596,-4.14174 -3.03067,-8.42727 -4.63235,-12.61679 -1.58164,-3.71864 -3.3225,-7.52926 -6.4506,-10.21602 0,0 12.05096,4.83615 12.05096,4.83615 z"
       inkscape:connector-curvature="0" />
    <path
       style="fill:#ff0000;fill-opacity:1;stroke:none"
       id="path5089"
       d="m 720.97705,634.9468 c -0.015,2.48332 -0.35155,5.01325 0.44344,7.40284 3.76403,2.99945 1.71013,1.31483 -9.5319,-5.66838 -0.18509,-0.11498 0.39063,0.21006 0.60549,0.2463 0.69242,0.11682 1.00063,-0.42036 1.31283,-0.90911 0.6925,-1.75615 0.76467,-3.2065 -1.15624,-4.01563 16.61105,9.24008 11.82237,5.8382 6.11078,5.21103 0,0 -10.34142,-7.65488 -10.34142,-7.65488 l 0,0 c 6.83726,0.47221 8.50772,1.73055 16.25734,7.27492 1.34369,1.75246 1.26725,3.73722 0.34675,5.70938 -0.41932,0.68698 -0.5586,1.05375 -1.2071,1.56312 -3.89915,3.06263 -12.53838,-3.07107 -14.04459,-7.32836 -0.48678,-2.55546 -0.2649,-5.14223 -0.37347,-7.73056 0,0 11.57809,5.89933 11.57809,5.89933 z"
       inkscape:connector-curvature="0" />
  </g>
</svg>
