<?xml version="1.0" encoding="UTF-8" standalone="no"?>
<svg
   xmlns:dc="http://purl.org/dc/elements/1.1/"
   xmlns:cc="http://creativecommons.org/ns#"
   xmlns:rdf="http://www.w3.org/1999/02/22-rdf-syntax-ns#"
   xmlns:svg="http://www.w3.org/2000/svg"
   xmlns="http://www.w3.org/2000/svg"
   xmlns:sodipodi="http://sodipodi.sourceforge.net/DTD/sodipodi-0.dtd"
   xmlns:inkscape="http://www.inkscape.org/namespaces/inkscape"
   sodipodi:docname="logo.svg"
   inkscape:version="0.48.5 r10040"
   id="svg2"
   version="1.1"
   xml:space="preserve"
   width="1125"
   height="750"
   viewBox="0 0 1125 750"><sodipodi:namedview
     pagecolor="#ffffff"
     bordercolor="#666666"
     borderopacity="1"
     objecttolerance="10"
     gridtolerance="10"
     guidetolerance="10"
     inkscape:pageopacity="0"
     inkscape:pageshadow="2"
     inkscape:window-width="1600"
     inkscape:window-height="847"
     id="namedview9"
     showgrid="false"
     inkscape:zoom="0.5511111"
     inkscape:cx="806.89054"
     inkscape:cy="376.55303"
     inkscape:window-x="0"
     inkscape:window-y="31"
     inkscape:window-maximized="1"
     inkscape:current-layer="g12" /><metadata
     id="metadata8"><rdf:RDF><cc:Work
         rdf:about=""><dc:format>image/svg+xml</dc:format><dc:type
           rdf:resource="http://purl.org/dc/dcmitype/StillImage" /><dc:title /></cc:Work></rdf:RDF></metadata><defs
     id="defs6" /><g
     transform="matrix(1.25,0,0,-1.25,0,750)"
     id="g10"><g
       transform="scale(0.1,0.1)"
       id="g12"><path
         style="fill:#000000"
         d="m 881.79627,1646.8176 c -68.96797,33.986 -101.74526,111.0633 -151.32187,355.8401 -55.44379,273.7451 -79.47348,532.4963 -61.39554,661.1059 6.08924,43.32 36.28,153.57 67.09058,245 52.99042,157.2485 55.74984,170.2914 51.03707,241.2364 -3.28567,49.4618 -14.0887,96.7436 -31.72608,138.856 -43.99097,105.0365 -46.86141,203.0102 -6.32474,215.876 27.18772,8.6291 119.51904,-24.7752 261.16131,-94.4847 L 1132.733,3350 l 161.1335,0.09 c 186.2393,0.1 321.0527,14.3806 612.3041,64.8586 359.4288,62.2941 372.1563,65.4849 998.8294,250.4017 372.5563,109.9327 727.4603,189.6075 960,215.5166 55,6.128 182.402,10.6297 283.1155,10.0037 317.9343,-1.9762 495.5891,-41.8231 851.6136,-191.012 273.9338,-114.7895 345.5917,-152.12 556.5802,-289.953 C 5773.1798,3268.227 5780,3263.0201 5780,3239.124 c 0,-49.3753 -68.0016,-30.2195 -293.5983,82.7055 -87.229,43.6635 -234.8041,110.6248 -327.9446,148.8029 -93.1405,38.1781 -187.1035,78.4738 -208.8066,89.5459 -59.7075,30.4605 -190.8624,75.3623 -324.6505,111.1464 l -120,32.0962 -285,0.26 c -216.5315,0.197 -315.0301,-3.897 -410,-17.0423 -279.5776,-38.698 -472.1186,-79.7795 -780,-166.4247 -620.553,-174.6385 -755.8766,-209.3284 -915,-234.5586 -276.7018,-43.8731 -553.9646,-69.3714 -760,-69.8929 -213.6252,-0.541 -268.1814,9.1697 -388.86797,69.214 -54.51889,27.1244 -72.91167,32.0992 -88.27559,23.8767 -13.04545,-6.9817 -17.09504,-15.8721 -12.35316,-27.1197 40.54993,-96.1838 45.83046,-119.8293 45.4342,-203.4484 -0.3772,-79.592 -5.66062,-103.5121 -55.6771,-252.0702 L 800,2662.081 l 0.04,-188.5405 c 0.046,-216.7151 21.12698,-373.7442 70.14096,-522.4767 C 886.58156,1901.2972 900,1855.8998 900,1850.1806 c 0,-25.588 43.04997,-98.36 63.77273,-107.8019 12.5896,-5.7362 54.01607,-13.5127 92.05877,-17.2811 38.0427,-3.7683 85.5808,-11.0058 105.6403,-16.0832 37.296,-9.4402 56.7082,-34.8344 39.6604,-51.8822 -29.5645,-29.5645 -264.85006,-37.1642 -319.33593,-10.3146 z M 8360,1638.8164 c -29.0177,5.1267 -35,10.4567 -35,31.1836 0,22.2486 5.5028,25.8954 50,33.1356 27.5,4.4746 65.7083,15.7246 84.9073,25 31.5675,15.2509 37.9644,25.9536 66.8603,111.8644 34.0665,101.2837 68.4845,341.2395 57.106,398.1321 -7.5247,37.6236 -62.2963,95.238 -146.4908,154.0941 -121.9759,85.2673 -513.6094,240.399 -887.3828,351.5053 -331.8409,98.6416 -929.2043,224.7803 -1195,252.335 -238.0063,24.6739 -851.6206,25.1828 -1120,0.929 -282.6479,-25.5433 -607.3509,-46.8106 -716.1901,-46.9087 -176.8365,-0.159 -312.493,34.267 -513.8099,130.3929 -166.9197,79.7016 -315.3218,222.8354 -395.8514,381.7983 -44.7311,88.2977 -49.3317,117.722 -18.4062,117.722 20.4078,0 65.8857,-38.7696 224.2576,-191.1779 148.624,-143.0274 321.7063,-238.7741 498.0282,-275.5022 116.4719,-24.2613 522.4239,-24.517 791.9718,-0.499 339.783,30.2765 555.0142,39.0015 842.9829,34.1729 338.4211,-5.6747 580.4605,-26.3204 772.0171,-65.8524 79.75,-16.4582 178.75,-35.0497 220,-41.3145 205.9083,-31.2721 751.1515,-181.6117 996.3581,-274.7251 187.5424,-71.2165 492.3065,-221.9294 574.8467,-284.2752 91.8661,-69.39 154.1018,-141.5357 174.142,-201.8709 15.6419,-47.0935 15.6581,-60.1424 0.244,-196.1898 -16.952,-149.6163 -57.9631,-315.7365 -92.5811,-375.0107 -31.1609,-53.3548 -76.8824,-77.9689 -141.988,-76.439 -30.8117,0.724 -71.7712,4.099 -91.0212,7.5 z"
         id="path2987"
         inkscape:connector-curvature="0"
         sodipodi:nodetypes="ssssssssccssssssssssscsssssssssscsssssssscssssssssssssssssssssssssscc" /><g
         transform="scale(1,-1)"
         style="font-size:667.54107666px;font-style:normal;font-variant:normal;font-weight:normal;font-stretch:normal;line-height:125%;letter-spacing:0px;word-spacing:0px;fill:#000000;fill-opacity:1;stroke:none;font-family:Klavika Regular;-inkscape-font-specification:Klavika Regular"
         id="text2985"><path
           d="m 1352.0277,-2363.575 -170.8905,0 c -18.6913,4e-4 -32.0421,3.5606 -40.0524,10.6807 -9.7907,8.9009 -14.686,21.5842 -14.6859,38.0498 l 0,210.2755 c -10e-5,21.3614 4.2276,36.2698 12.6832,44.7252 8.9005,8.0106 24.0314,12.0158 45.3928,12.0158 l 166.8853,0 0,64.7515 -190.9167,0 c -31.5971,0 -56.0736,-8.6781 -73.4296,-26.0341 -16.911,-17.8011 -25.3666,-42.5001 -25.3665,-74.0971 l 0,-246.3227 c -10e-5,-36.0468 9.123,-62.0809 27.3692,-78.1023 15.5758,-13.7954 41.1649,-20.6933 76.7672,-20.6937 l 186.2439,0 0,64.7514"
           style="font-weight:500;fill:#000000;font-family:Digital Sans EF;-inkscape-font-specification:Digital Sans EF Medium"
           id="path2988" /><path
           d="m 1693.9913,-2066.5192 c -3e-4,24.9216 -7.3432,45.1703 -22.0288,60.7463 -14.2412,15.1309 -33.8224,22.6964 -58.7437,22.6964 l -109.4767,0 c -26.2567,0 -47.173,-6.6754 -62.7489,-20.0263 -16.911,-14.2408 -25.3665,-34.267 -25.3665,-60.0787 l 0,-60.0787 c 0,-26.2564 7.5654,-46.7277 22.6964,-61.4137 15.1308,-14.6857 35.8246,-22.0287 62.0813,-22.0289 l 136.8459,0 c -0.4453,-18.6909 -3.1154,-31.8192 -8.0105,-39.3849 -6.2306,-9.7904 -18.2463,-14.6856 -36.0472,-14.6859 l -176.2308,0 0,-56.741 184.2413,0 c 61.8585,3e-4 92.7879,28.2595 92.7882,84.7777 l 0,166.2177 m -57.4085,-11.3482 0,-64.0839 c -3e-4,-7.1203 -4.4505,-10.6805 -13.3508,-10.6807 l -109.4768,0 c -27.1468,2e-4 -40.7201,13.796 -40.72,41.3876 l 0,32.7095 c -10e-5,11.5708 4.0052,20.9163 12.0158,28.0367 8.0103,6.6755 17.8009,10.0132 29.3718,10.0131 l 82.1075,0 c 26.7014,1e-4 40.0522,-12.4607 40.0525,-37.3823"
           style="font-weight:500;fill:#000000;font-family:Digital Sans EF;-inkscape-font-specification:Digital Sans EF Medium"
           id="path2990" /><path
           d="m 1897.8678,-2260.7736 c -28.4819,3e-4 -46.0605,1.3353 -52.7358,4.0052 -14.686,5.7856 -22.0289,20.4715 -22.0288,44.0577 l 0,229.6342 -57.4086,0 0,-244.9876 c 0,-59.6334 29.8168,-89.4502 89.4505,-89.4505 l 42.7227,0 0,56.741"
           style="font-weight:500;fill:#000000;font-family:Digital Sans EF;-inkscape-font-specification:Digital Sans EF Medium"
           id="path2992" /><path
           d="m 2082.3542,-2260.7736 c -28.4819,3e-4 -46.0605,1.3353 -52.7357,4.0052 -14.686,5.7856 -22.029,20.4715 -22.0289,44.0577 l 0,229.6342 -57.4085,0 0,-244.9876 c -10e-5,-59.6334 29.8167,-89.4502 89.4505,-89.4505 l 42.7226,0 0,56.741"
           style="font-weight:500;fill:#000000;font-family:Digital Sans EF;-inkscape-font-specification:Digital Sans EF Medium"
           id="path2994" /><path
           d="m 2411.7126,-2186.009 -219.621,89.4505 0,10.0131 c -1e-4,17.8012 4.8952,30.4844 14.6859,38.0498 6.6753,5.3404 18.246,8.0106 34.7122,8.0105 l 169.5554,0 0,57.4086 -180.2361,0 c -31.152,0 -54.0709,-6.2304 -68.7567,-18.6912 -18.6912,-15.5759 -28.0368,-39.6074 -28.0368,-72.0944 l 0,-158.2073 c 0,-56.9632 30.4844,-85.4449 91.4532,-85.4452 l 100.7987,0 c 56.9632,3e-4 85.4449,29.8171 85.4452,89.4505 l 0,42.0551 m -58.7436,-32.042 0,-5.3403 c -2e-4,-24.9213 -15.1312,-37.382 -45.3928,-37.3823 l -63.4164,0 c -35.1573,3e-4 -52.7358,14.2411 -52.7357,42.7226 l 0,66.0866 161.5449,-66.0866"
           style="font-weight:500;fill:#000000;font-family:Digital Sans EF;-inkscape-font-specification:Digital Sans EF Medium"
           id="path2996" /><path
           d="m 2611.0415,-2260.7736 c -28.4819,3e-4 -46.0605,1.3353 -52.7358,4.0052 -14.686,5.7856 -22.0289,20.4715 -22.0288,44.0577 l 0,229.6342 -57.4086,0 0,-244.9876 c 0,-59.6334 29.8168,-89.4502 89.4505,-89.4505 l 42.7227,0 0,56.741"
           style="font-weight:500;fill:#000000;font-family:Digital Sans EF;-inkscape-font-specification:Digital Sans EF Medium"
           id="path2998" /><path
           d="m 2941.7194,-2066.5192 c -3e-4,24.9216 -7.3433,45.1703 -22.0289,60.7463 -14.2411,15.1309 -33.8223,22.6964 -58.7436,22.6964 l -109.4767,0 c -26.2567,0 -47.173,-6.6754 -62.7489,-20.0263 -16.911,-14.2408 -25.3666,-34.267 -25.3665,-60.0787 l 0,-60.0787 c -1e-4,-26.2564 7.5654,-46.7277 22.6964,-61.4137 15.1308,-14.6857 35.8246,-22.0287 62.0813,-22.0289 l 136.8459,0 c -0.4453,-18.6909 -3.1154,-31.8192 -8.0105,-39.3849 -6.2306,-9.7904 -18.2463,-14.6856 -36.0472,-14.6859 l -176.2308,0 0,-56.741 184.2413,0 c 61.8585,3e-4 92.7879,28.2595 92.7882,84.7777 l 0,166.2177 m -57.4085,-11.3482 0,-64.0839 c -3e-4,-7.1203 -4.4506,-10.6805 -13.3509,-10.6807 l -109.4767,0 c -27.1468,2e-4 -40.7201,13.796 -40.72,41.3876 l 0,32.7095 c -1e-4,11.5708 4.0052,20.9163 12.0157,28.0367 8.0104,6.6755 17.801,10.0132 29.3719,10.0131 l 82.1075,0 c 26.7014,1e-4 40.0522,-12.4607 40.0525,-37.3823"
           style="font-weight:500;fill:#000000;font-family:Digital Sans EF;-inkscape-font-specification:Digital Sans EF Medium"
           id="path3000" /><path
           d="m 3498.2974,-1983.0765 -69.4243,0 -38.7174,-110.8119 -176.2308,0 -38.7174,110.8119 -69.4243,0 144.8564,-409.2027 c 9.7905,-27.1463 26.924,-40.7196 51.4007,-40.72 24.4763,4e-4 41.6098,13.5737 51.4006,40.72 l 144.8565,409.2027 m -128.8355,-172.2256 -70.7593,-199.5948 -64.084,199.5948 134.8433,0"
           style="font-weight:500;fill:#000000;font-family:Digital Sans EF;-inkscape-font-specification:Digital Sans EF Medium"
           id="path3002" /><path
           d="m 3664.5048,-2260.7736 c -28.4819,3e-4 -46.0604,1.3353 -52.7357,4.0052 -14.686,5.7856 -22.029,20.4715 -22.0289,44.0577 l 0,229.6342 -57.4085,0 0,-244.9876 c 0,-59.6334 29.8168,-89.4502 89.4505,-89.4505 l 42.7226,0 0,56.741"
           style="font-weight:500;fill:#000000;font-family:Digital Sans EF;-inkscape-font-specification:Digital Sans EF Medium"
           id="path3004" /><path
           d="m 3846.9885,-2260.7736 -72.7619,0 0,277.6971 -57.4086,0 0,-452.5929 57.4086,0 0,118.1548 72.7619,0 0,56.741"
           style="font-weight:500;fill:#000000;font-family:Digital Sans EF;-inkscape-font-specification:Digital Sans EF Medium"
           id="path3006" /><path
           d="m 3941.9828,-2406.2976 c -1e-4,10.2361 -3.7828,19.1366 -11.3482,26.7017 -7.5656,7.5658 -16.4661,11.3485 -26.7017,11.3482 -10.2356,3e-4 -19.1362,-3.5599 -26.7016,-10.6807 -7.1205,-7.5651 -10.6807,-16.4656 -10.6807,-26.7016 0,-10.6803 3.5602,-19.8033 10.6807,-27.3692 7.1204,-7.565 16.0209,-11.3478 26.7016,-11.3482 10.6806,4e-4 19.5812,3.7832 26.7017,11.3482 7.5654,7.1209 11.3481,16.0214 11.3482,26.7016 m -8.6781,423.2211 -57.4085,0 0,-334.4381 57.4085,0 0,334.4381"
           style="font-weight:500;fill:#000000;font-family:Digital Sans EF;-inkscape-font-specification:Digital Sans EF Medium"
           id="path3008" /><path
           d="m 4135.1422,-2260.7736 -73.4296,0 0,277.6971 -57.4085,0 0,-370.4853 c 0,-24.9212 8.233,-44.7249 24.699,-59.4112 16.911,-15.1305 38.0498,-22.6959 63.4164,-22.6964 l 42.7227,0 0,55.4059 -30.0394,0 c -12.9059,4e-4 -23.364,4.0057 -31.3744,12.0158 -8.0106,8.0108 -12.0158,18.469 -12.0158,31.3744 l 0,19.3587 73.4296,0 0,56.741"
           style="font-weight:500;fill:#000000;font-family:Digital Sans EF;-inkscape-font-specification:Digital Sans EF Medium"
           id="path3010" /><path
           d="m 4228.8168,-2406.2976 c -10e-5,10.2361 -3.7829,19.1366 -11.3482,26.7017 -7.5656,7.5658 -16.4661,11.3485 -26.7017,11.3482 -10.2357,3e-4 -19.1362,-3.5599 -26.7016,-10.6807 -7.1205,-7.5651 -10.6807,-16.4656 -10.6807,-26.7016 0,-10.6803 3.5602,-19.8033 10.6807,-27.3692 7.1204,-7.565 16.0209,-11.3478 26.7016,-11.3482 10.6806,4e-4 19.5811,3.7832 26.7017,11.3482 7.5653,7.1209 11.3481,16.0214 11.3482,26.7016 m -8.6781,423.2211 -57.4085,0 0,-334.4381 57.4085,0 0,334.4381"
           style="font-weight:500;fill:#000000;font-family:Digital Sans EF;-inkscape-font-specification:Digital Sans EF Medium"
           id="path3012" /><path
           d="m 4514.7644,-1983.0765 -130.1705,0 c -62.3039,0 -93.4558,-29.5943 -93.4558,-88.783 l 0,-161.5449 c 0,-56.0732 26.2566,-84.1099 78.7698,-84.1102 l 143.5214,0 0,56.741 -119.4899,0 c -16.9111,3e-4 -28.7044,3.1154 -35.3797,9.3455 -6.6755,6.2307 -10.0132,17.5789 -10.0131,34.0446 l 0,132.1732 c -10e-5,29.8169 16.0209,44.7253 48.063,44.7252 l 118.1548,0 0,57.4086"
           style="font-weight:500;fill:#000000;font-family:Digital Sans EF;-inkscape-font-specification:Digital Sans EF Medium"
           id="path3014" /><path
           d="m 4638.2074,-2406.2976 c -1e-4,10.2361 -3.7828,19.1366 -11.3482,26.7017 -7.5656,7.5658 -16.4661,11.3485 -26.7016,11.3482 -10.2357,3e-4 -19.1363,-3.5599 -26.7017,-10.6807 -7.1205,-7.5651 -10.6807,-16.4656 -10.6806,-26.7016 -1e-4,-10.6803 3.5601,-19.8033 10.6806,-27.3692 7.1204,-7.565 16.0209,-11.3478 26.7017,-11.3482 10.6805,4e-4 19.5811,3.7832 26.7016,11.3482 7.5654,7.1209 11.3481,16.0214 11.3482,26.7016 m -8.678,423.2211 -57.4086,0 0,-334.4381 57.4086,0 0,334.4381"
           style="font-weight:500;fill:#000000;font-family:Digital Sans EF;-inkscape-font-specification:Digital Sans EF Medium"
           id="path3016" /><path
           d="m 4978.8931,-2066.5192 c -3e-4,24.9216 -7.3432,45.1703 -22.0288,60.7463 -14.2412,15.1309 -33.8224,22.6964 -58.7437,22.6964 l -109.4767,0 c -26.2567,0 -47.173,-6.6754 -62.7489,-20.0263 -16.911,-14.2408 -25.3666,-34.267 -25.3665,-60.0787 l 0,-60.0787 c -1e-4,-26.2564 7.5654,-46.7277 22.6964,-61.4137 15.1308,-14.6857 35.8246,-22.0287 62.0813,-22.0289 l 136.8459,0 c -0.4453,-18.6909 -3.1154,-31.8192 -8.0105,-39.3849 -6.2306,-9.7904 -18.2463,-14.6856 -36.0472,-14.6859 l -176.2308,0 0,-56.741 184.2413,0 c 61.8585,3e-4 92.7879,28.2595 92.7882,84.7777 l 0,166.2177 m -57.4085,-11.3482 0,-64.0839 c -3e-4,-7.1203 -4.4505,-10.6805 -13.3508,-10.6807 l -109.4768,0 c -27.1468,2e-4 -40.7201,13.796 -40.72,41.3876 l 0,32.7095 c -1e-4,11.5708 4.0052,20.9163 12.0158,28.0367 8.0103,6.6755 17.8009,10.0132 29.3718,10.0131 l 82.1075,0 c 26.7014,1e-4 40.0522,-12.4607 40.0525,-37.3823"
           style="font-weight:500;fill:#000000;font-family:Digital Sans EF;-inkscape-font-specification:Digital Sans EF Medium"
           id="path3018" /><path
           d="m 5107.353,-1983.0765 -57.4085,0 0,-452.5929 57.4085,0 0,452.5929"
           style="font-weight:500;fill:#000000;font-family:Digital Sans EF;-inkscape-font-specification:Digital Sans EF Medium"
           id="path3020" /><path
           d="m 5371.5429,-1983.0765 -64.7515,0 0,-445.2499 64.7515,0 0,445.2499"
           style="font-weight:500;fill:#000000;font-family:Digital Sans EF;-inkscape-font-specification:Digital Sans EF Medium"
           id="path3022" /><path
           d="m 5717.4126,-1983.0765 -56.741,0 0,-236.9771 c -3e-4,-27.1464 -16.0212,-40.7197 -48.063,-40.72 l -64.0839,0 c -32.4871,3e-4 -48.7306,13.5736 -48.7305,40.72 l 0,236.9771 -57.4085,0 0,-252.9981 c -1e-4,-54.293 29.1492,-81.4397 87.4478,-81.44 l 100.7987,0 c 57.8533,3e-4 86.7801,27.147 86.7804,81.44 l 0,252.9981"
           style="font-weight:500;fill:#000000;font-family:Digital Sans EF;-inkscape-font-specification:Digital Sans EF Medium"
           id="path3024" /><path
           d="m 5920.6685,-2260.7736 -72.762,0 0,277.6971 -57.4085,0 0,-452.5929 57.4085,0 0,118.1548 72.762,0 0,56.741"
           style="font-weight:500;fill:#000000;font-family:Digital Sans EF;-inkscape-font-specification:Digital Sans EF Medium"
           id="path3026" /><path
           d="m 6246.1623,-2186.009 -219.621,89.4505 0,10.0131 c -1e-4,17.8012 4.8952,30.4844 14.6859,38.0498 6.6753,5.3404 18.246,8.0106 34.7122,8.0105 l 169.5554,0 0,57.4086 -180.2361,0 c -31.152,0 -54.0709,-6.2304 -68.7567,-18.6912 -18.6912,-15.5759 -28.0368,-39.6074 -28.0368,-72.0944 l 0,-158.2073 c 0,-56.9632 30.4844,-85.4449 91.4532,-85.4452 l 100.7987,0 c 56.9632,3e-4 85.4449,29.8171 85.4452,89.4505 l 0,42.0551 m -58.7436,-32.042 0,-5.3403 c -2e-4,-24.9213 -15.1311,-37.382 -45.3928,-37.3823 l -63.4164,0 c -35.1572,3e-4 -52.7358,14.2411 -52.7357,42.7226 l 0,66.0866 161.5449,-66.0866"
           style="font-weight:500;fill:#000000;font-family:Digital Sans EF;-inkscape-font-specification:Digital Sans EF Medium"
           id="path3028" /><path
           d="m 6370.7268,-1983.0765 -57.4085,0 0,-452.5929 57.4085,0 0,452.5929"
           style="font-weight:500;fill:#000000;font-family:Digital Sans EF;-inkscape-font-specification:Digital Sans EF Medium"
           id="path3030" /><path
           d="m 6498.4983,-1983.0765 -57.4085,0 0,-452.5929 57.4085,0 0,452.5929"
           style="font-weight:500;fill:#000000;font-family:Digital Sans EF;-inkscape-font-specification:Digital Sans EF Medium"
           id="path3032" /><path
           d="m 6635.6154,-2406.2976 c -2e-4,10.2361 -3.7829,19.1366 -11.3482,26.7017 -7.5656,7.5658 -16.4661,11.3485 -26.7017,11.3482 -10.2357,3e-4 -19.1362,-3.5599 -26.7016,-10.6807 -7.1205,-7.5651 -10.6807,-16.4656 -10.6807,-26.7016 0,-10.6803 3.5602,-19.8033 10.6807,-27.3692 7.1204,-7.565 16.0209,-11.3478 26.7016,-11.3482 10.6806,4e-4 19.5811,3.7832 26.7017,11.3482 7.5653,7.1209 11.348,16.0214 11.3482,26.7016 m -8.6781,423.2211 -57.4085,0 0,-334.4381 57.4085,0 0,334.4381"
           style="font-weight:500;fill:#000000;font-family:Digital Sans EF;-inkscape-font-specification:Digital Sans EF Medium"
           id="path3034" /><path
           d="m 6976.9843,-1953.7047 c -3e-4,59.6335 -32.4873,89.4504 -97.461,89.4505 l -182.2387,0 0,-56.741 174.8957,0 c 20.4711,-10e-5 34.0444,-5.7854 40.7201,-17.3561 4.45,-8.0105 6.6751,-22.9189 6.6754,-44.7252 l -126.1653,0 c -31.597,0 -55.406,-7.343 -71.4269,-22.0289 -15.576,-15.1309 -23.364,-36.0472 -23.3639,-62.7489 l 0,-156.2046 c -1e-4,-32.0417 6.8978,-55.6281 20.6937,-70.7593 13.7958,-15.1306 36.7147,-22.6961 68.7568,-22.6964 l 95.4583,0 c 32.4868,3e-4 56.0732,6.6757 70.7594,20.0262 15.1306,12.9061 22.6961,35.38 22.6964,67.4217 l 0,276.362 m -56.741,-99.4637 0,-158.2072 c -3e-4,-16.9108 -3.1154,-28.4815 -9.3456,-34.7121 -9.7908,-9.7904 -22.6966,-14.6856 -38.7174,-14.6859 l -71.4268,0 c -30.262,3e-4 -45.3929,14.9087 -45.3928,44.7252 l 0,130.8381 c -1e-4,29.8169 16.6884,44.7253 50.0655,44.7252 l 102.1338,0 c 8.4553,1e-4 12.683,-4.2277 12.6833,-12.6833"
           style="font-weight:500;fill:#000000;font-family:Digital Sans EF;-inkscape-font-specification:Digital Sans EF Medium"
           id="path3036" /><path
           d="m 7327.0056,-2186.009 -219.621,89.4505 0,10.0131 c -1e-4,17.8012 4.8952,30.4844 14.6859,38.0498 6.6753,5.3404 18.246,8.0106 34.7121,8.0105 l 169.5555,0 0,57.4086 -180.2361,0 c -31.1521,0 -54.0709,-6.2304 -68.7568,-18.6912 -18.6912,-15.5759 -28.0367,-39.6074 -28.0367,-72.0944 l 0,-158.2073 c 0,-56.9632 30.4843,-85.4449 91.4531,-85.4452 l 100.7987,0 c 56.9633,3e-4 85.445,29.8171 85.4453,89.4505 l 0,42.0551 m -58.7436,-32.042 0,-5.3403 c -3e-4,-24.9213 -15.1312,-37.382 -45.3928,-37.3823 l -63.4164,0 c -35.1573,3e-4 -52.7359,14.2411 -52.7358,42.7226 l 0,66.0866 161.545,-66.0866"
           style="font-weight:500;fill:#000000;font-family:Digital Sans EF;-inkscape-font-specification:Digital Sans EF Medium"
           id="path3038" /><path
           d="m 7669.188,-1983.0765 -56.741,0 0,-236.9771 c -3e-4,-27.1464 -16.0212,-40.7197 -48.063,-40.72 l -64.0839,0 c -32.4871,3e-4 -48.7306,13.5736 -48.7305,40.72 l 0,236.9771 -57.4086,0 0,-252.9981 c 0,-54.293 29.1493,-81.4397 87.4479,-81.44 l 100.7987,0 c 57.8533,3e-4 86.7801,27.147 86.7804,81.44 l 0,252.9981"
           style="font-weight:500;fill:#000000;font-family:Digital Sans EF;-inkscape-font-specification:Digital Sans EF Medium"
           id="path3040" /><path
           d="m 7965.2478,-1983.0765 -130.1706,0 c -62.3039,0 -93.4557,-29.5943 -93.4557,-88.783 l 0,-161.5449 c 0,-56.0732 26.2566,-84.1099 78.7698,-84.1102 l 143.5214,0 0,56.741 -119.4899,0 c -16.9111,3e-4 -28.7044,3.1154 -35.3797,9.3455 -6.6755,6.2307 -10.0132,17.5789 -10.0131,34.0446 l 0,132.1732 c -10e-5,29.8169 16.0209,44.7253 48.063,44.7252 l 118.1548,0 0,57.4086"
           style="font-weight:500;fill:#000000;font-family:Digital Sans EF;-inkscape-font-specification:Digital Sans EF Medium"
           id="path3042" /><path
           d="m 8300.2854,-2186.009 -219.621,89.4505 0,10.0131 c -10e-5,17.8012 4.8952,30.4844 14.6859,38.0498 6.6753,5.3404 18.246,8.0106 34.7121,8.0105 l 169.5554,0 0,57.4086 -180.236,0 c -31.1521,0 -54.071,-6.2304 -68.7568,-18.6912 -18.6912,-15.5759 -28.0367,-39.6074 -28.0367,-72.0944 l 0,-158.2073 c 0,-56.9632 30.4843,-85.4449 91.4531,-85.4452 l 100.7987,0 c 56.9632,3e-4 85.445,29.8171 85.4453,89.4505 l 0,42.0551 m -58.7436,-32.042 0,-5.3403 c -3e-4,-24.9213 -15.1312,-37.382 -45.3928,-37.3823 l -63.4164,0 c -35.1573,3e-4 -52.7359,14.2411 -52.7358,42.7226 l 0,66.0866 161.545,-66.0866"
           style="font-weight:500;fill:#000000;font-family:Digital Sans EF;-inkscape-font-specification:Digital Sans EF Medium"
           id="path3044" /></g></g></g></svg>