G75*
%MOIN*%
%OFA0B0*%
%FSLAX25Y25*%
%IPPOS*%
%LPD*%
%AMOC8*
5,1,8,0,0,1.08239X$1,22.5*
%
%ADD10C,0.09461*%
%ADD11C,0.07099*%
%ADD12C,0.07887*%
%ADD13C,0.08200*%
%ADD14R,0.06706X0.12217*%
%ADD15R,0.15761X0.11824*%
%ADD16R,0.07099X0.11430*%
%ADD17R,0.04737X0.07099*%
%ADD18R,0.07887X0.30328*%
%ADD19R,0.07099X0.04737*%
%ADD20R,0.03162X0.05800*%
%ADD21R,0.15367X0.10839*%
%ADD22R,0.04343X0.03556*%
%ADD23R,0.03713X0.04442*%
%ADD24R,0.03556X0.04343*%
%ADD25R,0.04442X0.03713*%
%ADD26R,0.08674X0.06706*%
%ADD27R,0.01942X0.02375*%
%ADD28R,0.02375X0.01942*%
%ADD29R,0.04737X0.05131*%
%ADD30R,0.05052X0.04934*%
%ADD31R,0.12217X0.11430*%
%ADD32R,0.02572X0.09265*%
%ADD33R,0.10643X0.10839*%
%ADD34R,0.05918X0.07099*%
%ADD35R,0.04934X0.05052*%
%ADD36R,0.07100X0.05400*%
%ADD37R,0.02375X0.05524*%
%ADD38R,0.09894X0.09894*%
%ADD39R,0.05131X0.04737*%
%ADD40R,0.05918X0.06706*%
%ADD41R,0.09461X0.05918*%
%ADD42R,0.05750X0.05750*%
%ADD43C,0.05750*%
%ADD44R,0.07898X0.07099*%
%ADD45OC8,0.06800*%
%ADD46C,0.20000*%
%ADD47R,0.11824X0.05918*%
%ADD48C,0.03978*%
%ADD49C,0.07400*%
D10*
X0393500Y0271900D03*
X0594300Y0271900D03*
X0594300Y0445100D03*
X0393600Y0445100D03*
D11*
X0411250Y0450000D03*
X0426875Y0450000D03*
X0595000Y0397500D03*
X0595000Y0387500D03*
X0595000Y0283750D03*
D12*
X0595532Y0293900D02*
X0602618Y0293900D01*
X0602618Y0303900D02*
X0595532Y0303900D01*
X0392293Y0303750D02*
X0385207Y0303750D01*
X0385207Y0293750D02*
X0392293Y0293750D01*
X0392293Y0412500D02*
X0385207Y0412500D01*
X0385207Y0422500D02*
X0392293Y0422500D01*
D13*
X0442008Y0453524D03*
X0452008Y0453524D03*
X0462008Y0453524D03*
X0472008Y0453524D03*
X0482008Y0453524D03*
X0492008Y0453524D03*
X0502008Y0453524D03*
X0512008Y0453524D03*
X0532008Y0453524D03*
X0542008Y0453524D03*
X0552008Y0453524D03*
X0562008Y0453524D03*
X0572008Y0453524D03*
X0582008Y0453524D03*
X0582008Y0263524D03*
X0572008Y0263524D03*
X0562008Y0263524D03*
X0552008Y0263524D03*
X0542008Y0263524D03*
X0532008Y0263524D03*
X0522008Y0263524D03*
X0512008Y0263524D03*
X0496008Y0263524D03*
X0486008Y0263524D03*
X0476008Y0263524D03*
X0466008Y0263524D03*
X0456008Y0263524D03*
X0446008Y0263524D03*
X0436008Y0263524D03*
X0426008Y0263524D03*
X0416008Y0263524D03*
X0406008Y0263524D03*
D14*
X0545050Y0311571D03*
X0556861Y0311571D03*
D15*
X0573381Y0315463D03*
X0573381Y0286329D03*
D16*
X0556205Y0290424D03*
X0545181Y0290424D03*
D17*
X0541608Y0301009D03*
X0558144Y0301009D03*
X0487018Y0329063D03*
X0470482Y0329063D03*
X0440768Y0419375D03*
X0424232Y0419375D03*
D18*
X0421078Y0369375D03*
X0443125Y0369375D03*
X0508437Y0302500D03*
X0530485Y0302500D03*
D19*
X0499375Y0303607D03*
X0499375Y0320143D03*
D20*
X0544375Y0324301D03*
X0549375Y0324301D03*
X0554375Y0324301D03*
X0559375Y0324301D03*
X0559375Y0343199D03*
X0554375Y0343199D03*
X0549375Y0343199D03*
X0544375Y0343199D03*
D21*
X0551875Y0333750D03*
D22*
X0537813Y0334747D03*
X0537813Y0329628D03*
X0528125Y0340878D03*
X0523750Y0340878D03*
X0519375Y0340878D03*
X0515000Y0340878D03*
X0510625Y0340878D03*
X0506250Y0340878D03*
X0501875Y0340878D03*
X0497500Y0340878D03*
X0497500Y0345997D03*
X0501875Y0345997D03*
X0506250Y0345997D03*
X0510625Y0345997D03*
X0515000Y0345997D03*
X0519375Y0345997D03*
X0523750Y0345997D03*
X0528125Y0345997D03*
X0545000Y0353691D03*
X0545000Y0358809D03*
X0509062Y0369316D03*
X0504687Y0369316D03*
X0504687Y0374434D03*
X0509062Y0374434D03*
X0470937Y0380566D03*
X0466250Y0380566D03*
X0466250Y0385684D03*
X0470937Y0385684D03*
X0469375Y0422753D03*
X0465000Y0422753D03*
X0465000Y0427872D03*
X0469375Y0427872D03*
D23*
X0540625Y0358612D03*
X0540625Y0353888D03*
X0551875Y0353888D03*
X0551875Y0358612D03*
D24*
X0558322Y0358140D03*
X0558322Y0353679D03*
X0563440Y0353679D03*
X0563440Y0358140D03*
X0509434Y0358750D03*
X0504316Y0358750D03*
X0503184Y0331563D03*
X0503184Y0326875D03*
X0498066Y0326875D03*
X0498066Y0331563D03*
X0467559Y0288750D03*
X0462441Y0288750D03*
X0455684Y0288750D03*
X0450566Y0288750D03*
X0443809Y0288750D03*
X0438691Y0288750D03*
X0471816Y0394375D03*
X0476934Y0394375D03*
D25*
X0535138Y0320313D03*
X0539862Y0320313D03*
D26*
X0526875Y0322219D03*
X0517187Y0322219D03*
X0517187Y0334031D03*
X0526875Y0334031D03*
D27*
X0526095Y0353046D03*
X0524403Y0353046D03*
X0522710Y0353046D03*
X0521017Y0353046D03*
X0519324Y0353046D03*
X0517631Y0353046D03*
X0515938Y0353046D03*
X0514245Y0353046D03*
X0514245Y0362692D03*
X0515938Y0362692D03*
X0517631Y0362692D03*
X0519324Y0362692D03*
X0521017Y0362692D03*
X0522710Y0362692D03*
X0524403Y0362692D03*
X0526095Y0362692D03*
D28*
X0526095Y0360408D03*
X0526095Y0358716D03*
X0526095Y0357023D03*
X0526095Y0355330D03*
X0514245Y0355330D03*
X0514245Y0357023D03*
X0514245Y0358716D03*
X0514245Y0360408D03*
D29*
X0524062Y0369154D03*
X0524062Y0375846D03*
X0455000Y0377279D03*
X0455000Y0383971D03*
D30*
X0517500Y0375945D03*
X0517500Y0369055D03*
X0462500Y0332507D03*
X0462500Y0325618D03*
D31*
X0447500Y0311250D03*
D32*
X0450000Y0300000D03*
X0445000Y0300000D03*
X0440000Y0300000D03*
X0455000Y0300000D03*
X0455000Y0322500D03*
X0450000Y0322500D03*
X0445000Y0322500D03*
X0440000Y0322500D03*
D33*
X0466250Y0317441D03*
X0466250Y0297559D03*
D34*
X0469813Y0337500D03*
X0477687Y0337500D03*
D35*
X0455945Y0337500D03*
X0455945Y0331250D03*
X0449055Y0331250D03*
X0449055Y0337500D03*
D36*
X0427500Y0299750D03*
X0427500Y0293750D03*
X0427500Y0287750D03*
D37*
X0449168Y0391708D03*
X0451727Y0391708D03*
X0454286Y0391708D03*
X0456845Y0391708D03*
X0459405Y0391708D03*
X0461964Y0391708D03*
X0464523Y0391708D03*
X0467082Y0391708D03*
X0467082Y0414542D03*
X0464523Y0414542D03*
X0461964Y0414542D03*
X0459405Y0414542D03*
X0456845Y0414542D03*
X0454286Y0414542D03*
X0451727Y0414542D03*
X0449168Y0414542D03*
D38*
X0458125Y0403125D03*
D39*
X0457721Y0421875D03*
X0451029Y0421875D03*
X0573750Y0344596D03*
X0573750Y0337904D03*
D40*
X0588932Y0372500D03*
X0595625Y0372500D03*
X0602318Y0372500D03*
X0432178Y0428125D03*
X0424697Y0428125D03*
X0399193Y0373125D03*
X0392500Y0373125D03*
X0385807Y0373125D03*
D41*
X0425712Y0395125D03*
X0439462Y0395125D03*
X0439462Y0411424D03*
X0425712Y0411424D03*
D42*
X0583750Y0411063D03*
D43*
X0583750Y0418937D03*
D44*
X0590313Y0325911D03*
X0590313Y0314714D03*
X0398750Y0390339D03*
X0398750Y0401536D03*
D45*
X0401250Y0337500D03*
X0411250Y0337500D03*
X0411250Y0327500D03*
X0411250Y0317500D03*
X0401250Y0317500D03*
X0401250Y0327500D03*
D46*
X0458750Y0356250D03*
D47*
X0401742Y0351250D03*
X0401742Y0361250D03*
X0585758Y0352500D03*
X0585758Y0342500D03*
D48*
X0385625Y0260937D03*
X0398125Y0259687D03*
X0385625Y0278438D03*
X0397500Y0298750D03*
X0385625Y0313438D03*
X0385625Y0338438D03*
X0410937Y0344375D03*
X0431875Y0351562D03*
X0431875Y0361250D03*
X0431875Y0367500D03*
X0451875Y0366250D03*
X0461875Y0366250D03*
X0466250Y0376875D03*
X0470937Y0389687D03*
X0465625Y0398437D03*
X0466562Y0403125D03*
X0465625Y0407500D03*
X0450625Y0407500D03*
X0449687Y0403125D03*
X0450625Y0398437D03*
X0450625Y0384062D03*
X0446250Y0350000D03*
X0462500Y0337500D03*
X0478125Y0322813D03*
X0478125Y0318438D03*
X0478125Y0314063D03*
X0478125Y0309375D03*
X0468750Y0307500D03*
X0455000Y0307188D03*
X0455000Y0311250D03*
X0455000Y0315313D03*
X0440000Y0315313D03*
X0440000Y0311250D03*
X0440000Y0307188D03*
X0427500Y0315000D03*
X0450625Y0284375D03*
X0461250Y0270625D03*
X0496250Y0292500D03*
X0491875Y0301875D03*
X0502500Y0308750D03*
X0515625Y0310000D03*
X0515625Y0315625D03*
X0522500Y0315625D03*
X0522500Y0310000D03*
X0522500Y0304375D03*
X0522500Y0298750D03*
X0522500Y0293125D03*
X0527188Y0285000D03*
X0527188Y0279375D03*
X0538438Y0290000D03*
X0556563Y0280313D03*
X0572500Y0294375D03*
X0577500Y0294375D03*
X0577500Y0299375D03*
X0572500Y0299375D03*
X0550910Y0305332D03*
X0550938Y0310313D03*
X0550938Y0315313D03*
X0538438Y0324688D03*
X0542813Y0333750D03*
X0542813Y0337813D03*
X0537813Y0340000D03*
X0547500Y0348125D03*
X0557813Y0348437D03*
X0560938Y0338125D03*
X0560938Y0333750D03*
X0560938Y0329063D03*
X0586250Y0336875D03*
X0601875Y0338438D03*
X0601875Y0348437D03*
X0595625Y0361250D03*
X0585938Y0365000D03*
X0575000Y0364062D03*
X0575000Y0368125D03*
X0571875Y0374687D03*
X0571875Y0379687D03*
X0571875Y0389062D03*
X0571875Y0393437D03*
X0579375Y0389687D03*
X0585625Y0378125D03*
X0591250Y0378125D03*
X0602188Y0378125D03*
X0601875Y0404375D03*
X0571875Y0402187D03*
X0571875Y0407187D03*
X0557500Y0416250D03*
X0553342Y0420957D03*
X0549279Y0420957D03*
X0533438Y0420312D03*
X0528654Y0420332D03*
X0524375Y0424375D03*
X0519687Y0423437D03*
X0515625Y0423437D03*
X0511137Y0423437D03*
X0501562Y0423437D03*
X0496562Y0423437D03*
X0491562Y0423437D03*
X0490625Y0438125D03*
X0494687Y0438125D03*
X0494687Y0442500D03*
X0490625Y0442500D03*
X0465000Y0431562D03*
X0453125Y0431562D03*
X0449062Y0431562D03*
X0445000Y0431562D03*
X0440937Y0431562D03*
X0419375Y0450000D03*
X0419375Y0457500D03*
X0433750Y0457500D03*
X0398750Y0457500D03*
X0386250Y0456250D03*
X0385000Y0437500D03*
X0406562Y0428125D03*
X0413750Y0411875D03*
X0392500Y0366562D03*
X0385625Y0364687D03*
X0485000Y0318438D03*
X0493275Y0340854D03*
X0501875Y0337188D03*
X0506250Y0336875D03*
X0510625Y0337188D03*
X0507500Y0326875D03*
X0515625Y0303750D03*
X0507500Y0284375D03*
X0503750Y0263750D03*
X0546875Y0301563D03*
X0589375Y0259375D03*
X0601875Y0260937D03*
X0602500Y0277500D03*
X0570938Y0353437D03*
X0549375Y0365000D03*
X0544279Y0369082D03*
X0555313Y0374687D03*
X0550625Y0379375D03*
X0550625Y0383750D03*
X0546250Y0383750D03*
X0546250Y0379375D03*
X0542404Y0390957D03*
X0538029Y0390957D03*
X0535217Y0395645D03*
X0537188Y0400000D03*
X0528654Y0400332D03*
X0525000Y0410937D03*
X0524904Y0390957D03*
X0528967Y0390957D03*
X0532404Y0382832D03*
X0532404Y0377832D03*
X0532404Y0373770D03*
X0532404Y0362207D03*
X0532404Y0357207D03*
X0530000Y0353125D03*
X0532188Y0349375D03*
X0522812Y0349687D03*
X0507812Y0363750D03*
X0487812Y0362187D03*
X0487812Y0358125D03*
X0487812Y0354062D03*
X0510217Y0386895D03*
X0550625Y0396250D03*
X0555217Y0394707D03*
X0555313Y0388750D03*
X0524688Y0432500D03*
X0521875Y0457500D03*
X0590000Y0457500D03*
X0601563Y0455937D03*
X0602500Y0436250D03*
D49*
X0603125Y0326250D03*
X0603125Y0315000D03*
X0385000Y0390312D03*
X0385000Y0401562D03*
M02*
