G75*
%MOIN*%
%OFA0B0*%
%FSLAX25Y25*%
%IPPOS*%
%LPD*%
%AMOC8*
5,1,8,0,0,1.08239X$1,22.5*
%
%ADD10R,0.05118X0.06299*%
%ADD11C,0.00906*%
%ADD12R,0.05000X0.05000*%
%ADD13R,0.05118X0.05906*%
%ADD14R,0.02756X0.03543*%
%ADD15R,0.04252X0.04134*%
%ADD16R,0.29528X0.07087*%
%ADD17R,0.04331X0.03937*%
%ADD18R,0.02362X0.08661*%
%ADD19R,0.03543X0.02756*%
%ADD20R,0.05906X0.05118*%
%ADD21R,0.03937X0.06299*%
%ADD22R,0.05906X0.07677*%
%ADD23R,0.05906X0.05906*%
%ADD24R,0.02953X0.01181*%
%ADD25R,0.03937X0.04331*%
%ADD26R,0.10000X0.05000*%
%ADD27R,0.06300X0.04600*%
%ADD28R,0.11024X0.05118*%
%ADD29R,0.05200X0.02200*%
D10*
X0571885Y0286875D03*
X0579365Y0286875D03*
X0578740Y0307500D03*
X0571260Y0307500D03*
D11*
X0552375Y0374929D02*
X0552375Y0376385D01*
X0550800Y0376385D02*
X0550800Y0374929D01*
X0549225Y0374929D02*
X0549225Y0376385D01*
X0547650Y0376385D02*
X0547650Y0374929D01*
X0546075Y0374929D02*
X0546075Y0376385D01*
X0544500Y0376385D02*
X0544500Y0374929D01*
X0543260Y0377625D02*
X0541804Y0377625D01*
X0541804Y0379200D02*
X0543260Y0379200D01*
X0543260Y0380775D02*
X0541804Y0380775D01*
X0541804Y0382350D02*
X0543260Y0382350D01*
X0543260Y0383925D02*
X0541804Y0383925D01*
X0541804Y0385500D02*
X0543260Y0385500D01*
X0544500Y0386740D02*
X0544500Y0388196D01*
X0546075Y0388196D02*
X0546075Y0386740D01*
X0547650Y0386740D02*
X0547650Y0388196D01*
X0549225Y0388196D02*
X0549225Y0386740D01*
X0550800Y0386740D02*
X0550800Y0388196D01*
X0552375Y0388196D02*
X0552375Y0386740D01*
X0553615Y0385500D02*
X0555071Y0385500D01*
X0555071Y0383925D02*
X0553615Y0383925D01*
X0553615Y0382350D02*
X0555071Y0382350D01*
X0555071Y0380775D02*
X0553615Y0380775D01*
X0553615Y0379200D02*
X0555071Y0379200D01*
X0555071Y0377625D02*
X0553615Y0377625D01*
D12*
X0548438Y0381562D03*
D13*
X0546769Y0359707D03*
X0539289Y0359707D03*
D14*
X0562970Y0369707D03*
X0562970Y0374707D03*
X0562970Y0379707D03*
X0562970Y0384707D03*
X0562970Y0389082D03*
X0562970Y0393457D03*
X0562970Y0397832D03*
X0563001Y0402308D03*
X0562970Y0407207D03*
X0568088Y0407207D03*
X0568119Y0402308D03*
X0568088Y0397832D03*
X0568088Y0393457D03*
X0568088Y0389082D03*
X0568088Y0384707D03*
X0568088Y0379707D03*
X0568088Y0374707D03*
X0568088Y0369707D03*
X0450684Y0425625D03*
X0445566Y0425625D03*
D15*
X0535529Y0411902D03*
X0535529Y0405012D03*
D16*
X0513093Y0379629D03*
X0513093Y0357582D03*
D17*
X0532495Y0369082D03*
X0539188Y0369082D03*
X0579375Y0378216D03*
X0579375Y0384909D03*
X0579375Y0394779D03*
X0579375Y0401471D03*
X0568750Y0335221D03*
X0568750Y0328529D03*
D18*
X0521104Y0394871D03*
X0516104Y0394871D03*
X0511104Y0394871D03*
X0506104Y0394871D03*
X0506104Y0415343D03*
X0511104Y0415343D03*
X0516104Y0415343D03*
X0521104Y0415343D03*
D19*
X0529279Y0411016D03*
X0529279Y0405898D03*
X0528654Y0424023D03*
X0533029Y0424023D03*
X0537404Y0424023D03*
X0537404Y0429141D03*
X0533029Y0429141D03*
X0528654Y0429141D03*
D20*
X0543654Y0412197D03*
X0543654Y0404717D03*
D21*
X0543607Y0426562D03*
X0560143Y0426562D03*
D22*
X0551154Y0413871D03*
X0551154Y0403044D03*
X0458750Y0411462D03*
X0458750Y0422288D03*
X0432500Y0422288D03*
X0432500Y0411462D03*
D23*
X0426875Y0443110D03*
X0426875Y0456890D03*
X0411250Y0456890D03*
X0411250Y0443110D03*
X0588110Y0397500D03*
X0588110Y0387500D03*
X0601890Y0387500D03*
X0601890Y0397500D03*
X0601890Y0283750D03*
X0588110Y0283750D03*
D24*
X0572490Y0343378D03*
X0572490Y0345937D03*
X0572490Y0348497D03*
X0565010Y0348497D03*
X0565010Y0345937D03*
X0565010Y0343378D03*
X0580322Y0368691D03*
X0580322Y0371250D03*
X0580322Y0373809D03*
X0587803Y0373809D03*
X0587803Y0371250D03*
X0587803Y0368691D03*
X0435615Y0369628D03*
X0435615Y0372187D03*
X0435615Y0374747D03*
X0428135Y0374747D03*
X0428135Y0372187D03*
X0428135Y0369628D03*
D25*
X0428529Y0347187D03*
X0435221Y0347187D03*
X0435221Y0355937D03*
X0428529Y0355937D03*
X0429596Y0436250D03*
X0422904Y0436250D03*
X0414596Y0436250D03*
X0407904Y0436250D03*
X0579154Y0275625D03*
X0585846Y0275625D03*
D26*
X0595000Y0411250D03*
X0595000Y0421250D03*
D27*
X0511875Y0436062D03*
X0511875Y0442062D03*
X0481875Y0442062D03*
X0481875Y0436062D03*
X0472187Y0436375D03*
X0472187Y0442375D03*
D28*
X0401742Y0361250D03*
X0401742Y0351250D03*
X0585758Y0352500D03*
X0585758Y0342500D03*
D29*
X0450625Y0412550D03*
X0450625Y0416250D03*
X0450625Y0419950D03*
X0440625Y0419950D03*
X0440625Y0412550D03*
M02*
