G75*
%MOIN*%
%OFA0B0*%
%FSLAX25Y25*%
%IPPOS*%
%LPD*%
%AMOC8*
5,1,8,0,0,1.08239X$1,22.5*
%
%ADD10C,0.07087*%
%ADD11C,0.07400*%
%ADD12R,0.05906X0.11417*%
%ADD13R,0.14961X0.11024*%
%ADD14R,0.06299X0.10630*%
%ADD15R,0.03937X0.06299*%
%ADD16R,0.07087X0.29528*%
%ADD17R,0.06299X0.03937*%
%ADD18R,0.02362X0.05000*%
%ADD19R,0.14567X0.10039*%
%ADD20R,0.03543X0.02756*%
%ADD21R,0.02913X0.03642*%
%ADD22R,0.02756X0.03543*%
%ADD23R,0.03642X0.02913*%
%ADD24R,0.07874X0.05906*%
%ADD25R,0.01142X0.01575*%
%ADD26R,0.01575X0.01142*%
%ADD27R,0.03937X0.04331*%
%ADD28R,0.04252X0.04134*%
%ADD29R,0.11417X0.10630*%
%ADD30R,0.01772X0.08465*%
%ADD31R,0.09843X0.10039*%
%ADD32R,0.05118X0.06299*%
%ADD33R,0.04134X0.04252*%
%ADD34R,0.06300X0.04600*%
%ADD35R,0.01575X0.04724*%
%ADD36R,0.09094X0.09094*%
%ADD37R,0.04331X0.03937*%
%ADD38R,0.05118X0.05906*%
%ADD39R,0.08661X0.05118*%
%ADD40R,0.04950X0.04950*%
%ADD41C,0.04950*%
%ADD42R,0.07098X0.06299*%
%ADD43OC8,0.06000*%
%ADD44C,0.00600*%
%ADD45C,0.00440*%
%ADD46R,0.11024X0.05118*%
%ADD47C,0.05000*%
%ADD48C,0.01200*%
%ADD49C,0.02400*%
%ADD50C,0.03178*%
%ADD51C,0.01000*%
%ADD52C,0.04000*%
%ADD53C,0.03200*%
%ADD54C,0.01600*%
%ADD55C,0.06600*%
%ADD56C,0.06600*%
%ADD57C,0.05600*%
%ADD58C,0.00800*%
D10*
X0385207Y0293750D02*
X0392293Y0293750D01*
X0392293Y0303750D02*
X0385207Y0303750D01*
X0385207Y0412500D02*
X0392293Y0412500D01*
X0392293Y0422500D02*
X0385207Y0422500D01*
X0595532Y0303900D02*
X0602618Y0303900D01*
X0602618Y0293900D02*
X0595532Y0293900D01*
D11*
X0582008Y0263524D03*
X0572008Y0263524D03*
X0562008Y0263524D03*
X0552008Y0263524D03*
X0542008Y0263524D03*
X0532008Y0263524D03*
X0522008Y0263524D03*
X0512008Y0263524D03*
X0496008Y0263524D03*
X0486008Y0263524D03*
X0476008Y0263524D03*
X0466008Y0263524D03*
X0456008Y0263524D03*
X0446008Y0263524D03*
X0436008Y0263524D03*
X0426008Y0263524D03*
X0416008Y0263524D03*
X0406008Y0263524D03*
X0442008Y0453524D03*
X0452008Y0453524D03*
X0462008Y0453524D03*
X0472008Y0453524D03*
X0482008Y0453524D03*
X0492008Y0453524D03*
X0502008Y0453524D03*
X0512008Y0453524D03*
X0532008Y0453524D03*
X0542008Y0453524D03*
X0552008Y0453524D03*
X0562008Y0453524D03*
X0572008Y0453524D03*
X0582008Y0453524D03*
D12*
X0556861Y0311571D03*
X0545050Y0311571D03*
D13*
X0573381Y0315463D03*
X0573381Y0286329D03*
D14*
X0556205Y0290424D03*
X0545181Y0290424D03*
D15*
X0541608Y0301009D03*
X0558144Y0301009D03*
X0487018Y0329063D03*
X0470482Y0329063D03*
X0440768Y0419375D03*
X0424232Y0419375D03*
D16*
X0421078Y0369375D03*
X0443125Y0369375D03*
X0508437Y0302500D03*
X0530485Y0302500D03*
D17*
X0499375Y0303607D03*
X0499375Y0320143D03*
D18*
X0544375Y0324301D03*
X0549375Y0324301D03*
X0554375Y0324301D03*
X0559375Y0324301D03*
X0559375Y0343199D03*
X0554375Y0343199D03*
X0549375Y0343199D03*
X0544375Y0343199D03*
D19*
X0551875Y0333750D03*
D20*
X0537813Y0334747D03*
X0537813Y0329628D03*
X0528125Y0340878D03*
X0523750Y0340878D03*
X0519375Y0340878D03*
X0515000Y0340878D03*
X0510625Y0340878D03*
X0506250Y0340878D03*
X0501875Y0340878D03*
X0497500Y0340878D03*
X0497500Y0345997D03*
X0501875Y0345997D03*
X0506250Y0345997D03*
X0510625Y0345997D03*
X0515000Y0345997D03*
X0519375Y0345997D03*
X0523750Y0345997D03*
X0528125Y0345997D03*
X0545000Y0353691D03*
X0545000Y0358809D03*
X0509062Y0369316D03*
X0504687Y0369316D03*
X0504687Y0374434D03*
X0509062Y0374434D03*
X0470937Y0380566D03*
X0466250Y0380566D03*
X0466250Y0385684D03*
X0470937Y0385684D03*
X0469375Y0422753D03*
X0465000Y0422753D03*
X0465000Y0427872D03*
X0469375Y0427872D03*
D21*
X0540625Y0358612D03*
X0540625Y0353888D03*
X0551875Y0353888D03*
X0551875Y0358612D03*
D22*
X0558322Y0358140D03*
X0558322Y0353679D03*
X0563440Y0353679D03*
X0563440Y0358140D03*
X0509434Y0358750D03*
X0504316Y0358750D03*
X0503184Y0331563D03*
X0503184Y0326875D03*
X0498066Y0326875D03*
X0498066Y0331563D03*
X0467559Y0288750D03*
X0462441Y0288750D03*
X0455684Y0288750D03*
X0450566Y0288750D03*
X0443809Y0288750D03*
X0438691Y0288750D03*
X0471816Y0394375D03*
X0476934Y0394375D03*
D23*
X0535138Y0320313D03*
X0539862Y0320313D03*
D24*
X0526875Y0322219D03*
X0517187Y0322219D03*
X0517187Y0334031D03*
X0526875Y0334031D03*
D25*
X0526095Y0353046D03*
X0524403Y0353046D03*
X0522710Y0353046D03*
X0521017Y0353046D03*
X0519324Y0353046D03*
X0517631Y0353046D03*
X0515938Y0353046D03*
X0514245Y0353046D03*
X0514245Y0362692D03*
X0515938Y0362692D03*
X0517631Y0362692D03*
X0519324Y0362692D03*
X0521017Y0362692D03*
X0522710Y0362692D03*
X0524403Y0362692D03*
X0526095Y0362692D03*
D26*
X0526095Y0360408D03*
X0526095Y0358716D03*
X0526095Y0357023D03*
X0526095Y0355330D03*
X0514245Y0355330D03*
X0514245Y0357023D03*
X0514245Y0358716D03*
X0514245Y0360408D03*
D27*
X0524062Y0369154D03*
X0524062Y0375846D03*
X0455000Y0377279D03*
X0455000Y0383971D03*
D28*
X0517500Y0375945D03*
X0517500Y0369055D03*
X0462500Y0332507D03*
X0462500Y0325618D03*
D29*
X0447500Y0311250D03*
D30*
X0450000Y0300000D03*
X0445000Y0300000D03*
X0440000Y0300000D03*
X0455000Y0300000D03*
X0455000Y0322500D03*
X0450000Y0322500D03*
X0445000Y0322500D03*
X0440000Y0322500D03*
D31*
X0466250Y0317441D03*
X0466250Y0297559D03*
D32*
X0469813Y0337500D03*
X0477687Y0337500D03*
D33*
X0455945Y0337500D03*
X0455945Y0331250D03*
X0449055Y0331250D03*
X0449055Y0337500D03*
D34*
X0427500Y0299750D03*
X0427500Y0293750D03*
X0427500Y0287750D03*
D35*
X0449168Y0391708D03*
X0451727Y0391708D03*
X0454286Y0391708D03*
X0456845Y0391708D03*
X0459405Y0391708D03*
X0461964Y0391708D03*
X0464523Y0391708D03*
X0467082Y0391708D03*
X0467082Y0414542D03*
X0464523Y0414542D03*
X0461964Y0414542D03*
X0459405Y0414542D03*
X0456845Y0414542D03*
X0454286Y0414542D03*
X0451727Y0414542D03*
X0449168Y0414542D03*
D36*
X0458125Y0403125D03*
D37*
X0457721Y0421875D03*
X0451029Y0421875D03*
X0573750Y0344596D03*
X0573750Y0337904D03*
D38*
X0588932Y0372500D03*
X0595625Y0372500D03*
X0602318Y0372500D03*
X0432178Y0428125D03*
X0424697Y0428125D03*
X0399193Y0373125D03*
X0392500Y0373125D03*
X0385807Y0373125D03*
D39*
X0425712Y0395125D03*
X0439462Y0395125D03*
X0439462Y0411424D03*
X0425712Y0411424D03*
D40*
X0583750Y0411063D03*
D41*
X0583750Y0418937D03*
D42*
X0590313Y0325911D03*
X0590313Y0314714D03*
X0398750Y0390339D03*
X0398750Y0401536D03*
D43*
X0401250Y0337500D03*
X0411250Y0337500D03*
X0411250Y0327500D03*
X0411250Y0317500D03*
X0401250Y0317500D03*
X0401250Y0327500D03*
D44*
X0448750Y0356250D02*
X0452750Y0356250D01*
X0453750Y0356250D02*
X0453752Y0356391D01*
X0453758Y0356532D01*
X0453768Y0356672D01*
X0453782Y0356812D01*
X0453800Y0356952D01*
X0453821Y0357091D01*
X0453847Y0357230D01*
X0453876Y0357368D01*
X0453910Y0357504D01*
X0453947Y0357640D01*
X0453988Y0357775D01*
X0454033Y0357909D01*
X0454082Y0358041D01*
X0454134Y0358172D01*
X0454190Y0358301D01*
X0454250Y0358428D01*
X0454313Y0358554D01*
X0454379Y0358678D01*
X0454450Y0358801D01*
X0454523Y0358921D01*
X0454600Y0359039D01*
X0454680Y0359155D01*
X0454764Y0359268D01*
X0454850Y0359379D01*
X0454940Y0359488D01*
X0455033Y0359594D01*
X0455128Y0359697D01*
X0455227Y0359798D01*
X0455328Y0359896D01*
X0455432Y0359991D01*
X0455539Y0360083D01*
X0455648Y0360172D01*
X0455760Y0360257D01*
X0455874Y0360340D01*
X0455990Y0360420D01*
X0456109Y0360496D01*
X0456230Y0360568D01*
X0456352Y0360638D01*
X0456477Y0360703D01*
X0456603Y0360766D01*
X0456731Y0360824D01*
X0456861Y0360879D01*
X0456992Y0360931D01*
X0457125Y0360978D01*
X0457259Y0361022D01*
X0457394Y0361063D01*
X0457530Y0361099D01*
X0457667Y0361131D01*
X0457805Y0361160D01*
X0457943Y0361185D01*
X0458083Y0361205D01*
X0458223Y0361222D01*
X0458363Y0361235D01*
X0458504Y0361244D01*
X0458644Y0361249D01*
X0458785Y0361250D01*
X0458926Y0361247D01*
X0459067Y0361240D01*
X0459207Y0361229D01*
X0459347Y0361214D01*
X0459487Y0361195D01*
X0459626Y0361173D01*
X0459764Y0361146D01*
X0459902Y0361116D01*
X0460038Y0361081D01*
X0460174Y0361043D01*
X0460308Y0361001D01*
X0460442Y0360955D01*
X0460574Y0360906D01*
X0460704Y0360852D01*
X0460833Y0360795D01*
X0460960Y0360735D01*
X0461086Y0360671D01*
X0461209Y0360603D01*
X0461331Y0360532D01*
X0461451Y0360458D01*
X0461568Y0360380D01*
X0461683Y0360299D01*
X0461796Y0360215D01*
X0461907Y0360128D01*
X0462015Y0360037D01*
X0462120Y0359944D01*
X0462223Y0359847D01*
X0462323Y0359748D01*
X0462420Y0359646D01*
X0462514Y0359541D01*
X0462605Y0359434D01*
X0462693Y0359324D01*
X0462778Y0359212D01*
X0462860Y0359097D01*
X0462939Y0358980D01*
X0463014Y0358861D01*
X0463086Y0358740D01*
X0463154Y0358617D01*
X0463219Y0358492D01*
X0463281Y0358365D01*
X0463338Y0358236D01*
X0463393Y0358106D01*
X0463443Y0357975D01*
X0463490Y0357842D01*
X0463533Y0357708D01*
X0463572Y0357572D01*
X0463607Y0357436D01*
X0463639Y0357299D01*
X0463666Y0357161D01*
X0463690Y0357022D01*
X0463710Y0356882D01*
X0463726Y0356742D01*
X0463738Y0356602D01*
X0463746Y0356461D01*
X0463750Y0356320D01*
X0463750Y0356180D01*
X0463746Y0356039D01*
X0463738Y0355898D01*
X0463726Y0355758D01*
X0463710Y0355618D01*
X0463690Y0355478D01*
X0463666Y0355339D01*
X0463639Y0355201D01*
X0463607Y0355064D01*
X0463572Y0354928D01*
X0463533Y0354792D01*
X0463490Y0354658D01*
X0463443Y0354525D01*
X0463393Y0354394D01*
X0463338Y0354264D01*
X0463281Y0354135D01*
X0463219Y0354008D01*
X0463154Y0353883D01*
X0463086Y0353760D01*
X0463014Y0353639D01*
X0462939Y0353520D01*
X0462860Y0353403D01*
X0462778Y0353288D01*
X0462693Y0353176D01*
X0462605Y0353066D01*
X0462514Y0352959D01*
X0462420Y0352854D01*
X0462323Y0352752D01*
X0462223Y0352653D01*
X0462120Y0352556D01*
X0462015Y0352463D01*
X0461907Y0352372D01*
X0461796Y0352285D01*
X0461683Y0352201D01*
X0461568Y0352120D01*
X0461451Y0352042D01*
X0461331Y0351968D01*
X0461209Y0351897D01*
X0461086Y0351829D01*
X0460960Y0351765D01*
X0460833Y0351705D01*
X0460704Y0351648D01*
X0460574Y0351594D01*
X0460442Y0351545D01*
X0460308Y0351499D01*
X0460174Y0351457D01*
X0460038Y0351419D01*
X0459902Y0351384D01*
X0459764Y0351354D01*
X0459626Y0351327D01*
X0459487Y0351305D01*
X0459347Y0351286D01*
X0459207Y0351271D01*
X0459067Y0351260D01*
X0458926Y0351253D01*
X0458785Y0351250D01*
X0458644Y0351251D01*
X0458504Y0351256D01*
X0458363Y0351265D01*
X0458223Y0351278D01*
X0458083Y0351295D01*
X0457943Y0351315D01*
X0457805Y0351340D01*
X0457667Y0351369D01*
X0457530Y0351401D01*
X0457394Y0351437D01*
X0457259Y0351478D01*
X0457125Y0351522D01*
X0456992Y0351569D01*
X0456861Y0351621D01*
X0456731Y0351676D01*
X0456603Y0351734D01*
X0456477Y0351797D01*
X0456352Y0351862D01*
X0456230Y0351932D01*
X0456109Y0352004D01*
X0455990Y0352080D01*
X0455874Y0352160D01*
X0455760Y0352243D01*
X0455648Y0352328D01*
X0455539Y0352417D01*
X0455432Y0352509D01*
X0455328Y0352604D01*
X0455227Y0352702D01*
X0455128Y0352803D01*
X0455033Y0352906D01*
X0454940Y0353012D01*
X0454850Y0353121D01*
X0454764Y0353232D01*
X0454680Y0353345D01*
X0454600Y0353461D01*
X0454523Y0353579D01*
X0454450Y0353699D01*
X0454379Y0353822D01*
X0454313Y0353946D01*
X0454250Y0354072D01*
X0454190Y0354199D01*
X0454134Y0354328D01*
X0454082Y0354459D01*
X0454033Y0354591D01*
X0453988Y0354725D01*
X0453947Y0354860D01*
X0453910Y0354996D01*
X0453876Y0355132D01*
X0453847Y0355270D01*
X0453821Y0355409D01*
X0453800Y0355548D01*
X0453782Y0355688D01*
X0453768Y0355828D01*
X0453758Y0355968D01*
X0453752Y0356109D01*
X0453750Y0356250D01*
X0458750Y0350250D02*
X0458750Y0346250D01*
X0464750Y0356250D02*
X0468750Y0356250D01*
X0458750Y0362250D02*
X0458750Y0366250D01*
D45*
X0463024Y0356569D02*
X0459005Y0356505D01*
X0459006Y0356506D02*
X0459006Y0356506D01*
X0459069Y0360524D01*
X0459070Y0360524D01*
X0459197Y0360516D01*
X0459324Y0360503D01*
X0459451Y0360487D01*
X0459577Y0360466D01*
X0459702Y0360442D01*
X0459827Y0360414D01*
X0459950Y0360383D01*
X0460073Y0360347D01*
X0460194Y0360308D01*
X0460314Y0360265D01*
X0460433Y0360219D01*
X0460551Y0360168D01*
X0460666Y0360115D01*
X0460781Y0360057D01*
X0460893Y0359997D01*
X0461003Y0359933D01*
X0461112Y0359865D01*
X0461218Y0359795D01*
X0461322Y0359721D01*
X0461424Y0359644D01*
X0461523Y0359564D01*
X0461620Y0359481D01*
X0461714Y0359395D01*
X0461806Y0359306D01*
X0461895Y0359214D01*
X0461981Y0359120D01*
X0462064Y0359023D01*
X0462144Y0358924D01*
X0462221Y0358822D01*
X0462295Y0358718D01*
X0462365Y0358612D01*
X0462433Y0358503D01*
X0462497Y0358393D01*
X0462557Y0358281D01*
X0462615Y0358166D01*
X0462668Y0358051D01*
X0462719Y0357933D01*
X0462765Y0357814D01*
X0462808Y0357694D01*
X0462847Y0357573D01*
X0462883Y0357450D01*
X0462914Y0357327D01*
X0462942Y0357202D01*
X0462966Y0357077D01*
X0462987Y0356951D01*
X0463003Y0356824D01*
X0463016Y0356697D01*
X0463024Y0356570D01*
X0462607Y0356570D01*
X0462598Y0356691D01*
X0462585Y0356812D01*
X0462568Y0356932D01*
X0462547Y0357052D01*
X0462522Y0357171D01*
X0462494Y0357289D01*
X0462462Y0357407D01*
X0462426Y0357523D01*
X0462386Y0357638D01*
X0462342Y0357751D01*
X0462295Y0357863D01*
X0462245Y0357974D01*
X0462190Y0358083D01*
X0462133Y0358190D01*
X0462072Y0358295D01*
X0462007Y0358398D01*
X0461939Y0358499D01*
X0461868Y0358597D01*
X0461794Y0358694D01*
X0461717Y0358787D01*
X0461637Y0358879D01*
X0461553Y0358968D01*
X0461468Y0359053D01*
X0461379Y0359137D01*
X0461287Y0359217D01*
X0461194Y0359294D01*
X0461097Y0359368D01*
X0460999Y0359439D01*
X0460898Y0359507D01*
X0460795Y0359572D01*
X0460690Y0359633D01*
X0460583Y0359690D01*
X0460474Y0359745D01*
X0460363Y0359795D01*
X0460251Y0359842D01*
X0460138Y0359886D01*
X0460023Y0359926D01*
X0459907Y0359962D01*
X0459789Y0359994D01*
X0459671Y0360022D01*
X0459552Y0360047D01*
X0459432Y0360068D01*
X0459312Y0360085D01*
X0459191Y0360098D01*
X0459070Y0360107D01*
X0459070Y0359689D01*
X0459184Y0359679D01*
X0459298Y0359666D01*
X0459411Y0359649D01*
X0459524Y0359627D01*
X0459636Y0359602D01*
X0459747Y0359574D01*
X0459857Y0359541D01*
X0459966Y0359505D01*
X0460073Y0359464D01*
X0460179Y0359421D01*
X0460283Y0359373D01*
X0460386Y0359323D01*
X0460487Y0359268D01*
X0460586Y0359210D01*
X0460683Y0359149D01*
X0460778Y0359085D01*
X0460870Y0359017D01*
X0460961Y0358946D01*
X0461048Y0358872D01*
X0461134Y0358796D01*
X0461216Y0358716D01*
X0461296Y0358634D01*
X0461372Y0358548D01*
X0461446Y0358461D01*
X0461517Y0358370D01*
X0461585Y0358278D01*
X0461649Y0358183D01*
X0461710Y0358086D01*
X0461768Y0357987D01*
X0461823Y0357886D01*
X0461873Y0357783D01*
X0461921Y0357679D01*
X0461964Y0357573D01*
X0462005Y0357466D01*
X0462041Y0357357D01*
X0462074Y0357247D01*
X0462102Y0357136D01*
X0462127Y0357024D01*
X0462149Y0356911D01*
X0462166Y0356798D01*
X0462179Y0356684D01*
X0462189Y0356570D01*
X0461771Y0356570D01*
X0461761Y0356676D01*
X0461747Y0356782D01*
X0461729Y0356887D01*
X0461708Y0356992D01*
X0461683Y0357095D01*
X0461654Y0357198D01*
X0461621Y0357299D01*
X0461584Y0357400D01*
X0461544Y0357499D01*
X0461501Y0357596D01*
X0461454Y0357692D01*
X0461403Y0357786D01*
X0461349Y0357878D01*
X0461292Y0357968D01*
X0461231Y0358055D01*
X0461168Y0358141D01*
X0461101Y0358224D01*
X0461031Y0358305D01*
X0460958Y0358383D01*
X0460883Y0358458D01*
X0460805Y0358531D01*
X0460724Y0358601D01*
X0460641Y0358668D01*
X0460555Y0358731D01*
X0460468Y0358792D01*
X0460378Y0358849D01*
X0460286Y0358903D01*
X0460192Y0358954D01*
X0460096Y0359001D01*
X0459999Y0359044D01*
X0459900Y0359084D01*
X0459799Y0359121D01*
X0459698Y0359154D01*
X0459595Y0359183D01*
X0459492Y0359208D01*
X0459387Y0359229D01*
X0459282Y0359247D01*
X0459176Y0359261D01*
X0459070Y0359271D01*
X0459070Y0358852D01*
X0459167Y0358842D01*
X0459263Y0358828D01*
X0459359Y0358810D01*
X0459454Y0358788D01*
X0459548Y0358763D01*
X0459641Y0358734D01*
X0459732Y0358702D01*
X0459823Y0358666D01*
X0459912Y0358626D01*
X0459999Y0358584D01*
X0460085Y0358537D01*
X0460169Y0358488D01*
X0460251Y0358435D01*
X0460331Y0358379D01*
X0460408Y0358320D01*
X0460483Y0358259D01*
X0460556Y0358194D01*
X0460626Y0358126D01*
X0460694Y0358056D01*
X0460759Y0357983D01*
X0460820Y0357908D01*
X0460879Y0357831D01*
X0460935Y0357751D01*
X0460988Y0357669D01*
X0461037Y0357585D01*
X0461084Y0357499D01*
X0461126Y0357412D01*
X0461166Y0357323D01*
X0461202Y0357232D01*
X0461234Y0357141D01*
X0461263Y0357048D01*
X0461288Y0356954D01*
X0461310Y0356859D01*
X0461328Y0356763D01*
X0461342Y0356667D01*
X0461352Y0356570D01*
X0460933Y0356570D01*
X0460922Y0356658D01*
X0460907Y0356746D01*
X0460889Y0356833D01*
X0460866Y0356919D01*
X0460840Y0357004D01*
X0460811Y0357088D01*
X0460777Y0357171D01*
X0460741Y0357252D01*
X0460701Y0357332D01*
X0460657Y0357410D01*
X0460611Y0357485D01*
X0460561Y0357559D01*
X0460508Y0357631D01*
X0460452Y0357700D01*
X0460393Y0357767D01*
X0460331Y0357831D01*
X0460267Y0357893D01*
X0460200Y0357952D01*
X0460131Y0358008D01*
X0460059Y0358061D01*
X0459985Y0358111D01*
X0459910Y0358157D01*
X0459832Y0358201D01*
X0459752Y0358241D01*
X0459671Y0358277D01*
X0459588Y0358311D01*
X0459504Y0358340D01*
X0459419Y0358366D01*
X0459333Y0358389D01*
X0459246Y0358407D01*
X0459158Y0358422D01*
X0459070Y0358433D01*
X0459069Y0358014D01*
X0459150Y0358001D01*
X0459229Y0357985D01*
X0459308Y0357964D01*
X0459386Y0357940D01*
X0459462Y0357912D01*
X0459537Y0357881D01*
X0459610Y0357846D01*
X0459682Y0357807D01*
X0459752Y0357765D01*
X0459819Y0357720D01*
X0459884Y0357671D01*
X0459947Y0357620D01*
X0460007Y0357565D01*
X0460065Y0357507D01*
X0460120Y0357447D01*
X0460171Y0357384D01*
X0460220Y0357319D01*
X0460265Y0357252D01*
X0460307Y0357182D01*
X0460346Y0357110D01*
X0460381Y0357037D01*
X0460412Y0356962D01*
X0460440Y0356886D01*
X0460464Y0356808D01*
X0460485Y0356729D01*
X0460501Y0356650D01*
X0460514Y0356569D01*
X0460092Y0356569D01*
X0460078Y0356637D01*
X0460060Y0356705D01*
X0460038Y0356772D01*
X0460013Y0356837D01*
X0459984Y0356901D01*
X0459952Y0356963D01*
X0459916Y0357023D01*
X0459877Y0357081D01*
X0459835Y0357137D01*
X0459790Y0357191D01*
X0459742Y0357242D01*
X0459691Y0357290D01*
X0459637Y0357335D01*
X0459581Y0357377D01*
X0459523Y0357416D01*
X0459463Y0357452D01*
X0459401Y0357484D01*
X0459337Y0357513D01*
X0459272Y0357538D01*
X0459205Y0357560D01*
X0459137Y0357578D01*
X0459069Y0357592D01*
X0459068Y0357165D01*
X0459121Y0357149D01*
X0459172Y0357130D01*
X0459223Y0357107D01*
X0459272Y0357081D01*
X0459319Y0357052D01*
X0459364Y0357020D01*
X0459406Y0356985D01*
X0459447Y0356947D01*
X0459485Y0356906D01*
X0459520Y0356864D01*
X0459552Y0356819D01*
X0459581Y0356772D01*
X0459607Y0356723D01*
X0459630Y0356672D01*
X0459649Y0356621D01*
X0459665Y0356568D01*
X0459222Y0356560D01*
X0459201Y0356593D01*
X0459178Y0356624D01*
X0459152Y0356652D01*
X0459124Y0356678D01*
X0459093Y0356701D01*
X0459060Y0356722D01*
X0454476Y0355931D02*
X0458495Y0355995D01*
X0458494Y0355994D02*
X0458494Y0355994D01*
X0458431Y0351976D01*
X0458430Y0351976D01*
X0458303Y0351984D01*
X0458176Y0351997D01*
X0458049Y0352013D01*
X0457923Y0352034D01*
X0457798Y0352058D01*
X0457673Y0352086D01*
X0457550Y0352117D01*
X0457427Y0352153D01*
X0457306Y0352192D01*
X0457186Y0352235D01*
X0457067Y0352281D01*
X0456949Y0352332D01*
X0456834Y0352385D01*
X0456719Y0352443D01*
X0456607Y0352503D01*
X0456497Y0352567D01*
X0456388Y0352635D01*
X0456282Y0352705D01*
X0456178Y0352779D01*
X0456076Y0352856D01*
X0455977Y0352936D01*
X0455880Y0353019D01*
X0455786Y0353105D01*
X0455694Y0353194D01*
X0455605Y0353286D01*
X0455519Y0353380D01*
X0455436Y0353477D01*
X0455356Y0353576D01*
X0455279Y0353678D01*
X0455205Y0353782D01*
X0455135Y0353888D01*
X0455067Y0353997D01*
X0455003Y0354107D01*
X0454943Y0354219D01*
X0454885Y0354334D01*
X0454832Y0354449D01*
X0454781Y0354567D01*
X0454735Y0354686D01*
X0454692Y0354806D01*
X0454653Y0354927D01*
X0454617Y0355050D01*
X0454586Y0355173D01*
X0454558Y0355298D01*
X0454534Y0355423D01*
X0454513Y0355549D01*
X0454497Y0355676D01*
X0454484Y0355803D01*
X0454476Y0355930D01*
X0454893Y0355930D01*
X0454902Y0355809D01*
X0454915Y0355688D01*
X0454932Y0355568D01*
X0454953Y0355448D01*
X0454978Y0355329D01*
X0455006Y0355211D01*
X0455038Y0355093D01*
X0455074Y0354977D01*
X0455114Y0354862D01*
X0455158Y0354749D01*
X0455205Y0354637D01*
X0455255Y0354526D01*
X0455310Y0354417D01*
X0455367Y0354310D01*
X0455428Y0354205D01*
X0455493Y0354102D01*
X0455561Y0354001D01*
X0455632Y0353903D01*
X0455706Y0353806D01*
X0455783Y0353713D01*
X0455863Y0353621D01*
X0455947Y0353532D01*
X0456032Y0353447D01*
X0456121Y0353363D01*
X0456213Y0353283D01*
X0456306Y0353206D01*
X0456403Y0353132D01*
X0456501Y0353061D01*
X0456602Y0352993D01*
X0456705Y0352928D01*
X0456810Y0352867D01*
X0456917Y0352810D01*
X0457026Y0352755D01*
X0457137Y0352705D01*
X0457249Y0352658D01*
X0457362Y0352614D01*
X0457477Y0352574D01*
X0457593Y0352538D01*
X0457711Y0352506D01*
X0457829Y0352478D01*
X0457948Y0352453D01*
X0458068Y0352432D01*
X0458188Y0352415D01*
X0458309Y0352402D01*
X0458430Y0352393D01*
X0458430Y0352811D01*
X0458316Y0352821D01*
X0458202Y0352834D01*
X0458089Y0352851D01*
X0457976Y0352873D01*
X0457864Y0352898D01*
X0457753Y0352926D01*
X0457643Y0352959D01*
X0457534Y0352995D01*
X0457427Y0353036D01*
X0457321Y0353079D01*
X0457217Y0353127D01*
X0457114Y0353177D01*
X0457013Y0353232D01*
X0456914Y0353290D01*
X0456817Y0353351D01*
X0456722Y0353415D01*
X0456630Y0353483D01*
X0456539Y0353554D01*
X0456452Y0353628D01*
X0456366Y0353704D01*
X0456284Y0353784D01*
X0456204Y0353866D01*
X0456128Y0353952D01*
X0456054Y0354039D01*
X0455983Y0354130D01*
X0455915Y0354222D01*
X0455851Y0354317D01*
X0455790Y0354414D01*
X0455732Y0354513D01*
X0455677Y0354614D01*
X0455627Y0354717D01*
X0455579Y0354821D01*
X0455536Y0354927D01*
X0455495Y0355034D01*
X0455459Y0355143D01*
X0455426Y0355253D01*
X0455398Y0355364D01*
X0455373Y0355476D01*
X0455351Y0355589D01*
X0455334Y0355702D01*
X0455321Y0355816D01*
X0455311Y0355930D01*
X0455729Y0355930D01*
X0455739Y0355824D01*
X0455753Y0355718D01*
X0455771Y0355613D01*
X0455792Y0355508D01*
X0455817Y0355405D01*
X0455846Y0355302D01*
X0455879Y0355201D01*
X0455916Y0355100D01*
X0455956Y0355001D01*
X0455999Y0354904D01*
X0456046Y0354808D01*
X0456097Y0354714D01*
X0456151Y0354622D01*
X0456208Y0354532D01*
X0456269Y0354445D01*
X0456332Y0354359D01*
X0456399Y0354276D01*
X0456469Y0354195D01*
X0456542Y0354117D01*
X0456617Y0354042D01*
X0456695Y0353969D01*
X0456776Y0353899D01*
X0456859Y0353832D01*
X0456945Y0353769D01*
X0457032Y0353708D01*
X0457122Y0353651D01*
X0457214Y0353597D01*
X0457308Y0353546D01*
X0457404Y0353499D01*
X0457501Y0353456D01*
X0457600Y0353416D01*
X0457701Y0353379D01*
X0457802Y0353346D01*
X0457905Y0353317D01*
X0458008Y0353292D01*
X0458113Y0353271D01*
X0458218Y0353253D01*
X0458324Y0353239D01*
X0458430Y0353229D01*
X0458430Y0353648D01*
X0458333Y0353658D01*
X0458237Y0353672D01*
X0458141Y0353690D01*
X0458046Y0353712D01*
X0457952Y0353737D01*
X0457859Y0353766D01*
X0457768Y0353798D01*
X0457677Y0353834D01*
X0457588Y0353874D01*
X0457501Y0353916D01*
X0457415Y0353963D01*
X0457331Y0354012D01*
X0457249Y0354065D01*
X0457169Y0354121D01*
X0457092Y0354180D01*
X0457017Y0354241D01*
X0456944Y0354306D01*
X0456874Y0354374D01*
X0456806Y0354444D01*
X0456741Y0354517D01*
X0456680Y0354592D01*
X0456621Y0354669D01*
X0456565Y0354749D01*
X0456512Y0354831D01*
X0456463Y0354915D01*
X0456416Y0355001D01*
X0456374Y0355088D01*
X0456334Y0355177D01*
X0456298Y0355268D01*
X0456266Y0355359D01*
X0456237Y0355452D01*
X0456212Y0355546D01*
X0456190Y0355641D01*
X0456172Y0355737D01*
X0456158Y0355833D01*
X0456148Y0355930D01*
X0456567Y0355930D01*
X0456578Y0355842D01*
X0456593Y0355754D01*
X0456611Y0355667D01*
X0456634Y0355581D01*
X0456660Y0355496D01*
X0456689Y0355412D01*
X0456723Y0355329D01*
X0456759Y0355248D01*
X0456799Y0355168D01*
X0456843Y0355090D01*
X0456889Y0355015D01*
X0456939Y0354941D01*
X0456992Y0354869D01*
X0457048Y0354800D01*
X0457107Y0354733D01*
X0457169Y0354669D01*
X0457233Y0354607D01*
X0457300Y0354548D01*
X0457369Y0354492D01*
X0457441Y0354439D01*
X0457515Y0354389D01*
X0457590Y0354343D01*
X0457668Y0354299D01*
X0457748Y0354259D01*
X0457829Y0354223D01*
X0457912Y0354189D01*
X0457996Y0354160D01*
X0458081Y0354134D01*
X0458167Y0354111D01*
X0458254Y0354093D01*
X0458342Y0354078D01*
X0458430Y0354067D01*
X0458431Y0354486D01*
X0458350Y0354499D01*
X0458271Y0354515D01*
X0458192Y0354536D01*
X0458114Y0354560D01*
X0458038Y0354588D01*
X0457963Y0354619D01*
X0457890Y0354654D01*
X0457818Y0354693D01*
X0457748Y0354735D01*
X0457681Y0354780D01*
X0457616Y0354829D01*
X0457553Y0354880D01*
X0457493Y0354935D01*
X0457435Y0354993D01*
X0457380Y0355053D01*
X0457329Y0355116D01*
X0457280Y0355181D01*
X0457235Y0355248D01*
X0457193Y0355318D01*
X0457154Y0355390D01*
X0457119Y0355463D01*
X0457088Y0355538D01*
X0457060Y0355614D01*
X0457036Y0355692D01*
X0457015Y0355771D01*
X0456999Y0355850D01*
X0456986Y0355931D01*
X0457408Y0355931D01*
X0457422Y0355863D01*
X0457440Y0355795D01*
X0457462Y0355728D01*
X0457487Y0355663D01*
X0457516Y0355599D01*
X0457548Y0355537D01*
X0457584Y0355477D01*
X0457623Y0355419D01*
X0457665Y0355363D01*
X0457710Y0355309D01*
X0457758Y0355258D01*
X0457809Y0355210D01*
X0457863Y0355165D01*
X0457919Y0355123D01*
X0457977Y0355084D01*
X0458037Y0355048D01*
X0458099Y0355016D01*
X0458163Y0354987D01*
X0458228Y0354962D01*
X0458295Y0354940D01*
X0458363Y0354922D01*
X0458431Y0354908D01*
X0458432Y0355335D01*
X0458379Y0355351D01*
X0458328Y0355370D01*
X0458277Y0355393D01*
X0458228Y0355419D01*
X0458181Y0355448D01*
X0458136Y0355480D01*
X0458094Y0355515D01*
X0458053Y0355553D01*
X0458015Y0355594D01*
X0457980Y0355636D01*
X0457948Y0355681D01*
X0457919Y0355728D01*
X0457893Y0355777D01*
X0457870Y0355828D01*
X0457851Y0355879D01*
X0457835Y0355932D01*
X0458278Y0355940D01*
X0458299Y0355907D01*
X0458322Y0355876D01*
X0458348Y0355848D01*
X0458376Y0355822D01*
X0458407Y0355799D01*
X0458440Y0355778D01*
D46*
X0401742Y0351250D03*
X0401742Y0361250D03*
X0585758Y0352500D03*
X0585758Y0342500D03*
D47*
X0573381Y0315463D02*
X0585625Y0306344D01*
X0585625Y0300000D01*
X0591725Y0293900D01*
X0599075Y0293900D01*
X0577500Y0299375D02*
X0577500Y0287500D01*
X0574375Y0286250D02*
X0573125Y0287500D01*
X0560000Y0287500D01*
X0560000Y0289375D02*
X0568750Y0289375D01*
X0572500Y0286875D02*
X0572500Y0299375D01*
X0577500Y0299375D01*
X0437500Y0322500D02*
X0432500Y0317500D01*
X0432500Y0304750D01*
X0427500Y0299750D01*
X0411250Y0337500D02*
X0401250Y0337500D01*
X0492008Y0453524D02*
X0502008Y0453524D01*
D48*
X0531875Y0453391D02*
X0532008Y0453524D01*
X0525000Y0432500D02*
X0524688Y0432500D01*
X0525000Y0432500D02*
X0528750Y0428750D01*
X0528654Y0420332D01*
X0528654Y0410937D01*
X0525000Y0410937D01*
X0528654Y0410937D02*
X0528654Y0405957D01*
X0529668Y0405020D01*
X0533125Y0401875D01*
X0533125Y0397736D01*
X0535217Y0395645D01*
X0548438Y0368437D02*
X0545000Y0365000D01*
X0540000Y0365000D01*
X0536875Y0361250D01*
X0536875Y0347812D01*
X0533750Y0344688D01*
X0533750Y0328125D01*
X0528750Y0323125D01*
X0527156Y0323125D01*
X0526875Y0322219D01*
X0531250Y0303130D02*
X0530000Y0302500D01*
X0530485Y0302500D01*
X0498066Y0326875D02*
X0498066Y0331563D01*
X0522710Y0349790D02*
X0522812Y0349687D01*
X0522710Y0349790D02*
X0522710Y0353046D01*
X0526095Y0355330D02*
X0527813Y0355330D01*
X0527813Y0355312D01*
X0526129Y0362692D02*
X0526095Y0362692D01*
X0526129Y0362692D02*
X0528125Y0364687D01*
X0517631Y0363881D02*
X0517631Y0368038D01*
X0517661Y0368080D01*
X0517688Y0368124D01*
X0517712Y0368170D01*
X0517732Y0368218D01*
X0517750Y0368267D01*
X0517763Y0368316D01*
X0517773Y0368367D01*
X0517779Y0368419D01*
X0517782Y0368470D01*
X0517781Y0368522D01*
X0517776Y0368574D01*
X0517768Y0368625D01*
X0517756Y0368675D01*
X0517740Y0368724D01*
X0517721Y0368772D01*
X0517698Y0368819D01*
X0517673Y0368864D01*
X0517644Y0368907D01*
X0517612Y0368948D01*
X0517577Y0368986D01*
X0517540Y0369022D01*
X0517500Y0369055D01*
X0514245Y0362692D02*
X0510121Y0362692D01*
X0507812Y0363750D01*
X0509062Y0369062D02*
X0509062Y0369316D01*
X0540625Y0358612D02*
X0541875Y0358809D01*
X0545000Y0358809D01*
X0545059Y0358809D01*
X0548750Y0357500D02*
X0548750Y0354375D01*
X0548125Y0353750D01*
X0545684Y0353750D01*
X0545000Y0353691D01*
X0540625Y0353888D02*
X0540625Y0348750D01*
X0543676Y0345699D01*
X0544375Y0343199D01*
X0549375Y0343199D02*
X0549375Y0346250D01*
X0547500Y0348125D01*
X0551875Y0348750D02*
X0554375Y0346250D01*
X0554375Y0343199D01*
X0559434Y0343199D02*
X0559434Y0343809D01*
X0563440Y0347815D01*
X0563440Y0353679D01*
X0563440Y0358140D01*
X0558322Y0358140D02*
X0558125Y0358337D01*
X0558125Y0363125D01*
X0552813Y0368437D01*
X0548438Y0368437D01*
X0549862Y0358612D02*
X0548750Y0357500D01*
X0549862Y0358612D02*
X0551875Y0358612D01*
X0551875Y0353888D02*
X0551875Y0348750D01*
X0557813Y0348437D02*
X0557813Y0353169D01*
X0558322Y0353679D01*
X0558322Y0358140D02*
X0558322Y0359178D01*
X0590598Y0315000D02*
X0590625Y0315000D01*
X0590598Y0315000D02*
X0590313Y0314714D01*
X0471816Y0394375D02*
X0467082Y0394375D01*
X0467082Y0391708D01*
X0461964Y0391708D02*
X0461875Y0391708D01*
X0449375Y0391708D02*
X0449168Y0391708D01*
X0449168Y0389375D01*
X0452812Y0378125D02*
X0455000Y0377279D01*
X0443125Y0378125D02*
X0443125Y0369375D01*
X0421875Y0370625D02*
X0421078Y0369375D01*
X0455000Y0330305D02*
X0455000Y0326250D01*
X0455002Y0326203D01*
X0455007Y0326156D01*
X0455016Y0326109D01*
X0455028Y0326064D01*
X0455044Y0326019D01*
X0455063Y0325976D01*
X0455085Y0325934D01*
X0455110Y0325894D01*
X0455138Y0325856D01*
X0455169Y0325820D01*
X0455202Y0325787D01*
X0455238Y0325756D01*
X0455276Y0325728D01*
X0455316Y0325703D01*
X0455358Y0325681D01*
X0455401Y0325662D01*
X0455446Y0325646D01*
X0455491Y0325634D01*
X0455538Y0325625D01*
X0455585Y0325620D01*
X0455632Y0325618D01*
X0462500Y0325618D01*
X0455945Y0331250D02*
X0455886Y0331248D01*
X0455827Y0331243D01*
X0455768Y0331233D01*
X0455710Y0331220D01*
X0455653Y0331204D01*
X0455597Y0331184D01*
X0455543Y0331160D01*
X0455490Y0331133D01*
X0455439Y0331103D01*
X0455390Y0331070D01*
X0455343Y0331033D01*
X0455298Y0330994D01*
X0455256Y0330952D01*
X0455217Y0330907D01*
X0455180Y0330860D01*
X0455147Y0330811D01*
X0455117Y0330760D01*
X0455090Y0330707D01*
X0455066Y0330653D01*
X0455046Y0330597D01*
X0455030Y0330540D01*
X0455017Y0330482D01*
X0455007Y0330423D01*
X0455002Y0330364D01*
X0455000Y0330305D01*
X0440000Y0324375D02*
X0440000Y0319375D01*
X0435000Y0319375D01*
X0435000Y0321875D01*
X0437500Y0324375D01*
X0440000Y0324375D01*
X0440000Y0323512D02*
X0436637Y0323512D01*
X0435439Y0322314D02*
X0440000Y0322314D01*
X0440000Y0321115D02*
X0435000Y0321115D01*
X0435000Y0319917D02*
X0440000Y0319917D01*
X0439462Y0411424D02*
X0425712Y0411424D01*
X0407812Y0427178D02*
X0407812Y0427500D01*
X0407812Y0427812D01*
X0448750Y0421875D02*
X0451029Y0421875D01*
X0451727Y0418125D02*
X0453125Y0418125D01*
X0455625Y0418125D01*
X0456875Y0416875D01*
X0456875Y0414572D01*
X0456845Y0414542D01*
X0454286Y0414542D02*
X0454286Y0416786D01*
X0454375Y0416875D01*
X0453125Y0418125D01*
X0464122Y0422753D02*
X0464375Y0422500D01*
X0464523Y0422276D02*
X0464523Y0414542D01*
X0464523Y0422276D02*
X0465000Y0422753D01*
X0468437Y0427812D02*
X0469375Y0427872D01*
D49*
X0381369Y0262284D02*
X0382087Y0260075D01*
X0383452Y0258196D01*
X0385331Y0256831D01*
X0387540Y0256113D01*
X0388701Y0256022D01*
X0598937Y0256022D01*
X0600098Y0256113D01*
X0602307Y0256831D01*
X0604186Y0258196D01*
X0605551Y0260075D01*
X0606268Y0262284D01*
X0606360Y0263445D01*
X0606360Y0289802D01*
X0605758Y0289201D01*
X0603721Y0288357D01*
X0598242Y0288357D01*
X0599705Y0286894D01*
X0600550Y0284854D01*
X0600550Y0282646D01*
X0599705Y0280606D01*
X0598144Y0279045D01*
X0596391Y0278319D01*
X0598113Y0277606D01*
X0600006Y0275713D01*
X0601031Y0273239D01*
X0601031Y0270561D01*
X0600006Y0268087D01*
X0598113Y0266194D01*
X0595639Y0265169D01*
X0592961Y0265169D01*
X0590487Y0266194D01*
X0588594Y0268087D01*
X0587569Y0270561D01*
X0587569Y0273239D01*
X0588594Y0275713D01*
X0590487Y0277606D01*
X0592909Y0278609D01*
X0591856Y0279045D01*
X0590295Y0280606D01*
X0589450Y0282646D01*
X0589450Y0284854D01*
X0590295Y0286894D01*
X0591856Y0288455D01*
X0593024Y0288939D01*
X0592392Y0289201D01*
X0591992Y0289600D01*
X0590870Y0289600D01*
X0589289Y0290255D01*
X0583189Y0296355D01*
X0581980Y0297564D01*
X0581800Y0297998D01*
X0581800Y0293731D01*
X0582862Y0292669D01*
X0582862Y0286674D01*
X0584242Y0286201D01*
X0585256Y0285306D01*
X0585851Y0284092D01*
X0585936Y0282742D01*
X0585497Y0281462D01*
X0584602Y0280448D01*
X0583387Y0279853D01*
X0582682Y0279809D01*
X0581690Y0278817D01*
X0565073Y0278817D01*
X0563901Y0279989D01*
X0563901Y0283200D01*
X0560274Y0283200D01*
X0560183Y0283109D01*
X0558558Y0283109D01*
X0559436Y0282232D01*
X0559951Y0280987D01*
X0559951Y0279638D01*
X0559436Y0278393D01*
X0558482Y0277439D01*
X0557237Y0276924D01*
X0555888Y0276924D01*
X0554643Y0277439D01*
X0553689Y0278393D01*
X0553174Y0279638D01*
X0553174Y0280987D01*
X0553689Y0282232D01*
X0554567Y0283109D01*
X0552227Y0283109D01*
X0551055Y0284281D01*
X0551055Y0293494D01*
X0550331Y0292769D01*
X0550331Y0284281D01*
X0549159Y0283109D01*
X0541203Y0283109D01*
X0540032Y0284281D01*
X0540032Y0286547D01*
X0539193Y0286200D01*
X0537682Y0286200D01*
X0536285Y0286779D01*
X0536028Y0287035D01*
X0536028Y0286908D01*
X0534856Y0285736D01*
X0530551Y0285736D01*
X0530576Y0285674D01*
X0530576Y0284326D01*
X0530061Y0283080D01*
X0529168Y0282187D01*
X0530061Y0281295D01*
X0530576Y0280049D01*
X0530576Y0278701D01*
X0530061Y0277455D01*
X0529107Y0276502D01*
X0527862Y0275986D01*
X0526513Y0275986D01*
X0525268Y0276502D01*
X0525008Y0276762D01*
X0525008Y0268451D01*
X0525237Y0268356D01*
X0526840Y0266752D01*
X0527008Y0266347D01*
X0527176Y0266752D01*
X0528779Y0268356D01*
X0530874Y0269224D01*
X0533142Y0269224D01*
X0535237Y0268356D01*
X0536840Y0266752D01*
X0537008Y0266347D01*
X0537176Y0266752D01*
X0538779Y0268356D01*
X0540874Y0269224D01*
X0543142Y0269224D01*
X0545237Y0268356D01*
X0546840Y0266752D01*
X0547008Y0266347D01*
X0547176Y0266752D01*
X0548779Y0268356D01*
X0550874Y0269224D01*
X0553142Y0269224D01*
X0555237Y0268356D01*
X0556840Y0266752D01*
X0557008Y0266347D01*
X0557176Y0266752D01*
X0558779Y0268356D01*
X0560874Y0269224D01*
X0563142Y0269224D01*
X0565237Y0268356D01*
X0566840Y0266752D01*
X0567008Y0266347D01*
X0567176Y0266752D01*
X0568779Y0268356D01*
X0570874Y0269224D01*
X0573142Y0269224D01*
X0575237Y0268356D01*
X0576840Y0266752D01*
X0577008Y0266347D01*
X0577176Y0266752D01*
X0578779Y0268356D01*
X0580874Y0269224D01*
X0583142Y0269224D01*
X0585237Y0268356D01*
X0586840Y0266752D01*
X0587708Y0264657D01*
X0587708Y0262390D01*
X0586840Y0260295D01*
X0585237Y0258691D01*
X0583142Y0257824D01*
X0580874Y0257824D01*
X0578779Y0258691D01*
X0577176Y0260295D01*
X0577008Y0260700D01*
X0576840Y0260295D01*
X0575237Y0258691D01*
X0573142Y0257824D01*
X0570874Y0257824D01*
X0568779Y0258691D01*
X0567176Y0260295D01*
X0567008Y0260700D01*
X0566840Y0260295D01*
X0565237Y0258691D01*
X0563142Y0257824D01*
X0560874Y0257824D01*
X0558779Y0258691D01*
X0557176Y0260295D01*
X0557008Y0260700D01*
X0556840Y0260295D01*
X0555237Y0258691D01*
X0553142Y0257824D01*
X0550874Y0257824D01*
X0548779Y0258691D01*
X0547176Y0260295D01*
X0547008Y0260700D01*
X0546840Y0260295D01*
X0545237Y0258691D01*
X0543142Y0257824D01*
X0540874Y0257824D01*
X0538779Y0258691D01*
X0537176Y0260295D01*
X0537008Y0260700D01*
X0536840Y0260295D01*
X0535237Y0258691D01*
X0533142Y0257824D01*
X0530874Y0257824D01*
X0528779Y0258691D01*
X0527176Y0260295D01*
X0527008Y0260700D01*
X0526840Y0260295D01*
X0525237Y0258691D01*
X0523142Y0257824D01*
X0520874Y0257824D01*
X0518779Y0258691D01*
X0517176Y0260295D01*
X0517008Y0260700D01*
X0516840Y0260295D01*
X0515237Y0258691D01*
X0513142Y0257824D01*
X0510874Y0257824D01*
X0508779Y0258691D01*
X0507176Y0260295D01*
X0506564Y0261771D01*
X0505670Y0260877D01*
X0504424Y0260361D01*
X0503076Y0260361D01*
X0501830Y0260877D01*
X0501301Y0261407D01*
X0500840Y0260295D01*
X0499237Y0258691D01*
X0497142Y0257824D01*
X0494874Y0257824D01*
X0492779Y0258691D01*
X0491176Y0260295D01*
X0491008Y0260700D01*
X0490840Y0260295D01*
X0489237Y0258691D01*
X0487142Y0257824D01*
X0484874Y0257824D01*
X0482779Y0258691D01*
X0481176Y0260295D01*
X0481008Y0260700D01*
X0480840Y0260295D01*
X0479237Y0258691D01*
X0477142Y0257824D01*
X0474874Y0257824D01*
X0472779Y0258691D01*
X0471176Y0260295D01*
X0471008Y0260700D01*
X0470840Y0260295D01*
X0469237Y0258691D01*
X0467142Y0257824D01*
X0464874Y0257824D01*
X0462779Y0258691D01*
X0461176Y0260295D01*
X0461008Y0260700D01*
X0460840Y0260295D01*
X0459237Y0258691D01*
X0457142Y0257824D01*
X0454874Y0257824D01*
X0452779Y0258691D01*
X0451176Y0260295D01*
X0451008Y0260700D01*
X0450840Y0260295D01*
X0449237Y0258691D01*
X0447142Y0257824D01*
X0444874Y0257824D01*
X0442779Y0258691D01*
X0441191Y0260280D01*
X0440661Y0259550D01*
X0439982Y0258871D01*
X0439205Y0258306D01*
X0438349Y0257871D01*
X0437436Y0257574D01*
X0436488Y0257424D01*
X0436008Y0257424D01*
X0436008Y0263523D01*
X0436008Y0263523D01*
X0436008Y0257424D01*
X0435528Y0257424D01*
X0434579Y0257574D01*
X0433666Y0257871D01*
X0432811Y0258306D01*
X0432034Y0258871D01*
X0431355Y0259550D01*
X0430825Y0260280D01*
X0429237Y0258691D01*
X0427142Y0257824D01*
X0424874Y0257824D01*
X0422779Y0258691D01*
X0421176Y0260295D01*
X0421008Y0260700D01*
X0420840Y0260295D01*
X0419237Y0258691D01*
X0417142Y0257824D01*
X0414874Y0257824D01*
X0412779Y0258691D01*
X0411176Y0260295D01*
X0411008Y0260700D01*
X0410840Y0260295D01*
X0409237Y0258691D01*
X0407142Y0257824D01*
X0404874Y0257824D01*
X0402779Y0258691D01*
X0401176Y0260295D01*
X0400308Y0262390D01*
X0400308Y0264657D01*
X0401176Y0266752D01*
X0402779Y0268356D01*
X0404874Y0269224D01*
X0407142Y0269224D01*
X0409237Y0268356D01*
X0410840Y0266752D01*
X0411008Y0266347D01*
X0411176Y0266752D01*
X0412779Y0268356D01*
X0414874Y0269224D01*
X0417142Y0269224D01*
X0419237Y0268356D01*
X0420840Y0266752D01*
X0421008Y0266347D01*
X0421176Y0266752D01*
X0422779Y0268356D01*
X0424874Y0269224D01*
X0427142Y0269224D01*
X0429237Y0268356D01*
X0430825Y0266768D01*
X0431355Y0267498D01*
X0432034Y0268176D01*
X0432811Y0268741D01*
X0433666Y0269177D01*
X0434579Y0269473D01*
X0435528Y0269624D01*
X0436008Y0269624D01*
X0436008Y0263524D01*
X0436008Y0263524D01*
X0436008Y0269624D01*
X0436488Y0269624D01*
X0437436Y0269473D01*
X0438349Y0269177D01*
X0439205Y0268741D01*
X0439982Y0268176D01*
X0440661Y0267498D01*
X0441191Y0266768D01*
X0442779Y0268356D01*
X0444874Y0269224D01*
X0447142Y0269224D01*
X0449237Y0268356D01*
X0450840Y0266752D01*
X0451008Y0266347D01*
X0451176Y0266752D01*
X0452590Y0268167D01*
X0442051Y0278707D01*
X0441207Y0279551D01*
X0440750Y0280653D01*
X0440750Y0284667D01*
X0440305Y0284578D01*
X0438691Y0284578D01*
X0438691Y0288750D01*
X0437691Y0287750D01*
X0427500Y0287750D01*
X0433050Y0287750D01*
X0433050Y0290286D01*
X0432958Y0290750D01*
X0432777Y0291187D01*
X0432650Y0291377D01*
X0432650Y0298819D01*
X0434936Y0301105D01*
X0436145Y0302314D01*
X0436714Y0303688D01*
X0436714Y0300000D01*
X0440000Y0300000D01*
X0440000Y0293368D01*
X0441122Y0293368D01*
X0441586Y0293460D01*
X0442023Y0293641D01*
X0442059Y0293665D01*
X0442059Y0292522D01*
X0441603Y0292522D01*
X0441520Y0292439D01*
X0441206Y0292648D01*
X0440769Y0292829D01*
X0440305Y0292922D01*
X0438691Y0292922D01*
X0438691Y0288750D01*
X0438750Y0288809D01*
X0438750Y0291250D01*
X0439941Y0292441D01*
X0439941Y0300000D01*
X0440000Y0300000D02*
X0436714Y0300000D01*
X0436714Y0295531D01*
X0436806Y0295068D01*
X0436987Y0294631D01*
X0437250Y0294238D01*
X0437584Y0293904D01*
X0437977Y0293641D01*
X0438414Y0293460D01*
X0438878Y0293368D01*
X0440000Y0293368D01*
X0440000Y0300000D01*
X0440000Y0300000D01*
X0440000Y0300000D01*
X0440000Y0299621D02*
X0440000Y0299621D01*
X0440000Y0297223D02*
X0440000Y0297223D01*
X0440000Y0294824D02*
X0440000Y0294824D01*
X0438691Y0292922D02*
X0437077Y0292922D01*
X0436613Y0292829D01*
X0436176Y0292648D01*
X0435783Y0292386D01*
X0435449Y0292052D01*
X0435186Y0291658D01*
X0435005Y0291222D01*
X0434913Y0290758D01*
X0434913Y0288750D01*
X0438691Y0288750D01*
X0438691Y0288750D01*
X0438691Y0288750D01*
X0438691Y0284578D01*
X0437077Y0284578D01*
X0436613Y0284671D01*
X0436176Y0284851D01*
X0435783Y0285114D01*
X0435449Y0285448D01*
X0435186Y0285842D01*
X0435005Y0286278D01*
X0434913Y0286742D01*
X0434913Y0288750D01*
X0438691Y0288750D01*
X0438691Y0292922D01*
X0438691Y0292426D02*
X0438691Y0292426D01*
X0438691Y0290027D02*
X0438691Y0290027D01*
X0438691Y0288750D02*
X0438691Y0288750D01*
X0438691Y0287629D02*
X0438691Y0287629D01*
X0438691Y0285230D02*
X0438691Y0285230D01*
X0435667Y0285230D02*
X0433050Y0285230D01*
X0433050Y0285214D02*
X0433050Y0287750D01*
X0427500Y0287750D01*
X0427500Y0287750D01*
X0427500Y0283050D01*
X0430886Y0283050D01*
X0431350Y0283142D01*
X0431787Y0283323D01*
X0432180Y0283586D01*
X0432514Y0283920D01*
X0432777Y0284313D01*
X0432958Y0284750D01*
X0433050Y0285214D01*
X0433050Y0287629D02*
X0434913Y0287629D01*
X0434913Y0290027D02*
X0433050Y0290027D01*
X0432650Y0292426D02*
X0435843Y0292426D01*
X0436907Y0294824D02*
X0432650Y0294824D01*
X0432650Y0297223D02*
X0436714Y0297223D01*
X0436714Y0299621D02*
X0433452Y0299621D01*
X0435851Y0302020D02*
X0436714Y0302020D01*
X0436800Y0304900D02*
X0436800Y0315719D01*
X0437817Y0316736D01*
X0438286Y0316268D01*
X0439391Y0316268D01*
X0439391Y0312450D01*
X0446300Y0312450D01*
X0446300Y0315903D01*
X0446586Y0315960D01*
X0447023Y0316141D01*
X0447416Y0316404D01*
X0447750Y0316738D01*
X0447776Y0316777D01*
X0448286Y0316268D01*
X0448700Y0316268D01*
X0448700Y0312450D01*
X0455609Y0312450D01*
X0455609Y0316268D01*
X0456714Y0316268D01*
X0457886Y0317439D01*
X0457886Y0323218D01*
X0458374Y0323218D01*
X0458374Y0322722D01*
X0459329Y0321768D01*
X0459329Y0311593D01*
X0460500Y0310421D01*
X0466947Y0310421D01*
X0466830Y0310373D01*
X0465877Y0309420D01*
X0465361Y0308174D01*
X0465361Y0306826D01*
X0465877Y0305580D01*
X0466830Y0304627D01*
X0467450Y0304370D01*
X0467450Y0298759D01*
X0473571Y0298759D01*
X0473571Y0302815D01*
X0473479Y0303279D01*
X0473298Y0303716D01*
X0473035Y0304109D01*
X0472701Y0304443D01*
X0472308Y0304706D01*
X0471871Y0304887D01*
X0471408Y0304979D01*
X0471021Y0304979D01*
X0471623Y0305580D01*
X0472139Y0306826D01*
X0472139Y0308174D01*
X0471623Y0309420D01*
X0470670Y0310373D01*
X0470553Y0310421D01*
X0472000Y0310421D01*
X0473171Y0311593D01*
X0473171Y0323289D01*
X0472547Y0323913D01*
X0473279Y0323913D01*
X0474451Y0325084D01*
X0474451Y0332350D01*
X0474725Y0332350D01*
X0474725Y0308699D01*
X0475243Y0307449D01*
X0476199Y0306493D01*
X0477449Y0305975D01*
X0478801Y0305975D01*
X0480051Y0306493D01*
X0481007Y0307449D01*
X0481525Y0308699D01*
X0481525Y0332801D01*
X0482246Y0333522D01*
X0482246Y0333883D01*
X0483069Y0333060D01*
X0483049Y0333041D01*
X0483049Y0325084D01*
X0484221Y0323913D01*
X0489815Y0323913D01*
X0490986Y0325084D01*
X0490986Y0333041D01*
X0490418Y0333609D01*
X0490418Y0334596D01*
X0490371Y0334708D01*
X0491316Y0334317D01*
X0494842Y0334317D01*
X0494688Y0334163D01*
X0494688Y0324275D01*
X0495066Y0323897D01*
X0495066Y0323780D01*
X0494225Y0322940D01*
X0494225Y0317346D01*
X0495397Y0316174D01*
X0502894Y0316174D01*
X0502894Y0312139D01*
X0501826Y0312139D01*
X0500887Y0311750D01*
X0495930Y0311750D01*
X0488262Y0319418D01*
X0487873Y0320357D01*
X0486920Y0321311D01*
X0485674Y0321826D01*
X0484326Y0321826D01*
X0483080Y0321311D01*
X0482127Y0320357D01*
X0481611Y0319112D01*
X0481611Y0317763D01*
X0482127Y0316518D01*
X0483080Y0315564D01*
X0484019Y0315176D01*
X0492988Y0306207D01*
X0494091Y0305750D01*
X0494225Y0305750D01*
X0494225Y0304317D01*
X0493795Y0304748D01*
X0492549Y0305264D01*
X0491201Y0305264D01*
X0489955Y0304748D01*
X0489002Y0303795D01*
X0488486Y0302549D01*
X0488486Y0301201D01*
X0488875Y0300262D01*
X0488875Y0273118D01*
X0484981Y0269224D01*
X0484874Y0269224D01*
X0482779Y0268356D01*
X0481176Y0266752D01*
X0481008Y0266347D01*
X0480840Y0266752D01*
X0479237Y0268356D01*
X0477142Y0269224D01*
X0474874Y0269224D01*
X0472779Y0268356D01*
X0471176Y0266752D01*
X0471008Y0266347D01*
X0470840Y0266752D01*
X0469237Y0268356D01*
X0467142Y0269224D01*
X0464874Y0269224D01*
X0464227Y0268955D01*
X0464639Y0269951D01*
X0464639Y0271299D01*
X0464123Y0272545D01*
X0463170Y0273498D01*
X0461924Y0274014D01*
X0460576Y0274014D01*
X0459637Y0273625D01*
X0455618Y0273625D01*
X0446750Y0282493D01*
X0446750Y0285713D01*
X0447187Y0286150D01*
X0447187Y0287885D01*
X0447188Y0287886D01*
X0447188Y0286150D01*
X0447544Y0285794D01*
X0447236Y0285049D01*
X0447236Y0283701D01*
X0447752Y0282455D01*
X0448705Y0281502D01*
X0449951Y0280986D01*
X0451299Y0280986D01*
X0452545Y0281502D01*
X0453498Y0282455D01*
X0454014Y0283701D01*
X0454014Y0284589D01*
X0454070Y0284578D01*
X0455684Y0284578D01*
X0455684Y0288750D01*
X0455684Y0286816D01*
X0458750Y0283750D01*
X0465000Y0283750D01*
X0467500Y0286250D01*
X0467500Y0288691D01*
X0467559Y0288750D01*
X0467559Y0296250D01*
X0467450Y0296359D02*
X0467450Y0298759D01*
X0465050Y0298759D01*
X0465050Y0296359D01*
X0458929Y0296359D01*
X0458929Y0295373D01*
X0457886Y0296416D01*
X0457886Y0305061D01*
X0456714Y0306232D01*
X0455609Y0306232D01*
X0455609Y0310050D01*
X0448700Y0310050D01*
X0448700Y0312450D01*
X0446300Y0312450D01*
X0446300Y0310050D01*
X0448700Y0310050D01*
X0448700Y0306232D01*
X0448286Y0306232D01*
X0447500Y0305447D01*
X0446714Y0306232D01*
X0446300Y0306232D01*
X0446300Y0310050D01*
X0439391Y0310050D01*
X0439391Y0306632D01*
X0438878Y0306632D01*
X0438414Y0306540D01*
X0437977Y0306359D01*
X0437584Y0306096D01*
X0437250Y0305762D01*
X0436987Y0305369D01*
X0436806Y0304932D01*
X0436800Y0304900D01*
X0436800Y0306817D02*
X0439391Y0306817D01*
X0439391Y0309215D02*
X0436800Y0309215D01*
X0436800Y0311614D02*
X0446300Y0311614D01*
X0446300Y0314012D02*
X0448700Y0314012D01*
X0448700Y0311614D02*
X0459329Y0311614D01*
X0459329Y0314012D02*
X0455609Y0314012D01*
X0456857Y0316411D02*
X0459329Y0316411D01*
X0459329Y0318809D02*
X0457886Y0318809D01*
X0457886Y0321208D02*
X0459329Y0321208D01*
X0462500Y0332508D02*
X0462500Y0336974D01*
X0460412Y0336974D01*
X0460412Y0337500D01*
X0460412Y0339862D01*
X0460320Y0340326D01*
X0460139Y0340763D01*
X0459876Y0341156D01*
X0459542Y0341490D01*
X0459149Y0341753D01*
X0458712Y0341934D01*
X0458248Y0342026D01*
X0455945Y0342026D01*
X0455945Y0337500D01*
X0460412Y0337500D01*
X0455945Y0337500D01*
X0455945Y0337500D01*
X0455945Y0337500D01*
X0455945Y0342026D01*
X0453642Y0342026D01*
X0453178Y0341934D01*
X0452741Y0341753D01*
X0452348Y0341490D01*
X0452217Y0341359D01*
X0451950Y0341626D01*
X0446160Y0341626D01*
X0444988Y0340454D01*
X0444988Y0338350D01*
X0436585Y0338350D01*
X0434894Y0337650D01*
X0433600Y0336356D01*
X0417350Y0320106D01*
X0416650Y0318415D01*
X0416650Y0311905D01*
X0413095Y0308350D01*
X0395533Y0308350D01*
X0395433Y0308449D01*
X0393396Y0309293D01*
X0384104Y0309293D01*
X0382067Y0308449D01*
X0381278Y0307661D01*
X0381278Y0369314D01*
X0382420Y0368172D01*
X0388700Y0368172D01*
X0388700Y0365807D01*
X0389279Y0364410D01*
X0394230Y0359458D01*
X0394230Y0357863D01*
X0395402Y0356691D01*
X0408082Y0356691D01*
X0408387Y0356996D01*
X0408387Y0355504D01*
X0408082Y0355809D01*
X0395402Y0355809D01*
X0394230Y0354637D01*
X0394230Y0347863D01*
X0395402Y0346691D01*
X0400125Y0346691D01*
X0400125Y0346278D01*
X0400582Y0345176D01*
X0403082Y0342676D01*
X0403257Y0342500D01*
X0399179Y0342500D01*
X0396250Y0339571D01*
X0396250Y0335429D01*
X0398896Y0332783D01*
X0395850Y0329737D01*
X0395850Y0327500D01*
X0401250Y0327500D01*
X0411250Y0327500D01*
X0416650Y0327500D01*
X0416650Y0329737D01*
X0413604Y0332783D01*
X0414521Y0333700D01*
X0415131Y0333700D01*
X0416528Y0334279D01*
X0419340Y0337091D01*
X0420409Y0338160D01*
X0420987Y0339557D01*
X0420987Y0347943D01*
X0420409Y0349340D01*
X0417138Y0352611D01*
X0425449Y0352611D01*
X0426621Y0353783D01*
X0426621Y0383747D01*
X0427512Y0384637D01*
X0437582Y0384637D01*
X0437582Y0353783D01*
X0438753Y0352611D01*
X0444069Y0352611D01*
X0443377Y0351920D01*
X0442861Y0350674D01*
X0442861Y0349326D01*
X0443377Y0348080D01*
X0444330Y0347127D01*
X0445576Y0346611D01*
X0446924Y0346611D01*
X0448170Y0347127D01*
X0449123Y0348080D01*
X0449639Y0349326D01*
X0449639Y0350674D01*
X0449123Y0351920D01*
X0448170Y0352873D01*
X0447879Y0352993D01*
X0448668Y0353783D01*
X0448668Y0354150D01*
X0452129Y0354150D01*
X0452353Y0353169D01*
X0454323Y0350699D01*
X0454323Y0350699D01*
X0456650Y0349578D01*
X0456650Y0345380D01*
X0457880Y0344150D01*
X0459620Y0344150D01*
X0460850Y0345380D01*
X0460850Y0349578D01*
X0463177Y0350699D01*
X0465147Y0353169D01*
X0465147Y0353169D01*
X0465371Y0354150D01*
X0469620Y0354150D01*
X0470850Y0355380D01*
X0470850Y0357120D01*
X0469620Y0358350D01*
X0465371Y0358350D01*
X0465147Y0359331D01*
X0463177Y0361801D01*
X0463177Y0361801D01*
X0460850Y0362922D01*
X0460850Y0363006D01*
X0461201Y0362861D01*
X0462549Y0362861D01*
X0463795Y0363377D01*
X0464748Y0364330D01*
X0465264Y0365576D01*
X0465264Y0366924D01*
X0464748Y0368170D01*
X0463818Y0369100D01*
X0469739Y0369100D01*
X0470988Y0369618D01*
X0471945Y0370574D01*
X0471945Y0370574D01*
X0476770Y0375399D01*
X0477726Y0376355D01*
X0477726Y0376355D01*
X0479738Y0378368D01*
X0480695Y0379324D01*
X0481212Y0380574D01*
X0481212Y0424412D01*
X0485779Y0424412D01*
X0489637Y0420555D01*
X0490886Y0420037D01*
X0502239Y0420037D01*
X0503488Y0420555D01*
X0504445Y0421512D01*
X0504962Y0422761D01*
X0504962Y0424114D01*
X0504445Y0425363D01*
X0503488Y0426320D01*
X0502239Y0426837D01*
X0492971Y0426837D01*
X0489113Y0430695D01*
X0487864Y0431212D01*
X0472012Y0431212D01*
X0471975Y0431249D01*
X0468400Y0431249D01*
X0468400Y0432239D01*
X0467882Y0433488D01*
X0466926Y0434445D01*
X0465676Y0434962D01*
X0464324Y0434962D01*
X0463074Y0434445D01*
X0462118Y0433488D01*
X0461975Y0433144D01*
X0461975Y0440798D01*
X0465452Y0444275D01*
X0487692Y0444275D01*
X0487236Y0443174D01*
X0487236Y0441826D01*
X0487752Y0440580D01*
X0488020Y0440312D01*
X0487752Y0440045D01*
X0487236Y0438799D01*
X0487236Y0437451D01*
X0487752Y0436205D01*
X0488705Y0435252D01*
X0489951Y0434736D01*
X0491299Y0434736D01*
X0492545Y0435252D01*
X0492656Y0435364D01*
X0492768Y0435252D01*
X0494013Y0434736D01*
X0495362Y0434736D01*
X0496607Y0435252D01*
X0497561Y0436205D01*
X0498076Y0437451D01*
X0498076Y0438799D01*
X0497561Y0440045D01*
X0497293Y0440312D01*
X0497561Y0440580D01*
X0498076Y0441826D01*
X0498076Y0443174D01*
X0497620Y0444275D01*
X0526142Y0444275D01*
X0527098Y0444671D01*
X0530433Y0448006D01*
X0530874Y0447824D01*
X0533142Y0447824D01*
X0535237Y0448691D01*
X0536840Y0450295D01*
X0537008Y0450700D01*
X0537176Y0450295D01*
X0538779Y0448691D01*
X0540874Y0447824D01*
X0543142Y0447824D01*
X0545237Y0448691D01*
X0546840Y0450295D01*
X0547008Y0450700D01*
X0547176Y0450295D01*
X0548779Y0448691D01*
X0550874Y0447824D01*
X0553142Y0447824D01*
X0555237Y0448691D01*
X0556840Y0450295D01*
X0557008Y0450700D01*
X0557176Y0450295D01*
X0558779Y0448691D01*
X0560874Y0447824D01*
X0563142Y0447824D01*
X0565237Y0448691D01*
X0566840Y0450295D01*
X0567008Y0450700D01*
X0567176Y0450295D01*
X0568779Y0448691D01*
X0570874Y0447824D01*
X0573142Y0447824D01*
X0575237Y0448691D01*
X0576840Y0450295D01*
X0577008Y0450700D01*
X0577176Y0450295D01*
X0578779Y0448691D01*
X0580874Y0447824D01*
X0583142Y0447824D01*
X0585237Y0448691D01*
X0586840Y0450295D01*
X0587708Y0452390D01*
X0587708Y0454657D01*
X0586840Y0456752D01*
X0585237Y0458356D01*
X0583142Y0459224D01*
X0580874Y0459224D01*
X0578779Y0458356D01*
X0577176Y0456752D01*
X0577008Y0456347D01*
X0576840Y0456752D01*
X0575237Y0458356D01*
X0573142Y0459224D01*
X0570874Y0459224D01*
X0568779Y0458356D01*
X0567176Y0456752D01*
X0567008Y0456347D01*
X0566840Y0456752D01*
X0565237Y0458356D01*
X0563142Y0459224D01*
X0560874Y0459224D01*
X0558779Y0458356D01*
X0557176Y0456752D01*
X0557008Y0456347D01*
X0556840Y0456752D01*
X0555237Y0458356D01*
X0553142Y0459224D01*
X0550874Y0459224D01*
X0548779Y0458356D01*
X0547176Y0456752D01*
X0547008Y0456347D01*
X0546840Y0456752D01*
X0545237Y0458356D01*
X0543142Y0459224D01*
X0540874Y0459224D01*
X0538779Y0458356D01*
X0537176Y0456752D01*
X0537008Y0456347D01*
X0536840Y0456752D01*
X0535237Y0458356D01*
X0533142Y0459224D01*
X0530874Y0459224D01*
X0528779Y0458356D01*
X0527176Y0456752D01*
X0526308Y0454657D01*
X0526308Y0452390D01*
X0526646Y0451573D01*
X0524548Y0449475D01*
X0516020Y0449475D01*
X0516840Y0450295D01*
X0517708Y0452390D01*
X0517708Y0454657D01*
X0516840Y0456752D01*
X0515237Y0458356D01*
X0513142Y0459224D01*
X0510874Y0459224D01*
X0508779Y0458356D01*
X0507191Y0456768D01*
X0506661Y0457498D01*
X0505982Y0458176D01*
X0505205Y0458741D01*
X0504349Y0459177D01*
X0503436Y0459473D01*
X0502488Y0459624D01*
X0502008Y0459624D01*
X0502008Y0453524D01*
X0502008Y0453524D01*
X0502008Y0459624D01*
X0501528Y0459624D01*
X0500579Y0459473D01*
X0499666Y0459177D01*
X0498811Y0458741D01*
X0498034Y0458176D01*
X0497355Y0457498D01*
X0497008Y0457020D01*
X0496661Y0457498D01*
X0495982Y0458176D01*
X0495205Y0458741D01*
X0494349Y0459177D01*
X0493436Y0459473D01*
X0492488Y0459624D01*
X0492008Y0459624D01*
X0492008Y0453524D01*
X0492008Y0453524D01*
X0492008Y0459624D01*
X0491528Y0459624D01*
X0490579Y0459473D01*
X0489666Y0459177D01*
X0488811Y0458741D01*
X0488034Y0458176D01*
X0487355Y0457498D01*
X0486825Y0456768D01*
X0485237Y0458356D01*
X0483142Y0459224D01*
X0480874Y0459224D01*
X0478779Y0458356D01*
X0477176Y0456752D01*
X0477008Y0456347D01*
X0476840Y0456752D01*
X0475237Y0458356D01*
X0473142Y0459224D01*
X0470874Y0459224D01*
X0468779Y0458356D01*
X0467176Y0456752D01*
X0467008Y0456347D01*
X0466840Y0456752D01*
X0465237Y0458356D01*
X0463142Y0459224D01*
X0460874Y0459224D01*
X0458779Y0458356D01*
X0457176Y0456752D01*
X0457008Y0456347D01*
X0456840Y0456752D01*
X0455237Y0458356D01*
X0453142Y0459224D01*
X0450874Y0459224D01*
X0448779Y0458356D01*
X0447176Y0456752D01*
X0447008Y0456347D01*
X0446840Y0456752D01*
X0445237Y0458356D01*
X0443142Y0459224D01*
X0440874Y0459224D01*
X0438779Y0458356D01*
X0437176Y0456752D01*
X0436308Y0454657D01*
X0436308Y0452390D01*
X0437176Y0450295D01*
X0438779Y0448691D01*
X0440874Y0447824D01*
X0443142Y0447824D01*
X0445237Y0448691D01*
X0446840Y0450295D01*
X0447008Y0450700D01*
X0447176Y0450295D01*
X0448779Y0448691D01*
X0450874Y0447824D01*
X0453142Y0447824D01*
X0455237Y0448691D01*
X0456840Y0450295D01*
X0457008Y0450700D01*
X0457176Y0450295D01*
X0458779Y0448691D01*
X0460874Y0447824D01*
X0461647Y0447824D01*
X0457171Y0443348D01*
X0456775Y0442392D01*
X0456775Y0426983D01*
X0457081Y0426243D01*
X0455320Y0426243D01*
X0454856Y0426151D01*
X0454419Y0425970D01*
X0454105Y0425761D01*
X0454022Y0425843D01*
X0448035Y0425843D01*
X0447866Y0425675D01*
X0444869Y0425675D01*
X0443472Y0425096D01*
X0442901Y0424525D01*
X0437971Y0424525D01*
X0436799Y0423353D01*
X0436799Y0415983D01*
X0434302Y0415983D01*
X0433131Y0414812D01*
X0433131Y0413824D01*
X0432042Y0413824D01*
X0432042Y0414812D01*
X0430871Y0415983D01*
X0430179Y0415983D01*
X0430590Y0416154D01*
X0434340Y0419904D01*
X0435409Y0420972D01*
X0435987Y0422369D01*
X0435987Y0423595D01*
X0436737Y0424344D01*
X0436737Y0431906D01*
X0435565Y0433078D01*
X0428790Y0433078D01*
X0428437Y0432725D01*
X0428085Y0433078D01*
X0421310Y0433078D01*
X0420957Y0432725D01*
X0402210Y0432725D01*
X0400519Y0432025D01*
X0399225Y0430731D01*
X0395595Y0427100D01*
X0395533Y0427100D01*
X0395433Y0427199D01*
X0393396Y0428043D01*
X0384104Y0428043D01*
X0382067Y0427199D01*
X0381278Y0426411D01*
X0381278Y0453602D01*
X0381369Y0454764D01*
X0382087Y0456972D01*
X0383452Y0458851D01*
X0385331Y0460216D01*
X0387540Y0460934D01*
X0388701Y0461025D01*
X0598937Y0461025D01*
X0600098Y0460934D01*
X0602307Y0460216D01*
X0604186Y0458851D01*
X0605551Y0456972D01*
X0606268Y0454764D01*
X0606360Y0453602D01*
X0606360Y0376798D01*
X0605987Y0377171D01*
X0605987Y0378881D01*
X0605409Y0380278D01*
X0604340Y0381346D01*
X0602943Y0381925D01*
X0601432Y0381925D01*
X0600035Y0381346D01*
X0598966Y0380278D01*
X0598388Y0378881D01*
X0598388Y0377453D01*
X0594639Y0377453D01*
X0594639Y0378799D01*
X0594123Y0380045D01*
X0593170Y0380998D01*
X0591924Y0381514D01*
X0591538Y0381514D01*
X0586473Y0386579D01*
X0585517Y0386975D01*
X0581455Y0386975D01*
X0582248Y0387768D01*
X0582764Y0389013D01*
X0582764Y0390362D01*
X0582248Y0391607D01*
X0581295Y0392561D01*
X0580049Y0393076D01*
X0578701Y0393076D01*
X0577455Y0392561D01*
X0576502Y0391607D01*
X0575986Y0390362D01*
X0575986Y0389013D01*
X0576502Y0387768D01*
X0577295Y0386975D01*
X0574580Y0386975D01*
X0574748Y0387143D01*
X0575264Y0388388D01*
X0575264Y0389737D01*
X0574748Y0390982D01*
X0573795Y0391936D01*
X0572549Y0392451D01*
X0571201Y0392451D01*
X0569955Y0391936D01*
X0569002Y0390982D01*
X0568486Y0389737D01*
X0568486Y0388388D01*
X0568537Y0388265D01*
X0566975Y0389827D01*
X0566975Y0393642D01*
X0566579Y0394598D01*
X0565848Y0395329D01*
X0565848Y0395329D01*
X0559598Y0401579D01*
X0558642Y0401975D01*
X0553233Y0401975D01*
X0552277Y0401579D01*
X0551546Y0400848D01*
X0551546Y0400848D01*
X0550337Y0399639D01*
X0549951Y0399639D01*
X0548705Y0399123D01*
X0547752Y0398170D01*
X0547236Y0396924D01*
X0547236Y0395576D01*
X0547752Y0394330D01*
X0548705Y0393377D01*
X0549630Y0392994D01*
X0548298Y0391662D01*
X0545804Y0391662D01*
X0545804Y0397871D01*
X0551632Y0403699D01*
X0552150Y0404949D01*
X0552150Y0417557D01*
X0554018Y0417557D01*
X0554447Y0417735D01*
X0554111Y0416924D01*
X0554111Y0415576D01*
X0554627Y0414330D01*
X0555580Y0413377D01*
X0556826Y0412861D01*
X0558174Y0412861D01*
X0559420Y0413377D01*
X0560373Y0414330D01*
X0560889Y0415576D01*
X0560889Y0416924D01*
X0560373Y0418170D01*
X0559420Y0419123D01*
X0558174Y0419639D01*
X0556826Y0419639D01*
X0556403Y0419464D01*
X0556742Y0420281D01*
X0556742Y0421633D01*
X0556224Y0422883D01*
X0555267Y0423840D01*
X0554018Y0424357D01*
X0548603Y0424357D01*
X0547353Y0423840D01*
X0546824Y0423311D01*
X0545868Y0422354D01*
X0545350Y0421104D01*
X0545350Y0407033D01*
X0540478Y0402161D01*
X0540112Y0401795D01*
X0540061Y0401920D01*
X0539107Y0402873D01*
X0537862Y0403389D01*
X0536513Y0403389D01*
X0535303Y0402888D01*
X0535160Y0403234D01*
X0535118Y0403276D01*
X0535093Y0403329D01*
X0534782Y0403612D01*
X0534484Y0403910D01*
X0534430Y0403932D01*
X0531290Y0406789D01*
X0531054Y0407007D01*
X0531054Y0417903D01*
X0531518Y0417439D01*
X0532763Y0416924D01*
X0534112Y0416924D01*
X0535357Y0417439D01*
X0536311Y0418393D01*
X0536826Y0419638D01*
X0536826Y0420987D01*
X0536311Y0422232D01*
X0535357Y0423186D01*
X0534112Y0423701D01*
X0532763Y0423701D01*
X0531518Y0423186D01*
X0531082Y0422749D01*
X0531145Y0428259D01*
X0531150Y0428273D01*
X0531150Y0428736D01*
X0531155Y0429200D01*
X0531150Y0429213D01*
X0531150Y0429227D01*
X0530973Y0429656D01*
X0530800Y0430086D01*
X0530790Y0430096D01*
X0530785Y0430109D01*
X0530457Y0430437D01*
X0530133Y0430769D01*
X0530120Y0430775D01*
X0528076Y0432818D01*
X0528076Y0433174D01*
X0527561Y0434420D01*
X0526607Y0435373D01*
X0525362Y0435889D01*
X0524013Y0435889D01*
X0522768Y0435373D01*
X0521814Y0434420D01*
X0521299Y0433174D01*
X0521299Y0431826D01*
X0521814Y0430580D01*
X0522768Y0429627D01*
X0524013Y0429111D01*
X0524995Y0429111D01*
X0526339Y0427767D01*
X0526281Y0422752D01*
X0525781Y0422252D01*
X0525265Y0421006D01*
X0525265Y0419658D01*
X0525781Y0418412D01*
X0526254Y0417939D01*
X0526254Y0414086D01*
X0525674Y0414326D01*
X0524326Y0414326D01*
X0523080Y0413811D01*
X0522127Y0412857D01*
X0521611Y0411612D01*
X0521611Y0410263D01*
X0522127Y0409018D01*
X0523080Y0408064D01*
X0524326Y0407549D01*
X0525674Y0407549D01*
X0526254Y0407789D01*
X0526254Y0406386D01*
X0526237Y0406340D01*
X0526254Y0405910D01*
X0526254Y0405480D01*
X0526273Y0405435D01*
X0526275Y0405386D01*
X0526455Y0404995D01*
X0526619Y0404598D01*
X0526654Y0404563D01*
X0526674Y0404519D01*
X0526990Y0404227D01*
X0527295Y0403923D01*
X0527339Y0403904D01*
X0527695Y0403575D01*
X0527700Y0403566D01*
X0528046Y0403251D01*
X0528389Y0402934D01*
X0528398Y0402930D01*
X0530725Y0400814D01*
X0530725Y0397259D01*
X0531090Y0396377D01*
X0531828Y0395640D01*
X0531828Y0394971D01*
X0532082Y0394357D01*
X0524228Y0394357D01*
X0522978Y0393840D01*
X0522022Y0392883D01*
X0521504Y0391633D01*
X0521504Y0390281D01*
X0521830Y0389495D01*
X0512409Y0389495D01*
X0512136Y0389768D01*
X0510891Y0390284D01*
X0509542Y0390284D01*
X0508297Y0389768D01*
X0507344Y0388814D01*
X0506828Y0387569D01*
X0506828Y0386221D01*
X0507344Y0384975D01*
X0508297Y0384022D01*
X0509542Y0383506D01*
X0510891Y0383506D01*
X0512136Y0384022D01*
X0512409Y0384295D01*
X0529342Y0384295D01*
X0529015Y0383506D01*
X0529015Y0382158D01*
X0529531Y0380912D01*
X0530111Y0380332D01*
X0529531Y0379752D01*
X0529015Y0378506D01*
X0529015Y0377158D01*
X0529404Y0376219D01*
X0529404Y0375383D01*
X0529015Y0374444D01*
X0529015Y0373096D01*
X0529404Y0372157D01*
X0529404Y0363849D01*
X0529066Y0363034D01*
X0529066Y0363716D01*
X0528974Y0364179D01*
X0528793Y0364616D01*
X0528531Y0365009D01*
X0528196Y0365344D01*
X0527803Y0365606D01*
X0527573Y0365702D01*
X0528031Y0366160D01*
X0528031Y0372147D01*
X0527948Y0372230D01*
X0528158Y0372544D01*
X0528339Y0372981D01*
X0528431Y0373445D01*
X0528431Y0375846D01*
X0524063Y0375846D01*
X0524063Y0375847D01*
X0524062Y0375847D01*
X0524062Y0380412D01*
X0521858Y0380412D01*
X0521394Y0380320D01*
X0520957Y0380139D01*
X0520860Y0380074D01*
X0520763Y0380139D01*
X0520326Y0380320D01*
X0519862Y0380412D01*
X0517500Y0380412D01*
X0517500Y0375945D01*
X0517500Y0375945D01*
X0517500Y0380412D01*
X0515138Y0380412D01*
X0514674Y0380320D01*
X0514237Y0380139D01*
X0513844Y0379876D01*
X0513510Y0379542D01*
X0513247Y0379149D01*
X0513066Y0378712D01*
X0512974Y0378248D01*
X0512974Y0376917D01*
X0512961Y0376949D01*
X0512698Y0377342D01*
X0512364Y0377676D01*
X0511971Y0377939D01*
X0511534Y0378120D01*
X0511071Y0378212D01*
X0509063Y0378212D01*
X0509063Y0374434D01*
X0509062Y0374434D01*
X0504688Y0374434D01*
X0504688Y0374434D01*
X0508859Y0374434D01*
X0509062Y0374434D01*
X0509062Y0374434D01*
X0509062Y0378212D01*
X0507054Y0378212D01*
X0506875Y0378176D01*
X0506696Y0378212D01*
X0504688Y0378212D01*
X0504688Y0374434D01*
X0504687Y0374434D01*
X0500516Y0374434D01*
X0500516Y0372820D01*
X0500608Y0372356D01*
X0500789Y0371919D01*
X0500999Y0371605D01*
X0500916Y0371522D01*
X0500916Y0367110D01*
X0501687Y0366338D01*
X0501687Y0365028D01*
X0502144Y0363926D01*
X0503148Y0362922D01*
X0502702Y0362922D01*
X0502238Y0362829D01*
X0501801Y0362648D01*
X0501408Y0362386D01*
X0501074Y0362052D01*
X0500811Y0361658D01*
X0500630Y0361222D01*
X0500538Y0360758D01*
X0500538Y0358750D01*
X0504316Y0358750D01*
X0504316Y0354578D01*
X0505930Y0354578D01*
X0506394Y0354671D01*
X0506831Y0354851D01*
X0507145Y0355061D01*
X0507228Y0354978D01*
X0509226Y0354978D01*
X0507172Y0352925D01*
X0502172Y0352925D01*
X0500922Y0351675D01*
X0499575Y0350328D01*
X0499575Y0349374D01*
X0494900Y0349374D01*
X0493728Y0348203D01*
X0493728Y0343790D01*
X0493811Y0343707D01*
X0493601Y0343393D01*
X0493421Y0342956D01*
X0493328Y0342493D01*
X0493328Y0340878D01*
X0493328Y0339517D01*
X0492910Y0339517D01*
X0492287Y0340139D01*
X0492287Y0352705D01*
X0491892Y0353660D01*
X0491201Y0354350D01*
X0491201Y0354737D01*
X0490686Y0355982D01*
X0490574Y0356094D01*
X0490686Y0356205D01*
X0491201Y0357451D01*
X0491201Y0358799D01*
X0490686Y0360045D01*
X0490574Y0360156D01*
X0490686Y0360268D01*
X0491201Y0361513D01*
X0491201Y0362862D01*
X0490686Y0364107D01*
X0489732Y0365061D01*
X0488487Y0365576D01*
X0487138Y0365576D01*
X0485893Y0365061D01*
X0484939Y0364107D01*
X0484424Y0362862D01*
X0484424Y0361513D01*
X0484939Y0360268D01*
X0485051Y0360156D01*
X0484939Y0360045D01*
X0484424Y0358799D01*
X0484424Y0357451D01*
X0484939Y0356205D01*
X0485051Y0356094D01*
X0484939Y0355982D01*
X0484424Y0354737D01*
X0484424Y0353388D01*
X0484939Y0352143D01*
X0485893Y0351189D01*
X0487087Y0350695D01*
X0487087Y0338658D01*
X0485363Y0340382D01*
X0484114Y0340900D01*
X0482246Y0340900D01*
X0482246Y0341478D01*
X0481074Y0342650D01*
X0474300Y0342650D01*
X0474033Y0342383D01*
X0473902Y0342514D01*
X0473509Y0342776D01*
X0473072Y0342957D01*
X0472608Y0343050D01*
X0469893Y0343050D01*
X0469893Y0337580D01*
X0469733Y0337580D01*
X0469733Y0343050D01*
X0467018Y0343050D01*
X0466554Y0342957D01*
X0466117Y0342776D01*
X0465724Y0342514D01*
X0465390Y0342180D01*
X0465127Y0341786D01*
X0464946Y0341350D01*
X0464854Y0340886D01*
X0464854Y0337580D01*
X0469733Y0337580D01*
X0469733Y0337420D01*
X0464854Y0337420D01*
X0464854Y0336974D01*
X0462500Y0336974D01*
X0462500Y0332508D01*
X0462500Y0332508D01*
X0462500Y0333200D02*
X0462500Y0333200D01*
X0462500Y0335599D02*
X0462500Y0335599D01*
X0460412Y0337997D02*
X0464854Y0337997D01*
X0464854Y0340396D02*
X0460291Y0340396D01*
X0455945Y0340396D02*
X0455945Y0340396D01*
X0455945Y0337997D02*
X0455945Y0337997D01*
X0456837Y0345193D02*
X0420987Y0345193D01*
X0420987Y0347591D02*
X0443866Y0347591D01*
X0442861Y0349990D02*
X0434892Y0349990D01*
X0434748Y0349643D02*
X0435264Y0350888D01*
X0435264Y0352237D01*
X0434748Y0353482D01*
X0433795Y0354436D01*
X0432549Y0354951D01*
X0431201Y0354951D01*
X0429955Y0354436D01*
X0429002Y0353482D01*
X0428486Y0352237D01*
X0428486Y0350888D01*
X0429002Y0349643D01*
X0429955Y0348689D01*
X0431201Y0348174D01*
X0432549Y0348174D01*
X0433795Y0348689D01*
X0434748Y0349643D01*
X0435201Y0352388D02*
X0443846Y0352388D01*
X0448654Y0352388D02*
X0452976Y0352388D01*
X0452353Y0353169D02*
X0452353Y0353169D01*
X0449639Y0349990D02*
X0455796Y0349990D01*
X0456650Y0347591D02*
X0448634Y0347591D01*
X0444988Y0340396D02*
X0420987Y0340396D01*
X0420987Y0342794D02*
X0466160Y0342794D01*
X0469733Y0342794D02*
X0469893Y0342794D01*
X0469893Y0340396D02*
X0469733Y0340396D01*
X0469733Y0337997D02*
X0469893Y0337997D01*
X0473466Y0342794D02*
X0487087Y0342794D01*
X0487087Y0340396D02*
X0485331Y0340396D01*
X0487087Y0345193D02*
X0460663Y0345193D01*
X0460850Y0347591D02*
X0487087Y0347591D01*
X0487087Y0349990D02*
X0461704Y0349990D01*
X0463177Y0350699D02*
X0463177Y0350699D01*
X0463177Y0350699D01*
X0464524Y0352388D02*
X0484838Y0352388D01*
X0484444Y0354787D02*
X0470257Y0354787D01*
X0470784Y0357185D02*
X0484534Y0357185D01*
X0484749Y0359584D02*
X0464945Y0359584D01*
X0465147Y0359331D02*
X0465147Y0359331D01*
X0462800Y0361982D02*
X0484424Y0361982D01*
X0485213Y0364381D02*
X0464769Y0364381D01*
X0465264Y0366779D02*
X0501246Y0366779D01*
X0500916Y0369178D02*
X0469927Y0369178D01*
X0472947Y0371576D02*
X0500970Y0371576D01*
X0500516Y0373975D02*
X0475346Y0373975D01*
X0476770Y0375399D02*
X0476770Y0375399D01*
X0477744Y0376373D02*
X0500581Y0376373D01*
X0500608Y0376512D02*
X0500516Y0376048D01*
X0500516Y0374434D01*
X0504687Y0374434D01*
X0504687Y0374434D01*
X0504687Y0378212D01*
X0502679Y0378212D01*
X0502216Y0378120D01*
X0501779Y0377939D01*
X0501386Y0377676D01*
X0501052Y0377342D01*
X0500789Y0376949D01*
X0500608Y0376512D01*
X0504687Y0376373D02*
X0504688Y0376373D01*
X0509062Y0376373D02*
X0509063Y0376373D01*
X0513091Y0378772D02*
X0480143Y0378772D01*
X0479738Y0378368D02*
X0479738Y0378368D01*
X0481212Y0381170D02*
X0529424Y0381170D01*
X0527895Y0379542D02*
X0527561Y0379876D01*
X0527168Y0380139D01*
X0526731Y0380320D01*
X0526267Y0380412D01*
X0524063Y0380412D01*
X0524063Y0375847D01*
X0528431Y0375847D01*
X0528431Y0378248D01*
X0528339Y0378712D01*
X0528158Y0379149D01*
X0527895Y0379542D01*
X0528314Y0378772D02*
X0529125Y0378772D01*
X0529340Y0376373D02*
X0528431Y0376373D01*
X0528431Y0373975D02*
X0529015Y0373975D01*
X0529404Y0371576D02*
X0528031Y0371576D01*
X0528031Y0369178D02*
X0529404Y0369178D01*
X0529404Y0366779D02*
X0528031Y0366779D01*
X0528891Y0364381D02*
X0529404Y0364381D01*
X0532404Y0362207D02*
X0532404Y0373770D01*
X0532404Y0377832D01*
X0529041Y0383569D02*
X0511043Y0383569D01*
X0509390Y0383569D02*
X0481212Y0383569D01*
X0481212Y0385968D02*
X0506932Y0385968D01*
X0507158Y0388366D02*
X0481212Y0388366D01*
X0481212Y0390765D02*
X0521504Y0390765D01*
X0522302Y0393163D02*
X0481212Y0393163D01*
X0481212Y0395562D02*
X0531828Y0395562D01*
X0530725Y0397960D02*
X0481212Y0397960D01*
X0481212Y0400359D02*
X0530725Y0400359D01*
X0528589Y0402757D02*
X0481212Y0402757D01*
X0481212Y0405156D02*
X0526381Y0405156D01*
X0526254Y0407554D02*
X0525688Y0407554D01*
X0524312Y0407554D02*
X0481212Y0407554D01*
X0481212Y0409953D02*
X0521740Y0409953D01*
X0521917Y0412351D02*
X0481212Y0412351D01*
X0481212Y0414750D02*
X0526254Y0414750D01*
X0526254Y0417148D02*
X0481212Y0417148D01*
X0481212Y0419547D02*
X0525311Y0419547D01*
X0525654Y0421945D02*
X0522738Y0421945D01*
X0522561Y0421518D02*
X0523076Y0422763D01*
X0523076Y0424112D01*
X0522561Y0425357D01*
X0521607Y0426311D01*
X0520362Y0426826D01*
X0519013Y0426826D01*
X0517768Y0426311D01*
X0517656Y0426199D01*
X0517545Y0426311D01*
X0516299Y0426826D01*
X0514951Y0426826D01*
X0513705Y0426311D01*
X0513381Y0425986D01*
X0513057Y0426311D01*
X0511812Y0426826D01*
X0510463Y0426826D01*
X0509218Y0426311D01*
X0508264Y0425357D01*
X0507749Y0424112D01*
X0507749Y0422763D01*
X0508264Y0421518D01*
X0509218Y0420564D01*
X0510463Y0420049D01*
X0511812Y0420049D01*
X0513057Y0420564D01*
X0513381Y0420889D01*
X0513705Y0420564D01*
X0514951Y0420049D01*
X0516299Y0420049D01*
X0517545Y0420564D01*
X0517656Y0420676D01*
X0517768Y0420564D01*
X0519013Y0420049D01*
X0520362Y0420049D01*
X0521607Y0420564D01*
X0522561Y0421518D01*
X0522980Y0424344D02*
X0526300Y0424344D01*
X0526327Y0426742D02*
X0520565Y0426742D01*
X0518810Y0426742D02*
X0516503Y0426742D01*
X0514747Y0426742D02*
X0512015Y0426742D01*
X0510260Y0426742D02*
X0502469Y0426742D01*
X0504867Y0424344D02*
X0507845Y0424344D01*
X0508087Y0421945D02*
X0504624Y0421945D01*
X0490668Y0429141D02*
X0523942Y0429141D01*
X0521417Y0431539D02*
X0468400Y0431539D01*
X0467433Y0433938D02*
X0521615Y0433938D01*
X0527760Y0433938D02*
X0606360Y0433938D01*
X0606360Y0436336D02*
X0497615Y0436336D01*
X0498076Y0438735D02*
X0592079Y0438735D01*
X0592961Y0438369D02*
X0595639Y0438369D01*
X0598113Y0439394D01*
X0600006Y0441287D01*
X0601031Y0443761D01*
X0601031Y0446439D01*
X0600006Y0448913D01*
X0598113Y0450806D01*
X0595639Y0451831D01*
X0592961Y0451831D01*
X0590487Y0450806D01*
X0588594Y0448913D01*
X0587569Y0446439D01*
X0587569Y0443761D01*
X0588594Y0441287D01*
X0590487Y0439394D01*
X0592961Y0438369D01*
X0596521Y0438735D02*
X0606360Y0438735D01*
X0606360Y0441133D02*
X0599852Y0441133D01*
X0600936Y0443532D02*
X0606360Y0443532D01*
X0606360Y0445930D02*
X0601031Y0445930D01*
X0600248Y0448329D02*
X0606360Y0448329D01*
X0606360Y0450727D02*
X0598191Y0450727D01*
X0590409Y0450727D02*
X0587019Y0450727D01*
X0587708Y0453126D02*
X0606360Y0453126D01*
X0606021Y0455524D02*
X0587349Y0455524D01*
X0585670Y0457923D02*
X0604860Y0457923D01*
X0601983Y0460321D02*
X0385655Y0460321D01*
X0382778Y0457923D02*
X0438346Y0457923D01*
X0436667Y0455524D02*
X0428040Y0455524D01*
X0427979Y0455550D02*
X0425771Y0455550D01*
X0423731Y0454705D01*
X0422170Y0453144D01*
X0421325Y0451104D01*
X0421325Y0448896D01*
X0422170Y0446856D01*
X0423731Y0445295D01*
X0425771Y0444450D01*
X0427979Y0444450D01*
X0430019Y0445295D01*
X0431580Y0446856D01*
X0432425Y0448896D01*
X0432425Y0451104D01*
X0431580Y0453144D01*
X0430019Y0454705D01*
X0427979Y0455550D01*
X0425710Y0455524D02*
X0412415Y0455524D01*
X0412354Y0455550D02*
X0410146Y0455550D01*
X0408106Y0454705D01*
X0406545Y0453144D01*
X0405700Y0451104D01*
X0405700Y0448896D01*
X0406545Y0446856D01*
X0408106Y0445295D01*
X0410146Y0444450D01*
X0412354Y0444450D01*
X0414394Y0445295D01*
X0415955Y0446856D01*
X0416800Y0448896D01*
X0416800Y0451104D01*
X0415955Y0453144D01*
X0414394Y0454705D01*
X0412354Y0455550D01*
X0410085Y0455524D02*
X0381617Y0455524D01*
X0381278Y0453126D02*
X0406538Y0453126D01*
X0405700Y0450727D02*
X0397491Y0450727D01*
X0397413Y0450806D02*
X0394939Y0451831D01*
X0392261Y0451831D01*
X0389787Y0450806D01*
X0387894Y0448913D01*
X0386869Y0446439D01*
X0386869Y0443761D01*
X0387894Y0441287D01*
X0389787Y0439394D01*
X0392261Y0438369D01*
X0394939Y0438369D01*
X0397413Y0439394D01*
X0399306Y0441287D01*
X0400331Y0443761D01*
X0400331Y0446439D01*
X0399306Y0448913D01*
X0397413Y0450806D01*
X0399548Y0448329D02*
X0405935Y0448329D01*
X0407471Y0445930D02*
X0400331Y0445930D01*
X0400236Y0443532D02*
X0457355Y0443532D01*
X0456775Y0441133D02*
X0399152Y0441133D01*
X0395821Y0438735D02*
X0456775Y0438735D01*
X0456775Y0436336D02*
X0381278Y0436336D01*
X0381278Y0433938D02*
X0438520Y0433938D01*
X0438064Y0433482D02*
X0437549Y0432237D01*
X0437549Y0430888D01*
X0438064Y0429643D01*
X0439018Y0428689D01*
X0440263Y0428174D01*
X0441612Y0428174D01*
X0442857Y0428689D01*
X0442969Y0428801D01*
X0443080Y0428689D01*
X0444326Y0428174D01*
X0445674Y0428174D01*
X0446920Y0428689D01*
X0447031Y0428801D01*
X0447143Y0428689D01*
X0448388Y0428174D01*
X0449737Y0428174D01*
X0450982Y0428689D01*
X0451094Y0428801D01*
X0451205Y0428689D01*
X0452451Y0428174D01*
X0453799Y0428174D01*
X0455045Y0428689D01*
X0455998Y0429643D01*
X0456514Y0430888D01*
X0456514Y0432237D01*
X0455998Y0433482D01*
X0455045Y0434436D01*
X0453799Y0434951D01*
X0452451Y0434951D01*
X0451205Y0434436D01*
X0451094Y0434324D01*
X0450982Y0434436D01*
X0449737Y0434951D01*
X0448388Y0434951D01*
X0447143Y0434436D01*
X0447031Y0434324D01*
X0446920Y0434436D01*
X0445674Y0434951D01*
X0444326Y0434951D01*
X0443080Y0434436D01*
X0442969Y0434324D01*
X0442857Y0434436D01*
X0441612Y0434951D01*
X0440263Y0434951D01*
X0439018Y0434436D01*
X0438064Y0433482D01*
X0437549Y0431539D02*
X0436737Y0431539D01*
X0436737Y0429141D02*
X0438567Y0429141D01*
X0436737Y0426742D02*
X0456875Y0426742D01*
X0456775Y0429141D02*
X0455496Y0429141D01*
X0456514Y0431539D02*
X0456775Y0431539D01*
X0456775Y0433938D02*
X0455542Y0433938D01*
X0461975Y0433938D02*
X0462567Y0433938D01*
X0461975Y0436336D02*
X0487698Y0436336D01*
X0487236Y0438735D02*
X0461975Y0438735D01*
X0462310Y0441133D02*
X0487523Y0441133D01*
X0487384Y0443532D02*
X0464709Y0443532D01*
X0459753Y0445930D02*
X0430654Y0445930D01*
X0432190Y0448329D02*
X0439654Y0448329D01*
X0436996Y0450727D02*
X0432425Y0450727D01*
X0431587Y0453126D02*
X0436308Y0453126D01*
X0444361Y0448329D02*
X0449654Y0448329D01*
X0454361Y0448329D02*
X0459654Y0448329D01*
X0458346Y0457923D02*
X0455670Y0457923D01*
X0448346Y0457923D02*
X0445670Y0457923D01*
X0465670Y0457923D02*
X0468346Y0457923D01*
X0475670Y0457923D02*
X0478346Y0457923D01*
X0485670Y0457923D02*
X0487780Y0457923D01*
X0492008Y0457923D02*
X0492008Y0457923D01*
X0492008Y0455524D02*
X0492008Y0455524D01*
X0492008Y0453524D02*
X0502008Y0453524D01*
X0502008Y0453524D01*
X0495908Y0453524D01*
X0492008Y0453524D01*
X0492008Y0453524D01*
X0496235Y0457923D02*
X0497780Y0457923D01*
X0502008Y0457923D02*
X0502008Y0457923D01*
X0502008Y0455524D02*
X0502008Y0455524D01*
X0506235Y0457923D02*
X0508346Y0457923D01*
X0515670Y0457923D02*
X0528346Y0457923D01*
X0526667Y0455524D02*
X0517349Y0455524D01*
X0517708Y0453126D02*
X0526308Y0453126D01*
X0525800Y0450727D02*
X0517019Y0450727D01*
X0528357Y0445930D02*
X0587569Y0445930D01*
X0587664Y0443532D02*
X0497928Y0443532D01*
X0497790Y0441133D02*
X0588748Y0441133D01*
X0588352Y0448329D02*
X0584361Y0448329D01*
X0579654Y0448329D02*
X0574361Y0448329D01*
X0569654Y0448329D02*
X0564361Y0448329D01*
X0559654Y0448329D02*
X0554361Y0448329D01*
X0549654Y0448329D02*
X0544361Y0448329D01*
X0539654Y0448329D02*
X0534361Y0448329D01*
X0535670Y0457923D02*
X0538346Y0457923D01*
X0545670Y0457923D02*
X0548346Y0457923D01*
X0555670Y0457923D02*
X0558346Y0457923D01*
X0565670Y0457923D02*
X0568346Y0457923D01*
X0575670Y0457923D02*
X0578346Y0457923D01*
X0606360Y0431539D02*
X0529355Y0431539D01*
X0531155Y0429141D02*
X0606360Y0429141D01*
X0606360Y0426742D02*
X0531127Y0426742D01*
X0531100Y0424344D02*
X0548570Y0424344D01*
X0545698Y0421945D02*
X0536429Y0421945D01*
X0536788Y0419547D02*
X0545350Y0419547D01*
X0545350Y0417148D02*
X0534654Y0417148D01*
X0532221Y0417148D02*
X0531054Y0417148D01*
X0531054Y0414750D02*
X0545350Y0414750D01*
X0545350Y0412351D02*
X0531054Y0412351D01*
X0531054Y0409953D02*
X0545350Y0409953D01*
X0545350Y0407554D02*
X0531054Y0407554D01*
X0533085Y0405156D02*
X0543472Y0405156D01*
X0541074Y0402757D02*
X0539223Y0402757D01*
X0545893Y0397960D02*
X0547665Y0397960D01*
X0547242Y0395562D02*
X0545804Y0395562D01*
X0545804Y0393163D02*
X0549222Y0393163D01*
X0551965Y0387976D02*
X0552439Y0386830D01*
X0553393Y0385877D01*
X0554638Y0385361D01*
X0555025Y0385361D01*
X0555715Y0384671D01*
X0556670Y0384275D01*
X0559548Y0384275D01*
X0564275Y0379548D01*
X0564275Y0372608D01*
X0564671Y0371652D01*
X0569671Y0366652D01*
X0570402Y0365921D01*
X0571358Y0365525D01*
X0572807Y0365525D01*
X0573080Y0365252D01*
X0574326Y0364736D01*
X0575674Y0364736D01*
X0576920Y0365252D01*
X0577873Y0366205D01*
X0578389Y0367451D01*
X0578389Y0368799D01*
X0577873Y0370045D01*
X0576920Y0370998D01*
X0575674Y0371514D01*
X0574326Y0371514D01*
X0573080Y0370998D01*
X0572880Y0370797D01*
X0569475Y0374202D01*
X0569475Y0381142D01*
X0569213Y0381775D01*
X0583923Y0381775D01*
X0584409Y0381289D01*
X0583705Y0380998D01*
X0582752Y0380045D01*
X0582236Y0378799D01*
X0582236Y0377451D01*
X0582752Y0376205D01*
X0583705Y0375252D01*
X0584373Y0374975D01*
X0584373Y0368719D01*
X0584611Y0368481D01*
X0583055Y0366926D01*
X0582538Y0365676D01*
X0582538Y0364324D01*
X0583055Y0363074D01*
X0584012Y0362118D01*
X0585261Y0361600D01*
X0586614Y0361600D01*
X0587863Y0362118D01*
X0590676Y0364930D01*
X0591632Y0365887D01*
X0591825Y0366352D01*
X0591825Y0357059D01*
X0579418Y0357059D01*
X0578246Y0355887D01*
X0578246Y0349113D01*
X0579418Y0347941D01*
X0592098Y0347941D01*
X0592857Y0348700D01*
X0595131Y0348700D01*
X0596528Y0349279D01*
X0597778Y0350529D01*
X0598846Y0351597D01*
X0599425Y0352994D01*
X0599425Y0367547D01*
X0605705Y0367547D01*
X0606360Y0368202D01*
X0606360Y0318978D01*
X0606014Y0319324D01*
X0604139Y0320100D01*
X0588959Y0320100D01*
X0588388Y0319864D01*
X0585935Y0319864D01*
X0584763Y0318692D01*
X0584763Y0312348D01*
X0582862Y0313764D01*
X0582862Y0321803D01*
X0581690Y0322975D01*
X0565073Y0322975D01*
X0563901Y0321803D01*
X0563901Y0309123D01*
X0565073Y0307951D01*
X0576269Y0307951D01*
X0581325Y0304185D01*
X0581325Y0301377D01*
X0581145Y0301811D01*
X0579936Y0303020D01*
X0578355Y0303675D01*
X0571645Y0303675D01*
X0570064Y0303020D01*
X0568855Y0301811D01*
X0568200Y0300230D01*
X0568200Y0293841D01*
X0565073Y0293841D01*
X0564907Y0293675D01*
X0561354Y0293675D01*
X0561354Y0296273D01*
X0562112Y0297031D01*
X0562112Y0304987D01*
X0562067Y0305032D01*
X0562122Y0305163D01*
X0562214Y0305626D01*
X0562214Y0311295D01*
X0557137Y0311295D01*
X0557137Y0311848D01*
X0556585Y0311848D01*
X0556585Y0319217D01*
X0556918Y0319551D01*
X0556988Y0319720D01*
X0557057Y0319674D01*
X0557137Y0319641D01*
X0557137Y0311848D01*
X0562214Y0311848D01*
X0562214Y0317516D01*
X0562122Y0317980D01*
X0561941Y0318417D01*
X0561678Y0318810D01*
X0561344Y0319144D01*
X0560951Y0319407D01*
X0560908Y0319424D01*
X0561256Y0319493D01*
X0561693Y0319674D01*
X0562086Y0319937D01*
X0562420Y0320271D01*
X0562683Y0320664D01*
X0562864Y0321101D01*
X0562956Y0321565D01*
X0562956Y0324301D01*
X0559375Y0324301D01*
X0559375Y0324301D01*
X0559375Y0327426D01*
X0560625Y0328750D01*
X0561250Y0329375D01*
X0559375Y0329688D01*
X0561558Y0328984D02*
X0561558Y0332550D01*
X0553075Y0332550D01*
X0553075Y0334950D01*
X0561558Y0334950D01*
X0561558Y0338873D01*
X0562556Y0339870D01*
X0562556Y0343537D01*
X0564799Y0345780D01*
X0565475Y0346455D01*
X0565840Y0347338D01*
X0565840Y0350101D01*
X0566818Y0351079D01*
X0566818Y0360740D01*
X0565646Y0361911D01*
X0561234Y0361911D01*
X0560881Y0361559D01*
X0560528Y0361911D01*
X0560525Y0361911D01*
X0560525Y0363602D01*
X0560160Y0364484D01*
X0559484Y0365160D01*
X0554172Y0370472D01*
X0553290Y0370837D01*
X0547960Y0370837D01*
X0547329Y0370576D01*
X0547152Y0371002D01*
X0546579Y0371575D01*
X0546579Y0376285D01*
X0545232Y0377632D01*
X0538569Y0384295D01*
X0544287Y0384295D01*
X0545242Y0384691D01*
X0547014Y0386462D01*
X0549892Y0386462D01*
X0550848Y0386858D01*
X0551965Y0387976D01*
X0553302Y0385968D02*
X0546519Y0385968D01*
X0541693Y0381170D02*
X0562653Y0381170D01*
X0564275Y0378772D02*
X0544092Y0378772D01*
X0546490Y0376373D02*
X0552343Y0376373D01*
X0552439Y0376607D02*
X0551924Y0375362D01*
X0551924Y0374013D01*
X0552439Y0372768D01*
X0553393Y0371814D01*
X0554638Y0371299D01*
X0555987Y0371299D01*
X0557232Y0371814D01*
X0558186Y0372768D01*
X0558701Y0374013D01*
X0558701Y0375362D01*
X0558186Y0376607D01*
X0557232Y0377561D01*
X0555987Y0378076D01*
X0554638Y0378076D01*
X0553393Y0377561D01*
X0552439Y0376607D01*
X0551939Y0373975D02*
X0546579Y0373975D01*
X0546579Y0371576D02*
X0553967Y0371576D01*
X0556658Y0371576D02*
X0564747Y0371576D01*
X0564275Y0373975D02*
X0558686Y0373975D01*
X0558282Y0376373D02*
X0564275Y0376373D01*
X0569475Y0376373D02*
X0582682Y0376373D01*
X0582236Y0378772D02*
X0569475Y0378772D01*
X0569463Y0381170D02*
X0584122Y0381170D01*
X0587084Y0385968D02*
X0589628Y0385968D01*
X0589450Y0386396D02*
X0590295Y0384356D01*
X0591856Y0382795D01*
X0593896Y0381950D01*
X0596104Y0381950D01*
X0598144Y0382795D01*
X0599705Y0384356D01*
X0600550Y0386396D01*
X0600550Y0388604D01*
X0599705Y0390644D01*
X0598144Y0392205D01*
X0597431Y0392500D01*
X0598144Y0392795D01*
X0599705Y0394356D01*
X0600550Y0396396D01*
X0600550Y0398604D01*
X0599705Y0400644D01*
X0598144Y0402205D01*
X0596104Y0403050D01*
X0593896Y0403050D01*
X0591856Y0402205D01*
X0590295Y0400644D01*
X0589450Y0398604D01*
X0589450Y0396396D01*
X0590295Y0394356D01*
X0591856Y0392795D01*
X0592569Y0392500D01*
X0591856Y0392205D01*
X0590295Y0390644D01*
X0589450Y0388604D01*
X0589450Y0386396D01*
X0589450Y0388366D02*
X0582496Y0388366D01*
X0582597Y0390765D02*
X0590416Y0390765D01*
X0591489Y0393163D02*
X0566975Y0393163D01*
X0566975Y0390765D02*
X0568912Y0390765D01*
X0568495Y0388366D02*
X0568436Y0388366D01*
X0575255Y0388366D02*
X0576254Y0388366D01*
X0576153Y0390765D02*
X0574838Y0390765D01*
X0565615Y0395562D02*
X0589796Y0395562D01*
X0589450Y0397960D02*
X0563217Y0397960D01*
X0560818Y0400359D02*
X0590177Y0400359D01*
X0593190Y0402757D02*
X0550690Y0402757D01*
X0551057Y0400359D02*
X0548292Y0400359D01*
X0552150Y0405156D02*
X0598530Y0405156D01*
X0598486Y0405049D02*
X0598486Y0403701D01*
X0599002Y0402455D01*
X0599955Y0401502D01*
X0601201Y0400986D01*
X0602549Y0400986D01*
X0603795Y0401502D01*
X0604748Y0402455D01*
X0605264Y0403701D01*
X0605264Y0405049D01*
X0604748Y0406295D01*
X0603795Y0407248D01*
X0602549Y0407764D01*
X0601201Y0407764D01*
X0599955Y0407248D01*
X0599002Y0406295D01*
X0598486Y0405049D01*
X0598877Y0402757D02*
X0596810Y0402757D01*
X0599823Y0400359D02*
X0606360Y0400359D01*
X0606360Y0402757D02*
X0604873Y0402757D01*
X0605220Y0405156D02*
X0606360Y0405156D01*
X0606360Y0407554D02*
X0603056Y0407554D01*
X0600694Y0407554D02*
X0588019Y0407554D01*
X0588225Y0407760D02*
X0588225Y0414366D01*
X0587149Y0415442D01*
X0587468Y0415761D01*
X0587919Y0416382D01*
X0588268Y0417066D01*
X0588505Y0417795D01*
X0588625Y0418553D01*
X0588625Y0418937D01*
X0588625Y0419321D01*
X0588505Y0420079D01*
X0588268Y0420808D01*
X0587919Y0421492D01*
X0587468Y0422113D01*
X0586926Y0422655D01*
X0586305Y0423106D01*
X0585621Y0423455D01*
X0584892Y0423692D01*
X0584134Y0423812D01*
X0583750Y0423812D01*
X0583366Y0423812D01*
X0582608Y0423692D01*
X0581879Y0423455D01*
X0581195Y0423106D01*
X0580574Y0422655D01*
X0580032Y0422113D01*
X0579581Y0421492D01*
X0579232Y0420808D01*
X0578995Y0420079D01*
X0578875Y0419321D01*
X0578875Y0418937D01*
X0578875Y0418553D01*
X0578995Y0417795D01*
X0579232Y0417066D01*
X0579581Y0416382D01*
X0580032Y0415761D01*
X0580351Y0415442D01*
X0579275Y0414366D01*
X0579275Y0407760D01*
X0580447Y0406588D01*
X0587053Y0406588D01*
X0588225Y0407760D01*
X0588225Y0409953D02*
X0606360Y0409953D01*
X0606360Y0412351D02*
X0588225Y0412351D01*
X0587841Y0414750D02*
X0606360Y0414750D01*
X0606360Y0417148D02*
X0588294Y0417148D01*
X0588625Y0418937D02*
X0583750Y0418937D01*
X0588625Y0418937D01*
X0588589Y0419547D02*
X0606360Y0419547D01*
X0606360Y0421945D02*
X0587590Y0421945D01*
X0583750Y0421945D02*
X0583750Y0421945D01*
X0583750Y0423812D02*
X0583750Y0418937D01*
X0583750Y0418937D01*
X0583750Y0418937D01*
X0578875Y0418937D01*
X0583750Y0418937D01*
X0583750Y0418937D01*
X0583750Y0423812D01*
X0583750Y0419547D02*
X0583750Y0419547D01*
X0579910Y0421945D02*
X0556612Y0421945D01*
X0556603Y0419547D02*
X0556437Y0419547D01*
X0558397Y0419547D02*
X0578911Y0419547D01*
X0579206Y0417148D02*
X0560796Y0417148D01*
X0560547Y0414750D02*
X0579659Y0414750D01*
X0579275Y0412351D02*
X0552150Y0412351D01*
X0552150Y0409953D02*
X0579275Y0409953D01*
X0579481Y0407554D02*
X0552150Y0407554D01*
X0552150Y0414750D02*
X0554453Y0414750D01*
X0554204Y0417148D02*
X0552150Y0417148D01*
X0554050Y0424344D02*
X0606360Y0424344D01*
X0606360Y0397960D02*
X0600550Y0397960D01*
X0600204Y0395562D02*
X0606360Y0395562D01*
X0606360Y0393163D02*
X0598511Y0393163D01*
X0599584Y0390765D02*
X0606360Y0390765D01*
X0606360Y0388366D02*
X0600550Y0388366D01*
X0600372Y0385968D02*
X0606360Y0385968D01*
X0606360Y0383569D02*
X0598917Y0383569D01*
X0599859Y0381170D02*
X0592753Y0381170D01*
X0591083Y0383569D02*
X0589483Y0383569D01*
X0594639Y0378772D02*
X0598388Y0378772D01*
X0604516Y0381170D02*
X0606360Y0381170D01*
X0606360Y0378772D02*
X0605987Y0378772D01*
X0588932Y0372500D02*
X0588906Y0372498D01*
X0588881Y0372493D01*
X0588856Y0372484D01*
X0588834Y0372471D01*
X0588813Y0372456D01*
X0588794Y0372437D01*
X0588779Y0372416D01*
X0588766Y0372394D01*
X0588757Y0372369D01*
X0588752Y0372344D01*
X0588750Y0372318D01*
X0584373Y0371576D02*
X0572100Y0371576D01*
X0569702Y0373975D02*
X0584373Y0373975D01*
X0584373Y0369178D02*
X0578232Y0369178D01*
X0578111Y0366779D02*
X0582994Y0366779D01*
X0582538Y0364381D02*
X0560203Y0364381D01*
X0560525Y0361982D02*
X0584338Y0361982D01*
X0587537Y0361982D02*
X0591825Y0361982D01*
X0591825Y0359584D02*
X0566818Y0359584D01*
X0566818Y0357185D02*
X0591825Y0357185D01*
X0591825Y0364381D02*
X0590127Y0364381D01*
X0599425Y0364381D02*
X0606360Y0364381D01*
X0606360Y0366779D02*
X0599425Y0366779D01*
X0599425Y0361982D02*
X0606360Y0361982D01*
X0606360Y0359584D02*
X0599425Y0359584D01*
X0599425Y0357185D02*
X0606360Y0357185D01*
X0606360Y0354787D02*
X0599425Y0354787D01*
X0599174Y0352388D02*
X0606360Y0352388D01*
X0606360Y0349990D02*
X0597239Y0349990D01*
X0593270Y0345887D02*
X0592098Y0347059D01*
X0579418Y0347059D01*
X0578246Y0345887D01*
X0578246Y0341239D01*
X0577911Y0340904D01*
X0577712Y0340904D01*
X0577366Y0341250D01*
X0577915Y0341800D01*
X0577915Y0347393D01*
X0576750Y0348559D01*
X0576750Y0351222D01*
X0576293Y0352324D01*
X0575449Y0353168D01*
X0574199Y0354418D01*
X0573811Y0355357D01*
X0572857Y0356311D01*
X0571612Y0356826D01*
X0570263Y0356826D01*
X0569018Y0356311D01*
X0568064Y0355357D01*
X0567549Y0354112D01*
X0567549Y0352763D01*
X0568064Y0351518D01*
X0569018Y0350564D01*
X0569957Y0350176D01*
X0570750Y0349382D01*
X0570750Y0348559D01*
X0569585Y0347393D01*
X0569585Y0341800D01*
X0570134Y0341250D01*
X0569585Y0340700D01*
X0569585Y0335107D01*
X0570756Y0333935D01*
X0576744Y0333935D01*
X0577712Y0334904D01*
X0579750Y0334904D01*
X0580853Y0335360D01*
X0582861Y0337368D01*
X0582861Y0336201D01*
X0583377Y0334955D01*
X0584330Y0334002D01*
X0585576Y0333486D01*
X0586924Y0333486D01*
X0588170Y0334002D01*
X0589123Y0334955D01*
X0589639Y0336201D01*
X0589639Y0337549D01*
X0589477Y0337941D01*
X0592098Y0337941D01*
X0593270Y0339113D01*
X0593270Y0345887D01*
X0593270Y0345193D02*
X0606360Y0345193D01*
X0606360Y0347591D02*
X0577717Y0347591D01*
X0577915Y0345193D02*
X0578246Y0345193D01*
X0578246Y0342794D02*
X0577915Y0342794D01*
X0573750Y0344596D02*
X0573750Y0350625D01*
X0570938Y0353437D01*
X0574047Y0354787D02*
X0578246Y0354787D01*
X0578246Y0352388D02*
X0576229Y0352388D01*
X0576750Y0349990D02*
X0578246Y0349990D01*
X0570143Y0349990D02*
X0565840Y0349990D01*
X0565840Y0347591D02*
X0569783Y0347591D01*
X0569585Y0345193D02*
X0564212Y0345193D01*
X0562556Y0342794D02*
X0569585Y0342794D01*
X0569585Y0340396D02*
X0562556Y0340396D01*
X0561558Y0337997D02*
X0569585Y0337997D01*
X0569585Y0335599D02*
X0561558Y0335599D01*
X0561558Y0330802D02*
X0585110Y0330802D01*
X0585233Y0330925D02*
X0584899Y0330590D01*
X0584636Y0330197D01*
X0584456Y0329761D01*
X0584363Y0329297D01*
X0584363Y0326286D01*
X0589938Y0326286D01*
X0589938Y0331461D01*
X0586527Y0331461D01*
X0586063Y0331368D01*
X0585626Y0331187D01*
X0585233Y0330925D01*
X0584363Y0328403D02*
X0562348Y0328403D01*
X0562420Y0328331D02*
X0562086Y0328665D01*
X0561693Y0328928D01*
X0561558Y0328984D01*
X0562420Y0328331D02*
X0562683Y0327938D01*
X0562864Y0327501D01*
X0562956Y0327038D01*
X0562956Y0324301D01*
X0559375Y0324301D01*
X0559375Y0316875D01*
X0557690Y0315435D01*
X0556875Y0313560D01*
X0556861Y0311571D01*
X0557137Y0311614D02*
X0563901Y0311614D01*
X0563901Y0314012D02*
X0562214Y0314012D01*
X0562214Y0316411D02*
X0563901Y0316411D01*
X0563901Y0318809D02*
X0561678Y0318809D01*
X0562885Y0321208D02*
X0563901Y0321208D01*
X0562956Y0323606D02*
X0584363Y0323606D01*
X0584363Y0322525D02*
X0584456Y0322061D01*
X0584636Y0321624D01*
X0584899Y0321231D01*
X0585233Y0320897D01*
X0585626Y0320634D01*
X0586063Y0320454D01*
X0586527Y0320361D01*
X0589938Y0320361D01*
X0589938Y0325536D01*
X0590687Y0325536D01*
X0590687Y0320361D01*
X0594098Y0320361D01*
X0594562Y0320454D01*
X0594999Y0320634D01*
X0595392Y0320897D01*
X0595726Y0321231D01*
X0595989Y0321624D01*
X0596169Y0322061D01*
X0596262Y0322525D01*
X0596262Y0325536D01*
X0590687Y0325536D01*
X0590687Y0326286D01*
X0589938Y0326286D01*
X0589938Y0325536D01*
X0584363Y0325536D01*
X0584363Y0322525D01*
X0584923Y0321208D02*
X0582862Y0321208D01*
X0582862Y0318809D02*
X0584880Y0318809D01*
X0584763Y0316411D02*
X0582862Y0316411D01*
X0582862Y0314012D02*
X0584763Y0314012D01*
X0589938Y0321208D02*
X0590687Y0321208D01*
X0590687Y0323606D02*
X0589938Y0323606D01*
X0589938Y0326005D02*
X0562956Y0326005D01*
X0556875Y0330313D02*
X0556688Y0330313D01*
X0556875Y0331250D02*
X0554625Y0332375D01*
X0551875Y0333750D01*
X0553075Y0333200D02*
X0606360Y0333200D01*
X0606360Y0330802D02*
X0595515Y0330802D01*
X0595392Y0330925D02*
X0594999Y0331187D01*
X0594562Y0331368D01*
X0594098Y0331461D01*
X0590687Y0331461D01*
X0590687Y0326286D01*
X0596262Y0326286D01*
X0596262Y0329297D01*
X0596169Y0329761D01*
X0595989Y0330197D01*
X0595726Y0330590D01*
X0595392Y0330925D01*
X0596262Y0328403D02*
X0606360Y0328403D01*
X0606360Y0326005D02*
X0590687Y0326005D01*
X0590687Y0328403D02*
X0589938Y0328403D01*
X0589938Y0330802D02*
X0590687Y0330802D01*
X0589390Y0335599D02*
X0606360Y0335599D01*
X0606360Y0337997D02*
X0592154Y0337997D01*
X0593270Y0340396D02*
X0606360Y0340396D01*
X0606360Y0342794D02*
X0593270Y0342794D01*
X0583750Y0342500D02*
X0579154Y0337904D01*
X0573750Y0337904D01*
X0581091Y0335599D02*
X0583110Y0335599D01*
X0596262Y0323606D02*
X0606360Y0323606D01*
X0606360Y0321208D02*
X0595702Y0321208D01*
X0577792Y0306817D02*
X0562214Y0306817D01*
X0562214Y0309215D02*
X0563901Y0309215D01*
X0562112Y0304418D02*
X0581013Y0304418D01*
X0580936Y0302020D02*
X0581325Y0302020D01*
X0581800Y0297223D02*
X0582321Y0297223D01*
X0581800Y0294824D02*
X0584720Y0294824D01*
X0582862Y0292426D02*
X0587118Y0292426D01*
X0589839Y0290027D02*
X0582862Y0290027D01*
X0582862Y0287629D02*
X0591030Y0287629D01*
X0589606Y0285230D02*
X0585294Y0285230D01*
X0585930Y0282832D02*
X0589450Y0282832D01*
X0590469Y0280433D02*
X0584572Y0280433D01*
X0588562Y0275636D02*
X0525008Y0275636D01*
X0525008Y0273237D02*
X0587569Y0273237D01*
X0587569Y0270839D02*
X0525008Y0270839D01*
X0525032Y0268440D02*
X0528983Y0268440D01*
X0535032Y0268440D02*
X0538983Y0268440D01*
X0545032Y0268440D02*
X0548983Y0268440D01*
X0555032Y0268440D02*
X0558983Y0268440D01*
X0565032Y0268440D02*
X0568983Y0268440D01*
X0575032Y0268440D02*
X0578983Y0268440D01*
X0585032Y0268440D02*
X0588448Y0268440D01*
X0587134Y0266042D02*
X0590854Y0266042D01*
X0587708Y0263643D02*
X0606360Y0263643D01*
X0606360Y0266042D02*
X0597746Y0266042D01*
X0600152Y0268440D02*
X0606360Y0268440D01*
X0606360Y0270839D02*
X0601031Y0270839D01*
X0601031Y0273237D02*
X0606360Y0273237D01*
X0606360Y0275636D02*
X0600038Y0275636D01*
X0597078Y0278034D02*
X0606360Y0278034D01*
X0606360Y0280433D02*
X0599531Y0280433D01*
X0600550Y0282832D02*
X0606360Y0282832D01*
X0606360Y0285230D02*
X0600394Y0285230D01*
X0598970Y0287629D02*
X0606360Y0287629D01*
X0591522Y0278034D02*
X0559077Y0278034D01*
X0559951Y0280433D02*
X0563901Y0280433D01*
X0563901Y0282832D02*
X0558836Y0282832D01*
X0554289Y0282832D02*
X0529812Y0282832D01*
X0530417Y0280433D02*
X0553174Y0280433D01*
X0554048Y0278034D02*
X0530300Y0278034D01*
X0530576Y0285230D02*
X0540032Y0285230D01*
X0532500Y0288963D02*
X0526875Y0288950D01*
X0526203Y0289793D01*
X0525410Y0290523D01*
X0524514Y0291122D01*
X0523536Y0291576D01*
X0522500Y0291875D01*
X0522219Y0291900D01*
X0521952Y0291989D01*
X0521712Y0292137D01*
X0521512Y0292337D01*
X0521364Y0292577D01*
X0521275Y0292844D01*
X0521250Y0293125D01*
X0521250Y0315000D01*
X0521220Y0315356D01*
X0521269Y0315709D01*
X0521396Y0316042D01*
X0521594Y0316339D01*
X0521853Y0316585D01*
X0522160Y0316766D01*
X0522500Y0316875D01*
X0532500Y0316250D01*
X0532500Y0288963D01*
X0532500Y0290027D02*
X0525949Y0290027D01*
X0524002Y0287742D02*
X0524102Y0287616D01*
X0523926Y0287543D01*
X0520309Y0283926D01*
X0519465Y0283082D01*
X0519008Y0281980D01*
X0519008Y0268451D01*
X0518779Y0268356D01*
X0517176Y0266752D01*
X0517008Y0266347D01*
X0516840Y0266752D01*
X0515237Y0268356D01*
X0513142Y0269224D01*
X0510874Y0269224D01*
X0508779Y0268356D01*
X0507176Y0266752D01*
X0506675Y0265544D01*
X0506623Y0265670D01*
X0506350Y0265943D01*
X0506350Y0285517D01*
X0506259Y0285736D01*
X0512809Y0285736D01*
X0513981Y0286908D01*
X0513981Y0316732D01*
X0514516Y0317267D01*
X0518607Y0317267D01*
X0518569Y0317210D01*
X0518517Y0316947D01*
X0518381Y0316716D01*
X0518345Y0316460D01*
X0518253Y0316218D01*
X0518261Y0315950D01*
X0518180Y0315695D01*
X0518202Y0315437D01*
X0518166Y0315181D01*
X0518250Y0314856D01*
X0518250Y0293584D01*
X0518209Y0293453D01*
X0518250Y0292991D01*
X0518250Y0292602D01*
X0518240Y0292463D01*
X0518318Y0292229D01*
X0518340Y0291983D01*
X0518458Y0291758D01*
X0518498Y0291508D01*
X0518628Y0291298D01*
X0518706Y0291063D01*
X0518872Y0290872D01*
X0518969Y0290637D01*
X0519144Y0290463D01*
X0519273Y0290252D01*
X0519479Y0290104D01*
X0519627Y0289898D01*
X0519838Y0289769D01*
X0520012Y0289594D01*
X0520247Y0289497D01*
X0520438Y0289331D01*
X0520673Y0289253D01*
X0520883Y0289123D01*
X0521133Y0289083D01*
X0521358Y0288965D01*
X0521604Y0288943D01*
X0521838Y0288865D01*
X0522056Y0288881D01*
X0522482Y0288758D01*
X0523039Y0288499D01*
X0523550Y0288158D01*
X0524002Y0287742D01*
X0524092Y0287629D02*
X0513981Y0287629D01*
X0513981Y0290027D02*
X0519535Y0290027D01*
X0518253Y0292426D02*
X0513981Y0292426D01*
X0513981Y0294824D02*
X0518250Y0294824D01*
X0518250Y0297223D02*
X0513981Y0297223D01*
X0513981Y0299621D02*
X0518250Y0299621D01*
X0518250Y0302020D02*
X0513981Y0302020D01*
X0513981Y0304418D02*
X0518250Y0304418D01*
X0518250Y0306817D02*
X0513981Y0306817D01*
X0513981Y0309215D02*
X0518250Y0309215D01*
X0518250Y0311614D02*
X0513981Y0311614D01*
X0513981Y0314012D02*
X0518250Y0314012D01*
X0518326Y0316411D02*
X0513981Y0316411D01*
X0517187Y0322219D02*
X0518152Y0322219D01*
X0517187Y0322219D02*
X0519375Y0322219D01*
X0517187Y0322219D02*
X0526875Y0322219D01*
X0529403Y0327172D02*
X0522110Y0327172D01*
X0522031Y0327094D01*
X0521953Y0327172D01*
X0512422Y0327172D01*
X0511250Y0326001D01*
X0511250Y0324749D01*
X0506285Y0319784D01*
X0505765Y0319264D01*
X0504525Y0319264D01*
X0504525Y0322940D01*
X0504361Y0323103D01*
X0505390Y0323103D01*
X0506081Y0323794D01*
X0506826Y0323486D01*
X0508174Y0323486D01*
X0509420Y0324002D01*
X0510373Y0324955D01*
X0510889Y0326201D01*
X0510889Y0327549D01*
X0510373Y0328795D01*
X0509420Y0329748D01*
X0508174Y0330264D01*
X0506826Y0330264D01*
X0506562Y0330155D01*
X0506562Y0334163D01*
X0505390Y0335334D01*
X0504787Y0335334D01*
X0505275Y0336511D01*
X0505275Y0337100D01*
X0506250Y0337100D01*
X0507225Y0337100D01*
X0507225Y0336511D01*
X0507743Y0335262D01*
X0508699Y0334305D01*
X0509949Y0333788D01*
X0511301Y0333788D01*
X0512551Y0334305D01*
X0512553Y0334307D01*
X0516911Y0334307D01*
X0516911Y0337500D01*
X0517464Y0337500D01*
X0517464Y0334307D01*
X0526599Y0334307D01*
X0526599Y0333754D01*
X0527151Y0333754D01*
X0527151Y0328678D01*
X0530909Y0328678D01*
X0529403Y0327172D01*
X0530634Y0328403D02*
X0510535Y0328403D01*
X0511386Y0329548D02*
X0511721Y0329214D01*
X0512114Y0328951D01*
X0512550Y0328770D01*
X0513014Y0328678D01*
X0516911Y0328678D01*
X0516911Y0333754D01*
X0517464Y0333754D01*
X0517464Y0334307D01*
X0516911Y0334307D01*
X0516911Y0333754D01*
X0510850Y0333754D01*
X0510850Y0330841D01*
X0510943Y0330378D01*
X0511124Y0329941D01*
X0511386Y0329548D01*
X0510858Y0330802D02*
X0506562Y0330802D01*
X0506562Y0333200D02*
X0510850Y0333200D01*
X0509375Y0332813D02*
X0506250Y0335938D01*
X0506250Y0336875D01*
X0506250Y0337100D02*
X0506250Y0340878D01*
X0506250Y0340878D01*
X0506250Y0337100D01*
X0506250Y0337997D02*
X0506250Y0337997D01*
X0506250Y0340396D02*
X0506250Y0340396D01*
X0506250Y0340878D02*
X0506250Y0341250D01*
X0506250Y0340879D02*
X0506250Y0342619D01*
X0506250Y0342619D01*
X0506250Y0340879D01*
X0506250Y0340879D01*
X0510625Y0340878D02*
X0515000Y0340878D01*
X0519375Y0340878D01*
X0523750Y0340878D02*
X0523750Y0339063D01*
X0523125Y0338438D01*
X0523125Y0334031D01*
X0517187Y0334031D01*
X0516907Y0332813D01*
X0509375Y0332813D01*
X0507603Y0335599D02*
X0504897Y0335599D01*
X0503184Y0331563D02*
X0503184Y0326875D01*
X0507500Y0326875D01*
X0508464Y0323606D02*
X0510107Y0323606D01*
X0510808Y0326005D02*
X0511255Y0326005D01*
X0506536Y0323606D02*
X0505893Y0323606D01*
X0504525Y0321208D02*
X0507709Y0321208D01*
X0500482Y0320143D02*
X0498066Y0321309D01*
X0498066Y0326875D01*
X0494688Y0326005D02*
X0490986Y0326005D01*
X0490986Y0328403D02*
X0494688Y0328403D01*
X0494688Y0330802D02*
X0490986Y0330802D01*
X0490826Y0333200D02*
X0494688Y0333200D01*
X0493328Y0340396D02*
X0492287Y0340396D01*
X0493328Y0340878D02*
X0497500Y0340878D01*
X0497500Y0340878D01*
X0493328Y0340878D01*
X0493388Y0342794D02*
X0492287Y0342794D01*
X0492287Y0345193D02*
X0493728Y0345193D01*
X0493728Y0347591D02*
X0492287Y0347591D01*
X0492287Y0349990D02*
X0499575Y0349990D01*
X0501636Y0352388D02*
X0492287Y0352388D01*
X0491181Y0354787D02*
X0501957Y0354787D01*
X0501801Y0354851D02*
X0502238Y0354671D01*
X0502702Y0354578D01*
X0504316Y0354578D01*
X0504316Y0358750D01*
X0504316Y0358750D01*
X0504316Y0358750D01*
X0500538Y0358750D01*
X0500538Y0356742D01*
X0500630Y0356278D01*
X0500811Y0355842D01*
X0501074Y0355448D01*
X0501408Y0355114D01*
X0501801Y0354851D01*
X0504316Y0354787D02*
X0504316Y0354787D01*
X0506675Y0354787D02*
X0509034Y0354787D01*
X0504316Y0357185D02*
X0504316Y0357185D01*
X0500538Y0357185D02*
X0491091Y0357185D01*
X0490876Y0359584D02*
X0500538Y0359584D01*
X0501028Y0361982D02*
X0491201Y0361982D01*
X0490412Y0364381D02*
X0501956Y0364381D01*
X0504687Y0365625D02*
X0506562Y0363750D01*
X0507812Y0363750D01*
X0504687Y0365625D02*
X0504687Y0369316D01*
X0517500Y0373122D02*
X0517500Y0375945D01*
X0517500Y0373122D01*
X0517500Y0373122D01*
X0517500Y0373975D02*
X0517500Y0373975D01*
X0517500Y0375945D02*
X0517500Y0375945D01*
X0517500Y0376373D02*
X0517500Y0376373D01*
X0517500Y0378772D02*
X0517500Y0378772D01*
X0524062Y0378772D02*
X0524063Y0378772D01*
X0524062Y0376373D02*
X0524063Y0376373D01*
X0539295Y0383569D02*
X0560254Y0383569D01*
X0555466Y0369178D02*
X0567145Y0369178D01*
X0569544Y0366779D02*
X0557865Y0366779D01*
X0553475Y0364381D02*
X0547775Y0364381D01*
X0549375Y0365000D02*
X0549375Y0363184D01*
X0545000Y0358809D01*
X0546694Y0358809D01*
X0546695Y0358809D01*
X0545000Y0358809D01*
X0545000Y0358809D01*
X0545000Y0358809D01*
X0545000Y0362587D01*
X0547008Y0362587D01*
X0547472Y0362495D01*
X0547908Y0362314D01*
X0548302Y0362051D01*
X0548636Y0361717D01*
X0548731Y0361574D01*
X0549590Y0362433D01*
X0554160Y0362433D01*
X0555332Y0361261D01*
X0555332Y0361128D01*
X0555725Y0361521D01*
X0555725Y0362131D01*
X0551818Y0366037D01*
X0549432Y0366037D01*
X0546359Y0362965D01*
X0545477Y0362600D01*
X0543122Y0362600D01*
X0543153Y0362587D01*
X0545000Y0362587D01*
X0545000Y0358809D01*
X0545000Y0359584D02*
X0545000Y0359584D01*
X0545000Y0361982D02*
X0545000Y0361982D01*
X0548370Y0361982D02*
X0549139Y0361982D01*
X0554611Y0361982D02*
X0555725Y0361982D01*
X0558322Y0353679D02*
X0558322Y0353679D01*
X0558322Y0349507D01*
X0559936Y0349507D01*
X0560400Y0349599D01*
X0560837Y0349780D01*
X0561040Y0349916D01*
X0561040Y0348809D01*
X0559930Y0347699D01*
X0557365Y0347699D01*
X0556875Y0347208D01*
X0556385Y0347699D01*
X0556320Y0347699D01*
X0554275Y0349744D01*
X0554275Y0350182D01*
X0554836Y0350742D01*
X0555080Y0350377D01*
X0555414Y0350043D01*
X0555807Y0349780D01*
X0556244Y0349599D01*
X0556708Y0349507D01*
X0558322Y0349507D01*
X0558322Y0353679D01*
X0558322Y0352388D02*
X0558322Y0352388D01*
X0558322Y0349990D02*
X0558322Y0349990D01*
X0557258Y0347591D02*
X0556492Y0347591D01*
X0555493Y0349990D02*
X0554275Y0349990D01*
X0566818Y0352388D02*
X0567704Y0352388D01*
X0567828Y0354787D02*
X0566818Y0354787D01*
X0550675Y0334950D02*
X0542192Y0334950D01*
X0542192Y0338873D01*
X0541201Y0339863D01*
X0541201Y0339326D01*
X0540812Y0338387D01*
X0540812Y0337725D01*
X0541584Y0336953D01*
X0541584Y0332540D01*
X0541231Y0332187D01*
X0541584Y0331835D01*
X0541584Y0328020D01*
X0542192Y0328627D01*
X0542192Y0332550D01*
X0550675Y0332550D01*
X0550675Y0334950D01*
X0550675Y0333200D02*
X0541584Y0333200D01*
X0541584Y0330802D02*
X0542192Y0330802D01*
X0541968Y0328403D02*
X0541584Y0328403D01*
X0537813Y0329628D02*
X0537813Y0325313D01*
X0538438Y0324688D01*
X0539862Y0320313D02*
X0540175Y0320000D01*
X0541875Y0320000D01*
X0544375Y0322500D01*
X0544375Y0324301D01*
X0549375Y0324301D02*
X0549375Y0321526D01*
X0545143Y0317293D01*
X0545143Y0312729D01*
X0545050Y0311571D01*
X0550938Y0310313D02*
X0550938Y0305625D01*
X0550910Y0305598D01*
X0550910Y0305332D01*
X0550938Y0305313D02*
X0546875Y0301563D01*
X0550938Y0310313D02*
X0550938Y0315313D01*
X0550938Y0317813D01*
X0554375Y0321250D01*
X0554375Y0324301D01*
X0556585Y0318809D02*
X0557137Y0318809D01*
X0557137Y0316411D02*
X0556585Y0316411D01*
X0556585Y0314012D02*
X0557137Y0314012D01*
X0562112Y0302020D02*
X0569063Y0302020D01*
X0568200Y0299621D02*
X0562112Y0299621D01*
X0562112Y0297223D02*
X0568200Y0297223D01*
X0568200Y0294824D02*
X0561354Y0294824D01*
X0551055Y0292426D02*
X0550331Y0292426D01*
X0550331Y0290027D02*
X0551055Y0290027D01*
X0551055Y0287629D02*
X0550331Y0287629D01*
X0550331Y0285230D02*
X0551055Y0285230D01*
X0532500Y0292426D02*
X0521457Y0292426D01*
X0522500Y0293125D02*
X0522500Y0298750D01*
X0522500Y0304375D01*
X0531250Y0303130D01*
X0532500Y0302020D02*
X0521250Y0302020D01*
X0521250Y0304418D02*
X0532500Y0304418D01*
X0532500Y0306817D02*
X0521250Y0306817D01*
X0521250Y0309215D02*
X0532500Y0309215D01*
X0532500Y0311614D02*
X0521250Y0311614D01*
X0522500Y0310000D02*
X0522500Y0315625D01*
X0521669Y0316411D02*
X0529929Y0316411D01*
X0530000Y0315531D02*
X0535000Y0320175D01*
X0535138Y0320313D01*
X0532500Y0314012D02*
X0521250Y0314012D01*
X0522500Y0310000D02*
X0522500Y0304375D01*
X0521250Y0299621D02*
X0532500Y0299621D01*
X0532500Y0297223D02*
X0521250Y0297223D01*
X0521250Y0294824D02*
X0532500Y0294824D01*
X0527188Y0285000D02*
X0525625Y0285000D01*
X0522008Y0281383D01*
X0522008Y0263524D01*
X0518983Y0268440D02*
X0515032Y0268440D01*
X0519008Y0270839D02*
X0506350Y0270839D01*
X0506350Y0273237D02*
X0519008Y0273237D01*
X0519008Y0275636D02*
X0506350Y0275636D01*
X0506350Y0278034D02*
X0519008Y0278034D01*
X0519008Y0280433D02*
X0506350Y0280433D01*
X0506350Y0282832D02*
X0519361Y0282832D01*
X0521612Y0285230D02*
X0506350Y0285230D01*
X0488875Y0285230D02*
X0470583Y0285230D01*
X0470467Y0285114D02*
X0470801Y0285448D01*
X0471064Y0285842D01*
X0471245Y0286278D01*
X0471337Y0286742D01*
X0471337Y0288750D01*
X0471337Y0290139D01*
X0471408Y0290139D01*
X0471871Y0290232D01*
X0472308Y0290413D01*
X0472701Y0290675D01*
X0473035Y0291009D01*
X0473298Y0291403D01*
X0473479Y0291839D01*
X0473571Y0292303D01*
X0473571Y0296359D01*
X0467450Y0296359D01*
X0467450Y0297223D02*
X0488875Y0297223D01*
X0488875Y0299621D02*
X0473571Y0299621D01*
X0473571Y0302020D02*
X0488486Y0302020D01*
X0489625Y0304418D02*
X0472726Y0304418D01*
X0472135Y0306817D02*
X0475875Y0306817D01*
X0474725Y0309215D02*
X0471708Y0309215D01*
X0473171Y0311614D02*
X0474725Y0311614D01*
X0474725Y0314012D02*
X0473171Y0314012D01*
X0473171Y0316411D02*
X0474725Y0316411D01*
X0474725Y0318809D02*
X0473171Y0318809D01*
X0473171Y0321208D02*
X0474725Y0321208D01*
X0474725Y0323606D02*
X0472854Y0323606D01*
X0474451Y0326005D02*
X0474725Y0326005D01*
X0474725Y0328403D02*
X0474451Y0328403D01*
X0474451Y0330802D02*
X0474725Y0330802D01*
X0481525Y0330802D02*
X0483049Y0330802D01*
X0483049Y0328403D02*
X0481525Y0328403D01*
X0481525Y0326005D02*
X0483049Y0326005D01*
X0481525Y0323606D02*
X0494892Y0323606D01*
X0494225Y0321208D02*
X0487023Y0321208D01*
X0488871Y0318809D02*
X0494225Y0318809D01*
X0495160Y0316411D02*
X0491269Y0316411D01*
X0493668Y0314012D02*
X0502894Y0314012D01*
X0502500Y0308750D02*
X0494687Y0308750D01*
X0485000Y0318438D01*
X0481611Y0318809D02*
X0481525Y0318809D01*
X0481525Y0316411D02*
X0482234Y0316411D01*
X0481525Y0314012D02*
X0485183Y0314012D01*
X0487581Y0311614D02*
X0481525Y0311614D01*
X0481525Y0309215D02*
X0489980Y0309215D01*
X0492378Y0306817D02*
X0480375Y0306817D01*
X0491875Y0301875D02*
X0491875Y0271875D01*
X0486008Y0266008D01*
X0486008Y0263524D01*
X0482983Y0268440D02*
X0479032Y0268440D01*
X0472983Y0268440D02*
X0469032Y0268440D01*
X0464639Y0270839D02*
X0486596Y0270839D01*
X0488875Y0273237D02*
X0463430Y0273237D01*
X0461250Y0270625D02*
X0454375Y0270625D01*
X0443750Y0281250D01*
X0443750Y0288691D01*
X0443809Y0288750D01*
X0445059Y0290000D01*
X0445059Y0300000D01*
X0450000Y0300000D02*
X0450000Y0289316D01*
X0450566Y0288750D01*
X0450625Y0288691D01*
X0450625Y0284375D01*
X0453654Y0282832D02*
X0488875Y0282832D01*
X0488875Y0280433D02*
X0448810Y0280433D01*
X0447596Y0282832D02*
X0446750Y0282832D01*
X0446750Y0285230D02*
X0447311Y0285230D01*
X0447187Y0287629D02*
X0447188Y0287629D01*
X0440750Y0282832D02*
X0381278Y0282832D01*
X0381278Y0285230D02*
X0421950Y0285230D01*
X0421950Y0285214D02*
X0422042Y0284750D01*
X0422223Y0284313D01*
X0422486Y0283920D01*
X0422820Y0283586D01*
X0423213Y0283323D01*
X0423650Y0283142D01*
X0424114Y0283050D01*
X0427500Y0283050D01*
X0427500Y0287750D01*
X0427500Y0287750D01*
X0427500Y0287750D01*
X0421950Y0287750D01*
X0421950Y0289150D01*
X0395533Y0289150D01*
X0395433Y0289051D01*
X0393396Y0288207D01*
X0384104Y0288207D01*
X0382067Y0289051D01*
X0381278Y0289839D01*
X0381278Y0263445D01*
X0381369Y0262284D01*
X0381707Y0261245D02*
X0400782Y0261245D01*
X0400308Y0263643D02*
X0381278Y0263643D01*
X0381278Y0266042D02*
X0390054Y0266042D01*
X0389687Y0266194D02*
X0392161Y0265169D01*
X0394839Y0265169D01*
X0397313Y0266194D01*
X0399206Y0268087D01*
X0400231Y0270561D01*
X0400231Y0273239D01*
X0399206Y0275713D01*
X0397313Y0277606D01*
X0394839Y0278631D01*
X0392161Y0278631D01*
X0389687Y0277606D01*
X0387794Y0275713D01*
X0386769Y0273239D01*
X0386769Y0270561D01*
X0387794Y0268087D01*
X0389687Y0266194D01*
X0387648Y0268440D02*
X0381278Y0268440D01*
X0381278Y0270839D02*
X0386769Y0270839D01*
X0386769Y0273237D02*
X0381278Y0273237D01*
X0381278Y0275636D02*
X0387762Y0275636D01*
X0390722Y0278034D02*
X0381278Y0278034D01*
X0381278Y0280433D02*
X0440841Y0280433D01*
X0442723Y0278034D02*
X0396278Y0278034D01*
X0399238Y0275636D02*
X0445121Y0275636D01*
X0447520Y0273237D02*
X0400231Y0273237D01*
X0400231Y0270839D02*
X0449918Y0270839D01*
X0449032Y0268440D02*
X0452317Y0268440D01*
X0453607Y0275636D02*
X0488875Y0275636D01*
X0488875Y0278034D02*
X0451208Y0278034D01*
X0455684Y0284578D02*
X0455684Y0288750D01*
X0455684Y0288750D01*
X0455684Y0287629D02*
X0455684Y0287629D01*
X0455684Y0285230D02*
X0455684Y0285230D01*
X0455684Y0284578D02*
X0457298Y0284578D01*
X0457762Y0284671D01*
X0458199Y0284851D01*
X0458592Y0285114D01*
X0458926Y0285448D01*
X0459189Y0285842D01*
X0459242Y0285971D01*
X0460235Y0284978D01*
X0464647Y0284978D01*
X0464730Y0285061D01*
X0465044Y0284851D01*
X0465481Y0284671D01*
X0465945Y0284578D01*
X0467559Y0284578D01*
X0467559Y0288750D01*
X0467559Y0288750D01*
X0467559Y0284578D01*
X0469173Y0284578D01*
X0469637Y0284671D01*
X0470074Y0284851D01*
X0470467Y0285114D01*
X0471337Y0287629D02*
X0488875Y0287629D01*
X0488875Y0290027D02*
X0471337Y0290027D01*
X0471337Y0288750D02*
X0467559Y0288750D01*
X0467559Y0288750D01*
X0471337Y0288750D01*
X0467559Y0287629D02*
X0467559Y0287629D01*
X0467559Y0285230D02*
X0467559Y0285230D01*
X0459983Y0285230D02*
X0458708Y0285230D01*
X0457886Y0297223D02*
X0465050Y0297223D01*
X0466250Y0297559D02*
X0462500Y0301309D01*
X0462500Y0303750D01*
X0458750Y0307500D01*
X0452500Y0307188D01*
X0455609Y0306817D02*
X0465365Y0306817D01*
X0465050Y0304979D02*
X0461092Y0304979D01*
X0460629Y0304887D01*
X0460192Y0304706D01*
X0459799Y0304443D01*
X0459465Y0304109D01*
X0459202Y0303716D01*
X0459021Y0303279D01*
X0458929Y0302815D01*
X0458929Y0298759D01*
X0465050Y0298759D01*
X0465050Y0304979D01*
X0465050Y0304418D02*
X0467334Y0304418D01*
X0467450Y0302020D02*
X0465050Y0302020D01*
X0465050Y0299621D02*
X0467450Y0299621D01*
X0466250Y0297559D02*
X0466321Y0297557D01*
X0466392Y0297551D01*
X0466462Y0297542D01*
X0466531Y0297528D01*
X0466600Y0297511D01*
X0466668Y0297490D01*
X0466735Y0297466D01*
X0466800Y0297438D01*
X0466863Y0297407D01*
X0466925Y0297372D01*
X0466985Y0297333D01*
X0467042Y0297292D01*
X0467097Y0297248D01*
X0467150Y0297200D01*
X0467200Y0297150D01*
X0467248Y0297097D01*
X0467292Y0297042D01*
X0467333Y0296985D01*
X0467372Y0296925D01*
X0467407Y0296863D01*
X0467438Y0296800D01*
X0467466Y0296735D01*
X0467490Y0296668D01*
X0467511Y0296600D01*
X0467528Y0296531D01*
X0467542Y0296462D01*
X0467551Y0296392D01*
X0467557Y0296321D01*
X0467559Y0296250D01*
X0473571Y0294824D02*
X0488875Y0294824D01*
X0488875Y0292426D02*
X0473571Y0292426D01*
X0458929Y0299621D02*
X0457886Y0299621D01*
X0457886Y0302020D02*
X0458929Y0302020D01*
X0459774Y0304418D02*
X0457886Y0304418D01*
X0455609Y0309215D02*
X0465792Y0309215D01*
X0448700Y0309215D02*
X0446300Y0309215D01*
X0446300Y0306817D02*
X0448700Y0306817D01*
X0445000Y0313750D02*
X0445982Y0314732D01*
X0445982Y0315041D01*
X0447423Y0316411D02*
X0448143Y0316411D01*
X0439391Y0314012D02*
X0436800Y0314012D01*
X0437492Y0316411D02*
X0438143Y0316411D01*
X0428200Y0316411D02*
X0426666Y0316411D01*
X0425850Y0315595D02*
X0428200Y0317945D01*
X0428200Y0306531D01*
X0425719Y0304050D01*
X0423522Y0304050D01*
X0422350Y0302878D01*
X0422350Y0298350D01*
X0395533Y0298350D01*
X0395433Y0298449D01*
X0394708Y0298750D01*
X0395433Y0299051D01*
X0395533Y0299150D01*
X0415915Y0299150D01*
X0417606Y0299850D01*
X0423856Y0306100D01*
X0425150Y0307394D01*
X0425850Y0309085D01*
X0425850Y0315595D01*
X0425850Y0314012D02*
X0428200Y0314012D01*
X0428200Y0311614D02*
X0425850Y0311614D01*
X0425850Y0309215D02*
X0428200Y0309215D01*
X0428200Y0306817D02*
X0424572Y0306817D01*
X0426087Y0304418D02*
X0422173Y0304418D01*
X0422350Y0302020D02*
X0419775Y0302020D01*
X0422350Y0299621D02*
X0417052Y0299621D01*
X0413960Y0309215D02*
X0393585Y0309215D01*
X0397667Y0314012D02*
X0381278Y0314012D01*
X0381278Y0311614D02*
X0416358Y0311614D01*
X0416650Y0314012D02*
X0414833Y0314012D01*
X0416250Y0315429D02*
X0416250Y0319571D01*
X0413604Y0322217D01*
X0416650Y0325263D01*
X0416650Y0327500D01*
X0411250Y0327500D01*
X0411250Y0327500D01*
X0411250Y0327500D01*
X0406650Y0327500D01*
X0401250Y0327500D01*
X0401250Y0327500D01*
X0401250Y0327500D01*
X0395850Y0327500D01*
X0395850Y0325263D01*
X0398896Y0322217D01*
X0396250Y0319571D01*
X0396250Y0315429D01*
X0399179Y0312500D01*
X0403321Y0312500D01*
X0406250Y0315429D01*
X0409179Y0312500D01*
X0413321Y0312500D01*
X0416250Y0315429D01*
X0416250Y0316411D02*
X0416650Y0316411D01*
X0416813Y0318809D02*
X0416250Y0318809D01*
X0414613Y0321208D02*
X0418452Y0321208D01*
X0420851Y0323606D02*
X0414993Y0323606D01*
X0416650Y0326005D02*
X0423249Y0326005D01*
X0425648Y0328403D02*
X0416650Y0328403D01*
X0415585Y0330802D02*
X0428046Y0330802D01*
X0430445Y0333200D02*
X0414021Y0333200D01*
X0417848Y0335599D02*
X0432843Y0335599D01*
X0435733Y0337997D02*
X0420246Y0337997D01*
X0410937Y0344375D02*
X0405625Y0344375D01*
X0403125Y0346875D01*
X0403125Y0351250D01*
X0401742Y0351250D01*
X0399867Y0350133D01*
X0400575Y0345193D02*
X0381278Y0345193D01*
X0381278Y0347591D02*
X0394502Y0347591D01*
X0394230Y0349990D02*
X0381278Y0349990D01*
X0381278Y0352388D02*
X0394230Y0352388D01*
X0394380Y0354787D02*
X0381278Y0354787D01*
X0381278Y0357185D02*
X0394907Y0357185D01*
X0394105Y0359584D02*
X0381278Y0359584D01*
X0381278Y0361982D02*
X0391706Y0361982D01*
X0389308Y0364381D02*
X0381278Y0364381D01*
X0381278Y0366779D02*
X0388700Y0366779D01*
X0381414Y0369178D02*
X0381278Y0369178D01*
X0381278Y0376936D02*
X0381278Y0398072D01*
X0382111Y0397239D01*
X0383986Y0396462D01*
X0386014Y0396462D01*
X0387889Y0397239D01*
X0388386Y0397736D01*
X0389506Y0397736D01*
X0393201Y0397736D01*
X0393201Y0397558D01*
X0394372Y0396386D01*
X0402762Y0396386D01*
X0402762Y0395844D01*
X0402536Y0395889D01*
X0399125Y0395889D01*
X0399125Y0390714D01*
X0398375Y0390714D01*
X0398375Y0389964D01*
X0392801Y0389964D01*
X0392801Y0386953D01*
X0392893Y0386489D01*
X0393074Y0386053D01*
X0393337Y0385660D01*
X0393671Y0385325D01*
X0394064Y0385063D01*
X0394094Y0385050D01*
X0387994Y0385050D01*
X0386597Y0384471D01*
X0385529Y0383403D01*
X0382586Y0380460D01*
X0382007Y0379063D01*
X0382007Y0377665D01*
X0381278Y0376936D01*
X0381278Y0378772D02*
X0382007Y0378772D01*
X0381278Y0381170D02*
X0383296Y0381170D01*
X0381278Y0383569D02*
X0385695Y0383569D01*
X0381278Y0385968D02*
X0393131Y0385968D01*
X0392801Y0388366D02*
X0381278Y0388366D01*
X0381278Y0390765D02*
X0392801Y0390765D01*
X0392801Y0390714D02*
X0398375Y0390714D01*
X0398375Y0395889D01*
X0394964Y0395889D01*
X0394501Y0395796D01*
X0394064Y0395616D01*
X0393671Y0395353D01*
X0393337Y0395019D01*
X0393074Y0394626D01*
X0392893Y0394189D01*
X0392801Y0393725D01*
X0392801Y0390714D01*
X0392801Y0393163D02*
X0381278Y0393163D01*
X0381278Y0395562D02*
X0393983Y0395562D01*
X0398375Y0395562D02*
X0399125Y0395562D01*
X0399125Y0393163D02*
X0398375Y0393163D01*
X0398375Y0390765D02*
X0399125Y0390765D01*
X0417550Y0390765D02*
X0419788Y0390765D01*
X0419851Y0390702D02*
X0420244Y0390439D01*
X0420681Y0390258D01*
X0421145Y0390166D01*
X0422292Y0390166D01*
X0418925Y0386799D01*
X0418265Y0386139D01*
X0417550Y0386139D01*
X0417550Y0412631D01*
X0416971Y0414028D01*
X0415903Y0415096D01*
X0414506Y0415675D01*
X0412994Y0415675D01*
X0411597Y0415096D01*
X0410529Y0414028D01*
X0410362Y0413627D01*
X0410362Y0423525D01*
X0420436Y0423525D01*
X0420264Y0423353D01*
X0420264Y0415695D01*
X0419381Y0414812D01*
X0419381Y0408037D01*
X0420552Y0406865D01*
X0430871Y0406865D01*
X0432042Y0408037D01*
X0432042Y0409024D01*
X0433131Y0409024D01*
X0433131Y0408037D01*
X0434302Y0406865D01*
X0444621Y0406865D01*
X0445792Y0408037D01*
X0445792Y0414812D01*
X0444736Y0415868D01*
X0444736Y0416512D01*
X0444818Y0416512D01*
X0446215Y0417091D01*
X0446381Y0417257D01*
X0446381Y0411352D01*
X0447552Y0410180D01*
X0459849Y0410180D01*
X0460011Y0410072D01*
X0459199Y0410072D01*
X0459199Y0404199D01*
X0465072Y0404199D01*
X0465072Y0407909D01*
X0464980Y0408372D01*
X0464799Y0408809D01*
X0464536Y0409202D01*
X0464202Y0409536D01*
X0463809Y0409799D01*
X0463542Y0409910D01*
X0463888Y0410053D01*
X0464078Y0410180D01*
X0468698Y0410180D01*
X0469869Y0411352D01*
X0469869Y0415567D01*
X0470848Y0416546D01*
X0471579Y0417277D01*
X0471975Y0418233D01*
X0471975Y0419375D01*
X0473147Y0420547D01*
X0473147Y0424412D01*
X0474412Y0424412D01*
X0474412Y0397831D01*
X0474375Y0397794D01*
X0474022Y0398147D01*
X0469610Y0398147D01*
X0468438Y0396975D01*
X0468438Y0396775D01*
X0466604Y0396775D01*
X0465722Y0396410D01*
X0465382Y0396070D01*
X0461519Y0396070D01*
X0461357Y0396178D01*
X0462909Y0396178D01*
X0463372Y0396270D01*
X0463809Y0396451D01*
X0464202Y0396714D01*
X0464536Y0397048D01*
X0464799Y0397441D01*
X0464980Y0397878D01*
X0465072Y0398341D01*
X0465072Y0402051D01*
X0459199Y0402051D01*
X0459199Y0404199D01*
X0457051Y0404199D01*
X0457051Y0410072D01*
X0453341Y0410072D01*
X0452878Y0409980D01*
X0452441Y0409799D01*
X0452048Y0409536D01*
X0451714Y0409202D01*
X0451451Y0408809D01*
X0451270Y0408372D01*
X0451178Y0407909D01*
X0451178Y0404199D01*
X0457051Y0404199D01*
X0457051Y0402051D01*
X0459199Y0402051D01*
X0459199Y0396470D01*
X0458381Y0396470D01*
X0458125Y0396419D01*
X0457869Y0396470D01*
X0457051Y0396470D01*
X0457051Y0402051D01*
X0451178Y0402051D01*
X0451178Y0398341D01*
X0451270Y0397878D01*
X0451451Y0397441D01*
X0451714Y0397048D01*
X0452048Y0396714D01*
X0452441Y0396451D01*
X0452708Y0396340D01*
X0452362Y0396197D01*
X0452172Y0396070D01*
X0447552Y0396070D01*
X0446381Y0394898D01*
X0446381Y0392237D01*
X0446174Y0392237D01*
X0446192Y0392330D01*
X0446192Y0395045D01*
X0439541Y0395045D01*
X0439541Y0395205D01*
X0439382Y0395205D01*
X0439382Y0400084D01*
X0434895Y0400084D01*
X0434431Y0399992D01*
X0433994Y0399811D01*
X0433601Y0399548D01*
X0433267Y0399214D01*
X0433004Y0398821D01*
X0432823Y0398384D01*
X0432731Y0397920D01*
X0432731Y0395205D01*
X0439382Y0395205D01*
X0439382Y0395045D01*
X0432731Y0395045D01*
X0432731Y0392330D01*
X0432749Y0392237D01*
X0432424Y0392237D01*
X0432442Y0392330D01*
X0432442Y0395045D01*
X0425791Y0395045D01*
X0425791Y0395205D01*
X0425632Y0395205D01*
X0425632Y0400084D01*
X0421145Y0400084D01*
X0420681Y0399992D01*
X0420244Y0399811D01*
X0419851Y0399548D01*
X0419517Y0399214D01*
X0419254Y0398821D01*
X0419073Y0398384D01*
X0418981Y0397920D01*
X0418981Y0395205D01*
X0425632Y0395205D01*
X0425632Y0395045D01*
X0418981Y0395045D01*
X0418981Y0392330D01*
X0419073Y0391866D01*
X0419254Y0391429D01*
X0419517Y0391036D01*
X0419851Y0390702D01*
X0420492Y0388366D02*
X0417550Y0388366D01*
X0417550Y0393163D02*
X0418981Y0393163D01*
X0418981Y0395562D02*
X0417550Y0395562D01*
X0417550Y0397960D02*
X0418989Y0397960D01*
X0417550Y0400359D02*
X0451178Y0400359D01*
X0450625Y0398437D02*
X0458125Y0403125D01*
X0450625Y0407500D01*
X0451178Y0407554D02*
X0445310Y0407554D01*
X0445792Y0409953D02*
X0452812Y0409953D01*
X0457051Y0409953D02*
X0459199Y0409953D01*
X0459199Y0407554D02*
X0457051Y0407554D01*
X0457051Y0405156D02*
X0459199Y0405156D01*
X0458125Y0403125D02*
X0465625Y0407500D01*
X0465072Y0407554D02*
X0474412Y0407554D01*
X0474412Y0405156D02*
X0465072Y0405156D01*
X0466562Y0403125D02*
X0460625Y0403125D01*
X0459199Y0402757D02*
X0474412Y0402757D01*
X0474412Y0400359D02*
X0465072Y0400359D01*
X0465625Y0398437D02*
X0459062Y0401875D01*
X0456875Y0402500D01*
X0457051Y0402757D02*
X0417550Y0402757D01*
X0417550Y0405156D02*
X0451178Y0405156D01*
X0449687Y0403125D02*
X0456845Y0403125D01*
X0457051Y0400359D02*
X0459199Y0400359D01*
X0459199Y0397960D02*
X0457051Y0397960D01*
X0451254Y0397960D02*
X0446184Y0397960D01*
X0446192Y0397920D02*
X0446100Y0398384D01*
X0445919Y0398821D01*
X0445657Y0399214D01*
X0445322Y0399548D01*
X0444929Y0399811D01*
X0444492Y0399992D01*
X0444029Y0400084D01*
X0439541Y0400084D01*
X0439541Y0395205D01*
X0446192Y0395205D01*
X0446192Y0397920D01*
X0446192Y0395562D02*
X0447044Y0395562D01*
X0446381Y0393163D02*
X0446192Y0393163D01*
X0439541Y0395562D02*
X0439382Y0395562D01*
X0439382Y0397960D02*
X0439541Y0397960D01*
X0432739Y0397960D02*
X0432434Y0397960D01*
X0432442Y0397920D02*
X0432350Y0398384D01*
X0432169Y0398821D01*
X0431907Y0399214D01*
X0431572Y0399548D01*
X0431179Y0399811D01*
X0430742Y0399992D01*
X0430279Y0400084D01*
X0425791Y0400084D01*
X0425791Y0395205D01*
X0432442Y0395205D01*
X0432442Y0397920D01*
X0432442Y0395562D02*
X0432731Y0395562D01*
X0432731Y0393163D02*
X0432442Y0393163D01*
X0425791Y0395562D02*
X0425632Y0395562D01*
X0425632Y0397960D02*
X0425791Y0397960D01*
X0431560Y0407554D02*
X0433614Y0407554D01*
X0433131Y0414750D02*
X0432042Y0414750D01*
X0431585Y0417148D02*
X0436799Y0417148D01*
X0436799Y0419547D02*
X0433983Y0419547D01*
X0435812Y0421945D02*
X0436799Y0421945D01*
X0436737Y0424344D02*
X0437790Y0424344D01*
X0446272Y0417148D02*
X0446381Y0417148D01*
X0446381Y0414750D02*
X0445792Y0414750D01*
X0445792Y0412351D02*
X0446381Y0412351D01*
X0463645Y0409953D02*
X0474412Y0409953D01*
X0474412Y0412351D02*
X0469869Y0412351D01*
X0469869Y0414750D02*
X0474412Y0414750D01*
X0474412Y0417148D02*
X0471450Y0417148D01*
X0471975Y0419375D02*
X0471975Y0419375D01*
X0472146Y0419547D02*
X0474412Y0419547D01*
X0474412Y0421945D02*
X0473147Y0421945D01*
X0473147Y0424344D02*
X0474412Y0424344D01*
X0481212Y0424344D02*
X0485848Y0424344D01*
X0488246Y0421945D02*
X0481212Y0421945D01*
X0465000Y0427872D02*
X0465000Y0428437D01*
X0461228Y0421875D02*
X0461228Y0421875D01*
X0457722Y0421875D01*
X0461228Y0421875D01*
X0457722Y0421875D02*
X0457722Y0421875D01*
X0464996Y0397960D02*
X0469423Y0397960D01*
X0474209Y0397960D02*
X0474412Y0397960D01*
X0474375Y0390956D02*
X0474412Y0390919D01*
X0474412Y0388753D01*
X0474239Y0388926D01*
X0473846Y0389189D01*
X0473409Y0389370D01*
X0472946Y0389462D01*
X0470938Y0389462D01*
X0470938Y0385684D01*
X0470937Y0385684D01*
X0470937Y0389462D01*
X0469869Y0389462D01*
X0469869Y0390603D01*
X0474022Y0390603D01*
X0474375Y0390956D01*
X0474412Y0390765D02*
X0474184Y0390765D01*
X0470938Y0388366D02*
X0470937Y0388366D01*
X0470937Y0385968D02*
X0470938Y0385968D01*
X0466250Y0380566D02*
X0466250Y0376788D01*
X0468258Y0376788D01*
X0468613Y0376859D01*
X0467654Y0375900D01*
X0463225Y0375900D01*
X0463225Y0377139D01*
X0463342Y0377061D01*
X0463778Y0376880D01*
X0464242Y0376788D01*
X0466250Y0376788D01*
X0466250Y0380566D01*
X0466250Y0380566D01*
X0466250Y0378772D02*
X0466250Y0378772D01*
X0468128Y0376373D02*
X0463225Y0376373D01*
X0459932Y0369100D02*
X0459182Y0368350D01*
X0457880Y0368350D01*
X0456650Y0367120D01*
X0456650Y0362922D01*
X0454323Y0361801D01*
X0452353Y0359331D01*
X0452353Y0359331D01*
X0452129Y0358350D01*
X0448668Y0358350D01*
X0448668Y0374725D01*
X0451031Y0374725D01*
X0451031Y0374285D01*
X0452203Y0373113D01*
X0453016Y0373113D01*
X0455555Y0370574D01*
X0456512Y0369618D01*
X0457761Y0369100D01*
X0459932Y0369100D01*
X0457573Y0369178D02*
X0448668Y0369178D01*
X0448668Y0371576D02*
X0454553Y0371576D01*
X0451341Y0373975D02*
X0448668Y0373975D01*
X0448668Y0366779D02*
X0456650Y0366779D01*
X0456650Y0364381D02*
X0448668Y0364381D01*
X0448668Y0361982D02*
X0454700Y0361982D01*
X0454323Y0361801D02*
X0454323Y0361801D01*
X0454323Y0361801D01*
X0452555Y0359584D02*
X0448668Y0359584D01*
X0437582Y0359584D02*
X0434853Y0359584D01*
X0434748Y0359330D02*
X0435264Y0360576D01*
X0435264Y0361924D01*
X0434748Y0363170D01*
X0433795Y0364123D01*
X0432549Y0364639D01*
X0431201Y0364639D01*
X0429955Y0364123D01*
X0429002Y0363170D01*
X0428486Y0361924D01*
X0428486Y0360576D01*
X0429002Y0359330D01*
X0429955Y0358377D01*
X0431201Y0357861D01*
X0432549Y0357861D01*
X0433795Y0358377D01*
X0434748Y0359330D01*
X0435240Y0361982D02*
X0437582Y0361982D01*
X0437582Y0364381D02*
X0433172Y0364381D01*
X0430578Y0364381D02*
X0426621Y0364381D01*
X0426621Y0366779D02*
X0437582Y0366779D01*
X0437582Y0369178D02*
X0426621Y0369178D01*
X0426621Y0371576D02*
X0437582Y0371576D01*
X0437582Y0373975D02*
X0426621Y0373975D01*
X0426621Y0376373D02*
X0437582Y0376373D01*
X0437582Y0378772D02*
X0426621Y0378772D01*
X0426621Y0381170D02*
X0437582Y0381170D01*
X0437582Y0383569D02*
X0426621Y0383569D01*
X0448668Y0383569D02*
X0450631Y0383569D01*
X0450631Y0383971D02*
X0450631Y0381570D01*
X0450640Y0381525D01*
X0448668Y0381525D01*
X0448668Y0384900D01*
X0450517Y0384900D01*
X0450631Y0384947D01*
X0450631Y0383972D01*
X0455000Y0383972D01*
X0455000Y0383971D01*
X0450631Y0383971D01*
X0454515Y0391708D02*
X0456845Y0391708D01*
X0456845Y0391708D01*
X0454515Y0391708D01*
X0454515Y0391708D01*
X0456846Y0391708D02*
X0459176Y0391708D01*
X0459176Y0391708D01*
X0457474Y0391708D01*
X0456846Y0391708D01*
X0456846Y0391708D01*
X0419864Y0407554D02*
X0417550Y0407554D01*
X0417550Y0409953D02*
X0419381Y0409953D01*
X0419381Y0412351D02*
X0417550Y0412351D01*
X0416249Y0414750D02*
X0419381Y0414750D01*
X0420264Y0417148D02*
X0410362Y0417148D01*
X0410362Y0414750D02*
X0411251Y0414750D01*
X0410362Y0419547D02*
X0420264Y0419547D01*
X0420264Y0421945D02*
X0410362Y0421945D01*
X0406562Y0426250D02*
X0406562Y0428125D01*
X0400034Y0431539D02*
X0381278Y0431539D01*
X0381278Y0429141D02*
X0397635Y0429141D01*
X0391379Y0438735D02*
X0381278Y0438735D01*
X0381278Y0441133D02*
X0388048Y0441133D01*
X0386964Y0443532D02*
X0381278Y0443532D01*
X0381278Y0445930D02*
X0386869Y0445930D01*
X0387652Y0448329D02*
X0381278Y0448329D01*
X0381278Y0450727D02*
X0389709Y0450727D01*
X0415029Y0445930D02*
X0423096Y0445930D01*
X0421560Y0448329D02*
X0416565Y0448329D01*
X0416800Y0450727D02*
X0421325Y0450727D01*
X0422163Y0453126D02*
X0415962Y0453126D01*
X0381609Y0426742D02*
X0381278Y0426742D01*
X0381278Y0397960D02*
X0381390Y0397960D01*
X0426621Y0361982D02*
X0428510Y0361982D01*
X0428897Y0359584D02*
X0426621Y0359584D01*
X0426621Y0357185D02*
X0437582Y0357185D01*
X0437582Y0354787D02*
X0432946Y0354787D01*
X0430804Y0354787D02*
X0426621Y0354787D01*
X0428549Y0352388D02*
X0417361Y0352388D01*
X0419759Y0349990D02*
X0428858Y0349990D01*
X0402963Y0342794D02*
X0381278Y0342794D01*
X0381278Y0340396D02*
X0397075Y0340396D01*
X0396250Y0337997D02*
X0381278Y0337997D01*
X0381278Y0335599D02*
X0396250Y0335599D01*
X0398479Y0333200D02*
X0381278Y0333200D01*
X0381278Y0330802D02*
X0396915Y0330802D01*
X0395850Y0328403D02*
X0381278Y0328403D01*
X0381278Y0326005D02*
X0395850Y0326005D01*
X0397507Y0323606D02*
X0381278Y0323606D01*
X0381278Y0321208D02*
X0397887Y0321208D01*
X0396250Y0318809D02*
X0381278Y0318809D01*
X0381278Y0316411D02*
X0396250Y0316411D01*
X0404833Y0314012D02*
X0407667Y0314012D01*
X0406250Y0315429D02*
X0406250Y0319571D01*
X0408896Y0322217D01*
X0406250Y0324863D01*
X0403604Y0322217D01*
X0406250Y0319571D01*
X0406250Y0315429D01*
X0406250Y0316411D02*
X0406250Y0316411D01*
X0406250Y0318809D02*
X0406250Y0318809D01*
X0404613Y0321208D02*
X0407887Y0321208D01*
X0407507Y0323606D02*
X0404993Y0323606D01*
X0383915Y0309215D02*
X0381278Y0309215D01*
X0381278Y0287629D02*
X0421950Y0287629D01*
X0421950Y0287750D02*
X0421950Y0285214D01*
X0421950Y0287750D02*
X0427500Y0287750D01*
X0427500Y0287629D02*
X0427500Y0287629D01*
X0427500Y0285230D02*
X0427500Y0285230D01*
X0429032Y0268440D02*
X0432397Y0268440D01*
X0436008Y0268440D02*
X0436008Y0268440D01*
X0436008Y0266042D02*
X0436008Y0266042D01*
X0436008Y0263643D02*
X0436008Y0263643D01*
X0436008Y0261245D02*
X0436008Y0261245D01*
X0436008Y0258846D02*
X0436008Y0258846D01*
X0439948Y0258846D02*
X0442624Y0258846D01*
X0449392Y0258846D02*
X0452624Y0258846D01*
X0459392Y0258846D02*
X0462624Y0258846D01*
X0469392Y0258846D02*
X0472624Y0258846D01*
X0479392Y0258846D02*
X0482624Y0258846D01*
X0489392Y0258846D02*
X0492624Y0258846D01*
X0499392Y0258846D02*
X0508624Y0258846D01*
X0506782Y0261245D02*
X0506038Y0261245D01*
X0501462Y0261245D02*
X0501234Y0261245D01*
X0506350Y0266042D02*
X0506881Y0266042D01*
X0506350Y0268440D02*
X0508983Y0268440D01*
X0515392Y0258846D02*
X0518624Y0258846D01*
X0525392Y0258846D02*
X0528624Y0258846D01*
X0535392Y0258846D02*
X0538624Y0258846D01*
X0545392Y0258846D02*
X0548624Y0258846D01*
X0555392Y0258846D02*
X0558624Y0258846D01*
X0565392Y0258846D02*
X0568624Y0258846D01*
X0575392Y0258846D02*
X0578624Y0258846D01*
X0585392Y0258846D02*
X0604658Y0258846D01*
X0605931Y0261245D02*
X0587234Y0261245D01*
X0601128Y0256448D02*
X0386510Y0256448D01*
X0382980Y0258846D02*
X0402624Y0258846D01*
X0409392Y0258846D02*
X0412624Y0258846D01*
X0419392Y0258846D02*
X0422624Y0258846D01*
X0429392Y0258846D02*
X0432068Y0258846D01*
X0439618Y0268440D02*
X0442983Y0268440D01*
X0422983Y0268440D02*
X0419032Y0268440D01*
X0412983Y0268440D02*
X0409032Y0268440D01*
X0402983Y0268440D02*
X0399352Y0268440D01*
X0400881Y0266042D02*
X0396946Y0266042D01*
X0481525Y0321208D02*
X0482977Y0321208D01*
X0482929Y0333200D02*
X0481924Y0333200D01*
X0501875Y0340313D02*
X0501875Y0340878D01*
X0516911Y0335599D02*
X0517464Y0335599D01*
X0517328Y0334823D02*
X0518583Y0334823D01*
X0517187Y0334031D01*
X0517495Y0334656D01*
X0517328Y0334823D01*
X0517464Y0333754D02*
X0520538Y0333754D01*
X0526599Y0333754D01*
X0526599Y0328678D01*
X0522702Y0328678D01*
X0522238Y0328770D01*
X0522031Y0328856D01*
X0521825Y0328770D01*
X0521361Y0328678D01*
X0517464Y0328678D01*
X0517464Y0333754D01*
X0517464Y0333200D02*
X0516911Y0333200D01*
X0516911Y0330802D02*
X0517464Y0330802D01*
X0523125Y0334031D02*
X0524688Y0334031D01*
X0526599Y0333200D02*
X0527151Y0333200D01*
X0527151Y0330802D02*
X0526599Y0330802D01*
X0537813Y0334747D02*
X0537813Y0340000D01*
X0540812Y0337997D02*
X0542192Y0337997D01*
X0542192Y0335599D02*
X0541584Y0335599D01*
X0534475Y0351880D02*
X0534107Y0352248D01*
X0532862Y0352764D01*
X0531513Y0352764D01*
X0530268Y0352248D01*
X0529314Y0351295D01*
X0528799Y0350049D01*
X0528799Y0349374D01*
X0528395Y0349374D01*
X0528395Y0351160D01*
X0528666Y0351430D01*
X0528666Y0353148D01*
X0528747Y0353229D01*
X0529010Y0353622D01*
X0529191Y0354059D01*
X0529283Y0354522D01*
X0529283Y0355330D01*
X0529283Y0355858D01*
X0529522Y0355281D01*
X0530478Y0354325D01*
X0531728Y0353807D01*
X0533080Y0353807D01*
X0534330Y0354325D01*
X0534475Y0354470D01*
X0534475Y0351880D01*
X0534475Y0352388D02*
X0533768Y0352388D01*
X0530607Y0352388D02*
X0528666Y0352388D01*
X0528799Y0349990D02*
X0528395Y0349990D01*
X0529283Y0354787D02*
X0530016Y0354787D01*
X0529283Y0355330D02*
X0529016Y0355330D01*
X0529283Y0355330D01*
X0529016Y0355330D02*
X0529016Y0355330D01*
X0526096Y0355834D02*
X0526096Y0357023D01*
X0526096Y0357438D01*
X0526096Y0358715D01*
X0526095Y0358715D01*
X0526095Y0357023D01*
X0526096Y0357023D01*
X0526095Y0357023D01*
X0526095Y0355834D01*
X0526096Y0355834D01*
X0526095Y0357185D02*
X0526096Y0357185D01*
X0500482Y0320143D02*
X0499375Y0320143D01*
X0494225Y0304418D02*
X0494125Y0304418D01*
D50*
X0491875Y0301875D03*
X0496250Y0292500D03*
X0515625Y0303750D03*
X0515625Y0310000D03*
X0515625Y0315625D03*
X0522500Y0315625D03*
X0522500Y0310000D03*
X0522500Y0304375D03*
X0522500Y0298750D03*
X0522500Y0293125D03*
X0527188Y0285000D03*
X0527188Y0279375D03*
X0538438Y0290000D03*
X0556563Y0280313D03*
X0572500Y0294375D03*
X0577500Y0294375D03*
X0577500Y0299375D03*
X0572500Y0299375D03*
X0550910Y0305332D03*
X0550938Y0310313D03*
X0550938Y0315313D03*
X0538438Y0324688D03*
X0542813Y0333750D03*
X0542813Y0337813D03*
X0537813Y0340000D03*
X0547500Y0348125D03*
X0557813Y0348437D03*
X0560938Y0338125D03*
X0560938Y0333750D03*
X0560938Y0329063D03*
X0586250Y0336875D03*
X0601875Y0338438D03*
X0601875Y0348437D03*
X0595625Y0361250D03*
X0585938Y0365000D03*
X0575000Y0364062D03*
X0575000Y0368125D03*
X0571875Y0374687D03*
X0571875Y0379687D03*
X0571875Y0389062D03*
X0571875Y0393437D03*
X0579375Y0389687D03*
X0585625Y0378125D03*
X0591250Y0378125D03*
X0602188Y0378125D03*
X0601875Y0404375D03*
X0571875Y0402187D03*
X0571875Y0407187D03*
X0557500Y0416250D03*
X0553342Y0420957D03*
X0549279Y0420957D03*
X0533438Y0420312D03*
X0528654Y0420332D03*
X0524375Y0424375D03*
X0519687Y0423437D03*
X0515625Y0423437D03*
X0511137Y0423437D03*
X0501562Y0423437D03*
X0496562Y0423437D03*
X0491562Y0423437D03*
X0490625Y0438125D03*
X0494687Y0438125D03*
X0494687Y0442500D03*
X0490625Y0442500D03*
X0465000Y0431562D03*
X0453125Y0431562D03*
X0449062Y0431562D03*
X0445000Y0431562D03*
X0440937Y0431562D03*
X0450625Y0407500D03*
X0449687Y0403125D03*
X0450625Y0398437D03*
X0450625Y0384062D03*
X0466250Y0376875D03*
X0461875Y0366250D03*
X0451875Y0366250D03*
X0446250Y0350000D03*
X0431875Y0351562D03*
X0431875Y0361250D03*
X0431875Y0367500D03*
X0410937Y0344375D03*
X0385625Y0338438D03*
X0385625Y0313438D03*
X0397500Y0298750D03*
X0385625Y0278438D03*
X0385625Y0260937D03*
X0398125Y0259687D03*
X0450625Y0284375D03*
X0461250Y0270625D03*
X0503750Y0263750D03*
X0507500Y0284375D03*
X0546875Y0301563D03*
X0507500Y0326875D03*
X0506250Y0336875D03*
X0510625Y0337188D03*
X0501875Y0337188D03*
X0493275Y0340854D03*
X0487812Y0354062D03*
X0487812Y0358125D03*
X0487812Y0362187D03*
X0507812Y0363750D03*
X0522812Y0349687D03*
X0530000Y0353125D03*
X0532188Y0349375D03*
X0532404Y0357207D03*
X0532404Y0362207D03*
X0544279Y0369082D03*
X0549375Y0365000D03*
X0555313Y0374687D03*
X0550625Y0379375D03*
X0550625Y0383750D03*
X0546250Y0383750D03*
X0546250Y0379375D03*
X0542404Y0390957D03*
X0538029Y0390957D03*
X0535217Y0395645D03*
X0537188Y0400000D03*
X0528654Y0400332D03*
X0525000Y0410937D03*
X0524904Y0390957D03*
X0528967Y0390957D03*
X0532404Y0382832D03*
X0532404Y0377832D03*
X0532404Y0373770D03*
X0510217Y0386895D03*
X0470937Y0389687D03*
X0465625Y0398437D03*
X0466562Y0403125D03*
X0465625Y0407500D03*
X0413750Y0411875D03*
X0406562Y0428125D03*
X0385000Y0437500D03*
X0386250Y0456250D03*
X0398750Y0457500D03*
X0419375Y0457500D03*
X0419375Y0450000D03*
X0433750Y0457500D03*
X0521875Y0457500D03*
X0524688Y0432500D03*
X0550625Y0396250D03*
X0555217Y0394707D03*
X0555313Y0388750D03*
X0570938Y0353437D03*
X0502500Y0308750D03*
X0485000Y0318438D03*
X0478125Y0318438D03*
X0478125Y0322813D03*
X0478125Y0314063D03*
X0478125Y0309375D03*
X0468750Y0307500D03*
X0455000Y0307188D03*
X0455000Y0311250D03*
X0455000Y0315313D03*
X0440000Y0315313D03*
X0440000Y0311250D03*
X0440000Y0307188D03*
X0427500Y0315000D03*
X0462500Y0337500D03*
X0392500Y0366562D03*
X0385625Y0364687D03*
X0590000Y0457500D03*
X0601563Y0455937D03*
X0602500Y0436250D03*
X0602500Y0277500D03*
X0601875Y0260937D03*
X0589375Y0259375D03*
D51*
X0530878Y0340878D02*
X0531875Y0341875D01*
X0531875Y0348750D01*
X0532188Y0349375D01*
X0528125Y0345997D02*
X0526095Y0348026D01*
X0526095Y0353046D01*
X0526095Y0355330D02*
X0526095Y0357023D01*
X0526095Y0358716D01*
X0526095Y0360408D01*
X0526095Y0362692D01*
X0524403Y0362692D01*
X0522710Y0362692D01*
X0521017Y0362692D02*
X0521017Y0364142D01*
X0522187Y0365312D01*
X0523125Y0365312D01*
X0524062Y0366250D01*
X0524062Y0369154D01*
X0517500Y0369055D02*
X0517534Y0367534D01*
X0515312Y0365000D02*
X0513378Y0365000D01*
X0509062Y0369316D01*
X0515312Y0365000D02*
X0515938Y0364375D01*
X0515938Y0362692D01*
X0517631Y0362692D02*
X0517631Y0363881D01*
X0517631Y0362692D02*
X0517631Y0360131D01*
X0516216Y0358716D01*
X0514245Y0358716D01*
X0514243Y0358727D01*
X0514239Y0358736D01*
X0514231Y0358744D01*
X0514222Y0358748D01*
X0514211Y0358750D01*
X0509434Y0358750D01*
X0512830Y0355330D02*
X0508125Y0350625D01*
X0503125Y0350625D01*
X0501875Y0349375D01*
X0501875Y0345997D01*
X0497500Y0345997D01*
X0506250Y0345997D02*
X0510625Y0345997D01*
X0510625Y0349426D01*
X0514245Y0353046D01*
X0515938Y0353046D02*
X0515938Y0350313D01*
X0515000Y0349375D01*
X0515000Y0345997D01*
X0518750Y0346622D02*
X0518750Y0349375D01*
X0517631Y0350494D01*
X0517631Y0353046D01*
X0514245Y0355330D02*
X0512830Y0355330D01*
X0517631Y0362692D02*
X0519324Y0362692D01*
X0518750Y0346622D02*
X0519375Y0345997D01*
X0523750Y0345997D02*
X0528125Y0345997D01*
X0528125Y0340878D02*
X0530878Y0340878D01*
X0544279Y0369082D02*
X0544279Y0375332D01*
X0536779Y0382832D01*
X0532404Y0382832D01*
D52*
X0585758Y0352500D02*
X0594375Y0352500D01*
X0595625Y0353750D01*
X0595625Y0361250D01*
X0595625Y0372500D01*
X0602188Y0373125D02*
X0602188Y0378125D01*
X0602188Y0373125D02*
X0602318Y0372500D01*
X0526875Y0334031D02*
X0524688Y0334031D01*
X0517872Y0322500D02*
X0514375Y0322500D01*
X0508437Y0316563D01*
X0508437Y0302500D01*
X0507330Y0303607D01*
X0499375Y0303607D01*
X0518152Y0322219D02*
X0517872Y0322500D01*
X0538438Y0306563D02*
X0542500Y0310625D01*
X0544746Y0310625D01*
X0545050Y0311571D01*
X0538438Y0306563D02*
X0538438Y0301875D01*
X0538821Y0301009D01*
X0541608Y0301009D01*
X0538438Y0301875D02*
X0538438Y0290000D01*
X0545181Y0290424D02*
X0545181Y0292994D01*
X0551946Y0299759D01*
X0556894Y0299759D01*
X0558144Y0301009D01*
X0556205Y0290424D02*
X0559754Y0289375D01*
X0560000Y0289375D01*
X0560000Y0287500D01*
X0574375Y0286250D02*
X0574375Y0283750D01*
X0450000Y0320000D02*
X0450000Y0322500D01*
X0450000Y0330305D01*
X0449055Y0331250D01*
X0447500Y0311250D02*
X0445000Y0311250D01*
X0417187Y0340313D02*
X0417187Y0347187D01*
X0412187Y0352187D01*
X0412187Y0373125D01*
X0399193Y0373125D01*
X0392500Y0373125D02*
X0392500Y0366562D01*
X0397812Y0361250D01*
X0401742Y0361250D01*
X0412187Y0373125D02*
X0412187Y0380937D01*
X0413750Y0382500D01*
X0413750Y0411875D01*
X0424232Y0419375D02*
X0428437Y0419375D01*
X0432187Y0423125D01*
X0432187Y0428115D01*
X0432178Y0428125D01*
X0440768Y0419375D02*
X0441705Y0420312D01*
X0444062Y0420312D01*
X0445625Y0421875D01*
X0448750Y0421875D01*
X0440768Y0419375D02*
X0440768Y0411424D01*
X0439462Y0411424D01*
X0446668Y0388437D02*
X0425937Y0388437D01*
X0421078Y0383578D01*
X0421078Y0369375D01*
X0406562Y0384687D02*
X0403125Y0381250D01*
X0388750Y0381250D01*
X0385807Y0378307D01*
X0385807Y0373125D01*
X0385000Y0390312D02*
X0385000Y0390339D01*
X0387187Y0390339D01*
X0387187Y0390312D01*
X0387187Y0390339D02*
X0398750Y0390339D01*
X0406562Y0384687D02*
X0406562Y0426250D01*
X0388750Y0412500D02*
X0388750Y0401536D01*
X0385000Y0401536D01*
X0385000Y0401562D01*
X0388750Y0401536D02*
X0398750Y0401536D01*
X0417187Y0340313D02*
X0414375Y0337500D01*
X0411250Y0337500D01*
D53*
X0440000Y0315313D02*
X0445982Y0315041D01*
X0446875Y0315000D01*
X0447500Y0311250D01*
X0447500Y0307500D01*
X0452500Y0307188D01*
X0455000Y0307188D01*
X0455000Y0311250D02*
X0447500Y0311250D01*
X0447568Y0311252D01*
X0447635Y0311257D01*
X0447702Y0311266D01*
X0447769Y0311279D01*
X0447834Y0311296D01*
X0447899Y0311315D01*
X0447963Y0311339D01*
X0448025Y0311366D01*
X0448086Y0311396D01*
X0448144Y0311429D01*
X0448201Y0311465D01*
X0448256Y0311505D01*
X0448309Y0311547D01*
X0448360Y0311593D01*
X0448407Y0311640D01*
X0448453Y0311691D01*
X0448495Y0311744D01*
X0448535Y0311799D01*
X0448571Y0311856D01*
X0448604Y0311914D01*
X0448634Y0311975D01*
X0448661Y0312037D01*
X0448685Y0312101D01*
X0448704Y0312166D01*
X0448721Y0312231D01*
X0448734Y0312298D01*
X0448743Y0312365D01*
X0448748Y0312432D01*
X0448750Y0312500D01*
X0448750Y0315000D01*
X0455000Y0315313D01*
X0445000Y0311250D02*
X0440000Y0311250D01*
X0440000Y0307188D02*
X0447500Y0307500D01*
X0466250Y0317441D02*
X0468125Y0317441D01*
X0468125Y0325618D01*
X0470482Y0327975D01*
X0470482Y0329063D01*
X0468125Y0325618D02*
X0462500Y0325618D01*
X0478125Y0322813D02*
X0478125Y0337062D01*
X0478123Y0337102D01*
X0478118Y0337142D01*
X0478108Y0337182D01*
X0478095Y0337220D01*
X0478079Y0337257D01*
X0478059Y0337293D01*
X0478037Y0337326D01*
X0478011Y0337357D01*
X0477982Y0337386D01*
X0477951Y0337412D01*
X0477918Y0337434D01*
X0477882Y0337454D01*
X0477845Y0337470D01*
X0477807Y0337483D01*
X0477767Y0337493D01*
X0477727Y0337498D01*
X0477687Y0337500D01*
X0483437Y0337500D01*
X0487018Y0333920D01*
X0487018Y0329063D01*
X0478125Y0322813D02*
X0478125Y0318438D01*
X0478125Y0314063D01*
X0478125Y0309375D01*
X0477812Y0337375D02*
X0477687Y0337500D01*
X0501875Y0337229D02*
X0501875Y0340313D01*
X0501875Y0337229D02*
X0501875Y0337188D01*
X0506250Y0336875D02*
X0506250Y0341250D01*
X0510625Y0340625D02*
X0510625Y0337188D01*
X0509434Y0358750D02*
X0509434Y0362128D01*
X0507812Y0363750D01*
X0532404Y0362207D02*
X0532404Y0357207D01*
X0542813Y0337813D02*
X0551875Y0333750D01*
X0560938Y0338125D01*
X0560938Y0333750D02*
X0555625Y0333750D01*
X0555625Y0337188D01*
X0556875Y0333750D02*
X0560938Y0333750D01*
X0556875Y0333750D02*
X0556875Y0330313D01*
X0556688Y0330313D02*
X0554625Y0332375D01*
X0551875Y0333438D02*
X0560938Y0329063D01*
X0548125Y0330313D02*
X0548125Y0333750D01*
X0542813Y0333750D01*
X0548750Y0333750D01*
X0548750Y0337188D01*
X0583125Y0342500D02*
X0583750Y0342500D01*
X0585758Y0342500D01*
X0585938Y0365000D02*
X0588750Y0367812D01*
X0588750Y0372318D01*
X0588932Y0372500D01*
X0548750Y0405625D02*
X0542404Y0399279D01*
X0542404Y0390957D01*
X0524904Y0390957D01*
X0528967Y0390957D01*
X0548750Y0405625D02*
X0548750Y0420428D01*
X0549279Y0420957D01*
X0553342Y0420957D01*
X0501562Y0423437D02*
X0496562Y0423437D01*
X0491562Y0423437D01*
X0487187Y0427812D01*
X0477812Y0427812D01*
X0477812Y0394687D01*
X0477812Y0381250D01*
X0474844Y0378281D01*
X0472872Y0380253D01*
X0474844Y0378281D02*
X0469062Y0372500D01*
X0460625Y0372500D01*
X0458437Y0372500D01*
X0452812Y0378125D01*
X0443125Y0378125D01*
X0450625Y0384062D02*
X0453216Y0384062D01*
X0455000Y0383971D01*
X0466250Y0379375D02*
X0466250Y0376875D01*
X0470937Y0386562D02*
X0470937Y0389687D01*
X0469687Y0427812D02*
X0477812Y0427812D01*
X0465000Y0428437D02*
X0465000Y0431562D01*
X0427500Y0293750D02*
X0422500Y0293750D01*
X0573381Y0286329D02*
X0582500Y0283204D01*
D54*
X0530138Y0315531D02*
X0530000Y0315531D01*
X0522500Y0315625D01*
X0510625Y0340625D02*
X0510625Y0340878D01*
X0501875Y0340878D02*
X0501875Y0337229D01*
X0501875Y0337188D02*
X0501875Y0336917D01*
X0491833Y0336917D01*
X0489687Y0339063D01*
X0489687Y0352187D01*
X0487812Y0354062D01*
X0500625Y0360312D02*
X0500625Y0372812D01*
X0502187Y0374375D01*
X0504628Y0374375D01*
X0504687Y0374434D01*
X0504687Y0376250D01*
X0507812Y0379375D01*
X0509062Y0379375D01*
X0509062Y0374434D01*
X0509062Y0379375D02*
X0517534Y0379375D01*
X0524062Y0379375D01*
X0526563Y0379375D01*
X0528125Y0377812D01*
X0528125Y0364687D01*
X0524062Y0375846D02*
X0524062Y0379375D01*
X0517534Y0379375D02*
X0517500Y0375945D01*
X0517500Y0375025D01*
X0510217Y0386895D02*
X0543770Y0386895D01*
X0545938Y0389062D01*
X0549375Y0389062D01*
X0554592Y0394279D01*
X0555217Y0394707D01*
X0550625Y0396250D02*
X0553750Y0399375D01*
X0558125Y0399375D01*
X0564375Y0393125D01*
X0564375Y0388750D01*
X0568750Y0384375D01*
X0585000Y0384375D01*
X0591250Y0378125D01*
X0575000Y0368125D02*
X0571875Y0368125D01*
X0566875Y0373125D01*
X0566875Y0380625D01*
X0560625Y0386875D01*
X0557188Y0386875D01*
X0555313Y0388750D01*
X0527813Y0355312D02*
X0530000Y0353125D01*
X0504316Y0358750D02*
X0502187Y0358750D01*
X0500625Y0360312D01*
X0497500Y0340878D02*
X0494237Y0340878D01*
X0493275Y0340854D01*
X0469813Y0337500D02*
X0462500Y0337500D01*
X0462500Y0332507D01*
X0462500Y0337500D02*
X0455945Y0337500D01*
X0449055Y0337500D02*
X0449055Y0331250D01*
X0450000Y0331250D01*
X0450305Y0331250D02*
X0449055Y0331250D01*
X0449055Y0331570D01*
X0446875Y0333750D01*
X0455000Y0326250D02*
X0455000Y0322500D01*
X0445000Y0322500D02*
X0445000Y0313750D01*
X0440000Y0307188D02*
X0440000Y0300000D01*
X0445000Y0300000D02*
X0445059Y0300000D01*
X0455000Y0300000D02*
X0455000Y0295625D01*
X0461875Y0288750D01*
X0462441Y0288750D01*
X0496250Y0292500D02*
X0503750Y0285000D01*
X0503750Y0263750D01*
X0440000Y0322500D02*
X0437500Y0322500D01*
X0460625Y0372500D02*
X0460625Y0383125D01*
X0461964Y0384464D01*
X0461964Y0391708D01*
X0464523Y0391708D02*
X0464523Y0387411D01*
X0466250Y0385684D01*
X0470937Y0385684D02*
X0470937Y0386562D01*
X0470937Y0380566D02*
X0471250Y0380253D01*
X0472872Y0380253D01*
X0466250Y0380566D02*
X0466250Y0379375D01*
X0459375Y0386250D02*
X0459375Y0389062D01*
X0455000Y0389062D01*
X0451250Y0385000D01*
X0450959Y0385076D01*
X0450658Y0385073D01*
X0450368Y0384991D01*
X0450111Y0384836D01*
X0449902Y0384619D01*
X0449758Y0384355D01*
X0449687Y0384062D01*
X0449719Y0383820D01*
X0449813Y0383594D01*
X0449962Y0383400D01*
X0450156Y0383251D01*
X0450382Y0383157D01*
X0450625Y0383125D01*
X0456250Y0383125D01*
X0459375Y0386250D01*
X0459405Y0386280D02*
X0457187Y0384375D01*
X0450625Y0384375D01*
X0451344Y0385102D02*
X0458227Y0385102D01*
X0459405Y0386280D02*
X0459405Y0390251D01*
X0459405Y0391708D02*
X0459405Y0403125D01*
X0459375Y0403125D01*
X0459062Y0402812D01*
X0458750Y0402812D01*
X0458125Y0403125D02*
X0460625Y0403125D01*
X0460625Y0406562D01*
X0461964Y0403214D02*
X0458125Y0403125D01*
X0459375Y0403125D01*
X0458125Y0403125D02*
X0456845Y0403125D01*
X0456845Y0391708D01*
X0456845Y0387692D01*
X0456032Y0386053D01*
X0454286Y0387799D01*
X0454286Y0391708D01*
X0454286Y0399464D01*
X0450625Y0398437D02*
X0445312Y0398437D01*
X0442187Y0395312D01*
X0439462Y0395125D01*
X0425712Y0395125D01*
X0446668Y0388437D02*
X0447187Y0387500D01*
X0450000Y0387500D01*
X0451727Y0389227D01*
X0451727Y0391708D01*
X0449168Y0389375D02*
X0446668Y0388437D01*
X0449882Y0383503D02*
X0456628Y0383503D01*
X0455000Y0383971D02*
X0456032Y0386053D01*
X0454295Y0388299D02*
X0459375Y0388299D01*
X0459375Y0386701D02*
X0452820Y0386701D01*
X0456875Y0402500D02*
X0456875Y0403125D01*
X0455625Y0403125D01*
X0455625Y0405312D01*
X0455627Y0405380D01*
X0455632Y0405447D01*
X0455641Y0405514D01*
X0455654Y0405581D01*
X0455671Y0405646D01*
X0455690Y0405711D01*
X0455714Y0405775D01*
X0455741Y0405837D01*
X0455771Y0405898D01*
X0455804Y0405956D01*
X0455840Y0406013D01*
X0455880Y0406068D01*
X0455922Y0406121D01*
X0455968Y0406172D01*
X0456015Y0406219D01*
X0456066Y0406265D01*
X0456119Y0406307D01*
X0456174Y0406347D01*
X0456231Y0406383D01*
X0456289Y0406416D01*
X0456350Y0406446D01*
X0456412Y0406473D01*
X0456476Y0406497D01*
X0456541Y0406516D01*
X0456606Y0406533D01*
X0456673Y0406546D01*
X0456740Y0406555D01*
X0456807Y0406560D01*
X0456875Y0406562D01*
X0461964Y0403214D02*
X0461964Y0414542D01*
X0461964Y0417945D01*
X0458034Y0421875D01*
X0457721Y0421875D01*
X0455625Y0417500D02*
X0451875Y0417500D01*
X0451875Y0416875D01*
X0456250Y0416875D01*
X0455625Y0417500D01*
X0456053Y0417072D02*
X0451875Y0417072D01*
X0451727Y0418125D02*
X0451727Y0414542D01*
X0451727Y0418125D02*
X0451727Y0421176D01*
X0451029Y0421875D01*
X0459375Y0427500D02*
X0459375Y0441875D01*
X0464375Y0446875D01*
X0525625Y0446875D01*
X0532008Y0453258D01*
X0532008Y0453524D01*
X0469687Y0427812D02*
X0468691Y0427500D01*
X0469375Y0427872D01*
X0469375Y0422753D02*
X0469375Y0418750D01*
X0467082Y0416457D01*
X0467082Y0414542D01*
X0465000Y0422753D02*
X0464122Y0422753D01*
X0459375Y0427500D01*
X0476934Y0394375D02*
X0477500Y0394375D01*
X0477812Y0394687D01*
X0407812Y0427500D02*
X0407500Y0427812D01*
X0406562Y0428125D01*
X0559375Y0343199D02*
X0559434Y0343199D01*
D55*
X0603125Y0326250D03*
X0603125Y0315000D03*
X0385000Y0390312D03*
X0385000Y0401562D03*
D56*
X0560938Y0333750D02*
X0568438Y0326250D01*
X0588750Y0326250D01*
X0590027Y0326250D02*
X0603125Y0326250D01*
X0603125Y0315000D02*
X0599075Y0315000D01*
X0590625Y0315000D01*
X0589973Y0315000D01*
X0599075Y0315000D02*
X0599075Y0303900D01*
X0599688Y0303913D01*
X0590313Y0325911D02*
X0590027Y0326250D01*
D57*
X0446875Y0333750D02*
X0437500Y0333750D01*
X0421250Y0317500D01*
X0421250Y0310000D01*
X0415000Y0303750D01*
X0388750Y0303750D01*
X0388750Y0293750D02*
X0422500Y0293750D01*
X0397500Y0422500D02*
X0388750Y0422500D01*
X0397500Y0422500D02*
X0403125Y0428125D01*
X0406562Y0428125D01*
X0424697Y0428125D01*
D58*
X0549375Y0325313D02*
X0549375Y0324301D01*
M02*
