G75*
%MOIN*%
%OFA0B0*%
%FSLAX25Y25*%
%IPPOS*%
%LPD*%
%AMOC8*
5,1,8,0,0,1.08239X$1,22.5*
%
%ADD10C,0.07087*%
%ADD11C,0.07400*%
%ADD12C,0.04950*%
%ADD13C,0.06000*%
%ADD14C,0.03178*%
%ADD15C,0.06600*%
%ADD16C,0.03200*%
%ADD17C,0.05000*%
%ADD18C,0.02400*%
%ADD19C,0.01600*%
%ADD20C,0.01200*%
%ADD21C,0.06600*%
%ADD22C,0.04000*%
%ADD23C,0.05600*%
D10*
X0388750Y0293750D03*
X0388750Y0303750D03*
X0388750Y0412500D03*
X0388750Y0422500D03*
X0599075Y0303900D03*
X0599075Y0293900D03*
D11*
X0582008Y0263524D03*
X0572008Y0263524D03*
X0562008Y0263524D03*
X0552008Y0263524D03*
X0542008Y0263524D03*
X0532008Y0263524D03*
X0522008Y0263524D03*
X0512008Y0263524D03*
X0496008Y0263524D03*
X0486008Y0263524D03*
X0476008Y0263524D03*
X0466008Y0263524D03*
X0456008Y0263524D03*
X0446008Y0263524D03*
X0436008Y0263524D03*
X0426008Y0263524D03*
X0416008Y0263524D03*
X0406008Y0263524D03*
X0442008Y0453524D03*
X0452008Y0453524D03*
X0462008Y0453524D03*
X0472008Y0453524D03*
X0482008Y0453524D03*
X0492008Y0453524D03*
X0502008Y0453524D03*
X0512008Y0453524D03*
X0532008Y0453524D03*
X0542008Y0453524D03*
X0552008Y0453524D03*
X0562008Y0453524D03*
X0572008Y0453524D03*
X0582008Y0453524D03*
D12*
X0583750Y0418937D03*
X0583750Y0411063D03*
D13*
X0411250Y0337500D03*
X0401250Y0337500D03*
X0401250Y0327500D03*
X0401250Y0317500D03*
X0411250Y0317500D03*
X0411250Y0327500D03*
D14*
X0427500Y0315000D03*
X0440000Y0315313D03*
X0440000Y0311250D03*
X0440000Y0307188D03*
X0455000Y0307188D03*
X0455000Y0311250D03*
X0455000Y0315313D03*
X0468750Y0307500D03*
X0478125Y0309375D03*
X0478125Y0314063D03*
X0478125Y0318438D03*
X0478125Y0322813D03*
X0485000Y0318438D03*
X0491875Y0301875D03*
X0496250Y0292500D03*
X0515625Y0303750D03*
X0515625Y0310000D03*
X0515625Y0315625D03*
X0522500Y0315625D03*
X0522500Y0310000D03*
X0522500Y0304375D03*
X0522500Y0298750D03*
X0522500Y0293125D03*
X0527188Y0285000D03*
X0527188Y0279375D03*
X0538438Y0290000D03*
X0556563Y0280313D03*
X0572500Y0294375D03*
X0577500Y0294375D03*
X0577500Y0299375D03*
X0572500Y0299375D03*
X0550910Y0305332D03*
X0550938Y0310313D03*
X0550938Y0315313D03*
X0538438Y0324688D03*
X0542813Y0333750D03*
X0542813Y0337813D03*
X0537813Y0340000D03*
X0547500Y0348125D03*
X0557813Y0348437D03*
X0560938Y0338125D03*
X0560938Y0333750D03*
X0560938Y0329063D03*
X0586250Y0336875D03*
X0601875Y0338438D03*
X0601875Y0348437D03*
X0595625Y0361250D03*
X0585938Y0365000D03*
X0575000Y0364062D03*
X0575000Y0368125D03*
X0571875Y0374687D03*
X0571875Y0379687D03*
X0571875Y0389062D03*
X0571875Y0393437D03*
X0579375Y0389687D03*
X0585625Y0378125D03*
X0591250Y0378125D03*
X0602188Y0378125D03*
X0601875Y0404375D03*
X0571875Y0402187D03*
X0571875Y0407187D03*
X0557500Y0416250D03*
X0553342Y0420957D03*
X0549279Y0420957D03*
X0533438Y0420312D03*
X0528654Y0420332D03*
X0524375Y0424375D03*
X0519687Y0423437D03*
X0515625Y0423437D03*
X0511137Y0423437D03*
X0501562Y0423437D03*
X0496562Y0423437D03*
X0491562Y0423437D03*
X0490625Y0438125D03*
X0494687Y0438125D03*
X0494687Y0442500D03*
X0490625Y0442500D03*
X0465000Y0431562D03*
X0453125Y0431562D03*
X0449062Y0431562D03*
X0445000Y0431562D03*
X0440937Y0431562D03*
X0450625Y0407500D03*
X0449687Y0403125D03*
X0450625Y0398437D03*
X0450625Y0384062D03*
X0466250Y0376875D03*
X0461875Y0366250D03*
X0451875Y0366250D03*
X0446250Y0350000D03*
X0431875Y0351562D03*
X0431875Y0361250D03*
X0431875Y0367500D03*
X0410937Y0344375D03*
X0385625Y0338438D03*
X0385625Y0313438D03*
X0397500Y0298750D03*
X0385625Y0278438D03*
X0385625Y0260937D03*
X0398125Y0259687D03*
X0450625Y0284375D03*
X0461250Y0270625D03*
X0503750Y0263750D03*
X0507500Y0284375D03*
X0546875Y0301563D03*
X0507500Y0326875D03*
X0506250Y0336875D03*
X0510625Y0337188D03*
X0501875Y0337188D03*
X0493275Y0340854D03*
X0487812Y0354062D03*
X0487812Y0358125D03*
X0487812Y0362187D03*
X0507812Y0363750D03*
X0522812Y0349687D03*
X0530000Y0353125D03*
X0532188Y0349375D03*
X0532404Y0357207D03*
X0532404Y0362207D03*
X0544279Y0369082D03*
X0549375Y0365000D03*
X0555313Y0374687D03*
X0550625Y0379375D03*
X0550625Y0383750D03*
X0546250Y0383750D03*
X0546250Y0379375D03*
X0542404Y0390957D03*
X0538029Y0390957D03*
X0535217Y0395645D03*
X0537188Y0400000D03*
X0528654Y0400332D03*
X0525000Y0410937D03*
X0524904Y0390957D03*
X0528967Y0390957D03*
X0532404Y0382832D03*
X0532404Y0377832D03*
X0532404Y0373770D03*
X0510217Y0386895D03*
X0470937Y0389687D03*
X0465625Y0398437D03*
X0466562Y0403125D03*
X0465625Y0407500D03*
X0413750Y0411875D03*
X0406562Y0428125D03*
X0385000Y0437500D03*
X0386250Y0456250D03*
X0398750Y0457500D03*
X0419375Y0457500D03*
X0419375Y0450000D03*
X0433750Y0457500D03*
X0521875Y0457500D03*
X0524688Y0432500D03*
X0550625Y0396250D03*
X0555217Y0394707D03*
X0555313Y0388750D03*
X0570938Y0353437D03*
X0502500Y0308750D03*
X0462500Y0337500D03*
X0392500Y0366562D03*
X0385625Y0364687D03*
X0590000Y0457500D03*
X0601563Y0455937D03*
X0602500Y0436250D03*
X0602500Y0277500D03*
X0601875Y0260937D03*
X0589375Y0259375D03*
D15*
X0603125Y0315000D03*
X0603125Y0326250D03*
X0385000Y0390312D03*
X0385000Y0401562D03*
D16*
X0381764Y0262346D02*
X0382443Y0260257D01*
X0383735Y0258479D01*
X0385512Y0257187D01*
X0387602Y0256509D01*
X0388701Y0256422D01*
X0598937Y0256422D01*
X0600036Y0256509D01*
X0602125Y0257187D01*
X0603903Y0258479D01*
X0605194Y0260257D01*
X0605873Y0262346D01*
X0605960Y0263445D01*
X0605960Y0287500D01*
X0600000Y0287500D01*
X0600000Y0287164D01*
X0600044Y0287120D01*
X0600950Y0284933D01*
X0600950Y0282567D01*
X0600044Y0280380D01*
X0600000Y0280336D01*
X0600000Y0276284D01*
X0600345Y0275939D01*
X0601431Y0273318D01*
X0601431Y0270482D01*
X0600345Y0267861D01*
X0600000Y0267516D01*
X0600000Y0266250D01*
X0598734Y0266250D01*
X0598339Y0265855D01*
X0595718Y0264769D01*
X0592882Y0264769D01*
X0590261Y0265855D01*
X0589866Y0266250D01*
X0587698Y0266250D01*
X0588308Y0264777D01*
X0588308Y0262270D01*
X0587349Y0259955D01*
X0585577Y0258183D01*
X0583261Y0257224D01*
X0580755Y0257224D01*
X0578439Y0258183D01*
X0577008Y0259614D01*
X0575577Y0258183D01*
X0573261Y0257224D01*
X0570755Y0257224D01*
X0568439Y0258183D01*
X0567008Y0259614D01*
X0565577Y0258183D01*
X0563261Y0257224D01*
X0560755Y0257224D01*
X0558439Y0258183D01*
X0557008Y0259614D01*
X0555577Y0258183D01*
X0553261Y0257224D01*
X0550755Y0257224D01*
X0548439Y0258183D01*
X0547008Y0259614D01*
X0545577Y0258183D01*
X0543261Y0257224D01*
X0540755Y0257224D01*
X0538439Y0258183D01*
X0537008Y0259614D01*
X0535577Y0258183D01*
X0533261Y0257224D01*
X0530755Y0257224D01*
X0528439Y0258183D01*
X0527008Y0259614D01*
X0525577Y0258183D01*
X0523261Y0257224D01*
X0520755Y0257224D01*
X0518439Y0258183D01*
X0517008Y0259614D01*
X0515577Y0258183D01*
X0513261Y0257224D01*
X0510755Y0257224D01*
X0508439Y0258183D01*
X0506667Y0259955D01*
X0506436Y0260512D01*
X0506123Y0260199D01*
X0504583Y0259561D01*
X0502917Y0259561D01*
X0501439Y0260173D01*
X0501349Y0259955D01*
X0499577Y0258183D01*
X0497261Y0257224D01*
X0494755Y0257224D01*
X0492439Y0258183D01*
X0491008Y0259614D01*
X0489577Y0258183D01*
X0487261Y0257224D01*
X0484755Y0257224D01*
X0482439Y0258183D01*
X0481008Y0259614D01*
X0479577Y0258183D01*
X0477261Y0257224D01*
X0474755Y0257224D01*
X0472439Y0258183D01*
X0471008Y0259614D01*
X0469577Y0258183D01*
X0467261Y0257224D01*
X0464755Y0257224D01*
X0462439Y0258183D01*
X0461008Y0259614D01*
X0459577Y0258183D01*
X0457261Y0257224D01*
X0454755Y0257224D01*
X0452439Y0258183D01*
X0451008Y0259614D01*
X0449577Y0258183D01*
X0447261Y0257224D01*
X0444755Y0257224D01*
X0442439Y0258183D01*
X0440667Y0259955D01*
X0439708Y0262270D01*
X0439708Y0264777D01*
X0440667Y0267092D01*
X0442439Y0268864D01*
X0444755Y0269824D01*
X0447261Y0269824D01*
X0449577Y0268864D01*
X0451008Y0267433D01*
X0452439Y0268864D01*
X0454755Y0269824D01*
X0455000Y0269824D01*
X0455000Y0276067D01*
X0452936Y0275252D01*
X0452936Y0275252D01*
X0449858Y0275023D01*
X0449858Y0275023D01*
X0446850Y0275720D01*
X0446850Y0275720D01*
X0444186Y0277280D01*
X0444186Y0277280D01*
X0443689Y0277825D01*
X0443661Y0277839D01*
X0443252Y0278300D01*
X0440025Y0278300D01*
X0436059Y0278253D01*
X0436059Y0278253D01*
X0428199Y0279641D01*
X0428199Y0279641D01*
X0420732Y0282463D01*
X0420732Y0282463D01*
X0413919Y0286622D01*
X0413919Y0286622D01*
X0407996Y0291972D01*
X0407996Y0291972D01*
X0403168Y0298328D01*
X0403168Y0298328D01*
X0399603Y0305470D01*
X0399603Y0305470D01*
X0397425Y0313149D01*
X0397425Y0313149D01*
X0397399Y0313431D01*
X0396503Y0314328D01*
X0395650Y0316386D01*
X0395650Y0318614D01*
X0396503Y0320672D01*
X0398078Y0322247D01*
X0400136Y0323100D01*
X0402364Y0323100D01*
X0404422Y0322247D01*
X0405997Y0320672D01*
X0406250Y0320062D01*
X0406503Y0320672D01*
X0408078Y0322247D01*
X0410136Y0323100D01*
X0412364Y0323100D01*
X0414422Y0322247D01*
X0415997Y0320672D01*
X0416850Y0318614D01*
X0416850Y0316386D01*
X0415997Y0314328D01*
X0415766Y0314097D01*
X0416507Y0310374D01*
X0418349Y0305927D01*
X0421023Y0301926D01*
X0424426Y0298523D01*
X0428427Y0295849D01*
X0432874Y0294007D01*
X0437594Y0293068D01*
X0440000Y0292950D01*
X0459543Y0292950D01*
X0459913Y0293031D01*
X0460371Y0292950D01*
X0460835Y0292950D01*
X0461185Y0292805D01*
X0463529Y0292388D01*
X0463577Y0292398D01*
X0465000Y0292500D01*
X0465000Y0305607D01*
X0464561Y0306667D01*
X0464561Y0306752D01*
X0457726Y0315865D01*
X0457726Y0315865D01*
X0457273Y0316470D01*
X0454553Y0320096D01*
X0454553Y0320096D01*
X0449945Y0327903D01*
X0449945Y0327903D01*
X0446225Y0336170D01*
X0446225Y0336170D01*
X0444180Y0342500D01*
X0414695Y0342500D01*
X0414541Y0342128D01*
X0415997Y0340672D01*
X0416850Y0338614D01*
X0416850Y0336386D01*
X0415997Y0334328D01*
X0414422Y0332753D01*
X0412364Y0331900D01*
X0410136Y0331900D01*
X0408078Y0332753D01*
X0406503Y0334328D01*
X0406250Y0334938D01*
X0405997Y0334328D01*
X0404422Y0332753D01*
X0402364Y0331900D01*
X0400136Y0331900D01*
X0398078Y0332753D01*
X0396503Y0334328D01*
X0395650Y0336386D01*
X0395650Y0338614D01*
X0396503Y0340672D01*
X0398078Y0342247D01*
X0398688Y0342500D01*
X0391250Y0342500D01*
X0391250Y0362546D01*
X0390127Y0363011D01*
X0388949Y0364190D01*
X0388311Y0365729D01*
X0388311Y0367396D01*
X0388949Y0368935D01*
X0390127Y0370114D01*
X0391250Y0370579D01*
X0391250Y0406250D01*
X0388656Y0406250D01*
X0390002Y0404905D01*
X0390900Y0402736D01*
X0390900Y0400389D01*
X0390002Y0398220D01*
X0388342Y0396561D01*
X0386174Y0395662D01*
X0383826Y0395662D01*
X0381678Y0396552D01*
X0381678Y0263445D01*
X0381764Y0262346D01*
X0381858Y0262058D02*
X0399796Y0262058D01*
X0399708Y0262270D02*
X0400667Y0259955D01*
X0402439Y0258183D01*
X0404755Y0257224D01*
X0407261Y0257224D01*
X0409577Y0258183D01*
X0411008Y0259614D01*
X0412439Y0258183D01*
X0414755Y0257224D01*
X0417261Y0257224D01*
X0419577Y0258183D01*
X0421008Y0259614D01*
X0422439Y0258183D01*
X0424755Y0257224D01*
X0427261Y0257224D01*
X0429577Y0258183D01*
X0431349Y0259955D01*
X0432308Y0262270D01*
X0432308Y0264777D01*
X0431349Y0267092D01*
X0429577Y0268864D01*
X0427261Y0269824D01*
X0424755Y0269824D01*
X0422439Y0268864D01*
X0421008Y0267433D01*
X0419577Y0268864D01*
X0417261Y0269824D01*
X0414755Y0269824D01*
X0412439Y0268864D01*
X0411008Y0267433D01*
X0409577Y0268864D01*
X0407261Y0269824D01*
X0404755Y0269824D01*
X0402439Y0268864D01*
X0400667Y0267092D01*
X0399708Y0264777D01*
X0399708Y0262270D01*
X0399907Y0265257D02*
X0396095Y0265257D01*
X0394918Y0264769D02*
X0397539Y0265855D01*
X0399545Y0267861D01*
X0400631Y0270482D01*
X0400631Y0273318D01*
X0399545Y0275939D01*
X0397539Y0277945D01*
X0394918Y0279031D01*
X0392082Y0279031D01*
X0389461Y0277945D01*
X0387455Y0275939D01*
X0386369Y0273318D01*
X0386369Y0270482D01*
X0387455Y0267861D01*
X0389461Y0265855D01*
X0392082Y0264769D01*
X0394918Y0264769D01*
X0390905Y0265257D02*
X0381678Y0265257D01*
X0381678Y0268455D02*
X0387209Y0268455D01*
X0386369Y0271654D02*
X0381678Y0271654D01*
X0381678Y0274852D02*
X0387005Y0274852D01*
X0389716Y0278051D02*
X0381678Y0278051D01*
X0381678Y0281249D02*
X0423944Y0281249D01*
X0417481Y0284448D02*
X0381678Y0284448D01*
X0381678Y0287646D02*
X0387432Y0287646D01*
X0387528Y0287607D02*
X0389972Y0287607D01*
X0392230Y0288542D01*
X0393958Y0290270D01*
X0394893Y0292528D01*
X0394893Y0294972D01*
X0393958Y0297230D01*
X0392438Y0298750D01*
X0393958Y0300270D01*
X0394893Y0302528D01*
X0394893Y0304972D01*
X0393958Y0307230D01*
X0392230Y0308958D01*
X0389972Y0309893D01*
X0387528Y0309893D01*
X0385270Y0308958D01*
X0383542Y0307230D01*
X0382607Y0304972D01*
X0382607Y0302528D01*
X0383542Y0300270D01*
X0385062Y0298750D01*
X0383542Y0297230D01*
X0382607Y0294972D01*
X0382607Y0292528D01*
X0383542Y0290270D01*
X0385270Y0288542D01*
X0387528Y0287607D01*
X0390068Y0287646D02*
X0412785Y0287646D01*
X0409244Y0290845D02*
X0394196Y0290845D01*
X0394893Y0294043D02*
X0406422Y0294043D01*
X0403993Y0297242D02*
X0393946Y0297242D01*
X0394029Y0300440D02*
X0402113Y0300440D01*
X0400517Y0303639D02*
X0394893Y0303639D01*
X0394121Y0306837D02*
X0399215Y0306837D01*
X0398308Y0310036D02*
X0381678Y0310036D01*
X0381678Y0313234D02*
X0397417Y0313234D01*
X0395650Y0316433D02*
X0381678Y0316433D01*
X0381678Y0319632D02*
X0396072Y0319632D01*
X0399484Y0322830D02*
X0381678Y0322830D01*
X0381678Y0326029D02*
X0451052Y0326029D01*
X0449349Y0329227D02*
X0381678Y0329227D01*
X0381678Y0332426D02*
X0398867Y0332426D01*
X0395966Y0335624D02*
X0381678Y0335624D01*
X0381678Y0338823D02*
X0395736Y0338823D01*
X0397852Y0342021D02*
X0381678Y0342021D01*
X0381678Y0345220D02*
X0391250Y0345220D01*
X0391250Y0348418D02*
X0381678Y0348418D01*
X0381678Y0351617D02*
X0391250Y0351617D01*
X0391250Y0354815D02*
X0381678Y0354815D01*
X0381678Y0358014D02*
X0391250Y0358014D01*
X0391250Y0361212D02*
X0381678Y0361212D01*
X0381678Y0364411D02*
X0388857Y0364411D01*
X0388399Y0367609D02*
X0381678Y0367609D01*
X0381678Y0370808D02*
X0391250Y0370808D01*
X0391250Y0374006D02*
X0381678Y0374006D01*
X0381678Y0377205D02*
X0391250Y0377205D01*
X0391250Y0380403D02*
X0381678Y0380403D01*
X0381678Y0383602D02*
X0391250Y0383602D01*
X0391250Y0386800D02*
X0381678Y0386800D01*
X0381678Y0389999D02*
X0391250Y0389999D01*
X0391250Y0393197D02*
X0381678Y0393197D01*
X0381678Y0396396D02*
X0382056Y0396396D01*
X0387944Y0396396D02*
X0391250Y0396396D01*
X0391250Y0399594D02*
X0390571Y0399594D01*
X0390877Y0402793D02*
X0391250Y0402793D01*
X0391250Y0405991D02*
X0388915Y0405991D01*
X0414648Y0342021D02*
X0444335Y0342021D01*
X0445368Y0338823D02*
X0416764Y0338823D01*
X0416534Y0335624D02*
X0446471Y0335624D01*
X0447910Y0332426D02*
X0413633Y0332426D01*
X0408867Y0332426D02*
X0403633Y0332426D01*
X0403016Y0322830D02*
X0409484Y0322830D01*
X0413016Y0322830D02*
X0452939Y0322830D01*
X0454901Y0319632D02*
X0416428Y0319632D01*
X0416850Y0316433D02*
X0457300Y0316433D01*
X0459699Y0313234D02*
X0415938Y0313234D01*
X0416647Y0310036D02*
X0462098Y0310036D01*
X0464497Y0306837D02*
X0417972Y0306837D01*
X0419878Y0303639D02*
X0465000Y0303639D01*
X0465000Y0300440D02*
X0422508Y0300440D01*
X0426342Y0297242D02*
X0465000Y0297242D01*
X0465000Y0294043D02*
X0432786Y0294043D01*
X0440000Y0288750D02*
X0460000Y0288750D01*
X0454376Y0280625D02*
X0454256Y0280531D01*
X0454134Y0280440D01*
X0454009Y0280352D01*
X0453883Y0280268D01*
X0453754Y0280186D01*
X0453623Y0280109D01*
X0453491Y0280034D01*
X0453356Y0279963D01*
X0453220Y0279895D01*
X0453082Y0279831D01*
X0452942Y0279771D01*
X0452801Y0279714D01*
X0452659Y0279660D01*
X0452515Y0279611D01*
X0452370Y0279565D01*
X0452224Y0279522D01*
X0452076Y0279484D01*
X0451928Y0279449D01*
X0451779Y0279418D01*
X0451630Y0279391D01*
X0451479Y0279368D01*
X0451328Y0279348D01*
X0451177Y0279333D01*
X0451025Y0279321D01*
X0450873Y0279313D01*
X0450721Y0279309D01*
X0450569Y0279309D01*
X0450417Y0279313D01*
X0450265Y0279321D01*
X0450113Y0279333D01*
X0449962Y0279348D01*
X0449811Y0279368D01*
X0449660Y0279391D01*
X0449511Y0279418D01*
X0449362Y0279449D01*
X0449214Y0279484D01*
X0449066Y0279522D01*
X0448920Y0279565D01*
X0448775Y0279611D01*
X0448631Y0279660D01*
X0448489Y0279714D01*
X0448348Y0279771D01*
X0448208Y0279831D01*
X0448070Y0279895D01*
X0447934Y0279963D01*
X0447799Y0280034D01*
X0447667Y0280109D01*
X0447536Y0280186D01*
X0447407Y0280268D01*
X0447281Y0280352D01*
X0447156Y0280440D01*
X0447034Y0280531D01*
X0446914Y0280625D01*
X0446797Y0280722D01*
X0446682Y0280822D01*
X0446570Y0280924D01*
X0446461Y0281030D01*
X0446354Y0281138D01*
X0446250Y0281250D01*
X0443750Y0282500D02*
X0440000Y0282500D01*
X0443750Y0282499D02*
X0443869Y0282488D01*
X0443987Y0282472D01*
X0444105Y0282453D01*
X0444222Y0282430D01*
X0444339Y0282404D01*
X0444454Y0282373D01*
X0444568Y0282339D01*
X0444682Y0282302D01*
X0444794Y0282261D01*
X0444904Y0282216D01*
X0445013Y0282168D01*
X0445121Y0282116D01*
X0445227Y0282061D01*
X0445331Y0282003D01*
X0445433Y0281941D01*
X0445533Y0281876D01*
X0445631Y0281808D01*
X0445727Y0281737D01*
X0445821Y0281663D01*
X0445912Y0281586D01*
X0446000Y0281506D01*
X0446086Y0281423D01*
X0446170Y0281338D01*
X0446250Y0281250D01*
X0443473Y0278051D02*
X0397284Y0278051D01*
X0399995Y0274852D02*
X0455000Y0274852D01*
X0455000Y0271654D02*
X0400631Y0271654D01*
X0399791Y0268455D02*
X0402030Y0268455D01*
X0409986Y0268455D02*
X0412030Y0268455D01*
X0419986Y0268455D02*
X0422030Y0268455D01*
X0429986Y0268455D02*
X0442030Y0268455D01*
X0439907Y0265257D02*
X0432109Y0265257D01*
X0432220Y0262058D02*
X0439796Y0262058D01*
X0441762Y0258860D02*
X0430254Y0258860D01*
X0421762Y0258860D02*
X0420254Y0258860D01*
X0411762Y0258860D02*
X0410254Y0258860D01*
X0401762Y0258860D02*
X0383458Y0258860D01*
X0383304Y0290845D02*
X0381678Y0290845D01*
X0381678Y0294043D02*
X0382607Y0294043D01*
X0381678Y0297242D02*
X0383554Y0297242D01*
X0383471Y0300440D02*
X0381678Y0300440D01*
X0381678Y0303639D02*
X0382607Y0303639D01*
X0383379Y0306837D02*
X0381678Y0306837D01*
X0461875Y0366250D02*
X0462862Y0365640D01*
X0463834Y0365007D01*
X0464791Y0364350D01*
X0465731Y0363670D01*
X0466655Y0362967D01*
X0467561Y0362243D01*
X0468449Y0361496D01*
X0469319Y0360728D01*
X0470170Y0359939D01*
X0471001Y0359130D01*
X0471813Y0358301D01*
X0472604Y0357452D01*
X0473375Y0356584D01*
X0474124Y0355698D01*
X0474851Y0354794D01*
X0475556Y0353873D01*
X0476239Y0352934D01*
X0476898Y0351980D01*
X0477534Y0351009D01*
X0478147Y0350024D01*
X0478735Y0349024D01*
X0479299Y0348009D01*
X0479838Y0346982D01*
X0480352Y0345942D01*
X0480840Y0344889D01*
X0481303Y0343825D01*
X0481740Y0342750D01*
X0482150Y0341665D01*
X0482534Y0340570D01*
X0482892Y0339466D01*
X0483222Y0338353D01*
X0483525Y0337233D01*
X0483801Y0336106D01*
X0484050Y0334973D01*
X0484271Y0333834D01*
X0484464Y0332690D01*
X0484629Y0331541D01*
X0484766Y0330389D01*
X0484876Y0329234D01*
X0484957Y0328076D01*
X0485010Y0326917D01*
X0485035Y0325757D01*
X0485032Y0324597D01*
X0485000Y0323437D01*
X0485000Y0323438D02*
X0485000Y0318438D01*
X0465000Y0318833D02*
X0465000Y0326250D01*
X0465077Y0327228D01*
X0465306Y0328181D01*
X0465681Y0329087D01*
X0466194Y0329924D01*
X0466831Y0330669D01*
X0467576Y0331306D01*
X0468413Y0331819D01*
X0469319Y0332194D01*
X0470272Y0332423D01*
X0471250Y0332500D01*
X0480113Y0333016D01*
X0480055Y0333531D01*
X0478306Y0339942D01*
X0477168Y0342500D01*
X0452286Y0342500D01*
X0453434Y0338947D01*
X0456804Y0331457D01*
X0460979Y0324383D01*
X0463352Y0321030D01*
X0463663Y0320615D01*
X0465000Y0318833D01*
X0465000Y0319632D02*
X0464401Y0319632D01*
X0465000Y0322830D02*
X0462078Y0322830D01*
X0460008Y0326029D02*
X0465000Y0326029D01*
X0465767Y0329227D02*
X0458120Y0329227D01*
X0456368Y0332426D02*
X0470304Y0332426D01*
X0479484Y0335624D02*
X0454929Y0335624D01*
X0453490Y0338823D02*
X0478612Y0338823D01*
X0477381Y0342021D02*
X0452440Y0342021D01*
X0401250Y0317500D02*
X0401346Y0316564D01*
X0401464Y0315631D01*
X0401606Y0314700D01*
X0401770Y0313774D01*
X0401957Y0312852D01*
X0402166Y0311934D01*
X0402398Y0311022D01*
X0402652Y0310116D01*
X0402928Y0309217D01*
X0403226Y0308324D01*
X0403546Y0307439D01*
X0403887Y0306562D01*
X0404250Y0305694D01*
X0404634Y0304835D01*
X0405039Y0303985D01*
X0405464Y0303146D01*
X0405910Y0302317D01*
X0406376Y0301500D01*
X0406862Y0300694D01*
X0407367Y0299900D01*
X0407892Y0299119D01*
X0408435Y0298351D01*
X0408998Y0297597D01*
X0409578Y0296856D01*
X0410177Y0296130D01*
X0410793Y0295419D01*
X0411426Y0294723D01*
X0412076Y0294043D01*
X0412743Y0293379D01*
X0413426Y0292731D01*
X0414124Y0292100D01*
X0414837Y0291487D01*
X0415566Y0290891D01*
X0416308Y0290313D01*
X0417065Y0289754D01*
X0417835Y0289213D01*
X0418618Y0288691D01*
X0419414Y0288189D01*
X0420221Y0287706D01*
X0421041Y0287243D01*
X0421871Y0286800D01*
X0422712Y0286378D01*
X0423563Y0285976D01*
X0424423Y0285596D01*
X0425293Y0285236D01*
X0426171Y0284898D01*
X0427057Y0284582D01*
X0427951Y0284287D01*
X0428851Y0284014D01*
X0429758Y0283764D01*
X0430671Y0283535D01*
X0431589Y0283329D01*
X0432512Y0283146D01*
X0433439Y0282985D01*
X0434370Y0282847D01*
X0435304Y0282732D01*
X0436240Y0282639D01*
X0437179Y0282570D01*
X0438119Y0282523D01*
X0439059Y0282500D01*
X0440000Y0282500D01*
X0449986Y0268455D02*
X0452030Y0268455D01*
X0454375Y0280624D02*
X0454527Y0280748D01*
X0454682Y0280868D01*
X0454839Y0280984D01*
X0455000Y0281096D01*
X0455163Y0281204D01*
X0455328Y0281309D01*
X0455497Y0281409D01*
X0455667Y0281505D01*
X0455840Y0281597D01*
X0456015Y0281685D01*
X0456192Y0281769D01*
X0456370Y0281848D01*
X0456551Y0281924D01*
X0456734Y0281994D01*
X0456918Y0282061D01*
X0457104Y0282123D01*
X0457291Y0282180D01*
X0457479Y0282233D01*
X0457669Y0282281D01*
X0457860Y0282325D01*
X0458052Y0282364D01*
X0458244Y0282399D01*
X0458438Y0282429D01*
X0458632Y0282454D01*
X0458826Y0282475D01*
X0459022Y0282490D01*
X0459217Y0282502D01*
X0459413Y0282508D01*
X0459608Y0282510D01*
X0459804Y0282507D01*
X0460000Y0282499D01*
X0460254Y0258860D02*
X0461762Y0258860D01*
X0470254Y0258860D02*
X0471762Y0258860D01*
X0480254Y0258860D02*
X0481762Y0258860D01*
X0490254Y0258860D02*
X0491762Y0258860D01*
X0496008Y0263524D02*
X0496250Y0265000D01*
X0493750Y0267500D01*
X0500254Y0258860D02*
X0507762Y0258860D01*
X0516254Y0258860D02*
X0517762Y0258860D01*
X0526254Y0258860D02*
X0527762Y0258860D01*
X0536254Y0258860D02*
X0537762Y0258860D01*
X0546254Y0258860D02*
X0547762Y0258860D01*
X0556254Y0258860D02*
X0557762Y0258860D01*
X0566254Y0258860D02*
X0567762Y0258860D01*
X0576254Y0258860D02*
X0577762Y0258860D01*
X0586254Y0258860D02*
X0604180Y0258860D01*
X0605780Y0262058D02*
X0588220Y0262058D01*
X0588109Y0265257D02*
X0591705Y0265257D01*
X0596895Y0265257D02*
X0605960Y0265257D01*
X0605960Y0268455D02*
X0600591Y0268455D01*
X0601431Y0271654D02*
X0605960Y0271654D01*
X0605960Y0274852D02*
X0600795Y0274852D01*
X0600000Y0278051D02*
X0605960Y0278051D01*
X0605960Y0281249D02*
X0600404Y0281249D01*
X0600950Y0284448D02*
X0605960Y0284448D01*
X0515311Y0339804D02*
X0515018Y0339418D01*
X0514648Y0339104D01*
X0514416Y0338982D01*
X0514176Y0339560D01*
X0512998Y0340739D01*
X0511458Y0341376D01*
X0509792Y0341376D01*
X0508252Y0340739D01*
X0507074Y0339560D01*
X0506436Y0338021D01*
X0506436Y0337008D01*
X0506064Y0336919D01*
X0506064Y0338021D01*
X0505426Y0339560D01*
X0504248Y0340739D01*
X0502708Y0341376D01*
X0501042Y0341376D01*
X0499502Y0340739D01*
X0498324Y0339560D01*
X0497686Y0338021D01*
X0497686Y0336354D01*
X0498106Y0335340D01*
X0492683Y0334379D01*
X0488595Y0333900D01*
X0488453Y0335144D01*
X0488453Y0335144D01*
X0486447Y0342500D01*
X0515000Y0342500D01*
X0515298Y0342117D01*
X0515506Y0341678D01*
X0515613Y0341205D01*
X0515616Y0340720D01*
X0515514Y0340245D01*
X0515311Y0339804D01*
X0515343Y0342021D02*
X0486578Y0342021D01*
X0487450Y0338823D02*
X0498018Y0338823D01*
X0497988Y0335624D02*
X0488322Y0335624D01*
X0505732Y0338823D02*
X0506768Y0338823D01*
X0440000Y0288750D02*
X0439305Y0288758D01*
X0438611Y0288784D01*
X0437917Y0288826D01*
X0437225Y0288884D01*
X0436535Y0288960D01*
X0435846Y0289052D01*
X0435160Y0289160D01*
X0434476Y0289286D01*
X0433796Y0289427D01*
X0433120Y0289585D01*
X0432447Y0289760D01*
X0431779Y0289950D01*
X0431116Y0290157D01*
X0430458Y0290380D01*
X0429805Y0290618D01*
X0429159Y0290872D01*
X0428518Y0291142D01*
X0427885Y0291427D01*
X0427258Y0291728D01*
X0426639Y0292043D01*
X0426028Y0292373D01*
X0425425Y0292718D01*
X0424830Y0293078D01*
X0424245Y0293451D01*
X0423668Y0293839D01*
X0423101Y0294241D01*
X0422544Y0294656D01*
X0421997Y0295084D01*
X0421461Y0295526D01*
X0420935Y0295980D01*
X0420421Y0296447D01*
X0419918Y0296927D01*
X0419427Y0297418D01*
X0418947Y0297921D01*
X0418480Y0298435D01*
X0418026Y0298961D01*
X0417584Y0299497D01*
X0417156Y0300044D01*
X0416741Y0300601D01*
X0416339Y0301168D01*
X0415951Y0301745D01*
X0415578Y0302330D01*
X0415218Y0302925D01*
X0414873Y0303528D01*
X0414543Y0304139D01*
X0414228Y0304758D01*
X0413927Y0305385D01*
X0413642Y0306018D01*
X0413372Y0306659D01*
X0413118Y0307305D01*
X0412880Y0307958D01*
X0412657Y0308616D01*
X0412450Y0309279D01*
X0412260Y0309947D01*
X0412085Y0310620D01*
X0411927Y0311296D01*
X0411786Y0311976D01*
X0411660Y0312660D01*
X0411552Y0313346D01*
X0411460Y0314035D01*
X0411384Y0314725D01*
X0411326Y0315417D01*
X0411284Y0316111D01*
X0411258Y0316805D01*
X0411250Y0317500D01*
X0450254Y0258860D02*
X0451762Y0258860D01*
X0505000Y0270001D02*
X0505653Y0269542D01*
X0506294Y0269067D01*
X0506924Y0268577D01*
X0507542Y0268072D01*
X0508147Y0267552D01*
X0508739Y0267017D01*
X0509319Y0266468D01*
X0509885Y0265906D01*
X0510437Y0265330D01*
X0510975Y0264741D01*
X0511499Y0264139D01*
X0512008Y0263524D01*
X0493750Y0267501D02*
X0492760Y0268410D01*
X0491749Y0269296D01*
X0490716Y0270157D01*
X0489663Y0270992D01*
X0488591Y0271803D01*
X0487499Y0272587D01*
X0486388Y0273344D01*
X0485260Y0274075D01*
X0484114Y0274778D01*
X0482952Y0275454D01*
X0481774Y0276101D01*
X0480581Y0276720D01*
X0479373Y0277310D01*
X0478151Y0277871D01*
X0476916Y0278402D01*
X0475669Y0278903D01*
X0474410Y0279374D01*
X0473139Y0279815D01*
X0471859Y0280225D01*
X0470569Y0280604D01*
X0469271Y0280952D01*
X0467964Y0281269D01*
X0466651Y0281554D01*
X0465330Y0281807D01*
X0464005Y0282029D01*
X0462674Y0282218D01*
X0461339Y0282375D01*
X0460000Y0282501D01*
X0459999Y0288750D02*
X0462681Y0288239D01*
X0465350Y0287663D01*
X0468003Y0287022D01*
X0470641Y0286317D01*
X0473260Y0285549D01*
X0475860Y0284717D01*
X0478439Y0283821D01*
X0480996Y0282864D01*
X0483529Y0281845D01*
X0486036Y0280764D01*
X0488516Y0279623D01*
X0490967Y0278422D01*
X0493389Y0277162D01*
X0495779Y0275843D01*
X0498137Y0274467D01*
X0500460Y0273034D01*
X0502748Y0271544D01*
X0504999Y0270000D01*
X0537188Y0400000D02*
X0538750Y0401875D01*
X0538844Y0402003D01*
X0538934Y0402133D01*
X0539021Y0402266D01*
X0539104Y0402401D01*
X0539184Y0402537D01*
X0539261Y0402676D01*
X0539335Y0402817D01*
X0539405Y0402959D01*
X0539471Y0403103D01*
X0539534Y0403249D01*
X0539593Y0403396D01*
X0539648Y0403544D01*
X0539700Y0403694D01*
X0539748Y0403845D01*
X0539793Y0403997D01*
X0539833Y0404151D01*
X0539870Y0404305D01*
X0539903Y0404460D01*
X0539932Y0404616D01*
X0539958Y0404772D01*
X0539979Y0404929D01*
X0539997Y0405087D01*
X0540010Y0405245D01*
X0540020Y0405403D01*
X0540026Y0405561D01*
X0540028Y0405720D01*
X0540026Y0405879D01*
X0540020Y0406037D01*
X0540010Y0406195D01*
X0539997Y0406353D01*
X0539979Y0406511D01*
X0539958Y0406668D01*
X0539932Y0406824D01*
X0539903Y0406980D01*
X0539870Y0407135D01*
X0539833Y0407290D01*
X0539793Y0407443D01*
X0539748Y0407595D01*
X0539700Y0407746D01*
X0539648Y0407896D01*
X0539593Y0408044D01*
X0539534Y0408192D01*
X0539471Y0408337D01*
X0539405Y0408481D01*
X0539335Y0408623D01*
X0539261Y0408764D01*
X0539184Y0408903D01*
X0539104Y0409039D01*
X0539021Y0409174D01*
X0538934Y0409307D01*
X0538844Y0409437D01*
X0538750Y0409565D01*
X0538654Y0409691D01*
X0538554Y0409815D01*
X0538452Y0409936D01*
X0538346Y0410054D01*
X0538238Y0410170D01*
X0538127Y0410283D01*
X0538013Y0410393D01*
X0537896Y0410500D01*
X0537777Y0410605D01*
X0537655Y0410706D01*
X0537531Y0410805D01*
X0537404Y0410900D01*
X0537275Y0410993D01*
X0537144Y0411082D01*
X0537011Y0411167D01*
X0536875Y0411250D01*
X0536725Y0411319D01*
X0536577Y0411393D01*
X0536430Y0411470D01*
X0536285Y0411550D01*
X0536142Y0411634D01*
X0536002Y0411722D01*
X0535863Y0411812D01*
X0535727Y0411907D01*
X0535593Y0412004D01*
X0535461Y0412104D01*
X0535332Y0412208D01*
X0535206Y0412315D01*
X0535082Y0412425D01*
X0534960Y0412538D01*
X0534842Y0412653D01*
X0534726Y0412772D01*
X0534613Y0412893D01*
X0534503Y0413017D01*
X0534397Y0413144D01*
X0534293Y0413273D01*
X0534192Y0413404D01*
X0534095Y0413538D01*
X0534001Y0413675D01*
X0533910Y0413813D01*
X0533823Y0413954D01*
X0533739Y0414097D01*
X0533658Y0414241D01*
X0533581Y0414388D01*
X0533508Y0414536D01*
X0533438Y0414687D01*
X0533372Y0414839D01*
X0533309Y0414992D01*
X0533251Y0415147D01*
X0533196Y0415303D01*
X0533144Y0415461D01*
X0533097Y0415619D01*
X0533054Y0415779D01*
X0533014Y0415940D01*
X0532978Y0416102D01*
X0532946Y0416264D01*
X0532918Y0416427D01*
X0532895Y0416591D01*
X0532875Y0416756D01*
X0532859Y0416921D01*
X0532847Y0417086D01*
X0532839Y0417251D01*
X0532835Y0417417D01*
X0532834Y0417582D01*
X0532838Y0417748D01*
X0532846Y0417913D01*
X0532858Y0418079D01*
X0532874Y0418244D01*
X0532894Y0418408D01*
X0532918Y0418572D01*
X0532946Y0418735D01*
X0532978Y0418898D01*
X0533014Y0419059D01*
X0533053Y0419220D01*
X0533097Y0419380D01*
X0533144Y0419539D01*
X0533195Y0419696D01*
X0533250Y0419853D01*
X0533309Y0420007D01*
X0533372Y0420161D01*
X0533438Y0420313D01*
D17*
X0482812Y0400000D02*
X0487812Y0380625D01*
X0487812Y0362187D01*
X0487812Y0358125D01*
X0487812Y0354062D01*
X0521875Y0330625D02*
X0522613Y0331205D01*
X0523338Y0331802D01*
X0524048Y0332415D01*
X0524744Y0333044D01*
X0525426Y0333689D01*
X0526093Y0334350D01*
X0526744Y0335025D01*
X0527380Y0335715D01*
X0528000Y0336420D01*
X0528603Y0337139D01*
X0529190Y0337871D01*
X0529760Y0338617D01*
X0530313Y0339375D01*
X0530313Y0339374D02*
X0530398Y0339606D01*
X0530488Y0339836D01*
X0530584Y0340064D01*
X0530685Y0340289D01*
X0530792Y0340512D01*
X0530904Y0340732D01*
X0531022Y0340949D01*
X0531145Y0341164D01*
X0531272Y0341375D01*
X0531405Y0341583D01*
X0531543Y0341788D01*
X0531686Y0341990D01*
X0531834Y0342188D01*
X0531986Y0342382D01*
X0532143Y0342573D01*
X0532304Y0342760D01*
X0532471Y0342943D01*
X0532641Y0343121D01*
X0532816Y0343296D01*
X0532994Y0343466D01*
X0533177Y0343633D01*
X0533364Y0343794D01*
X0533555Y0343951D01*
X0533749Y0344103D01*
X0533947Y0344251D01*
X0534149Y0344394D01*
X0534354Y0344532D01*
X0534562Y0344665D01*
X0534773Y0344792D01*
X0534988Y0344915D01*
X0535205Y0345033D01*
X0535425Y0345145D01*
X0535648Y0345252D01*
X0535873Y0345353D01*
X0536101Y0345449D01*
X0536331Y0345539D01*
X0536563Y0345624D01*
X0536562Y0345626D02*
X0536733Y0345688D01*
X0536902Y0345755D01*
X0537070Y0345825D01*
X0537236Y0345900D01*
X0537400Y0345979D01*
X0537562Y0346062D01*
X0537722Y0346148D01*
X0537880Y0346239D01*
X0538035Y0346333D01*
X0538188Y0346431D01*
X0538339Y0346532D01*
X0538488Y0346638D01*
X0538634Y0346747D01*
X0538777Y0346859D01*
X0538917Y0346975D01*
X0539054Y0347094D01*
X0539189Y0347216D01*
X0539321Y0347342D01*
X0539449Y0347471D01*
X0539575Y0347603D01*
X0539697Y0347737D01*
X0539815Y0347875D01*
X0539931Y0348016D01*
X0540043Y0348159D01*
X0540151Y0348305D01*
X0540256Y0348454D01*
X0540358Y0348605D01*
X0540455Y0348759D01*
X0540549Y0348914D01*
X0540639Y0349072D01*
X0540725Y0349233D01*
X0540808Y0349395D01*
X0540886Y0349559D01*
X0540960Y0349725D01*
X0541031Y0349893D01*
X0541097Y0350062D01*
X0541159Y0350233D01*
X0541217Y0350406D01*
X0541271Y0350580D01*
X0541320Y0350755D01*
X0541366Y0350931D01*
X0541407Y0351108D01*
X0541443Y0351286D01*
X0541476Y0351465D01*
X0541504Y0351645D01*
X0541527Y0351826D01*
X0541547Y0352006D01*
X0541562Y0352188D01*
X0521876Y0330625D02*
X0521474Y0330343D01*
X0521067Y0330071D01*
X0520652Y0329809D01*
X0520232Y0329556D01*
X0519806Y0329314D01*
X0519374Y0329082D01*
X0518937Y0328860D01*
X0518494Y0328649D01*
X0518047Y0328449D01*
X0517595Y0328259D01*
X0517139Y0328079D01*
X0516678Y0327911D01*
X0516214Y0327754D01*
X0515746Y0327608D01*
X0515274Y0327473D01*
X0514800Y0327349D01*
X0514323Y0327237D01*
X0513843Y0327135D01*
X0513361Y0327046D01*
X0512877Y0326968D01*
X0512391Y0326901D01*
X0511904Y0326846D01*
X0511416Y0326803D01*
X0510927Y0326771D01*
X0510437Y0326751D01*
X0509947Y0326742D01*
X0509456Y0326745D01*
X0508966Y0326760D01*
X0508477Y0326787D01*
X0507988Y0326825D01*
X0507500Y0326875D01*
X0478124Y0309375D02*
X0478073Y0308852D01*
X0478035Y0308327D01*
X0478010Y0307802D01*
X0477997Y0307277D01*
X0477998Y0306751D01*
X0478011Y0306226D01*
X0478037Y0305701D01*
X0478076Y0305177D01*
X0478128Y0304654D01*
X0478193Y0304132D01*
X0478270Y0303612D01*
X0478360Y0303094D01*
X0478463Y0302579D01*
X0478578Y0302066D01*
X0478706Y0301556D01*
X0478847Y0301049D01*
X0478999Y0300546D01*
X0479164Y0300047D01*
X0479341Y0299552D01*
X0479531Y0299062D01*
X0479732Y0298576D01*
X0479945Y0298096D01*
X0480170Y0297621D01*
X0480406Y0297151D01*
X0480654Y0296688D01*
X0480913Y0296230D01*
X0481183Y0295779D01*
X0481464Y0295335D01*
X0481756Y0294898D01*
X0482058Y0294468D01*
X0482371Y0294046D01*
X0482694Y0293631D01*
X0483028Y0293225D01*
X0483371Y0292827D01*
X0483724Y0292437D01*
X0484086Y0292056D01*
X0484457Y0291684D01*
X0484838Y0291321D01*
X0485227Y0290968D01*
X0485625Y0290624D01*
X0478125Y0309375D02*
X0478125Y0322813D01*
X0506875Y0277500D02*
X0507293Y0277186D01*
X0507718Y0276883D01*
X0508150Y0276590D01*
X0508590Y0276307D01*
X0509036Y0276036D01*
X0509489Y0275775D01*
X0509948Y0275526D01*
X0510413Y0275288D01*
X0510884Y0275061D01*
X0511360Y0274846D01*
X0511842Y0274643D01*
X0512328Y0274451D01*
X0512819Y0274272D01*
X0513313Y0274104D01*
X0513812Y0273949D01*
X0514315Y0273806D01*
X0514821Y0273675D01*
X0515330Y0273557D01*
X0515841Y0273451D01*
X0516355Y0273358D01*
X0516872Y0273278D01*
X0517390Y0273210D01*
X0517909Y0273155D01*
X0518430Y0273112D01*
X0518952Y0273082D01*
X0519474Y0273065D01*
X0519996Y0273061D01*
X0520519Y0273070D01*
X0521041Y0273091D01*
X0521562Y0273125D01*
X0553750Y0273125D01*
X0553751Y0273125D02*
X0554090Y0273152D01*
X0554429Y0273187D01*
X0554767Y0273230D01*
X0555103Y0273281D01*
X0555439Y0273341D01*
X0555773Y0273408D01*
X0556105Y0273484D01*
X0556435Y0273567D01*
X0556763Y0273659D01*
X0557089Y0273758D01*
X0557412Y0273865D01*
X0557733Y0273980D01*
X0558050Y0274103D01*
X0558365Y0274234D01*
X0558676Y0274372D01*
X0558984Y0274517D01*
X0559289Y0274670D01*
X0559589Y0274830D01*
X0559886Y0274997D01*
X0560178Y0275172D01*
X0560467Y0275353D01*
X0560750Y0275542D01*
X0561029Y0275737D01*
X0561304Y0275939D01*
X0561573Y0276147D01*
X0561837Y0276362D01*
X0562096Y0276583D01*
X0562350Y0276811D01*
X0562598Y0277044D01*
X0562840Y0277284D01*
X0563076Y0277529D01*
X0563307Y0277780D01*
X0563531Y0278036D01*
X0563749Y0278298D01*
X0563961Y0278564D01*
X0564166Y0278836D01*
X0564364Y0279113D01*
X0564556Y0279395D01*
X0564741Y0279681D01*
X0564919Y0279971D01*
X0565090Y0280266D01*
X0565254Y0280564D01*
X0565410Y0280867D01*
X0565559Y0281173D01*
X0565701Y0281483D01*
X0565835Y0281796D01*
X0565961Y0282112D01*
X0566080Y0282431D01*
X0566191Y0282753D01*
X0566294Y0283078D01*
X0566390Y0283405D01*
X0566477Y0283734D01*
X0566557Y0284065D01*
X0566628Y0284398D01*
X0566692Y0284733D01*
X0566747Y0285069D01*
X0566794Y0285406D01*
X0566833Y0285745D01*
X0566864Y0286084D01*
X0566886Y0286424D01*
X0566901Y0286764D01*
X0566907Y0287104D01*
X0566905Y0287445D01*
X0566894Y0287785D01*
X0566876Y0288126D01*
X0566875Y0288125D02*
X0566869Y0288278D01*
X0566867Y0288432D01*
X0566869Y0288585D01*
X0566875Y0288738D01*
X0566884Y0288890D01*
X0566898Y0289043D01*
X0566915Y0289195D01*
X0566937Y0289347D01*
X0566962Y0289498D01*
X0566991Y0289648D01*
X0567024Y0289797D01*
X0567061Y0289946D01*
X0567102Y0290094D01*
X0567147Y0290240D01*
X0567195Y0290385D01*
X0567247Y0290529D01*
X0567303Y0290672D01*
X0567362Y0290813D01*
X0567425Y0290953D01*
X0567492Y0291091D01*
X0567562Y0291227D01*
X0567635Y0291361D01*
X0567712Y0291493D01*
X0567792Y0291624D01*
X0567876Y0291752D01*
X0567963Y0291878D01*
X0568053Y0292002D01*
X0568147Y0292123D01*
X0568243Y0292242D01*
X0568343Y0292358D01*
X0568445Y0292472D01*
X0568550Y0292583D01*
X0568658Y0292692D01*
X0568769Y0292797D01*
X0568883Y0292900D01*
X0568999Y0293000D01*
X0569118Y0293096D01*
X0569239Y0293190D01*
X0569363Y0293280D01*
X0569488Y0293368D01*
X0569616Y0293452D01*
X0569747Y0293532D01*
X0569879Y0293610D01*
X0570013Y0293683D01*
X0570149Y0293754D01*
X0570287Y0293821D01*
X0570426Y0293884D01*
X0570567Y0293943D01*
X0570710Y0294000D01*
X0570853Y0294052D01*
X0570999Y0294100D01*
X0571145Y0294145D01*
X0571293Y0294186D01*
X0571441Y0294224D01*
X0571590Y0294257D01*
X0571741Y0294287D01*
X0571892Y0294312D01*
X0572043Y0294334D01*
X0572195Y0294352D01*
X0572348Y0294366D01*
X0572500Y0294376D01*
X0572500Y0294375D02*
X0577500Y0294375D01*
X0577500Y0299375D01*
X0572500Y0299375D01*
X0572500Y0294375D01*
X0577812Y0356562D02*
X0577053Y0356939D01*
X0576286Y0357297D01*
X0575510Y0357637D01*
X0574727Y0357959D01*
X0573936Y0358262D01*
X0573138Y0358547D01*
X0572334Y0358813D01*
X0571524Y0359060D01*
X0570708Y0359289D01*
X0569888Y0359498D01*
X0569062Y0359687D01*
X0555313Y0374688D02*
X0555478Y0374957D01*
X0555637Y0375229D01*
X0555790Y0375505D01*
X0555937Y0375785D01*
X0556077Y0376067D01*
X0556211Y0376353D01*
X0556338Y0376642D01*
X0556459Y0376934D01*
X0556573Y0377228D01*
X0556681Y0377525D01*
X0556781Y0377824D01*
X0556875Y0378125D01*
X0465000Y0431562D02*
X0453125Y0431562D01*
X0449062Y0431562D01*
X0445000Y0431562D01*
X0440937Y0431562D01*
X0438437Y0431562D01*
X0438437Y0431563D02*
X0437892Y0431617D01*
X0437345Y0431659D01*
X0436798Y0431686D01*
X0436250Y0431701D01*
X0435702Y0431702D01*
X0435154Y0431689D01*
X0434607Y0431663D01*
X0434060Y0431624D01*
X0433515Y0431571D01*
X0432971Y0431505D01*
X0432429Y0431426D01*
X0431889Y0431333D01*
X0431351Y0431227D01*
X0430816Y0431108D01*
X0430284Y0430976D01*
X0429756Y0430830D01*
X0429231Y0430672D01*
X0428711Y0430501D01*
X0428194Y0430318D01*
X0427683Y0430121D01*
X0427176Y0429912D01*
X0426675Y0429691D01*
X0426179Y0429458D01*
X0425689Y0429212D01*
X0425205Y0428955D01*
X0424728Y0428686D01*
X0424257Y0428405D01*
X0423794Y0428112D01*
X0423338Y0427809D01*
X0422889Y0427494D01*
X0422448Y0427168D01*
X0422016Y0426832D01*
X0421592Y0426485D01*
X0421176Y0426128D01*
X0420769Y0425760D01*
X0420372Y0425383D01*
X0419984Y0424996D01*
X0419605Y0424600D01*
X0419236Y0424195D01*
X0418878Y0423780D01*
X0418529Y0423357D01*
X0418191Y0422926D01*
X0417864Y0422486D01*
X0417548Y0422039D01*
X0417243Y0421584D01*
X0416949Y0421121D01*
X0416666Y0420652D01*
X0416395Y0420176D01*
X0416136Y0419693D01*
X0415889Y0419204D01*
X0415653Y0418709D01*
X0415431Y0418208D01*
X0415220Y0417702D01*
X0415022Y0417191D01*
X0414836Y0416676D01*
X0414663Y0416156D01*
X0414503Y0415631D01*
X0414356Y0415104D01*
X0414222Y0414572D01*
X0414101Y0414038D01*
X0413993Y0413500D01*
X0413899Y0412961D01*
X0413817Y0412419D01*
X0413749Y0411875D01*
X0465000Y0431563D02*
X0465595Y0431389D01*
X0466185Y0431202D01*
X0466770Y0431000D01*
X0467351Y0430784D01*
X0467926Y0430554D01*
X0468495Y0430310D01*
X0469058Y0430053D01*
X0469615Y0429782D01*
X0470165Y0429497D01*
X0470708Y0429200D01*
X0471244Y0428889D01*
X0471772Y0428566D01*
X0472292Y0428230D01*
X0472804Y0427881D01*
X0473308Y0427520D01*
X0473802Y0427147D01*
X0474287Y0426763D01*
X0474763Y0426366D01*
X0475229Y0425959D01*
X0475685Y0425540D01*
X0476131Y0425110D01*
X0476567Y0424670D01*
X0476991Y0424219D01*
X0477405Y0423758D01*
X0477807Y0423287D01*
X0478198Y0422807D01*
X0478577Y0422317D01*
X0478944Y0421818D01*
X0479299Y0421311D01*
X0479642Y0420795D01*
X0479972Y0420271D01*
X0480289Y0419739D01*
X0480594Y0419200D01*
X0480885Y0418653D01*
X0481163Y0418100D01*
X0481427Y0417540D01*
X0481678Y0416974D01*
X0481915Y0416402D01*
X0482139Y0415824D01*
X0482348Y0415241D01*
X0482543Y0414653D01*
X0482724Y0414061D01*
X0482890Y0413465D01*
X0483042Y0412864D01*
X0483180Y0412260D01*
X0483303Y0411653D01*
X0483411Y0411044D01*
X0483504Y0410431D01*
X0483583Y0409817D01*
X0483646Y0409201D01*
X0483695Y0408584D01*
X0483729Y0407965D01*
X0483748Y0407346D01*
X0483752Y0406727D01*
X0483741Y0406108D01*
X0483714Y0405489D01*
X0483674Y0404871D01*
X0483618Y0404254D01*
X0483547Y0403639D01*
X0483461Y0403026D01*
X0483361Y0402415D01*
X0483246Y0401806D01*
X0483116Y0401201D01*
X0482972Y0400599D01*
X0482813Y0400000D01*
X0485625Y0290625D02*
X0488793Y0288974D01*
X0491920Y0287247D01*
X0495004Y0285444D01*
X0498044Y0283567D01*
X0501036Y0281616D01*
X0503981Y0279593D01*
X0506875Y0277500D01*
D18*
X0506627Y0279986D02*
X0505014Y0280654D01*
X0503779Y0281889D01*
X0503111Y0283502D01*
X0503111Y0285248D01*
X0503779Y0286861D01*
X0505014Y0288096D01*
X0506627Y0288764D01*
X0507161Y0288764D01*
X0507004Y0289599D01*
X0507004Y0289599D01*
X0507182Y0290980D01*
X0507090Y0291305D01*
X0506238Y0292822D01*
X0504959Y0294002D01*
X0503379Y0294728D01*
X0503379Y0294728D01*
X0501651Y0294931D01*
X0500804Y0294830D01*
X0500738Y0294818D01*
X0500094Y0294690D01*
X0500639Y0293373D01*
X0500639Y0291627D01*
X0499971Y0290014D01*
X0498736Y0288779D01*
X0497123Y0288111D01*
X0495377Y0288111D01*
X0493764Y0288779D01*
X0492529Y0290014D01*
X0491861Y0291627D01*
X0491861Y0292631D01*
X0488644Y0293145D01*
X0488644Y0293145D01*
X0485716Y0294840D01*
X0485716Y0294840D01*
X0485716Y0294840D01*
X0483590Y0297472D01*
X0483590Y0297472D01*
X0483148Y0298838D01*
X0482417Y0300389D01*
X0482070Y0302076D01*
X0481590Y0303492D01*
X0481590Y0303492D01*
X0481556Y0306978D01*
X0481556Y0306978D01*
X0482611Y0310300D01*
X0482611Y0310300D01*
X0483451Y0311466D01*
X0484764Y0314038D01*
X0484125Y0314038D01*
X0482508Y0314707D01*
X0481270Y0315945D01*
X0480600Y0317562D01*
X0480600Y0322652D01*
X0480569Y0322736D01*
X0480600Y0323524D01*
X0480600Y0324313D01*
X0480604Y0324323D01*
X0480607Y0326920D01*
X0480541Y0327500D01*
X0471250Y0327500D01*
X0471250Y0311207D01*
X0472471Y0309986D01*
X0473139Y0308373D01*
X0473139Y0306627D01*
X0472471Y0305014D01*
X0471250Y0303793D01*
X0471250Y0290733D01*
X0479323Y0288364D01*
X0479323Y0288364D01*
X0491119Y0283449D01*
X0491119Y0283449D01*
X0502309Y0277276D01*
X0502309Y0277276D01*
X0507510Y0273614D01*
X0509730Y0272092D01*
X0509730Y0272092D01*
X0510211Y0271648D01*
X0587169Y0272433D01*
X0587169Y0273318D01*
X0588255Y0275939D01*
X0590261Y0277945D01*
X0591864Y0278609D01*
X0591630Y0278706D01*
X0589956Y0280380D01*
X0589050Y0282567D01*
X0589050Y0284933D01*
X0589956Y0287120D01*
X0591630Y0288794D01*
X0593750Y0289672D01*
X0593750Y0290254D01*
X0593697Y0290307D01*
X0592732Y0292638D01*
X0592732Y0295162D01*
X0593697Y0297493D01*
X0595104Y0298900D01*
X0593697Y0300307D01*
X0592732Y0302638D01*
X0592732Y0305162D01*
X0593697Y0307493D01*
X0595482Y0309278D01*
X0597813Y0310243D01*
X0599255Y0310243D01*
X0597954Y0311545D01*
X0597025Y0313787D01*
X0597025Y0315000D01*
X0558750Y0315000D01*
X0558750Y0302500D01*
X0557500Y0301250D01*
X0553590Y0297866D01*
X0549377Y0294869D01*
X0544898Y0292285D01*
X0542664Y0291266D01*
X0542826Y0290873D01*
X0542826Y0289127D01*
X0542158Y0287514D01*
X0541776Y0287132D01*
X0541882Y0287165D01*
X0542407Y0287475D01*
X0542552Y0287637D01*
X0542975Y0287840D01*
X0543360Y0288109D01*
X0543686Y0288181D01*
X0545078Y0288849D01*
X0549054Y0289383D01*
X0549054Y0289383D01*
X0553001Y0288661D01*
X0553001Y0288661D01*
X0556532Y0286755D01*
X0556532Y0286755D01*
X0559300Y0283852D01*
X0559300Y0283852D01*
X0559366Y0283716D01*
X0560283Y0282799D01*
X0560951Y0281186D01*
X0560951Y0279439D01*
X0560283Y0277826D01*
X0559049Y0276592D01*
X0557436Y0275924D01*
X0555689Y0275924D01*
X0554076Y0276592D01*
X0552842Y0277826D01*
X0552174Y0279439D01*
X0552174Y0279650D01*
X0551581Y0280271D01*
X0550297Y0280965D01*
X0548861Y0281227D01*
X0547414Y0281033D01*
X0546937Y0280849D01*
X0545489Y0279836D01*
X0545489Y0279836D01*
X0541290Y0278516D01*
X0541290Y0278516D01*
X0536888Y0278523D01*
X0536888Y0278523D01*
X0532693Y0279854D01*
X0532693Y0279854D01*
X0531348Y0280800D01*
X0531576Y0280248D01*
X0531576Y0278502D01*
X0530908Y0276889D01*
X0529674Y0275654D01*
X0528061Y0274986D01*
X0526314Y0274986D01*
X0524917Y0275565D01*
X0524053Y0275643D01*
X0523928Y0275613D01*
X0523264Y0275715D01*
X0522595Y0275776D01*
X0522482Y0275836D01*
X0519127Y0276352D01*
X0517013Y0276624D01*
X0517013Y0276624D01*
X0513072Y0278492D01*
X0513072Y0278492D01*
X0510372Y0281040D01*
X0509986Y0280654D01*
X0508373Y0279986D01*
X0506627Y0279986D01*
X0505548Y0280433D02*
X0496586Y0280433D01*
X0492239Y0282832D02*
X0503389Y0282832D01*
X0503111Y0285230D02*
X0486845Y0285230D01*
X0481088Y0287629D02*
X0504547Y0287629D01*
X0511250Y0291250D02*
X0511202Y0291476D01*
X0511149Y0291701D01*
X0511090Y0291924D01*
X0511026Y0292146D01*
X0510956Y0292366D01*
X0510881Y0292585D01*
X0510801Y0292802D01*
X0510715Y0293016D01*
X0510625Y0293229D01*
X0510529Y0293439D01*
X0510428Y0293647D01*
X0510323Y0293853D01*
X0510212Y0294055D01*
X0510097Y0294256D01*
X0509976Y0294453D01*
X0509851Y0294647D01*
X0509721Y0294838D01*
X0509587Y0295026D01*
X0509448Y0295211D01*
X0509305Y0295392D01*
X0509157Y0295570D01*
X0509006Y0295744D01*
X0508850Y0295915D01*
X0508690Y0296081D01*
X0508526Y0296244D01*
X0508358Y0296403D01*
X0508186Y0296557D01*
X0508011Y0296708D01*
X0507832Y0296854D01*
X0507649Y0296996D01*
X0507463Y0297133D01*
X0507274Y0297266D01*
X0507082Y0297394D01*
X0506887Y0297517D01*
X0506688Y0297636D01*
X0506487Y0297750D01*
X0506284Y0297859D01*
X0506077Y0297963D01*
X0505869Y0298062D01*
X0505658Y0298156D01*
X0505444Y0298245D01*
X0505229Y0298328D01*
X0505012Y0298407D01*
X0504793Y0298480D01*
X0504572Y0298548D01*
X0504349Y0298610D01*
X0504125Y0298667D01*
X0503900Y0298719D01*
X0503674Y0298765D01*
X0503446Y0298806D01*
X0503218Y0298841D01*
X0502989Y0298871D01*
X0502759Y0298895D01*
X0502529Y0298914D01*
X0502298Y0298927D01*
X0502067Y0298934D01*
X0501836Y0298936D01*
X0501605Y0298932D01*
X0501374Y0298923D01*
X0501144Y0298908D01*
X0500914Y0298888D01*
X0500684Y0298862D01*
X0500455Y0298830D01*
X0500227Y0298793D01*
X0500000Y0298750D01*
X0500770Y0294824D02*
X0502564Y0294824D01*
X0500639Y0292426D02*
X0506461Y0292426D01*
X0507059Y0290027D02*
X0499976Y0290027D01*
X0500000Y0298750D02*
X0499855Y0298780D01*
X0499709Y0298807D01*
X0499562Y0298829D01*
X0499415Y0298849D01*
X0499267Y0298864D01*
X0499119Y0298875D01*
X0498971Y0298883D01*
X0498823Y0298887D01*
X0498674Y0298887D01*
X0498526Y0298883D01*
X0498378Y0298875D01*
X0498230Y0298863D01*
X0498082Y0298848D01*
X0497935Y0298829D01*
X0497788Y0298806D01*
X0497642Y0298780D01*
X0497497Y0298749D01*
X0497353Y0298715D01*
X0497209Y0298677D01*
X0497067Y0298636D01*
X0496925Y0298590D01*
X0496785Y0298542D01*
X0496646Y0298489D01*
X0496509Y0298433D01*
X0496373Y0298374D01*
X0496238Y0298311D01*
X0496106Y0298244D01*
X0495975Y0298175D01*
X0495845Y0298101D01*
X0495718Y0298025D01*
X0495593Y0297945D01*
X0495470Y0297862D01*
X0495349Y0297776D01*
X0495230Y0297687D01*
X0495114Y0297595D01*
X0495000Y0297500D01*
X0492812Y0296875D02*
X0492673Y0296847D01*
X0492533Y0296824D01*
X0492393Y0296804D01*
X0492252Y0296788D01*
X0492111Y0296777D01*
X0491969Y0296769D01*
X0491827Y0296765D01*
X0491686Y0296764D01*
X0491544Y0296768D01*
X0491402Y0296776D01*
X0491261Y0296788D01*
X0491120Y0296803D01*
X0490979Y0296823D01*
X0490840Y0296846D01*
X0490700Y0296873D01*
X0490562Y0296904D01*
X0490424Y0296939D01*
X0490288Y0296977D01*
X0490153Y0297020D01*
X0490019Y0297066D01*
X0489886Y0297116D01*
X0489754Y0297169D01*
X0489625Y0297226D01*
X0489496Y0297287D01*
X0489370Y0297351D01*
X0489245Y0297419D01*
X0489123Y0297490D01*
X0489002Y0297564D01*
X0488883Y0297642D01*
X0488767Y0297723D01*
X0488653Y0297807D01*
X0488541Y0297894D01*
X0488432Y0297985D01*
X0488325Y0298078D01*
X0488221Y0298174D01*
X0488119Y0298273D01*
X0488021Y0298375D01*
X0487925Y0298480D01*
X0487832Y0298587D01*
X0487742Y0298697D01*
X0487655Y0298809D01*
X0487572Y0298923D01*
X0487491Y0299040D01*
X0487414Y0299159D01*
X0487340Y0299280D01*
X0487270Y0299403D01*
X0487202Y0299528D01*
X0487139Y0299655D01*
X0487079Y0299783D01*
X0487022Y0299914D01*
X0486969Y0300045D01*
X0486920Y0300178D01*
X0486875Y0300312D01*
X0482779Y0299621D02*
X0471250Y0299621D01*
X0471250Y0297223D02*
X0483791Y0297223D01*
X0485743Y0294824D02*
X0471250Y0294824D01*
X0471250Y0292426D02*
X0491861Y0292426D01*
X0492524Y0290027D02*
X0473656Y0290027D01*
X0471250Y0302020D02*
X0482081Y0302020D01*
X0481581Y0304418D02*
X0471875Y0304418D01*
X0473139Y0306817D02*
X0481558Y0306817D01*
X0482266Y0309215D02*
X0472790Y0309215D01*
X0471250Y0311614D02*
X0483527Y0311614D01*
X0484751Y0314012D02*
X0471250Y0314012D01*
X0471250Y0316411D02*
X0481077Y0316411D01*
X0480600Y0318809D02*
X0471250Y0318809D01*
X0471250Y0321208D02*
X0480600Y0321208D01*
X0480600Y0323606D02*
X0471250Y0323606D01*
X0471250Y0326005D02*
X0480606Y0326005D01*
X0492813Y0296876D02*
X0493546Y0297069D01*
X0494275Y0297278D01*
X0495000Y0297501D01*
X0485938Y0303125D02*
X0485886Y0303285D01*
X0485838Y0303446D01*
X0485794Y0303609D01*
X0485753Y0303772D01*
X0485717Y0303937D01*
X0485685Y0304102D01*
X0485657Y0304268D01*
X0485633Y0304434D01*
X0485613Y0304601D01*
X0485597Y0304769D01*
X0485585Y0304937D01*
X0485577Y0305105D01*
X0485573Y0305273D01*
X0485574Y0305442D01*
X0485578Y0305610D01*
X0485587Y0305778D01*
X0485600Y0305946D01*
X0485616Y0306113D01*
X0485637Y0306280D01*
X0485662Y0306447D01*
X0485691Y0306612D01*
X0485724Y0306778D01*
X0485761Y0306942D01*
X0485803Y0307105D01*
X0485848Y0307267D01*
X0485897Y0307428D01*
X0485949Y0307588D01*
X0486006Y0307746D01*
X0486067Y0307903D01*
X0486131Y0308059D01*
X0486199Y0308213D01*
X0486271Y0308365D01*
X0486347Y0308515D01*
X0486426Y0308664D01*
X0486509Y0308810D01*
X0486596Y0308955D01*
X0486686Y0309097D01*
X0486779Y0309237D01*
X0486876Y0309375D01*
X0485938Y0303125D02*
X0486001Y0302834D01*
X0486071Y0302546D01*
X0486148Y0302259D01*
X0486232Y0301974D01*
X0486323Y0301691D01*
X0486420Y0301410D01*
X0486524Y0301131D01*
X0486635Y0300856D01*
X0486752Y0300583D01*
X0486875Y0300312D01*
X0491875Y0301875D02*
X0491878Y0302181D01*
X0491888Y0302486D01*
X0491906Y0302792D01*
X0491931Y0303097D01*
X0491963Y0303401D01*
X0492003Y0303704D01*
X0492050Y0304007D01*
X0492104Y0304308D01*
X0492166Y0304607D01*
X0492235Y0304906D01*
X0492311Y0305202D01*
X0492394Y0305496D01*
X0492484Y0305789D01*
X0492581Y0306079D01*
X0492685Y0306367D01*
X0492796Y0306652D01*
X0492913Y0306934D01*
X0493038Y0307213D01*
X0493169Y0307490D01*
X0493307Y0307763D01*
X0493452Y0308033D01*
X0493602Y0308299D01*
X0493760Y0308561D01*
X0493923Y0308820D01*
X0494093Y0309074D01*
X0494269Y0309325D01*
X0494450Y0309571D01*
X0494638Y0309812D01*
X0494831Y0310049D01*
X0495031Y0310282D01*
X0495235Y0310509D01*
X0495445Y0310732D01*
X0495661Y0310949D01*
X0495881Y0311161D01*
X0496107Y0311368D01*
X0496337Y0311569D01*
X0496572Y0311764D01*
X0496812Y0311954D01*
X0497057Y0312138D01*
X0497305Y0312316D01*
X0497558Y0312488D01*
X0497815Y0312654D01*
X0498076Y0312814D01*
X0498341Y0312967D01*
X0498609Y0313114D01*
X0498881Y0313255D01*
X0499156Y0313388D01*
X0499435Y0313516D01*
X0499716Y0313636D01*
X0500000Y0313750D01*
X0502500Y0323125D02*
X0501906Y0323833D01*
X0501447Y0324627D01*
X0501753Y0325012D01*
X0501791Y0325144D01*
X0502162Y0325667D01*
X0503740Y0327140D01*
X0504367Y0327523D01*
X0509123Y0328775D01*
X0510601Y0328666D01*
X0514834Y0329403D01*
X0518762Y0331145D01*
X0522149Y0333789D01*
X0523675Y0335744D01*
X0524050Y0336053D01*
X0525238Y0337329D01*
X0526250Y0338750D01*
X0530604Y0345280D01*
X0531314Y0344986D01*
X0533061Y0344986D01*
X0534674Y0345654D01*
X0535908Y0346889D01*
X0536576Y0348502D01*
X0536576Y0350248D01*
X0535908Y0351861D01*
X0535358Y0352412D01*
X0543545Y0364693D01*
X0544986Y0364693D01*
X0544986Y0364127D01*
X0545654Y0362514D01*
X0546889Y0361279D01*
X0548502Y0360611D01*
X0550248Y0360611D01*
X0551861Y0361279D01*
X0553096Y0362514D01*
X0553764Y0364127D01*
X0553764Y0365873D01*
X0553096Y0367486D01*
X0551861Y0368721D01*
X0550248Y0369389D01*
X0548668Y0369389D01*
X0548668Y0369955D01*
X0548049Y0371449D01*
X0550407Y0374986D01*
X0551498Y0374986D01*
X0553111Y0375654D01*
X0554346Y0376889D01*
X0555014Y0378502D01*
X0555014Y0380248D01*
X0554648Y0381132D01*
X0556598Y0384532D01*
X0557799Y0385029D01*
X0559033Y0386264D01*
X0559701Y0387877D01*
X0559701Y0389623D01*
X0559416Y0390312D01*
X0559820Y0391190D01*
X0561743Y0396616D01*
X0563169Y0402194D01*
X0564087Y0407877D01*
X0564490Y0413619D01*
X0564375Y0419375D01*
X0564187Y0421616D01*
X0563708Y0423813D01*
X0562947Y0425929D01*
X0561916Y0427927D01*
X0560633Y0429774D01*
X0559120Y0431437D01*
X0557403Y0432888D01*
X0555511Y0434104D01*
X0553476Y0435061D01*
X0551334Y0435745D01*
X0549121Y0436144D01*
X0546875Y0436250D01*
X0527506Y0435888D01*
X0527174Y0436221D01*
X0525561Y0436889D01*
X0523814Y0436889D01*
X0522201Y0436221D01*
X0521761Y0435781D01*
X0480000Y0435000D01*
X0466861Y0436546D01*
X0466731Y0436582D01*
X0466054Y0436862D01*
X0465724Y0436862D01*
X0465406Y0436951D01*
X0464679Y0436862D01*
X0463685Y0436862D01*
X0449628Y0437825D01*
X0434375Y0438125D01*
X0431072Y0437935D01*
X0427817Y0437343D01*
X0424658Y0436359D01*
X0421643Y0434996D01*
X0418816Y0433276D01*
X0416221Y0431223D01*
X0413896Y0428870D01*
X0411875Y0426250D01*
X0410193Y0424440D01*
X0408307Y0422843D01*
X0406245Y0421482D01*
X0404036Y0420375D01*
X0401711Y0419539D01*
X0399303Y0418984D01*
X0396846Y0418720D01*
X0394375Y0418750D01*
X0390237Y0418750D01*
X0390012Y0418843D01*
X0387488Y0418843D01*
X0387263Y0418750D01*
X0381678Y0418750D01*
X0381678Y0434615D01*
X0382514Y0433779D01*
X0384127Y0433111D01*
X0385873Y0433111D01*
X0387486Y0433779D01*
X0388721Y0435014D01*
X0389389Y0436627D01*
X0389389Y0438373D01*
X0388785Y0439830D01*
X0389561Y0439055D01*
X0392182Y0437969D01*
X0395018Y0437969D01*
X0397639Y0439055D01*
X0399645Y0441061D01*
X0400731Y0443682D01*
X0400731Y0446518D01*
X0399645Y0449139D01*
X0397639Y0451145D01*
X0395018Y0452231D01*
X0392182Y0452231D01*
X0389561Y0451145D01*
X0387555Y0449139D01*
X0386469Y0446518D01*
X0386469Y0443682D01*
X0387490Y0441217D01*
X0387486Y0441221D01*
X0385873Y0441889D01*
X0384127Y0441889D01*
X0382514Y0441221D01*
X0381678Y0440385D01*
X0381678Y0453602D01*
X0381764Y0454701D01*
X0381930Y0455211D01*
X0382529Y0453764D01*
X0383764Y0452529D01*
X0385377Y0451861D01*
X0387123Y0451861D01*
X0388736Y0452529D01*
X0389971Y0453764D01*
X0390639Y0455377D01*
X0390639Y0457123D01*
X0389971Y0458736D01*
X0388736Y0459971D01*
X0387469Y0460496D01*
X0387602Y0460539D01*
X0388701Y0460625D01*
X0395668Y0460625D01*
X0395029Y0459986D01*
X0394361Y0458373D01*
X0394361Y0456627D01*
X0395029Y0455014D01*
X0396264Y0453779D01*
X0397877Y0453111D01*
X0399623Y0453111D01*
X0401236Y0453779D01*
X0402471Y0455014D01*
X0403139Y0456627D01*
X0403139Y0458373D01*
X0402471Y0459986D01*
X0401832Y0460625D01*
X0416293Y0460625D01*
X0415654Y0459986D01*
X0414986Y0458373D01*
X0414986Y0456627D01*
X0415654Y0455014D01*
X0416889Y0453779D01*
X0416959Y0453750D01*
X0416889Y0453721D01*
X0416365Y0453197D01*
X0416294Y0453370D01*
X0414620Y0455044D01*
X0412433Y0455950D01*
X0410067Y0455950D01*
X0407880Y0455044D01*
X0406206Y0453370D01*
X0405300Y0451183D01*
X0405300Y0448817D01*
X0406206Y0446630D01*
X0407880Y0444956D01*
X0410067Y0444050D01*
X0412433Y0444050D01*
X0414620Y0444956D01*
X0416294Y0446630D01*
X0416365Y0446803D01*
X0416889Y0446279D01*
X0418502Y0445611D01*
X0420248Y0445611D01*
X0421861Y0446279D01*
X0422021Y0446440D01*
X0423505Y0444956D01*
X0425692Y0444050D01*
X0428058Y0444050D01*
X0430245Y0444956D01*
X0431919Y0446630D01*
X0432825Y0448817D01*
X0432825Y0451183D01*
X0431919Y0453370D01*
X0431684Y0453605D01*
X0432877Y0453111D01*
X0434623Y0453111D01*
X0435508Y0453478D01*
X0435508Y0452231D01*
X0436497Y0449842D01*
X0438326Y0448013D01*
X0440715Y0447024D01*
X0443301Y0447024D01*
X0445690Y0448013D01*
X0447008Y0449331D01*
X0448326Y0448013D01*
X0450715Y0447024D01*
X0453301Y0447024D01*
X0455690Y0448013D01*
X0457008Y0449331D01*
X0458326Y0448013D01*
X0460715Y0447024D01*
X0463301Y0447024D01*
X0465690Y0448013D01*
X0467008Y0449331D01*
X0468326Y0448013D01*
X0470715Y0447024D01*
X0473301Y0447024D01*
X0475690Y0448013D01*
X0477008Y0449331D01*
X0478326Y0448013D01*
X0480715Y0447024D01*
X0483301Y0447024D01*
X0485690Y0448013D01*
X0487008Y0449331D01*
X0488326Y0448013D01*
X0490715Y0447024D01*
X0493301Y0447024D01*
X0495690Y0448013D01*
X0497008Y0449331D01*
X0498326Y0448013D01*
X0500715Y0447024D01*
X0503301Y0447024D01*
X0505690Y0448013D01*
X0507008Y0449331D01*
X0508326Y0448013D01*
X0510715Y0447024D01*
X0513301Y0447024D01*
X0515690Y0448013D01*
X0517518Y0449842D01*
X0518508Y0452231D01*
X0518508Y0454660D01*
X0519389Y0453779D01*
X0521002Y0453111D01*
X0522748Y0453111D01*
X0524361Y0453779D01*
X0525585Y0455003D01*
X0525508Y0454817D01*
X0525508Y0452231D01*
X0526497Y0449842D01*
X0528326Y0448013D01*
X0530715Y0447024D01*
X0533301Y0447024D01*
X0535690Y0448013D01*
X0537008Y0449331D01*
X0538326Y0448013D01*
X0540715Y0447024D01*
X0543301Y0447024D01*
X0545690Y0448013D01*
X0547008Y0449331D01*
X0548326Y0448013D01*
X0550715Y0447024D01*
X0553301Y0447024D01*
X0555690Y0448013D01*
X0557008Y0449331D01*
X0558326Y0448013D01*
X0560715Y0447024D01*
X0563301Y0447024D01*
X0565690Y0448013D01*
X0567008Y0449331D01*
X0568326Y0448013D01*
X0570715Y0447024D01*
X0573301Y0447024D01*
X0575690Y0448013D01*
X0577008Y0449331D01*
X0578326Y0448013D01*
X0580715Y0447024D01*
X0583301Y0447024D01*
X0585690Y0448013D01*
X0587518Y0449842D01*
X0588508Y0452231D01*
X0588508Y0453367D01*
X0589127Y0453111D01*
X0590873Y0453111D01*
X0592486Y0453779D01*
X0593721Y0455014D01*
X0594389Y0456627D01*
X0594389Y0458373D01*
X0593721Y0459986D01*
X0593082Y0460625D01*
X0598937Y0460625D01*
X0600036Y0460539D01*
X0600689Y0460326D01*
X0599076Y0459658D01*
X0597842Y0458424D01*
X0597174Y0456811D01*
X0597174Y0455064D01*
X0597842Y0453451D01*
X0599076Y0452217D01*
X0600689Y0451549D01*
X0602436Y0451549D01*
X0604049Y0452217D01*
X0605283Y0453451D01*
X0605842Y0454799D01*
X0605873Y0454701D01*
X0605960Y0453602D01*
X0605960Y0438997D01*
X0604986Y0439971D01*
X0603373Y0440639D01*
X0601627Y0440639D01*
X0600014Y0439971D01*
X0598779Y0438736D01*
X0598111Y0437123D01*
X0598111Y0435377D01*
X0598779Y0433764D01*
X0600014Y0432529D01*
X0601627Y0431861D01*
X0603373Y0431861D01*
X0604986Y0432529D01*
X0605960Y0433503D01*
X0605960Y0405982D01*
X0605596Y0406861D01*
X0604361Y0408096D01*
X0602748Y0408764D01*
X0601002Y0408764D01*
X0599389Y0408096D01*
X0599268Y0407975D01*
X0596927Y0407975D01*
X0595064Y0408028D01*
X0591339Y0407143D01*
X0591339Y0407143D01*
X0587970Y0405324D01*
X0587970Y0405324D01*
X0585186Y0402695D01*
X0583177Y0399435D01*
X0582081Y0395767D01*
X0582081Y0395767D01*
X0582045Y0394515D01*
X0582025Y0394466D01*
X0582025Y0393802D01*
X0582010Y0393260D01*
X0581861Y0393408D01*
X0580248Y0394076D01*
X0578502Y0394076D01*
X0576889Y0393408D01*
X0576264Y0392783D01*
X0576264Y0394311D01*
X0575596Y0395924D01*
X0574361Y0397158D01*
X0572782Y0397812D01*
X0574361Y0398467D01*
X0575596Y0399701D01*
X0576264Y0401314D01*
X0576264Y0403061D01*
X0575596Y0404674D01*
X0575582Y0404687D01*
X0575596Y0404701D01*
X0576264Y0406314D01*
X0576264Y0408061D01*
X0575596Y0409674D01*
X0574361Y0410908D01*
X0572748Y0411576D01*
X0571002Y0411576D01*
X0569389Y0410908D01*
X0568154Y0409674D01*
X0567486Y0408061D01*
X0567486Y0406314D01*
X0568154Y0404701D01*
X0568168Y0404687D01*
X0568154Y0404674D01*
X0567486Y0403061D01*
X0567486Y0401314D01*
X0568154Y0399701D01*
X0569389Y0398467D01*
X0570968Y0397812D01*
X0569389Y0397158D01*
X0568154Y0395924D01*
X0567486Y0394311D01*
X0567486Y0392564D01*
X0568154Y0390951D01*
X0569389Y0389717D01*
X0571002Y0389049D01*
X0572748Y0389049D01*
X0574361Y0389717D01*
X0574986Y0390342D01*
X0574986Y0388814D01*
X0575654Y0387201D01*
X0576889Y0385967D01*
X0577563Y0385688D01*
X0577563Y0371769D01*
X0577486Y0371846D01*
X0575873Y0372514D01*
X0575725Y0372514D01*
X0576264Y0373814D01*
X0576264Y0375561D01*
X0575596Y0377174D01*
X0575582Y0377187D01*
X0575596Y0377201D01*
X0576264Y0378814D01*
X0576264Y0380561D01*
X0575596Y0382174D01*
X0574361Y0383408D01*
X0572748Y0384076D01*
X0571002Y0384076D01*
X0569389Y0383408D01*
X0568154Y0382174D01*
X0567486Y0380561D01*
X0567486Y0378814D01*
X0568154Y0377201D01*
X0568168Y0377187D01*
X0568154Y0377174D01*
X0567486Y0375561D01*
X0567486Y0373814D01*
X0568154Y0372201D01*
X0569389Y0370967D01*
X0571002Y0370299D01*
X0571150Y0370299D01*
X0570611Y0368998D01*
X0570611Y0367252D01*
X0571091Y0366094D01*
X0570611Y0364936D01*
X0570611Y0363189D01*
X0571279Y0361576D01*
X0572514Y0360342D01*
X0574127Y0359674D01*
X0575873Y0359674D01*
X0577486Y0360342D01*
X0578721Y0361576D01*
X0579389Y0363189D01*
X0579389Y0363438D01*
X0579720Y0362961D01*
X0582289Y0361310D01*
X0584219Y0360961D01*
X0585064Y0360611D01*
X0586811Y0360611D01*
X0588424Y0361279D01*
X0589658Y0362514D01*
X0590326Y0364127D01*
X0590326Y0365873D01*
X0589658Y0367486D01*
X0588424Y0368721D01*
X0586811Y0369389D01*
X0585562Y0369389D01*
X0585562Y0373736D01*
X0586498Y0373736D01*
X0588111Y0374404D01*
X0588437Y0374731D01*
X0588764Y0374404D01*
X0590377Y0373736D01*
X0592123Y0373736D01*
X0593736Y0374404D01*
X0594971Y0375639D01*
X0595639Y0377252D01*
X0595639Y0378998D01*
X0594971Y0380611D01*
X0594032Y0381550D01*
X0596183Y0381550D01*
X0598370Y0382456D01*
X0600044Y0384130D01*
X0600950Y0386317D01*
X0600950Y0388683D01*
X0600044Y0390870D01*
X0598414Y0392500D01*
X0600044Y0394130D01*
X0600950Y0396317D01*
X0600950Y0398683D01*
X0600287Y0400282D01*
X0601002Y0399986D01*
X0602748Y0399986D01*
X0604361Y0400654D01*
X0605596Y0401889D01*
X0605960Y0402768D01*
X0605960Y0350045D01*
X0605596Y0350924D01*
X0604361Y0352158D01*
X0602748Y0352826D01*
X0601002Y0352826D01*
X0599389Y0352158D01*
X0598154Y0350924D01*
X0597486Y0349311D01*
X0597486Y0347564D01*
X0598154Y0345951D01*
X0599389Y0344717D01*
X0601002Y0344049D01*
X0602748Y0344049D01*
X0604361Y0344717D01*
X0605596Y0345951D01*
X0605960Y0346830D01*
X0605960Y0340045D01*
X0605596Y0340924D01*
X0604361Y0342158D01*
X0602748Y0342826D01*
X0601002Y0342826D01*
X0599389Y0342158D01*
X0598154Y0340924D01*
X0597486Y0339311D01*
X0597486Y0337564D01*
X0598154Y0335951D01*
X0599389Y0334717D01*
X0601002Y0334049D01*
X0602748Y0334049D01*
X0604361Y0334717D01*
X0605596Y0335951D01*
X0605960Y0336830D01*
X0605960Y0331678D01*
X0604338Y0332350D01*
X0601912Y0332350D01*
X0599670Y0331421D01*
X0597954Y0329705D01*
X0597025Y0327463D01*
X0597025Y0325037D01*
X0597954Y0322795D01*
X0599670Y0321079D01*
X0600765Y0320625D01*
X0600516Y0320522D01*
X0571158Y0320155D01*
X0572081Y0320524D01*
X0572620Y0320740D01*
X0573129Y0320943D01*
X0574420Y0320849D01*
X0578777Y0321681D01*
X0578777Y0321681D01*
X0582770Y0323613D01*
X0586127Y0326512D01*
X0586127Y0326512D01*
X0588620Y0330182D01*
X0590077Y0334371D01*
X0590102Y0334705D01*
X0590639Y0336002D01*
X0590639Y0337748D01*
X0589971Y0339361D01*
X0588736Y0340596D01*
X0587123Y0341264D01*
X0585377Y0341264D01*
X0583764Y0340596D01*
X0582529Y0339361D01*
X0581861Y0337748D01*
X0581861Y0336002D01*
X0581988Y0335696D01*
X0581342Y0333840D01*
X0580044Y0331929D01*
X0578297Y0330420D01*
X0576218Y0329414D01*
X0573949Y0328981D01*
X0573356Y0328985D01*
X0573344Y0328990D01*
X0572670Y0328998D01*
X0571998Y0329047D01*
X0571879Y0329008D01*
X0571753Y0329009D01*
X0571127Y0328759D01*
X0570488Y0328547D01*
X0570393Y0328465D01*
X0569452Y0328089D01*
X0567921Y0327559D01*
X0564818Y0326962D01*
X0565326Y0328189D01*
X0565326Y0329936D01*
X0564717Y0331406D01*
X0565326Y0332877D01*
X0565326Y0334623D01*
X0564782Y0335938D01*
X0565326Y0337252D01*
X0565326Y0338998D01*
X0564658Y0340611D01*
X0563424Y0341846D01*
X0561811Y0342514D01*
X0560064Y0342514D01*
X0558451Y0341846D01*
X0557217Y0340611D01*
X0556549Y0338998D01*
X0556549Y0337252D01*
X0557093Y0335938D01*
X0556549Y0334623D01*
X0556549Y0332877D01*
X0557158Y0331406D01*
X0556549Y0329936D01*
X0556549Y0328245D01*
X0555499Y0328798D01*
X0551978Y0330207D01*
X0551978Y0330207D01*
X0550216Y0330706D01*
X0550153Y0330723D01*
X0546713Y0331698D01*
X0547201Y0332877D01*
X0547201Y0334623D01*
X0546722Y0335781D01*
X0547201Y0336939D01*
X0547201Y0338686D01*
X0546533Y0340299D01*
X0545299Y0341533D01*
X0543686Y0342201D01*
X0541939Y0342201D01*
X0541693Y0342100D01*
X0541533Y0342486D01*
X0540299Y0343721D01*
X0538686Y0344389D01*
X0536939Y0344389D01*
X0535326Y0343721D01*
X0534092Y0342486D01*
X0533424Y0340873D01*
X0533424Y0339127D01*
X0534092Y0337514D01*
X0535326Y0336279D01*
X0536939Y0335611D01*
X0538686Y0335611D01*
X0538863Y0335685D01*
X0538424Y0334623D01*
X0538424Y0333607D01*
X0537698Y0333765D01*
X0537698Y0333765D01*
X0533182Y0333396D01*
X0533182Y0333396D01*
X0528969Y0331728D01*
X0528969Y0331728D01*
X0527516Y0330572D01*
X0520659Y0327110D01*
X0508900Y0321787D01*
X0507828Y0321865D01*
X0505131Y0322353D01*
X0502500Y0323125D01*
X0502096Y0323606D02*
X0512920Y0323606D01*
X0502813Y0331250D02*
X0502553Y0331111D01*
X0502297Y0330965D01*
X0502044Y0330812D01*
X0501795Y0330654D01*
X0501550Y0330489D01*
X0501309Y0330319D01*
X0501073Y0330143D01*
X0500841Y0329960D01*
X0500613Y0329773D01*
X0500390Y0329580D01*
X0500172Y0329381D01*
X0499959Y0329177D01*
X0499751Y0328968D01*
X0499548Y0328754D01*
X0499350Y0328535D01*
X0499158Y0328311D01*
X0498971Y0328082D01*
X0498790Y0327849D01*
X0498615Y0327612D01*
X0498446Y0327371D01*
X0498283Y0327125D01*
X0498125Y0326875D01*
X0502524Y0326005D02*
X0518219Y0326005D01*
X0514834Y0329403D02*
X0514834Y0329403D01*
X0517988Y0330802D02*
X0527805Y0330802D01*
X0523222Y0328403D02*
X0507712Y0328403D01*
X0510601Y0328666D02*
X0510601Y0328666D01*
X0508750Y0332813D02*
X0502812Y0331250D01*
X0508750Y0332812D02*
X0509079Y0332792D01*
X0509408Y0332780D01*
X0509737Y0332776D01*
X0510067Y0332780D01*
X0510396Y0332793D01*
X0510725Y0332813D01*
X0511053Y0332841D01*
X0511380Y0332878D01*
X0511707Y0332922D01*
X0512032Y0332975D01*
X0512356Y0333035D01*
X0512678Y0333103D01*
X0512998Y0333180D01*
X0513317Y0333264D01*
X0513633Y0333356D01*
X0513947Y0333455D01*
X0514259Y0333562D01*
X0514567Y0333677D01*
X0514873Y0333800D01*
X0515176Y0333930D01*
X0515475Y0334067D01*
X0515771Y0334211D01*
X0516064Y0334363D01*
X0516352Y0334522D01*
X0516637Y0334688D01*
X0516917Y0334861D01*
X0517193Y0335041D01*
X0517465Y0335227D01*
X0517732Y0335420D01*
X0517994Y0335619D01*
X0518251Y0335825D01*
X0518503Y0336037D01*
X0518750Y0336256D01*
X0518991Y0336480D01*
X0519227Y0336710D01*
X0519457Y0336946D01*
X0519681Y0337187D01*
X0519900Y0337434D01*
X0520112Y0337686D01*
X0520318Y0337943D01*
X0520517Y0338205D01*
X0520710Y0338472D01*
X0520896Y0338744D01*
X0521076Y0339020D01*
X0521249Y0339300D01*
X0521415Y0339585D01*
X0521574Y0339873D01*
X0521726Y0340166D01*
X0521870Y0340462D01*
X0522007Y0340761D01*
X0522137Y0341064D01*
X0522260Y0341370D01*
X0522375Y0341678D01*
X0522482Y0341990D01*
X0522581Y0342304D01*
X0522673Y0342620D01*
X0522757Y0342939D01*
X0522834Y0343259D01*
X0522902Y0343581D01*
X0522962Y0343905D01*
X0523015Y0344230D01*
X0523059Y0344557D01*
X0523096Y0344884D01*
X0523124Y0345212D01*
X0523144Y0345541D01*
X0523157Y0345870D01*
X0523161Y0346200D01*
X0523157Y0346529D01*
X0523145Y0346858D01*
X0523125Y0347187D01*
X0528946Y0342794D02*
X0534400Y0342794D01*
X0533560Y0345193D02*
X0544225Y0345193D01*
X0543779Y0345639D02*
X0545014Y0344404D01*
X0546627Y0343736D01*
X0548373Y0343736D01*
X0549986Y0344404D01*
X0551221Y0345639D01*
X0551889Y0347252D01*
X0551889Y0348998D01*
X0551221Y0350611D01*
X0549986Y0351846D01*
X0548373Y0352514D01*
X0546627Y0352514D01*
X0545014Y0351846D01*
X0543779Y0350611D01*
X0543111Y0348998D01*
X0543111Y0347252D01*
X0543779Y0345639D01*
X0543111Y0347591D02*
X0536199Y0347591D01*
X0536576Y0349990D02*
X0543522Y0349990D01*
X0546324Y0352388D02*
X0535381Y0352388D01*
X0536941Y0354787D02*
X0566746Y0354787D01*
X0566549Y0354311D02*
X0566549Y0352564D01*
X0567217Y0350951D01*
X0568451Y0349717D01*
X0570064Y0349049D01*
X0571811Y0349049D01*
X0573424Y0349717D01*
X0574658Y0350951D01*
X0575326Y0352564D01*
X0575326Y0354311D01*
X0574658Y0355924D01*
X0573424Y0357158D01*
X0571811Y0357826D01*
X0570064Y0357826D01*
X0568451Y0357158D01*
X0567217Y0355924D01*
X0566549Y0354311D01*
X0566621Y0352388D02*
X0559743Y0352388D01*
X0560299Y0352158D02*
X0558686Y0352826D01*
X0556939Y0352826D01*
X0555326Y0352158D01*
X0554092Y0350924D01*
X0553424Y0349311D01*
X0553424Y0347564D01*
X0554092Y0345951D01*
X0555326Y0344717D01*
X0556939Y0344049D01*
X0558686Y0344049D01*
X0560299Y0344717D01*
X0561533Y0345951D01*
X0562201Y0347564D01*
X0562201Y0349311D01*
X0561533Y0350924D01*
X0560299Y0352158D01*
X0561920Y0349990D02*
X0568178Y0349990D01*
X0573697Y0349990D02*
X0597767Y0349990D01*
X0597486Y0347591D02*
X0562201Y0347591D01*
X0560775Y0345193D02*
X0598913Y0345193D01*
X0600924Y0342794D02*
X0541225Y0342794D01*
X0546436Y0340396D02*
X0557128Y0340396D01*
X0556549Y0337997D02*
X0547201Y0337997D01*
X0546797Y0335599D02*
X0556953Y0335599D01*
X0556549Y0333200D02*
X0547201Y0333200D01*
X0549877Y0330802D02*
X0556907Y0330802D01*
X0556549Y0328403D02*
X0556248Y0328403D01*
X0555499Y0328798D02*
X0555499Y0328798D01*
X0564968Y0330802D02*
X0578739Y0330802D01*
X0580908Y0333200D02*
X0565326Y0333200D01*
X0564922Y0335599D02*
X0581954Y0335599D01*
X0581964Y0337997D02*
X0565326Y0337997D01*
X0564747Y0340396D02*
X0583564Y0340396D01*
X0588936Y0340396D02*
X0597936Y0340396D01*
X0597486Y0337997D02*
X0590536Y0337997D01*
X0590472Y0335599D02*
X0598507Y0335599D01*
X0599050Y0330802D02*
X0588836Y0330802D01*
X0588620Y0330182D02*
X0588620Y0330182D01*
X0587412Y0328403D02*
X0597414Y0328403D01*
X0597025Y0326005D02*
X0585540Y0326005D01*
X0586127Y0326512D02*
X0586127Y0326512D01*
X0582770Y0323613D02*
X0582770Y0323613D01*
X0582757Y0323606D02*
X0597617Y0323606D01*
X0599541Y0321208D02*
X0576299Y0321208D01*
X0574420Y0320849D02*
X0574420Y0320849D01*
X0572500Y0325000D02*
X0570938Y0324375D01*
X0570238Y0328403D02*
X0565326Y0328403D01*
X0572500Y0325000D02*
X0572815Y0324981D01*
X0573130Y0324970D01*
X0573446Y0324966D01*
X0573761Y0324970D01*
X0574076Y0324982D01*
X0574391Y0325001D01*
X0574705Y0325029D01*
X0575018Y0325064D01*
X0575331Y0325106D01*
X0575642Y0325156D01*
X0575952Y0325214D01*
X0576260Y0325280D01*
X0576567Y0325353D01*
X0576872Y0325433D01*
X0577175Y0325521D01*
X0577475Y0325617D01*
X0577773Y0325720D01*
X0578069Y0325830D01*
X0578361Y0325947D01*
X0578651Y0326071D01*
X0578938Y0326203D01*
X0579221Y0326341D01*
X0579501Y0326487D01*
X0579777Y0326639D01*
X0580049Y0326798D01*
X0580318Y0326963D01*
X0580582Y0327135D01*
X0580842Y0327314D01*
X0581097Y0327499D01*
X0581348Y0327690D01*
X0581594Y0327887D01*
X0581835Y0328090D01*
X0582071Y0328299D01*
X0582302Y0328514D01*
X0582528Y0328734D01*
X0582748Y0328960D01*
X0582962Y0329191D01*
X0583171Y0329427D01*
X0583374Y0329669D01*
X0583571Y0329915D01*
X0583761Y0330166D01*
X0583946Y0330422D01*
X0584124Y0330682D01*
X0584296Y0330946D01*
X0584461Y0331215D01*
X0584620Y0331487D01*
X0584772Y0331764D01*
X0584917Y0332044D01*
X0585055Y0332327D01*
X0585186Y0332614D01*
X0585310Y0332904D01*
X0585427Y0333197D01*
X0585537Y0333492D01*
X0585639Y0333790D01*
X0585734Y0334091D01*
X0585822Y0334394D01*
X0585902Y0334699D01*
X0585975Y0335006D01*
X0586040Y0335314D01*
X0586097Y0335624D01*
X0586147Y0335935D01*
X0586189Y0336248D01*
X0586224Y0336561D01*
X0586251Y0336875D01*
X0590077Y0334371D02*
X0590077Y0334371D01*
X0589670Y0333200D02*
X0605960Y0333200D01*
X0605960Y0335599D02*
X0605243Y0335599D01*
X0605814Y0340396D02*
X0605960Y0340396D01*
X0605960Y0342794D02*
X0602826Y0342794D01*
X0604837Y0345193D02*
X0605960Y0345193D01*
X0605960Y0352388D02*
X0603806Y0352388D01*
X0605960Y0354787D02*
X0575129Y0354787D01*
X0575254Y0352388D02*
X0599944Y0352388D01*
X0598111Y0357529D02*
X0599346Y0358764D01*
X0600014Y0360377D01*
X0600014Y0362123D01*
X0599346Y0363736D01*
X0598111Y0364971D01*
X0596498Y0365639D01*
X0594752Y0365639D01*
X0593139Y0364971D01*
X0591904Y0363736D01*
X0591236Y0362123D01*
X0591236Y0360377D01*
X0591904Y0358764D01*
X0593139Y0357529D01*
X0594752Y0356861D01*
X0596498Y0356861D01*
X0598111Y0357529D01*
X0597281Y0357185D02*
X0605960Y0357185D01*
X0605960Y0359584D02*
X0599685Y0359584D01*
X0600014Y0361982D02*
X0605960Y0361982D01*
X0605960Y0364381D02*
X0598701Y0364381D01*
X0592549Y0364381D02*
X0590326Y0364381D01*
X0589951Y0366779D02*
X0605960Y0366779D01*
X0605960Y0369178D02*
X0587320Y0369178D01*
X0585937Y0365000D02*
X0585819Y0364976D01*
X0585701Y0364957D01*
X0585581Y0364941D01*
X0585462Y0364929D01*
X0585341Y0364921D01*
X0585221Y0364917D01*
X0585101Y0364916D01*
X0584980Y0364920D01*
X0584860Y0364928D01*
X0584741Y0364940D01*
X0584621Y0364955D01*
X0584502Y0364975D01*
X0584384Y0364998D01*
X0584267Y0365025D01*
X0584151Y0365056D01*
X0584036Y0365091D01*
X0583922Y0365129D01*
X0583809Y0365172D01*
X0583698Y0365217D01*
X0583588Y0365267D01*
X0583480Y0365320D01*
X0583374Y0365377D01*
X0583269Y0365437D01*
X0583167Y0365500D01*
X0583067Y0365567D01*
X0582969Y0365637D01*
X0582873Y0365710D01*
X0582780Y0365786D01*
X0582690Y0365865D01*
X0582602Y0365948D01*
X0582517Y0366033D01*
X0582434Y0366120D01*
X0582355Y0366211D01*
X0582278Y0366304D01*
X0582205Y0366399D01*
X0582135Y0366497D01*
X0582068Y0366597D01*
X0582004Y0366699D01*
X0581944Y0366803D01*
X0581887Y0366909D01*
X0581833Y0367017D01*
X0581783Y0367127D01*
X0581737Y0367238D01*
X0581695Y0367350D01*
X0581656Y0367464D01*
X0581621Y0367579D01*
X0581589Y0367696D01*
X0581562Y0367813D01*
X0581563Y0367812D02*
X0581563Y0387187D01*
X0581563Y0387188D02*
X0581567Y0387282D01*
X0581568Y0387377D01*
X0581565Y0387471D01*
X0581558Y0387566D01*
X0581547Y0387660D01*
X0581532Y0387753D01*
X0581514Y0387846D01*
X0581492Y0387938D01*
X0581466Y0388029D01*
X0581436Y0388119D01*
X0581403Y0388208D01*
X0581367Y0388295D01*
X0581327Y0388381D01*
X0581283Y0388465D01*
X0581237Y0388547D01*
X0581187Y0388627D01*
X0581133Y0388705D01*
X0581077Y0388781D01*
X0581018Y0388855D01*
X0580955Y0388926D01*
X0580890Y0388995D01*
X0580822Y0389061D01*
X0580752Y0389124D01*
X0580679Y0389184D01*
X0580604Y0389241D01*
X0580526Y0389296D01*
X0580447Y0389347D01*
X0580365Y0389395D01*
X0580281Y0389439D01*
X0580196Y0389480D01*
X0580109Y0389518D01*
X0580021Y0389552D01*
X0579932Y0389582D01*
X0579841Y0389609D01*
X0579749Y0389632D01*
X0579657Y0389652D01*
X0579563Y0389668D01*
X0579470Y0389680D01*
X0579375Y0389688D01*
X0575172Y0388366D02*
X0559701Y0388366D01*
X0559624Y0390765D02*
X0568341Y0390765D01*
X0567486Y0393163D02*
X0560519Y0393163D01*
X0561369Y0395562D02*
X0568004Y0395562D01*
X0570612Y0397960D02*
X0562086Y0397960D01*
X0562700Y0400359D02*
X0567882Y0400359D01*
X0567486Y0402757D02*
X0563260Y0402757D01*
X0563648Y0405156D02*
X0567966Y0405156D01*
X0567486Y0407554D02*
X0564035Y0407554D01*
X0564233Y0409953D02*
X0568433Y0409953D01*
X0564401Y0412351D02*
X0578574Y0412351D01*
X0578475Y0412112D02*
X0578475Y0410014D01*
X0579278Y0408075D01*
X0580762Y0406591D01*
X0582701Y0405788D01*
X0584799Y0405788D01*
X0586738Y0406591D01*
X0588222Y0408075D01*
X0589025Y0410014D01*
X0589025Y0412112D01*
X0588222Y0414051D01*
X0587273Y0415000D01*
X0588222Y0415949D01*
X0589025Y0417888D01*
X0589025Y0419986D01*
X0588222Y0421925D01*
X0586738Y0423409D01*
X0584799Y0424212D01*
X0582701Y0424212D01*
X0580762Y0423409D01*
X0579278Y0421925D01*
X0578475Y0419986D01*
X0578475Y0417888D01*
X0579278Y0415949D01*
X0580227Y0415000D01*
X0579278Y0414051D01*
X0578475Y0412112D01*
X0578501Y0409953D02*
X0575317Y0409953D01*
X0576264Y0407554D02*
X0579799Y0407554D01*
X0575784Y0405156D02*
X0587791Y0405156D01*
X0587701Y0407554D02*
X0593068Y0407554D01*
X0595064Y0408028D02*
X0595064Y0408028D01*
X0588999Y0409953D02*
X0605960Y0409953D01*
X0605960Y0412351D02*
X0588926Y0412351D01*
X0587523Y0414750D02*
X0605960Y0414750D01*
X0605960Y0417148D02*
X0588718Y0417148D01*
X0589025Y0419547D02*
X0605960Y0419547D01*
X0605960Y0421945D02*
X0588202Y0421945D01*
X0579298Y0421945D02*
X0564115Y0421945D01*
X0564361Y0419547D02*
X0578475Y0419547D01*
X0578782Y0417148D02*
X0564420Y0417148D01*
X0564468Y0414750D02*
X0579977Y0414750D01*
X0576264Y0402757D02*
X0585251Y0402757D01*
X0585186Y0402695D02*
X0585186Y0402695D01*
X0583746Y0400359D02*
X0575868Y0400359D01*
X0573138Y0397960D02*
X0582737Y0397960D01*
X0583177Y0399435D02*
X0583177Y0399435D01*
X0582075Y0395562D02*
X0575746Y0395562D01*
X0576264Y0393163D02*
X0576644Y0393163D01*
X0576888Y0385968D02*
X0558737Y0385968D01*
X0556046Y0383569D02*
X0569777Y0383569D01*
X0567739Y0381170D02*
X0554670Y0381170D01*
X0555014Y0378772D02*
X0567504Y0378772D01*
X0567823Y0376373D02*
X0553830Y0376373D01*
X0549733Y0373975D02*
X0567486Y0373975D01*
X0568779Y0371576D02*
X0548134Y0371576D01*
X0550758Y0369178D02*
X0570686Y0369178D01*
X0570807Y0366779D02*
X0553389Y0366779D01*
X0553764Y0364381D02*
X0570611Y0364381D01*
X0571111Y0361982D02*
X0552564Y0361982D01*
X0546186Y0361982D02*
X0541738Y0361982D01*
X0540139Y0359584D02*
X0591565Y0359584D01*
X0591236Y0361982D02*
X0589127Y0361982D01*
X0593969Y0357185D02*
X0573358Y0357185D01*
X0568517Y0357185D02*
X0538540Y0357185D01*
X0543337Y0364381D02*
X0544986Y0364381D01*
X0539704Y0371576D02*
X0536246Y0371576D01*
X0536125Y0371284D02*
X0536793Y0372897D01*
X0536793Y0374643D01*
X0536313Y0375801D01*
X0536793Y0376959D01*
X0536793Y0378705D01*
X0536125Y0380318D01*
X0536111Y0380332D01*
X0536125Y0380346D01*
X0536793Y0381959D01*
X0536793Y0383705D01*
X0536125Y0385318D01*
X0534890Y0386553D01*
X0533277Y0387221D01*
X0531531Y0387221D01*
X0529918Y0386553D01*
X0528683Y0385318D01*
X0528015Y0383705D01*
X0528015Y0381959D01*
X0528683Y0380346D01*
X0528697Y0380332D01*
X0528683Y0380318D01*
X0528015Y0378705D01*
X0528015Y0376959D01*
X0528495Y0375801D01*
X0528015Y0374643D01*
X0528015Y0372897D01*
X0528683Y0371284D01*
X0529918Y0370049D01*
X0531531Y0369381D01*
X0533277Y0369381D01*
X0534890Y0370049D01*
X0536125Y0371284D01*
X0536869Y0369178D02*
X0465545Y0369178D01*
X0464565Y0369767D02*
X0464361Y0369971D01*
X0463925Y0370152D01*
X0463391Y0370472D01*
X0463015Y0370529D01*
X0462748Y0370639D01*
X0462276Y0370639D01*
X0461660Y0370731D01*
X0461291Y0370639D01*
X0461002Y0370639D01*
X0460566Y0370458D01*
X0459961Y0370308D01*
X0459655Y0370081D01*
X0459389Y0369971D01*
X0459055Y0369637D01*
X0458554Y0369266D01*
X0458358Y0368940D01*
X0458154Y0368736D01*
X0457973Y0368300D01*
X0457653Y0367766D01*
X0457596Y0367390D01*
X0457486Y0367123D01*
X0457486Y0366651D01*
X0457394Y0366035D01*
X0457486Y0365666D01*
X0457486Y0365377D01*
X0457667Y0364941D01*
X0457817Y0364336D01*
X0458044Y0364030D01*
X0458154Y0363764D01*
X0458488Y0363430D01*
X0458859Y0362929D01*
X0459185Y0362733D01*
X0459389Y0362529D01*
X0459777Y0362368D01*
X0462379Y0360667D01*
X0467465Y0356437D01*
X0471849Y0351482D01*
X0474410Y0347500D01*
X0450941Y0347500D01*
X0450589Y0349006D01*
X0450639Y0349127D01*
X0450639Y0350873D01*
X0449971Y0352486D01*
X0448736Y0353721D01*
X0447123Y0354389D01*
X0445377Y0354389D01*
X0443764Y0353721D01*
X0442529Y0352486D01*
X0441861Y0350873D01*
X0441861Y0349127D01*
X0442529Y0347514D01*
X0442543Y0347500D01*
X0433536Y0347500D01*
X0434361Y0347842D01*
X0435596Y0349076D01*
X0436264Y0350689D01*
X0436264Y0352436D01*
X0435875Y0353375D01*
X0435875Y0359438D01*
X0436264Y0360377D01*
X0436264Y0362123D01*
X0435596Y0363736D01*
X0434957Y0364375D01*
X0435596Y0365014D01*
X0436264Y0366627D01*
X0436264Y0368373D01*
X0435596Y0369986D01*
X0434361Y0371221D01*
X0432748Y0371889D01*
X0431002Y0371889D01*
X0429389Y0371221D01*
X0428154Y0369986D01*
X0427486Y0368373D01*
X0427486Y0366627D01*
X0428154Y0365014D01*
X0428793Y0364375D01*
X0428154Y0363736D01*
X0427486Y0362123D01*
X0427486Y0360377D01*
X0427875Y0359438D01*
X0427875Y0353375D01*
X0427486Y0352436D01*
X0427486Y0350689D01*
X0428154Y0349076D01*
X0429389Y0347842D01*
X0430214Y0347500D01*
X0414019Y0347500D01*
X0413424Y0348096D01*
X0411811Y0348764D01*
X0410064Y0348764D01*
X0408451Y0348096D01*
X0407856Y0347500D01*
X0396250Y0347500D01*
X0396250Y0364147D01*
X0396889Y0365689D01*
X0396889Y0367436D01*
X0396250Y0368978D01*
X0396250Y0413750D01*
X0398750Y0413750D01*
X0400844Y0413592D01*
X0402941Y0413700D01*
X0405007Y0414073D01*
X0407009Y0414704D01*
X0408916Y0415584D01*
X0410695Y0416698D01*
X0412319Y0418029D01*
X0413762Y0419554D01*
X0415000Y0421250D01*
X0416656Y0423696D01*
X0418611Y0425910D01*
X0420832Y0427857D01*
X0423284Y0429505D01*
X0425926Y0430826D01*
X0428715Y0431798D01*
X0431605Y0432408D01*
X0434550Y0432643D01*
X0437500Y0432500D01*
X0461250Y0432500D01*
X0463891Y0432582D01*
X0466523Y0432343D01*
X0469106Y0431788D01*
X0471603Y0430923D01*
X0473977Y0429762D01*
X0476192Y0428323D01*
X0478217Y0426625D01*
X0480022Y0424695D01*
X0481579Y0422560D01*
X0482866Y0420253D01*
X0483864Y0417806D01*
X0484559Y0415256D01*
X0484939Y0412642D01*
X0485000Y0410000D01*
X0485410Y0408767D01*
X0486008Y0407613D01*
X0486780Y0406568D01*
X0487706Y0405656D01*
X0488763Y0404901D01*
X0489926Y0404321D01*
X0491165Y0403930D01*
X0492451Y0403738D01*
X0493750Y0403750D01*
X0527011Y0404402D01*
X0526168Y0404053D01*
X0524933Y0402818D01*
X0524265Y0401205D01*
X0524265Y0399459D01*
X0524933Y0397846D01*
X0526168Y0396611D01*
X0527781Y0395943D01*
X0529527Y0395943D01*
X0530828Y0396482D01*
X0530828Y0394937D01*
X0529840Y0395346D01*
X0528094Y0395346D01*
X0526935Y0394866D01*
X0525777Y0395346D01*
X0524031Y0395346D01*
X0522418Y0394678D01*
X0521183Y0393443D01*
X0520515Y0391830D01*
X0520515Y0390084D01*
X0521183Y0388471D01*
X0522418Y0387236D01*
X0524031Y0386568D01*
X0525777Y0386568D01*
X0526935Y0387048D01*
X0528094Y0386568D01*
X0529840Y0386568D01*
X0531453Y0387236D01*
X0532687Y0388471D01*
X0533355Y0390084D01*
X0533355Y0391665D01*
X0533640Y0391547D01*
X0533640Y0390084D01*
X0534308Y0388471D01*
X0535543Y0387236D01*
X0537156Y0386568D01*
X0538902Y0386568D01*
X0540217Y0387113D01*
X0541531Y0386568D01*
X0542861Y0386568D01*
X0542529Y0386236D01*
X0541861Y0384623D01*
X0541861Y0382877D01*
X0542406Y0381562D01*
X0541861Y0380248D01*
X0541861Y0378502D01*
X0542529Y0376889D01*
X0543764Y0375654D01*
X0544048Y0375536D01*
X0543750Y0375000D01*
X0533640Y0366446D01*
X0533277Y0366596D01*
X0531531Y0366596D01*
X0529918Y0365928D01*
X0528683Y0364693D01*
X0528015Y0363080D01*
X0528015Y0361686D01*
X0511250Y0347500D01*
X0484494Y0347500D01*
X0483304Y0350173D01*
X0483304Y0350173D01*
X0478987Y0356886D01*
X0473698Y0362863D01*
X0473698Y0362863D01*
X0473698Y0362863D01*
X0467562Y0367966D01*
X0467562Y0367966D01*
X0464565Y0369767D01*
X0465377Y0372486D02*
X0463764Y0373154D01*
X0462529Y0374389D01*
X0461861Y0376002D01*
X0461861Y0377748D01*
X0462529Y0379361D01*
X0463764Y0380596D01*
X0465377Y0381264D01*
X0467123Y0381264D01*
X0468736Y0380596D01*
X0469971Y0379361D01*
X0470639Y0377748D01*
X0470639Y0376002D01*
X0469971Y0374389D01*
X0468736Y0373154D01*
X0467123Y0372486D01*
X0465377Y0372486D01*
X0462943Y0373975D02*
X0396250Y0373975D01*
X0396250Y0376373D02*
X0461861Y0376373D01*
X0462285Y0378772D02*
X0396250Y0378772D01*
X0396250Y0381170D02*
X0447310Y0381170D01*
X0446904Y0381576D02*
X0448139Y0380342D01*
X0449752Y0379674D01*
X0451498Y0379674D01*
X0453111Y0380342D01*
X0454346Y0381576D01*
X0455014Y0383189D01*
X0455014Y0384936D01*
X0454346Y0386549D01*
X0453111Y0387783D01*
X0451498Y0388451D01*
X0449752Y0388451D01*
X0448139Y0387783D01*
X0446904Y0386549D01*
X0446236Y0384936D01*
X0446236Y0383189D01*
X0446904Y0381576D01*
X0446236Y0383569D02*
X0396250Y0383569D01*
X0396250Y0385968D02*
X0446663Y0385968D01*
X0449546Y0388366D02*
X0396250Y0388366D01*
X0396250Y0390765D02*
X0466633Y0390765D01*
X0466549Y0390561D02*
X0466549Y0388814D01*
X0467217Y0387201D01*
X0468451Y0385967D01*
X0470064Y0385299D01*
X0471811Y0385299D01*
X0473424Y0385967D01*
X0474658Y0387201D01*
X0475326Y0388814D01*
X0475326Y0390561D01*
X0474658Y0392174D01*
X0473424Y0393408D01*
X0471811Y0394076D01*
X0470064Y0394076D01*
X0468451Y0393408D01*
X0467217Y0392174D01*
X0466549Y0390561D01*
X0466734Y0388366D02*
X0451704Y0388366D01*
X0454587Y0385968D02*
X0468451Y0385968D01*
X0467349Y0381170D02*
X0528342Y0381170D01*
X0528043Y0378772D02*
X0470215Y0378772D01*
X0470639Y0376373D02*
X0528258Y0376373D01*
X0528015Y0373975D02*
X0469557Y0373975D01*
X0468989Y0366779D02*
X0534035Y0366779D01*
X0528554Y0364381D02*
X0471873Y0364381D01*
X0474477Y0361982D02*
X0528015Y0361982D01*
X0525531Y0359584D02*
X0476599Y0359584D01*
X0478721Y0357185D02*
X0522696Y0357185D01*
X0519862Y0354787D02*
X0480336Y0354787D01*
X0478987Y0356886D02*
X0478987Y0356886D01*
X0481879Y0352388D02*
X0517027Y0352388D01*
X0514193Y0349990D02*
X0483386Y0349990D01*
X0484454Y0347591D02*
X0511358Y0347591D01*
X0523562Y0335599D02*
X0538828Y0335599D01*
X0533891Y0337997D02*
X0525714Y0337997D01*
X0527347Y0340396D02*
X0533424Y0340396D01*
X0530815Y0345193D02*
X0530545Y0345193D01*
X0532688Y0333200D02*
X0521395Y0333200D01*
X0522149Y0333789D02*
X0522149Y0333789D01*
X0529688Y0327188D02*
X0529900Y0327353D01*
X0530116Y0327512D01*
X0530336Y0327667D01*
X0530560Y0327816D01*
X0530787Y0327960D01*
X0531018Y0328099D01*
X0531252Y0328231D01*
X0531488Y0328359D01*
X0531728Y0328480D01*
X0531971Y0328596D01*
X0532217Y0328706D01*
X0532464Y0328810D01*
X0532715Y0328908D01*
X0532968Y0328999D01*
X0533222Y0329085D01*
X0533479Y0329165D01*
X0533738Y0329239D01*
X0533998Y0329306D01*
X0534260Y0329367D01*
X0534523Y0329422D01*
X0534788Y0329470D01*
X0535053Y0329513D01*
X0535320Y0329548D01*
X0535587Y0329578D01*
X0535855Y0329601D01*
X0536123Y0329617D01*
X0536392Y0329627D01*
X0536661Y0329631D01*
X0536930Y0329628D01*
X0537199Y0329619D01*
X0537467Y0329603D01*
X0537735Y0329581D01*
X0538002Y0329553D01*
X0538269Y0329518D01*
X0538535Y0329477D01*
X0538799Y0329429D01*
X0539063Y0329375D01*
X0550775Y0345193D02*
X0554850Y0345193D01*
X0553424Y0347591D02*
X0551889Y0347591D01*
X0551478Y0349990D02*
X0553705Y0349990D01*
X0555882Y0352388D02*
X0548676Y0352388D01*
X0555312Y0324375D02*
X0555779Y0324194D01*
X0556250Y0324025D01*
X0556725Y0323867D01*
X0557203Y0323721D01*
X0557685Y0323586D01*
X0558169Y0323462D01*
X0558657Y0323350D01*
X0559147Y0323250D01*
X0559639Y0323161D01*
X0560134Y0323084D01*
X0560630Y0323019D01*
X0561127Y0322965D01*
X0561625Y0322924D01*
X0562125Y0322894D01*
X0562625Y0322876D01*
X0563125Y0322870D01*
X0563625Y0322876D01*
X0564125Y0322894D01*
X0564625Y0322924D01*
X0565123Y0322965D01*
X0565620Y0323019D01*
X0566116Y0323084D01*
X0566611Y0323161D01*
X0567103Y0323250D01*
X0567593Y0323350D01*
X0568081Y0323462D01*
X0568565Y0323586D01*
X0569047Y0323721D01*
X0569525Y0323867D01*
X0570000Y0324025D01*
X0570471Y0324194D01*
X0570938Y0324375D01*
X0558750Y0314012D02*
X0597025Y0314012D01*
X0597925Y0311614D02*
X0558750Y0311614D01*
X0558750Y0309215D02*
X0595419Y0309215D01*
X0593417Y0306817D02*
X0558750Y0306817D01*
X0558750Y0304418D02*
X0592732Y0304418D01*
X0592988Y0302020D02*
X0558270Y0302020D01*
X0555618Y0299621D02*
X0594383Y0299621D01*
X0593585Y0297223D02*
X0552686Y0297223D01*
X0549299Y0294824D02*
X0592732Y0294824D01*
X0592820Y0292426D02*
X0545141Y0292426D01*
X0542826Y0290027D02*
X0593750Y0290027D01*
X0590465Y0287629D02*
X0554914Y0287629D01*
X0557986Y0285230D02*
X0589173Y0285230D01*
X0589050Y0282832D02*
X0560250Y0282832D01*
X0560951Y0280433D02*
X0589934Y0280433D01*
X0590477Y0278034D02*
X0560370Y0278034D01*
X0552755Y0278034D02*
X0531383Y0278034D01*
X0531500Y0280433D02*
X0531869Y0280433D01*
X0527188Y0279375D02*
X0523750Y0279688D01*
X0519687Y0280313D01*
X0519687Y0285938D02*
X0519062Y0285938D01*
X0518947Y0285940D01*
X0518832Y0285946D01*
X0518718Y0285955D01*
X0518604Y0285969D01*
X0518490Y0285986D01*
X0518377Y0286007D01*
X0518265Y0286032D01*
X0518154Y0286060D01*
X0518044Y0286092D01*
X0517935Y0286128D01*
X0517827Y0286168D01*
X0517720Y0286211D01*
X0517615Y0286257D01*
X0517512Y0286307D01*
X0517410Y0286361D01*
X0517310Y0286418D01*
X0517213Y0286478D01*
X0517117Y0286541D01*
X0517023Y0286608D01*
X0516932Y0286678D01*
X0516843Y0286750D01*
X0516757Y0286826D01*
X0516673Y0286904D01*
X0516591Y0286986D01*
X0516513Y0287070D01*
X0516437Y0287156D01*
X0516365Y0287245D01*
X0516295Y0287336D01*
X0516228Y0287430D01*
X0516165Y0287526D01*
X0516105Y0287623D01*
X0516048Y0287723D01*
X0515994Y0287825D01*
X0515944Y0287928D01*
X0515898Y0288033D01*
X0515855Y0288140D01*
X0515815Y0288248D01*
X0515779Y0288357D01*
X0515747Y0288467D01*
X0515719Y0288578D01*
X0515694Y0288690D01*
X0515673Y0288803D01*
X0515656Y0288917D01*
X0515642Y0289031D01*
X0515633Y0289145D01*
X0515627Y0289260D01*
X0515625Y0289375D01*
X0519688Y0285938D02*
X0519805Y0285912D01*
X0519923Y0285889D01*
X0520041Y0285871D01*
X0520160Y0285857D01*
X0520279Y0285846D01*
X0520399Y0285839D01*
X0520519Y0285836D01*
X0520639Y0285837D01*
X0520759Y0285842D01*
X0520878Y0285851D01*
X0520997Y0285863D01*
X0521116Y0285879D01*
X0521234Y0285900D01*
X0521352Y0285924D01*
X0521468Y0285951D01*
X0521584Y0285983D01*
X0521699Y0286018D01*
X0521812Y0286057D01*
X0521924Y0286100D01*
X0522035Y0286146D01*
X0522144Y0286196D01*
X0522251Y0286249D01*
X0522357Y0286306D01*
X0522461Y0286366D01*
X0522562Y0286429D01*
X0522662Y0286496D01*
X0522760Y0286566D01*
X0522855Y0286638D01*
X0522948Y0286714D01*
X0523038Y0286793D01*
X0523125Y0286875D01*
X0519687Y0280312D02*
X0519453Y0280345D01*
X0519220Y0280384D01*
X0518989Y0280428D01*
X0518758Y0280478D01*
X0518528Y0280534D01*
X0518300Y0280595D01*
X0518074Y0280661D01*
X0517849Y0280733D01*
X0517626Y0280810D01*
X0517405Y0280893D01*
X0517186Y0280981D01*
X0516969Y0281074D01*
X0516754Y0281173D01*
X0516542Y0281276D01*
X0516333Y0281385D01*
X0516126Y0281499D01*
X0515922Y0281618D01*
X0515721Y0281741D01*
X0515523Y0281870D01*
X0515328Y0282003D01*
X0515136Y0282141D01*
X0514948Y0282283D01*
X0514764Y0282430D01*
X0514582Y0282582D01*
X0514405Y0282737D01*
X0514231Y0282897D01*
X0514062Y0283061D01*
X0513896Y0283230D01*
X0513735Y0283402D01*
X0513577Y0283578D01*
X0513424Y0283757D01*
X0513276Y0283941D01*
X0513131Y0284128D01*
X0512992Y0284318D01*
X0512857Y0284512D01*
X0512726Y0284708D01*
X0512601Y0284908D01*
X0512480Y0285111D01*
X0512365Y0285317D01*
X0512254Y0285526D01*
X0512149Y0285737D01*
X0512048Y0285950D01*
X0511953Y0286166D01*
X0511863Y0286384D01*
X0511778Y0286605D01*
X0511699Y0286827D01*
X0511625Y0287051D01*
X0511556Y0287277D01*
X0511493Y0287505D01*
X0511436Y0287733D01*
X0511384Y0287964D01*
X0511337Y0288195D01*
X0511296Y0288428D01*
X0511261Y0288661D01*
X0511232Y0288895D01*
X0511208Y0289130D01*
X0511190Y0289365D01*
X0511177Y0289601D01*
X0511170Y0289837D01*
X0511169Y0290073D01*
X0511174Y0290309D01*
X0511184Y0290545D01*
X0511200Y0290781D01*
X0511222Y0291016D01*
X0511249Y0291250D01*
X0511016Y0280433D02*
X0509452Y0280433D01*
X0514037Y0278034D02*
X0500934Y0278034D01*
X0504638Y0275636D02*
X0523779Y0275636D01*
X0524022Y0275636D02*
X0524135Y0275636D01*
X0529630Y0275636D02*
X0588129Y0275636D01*
X0587169Y0273237D02*
X0508059Y0273237D01*
X0515624Y0289374D02*
X0515598Y0289910D01*
X0515559Y0290445D01*
X0515506Y0290978D01*
X0515441Y0291511D01*
X0515363Y0292041D01*
X0515272Y0292569D01*
X0515169Y0293095D01*
X0515052Y0293619D01*
X0514923Y0294139D01*
X0514781Y0294656D01*
X0514627Y0295170D01*
X0514460Y0295679D01*
X0514281Y0296185D01*
X0514090Y0296686D01*
X0513887Y0297182D01*
X0513671Y0297673D01*
X0513444Y0298159D01*
X0513205Y0298639D01*
X0512955Y0299113D01*
X0512693Y0299580D01*
X0512420Y0300042D01*
X0512135Y0300496D01*
X0511840Y0300944D01*
X0511534Y0301384D01*
X0511217Y0301817D01*
X0510890Y0302242D01*
X0510553Y0302658D01*
X0510205Y0303067D01*
X0509848Y0303467D01*
X0509482Y0303858D01*
X0509105Y0304240D01*
X0508720Y0304613D01*
X0508326Y0304976D01*
X0507923Y0305330D01*
X0507511Y0305674D01*
X0507092Y0306007D01*
X0506664Y0306331D01*
X0506229Y0306644D01*
X0505786Y0306946D01*
X0505336Y0307237D01*
X0504879Y0307518D01*
X0504415Y0307787D01*
X0503945Y0308045D01*
X0503469Y0308291D01*
X0502987Y0308526D01*
X0502499Y0308749D01*
X0468750Y0307500D02*
X0460312Y0318750D01*
X0450920Y0347591D02*
X0474351Y0347591D01*
X0472809Y0349990D02*
X0450639Y0349990D01*
X0450011Y0352388D02*
X0471047Y0352388D01*
X0468925Y0354787D02*
X0435875Y0354787D01*
X0435875Y0357185D02*
X0466565Y0357185D01*
X0463681Y0359584D02*
X0435935Y0359584D01*
X0436264Y0361982D02*
X0450709Y0361982D01*
X0451002Y0361861D02*
X0452748Y0361861D01*
X0454361Y0362529D01*
X0455596Y0363764D01*
X0456264Y0365377D01*
X0456264Y0367123D01*
X0455596Y0368736D01*
X0454361Y0369971D01*
X0452748Y0370639D01*
X0451002Y0370639D01*
X0449389Y0369971D01*
X0448154Y0368736D01*
X0447486Y0367123D01*
X0447486Y0365377D01*
X0448154Y0363764D01*
X0449389Y0362529D01*
X0451002Y0361861D01*
X0453041Y0361982D02*
X0460367Y0361982D01*
X0457806Y0364381D02*
X0455851Y0364381D01*
X0456264Y0366779D02*
X0457486Y0366779D01*
X0458501Y0369178D02*
X0455154Y0369178D01*
X0448596Y0369178D02*
X0435931Y0369178D01*
X0436264Y0366779D02*
X0447486Y0366779D01*
X0447899Y0364381D02*
X0434963Y0364381D01*
X0431875Y0361250D02*
X0431875Y0351562D01*
X0435974Y0349990D02*
X0441861Y0349990D01*
X0442489Y0352388D02*
X0436264Y0352388D01*
X0433757Y0347591D02*
X0442497Y0347591D01*
X0429993Y0347591D02*
X0413928Y0347591D01*
X0407947Y0347591D02*
X0396250Y0347591D01*
X0396250Y0349990D02*
X0427776Y0349990D01*
X0427486Y0352388D02*
X0396250Y0352388D01*
X0396250Y0354787D02*
X0427875Y0354787D01*
X0427875Y0357185D02*
X0396250Y0357185D01*
X0396250Y0359584D02*
X0427815Y0359584D01*
X0427486Y0361982D02*
X0396250Y0361982D01*
X0396347Y0364381D02*
X0428787Y0364381D01*
X0427486Y0366779D02*
X0396889Y0366779D01*
X0396250Y0369178D02*
X0427819Y0369178D01*
X0430247Y0371576D02*
X0396250Y0371576D01*
X0396250Y0393163D02*
X0468206Y0393163D01*
X0468111Y0394717D02*
X0469346Y0395951D01*
X0470014Y0397564D01*
X0470014Y0399311D01*
X0469704Y0400059D01*
X0470283Y0400639D01*
X0470951Y0402252D01*
X0470951Y0403998D01*
X0470283Y0405611D01*
X0469795Y0406099D01*
X0470014Y0406627D01*
X0470014Y0408373D01*
X0469346Y0409986D01*
X0468111Y0411221D01*
X0466498Y0411889D01*
X0464752Y0411889D01*
X0463139Y0411221D01*
X0461904Y0409986D01*
X0461236Y0408373D01*
X0461236Y0406627D01*
X0461904Y0405014D01*
X0462392Y0404526D01*
X0462174Y0403998D01*
X0462174Y0402252D01*
X0462484Y0401503D01*
X0461904Y0400924D01*
X0461236Y0399311D01*
X0461236Y0397564D01*
X0461904Y0395951D01*
X0463139Y0394717D01*
X0464752Y0394049D01*
X0466498Y0394049D01*
X0468111Y0394717D01*
X0468956Y0395562D02*
X0530828Y0395562D01*
X0533355Y0390765D02*
X0533640Y0390765D01*
X0534413Y0388366D02*
X0532582Y0388366D01*
X0535476Y0385968D02*
X0542418Y0385968D01*
X0541861Y0383569D02*
X0536793Y0383569D01*
X0536466Y0381170D02*
X0542243Y0381170D01*
X0541861Y0378772D02*
X0536765Y0378772D01*
X0536550Y0376373D02*
X0543045Y0376373D01*
X0542539Y0373975D02*
X0536793Y0373975D01*
X0528562Y0371576D02*
X0433503Y0371576D01*
X0453940Y0381170D02*
X0465151Y0381170D01*
X0473424Y0385968D02*
X0505850Y0385968D01*
X0505828Y0386022D02*
X0506496Y0384409D01*
X0507730Y0383174D01*
X0509344Y0382506D01*
X0511090Y0382506D01*
X0512703Y0383174D01*
X0513937Y0384409D01*
X0514605Y0386022D01*
X0514605Y0387768D01*
X0513937Y0389381D01*
X0512703Y0390615D01*
X0511090Y0391284D01*
X0509344Y0391284D01*
X0507730Y0390615D01*
X0506496Y0389381D01*
X0505828Y0387768D01*
X0505828Y0386022D01*
X0506075Y0388366D02*
X0475141Y0388366D01*
X0475242Y0390765D02*
X0508090Y0390765D01*
X0512343Y0390765D02*
X0520515Y0390765D01*
X0521067Y0393163D02*
X0473669Y0393163D01*
X0470014Y0397960D02*
X0524886Y0397960D01*
X0524265Y0400359D02*
X0470003Y0400359D01*
X0470951Y0402757D02*
X0524908Y0402757D01*
X0520935Y0409283D02*
X0493750Y0408750D01*
X0493099Y0408807D01*
X0492467Y0408976D01*
X0491875Y0409252D01*
X0491340Y0409627D01*
X0490877Y0410090D01*
X0490502Y0410625D01*
X0490226Y0411217D01*
X0490057Y0411849D01*
X0490000Y0412500D01*
X0489838Y0415289D01*
X0489356Y0418042D01*
X0488559Y0420720D01*
X0487459Y0423288D01*
X0486069Y0425712D01*
X0484409Y0427959D01*
X0482500Y0430000D01*
X0520662Y0430748D01*
X0520967Y0430014D01*
X0522201Y0428779D01*
X0522870Y0428502D01*
X0521889Y0428096D01*
X0520654Y0426861D01*
X0519986Y0425248D01*
X0519986Y0423502D01*
X0520654Y0421889D01*
X0521889Y0420654D01*
X0523502Y0419986D01*
X0524265Y0419986D01*
X0524265Y0419459D01*
X0524933Y0417846D01*
X0526168Y0416611D01*
X0527781Y0415943D01*
X0528516Y0415943D01*
X0529034Y0413459D01*
X0529034Y0413459D01*
X0530804Y0410365D01*
X0531762Y0409495D01*
X0529132Y0409444D01*
X0529389Y0410064D01*
X0529389Y0411811D01*
X0528721Y0413424D01*
X0527486Y0414658D01*
X0525873Y0415326D01*
X0524127Y0415326D01*
X0522514Y0414658D01*
X0521279Y0413424D01*
X0520611Y0411811D01*
X0520611Y0410064D01*
X0520935Y0409283D01*
X0520657Y0409953D02*
X0491014Y0409953D01*
X0490013Y0412351D02*
X0520835Y0412351D01*
X0522734Y0414750D02*
X0489870Y0414750D01*
X0489513Y0417148D02*
X0525631Y0417148D01*
X0524265Y0419547D02*
X0488908Y0419547D01*
X0488034Y0421945D02*
X0520631Y0421945D01*
X0519687Y0423437D02*
X0515625Y0423437D01*
X0511137Y0423437D01*
X0519986Y0424344D02*
X0486853Y0424344D01*
X0485308Y0426742D02*
X0520605Y0426742D01*
X0521840Y0429141D02*
X0483304Y0429141D01*
X0480278Y0424344D02*
X0417228Y0424344D01*
X0415471Y0421945D02*
X0481922Y0421945D01*
X0483154Y0419547D02*
X0413755Y0419547D01*
X0411245Y0417148D02*
X0484044Y0417148D01*
X0484632Y0414750D02*
X0407108Y0414750D01*
X0406946Y0421945D02*
X0381678Y0421945D01*
X0381678Y0419547D02*
X0401733Y0419547D01*
X0396250Y0412351D02*
X0484946Y0412351D01*
X0485016Y0409953D02*
X0469360Y0409953D01*
X0470014Y0407554D02*
X0486052Y0407554D01*
X0488407Y0405156D02*
X0470472Y0405156D01*
X0461845Y0405156D02*
X0454404Y0405156D01*
X0454346Y0405014D02*
X0455014Y0406627D01*
X0455014Y0408373D01*
X0454346Y0409986D01*
X0453111Y0411221D01*
X0451498Y0411889D01*
X0449752Y0411889D01*
X0448139Y0411221D01*
X0446904Y0409986D01*
X0446236Y0408373D01*
X0446236Y0406627D01*
X0446455Y0406099D01*
X0445967Y0405611D01*
X0445299Y0403998D01*
X0445299Y0402252D01*
X0445967Y0400639D01*
X0446546Y0400059D01*
X0446236Y0399311D01*
X0446236Y0397564D01*
X0446904Y0395951D01*
X0448139Y0394717D01*
X0449752Y0394049D01*
X0451498Y0394049D01*
X0453111Y0394717D01*
X0454346Y0395951D01*
X0455014Y0397564D01*
X0455014Y0399311D01*
X0454346Y0400924D01*
X0453766Y0401503D01*
X0454076Y0402252D01*
X0454076Y0403998D01*
X0453858Y0404526D01*
X0454346Y0405014D01*
X0454076Y0402757D02*
X0462174Y0402757D01*
X0461670Y0400359D02*
X0454580Y0400359D01*
X0455014Y0397960D02*
X0461236Y0397960D01*
X0462294Y0395562D02*
X0453956Y0395562D01*
X0447294Y0395562D02*
X0396250Y0395562D01*
X0396250Y0397960D02*
X0446236Y0397960D01*
X0446247Y0400359D02*
X0396250Y0400359D01*
X0396250Y0402757D02*
X0445299Y0402757D01*
X0445778Y0405156D02*
X0396250Y0405156D01*
X0396250Y0407554D02*
X0446236Y0407554D01*
X0446890Y0409953D02*
X0396250Y0409953D01*
X0410078Y0424344D02*
X0381678Y0424344D01*
X0381678Y0426742D02*
X0412255Y0426742D01*
X0414164Y0429141D02*
X0381678Y0429141D01*
X0381678Y0431539D02*
X0416621Y0431539D01*
X0419904Y0433938D02*
X0387645Y0433938D01*
X0389269Y0436336D02*
X0424608Y0436336D01*
X0427972Y0431539D02*
X0469823Y0431539D01*
X0468643Y0436336D02*
X0522480Y0436336D01*
X0526895Y0436336D02*
X0598111Y0436336D01*
X0597566Y0438735D02*
X0598779Y0438735D01*
X0598339Y0439055D02*
X0600345Y0441061D01*
X0601431Y0443682D01*
X0601431Y0446518D01*
X0600345Y0449139D01*
X0598339Y0451145D01*
X0595718Y0452231D01*
X0592882Y0452231D01*
X0590261Y0451145D01*
X0588255Y0449139D01*
X0587169Y0446518D01*
X0587169Y0443682D01*
X0588255Y0441061D01*
X0590261Y0439055D01*
X0592882Y0437969D01*
X0595718Y0437969D01*
X0598339Y0439055D01*
X0600375Y0441133D02*
X0605960Y0441133D01*
X0605960Y0443532D02*
X0601369Y0443532D01*
X0601431Y0445930D02*
X0605960Y0445930D01*
X0605960Y0448329D02*
X0600681Y0448329D01*
X0598757Y0450727D02*
X0605960Y0450727D01*
X0605960Y0453126D02*
X0604958Y0453126D01*
X0598167Y0453126D02*
X0590909Y0453126D01*
X0589091Y0453126D02*
X0588508Y0453126D01*
X0587885Y0450727D02*
X0589843Y0450727D01*
X0587919Y0448329D02*
X0586005Y0448329D01*
X0587169Y0445930D02*
X0431219Y0445930D01*
X0432623Y0448329D02*
X0438010Y0448329D01*
X0436131Y0450727D02*
X0432825Y0450727D01*
X0432841Y0453126D02*
X0432020Y0453126D01*
X0434659Y0453126D02*
X0435508Y0453126D01*
X0446005Y0448329D02*
X0448010Y0448329D01*
X0456005Y0448329D02*
X0458010Y0448329D01*
X0466005Y0448329D02*
X0468010Y0448329D01*
X0476005Y0448329D02*
X0478010Y0448329D01*
X0486005Y0448329D02*
X0488010Y0448329D01*
X0496005Y0448329D02*
X0498010Y0448329D01*
X0506005Y0448329D02*
X0508010Y0448329D01*
X0516005Y0448329D02*
X0528010Y0448329D01*
X0526131Y0450727D02*
X0517885Y0450727D01*
X0518508Y0453126D02*
X0520966Y0453126D01*
X0522784Y0453126D02*
X0525508Y0453126D01*
X0536005Y0448329D02*
X0538010Y0448329D01*
X0546005Y0448329D02*
X0548010Y0448329D01*
X0556005Y0448329D02*
X0558010Y0448329D01*
X0566005Y0448329D02*
X0568010Y0448329D01*
X0576005Y0448329D02*
X0578010Y0448329D01*
X0587231Y0443532D02*
X0400669Y0443532D01*
X0400731Y0445930D02*
X0406906Y0445930D01*
X0405502Y0448329D02*
X0399981Y0448329D01*
X0398057Y0450727D02*
X0405300Y0450727D01*
X0406105Y0453126D02*
X0399659Y0453126D01*
X0397841Y0453126D02*
X0389333Y0453126D01*
X0389143Y0450727D02*
X0381678Y0450727D01*
X0381678Y0448329D02*
X0387219Y0448329D01*
X0386469Y0445930D02*
X0381678Y0445930D01*
X0381678Y0443532D02*
X0386531Y0443532D01*
X0382426Y0441133D02*
X0381678Y0441133D01*
X0381678Y0433938D02*
X0382355Y0433938D01*
X0389239Y0438735D02*
X0390334Y0438735D01*
X0396866Y0438735D02*
X0591034Y0438735D01*
X0588225Y0441133D02*
X0399675Y0441133D01*
X0402682Y0455524D02*
X0409040Y0455524D01*
X0413460Y0455524D02*
X0415443Y0455524D01*
X0414986Y0457923D02*
X0403139Y0457923D01*
X0402136Y0460321D02*
X0415989Y0460321D01*
X0415594Y0445930D02*
X0417731Y0445930D01*
X0421019Y0445930D02*
X0422531Y0445930D01*
X0422743Y0429141D02*
X0474933Y0429141D01*
X0478078Y0426742D02*
X0419560Y0426742D01*
X0394818Y0455524D02*
X0390639Y0455524D01*
X0390308Y0457923D02*
X0394361Y0457923D01*
X0395364Y0460321D02*
X0387890Y0460321D01*
X0383167Y0453126D02*
X0381678Y0453126D01*
X0454360Y0409953D02*
X0461890Y0409953D01*
X0461236Y0407554D02*
X0455014Y0407554D01*
X0455014Y0383569D02*
X0507335Y0383569D01*
X0513098Y0383569D02*
X0528015Y0383569D01*
X0529332Y0385968D02*
X0514583Y0385968D01*
X0514358Y0388366D02*
X0521288Y0388366D01*
X0446250Y0350000D02*
X0446659Y0348125D01*
X0447113Y0346260D01*
X0447613Y0344407D01*
X0448158Y0342567D01*
X0448748Y0340741D01*
X0449383Y0338929D01*
X0450062Y0337134D01*
X0450784Y0335356D01*
X0451550Y0333596D01*
X0452359Y0331856D01*
X0453211Y0330136D01*
X0454104Y0328437D01*
X0455039Y0326761D01*
X0456014Y0325108D01*
X0457030Y0323479D01*
X0458086Y0321876D01*
X0459180Y0320300D01*
X0460313Y0318750D01*
X0523125Y0286875D02*
X0523190Y0286989D01*
X0523258Y0287100D01*
X0523330Y0287209D01*
X0523405Y0287316D01*
X0523483Y0287420D01*
X0523564Y0287523D01*
X0523649Y0287622D01*
X0523736Y0287719D01*
X0523826Y0287814D01*
X0523919Y0287906D01*
X0524014Y0287995D01*
X0524113Y0288081D01*
X0524213Y0288164D01*
X0524316Y0288244D01*
X0524422Y0288321D01*
X0524529Y0288395D01*
X0524639Y0288466D01*
X0524751Y0288533D01*
X0524865Y0288597D01*
X0524981Y0288657D01*
X0525098Y0288714D01*
X0525217Y0288768D01*
X0525338Y0288818D01*
X0525460Y0288864D01*
X0525583Y0288907D01*
X0525708Y0288946D01*
X0525834Y0288981D01*
X0525961Y0289012D01*
X0526088Y0289040D01*
X0526217Y0289064D01*
X0526346Y0289084D01*
X0526475Y0289100D01*
X0526605Y0289112D01*
X0526735Y0289121D01*
X0526866Y0289125D01*
X0526997Y0289126D01*
X0527127Y0289123D01*
X0527257Y0289115D01*
X0527388Y0289104D01*
X0527517Y0289089D01*
X0527646Y0289071D01*
X0527775Y0289048D01*
X0527903Y0289022D01*
X0528030Y0288991D01*
X0528156Y0288957D01*
X0528281Y0288919D01*
X0528405Y0288878D01*
X0528527Y0288833D01*
X0528648Y0288784D01*
X0528768Y0288732D01*
X0528886Y0288676D01*
X0529002Y0288616D01*
X0529117Y0288554D01*
X0529229Y0288487D01*
X0529340Y0288418D01*
X0529448Y0288345D01*
X0529554Y0288269D01*
X0529658Y0288190D01*
X0529760Y0288108D01*
X0529859Y0288023D01*
X0529955Y0287934D01*
X0530049Y0287843D01*
X0530140Y0287750D01*
X0530228Y0287653D01*
X0530313Y0287554D01*
X0530395Y0287453D01*
X0530474Y0287349D01*
X0530550Y0287243D01*
X0530623Y0287135D01*
X0530693Y0287024D01*
X0530759Y0286912D01*
X0530822Y0286797D01*
X0530881Y0286681D01*
X0530937Y0286563D01*
X0530938Y0286563D02*
X0531091Y0286366D01*
X0531250Y0286174D01*
X0531413Y0285985D01*
X0531581Y0285800D01*
X0531753Y0285620D01*
X0531929Y0285443D01*
X0532110Y0285271D01*
X0532295Y0285103D01*
X0532483Y0284940D01*
X0532676Y0284782D01*
X0532873Y0284628D01*
X0533073Y0284479D01*
X0533276Y0284335D01*
X0533484Y0284196D01*
X0533694Y0284062D01*
X0533908Y0283933D01*
X0534124Y0283809D01*
X0534344Y0283691D01*
X0534567Y0283578D01*
X0534792Y0283471D01*
X0535019Y0283369D01*
X0535249Y0283272D01*
X0535482Y0283181D01*
X0535716Y0283096D01*
X0535953Y0283017D01*
X0536191Y0282943D01*
X0536431Y0282875D01*
X0536673Y0282813D01*
X0536916Y0282757D01*
X0537160Y0282706D01*
X0537406Y0282662D01*
X0537652Y0282624D01*
X0537900Y0282591D01*
X0538148Y0282565D01*
X0538397Y0282545D01*
X0538646Y0282530D01*
X0538895Y0282522D01*
X0539145Y0282520D01*
X0539394Y0282524D01*
X0539643Y0282534D01*
X0539892Y0282550D01*
X0540141Y0282572D01*
X0540389Y0282600D01*
X0540636Y0282634D01*
X0540882Y0282674D01*
X0541127Y0282720D01*
X0541371Y0282772D01*
X0541614Y0282830D01*
X0541855Y0282894D01*
X0542095Y0282963D01*
X0542333Y0283039D01*
X0542569Y0283120D01*
X0542803Y0283207D01*
X0543034Y0283299D01*
X0543264Y0283397D01*
X0543491Y0283501D01*
X0543715Y0283610D01*
X0543937Y0283724D01*
X0544156Y0283844D01*
X0544371Y0283969D01*
X0544584Y0284100D01*
X0544794Y0284235D01*
X0545000Y0284376D01*
X0542544Y0287629D02*
X0542206Y0287629D01*
X0546343Y0280433D02*
X0551281Y0280433D01*
X0556563Y0280313D02*
X0556470Y0280501D01*
X0556372Y0280686D01*
X0556270Y0280869D01*
X0556164Y0281050D01*
X0556054Y0281227D01*
X0555939Y0281403D01*
X0555820Y0281575D01*
X0555697Y0281744D01*
X0555569Y0281911D01*
X0555438Y0282074D01*
X0555303Y0282234D01*
X0555164Y0282390D01*
X0555021Y0282544D01*
X0554875Y0282694D01*
X0554725Y0282840D01*
X0554572Y0282982D01*
X0554415Y0283121D01*
X0554255Y0283256D01*
X0554091Y0283387D01*
X0553925Y0283514D01*
X0553756Y0283637D01*
X0553583Y0283756D01*
X0553408Y0283871D01*
X0553230Y0283981D01*
X0553049Y0284087D01*
X0552866Y0284189D01*
X0552681Y0284286D01*
X0552493Y0284379D01*
X0552303Y0284467D01*
X0552111Y0284551D01*
X0551917Y0284630D01*
X0551721Y0284704D01*
X0551524Y0284773D01*
X0551324Y0284838D01*
X0551124Y0284898D01*
X0550922Y0284952D01*
X0550718Y0285003D01*
X0550514Y0285048D01*
X0550308Y0285088D01*
X0550102Y0285123D01*
X0549895Y0285153D01*
X0549687Y0285178D01*
X0549478Y0285198D01*
X0549269Y0285213D01*
X0549060Y0285223D01*
X0548851Y0285228D01*
X0548641Y0285228D01*
X0548432Y0285223D01*
X0548223Y0285213D01*
X0548014Y0285198D01*
X0547806Y0285177D01*
X0547598Y0285152D01*
X0547391Y0285122D01*
X0547184Y0285086D01*
X0546979Y0285046D01*
X0546774Y0285001D01*
X0546571Y0284951D01*
X0546369Y0284895D01*
X0546168Y0284835D01*
X0545969Y0284771D01*
X0545771Y0284701D01*
X0545576Y0284627D01*
X0545382Y0284548D01*
X0545190Y0284464D01*
X0545000Y0284376D01*
X0555312Y0324375D02*
X0554645Y0324717D01*
X0553971Y0325042D01*
X0553289Y0325353D01*
X0552600Y0325647D01*
X0551904Y0325925D01*
X0551202Y0326187D01*
X0550494Y0326433D01*
X0549781Y0326662D01*
X0549062Y0326875D01*
X0578889Y0361982D02*
X0581243Y0361982D01*
X0582289Y0361310D02*
X0582289Y0361310D01*
X0579720Y0362961D02*
X0579720Y0362961D01*
X0579720Y0362961D01*
X0585562Y0371576D02*
X0605960Y0371576D01*
X0605960Y0373975D02*
X0592700Y0373975D01*
X0589800Y0373975D02*
X0587075Y0373975D01*
X0595275Y0376373D02*
X0605960Y0376373D01*
X0605960Y0378772D02*
X0595639Y0378772D01*
X0594411Y0381170D02*
X0605960Y0381170D01*
X0605960Y0383569D02*
X0599483Y0383569D01*
X0600805Y0385968D02*
X0605960Y0385968D01*
X0605960Y0388366D02*
X0600950Y0388366D01*
X0600088Y0390765D02*
X0605960Y0390765D01*
X0605960Y0393163D02*
X0599077Y0393163D01*
X0600637Y0395562D02*
X0605960Y0395562D01*
X0605960Y0397960D02*
X0600950Y0397960D01*
X0603647Y0400359D02*
X0605960Y0400359D01*
X0605955Y0402757D02*
X0605960Y0402757D01*
X0605960Y0407554D02*
X0604903Y0407554D01*
X0605960Y0424344D02*
X0563517Y0424344D01*
X0562527Y0426742D02*
X0605960Y0426742D01*
X0605960Y0429141D02*
X0561073Y0429141D01*
X0558999Y0431539D02*
X0605960Y0431539D01*
X0598707Y0433938D02*
X0555769Y0433938D01*
X0552735Y0429141D02*
X0527535Y0429141D01*
X0527174Y0428779D02*
X0528408Y0430014D01*
X0528778Y0430907D01*
X0546250Y0431250D01*
X0548112Y0431027D01*
X0549922Y0430542D01*
X0551646Y0429804D01*
X0553247Y0428829D01*
X0554692Y0427635D01*
X0555954Y0426248D01*
X0557004Y0424695D01*
X0557824Y0423009D01*
X0558394Y0421223D01*
X0558705Y0419374D01*
X0558750Y0417500D01*
X0557500Y0410000D01*
X0543659Y0409729D01*
X0543059Y0411299D01*
X0543059Y0411299D01*
X0540694Y0414102D01*
X0539652Y0414719D01*
X0539479Y0414903D01*
X0538905Y0415162D01*
X0538363Y0415482D01*
X0538294Y0415492D01*
X0537775Y0415963D01*
X0537393Y0416630D01*
X0537237Y0417381D01*
X0537320Y0418144D01*
X0537450Y0418507D01*
X0537809Y0419305D01*
X0537812Y0419405D01*
X0537826Y0419439D01*
X0537826Y0419881D01*
X0537862Y0421055D01*
X0537826Y0421148D01*
X0537826Y0421186D01*
X0537658Y0421593D01*
X0537241Y0422691D01*
X0537173Y0422764D01*
X0537158Y0422799D01*
X0536846Y0423111D01*
X0536041Y0423966D01*
X0535950Y0424007D01*
X0535924Y0424033D01*
X0535516Y0424202D01*
X0534445Y0424684D01*
X0534345Y0424687D01*
X0534311Y0424701D01*
X0533869Y0424701D01*
X0532695Y0424737D01*
X0532602Y0424701D01*
X0532564Y0424701D01*
X0532157Y0424533D01*
X0531059Y0424116D01*
X0531037Y0424096D01*
X0529527Y0424721D01*
X0528764Y0424721D01*
X0528764Y0425248D01*
X0528096Y0426861D01*
X0526861Y0428096D01*
X0526192Y0428373D01*
X0527174Y0428779D01*
X0528145Y0426742D02*
X0555504Y0426742D01*
X0554215Y0425346D02*
X0552469Y0425346D01*
X0551310Y0424866D01*
X0550152Y0425346D01*
X0548406Y0425346D01*
X0546793Y0424678D01*
X0545558Y0423443D01*
X0544890Y0421830D01*
X0544890Y0420084D01*
X0545558Y0418471D01*
X0546793Y0417236D01*
X0548406Y0416568D01*
X0550152Y0416568D01*
X0551310Y0417048D01*
X0552469Y0416568D01*
X0554215Y0416568D01*
X0555828Y0417236D01*
X0557062Y0418471D01*
X0557730Y0420084D01*
X0557730Y0421830D01*
X0557062Y0423443D01*
X0555828Y0424678D01*
X0554215Y0425346D01*
X0553438Y0425625D02*
X0530625Y0425625D01*
X0530438Y0424344D02*
X0531659Y0424344D01*
X0535201Y0424344D02*
X0546459Y0424344D01*
X0544938Y0421945D02*
X0537524Y0421945D01*
X0537826Y0419547D02*
X0545113Y0419547D01*
X0547006Y0417148D02*
X0537285Y0417148D01*
X0537775Y0415963D02*
X0537775Y0415963D01*
X0539623Y0414750D02*
X0558292Y0414750D01*
X0557500Y0416250D02*
X0557813Y0421562D01*
X0557683Y0421945D02*
X0558164Y0421945D01*
X0558676Y0419547D02*
X0557508Y0419547D01*
X0558691Y0417148D02*
X0555615Y0417148D01*
X0557813Y0421562D02*
X0557806Y0421690D01*
X0557796Y0421817D01*
X0557782Y0421943D01*
X0557764Y0422070D01*
X0557742Y0422195D01*
X0557716Y0422320D01*
X0557686Y0422444D01*
X0557653Y0422567D01*
X0557616Y0422689D01*
X0557576Y0422810D01*
X0557531Y0422930D01*
X0557484Y0423048D01*
X0557432Y0423165D01*
X0557377Y0423280D01*
X0557319Y0423393D01*
X0557257Y0423505D01*
X0557192Y0423615D01*
X0557124Y0423722D01*
X0557052Y0423828D01*
X0556977Y0423931D01*
X0556900Y0424032D01*
X0556819Y0424131D01*
X0556735Y0424227D01*
X0556648Y0424321D01*
X0556559Y0424412D01*
X0556467Y0424500D01*
X0556372Y0424585D01*
X0556275Y0424668D01*
X0556175Y0424747D01*
X0556073Y0424824D01*
X0555969Y0424897D01*
X0555862Y0424967D01*
X0555754Y0425034D01*
X0555643Y0425097D01*
X0555531Y0425158D01*
X0555416Y0425214D01*
X0555300Y0425268D01*
X0555183Y0425318D01*
X0555064Y0425364D01*
X0554944Y0425406D01*
X0554823Y0425445D01*
X0554700Y0425481D01*
X0554576Y0425512D01*
X0554452Y0425540D01*
X0554327Y0425564D01*
X0554201Y0425584D01*
X0554074Y0425601D01*
X0553947Y0425613D01*
X0553820Y0425622D01*
X0553693Y0425627D01*
X0553565Y0425628D01*
X0553438Y0425625D01*
X0556162Y0424344D02*
X0557175Y0424344D01*
X0540694Y0414102D02*
X0540694Y0414102D01*
X0540694Y0414102D01*
X0542171Y0412351D02*
X0557892Y0412351D01*
X0555084Y0409953D02*
X0543574Y0409953D01*
X0531258Y0409953D02*
X0529343Y0409953D01*
X0529165Y0412351D02*
X0529668Y0412351D01*
X0528765Y0414750D02*
X0527266Y0414750D01*
X0519687Y0423438D02*
X0519697Y0423581D01*
X0519711Y0423724D01*
X0519729Y0423867D01*
X0519750Y0424009D01*
X0519776Y0424150D01*
X0519805Y0424291D01*
X0519838Y0424431D01*
X0519875Y0424570D01*
X0519916Y0424707D01*
X0519960Y0424844D01*
X0520008Y0424979D01*
X0520060Y0425114D01*
X0520115Y0425246D01*
X0520174Y0425377D01*
X0520237Y0425507D01*
X0520303Y0425634D01*
X0520372Y0425760D01*
X0520445Y0425884D01*
X0520521Y0426006D01*
X0520601Y0426125D01*
X0520684Y0426243D01*
X0520769Y0426358D01*
X0520858Y0426471D01*
X0520950Y0426581D01*
X0521045Y0426689D01*
X0521143Y0426794D01*
X0521244Y0426897D01*
X0521347Y0426997D01*
X0521453Y0427094D01*
X0521562Y0427188D01*
X0521563Y0427188D02*
X0521660Y0427277D01*
X0521759Y0427364D01*
X0521861Y0427448D01*
X0521966Y0427529D01*
X0522073Y0427607D01*
X0522181Y0427682D01*
X0522292Y0427753D01*
X0522405Y0427822D01*
X0522520Y0427887D01*
X0522637Y0427949D01*
X0522756Y0428007D01*
X0522876Y0428062D01*
X0522998Y0428113D01*
X0523121Y0428161D01*
X0523245Y0428205D01*
X0523371Y0428246D01*
X0523498Y0428283D01*
X0523626Y0428316D01*
X0523754Y0428346D01*
X0523884Y0428372D01*
X0524014Y0428394D01*
X0524145Y0428412D01*
X0524276Y0428427D01*
X0524408Y0428438D01*
X0524540Y0428445D01*
X0524672Y0428448D01*
X0524804Y0428447D01*
X0524936Y0428443D01*
X0525068Y0428434D01*
X0525199Y0428422D01*
X0525331Y0428406D01*
X0525461Y0428386D01*
X0525591Y0428363D01*
X0525721Y0428336D01*
X0525849Y0428305D01*
X0525976Y0428270D01*
X0526103Y0428232D01*
X0526228Y0428190D01*
X0526352Y0428144D01*
X0526475Y0428095D01*
X0526596Y0428042D01*
X0526715Y0427986D01*
X0526833Y0427927D01*
X0526950Y0427864D01*
X0527064Y0427797D01*
X0527176Y0427728D01*
X0527286Y0427655D01*
X0527394Y0427579D01*
X0527500Y0427500D01*
X0527585Y0427392D01*
X0527673Y0427285D01*
X0527765Y0427181D01*
X0527859Y0427080D01*
X0527956Y0426981D01*
X0528055Y0426885D01*
X0528158Y0426792D01*
X0528263Y0426702D01*
X0528370Y0426615D01*
X0528480Y0426531D01*
X0528592Y0426450D01*
X0528706Y0426373D01*
X0528823Y0426298D01*
X0528941Y0426227D01*
X0529062Y0426159D01*
X0529184Y0426095D01*
X0529308Y0426034D01*
X0529434Y0425977D01*
X0529562Y0425923D01*
X0529691Y0425873D01*
X0529821Y0425826D01*
X0529952Y0425783D01*
X0530085Y0425744D01*
X0530219Y0425709D01*
X0530353Y0425677D01*
X0530489Y0425650D01*
X0530625Y0425626D01*
X0573973Y0383569D02*
X0577563Y0383569D01*
X0577563Y0381170D02*
X0576011Y0381170D01*
X0576246Y0378772D02*
X0577563Y0378772D01*
X0577563Y0376373D02*
X0575927Y0376373D01*
X0576264Y0373975D02*
X0577563Y0373975D01*
X0593932Y0455524D02*
X0597174Y0455524D01*
X0597634Y0457923D02*
X0594389Y0457923D01*
X0593386Y0460321D02*
X0600677Y0460321D01*
X0529688Y0327187D02*
X0523875Y0324232D01*
X0517997Y0321409D01*
X0512057Y0318720D01*
X0506057Y0316166D01*
X0500000Y0313750D01*
X0498124Y0326875D02*
X0496705Y0325045D01*
X0495327Y0323185D01*
X0493990Y0321295D01*
X0492696Y0319375D01*
X0491444Y0317427D01*
X0490235Y0315453D01*
X0489070Y0313452D01*
X0487950Y0311425D01*
X0486874Y0309375D01*
X0539063Y0329375D02*
X0542413Y0328611D01*
X0545747Y0327778D01*
X0549063Y0326875D01*
D19*
X0523125Y0347187D02*
X0523125Y0350000D01*
X0522812Y0349687D01*
X0585625Y0378125D02*
X0585625Y0393750D01*
X0585636Y0394014D01*
X0585653Y0394278D01*
X0585677Y0394541D01*
X0585707Y0394804D01*
X0585743Y0395066D01*
X0585785Y0395327D01*
X0585834Y0395586D01*
X0585889Y0395845D01*
X0585951Y0396102D01*
X0586018Y0396358D01*
X0586092Y0396612D01*
X0586172Y0396864D01*
X0586257Y0397114D01*
X0586349Y0397362D01*
X0586447Y0397608D01*
X0586551Y0397851D01*
X0586660Y0398092D01*
X0586776Y0398329D01*
X0586897Y0398565D01*
X0587024Y0398797D01*
X0587156Y0399026D01*
X0587294Y0399251D01*
X0587437Y0399474D01*
X0587585Y0399692D01*
X0587739Y0399907D01*
X0587898Y0400119D01*
X0588062Y0400326D01*
X0588231Y0400530D01*
X0588405Y0400729D01*
X0588583Y0400924D01*
X0588767Y0401114D01*
X0588954Y0401301D01*
X0589147Y0401482D01*
X0589343Y0401659D01*
X0589544Y0401831D01*
X0589749Y0401998D01*
X0589958Y0402160D01*
X0590170Y0402317D01*
X0590387Y0402469D01*
X0590607Y0402616D01*
X0590830Y0402757D01*
X0591057Y0402893D01*
X0591287Y0403023D01*
X0591521Y0403148D01*
X0591757Y0403267D01*
X0591996Y0403380D01*
X0592237Y0403488D01*
X0592481Y0403589D01*
X0592728Y0403685D01*
X0592977Y0403775D01*
X0593228Y0403858D01*
X0593480Y0403936D01*
X0593735Y0404007D01*
X0593991Y0404072D01*
X0594249Y0404131D01*
X0594508Y0404184D01*
X0594768Y0404231D01*
X0595030Y0404271D01*
X0595292Y0404305D01*
X0595555Y0404332D01*
X0595818Y0404354D01*
X0596082Y0404368D01*
X0596347Y0404377D01*
X0596611Y0404379D01*
X0596876Y0404375D01*
X0596875Y0404375D02*
X0601875Y0404375D01*
X0496515Y0437708D02*
X0496377Y0437311D01*
X0496153Y0436956D01*
X0495857Y0436659D01*
X0495501Y0436436D01*
X0495105Y0436297D01*
X0494687Y0436250D01*
X0490312Y0436250D01*
X0489895Y0436297D01*
X0489499Y0436436D01*
X0489143Y0436659D01*
X0488847Y0436956D01*
X0488623Y0437311D01*
X0488485Y0437708D01*
X0488437Y0438125D01*
X0488437Y0442500D01*
X0488485Y0442917D01*
X0488623Y0443314D01*
X0488847Y0443669D01*
X0489143Y0443966D01*
X0489499Y0444189D01*
X0489895Y0444328D01*
X0490312Y0444375D01*
X0494687Y0444375D01*
X0495105Y0444328D01*
X0495501Y0444189D01*
X0495857Y0443966D01*
X0496153Y0443669D01*
X0496377Y0443314D01*
X0496515Y0442917D01*
X0496562Y0442500D01*
X0496562Y0438125D01*
X0496515Y0437708D01*
X0496532Y0437853D02*
X0488468Y0437853D01*
X0488437Y0439451D02*
X0496562Y0439451D01*
X0496562Y0441050D02*
X0488437Y0441050D01*
X0488454Y0442648D02*
X0496546Y0442648D01*
X0494687Y0442500D02*
X0490625Y0442500D01*
X0492500Y0440625D01*
X0489664Y0444247D02*
X0495336Y0444247D01*
X0494726Y0436254D02*
X0490274Y0436254D01*
D20*
X0507500Y0326875D02*
X0508125Y0326875D01*
D21*
X0557812Y0358750D02*
X0557917Y0358814D01*
X0558019Y0358881D01*
X0558120Y0358952D01*
X0558218Y0359025D01*
X0558314Y0359102D01*
X0558407Y0359181D01*
X0558498Y0359264D01*
X0558586Y0359349D01*
X0558671Y0359437D01*
X0558754Y0359527D01*
X0558833Y0359621D01*
X0558910Y0359716D01*
X0558984Y0359814D01*
X0559054Y0359914D01*
X0559122Y0360017D01*
X0559186Y0360121D01*
X0559247Y0360228D01*
X0559304Y0360336D01*
X0559358Y0360446D01*
X0559409Y0360558D01*
X0559456Y0360671D01*
X0559499Y0360786D01*
X0559539Y0360902D01*
X0559575Y0361019D01*
X0559607Y0361138D01*
X0559636Y0361257D01*
X0559660Y0361377D01*
X0559681Y0361498D01*
X0559699Y0361619D01*
X0559712Y0361741D01*
X0559721Y0361863D01*
X0559727Y0361986D01*
X0559729Y0362108D01*
X0559727Y0362231D01*
X0559721Y0362353D01*
X0559711Y0362476D01*
X0559698Y0362597D01*
X0559680Y0362719D01*
X0559659Y0362840D01*
X0559634Y0362960D01*
X0559605Y0363079D01*
X0559573Y0363197D01*
X0559537Y0363314D01*
X0559497Y0363430D01*
X0559453Y0363545D01*
X0559406Y0363658D01*
X0559355Y0363770D01*
X0559301Y0363880D01*
X0559244Y0363988D01*
X0559183Y0364094D01*
X0559118Y0364199D01*
X0559051Y0364301D01*
X0558980Y0364401D01*
X0558906Y0364499D01*
X0558829Y0364594D01*
X0558749Y0364688D01*
X0557813Y0358750D02*
X0557532Y0358589D01*
X0557247Y0358435D01*
X0556958Y0358287D01*
X0556666Y0358147D01*
X0556371Y0358013D01*
X0556073Y0357887D01*
X0555771Y0357768D01*
X0555467Y0357656D01*
X0555161Y0357552D01*
X0554851Y0357455D01*
X0554540Y0357365D01*
X0554227Y0357283D01*
X0553911Y0357209D01*
X0553594Y0357142D01*
X0553276Y0357083D01*
X0552956Y0357031D01*
X0552635Y0356987D01*
X0552313Y0356951D01*
X0551990Y0356923D01*
X0551667Y0356902D01*
X0551343Y0356889D01*
X0551019Y0356884D01*
X0550695Y0356887D01*
X0550372Y0356897D01*
X0550048Y0356916D01*
X0549725Y0356942D01*
X0549403Y0356975D01*
X0549082Y0357017D01*
X0548762Y0357066D01*
X0548443Y0357123D01*
X0548125Y0357188D01*
X0555313Y0373750D02*
X0555313Y0374687D01*
X0555312Y0373750D02*
X0555316Y0373420D01*
X0555328Y0373090D01*
X0555348Y0372760D01*
X0555376Y0372431D01*
X0555412Y0372103D01*
X0555455Y0371775D01*
X0555507Y0371449D01*
X0555567Y0371124D01*
X0555634Y0370801D01*
X0555709Y0370479D01*
X0555792Y0370160D01*
X0555883Y0369842D01*
X0555981Y0369527D01*
X0556087Y0369214D01*
X0556200Y0368904D01*
X0556321Y0368596D01*
X0556449Y0368292D01*
X0556585Y0367991D01*
X0556728Y0367693D01*
X0556878Y0367399D01*
X0557035Y0367108D01*
X0557199Y0366821D01*
X0557370Y0366539D01*
X0557547Y0366260D01*
X0557732Y0365986D01*
X0557923Y0365717D01*
X0558120Y0365452D01*
X0558324Y0365192D01*
X0558534Y0364937D01*
X0558750Y0364687D01*
X0564063Y0398437D02*
X0565938Y0417812D01*
X0565937Y0417812D02*
X0565930Y0418363D01*
X0565910Y0418914D01*
X0565877Y0419464D01*
X0565831Y0420014D01*
X0565771Y0420562D01*
X0565698Y0421108D01*
X0565611Y0421653D01*
X0565512Y0422195D01*
X0565400Y0422734D01*
X0565274Y0423271D01*
X0565136Y0423805D01*
X0564985Y0424335D01*
X0564821Y0424861D01*
X0564644Y0425383D01*
X0564455Y0425901D01*
X0564253Y0426414D01*
X0564039Y0426922D01*
X0563813Y0427425D01*
X0563574Y0427922D01*
X0563324Y0428413D01*
X0563062Y0428898D01*
X0562788Y0429377D01*
X0562503Y0429849D01*
X0562207Y0430313D01*
X0561899Y0430771D01*
X0561580Y0431221D01*
X0561251Y0431663D01*
X0560911Y0432097D01*
X0560561Y0432522D01*
X0560200Y0432939D01*
X0559830Y0433347D01*
X0559449Y0433746D01*
X0559059Y0434136D01*
X0558660Y0434517D01*
X0558252Y0434887D01*
X0557835Y0435248D01*
X0557410Y0435598D01*
X0556976Y0435938D01*
X0556534Y0436267D01*
X0556084Y0436586D01*
X0555626Y0436894D01*
X0555162Y0437190D01*
X0554690Y0437475D01*
X0554211Y0437749D01*
X0553726Y0438011D01*
X0553235Y0438261D01*
X0552738Y0438500D01*
X0552235Y0438726D01*
X0551727Y0438940D01*
X0551214Y0439142D01*
X0550696Y0439331D01*
X0550174Y0439508D01*
X0549648Y0439672D01*
X0549118Y0439823D01*
X0548584Y0439961D01*
X0548047Y0440087D01*
X0547508Y0440199D01*
X0546966Y0440298D01*
X0546421Y0440385D01*
X0545875Y0440458D01*
X0545327Y0440518D01*
X0544777Y0440564D01*
X0544227Y0440597D01*
X0543676Y0440617D01*
X0543125Y0440624D01*
X0543125Y0440625D02*
X0492500Y0440625D01*
X0421875Y0440625D01*
X0421875Y0440626D02*
X0420321Y0440266D01*
X0418777Y0439869D01*
X0417242Y0439436D01*
X0415718Y0438966D01*
X0414205Y0438461D01*
X0412705Y0437920D01*
X0411218Y0437343D01*
X0409746Y0436731D01*
X0408288Y0436084D01*
X0406846Y0435403D01*
X0405420Y0434688D01*
X0404012Y0433939D01*
X0402623Y0433157D01*
X0401252Y0432342D01*
X0399901Y0431495D01*
X0398570Y0430616D01*
X0397260Y0429705D01*
X0395973Y0428764D01*
X0394708Y0427793D01*
X0393467Y0426792D01*
X0392250Y0425761D01*
X0391058Y0424702D01*
X0389891Y0423615D01*
X0388750Y0422501D01*
X0555312Y0374687D02*
X0555928Y0375510D01*
X0556525Y0376348D01*
X0557100Y0377199D01*
X0557655Y0378064D01*
X0558189Y0378943D01*
X0558702Y0379834D01*
X0559193Y0380737D01*
X0559662Y0381652D01*
X0560108Y0382577D01*
X0560533Y0383514D01*
X0560934Y0384460D01*
X0561313Y0385416D01*
X0561668Y0386380D01*
X0562000Y0387353D01*
X0562309Y0388334D01*
X0562593Y0389322D01*
X0562854Y0390316D01*
X0563090Y0391316D01*
X0563303Y0392322D01*
X0563491Y0393333D01*
X0563654Y0394348D01*
X0563793Y0395366D01*
X0563908Y0396388D01*
X0563997Y0397412D01*
X0564062Y0398438D01*
D22*
X0571875Y0389063D02*
X0571499Y0389066D01*
X0571123Y0389060D01*
X0570747Y0389044D01*
X0570372Y0389019D01*
X0569997Y0388985D01*
X0569623Y0388942D01*
X0569251Y0388890D01*
X0568880Y0388829D01*
X0568510Y0388758D01*
X0568142Y0388679D01*
X0567777Y0388590D01*
X0567413Y0388493D01*
X0567052Y0388386D01*
X0566694Y0388271D01*
X0566339Y0388147D01*
X0565987Y0388015D01*
X0565638Y0387874D01*
X0565293Y0387724D01*
X0564952Y0387566D01*
X0564614Y0387399D01*
X0564281Y0387225D01*
X0563952Y0387042D01*
X0563628Y0386851D01*
X0563309Y0386652D01*
X0562994Y0386446D01*
X0562685Y0386232D01*
X0562381Y0386010D01*
X0562082Y0385781D01*
X0561790Y0385545D01*
X0561503Y0385301D01*
X0561222Y0385051D01*
X0560947Y0384794D01*
X0560679Y0384530D01*
X0560417Y0384260D01*
X0560163Y0383983D01*
X0559914Y0383700D01*
X0559673Y0383411D01*
X0559440Y0383116D01*
X0559213Y0382816D01*
X0558994Y0382510D01*
X0558782Y0382199D01*
X0558578Y0381883D01*
X0558382Y0381562D01*
X0558194Y0381236D01*
X0558014Y0380906D01*
X0557842Y0380571D01*
X0557678Y0380233D01*
X0557523Y0379890D01*
X0557376Y0379544D01*
X0557238Y0379194D01*
X0557108Y0378840D01*
X0556987Y0378484D01*
X0556875Y0378125D01*
X0507812Y0363750D02*
X0505000Y0363750D01*
X0504582Y0363751D01*
X0504164Y0363763D01*
X0503747Y0363784D01*
X0503330Y0363816D01*
X0502914Y0363859D01*
X0502500Y0363911D01*
X0502086Y0363974D01*
X0501675Y0364046D01*
X0501265Y0364129D01*
X0500857Y0364222D01*
X0500452Y0364325D01*
X0500050Y0364438D01*
X0499650Y0364560D01*
X0499253Y0364693D01*
X0498860Y0364835D01*
X0498471Y0364986D01*
X0498085Y0365148D01*
X0497703Y0365318D01*
X0497326Y0365498D01*
X0496953Y0365687D01*
X0496585Y0365885D01*
X0496222Y0366092D01*
X0495864Y0366308D01*
X0495512Y0366533D01*
X0495165Y0366767D01*
X0494824Y0367008D01*
X0494489Y0367258D01*
X0494160Y0367517D01*
X0493838Y0367783D01*
X0493522Y0368057D01*
X0493213Y0368338D01*
X0492912Y0368628D01*
X0492617Y0368924D01*
X0492330Y0369228D01*
X0492050Y0369538D01*
X0491778Y0369856D01*
X0491514Y0370180D01*
X0491257Y0370510D01*
X0491009Y0370846D01*
X0490770Y0371189D01*
X0490539Y0371537D01*
X0490316Y0371891D01*
X0490102Y0372250D01*
X0489897Y0372615D01*
X0489701Y0372984D01*
X0489515Y0373358D01*
X0489337Y0373736D01*
X0489169Y0374119D01*
X0489010Y0374506D01*
X0488861Y0374896D01*
X0488721Y0375290D01*
X0488591Y0375688D01*
X0488471Y0376088D01*
X0488361Y0376491D01*
X0488261Y0376897D01*
X0488170Y0377305D01*
X0488090Y0377715D01*
X0488020Y0378127D01*
X0487960Y0378541D01*
X0487910Y0378956D01*
X0487870Y0379372D01*
X0487841Y0379789D01*
X0487822Y0380207D01*
X0487813Y0380625D01*
X0522500Y0315625D02*
X0529439Y0314840D01*
X0536419Y0314630D01*
X0543393Y0314997D01*
X0550313Y0315938D01*
X0550568Y0316014D01*
X0550833Y0316033D01*
X0551097Y0315991D01*
X0551344Y0315892D01*
X0551563Y0315741D01*
X0551743Y0315544D01*
X0551875Y0315313D01*
X0551250Y0304688D01*
X0550943Y0303865D01*
X0550514Y0303099D01*
X0549972Y0302409D01*
X0549331Y0301809D01*
X0548605Y0301315D01*
X0547813Y0300938D01*
X0544691Y0298629D01*
X0541331Y0296686D01*
X0537774Y0295132D01*
X0534065Y0293987D01*
X0530250Y0293266D01*
X0526379Y0292977D01*
X0522500Y0293125D01*
X0522500Y0315625D01*
X0522500Y0312448D02*
X0551706Y0312448D01*
X0551471Y0308449D02*
X0522500Y0308449D01*
X0522500Y0304451D02*
X0551162Y0304451D01*
X0547157Y0300452D02*
X0522500Y0300452D01*
X0522500Y0296454D02*
X0540800Y0296454D01*
D23*
X0557812Y0358750D02*
X0558734Y0358952D01*
X0559661Y0359131D01*
X0560592Y0359289D01*
X0561526Y0359424D01*
X0562464Y0359536D01*
X0563403Y0359626D01*
X0564345Y0359693D01*
X0565288Y0359737D01*
X0566232Y0359759D01*
X0567176Y0359758D01*
X0568119Y0359734D01*
X0569062Y0359687D01*
X0577812Y0356563D02*
X0578053Y0356291D01*
X0578301Y0356024D01*
X0578555Y0355764D01*
X0578815Y0355511D01*
X0579082Y0355263D01*
X0579354Y0355023D01*
X0579632Y0354788D01*
X0579915Y0354561D01*
X0580205Y0354341D01*
X0580499Y0354127D01*
X0580798Y0353921D01*
X0581103Y0353723D01*
X0581412Y0353532D01*
X0581726Y0353348D01*
X0582044Y0353172D01*
X0582366Y0353004D01*
X0582692Y0352843D01*
X0583022Y0352691D01*
X0583356Y0352547D01*
X0583693Y0352411D01*
X0584033Y0352283D01*
X0584376Y0352163D01*
X0584722Y0352052D01*
X0585071Y0351949D01*
X0585422Y0351855D01*
X0585775Y0351769D01*
X0586130Y0351692D01*
X0586487Y0351623D01*
X0586846Y0351564D01*
X0587206Y0351513D01*
X0587567Y0351470D01*
X0587929Y0351437D01*
X0588291Y0351412D01*
X0588654Y0351396D01*
X0589018Y0351389D01*
X0589381Y0351391D01*
X0589745Y0351402D01*
X0590108Y0351421D01*
X0590470Y0351450D01*
X0590832Y0351487D01*
X0591192Y0351533D01*
X0591551Y0351587D01*
X0591909Y0351650D01*
X0592266Y0351722D01*
X0592620Y0351803D01*
X0592972Y0351892D01*
X0593323Y0351990D01*
X0593670Y0352096D01*
X0594015Y0352211D01*
X0594357Y0352334D01*
X0594696Y0352465D01*
X0595032Y0352605D01*
X0595364Y0352752D01*
X0595692Y0352908D01*
X0596017Y0353072D01*
X0596337Y0353243D01*
X0596654Y0353422D01*
X0596965Y0353609D01*
X0597273Y0353803D01*
X0597575Y0354005D01*
X0597872Y0354214D01*
X0598165Y0354430D01*
X0598452Y0354653D01*
X0598733Y0354884D01*
X0599009Y0355120D01*
X0599278Y0355364D01*
X0599542Y0355614D01*
X0599800Y0355870D01*
X0600051Y0356133D01*
X0600296Y0356401D01*
X0600535Y0356676D01*
X0600766Y0356956D01*
X0600991Y0357242D01*
X0601209Y0357533D01*
X0601419Y0357829D01*
X0601623Y0358130D01*
X0601818Y0358437D01*
X0602007Y0358747D01*
X0602188Y0359063D01*
X0602188Y0359062D02*
X0602188Y0378125D01*
X0548125Y0357188D02*
X0547982Y0357217D01*
X0547837Y0357242D01*
X0547693Y0357263D01*
X0547547Y0357280D01*
X0547401Y0357294D01*
X0547255Y0357303D01*
X0547109Y0357308D01*
X0546962Y0357310D01*
X0546816Y0357308D01*
X0546670Y0357301D01*
X0546523Y0357291D01*
X0546378Y0357276D01*
X0546232Y0357258D01*
X0546088Y0357236D01*
X0545943Y0357210D01*
X0545800Y0357180D01*
X0545658Y0357146D01*
X0545516Y0357109D01*
X0545376Y0357067D01*
X0545236Y0357022D01*
X0545098Y0356973D01*
X0544962Y0356921D01*
X0544826Y0356864D01*
X0544693Y0356804D01*
X0544561Y0356741D01*
X0544431Y0356674D01*
X0544302Y0356603D01*
X0544176Y0356529D01*
X0544051Y0356452D01*
X0543929Y0356371D01*
X0543809Y0356287D01*
X0543692Y0356200D01*
X0543576Y0356110D01*
X0543464Y0356016D01*
X0543353Y0355920D01*
X0543246Y0355821D01*
X0543141Y0355718D01*
X0543039Y0355613D01*
X0542939Y0355506D01*
X0542843Y0355395D01*
X0542750Y0355282D01*
X0542660Y0355167D01*
X0542573Y0355049D01*
X0542489Y0354929D01*
X0542408Y0354807D01*
X0542331Y0354682D01*
X0542257Y0354556D01*
X0542187Y0354427D01*
X0542120Y0354297D01*
X0542057Y0354165D01*
X0541997Y0354031D01*
X0541941Y0353896D01*
X0541888Y0353759D01*
X0541840Y0353621D01*
X0541795Y0353482D01*
X0541753Y0353341D01*
X0541716Y0353200D01*
X0541682Y0353057D01*
X0541653Y0352914D01*
X0541627Y0352770D01*
X0541605Y0352625D01*
X0541587Y0352479D01*
X0541573Y0352334D01*
X0541562Y0352188D01*
M02*
