<?xml version="1.0" encoding="UTF-8" standalone="no"?>
<svg
   xmlns:dc="http://purl.org/dc/elements/1.1/"
   xmlns:cc="http://creativecommons.org/ns#"
   xmlns:rdf="http://www.w3.org/1999/02/22-rdf-syntax-ns#"
   xmlns:svg="http://www.w3.org/2000/svg"
   xmlns="http://www.w3.org/2000/svg"
   xmlns:sodipodi="http://sodipodi.sourceforge.net/DTD/sodipodi-0.dtd"
   xmlns:inkscape="http://www.inkscape.org/namespaces/inkscape"
   viewBox="0 0 127.55905 53.149604"
   height="53.149605"
   width="127.55905"
   xml:space="preserve"
   version="1.1"
   id="svg2"
   inkscape:version="0.48.5 r10040"
   sodipodi:docname="carrerai-logo.svg"><sodipodi:namedview
     pagecolor="#ffffff"
     bordercolor="#666666"
     borderopacity="1"
     objecttolerance="10"
     gridtolerance="10"
     guidetolerance="10"
     inkscape:pageopacity="0"
     inkscape:pageshadow="2"
     inkscape:window-width="1600"
     inkscape:window-height="847"
     id="namedview9"
     showgrid="true"
     inkscape:zoom="8.0000004"
     inkscape:cx="67.859648"
     inkscape:cy="20.640471"
     inkscape:window-x="0"
     inkscape:window-y="31"
     inkscape:window-maximized="1"
     inkscape:current-layer="g3032"
     units="mm"
     inkscape:snap-bbox="true"
     inkscape:snap-smooth-nodes="true"
     inkscape:object-nodes="true"
     inkscape:snap-grids="false"
     inkscape:object-paths="true"
     inkscape:snap-global="false"><inkscape:grid
       spacingy="0.1mm"
       spacingx="0.1mm"
       units="mm"
       snapvisiblegridlinesonly="true"
       enabled="true"
       visible="true"
       empspacing="5"
       id="grid3161"
       type="xygrid" /></sodipodi:namedview><metadata
     id="metadata8"><rdf:RDF><cc:Work
         rdf:about=""><dc:format>image/svg+xml</dc:format><dc:type
           rdf:resource="http://purl.org/dc/dcmitype/StillImage" /><dc:title /></cc:Work></rdf:RDF></metadata><defs
     id="defs6" /><g
     id="g10"
     transform="matrix(1.25,0,0,-1.25,0,53.149693)"><g
       id="g12"
       transform="scale(0.1,0.1)"><g
         transform="matrix(0.10937811,0,0,0.10937811,-1.6676759,-107.45145)"
         id="g3032"><path
           d="M1353.1955 2354.5453L1319.02629475 2354.5453L1284.85715108 2354.5453L1250.68827064 2354.5453L1216.51761149 2354.5453L1182.3486 2354.5453L1173.91801893 2354.28834949L1165.53017257 2353.40779578L1157.27830744 2351.67574978L1149.37660527 2348.75034669L1142.3064 2344.1894L1136.73305159 2338.19569139L1132.47961015 2331.20118512L1129.63699192 2323.52217272L1128.08976941 2315.47700567L1127.6242 2307.2967L1127.6242 2266.52072854L1127.6242 2225.74483057L1127.6242 2184.96924671L1127.6242 2144.19154024L1127.6242 2103.4158L1127.93445915 2094.15505589L1129.00539887 2084.95272429L1131.12853303 2075.9380486L1134.73252734 2067.41562691L1140.3043 2060.0505L1148.30674899 2054.87583338L1157.26982568 2051.59217811L1166.62639136 2049.66168853L1176.13291943 2048.68447783L1185.6854 2048.4002L1219.05378935 2048.4002L1252.42211855 2048.4002L1285.79019071 2048.4002L1319.15999987 2048.4002L1352.5282 2048.4002L1352.5282 2035.84378422L1352.5282 2023.28638513L1352.5282 2010.73032665L1352.5282 1998.17473861L1352.5282 1985.6178L1314.35477523 1985.6178L1276.18141926 1985.6178L1238.00835735 1985.6178L1199.83330831 1985.6178L1161.6601 1985.6178L1145.75628872 1986.38818662L1130.04462593 1988.95072753L1114.85899702 1993.70624247L1100.71626478 2000.98729853L1088.2493 2010.8602L1078.45012911 2023.02145954L1071.13410433 2036.82233034L1066.3036102 2051.68157958L1063.68102671 2067.09016099L1062.8892 2082.704L1062.8892 2130.47015571L1062.8892 2178.23622534L1062.8892 2226.00192699L1062.8892 2273.76817745L1062.8892 2321.536L1063.64333243 2338.14037008L1066.21628873 2354.55693812L1071.17247745 2370.4094297L1079.10054672 2384.98731605L1090.2514 2397.2632L1103.79605385 2406.0356542L1118.92665428 2411.71526307L1134.74114585 2415.0977501L1150.82726758 2416.82333113L1166.999 2417.3277L1204.23810955 2417.3277L1241.47715198 2417.3277L1278.71590755 2417.3277L1315.95660162 2417.3277L1353.1955 2417.3277L1353.1955 2404.77128422L1353.1955 2392.21388513L1353.1955 2379.65782665L1353.1955 2367.10223861L1353.1955 2354.5453"
           style="font-size:657.22888183999998546px;font-style:normal;font-variant:normal;font-weight:500;font-stretch:normal;line-height:125%;letter-spacing:0px;word-spacing:0px;fill:#000000;fill-opacity:1;stroke:none;font-family:Digital Sans EF;-inkscape-font-specification:Digital Sans EF Medium"
           id="path3063"
           inkscape:connector-curvature="0" /><path
           id="path3065"
           transform="matrix(73.140777,0,0,-73.140777,15.246889,4869.7952)"
           d="M19.1875 35.0L19.1875 35.1499711238L19.1875 35.300416062L19.1875 35.450181245L19.1875 35.5997755444L19.1875 35.75L19.6686573555 35.75L20.1501009442 35.75L20.6308893034 35.75L21.1125080963 35.75L21.59375 35.75L21.7050711496 35.7545014996L21.8149037781 35.7702528948L21.9211884819 35.8020816387L22.0181167734 35.8566212109L22.09375 35.9375L22.1384098343 36.0363041154L22.1627491195 36.1435986721L22.1761517068 36.2516822069L22.1835898474 36.3601517202L22.1875 36.46875L21.8125721905 36.46875L21.4383826567 36.46875L21.0635153436 36.46875L20.6888748473 36.46875L20.3125 36.46875L20.1306809946 36.476892784L19.9506908149 36.5045447697L19.7767074356 36.5567709537L19.6125127538 36.6389633424L19.46875 36.75L19.3504546248 36.8845772532L19.2601925755 37.0391797967L19.1995571369 37.2076413315L19.1662751357 37.3840083071L19.15625 37.5625L19.15625 37.7249687174L19.15625 37.8879507339L19.15625 38.0501963487L19.15625 38.2122568398L19.15625 38.375L19.1671910321 38.5507287989L19.2041051522 38.7229112094L19.2725791934 38.8864113976L19.3728309389 39.0322429162L19.5 39.15625L19.653788575 39.2624677606L19.822619864 39.3419583961L20.0020741839 39.3964673404L20.1880327769 39.4276810213L20.375 39.4375L20.5062247333 39.4375L20.6365183433 39.4375L20.7689532745 39.4375L20.8998283565 39.4375L21.03125 39.4375L21.03125 39.2875288762L21.03125 39.137083938L21.03125 38.987318755L21.03125 38.8377244556L21.03125 38.6875L20.925020454 38.6875L20.8195446745 38.6875L20.7123354445 38.6875L20.6063889495 38.6875L20.5 38.6875L20.417699287 38.6809398438L20.3370866946 38.66012112L20.2617988764 38.6261560622L20.1912508242 38.5817565639L20.125 38.53125L20.0636770288 38.4709804287L20.0111131073 38.4017362212L19.9706708804 38.3242024865L19.9458802431 38.2420801111L19.9375 38.15625L19.9375 38.0687668445L19.9375 37.9819044378L19.9375 37.8950452484L19.9375 37.8071577787L19.9375 37.71875L19.9555755281 37.542506399L20.0240298669 37.3803044253L20.1544577706 37.2616553573L20.3223848606 37.2027703367L20.5 37.1875L20.7999422476 37.1875L21.100832124 37.1875L21.40036249 37.1875L21.6995510888 37.1875L22.0 37.1875L22.0516789295 37.1897485852L22.1021319422 37.1987745937L22.1485176254 37.2208781865L22.1788270468 37.2610310483L22.1875 37.3125L22.1875 37.4874663111L22.1875 37.6629854057L22.1875 37.8377114525L22.1875 38.0122381352L22.1875 38.1875L22.1664341117 38.3579019412L22.0909358739 38.5109518759L21.9582149628 38.6191262337L21.7960140901 38.6729227707L21.625 38.6875L21.518770454 38.6875L21.4132946745 38.6875L21.3060854445 38.6875L21.2001389495 38.6875L21.09375 38.6875L21.09375 38.8374711238L21.09375 38.987916062L21.09375 39.137681245L21.09375 39.2872755444L21.09375 39.4375L21.2499699206 39.4375L21.4066833979 39.4375L21.5626887969 39.4375L21.7185161921 39.4375L21.875 39.4375L22.047901872 39.4270243348L22.2167972093 39.3926051612L22.3784284846 39.330176885L22.5254530354 39.2401456523L22.65625 39.125L22.7692822887 38.9879897437L22.8584059173 38.833566988L22.9211149081 38.6662622478L22.9574192287 38.4901326231L22.96875 38.3125L22.96875 37.8750842223L22.96875 37.4385297661L22.96875 37.0011845675L22.96875 36.5629662756L22.96875 36.125L22.9220074702 35.7393963536L22.7504874611 35.3915501376L22.4466054898 35.1492198886L22.0753003899 35.0311825412L21.6875 35.0L21.1875962541 35.0L20.6873951229 35.0L20.1878747497 35.0L19.6874915883 35.0L19.1875 35.0L19.1875 35.0L19.1875 35.0L19.1875 35.0L19.1875 35.0L19.1875 35.0"
           style="font-size:657.22888183999998546px;font-style:normal;font-variant:normal;font-weight:500;font-stretch:normal;line-height:125%;letter-spacing:0px;word-spacing:0px;fill:#000000;fill-opacity:1;stroke:none;font-family:Digital Sans EF;-inkscape-font-specification:Digital Sans EF Medium" /><path
           d="M1898.8961 2254.8701L1888.29166115 2254.80368667L1877.68839796 2254.57021657L1867.09451425 2254.08457395L1856.53126953 2253.15019289L1846.1738 2250.9867L1837.32705426 2245.84672523L1830.72718386 2238.02888605L1826.69607014 2228.60092873L1824.70792238 2218.52710189L1824.1507 2208.2688L1824.1507 2163.73882774L1824.1507 2119.20893573L1824.1507 2074.67938676L1824.1507 2030.14932617L1824.1507 1985.6178L1812.67197871 1985.6178L1801.1923585 1985.6178L1789.71396385 1985.6178L1778.23599925 1985.6178L1766.7568 1985.6178L1766.7568 2033.12505704L1766.7568 2080.63222845L1766.7568 2128.13903389L1766.7568 2175.64638516L1766.7568 2223.1553L1769.64910891 2251.54526637L1780.50218176 2277.82969598L1801.08285175 2297.33184187L1827.75834331 2307.25706081L1856.1845 2309.8857L1864.72677631 2309.8857L1873.26972158 2309.8857L1881.81284356 2309.8857L1890.35545607 2309.8857L1898.8961 2309.8857L1898.8961 2298.88263627L1898.8961 2287.87871089L1898.8961 2276.87596026L1898.8961 2265.87362188L1898.8961 2254.8701"
           style="font-size:657.22888183999998546px;font-style:normal;font-variant:normal;font-weight:500;font-stretch:normal;line-height:125%;letter-spacing:0px;word-spacing:0px;fill:#000000;fill-opacity:1;stroke:none;font-family:Digital Sans EF;-inkscape-font-specification:Digital Sans EF Medium"
           id="path3067"
           inkscape:connector-curvature="0" /><path
           d="M2083.3355 2254.8701L2072.7310567 2254.80368667L2062.12778124 2254.57021657L2051.53388086 2254.08457395L2040.97062508 2253.15019289L2030.6132 2250.9867L2021.7664412 2245.84672523L2015.16654081 2238.02888605L2011.13589643 2228.60262986L2009.14733851 2218.52804402L2008.59 2208.2688L2008.59 2163.73882774L2008.59 2119.20893573L2008.59 2074.67938676L2008.59 2030.14932617L2008.59 1985.6178L1997.11127871 1985.6178L1985.6316585 1985.6178L1974.15326385 1985.6178L1962.67529925 1985.6178L1951.1961 1985.6178L1951.1961 2033.12505704L1951.1961 2080.63222845L1951.1961 2128.13903389L1951.1961 2175.64638516L1951.1961 2223.1553L1954.08836408 2251.54526637L1964.94140423 2277.82969598L1985.52205726 2297.33184187L2012.19754384 2307.25706081L2040.6237 2309.8857L2049.16601631 2309.8857L2057.70900158 2309.8857L2066.25216357 2309.8857L2074.79481608 2309.8857L2083.3355 2309.8857L2083.3355 2298.88263627L2083.3355 2287.87871089L2083.3355 2276.87596026L2083.3355 2265.87362188L2083.3355 2254.8701"
           style="font-size:657.22888183999998546px;font-style:normal;font-variant:normal;font-weight:500;font-stretch:normal;line-height:125%;letter-spacing:0px;word-spacing:0px;fill:#000000;fill-opacity:1;stroke:none;font-family:Digital Sans EF;-inkscape-font-specification:Digital Sans EF Medium"
           id="path3069"
           inkscape:connector-curvature="0" /><path
           id="path3071"
           transform="matrix(73.140777,0,0,-73.140777,15.246889,4869.7952)"
           d="M30.21875 35.0L29.8340828376 35.0313805896L29.4682494967 35.1509143703L29.1737405889 35.3961122576L29.012301923 35.7423009034L28.96875 36.125L28.96875 36.5436693872L28.96875 36.9615143667L28.96875 37.3801161997L28.96875 37.7984647539L28.96875 38.21875L28.9824748816 38.4365339111L29.0264954931 38.6485397187L29.1055591903 38.8506135038L29.2220098074 39.0332506513L29.375 39.1875L29.5417994435 39.2940499852L29.726174381 39.3651131686L29.9187437565 39.4084121218L30.1150324274 39.430873219L30.3125 39.4375L30.8061549491 39.4375L31.3001035661 39.4375L31.7933799346 39.4375L32.2875083065 39.4375L32.78125 39.4375L32.78125 39.2875288762L32.78125 39.137083938L32.78125 38.987318755L32.78125 38.8377244556L32.78125 38.6875L32.3125902382 38.6875L31.8436516777 38.6875L31.3753513279 38.6875L30.906242114 38.6875L30.4375 38.6875L30.3396523381 38.6838592538L30.2409350024 38.6716601052L30.1450130014 38.6492137779L30.0526389479 38.6137468375L29.96875 38.5625L29.8898244295 38.4844617565L29.8343366831 38.387701284L29.8018609857 38.2829637429L29.7857981254 38.1739747332L29.78125 38.0625L29.78125 38.0383987427L29.78125 38.0135450834L29.78125 37.9885296184L29.78125 37.9625974796L29.78125 37.9375L30.3811344951 37.7000457207L30.9813758525 37.4624501834L31.5808003003 37.2251780061L32.181260094 36.9874960044L32.78125 36.75L32.78125 36.6375216572L32.78125 36.5258414201L32.78125 36.4123257648L32.78125 36.300147123L32.78125 36.1875L32.7465062882 35.8090315603L32.6140027567 35.4529846596L32.3535800607 35.1804000183L32.002755073 35.0377057244L31.625 35.0L31.4625312826 35.0L31.2995492661 35.0L31.1373036513 35.0L30.9752431602 35.0L30.8125 35.0L30.8125 35.1499711238L30.8125 35.300416062L30.8125 35.450181245L30.8125 35.5997755444L30.8125 35.75L30.918729546 35.75L31.0242053255 35.75L31.1314145555 35.75L31.2373610505 35.75L31.34375 35.75L31.5258655514 35.7628599648L31.7017443366 35.811268771L31.8520133887 35.9134665994L31.9430144247 36.0697462116L31.96875 36.25L31.96875 36.2620506287L31.96875 36.275511287L31.96875 36.2885815865L31.96875 36.2998157215L31.96875 36.3125L31.5313342223 36.4874663111L31.0936582326 36.662536707L30.656577906 36.8373688376L30.2187426398 37.0125029441L29.78125 37.1875L29.78125 37.0125336889L29.78125 36.8370145943L29.78125 36.6622885475L29.78125 36.4877618648L29.78125 36.3125L29.810768516 36.1062012246L29.9168277013 35.9284794041L30.0896736934 35.8160762555L30.2911436866 35.7637672177L30.5 35.75L30.5505912304 35.75L30.6001991076 35.75L30.6496990088 35.75L30.7007635838 35.75L30.75 35.75L30.75 35.6000288762L30.75 35.449583938L30.75 35.299818755L30.75 35.1502244556L30.75 35.0L30.643770454 35.0L30.5382946745 35.0L30.4310854445 35.0L30.3251389495 35.0L30.21875 35.0L30.21875 35.0L30.21875 35.0L30.21875 35.0L30.21875 35.0L30.21875 35.0"
           style="font-size:657.22888183999998546px;font-style:normal;font-variant:normal;font-weight:500;font-stretch:normal;line-height:125%;letter-spacing:0px;word-spacing:0px;fill:#000000;fill-opacity:1;stroke:none;font-family:Digital Sans EF;-inkscape-font-specification:Digital Sans EF Medium" /><path
           d="M2611.888 2254.8701L2601.28352707 2254.80368667L2590.68023777 2254.57021657L2580.08634001 2254.08457395L2569.52310274 2253.15019289L2559.1657 2250.9867L2550.31890054 2245.84672523L2543.71900017 2238.02888605L2539.68787407 2228.60092873L2537.69972278 2218.52710189L2537.1425 2208.2688L2537.1425 2163.73882774L2537.1425 2119.20893573L2537.1425 2074.67938676L2537.1425 2030.14932617L2537.1425 1985.6178L2525.66377871 1985.6178L2514.1841585 1985.6178L2502.70576385 1985.6178L2491.22779925 1985.6178L2479.7486 1985.6178L2479.7486 2033.12505704L2479.7486 2080.63222845L2479.7486 2128.13903389L2479.7486 2175.64638516L2479.7486 2223.1553L2482.64086408 2251.54526637L2493.49390423 2277.82969598L2514.07455726 2297.33184187L2540.75004384 2307.25706081L2569.1762 2309.8857L2577.71851631 2309.8857L2586.26150158 2309.8857L2594.80466357 2309.8857L2603.34731608 2309.8857L2611.888 2309.8857L2611.888 2298.88263627L2611.888 2287.87871089L2611.888 2276.87596026L2611.888 2265.87362188L2611.888 2254.8701"
           style="font-size:657.22888183999998546px;font-style:normal;font-variant:normal;font-weight:500;font-stretch:normal;line-height:125%;letter-spacing:0px;word-spacing:0px;fill:#000000;fill-opacity:1;stroke:none;font-family:Digital Sans EF;-inkscape-font-specification:Digital Sans EF Medium"
           id="path3073"
           inkscape:connector-curvature="0" /><path
           id="path3075"
           transform="matrix(73.140777,0,0,-73.140777,15.246889,4869.7952)"
           d="M36.25 35.0L36.25 35.1499711238L36.25 35.300416062L36.25 35.450181245L36.25 35.5997755444L36.25 35.75L36.7311573555 35.75L37.2126009442 35.75L37.6933893034 35.75L38.1750080963 35.75L38.65625 35.75L38.7616949281 35.7541762103L38.8666438483 35.7696942025L38.9660739728 35.8019576065L39.0562302971 35.8586295089L39.125 35.9375L39.1752467081 36.0363041154L39.2084849115 36.1405680544L39.2305783569 36.2482537071L39.2439822329 36.3583317731L39.25 36.46875L38.8750721905 36.46875L38.5008826567 36.46875L38.1260153436 36.46875L37.7513748473 36.46875L37.375 36.46875L37.1931813528 36.476892784L37.0131912563 36.5045447697L36.8392077528 36.5567709537L36.6750128631 36.6389633424L36.53125 36.75L36.4129545177 36.8845772532L36.3226922639 37.0391797967L36.2620566964 37.2076413315L36.2287747748 37.3840083071L36.21875 37.5625L36.21875 37.7249687174L36.21875 37.8879507339L36.21875 38.0501963487L36.21875 38.2122568398L36.21875 38.375L36.2296906694 38.5507287989L36.2666047128 38.7229112094L36.33507889 38.8864113976L36.4353308388 39.0322429162L36.5625 39.15625L36.710986512 39.2616269112L36.8740320297 39.3424865917L37.0458862688 39.3971775395L37.2248963526 39.4280062861L37.40625 39.4375L37.5562211238 39.4375L37.706666062 39.4375L37.856431245 39.4375L38.0060255444 39.4375L38.15625 39.4375L38.15625 39.2875288762L38.15625 39.137083938L38.15625 38.987318755L38.15625 38.8377244556L38.15625 38.6875L38.0375228603 38.6875L37.9196381656 38.6875L37.799816085 38.6875L37.6814052965 38.6875L37.5625 38.6875L37.473899281 38.6803830876L37.3881187325 38.6597500193L37.3056182085 38.6267231117L37.2274837277 38.5828531486L37.15625 38.53125L37.0981528592 38.4709804287L37.0529005889 38.4006116567L37.022285186 38.3233901778L37.0051135027 38.2403376133L37.0 38.15625L37.0 38.0687668445L37.0 37.9819044378L37.0 37.8950452484L37.0 37.8071577787L37.0 37.71875L37.0180755281 37.542506399L37.0865298669 37.3803044253L37.2169577706 37.2616553573L37.3848848606 37.2027703367L37.5625 37.1875L37.8624422476 37.1875L38.163332124 37.1875L38.46286249 37.1875L38.7620510888 37.1875L39.0625 37.1875L39.1141789885 37.1897485852L39.1646321623 37.1987745937L39.2110180341 37.2208781865L39.2413274406 37.2610310483L39.25 37.3125L39.25 37.4874663111L39.25 37.6629854057L39.25 37.8377114525L39.25 38.0122381352L39.25 38.1875L39.2289344851 38.3579019412L39.1534363029 38.5109518759L39.0207152193 38.6191262337L38.8585141617 38.6729227707L38.6875 38.6875L38.5937680476 38.6875L38.5007011834 38.6875L38.4076377662 38.6875L38.3134726201 38.6875L38.21875 38.6875L38.21875 38.8374711238L38.21875 38.987916062L38.21875 39.137681245L38.21875 39.2872755444L38.21875 39.4375L38.3562235301 39.4375L38.4941313902 39.4375L38.6314161412 39.4375L38.7685442491 39.4375L38.90625 39.4375L39.0854801373 39.4265618025L39.2603452446 39.3918870471L39.4285430664 39.3303364029L39.5830658496 39.2410551724L39.71875 39.125L39.8317822887 38.9879897437L39.9209059173 38.833566988L39.9836149081 38.6662622478L40.0199192287 38.4901326231L40.03125 38.3125L40.03125 37.8750842223L40.03125 37.4385297661L40.03125 37.0011845675L40.03125 36.5629662756L40.03125 36.125L39.9845074702 35.7393963536L39.8129874611 35.3915501376L39.5091054898 35.1492198886L39.1378003899 35.0311825412L38.75 35.0L38.2500962541 35.0L37.7498951229 35.0L37.2503747497 35.0L36.7499915883 35.0L36.25 35.0L36.25 35.0L36.25 35.0L36.25 35.0L36.25 35.0L36.25 35.0"
           style="font-size:657.22888183999998546px;font-style:normal;font-variant:normal;font-weight:500;font-stretch:normal;line-height:125%;letter-spacing:0px;word-spacing:0px;fill:#000000;fill-opacity:1;stroke:none;font-family:Digital Sans EF;-inkscape-font-specification:Digital Sans EF Medium" /><path
           id="path3077"
           transform="matrix(73.140777,0,0,-73.140777,15.246889,4869.7952)"
           d="M44.9375 33.46875L44.7510522093 33.4892937821L44.5784217273 33.5585491298L44.4351961863 33.6769874032L44.3275208122 33.8296114288L44.25 34.0L43.8500770032 35.0872906474L43.4499160983 36.1752281076L43.0498919524 37.2627937543L42.6497678157 38.3506312511L42.25 39.4375L42.4437127016 39.4375L42.6380374134 39.4375L42.8314841081 39.4375L43.0247100782 39.4375L43.21875 39.4375L43.324979546 39.1438065493L43.4315447106 38.8491852119L43.5376283819 38.5558950619L43.6435910106 38.2629395588L43.75 37.96875L43.9812054825 37.96875L44.213141429 37.96875L44.4440294194 37.96875L44.6746539643 37.96875L44.90625 37.96875L44.90625 37.8062812826L44.90625 37.6432992661L44.90625 37.4810536513L44.90625 37.3189931602L44.90625 37.15625L44.7312836889 37.15625L44.5557645943 37.15625L44.3810385475 37.15625L44.2065118648 37.15625L44.03125 37.15625L44.2062163111 36.6251022699L44.381286707 36.0936385681L44.5561188376 35.5628981716L44.7312529441 35.0312410626L44.90625 34.5L45.0999627016 35.0311477301L45.2937906399 35.5626114319L45.4873547845 36.0933518284L45.6812532595 36.6250089374L45.875 37.15625L45.6937848921 37.15625L45.5119972584 37.15625L45.3310309956 37.15625L45.1502712172 37.15625L44.96875 37.15625L44.96875 37.3187187174L44.96875 37.4817007339L44.96875 37.6439463487L44.96875 37.8060068398L44.96875 37.96875L45.2062042793 37.96875L45.4444087649 37.96875L45.6815369712 37.96875L45.918394612 37.96875L46.15625 37.96875L46.262479546 38.2624434507L46.3690447106 38.5570647881L46.4751283819 38.8503549381L46.5810910106 39.1433104412L46.6875 39.4375L46.8749639047 39.4375L47.0630200775 39.4375L47.2502265562 39.4375L47.4372194305 39.4375L47.625 39.4375L47.2313258001 38.3502093526L46.8374174093 37.2622718924L46.4436436407 36.1747062457L46.0497714436 35.0868687489L45.65625 34.0L45.5740304447 33.8258857543L45.4580603823 33.6735882126L45.3062055658 33.5574047419L45.1276634406 33.4894070382L44.9375 33.46875L44.9375 33.46875L44.9375 33.46875L44.9375 33.46875L44.9375 33.46875L44.9375 33.46875"
           style="font-size:657.22888183999998546px;font-style:normal;font-variant:normal;font-weight:500;font-stretch:normal;line-height:125%;letter-spacing:0px;word-spacing:0px;fill:#000000;fill-opacity:1;stroke:none;font-family:Digital Sans EF;-inkscape-font-specification:Digital Sans EF Medium" /><path
           d="M3665.0823 2254.8701L3654.47786115 2254.80368667L3643.87459796 2254.57021657L3633.28071425 2254.08457395L3622.71746953 2253.15019289L3612.36 2250.9867L3603.51325426 2245.84672523L3596.91338386 2238.02888605L3592.88227014 2228.60092873L3590.89412238 2218.52710189L3590.3369 2208.2688L3590.3369 2163.73882774L3590.3369 2119.20893573L3590.3369 2074.67938676L3590.3369 2030.14932617L3590.3369 1985.6178L3578.85817871 1985.6178L3567.3785585 1985.6178L3555.90016385 1985.6178L3544.42219925 1985.6178L3532.943 1985.6178L3532.943 2033.12505704L3532.943 2080.63222845L3532.943 2128.13903389L3532.943 2175.64638516L3532.943 2223.1553L3535.83530891 2251.54526637L3546.68838176 2277.82969598L3567.26905175 2297.33184187L3593.94454331 2307.25706081L3622.3707 2309.8857L3630.91297631 2309.8857L3639.45592158 2309.8857L3647.99904356 2309.8857L3656.54165607 2309.8857L3665.0823 2309.8857L3665.0823 2298.88263627L3665.0823 2287.87871089L3665.0823 2276.87596026L3665.0823 2265.87362188L3665.0823 2254.8701"
           style="font-size:657.22888183999998546px;font-style:normal;font-variant:normal;font-weight:500;font-stretch:normal;line-height:125%;letter-spacing:0px;word-spacing:0px;fill:#000000;fill-opacity:1;stroke:none;font-family:Digital Sans EF;-inkscape-font-specification:Digital Sans EF Medium"
           id="path3079"
           inkscape:connector-curvature="0" /><path
           d="M3847.5196 2254.8701L3832.97099441 2254.8701L3818.42241503 2254.8701L3803.87394773 2254.8701L3789.32590347 2254.8701L3774.7762 2254.8701L3774.7762 2201.0199154L3774.7762 2147.16982786L3774.7762 2093.31843925L3774.7762 2039.46891485L3774.7762 1985.6178L3763.29747871 1985.6178L3751.8178585 1985.6178L3740.33946385 1985.6178L3728.86149925 1985.6178L3717.3823 1985.6178L3717.3823 2073.38327114L3717.3823 2161.14858411L3717.3823 2248.91461928L3717.3823 2336.68141962L3717.3823 2424.4474L3728.86102129 2424.4474L3740.3406415 2424.4474L3751.81903615 2424.4474L3763.29700075 2424.4474L3774.7762 2424.4474L3774.7762 2401.53517718L3774.7762 2378.62299565L3774.7762 2355.71099063L3774.7762 2332.7977929L3774.7762 2309.8857L3789.32480559 2309.8857L3803.87338497 2309.8857L3818.42185227 2309.8857L3832.96989653 2309.8857L3847.5196 2309.8857L3847.5196 2298.88263627L3847.5196 2287.87871089L3847.5196 2276.87596026L3847.5196 2265.87362188L3847.5196 2254.8701"
           style="font-size:657.22888183999998546px;font-style:normal;font-variant:normal;font-weight:500;font-stretch:normal;line-height:125%;letter-spacing:0px;word-spacing:0px;fill:#000000;fill-opacity:1;stroke:none;font-family:Digital Sans EF;-inkscape-font-specification:Digital Sans EF Medium"
           id="path3081"
           inkscape:connector-curvature="0" /><path
           d="M3942.4894 2395.9687L3942.03632245 2390.17407972L3940.6252992 2384.53823544L3938.25710519 2379.23258769L3935.03976454 2374.39260284L3931.1442 2370.0791L3926.62475864 2366.24819772L3921.59318787 2363.12200817L3916.12575781 2360.84825409L3910.35751023 2359.50520558L3904.4493 2359.076L3898.60077402 2359.47160089L3892.8721751 2360.71408044L3887.40868747 2362.83398339L3882.34091039 2365.78012111L3877.7545 2369.4318L3874.03700232 2373.81470744L3871.0033051 2378.69439679L3868.79675438 2383.99691065L3867.49330488 2389.59128254L3867.0766 2395.3215L3867.47834803 2401.17698775L3868.74872616 2406.90583458L3870.93169268 2412.35273924L3873.97624304 2417.36712878L3877.7545 2421.8584L3882.20077332 2425.79045086L3887.23123452 2428.94121379L3892.72899398 2431.17548297L3898.52500115 2432.4597774L3904.4493 2432.8615L3910.37416401 2432.45969578L3916.16949557 2431.17550168L3921.66786346 2428.94092567L3926.69687679 2425.79114588L3931.1442 2421.8584L3935.1397556 2417.61958602L3938.3847405 2412.78198049L3940.71505076 2407.44470302L3942.06548679 2401.78010317L3942.4894 2395.9687M3933.8137 1985.6178L3922.33497871 1985.6178L3910.8553585 1985.6178L3899.37696385 1985.6178L3887.89899925 1985.6178L3876.4198 1985.6178L3876.4198 2050.47104832L3876.4198 2115.32417977L3876.4198 2180.17887812L3876.4198 2245.03133135L3876.4198 2309.8857L3887.89852129 2309.8857L3899.3781415 2309.8857L3910.85653615 2309.8857L3922.33450075 2309.8857L3933.8137 2309.8857L3933.8137 2245.03245168L3933.8137 2180.17932023L3933.8137 2115.32462188L3933.8137 2050.47216865L3933.8137 1985.6178"
           style="font-size:657.22888183999998546px;font-style:normal;font-variant:normal;font-weight:500;font-stretch:normal;line-height:125%;letter-spacing:0px;word-spacing:0px;fill:#000000;fill-opacity:1;stroke:none;font-family:Digital Sans EF;-inkscape-font-specification:Digital Sans EF Medium"
           id="path3083"
           inkscape:connector-curvature="0" /><path
           d="M4135.5997 2254.8701L4120.91761509 2254.8701L4106.23555664 2254.8701L4091.55361129 2254.8701L4076.87209286 2254.8701L4062.1889 2254.8701L4062.1889 2201.0199154L4062.1889 2147.16982786L4062.1889 2093.31843925L4062.1889 2039.46891485L4062.1889 1985.6178L4050.71017871 1985.6178L4039.2305585 1985.6178L4027.75216385 1985.6178L4016.27419925 1985.6178L4004.795 1985.6178L4004.795 2057.46119257L4004.795 2129.30445567L4004.795 2201.14945456L4004.795 2272.99342354L4004.795 2344.8366L4005.64258815 2357.75605657L4008.4112319 2370.39775129L4013.35404188 2382.35531079L4020.47838608 2393.15377589L4029.4877 2402.4411L4040.51129489 2410.59687307L4052.68606332 2416.90158553L4065.69541261 2421.24087863L4079.19026772 2423.68753602L4092.8879 2424.4474L4101.43021631 2424.4474L4109.97320158 2424.4474L4118.51636357 2424.4474L4127.05901608 2424.4474L4135.5997 2424.4474L4135.5997 2413.70323495L4135.5997 2402.95822851L4135.5997 2392.2143692L4135.5997 2381.47091242L4135.5997 2370.7263L4129.59339072 2370.7263L4123.58661108 2370.7263L4117.57970718 2370.7263L4111.57316151 2370.7263L4105.568 2370.7263L4098.71329177 2370.33395224L4091.96930192 2369.05712306L4085.50030909 2366.76792664L4079.51500734 2363.41741643L4074.2015 2359.076L4069.78661812 2354.00752203L4066.33006009 2348.24242853L4063.94224796 2341.95847937L4062.60148536 2335.36847887L4062.1889 2328.6556L4062.1889 2324.90234267L4062.1889 2321.14805561L4062.1889 2317.39356438L4062.1889 2313.64044503L4062.1889 2309.8857L4076.87098491 2309.8857L4091.55304336 2309.8857L4106.23498871 2309.8857L4120.91650714 2309.8857L4135.5997 2309.8857L4135.5997 2298.88263627L4135.5997 2287.87871089L4135.5997 2276.87596026L4135.5997 2265.87362188L4135.5997 2254.8701"
           style="font-size:657.22888183999998546px;font-style:normal;font-variant:normal;font-weight:500;font-stretch:normal;line-height:125%;letter-spacing:0px;word-spacing:0px;fill:#000000;fill-opacity:1;stroke:none;font-family:Digital Sans EF;-inkscape-font-specification:Digital Sans EF Medium"
           id="path3085"
           inkscape:connector-curvature="0" /><path
           d="M4229.2503 2395.9687L4228.79722165 2390.17407972L4227.38619254 2384.53823544L4225.0179824 2379.23258769L4221.80061133 2374.39260284L4217.905 2370.0791L4213.38561571 2366.24819772L4208.35409984 2363.12200817L4202.88671594 2360.84825409L4197.11849929 2359.50520558L4191.2103 2359.076L4185.36172609 2359.47160089L4179.63309694 2360.71408044L4174.16959376 2362.83398339L4169.10181114 2365.78012111L4164.5154 2369.4318L4160.79789333 2373.81470744L4157.76417692 2378.69439679L4155.55761123 2383.99691065L4154.25416672 2389.59128254L4153.8375 2395.3215L4154.23921022 2401.17698775L4155.50958281 2406.90583458L4157.69256396 2412.35273924L4160.73713377 2417.36712878L4164.5154 2421.8584L4168.96171235 2425.79045086L4173.99218415 2428.94121379L4179.4899445 2431.17548297L4185.28596295 2432.4597774L4191.2103 2432.8615L4197.13511626 2432.45969578L4202.93041211 2431.17550168L4208.42874874 2428.94092567L4213.45772607 2425.79114588L4217.905 2421.8584L4221.90060345 2417.61958602L4225.14561874 2412.78198049L4227.47594457 2407.44470302L4228.82638606 2401.78010317L4229.2503 2395.9687M4220.5745 1985.6178L4209.09579871 1985.6178L4197.6161985 1985.6178L4186.13782385 1985.6178L4174.65987925 1985.6178L4163.1807 1985.6178L4163.1807 2050.47104832L4163.1807 2115.32417977L4163.1807 2180.17887812L4163.1807 2245.03133135L4163.1807 2309.8857L4174.65940129 2309.8857L4186.1390015 2309.8857L4197.61737615 2309.8857L4209.09532075 2309.8857L4220.5745 2309.8857L4220.5745 2245.03245168L4220.5745 2180.17932023L4220.5745 2115.32462188L4220.5745 2050.47216865L4220.5745 1985.6178"
           style="font-size:657.22888183999998546px;font-style:normal;font-variant:normal;font-weight:500;font-stretch:normal;line-height:125%;letter-spacing:0px;word-spacing:0px;fill:#000000;fill-opacity:1;stroke:none;font-family:Digital Sans EF;-inkscape-font-specification:Digital Sans EF Medium"
           id="path3087"
           inkscape:connector-curvature="0" /><path
           d="M4515.1248 1985.6178L4489.09747311 1985.6178L4463.07019313 1985.6178L4437.04311365 1985.6178L4411.0146793 1985.6178L4384.9875 1985.6178L4355.98504557 1988.09349981L4328.51144861 1997.47159519L4306.65878511 2016.39566731L4294.7525882 2042.79925066L4291.5556 2071.7009L4291.5556 2103.02719979L4291.5556 2134.35344312L4291.5556 2165.67944513L4291.5556 2197.00707785L4291.5556 2228.3332L4293.93135974 2254.20260834L4302.90538183 2278.50005838L4320.58089895 2297.29649598L4344.47323836 2307.2355765L4370.3053 2309.8857L4399.00211324 2309.8857L4427.69887476 2309.8857L4456.39541521 2309.8857L4485.09344949 2309.8857L4513.7901 2309.8857L4513.7901 2298.88263627L4513.7901 2287.87871089L4513.7901 2276.87596026L4513.7901 2265.87362188L4513.7901 2254.8701L4489.89834219 2254.8701L4466.00662744 2254.8701L4442.11509673 2254.8701L4418.22232233 2254.8701L4394.3307 2254.8701L4386.87995936 2254.65486053L4379.46444889 2253.91233644L4372.16209468 2252.43475392L4365.165864 2249.89014902L4358.9601 2245.8088L4354.54747443 2240.291294L4351.69878433 2233.81129272L4350.02928566 2226.92418317L4349.1914524 2219.88621255L4348.9495 2212.7994L4348.9495 2187.16879108L4348.9495 2161.53822836L4348.9495 2135.90786308L4348.9495 2110.27616358L4348.9495 2084.6457L4350.63214447 2069.93409587L4356.87585293 2056.57344098L4368.17718074 2047.13474995L4382.22283157 2042.50239305L4397.0002 2041.2806L4420.62499918 2041.2806L4444.24975578 2041.2806L4467.87433038 2041.2806L4491.50013479 2041.2806L4515.1248 2041.2806L4515.1248 2030.14809693L4515.1248 2019.01472207L4515.1248 2007.88253579L4515.1248 1996.75076661L4515.1248 1985.6178"
           style="font-size:657.22888183999998546px;font-style:normal;font-variant:normal;font-weight:500;font-stretch:normal;line-height:125%;letter-spacing:0px;word-spacing:0px;fill:#000000;fill-opacity:1;stroke:none;font-family:Digital Sans EF;-inkscape-font-specification:Digital Sans EF Medium"
           id="path3089"
           inkscape:connector-curvature="0" /><path
           d="M4638.5363 2395.9687L4638.08322165 2390.17407972L4636.67219254 2384.53823544L4634.3039824 2379.23258769L4631.08661133 2374.39260284L4627.191 2370.0791L4622.67157662 2366.24819772L4617.64004423 2363.12200817L4612.17264411 2360.84825409L4606.40438655 2359.50520558L4600.4961 2359.076L4594.64761273 2359.47160089L4588.91902467 2360.71408044L4583.4555379 2362.83398339L4578.38777169 2365.78012111L4573.8014 2369.4318L4570.08385495 2373.81470744L4567.0501274 2378.69439679L4564.84356084 2383.99691065L4563.54010565 2389.59128254L4563.1234 2395.3215L4563.52514876 2401.17698775L4564.79553235 2406.90583458L4566.97851437 2412.35273924L4570.02309499 2417.36712878L4573.8014 2421.8584L4578.24770132 2425.79045086L4583.27814195 2428.94121379L4588.77585592 2431.17548297L4594.57181956 2432.4597774L4600.4961 2432.8615L4606.42097287 2432.45969578L4612.21632354 2431.17550168L4617.71470654 2428.94092567L4622.74371504 2425.79114588L4627.191 2421.8584L4631.18660345 2417.61958602L4634.43161874 2412.78198049L4636.76194457 2407.44470302L4638.11238606 2401.78010317L4638.5363 2395.9687M4629.8605 1985.6178L4618.38177871 1985.6178L4606.9021585 1985.6178L4595.42376385 1985.6178L4583.94579925 1985.6178L4572.4666 1985.6178L4572.4666 2050.47104832L4572.4666 2115.32417977L4572.4666 2180.17887812L4572.4666 2245.03133135L4572.4666 2309.8857L4583.94532129 2309.8857L4595.4249415 2309.8857L4606.90333615 2309.8857L4618.38130075 2309.8857L4629.8605 2309.8857L4629.8605 2245.03245168L4629.8605 2180.17932023L4629.8605 2115.32462188L4629.8605 2050.47216865L4629.8605 1985.6178"
           style="font-size:657.22888183999998546px;font-style:normal;font-variant:normal;font-weight:500;font-stretch:normal;line-height:125%;letter-spacing:0px;word-spacing:0px;fill:#000000;fill-opacity:1;stroke:none;font-family:Digital Sans EF;-inkscape-font-specification:Digital Sans EF Medium"
           id="path3091"
           inkscape:connector-curvature="0" /><path
           id="path3093"
           transform="matrix(73.140777,0,0,-73.140777,15.246889,4869.7952)"
           d="M64.09375 35.0L64.09375 35.1499711238L64.09375 35.300416062L64.09375 35.450181245L64.09375 35.5997755444L64.09375 35.75L64.5749073555 35.75L65.0563509442 35.75L65.5371393034 35.75L66.0187580963 35.75L66.5 35.75L66.6054450489 35.7541762103L66.7103942915 35.7696942025L66.8098247726 35.8019576065L66.8999811181 35.8586295089L66.96875 35.9375L67.0189974118 36.0363041154L67.0522353169 36.1405680544L67.0743283405 36.2482537071L67.0877320227 36.3583317731L67.09375 36.46875L66.7188221905 36.46875L66.3446326567 36.46875L65.9697653436 36.46875L65.5951248473 36.46875L65.21875 36.46875L65.0369313528 36.476892784L64.8569412563 36.5045447697L64.6829577528 36.5567709537L64.5187628631 36.6389633424L64.375 36.75L64.2567042291 36.8845772532L64.166442154 37.0391797967L64.1058068776 37.2076413315L64.0725250575 37.3840083071L64.0625 37.5625L64.0625 37.7249687174L64.0625 37.8879507339L64.0625 38.0501963487L64.0625 38.2122568398L64.0625 38.375L64.0734409526 38.5507287989L64.1103548884 38.7229112094L64.1788287678 38.8864113976L64.2790805503 39.0322429162L64.40625 39.15625L64.5600381729 39.2624677606L64.7288694452 39.3419583961L64.908323926 39.3964673404L65.0942826982 39.4276810213L65.28125 39.4375L65.4374699206 39.4375L65.5941833979 39.4375L65.7501887969 39.4375L65.9060161921 39.4375L66.0625 39.4375L66.0625 39.2875288762L66.0625 39.137083938L66.0625 38.987318755L66.0625 38.8377244556L66.0625 38.6875L65.9312752667 38.6875L65.8009816567 38.6875L65.6685467255 38.6875L65.5376716435 38.6875L65.40625 38.6875L65.3176489055 38.6803830876L65.2318682963 38.6597500193L65.1493679094 38.6267231117L65.0712336267 38.5828531486L65.0 38.53125L64.9419036257 38.4709804287L64.8966514486 38.4006116567L64.8660357428 38.3233901778L64.8488636764 38.2403376133L64.84375 38.15625L64.84375 38.0687668445L64.84375 37.9819044378L64.84375 37.8950452484L64.84375 37.8071577787L64.84375 37.71875L64.8618255281 37.542506399L64.9302798669 37.3803044253L65.0607077706 37.2616553573L65.2286348606 37.2027703367L65.40625 37.1875L65.7061922476 37.1875L66.007082124 37.1875L66.30661249 37.1875L66.6058010888 37.1875L66.90625 37.1875L66.9579289295 37.1897485852L67.0083819422 37.1987745937L67.0547676254 37.2208781865L67.0850770468 37.2610310483L67.09375 37.3125L67.09375 37.4874663111L67.09375 37.6629854057L67.09375 37.8377114525L67.09375 38.0122381352L67.09375 38.1875L67.0726841117 38.3579019412L66.9971858739 38.5109518759L66.8644649628 38.6191262337L66.7022640901 38.6729227707L66.53125 38.6875L66.4490392506 38.6875L66.3684264501 38.6875L66.2879891107 38.6875L66.2066970704 38.6875L66.125 38.6875L66.125 38.8374711238L66.125 38.987916062L66.125 39.137681245L66.125 39.2872755444L66.125 39.4375L66.2499759365 39.4375L66.3740650888 39.4375L66.5001935947 39.4375L66.62483653 39.4375L66.75 39.4375L66.9292299753 39.4265618025L67.1040947203 39.3918870471L67.2722922218 39.3303364029L67.4268150575 39.2410551724L67.5625 39.125L67.6755315076 38.9879897437L67.7646550648 38.833566988L67.8273643672 38.6662622478L67.8636690614 38.4901326231L67.875 38.3125L67.875 37.8750842223L67.875 37.4385297661L67.875 37.0011845675L67.875 36.5629662756L67.875 36.125L67.8282575575 35.7393963536L67.6567377589 35.3915501376L67.3528559315 35.1492198886L66.9815507367 35.0311825412L66.59375 35.0L66.0938462541 35.0L65.5936451229 35.0L65.0941247497 35.0L64.5937415883 35.0L64.09375 35.0L64.09375 35.0L64.09375 35.0L64.09375 35.0L64.09375 35.0L64.09375 35.0"
           style="font-size:657.22888183999998546px;font-style:normal;font-variant:normal;font-weight:500;font-stretch:normal;line-height:125%;letter-spacing:0px;word-spacing:0px;fill:#000000;fill-opacity:1;stroke:none;font-family:Digital Sans EF;-inkscape-font-specification:Digital Sans EF Medium" /><path
           d="M5107.5624 1985.6178L5096.08367871 1985.6178L5084.6040585 1985.6178L5073.12566385 1985.6178L5061.64769925 1985.6178L5050.1685 1985.6178L5050.1685 2073.38327114L5050.1685 2161.14858411L5050.1685 2248.91461928L5050.1685 2336.68141962L5050.1685 2424.4474L5061.64722129 2424.4474L5073.1268415 2424.4474L5084.60523615 2424.4474L5096.08320075 2424.4474L5107.5624 2424.4474L5107.5624 2336.68192886L5107.5624 2248.91661589L5107.5624 2161.15058072L5107.5624 2073.38378038L5107.5624 1985.6178"
           style="font-size:657.22888183999998546px;font-style:normal;font-variant:normal;font-weight:500;font-stretch:normal;line-height:125%;letter-spacing:0px;word-spacing:0px;fill:#000000;fill-opacity:1;stroke:none;font-family:Digital Sans EF;-inkscape-font-specification:Digital Sans EF Medium"
           id="path3095"
           inkscape:connector-curvature="0" /><path
           d="M5371.6849 1985.6178L5358.73796621 1985.6178L5345.79001854 1985.6178L5332.84345318 1985.6178L5319.89737288 1985.6178L5306.9499 1985.6178L5306.9499 2071.95933843L5306.9499 2158.30072124L5306.9499 2244.64281454L5306.9499 2330.9856606L5306.9499 2417.3277L5319.89683379 2417.3277L5332.84478146 2417.3277L5345.79134682 2417.3277L5358.73742712 2417.3277L5371.6849 2417.3277L5371.6849 2330.98616157L5371.6849 2244.64477876L5371.6849 2158.30268546L5371.6849 2071.9598394L5371.6849 1985.6178"
           style="font-size:657.22888183999998546px;font-style:normal;font-variant:normal;font-weight:500;font-stretch:normal;line-height:125%;letter-spacing:0px;word-spacing:0px;fill:#000000;fill-opacity:1;stroke:none;font-family:Digital Sans EF;-inkscape-font-specification:Digital Sans EF Medium"
           id="path3097"
           inkscape:connector-curvature="0" /><path
           d="M5717.4662 1985.6178L5706.12093802 1985.6178L5694.77478759 1985.6178L5683.42984845 1985.6178L5672.08533438 1985.6178L5660.7396 1985.6178L5660.7396 2031.57170498L5660.7396 2077.52552714L5660.7396 2123.47899529L5660.7396 2169.43299142L5660.7396 2215.3885L5658.86388322 2229.44805918L5652.05859443 2241.81818117L5640.53308542 2249.99121556L5626.87412533 2253.85310888L5612.6889 2254.8701L5599.87546553 2254.8701L5587.06102763 2254.8701L5574.24795778 2254.8701L5561.435368 2254.8701L5548.6214 2254.8701L5534.32340979 2253.86613465L5520.53258035 2250.05342805L5508.82149643 2241.94548693L5501.83696834 2229.55270642L5499.9034 2215.3885L5499.9034 2169.43459502L5499.9034 2123.48077286L5499.9034 2077.52730471L5499.9034 2031.57330858L5499.9034 1985.6178L5488.42467871 1985.6178L5476.9450585 1985.6178L5465.46666385 1985.6178L5453.98869925 1985.6178L5442.5095 1985.6178L5442.5095 2034.67842909L5442.5095 2083.73896976L5442.5095 2132.79913249L5442.5095 2181.8598589L5442.5095 2230.9222L5445.56851406 2257.7005355L5456.92009175 2282.02405796L5477.47859365 2299.21783218L5503.03966292 2307.65910025L5529.935 2309.8857L5550.08949692 2309.8857L5570.24395753 2309.8857L5590.39826287 2309.8857L5610.55361736 2309.8857L5630.708 2309.8857L5657.48913621 2307.64229917L5682.9113932 2299.13949639L5703.27260042 2281.88072568L5714.45647618 2257.59692032L5717.4662 2230.9222L5717.4662 2181.86157091L5717.4662 2132.80103024L5717.4662 2083.74086751L5717.4662 2034.6801411L5717.4662 1985.6178"
           style="font-size:657.22888183999998546px;font-style:normal;font-variant:normal;font-weight:500;font-stretch:normal;line-height:125%;letter-spacing:0px;word-spacing:0px;fill:#000000;fill-opacity:1;stroke:none;font-family:Digital Sans EF;-inkscape-font-specification:Digital Sans EF Medium"
           id="path3099"
           inkscape:connector-curvature="0" /><path
           d="M5920.6704 2254.8701L5906.12179441 2254.8701L5891.57321503 2254.8701L5877.02474773 2254.8701L5862.47670347 2254.8701L5847.927 2254.8701L5847.927 2201.0199154L5847.927 2147.16982786L5847.927 2093.31843925L5847.927 2039.46891485L5847.927 1985.6178L5836.44827871 1985.6178L5824.9686585 1985.6178L5813.49026385 1985.6178L5802.01229925 1985.6178L5790.5331 1985.6178L5790.5331 2073.38327114L5790.5331 2161.14858411L5790.5331 2248.91461928L5790.5331 2336.68141962L5790.5331 2424.4474L5802.01182129 2424.4474L5813.4914415 2424.4474L5824.96983615 2424.4474L5836.44780075 2424.4474L5847.927 2424.4474L5847.927 2401.53517718L5847.927 2378.62299565L5847.927 2355.71099063L5847.927 2332.7977929L5847.927 2309.8857L5862.47560559 2309.8857L5877.02418497 2309.8857L5891.57265227 2309.8857L5906.12069653 2309.8857L5920.6704 2309.8857L5920.6704 2298.88263627L5920.6704 2287.87871089L5920.6704 2276.87596026L5920.6704 2265.87362188L5920.6704 2254.8701"
           style="font-size:657.22888183999998546px;font-style:normal;font-variant:normal;font-weight:500;font-stretch:normal;line-height:125%;letter-spacing:0px;word-spacing:0px;fill:#000000;fill-opacity:1;stroke:none;font-family:Digital Sans EF;-inkscape-font-specification:Digital Sans EF Medium"
           id="path3101"
           inkscape:connector-curvature="0" /><path
           id="path3103"
           transform="matrix(73.140777,0,0,-73.140777,15.246889,4869.7952)"
           d="M82.65625 35.0L82.2715822103 35.0313805896L81.9057488713 35.1509143703L81.6112404336 35.3961122576L81.4498021234 35.7423009034L81.40625 36.125L81.40625 36.5436693872L81.40625 36.9615143667L81.40625 37.3801161997L81.40625 37.7984647539L81.40625 38.21875L81.4171703022 38.4342180776L81.4537521232 38.6452126648L81.5229133152 38.8474703152L81.6321316051 39.0332447218L81.78125 39.1875L81.9480502804 39.2940499852L82.1324251807 39.3651131686L82.3249942125 39.4084121218L82.5212825588 39.430873219L82.71875 39.4375L83.2124049491 39.4375L83.7063535661 39.4375L84.1996299346 39.4375L84.6937583065 39.4375L85.1875 39.4375L85.1875 39.2875288762L85.1875 39.137083938L85.1875 38.987318755L85.1875 38.8377244556L85.1875 38.6875L84.725089035 38.6875L84.2624029887 38.6875L83.8003466435 38.6875L83.3374922192 38.6875L82.875 38.6875L82.7702550825 38.683483783L82.6671034424 38.6710721394L82.565157168 38.6489600287L82.4652691248 38.6142412787L82.375 38.5625L82.2960744295 38.4844617565L82.2405866831 38.387701284L82.2081109857 38.2829637429L82.1920481254 38.1739747332L82.1875 38.0625L82.1875 38.0383987427L82.1875 38.0135450834L82.1875 37.9885296184L82.1875 37.9625974796L82.1875 37.9375L82.7873844951 37.7000457207L83.3876258525 37.4624501834L83.9870503003 37.2251780061L84.587510094 36.9874960044L85.1875 36.75L85.1875 36.6375216572L85.1875 36.5258414201L85.1875 36.4123257648L85.1875 36.300147123L85.1875 36.1875L85.1527562882 35.8090315603L85.0202527567 35.4529846596L84.7598300607 35.1804000183L84.409005073 35.0377057244L84.03125 35.0L83.887527673 35.0L83.7433512739 35.0L83.5998263069 35.0L83.4564651033 35.0L83.3125 35.0L83.3125 35.1499711238L83.3125 35.300416062L83.3125 35.450181245L83.3125 35.5997755444L83.3125 35.75L83.4062319524 35.75L83.4992988166 35.75L83.5923622338 35.75L83.6865273799 35.75L83.78125 35.75L83.9582423685 35.762391618L84.1300409223 35.8110500487L84.2729520184 35.9161538366L84.3537893591 36.0741540949L84.375 36.25L84.375 36.2620506287L84.375 36.275511287L84.375 36.2885815865L84.375 36.2998157215L84.375 36.3125L83.9375842223 36.4874663111L83.4999082326 36.662536707L83.062827906 36.8373688376L82.6249926398 37.0125029441L82.1875 37.1875L82.1875 37.0125336889L82.1875 36.8370145943L82.1875 36.6622885475L82.1875 36.4877618648L82.1875 36.3125L82.2170179318 36.1062012246L82.3230766432 35.9284794041L82.4959225721 35.8160762555L82.6973929536 35.7637672177L82.90625 35.75L82.9758129418 35.75L83.044023773 35.75L83.1120861371 35.75L83.1808717097 35.75L83.25 35.75L83.25 35.6000288762L83.25 35.449583938L83.25 35.299818755L83.25 35.1502244556L83.25 35.0L83.1312728603 35.0L83.0133881656 35.0L82.893566085 35.0L82.7751552965 35.0L82.65625 35.0L82.65625 35.0L82.65625 35.0L82.65625 35.0L82.65625 35.0L82.65625 35.0"
           style="font-size:657.22888183999998546px;font-style:normal;font-variant:normal;font-weight:500;font-stretch:normal;line-height:125%;letter-spacing:0px;word-spacing:0px;fill:#000000;fill-opacity:1;stroke:none;font-family:Digital Sans EF;-inkscape-font-specification:Digital Sans EF Medium" /><path
           d="M6370.6138 1985.6178L6359.13507871 1985.6178L6347.6554585 1985.6178L6336.17706385 1985.6178L6324.69909925 1985.6178L6313.2199 1985.6178L6313.2199 2073.38327114L6313.2199 2161.14858411L6313.2199 2248.91461928L6313.2199 2336.68141962L6313.2199 2424.4474L6324.69862129 2424.4474L6336.1782415 2424.4474L6347.65663615 2424.4474L6359.13460075 2424.4474L6370.6138 2424.4474L6370.6138 2336.68192886L6370.6138 2248.91661589L6370.6138 2161.15058072L6370.6138 2073.38378038L6370.6138 1985.6178"
           style="font-size:657.22888183999998546px;font-style:normal;font-variant:normal;font-weight:500;font-stretch:normal;line-height:125%;letter-spacing:0px;word-spacing:0px;fill:#000000;fill-opacity:1;stroke:none;font-family:Digital Sans EF;-inkscape-font-specification:Digital Sans EF Medium"
           id="path3105"
           inkscape:connector-curvature="0" /><path
           d="M6498.3523 1985.6178L6486.87357871 1985.6178L6475.3939585 1985.6178L6463.91556385 1985.6178L6452.43759925 1985.6178L6440.9584 1985.6178L6440.9584 2073.38327114L6440.9584 2161.14858411L6440.9584 2248.91461928L6440.9584 2336.68141962L6440.9584 2424.4474L6452.43712129 2424.4474L6463.9167415 2424.4474L6475.39513615 2424.4474L6486.87310075 2424.4474L6498.3523 2424.4474L6498.3523 2336.68192886L6498.3523 2248.91661589L6498.3523 2161.15058072L6498.3523 2073.38378038L6498.3523 1985.6178"
           style="font-size:657.22888183999998546px;font-style:normal;font-variant:normal;font-weight:500;font-stretch:normal;line-height:125%;letter-spacing:0px;word-spacing:0px;fill:#000000;fill-opacity:1;stroke:none;font-family:Digital Sans EF;-inkscape-font-specification:Digital Sans EF Medium"
           id="path3107"
           inkscape:connector-curvature="0" /><path
           d="M6635.4346 2395.9687L6634.98151206 2390.17407972L6633.57046323 2384.53823544L6631.20223884 2379.23258769L6627.98487397 2374.39260284L6624.0893 2370.0791L6619.56982996 2366.24819772L6614.53827263 2363.12200817L6609.07087203 2360.84825409L6603.30263899 2359.50520558L6597.3944 2359.076L6591.54591198 2359.47160089L6585.81731838 2360.71408044L6580.35381604 2362.83398339L6575.2860196 2365.78012111L6570.6996 2369.4318L6566.98206465 2373.81470744L6563.94836168 2378.69439679L6561.74182545 2383.99691065L6560.43839548 2389.59128254L6560.0217 2395.3215L6560.42343893 2401.17698775L6561.69379777 2406.90583458L6563.87674945 2412.35273924L6566.92130502 2417.36712878L6570.6996 2421.8584L6575.1459021 2425.79045086L6580.1763485 2428.94121379L6585.67407846 2431.17548297L6591.4700725 2432.4597774L6597.3944 2432.8615L6603.31927287 2432.45969578L6609.11462354 2431.17550168L6614.61300654 2428.94092567L6619.64201504 2425.79114588L6624.0893 2421.8584L6628.08486553 2417.61958602L6631.32987548 2412.78198049L6633.66021621 2407.44470302L6635.01067702 2401.78010317L6635.4346 2395.9687M6626.7587 1985.6178L6615.27997871 1985.6178L6603.8003585 1985.6178L6592.32196385 1985.6178L6580.84399925 1985.6178L6569.3648 1985.6178L6569.3648 2050.47104832L6569.3648 2115.32417977L6569.3648 2180.17887812L6569.3648 2245.03133135L6569.3648 2309.8857L6580.84352129 2309.8857L6592.3231415 2309.8857L6603.80153615 2309.8857L6615.27950075 2309.8857L6626.7587 2309.8857L6626.7587 2245.03245168L6626.7587 2180.17932023L6626.7587 2115.32462188L6626.7587 2050.47216865L6626.7587 1985.6178"
           style="font-size:657.22888183999998546px;font-style:normal;font-variant:normal;font-weight:500;font-stretch:normal;line-height:125%;letter-spacing:0px;word-spacing:0px;fill:#000000;fill-opacity:1;stroke:none;font-family:Digital Sans EF;-inkscape-font-specification:Digital Sans EF Medium"
           id="path3109"
           inkscape:connector-curvature="0" /><path
           id="path3111"
           transform="matrix(73.140777,0,0,-73.140777,15.246889,4869.7952)"
           d="M92.59375 35.0L92.3907445314 35.0087262702L92.190367979 35.0380097479L91.9956546197 35.0938563456L91.8129200211 35.1839238184L91.65625 35.3125L91.5385798589 35.4734200013L91.4574690588 35.6575754439L91.4079491231 35.8520315318L91.3824676161 36.0504115698L91.375 36.25L91.375 36.6624205904L91.375 37.0740290777L91.375 37.4863831221L91.375 37.898487668L91.375 38.3125L91.3847265404 38.4968999838L91.4170410358 38.6793663054L91.4765980039 38.8547878053L91.5671335339 39.0168075044L91.6875 39.15625L91.8564068676 39.2747450647L92.0457985247 39.355752008L92.2458282972 39.4050853681L92.4505429554 39.4302464904L92.65625 39.4375L93.0061826222 39.4375L93.3554261871 39.4375L93.705302346 39.4375L94.0549668092 39.4375L94.40625 39.4375L94.4041451424 39.5586979464L94.3969148601 39.6800687347L94.3825745302 39.800497215L94.3574000573 39.9186849039L94.3125 40.03125L94.2303664356 40.1262103093L94.1217247906 40.1902697329L94.0008438906 40.2271774664L93.8751430328 40.2450842492L93.75 40.25L93.2688426445 40.25L92.7873990558 40.25L92.3066106966 40.25L91.8249919037 40.25L91.34375 40.25L91.34375 40.3999711238L91.34375 40.550416062L91.34375 40.700181245L91.34375 40.8497755444L91.34375 41.0L91.8436537459 41.0L92.3438548771 41.0L92.8433752503 41.0L93.3437584117 41.0L93.84375 41.0L94.2523846613 40.9668054899L94.6416901854 40.8417942109L94.9598805713 40.5854310476L95.1389556321 40.2180511116L95.1875 39.8125L95.1875 39.0813907715L95.1875 38.3498466173L95.1875 37.6192980715L95.1875 36.8874876979L95.1875 36.15625L95.1791858651 35.9587994437L95.1509213304 35.763131115L95.0961498734 35.5731176672L95.0070224787 35.3978918215L94.875 35.25L94.7044565185 35.1377658197L94.5134975634 35.0669275698L94.3144898576 35.0261136356L94.1110720485 35.0057907195L93.90625 35.0L93.7750252667 35.0L93.6447316567 35.0L93.5122967255 35.0L93.3814216435 35.0L93.25 35.0L93.25 35.1499711238L93.25 35.300416062L93.25 35.450181245L93.25 35.5997755444L93.25 35.75L93.3499807492 35.75L93.4492520711 35.75L93.5485197161 35.75L93.6489625386 35.75L93.75 35.75L93.8652919405 35.755800116L93.9799625984 35.7753307269L94.0899243038 35.811302452L94.1913439225 35.8653151529L94.28125 35.9375L94.3388982988 36.0183552026L94.3736442427 36.1111656204L94.3936225329 36.209267601L94.4034031023 36.3073176386L94.40625 36.40625L94.40625 36.8249193872L94.40625 37.2427643667L94.40625 37.6613661997L94.40625 38.0797147539L94.40625 38.5L94.3988488865 38.558927188L94.3740131232 38.6137269426L94.3315199221 38.6559713199L94.2770736246 38.6803119537L94.21875 38.6875L93.9438029397 38.6875L93.6679872196 38.6875L93.3934177175 38.6875L93.1191615019 38.6875L92.84375 38.6875L92.637394568 38.6714805089L92.4387957483 38.6104160397L92.2752972567 38.4840699377L92.1815947017 38.2989716671L92.15625 38.09375L92.15625 37.7438173778L92.15625 37.3945738129L92.15625 37.044697654L92.15625 36.6950331908L92.15625 36.34375L92.1771152165 36.1478503664L92.2550288778 35.9669869685L92.3996798862 35.8348172194L92.5852103348 35.7677279321L92.78125 35.75L92.8634607494 35.75L92.9440735499 35.75L93.0245108893 35.75L93.1058029296 35.75L93.1875 35.75L93.1875 35.6000288762L93.1875 35.449583938L93.1875 35.299818755L93.1875 35.1502244556L93.1875 35.0L93.0687728603 35.0L92.9508881656 35.0L92.831066085 35.0L92.7126552965 35.0L92.59375 35.0L92.59375 35.0L92.59375 35.0L92.59375 35.0L92.59375 35.0L92.59375 35.0"
           style="font-size:657.22888183999998546px;font-style:normal;font-variant:normal;font-weight:500;font-stretch:normal;line-height:125%;letter-spacing:0px;word-spacing:0px;fill:#000000;fill-opacity:1;stroke:none;font-family:Digital Sans EF;-inkscape-font-specification:Digital Sans EF Medium" /><path
           id="path3113"
           transform="matrix(73.140777,0,0,-73.140777,15.246889,4869.7952)"
           d="M97.40625 35.0L97.0215822103 35.0313805896L96.6557488713 35.1509143703L96.3612404336 35.3961122576L96.1998021234 35.7423009034L96.15625 36.125L96.15625 36.5436693872L96.15625 36.9615143667L96.15625 37.3801161997L96.15625 37.7984647539L96.15625 38.21875L96.1699753927 38.4365339111L96.2139964406 38.6485397187L96.2930603444 38.8506135038L96.409510724 39.0332506513L96.5625 39.1875L96.7293002804 39.2940499852L96.9136751807 39.3651131686L97.1062442125 39.4084121218L97.3025325588 39.430873219L97.5 39.4375L97.9936549491 39.4375L98.4876035661 39.4375L98.9808799346 39.4375L99.4750083065 39.4375L99.96875 39.4375L99.96875 39.2875288762L99.96875 39.137083938L99.96875 38.987318755L99.96875 38.8377244556L99.96875 38.6875L99.5000902382 38.6875L99.0311516777 38.6875L98.5628513279 38.6875L98.093742114 38.6875L97.625 38.6875L97.5271516223 38.6838592538L97.4284339005 38.6716601052L97.3325118905 38.6492137779L97.2401382199 38.6137468375L97.15625 38.5625L97.0773244295 38.4844617565L97.0218366831 38.387701284L96.9893609857 38.2829637429L96.9732981254 38.1739747332L96.96875 38.0625L96.96875 38.0383987427L96.96875 38.0135450834L96.96875 37.9885296184L96.96875 37.9625974796L96.96875 37.9375L97.5686344951 37.7000457207L98.1688758525 37.4624501834L98.7683003003 37.2251780061L99.368760094 36.9874960044L99.96875 36.75L99.96875 36.6375216572L99.96875 36.5258414201L99.96875 36.4123257648L99.96875 36.300147123L99.96875 36.1875L99.9306402476 35.8052108845L99.7891809341 35.4496694691L99.5200250017 35.1801892618L99.1643637336 35.0383080124L98.78125 35.0L98.6187812826 35.0L98.4557992661 35.0L98.2935536513 35.0L98.1314931602 35.0L97.96875 35.0L97.96875 35.1499711238L97.96875 35.300416062L97.96875 35.450181245L97.96875 35.5997755444L97.96875 35.75L98.0812283428 35.75L98.1929085799 35.75L98.3064242352 35.75L98.418602877 35.75L98.53125 35.75L98.7133665003 35.7628599648L98.8892454311 35.811268771L99.0395139194 35.9134665994L99.1305143314 36.0697462116L99.15625 36.25L99.15625 36.2620506287L99.15625 36.275511287L99.15625 36.2885815865L99.15625 36.2998157215L99.15625 36.3125L98.7125854255 36.4874663111L98.2686569216 36.662536707L97.8253325904 36.8373688376L97.3812425346 37.0125029441L96.9375 37.1875L96.9375 37.0125336889L96.9375 36.8370145943L96.9375 36.6622885475L96.9375 36.4877618648L96.9375 36.3125L96.9716285597 36.1026987387L97.0885808538 35.9257510898L97.2690457715 35.8159065457L97.4751531443 35.763967885L97.6875 35.75L97.7317673266 35.75L97.7751742192 35.75L97.8184866327 35.75L97.8631681358 35.75L97.90625 35.75L97.90625 35.6000288762L97.90625 35.449583938L97.90625 35.299818755L97.90625 35.1502244556L97.90625 35.0L97.8062692508 35.0L97.7069979289 35.0L97.6077302839 35.0L97.5072874614 35.0L97.40625 35.0L97.40625 35.0L97.40625 35.0L97.40625 35.0L97.40625 35.0L97.40625 35.0"
           style="font-size:657.22888183999998546px;font-style:normal;font-variant:normal;font-weight:500;font-stretch:normal;line-height:125%;letter-spacing:0px;word-spacing:0px;fill:#000000;fill-opacity:1;stroke:none;font-family:Digital Sans EF;-inkscape-font-specification:Digital Sans EF Medium" /><path
           d="M7668.7437 1985.6178L7657.39843802 1985.6178L7646.05228759 1985.6178L7634.70734845 1985.6178L7623.36283438 1985.6178L7612.0171 1985.6178L7612.0171 2031.57170498L7612.0171 2077.52552714L7612.0171 2123.47899529L7612.0171 2169.43299142L7612.0171 2215.3885L7610.14138322 2229.44805918L7603.33609443 2241.81818117L7591.81058542 2249.99121556L7578.15162533 2253.85310888L7563.9664 2254.8701L7551.15296553 2254.8701L7538.33852763 2254.8701L7525.52545778 2254.8701L7512.712868 2254.8701L7499.8989 2254.8701L7485.60090297 2253.86613465L7471.81005227 2250.05342805L7460.09893568 2241.94548693L7453.11437867 2229.55270642L7451.1808 2215.3885L7451.1808 2169.43459502L7451.1808 2123.48077286L7451.1808 2077.52730471L7451.1808 2031.57330858L7451.1808 1985.6178L7439.70207871 1985.6178L7428.2224585 1985.6178L7416.74406385 1985.6178L7405.26609925 1985.6178L7393.7869 1985.6178L7393.7869 2034.67842909L7393.7869 2083.73896976L7393.7869 2132.79913249L7393.7869 2181.8598589L7393.7869 2230.9222L7396.84592325 2257.7005355L7408.19752781 2282.02405796L7428.75606306 2299.21783218L7454.31715541 2307.65910025L7481.2125 2309.8857L7501.36697692 2309.8857L7521.52141753 2309.8857L7541.67570287 2309.8857L7561.83103736 2309.8857L7581.9854 2309.8857L7608.76657873 2307.64229917L7634.18886806 2299.13949639L7654.55009381 2281.88072568L7665.73397553 2257.59692032L7668.7437 2230.9222L7668.7437 2181.86157091L7668.7437 2132.80103024L7668.7437 2083.74086751L7668.7437 2034.6801411L7668.7437 1985.6178"
           style="font-size:657.22888183999998546px;font-style:normal;font-variant:normal;font-weight:500;font-stretch:normal;line-height:125%;letter-spacing:0px;word-spacing:0px;fill:#000000;fill-opacity:1;stroke:none;font-family:Digital Sans EF;-inkscape-font-specification:Digital Sans EF Medium"
           id="path3115"
           inkscape:connector-curvature="0" /><path
           d="M7964.7278 1985.6178L7938.70047311 1985.6178L7912.67319313 1985.6178L7886.64611365 1985.6178L7860.6176793 1985.6178L7834.5905 1985.6178L7805.58800332 1988.09349981L7778.11437859 1997.47159519L7756.26171299 2016.39566731L7744.35554298 2042.79925066L7741.1586 2071.7009L7741.1586 2103.02719979L7741.1586 2134.35344312L7741.1586 2165.67944513L7741.1586 2197.00707785L7741.1586 2228.3332L7743.53432469 2254.20260834L7752.50834347 2278.50005838L7770.18389321 2297.29649598L7794.07628546 2307.2355765L7819.9084 2309.8857L7848.60519324 2309.8857L7877.30193476 2309.8857L7905.99845521 2309.8857L7934.69646949 2309.8857L7963.3931 2309.8857L7963.3931 2298.88263627L7963.3931 2287.87871089L7963.3931 2276.87596026L7963.3931 2265.87362188L7963.3931 2254.8701L7939.50134219 2254.8701L7915.60962744 2254.8701L7891.71809673 2254.8701L7867.82532233 2254.8701L7843.9337 2254.8701L7836.48296538 2254.65486053L7829.06747029 2253.91233644L7821.76513351 2252.43475392L7814.76890664 2249.89014902L7808.5631 2245.8088L7804.15041625 2240.291294L7801.30169873 2233.81129272L7799.6321892 2226.92418317L7798.79435278 2219.88621255L7798.5524 2212.7994L7798.5524 2187.16879108L7798.5524 2161.53822836L7798.5524 2135.90786308L7798.5524 2110.27616358L7798.5524 2084.6457L7800.23504447 2069.93409587L7806.47875293 2056.57344098L7817.78008074 2047.13474995L7831.82573157 2042.50239305L7846.6031 2041.2806L7870.22791918 2041.2806L7893.85269578 2041.2806L7917.47729038 2041.2806L7941.10311479 2041.2806L7964.7278 2041.2806L7964.7278 2030.14809693L7964.7278 2019.01472207L7964.7278 2007.88253579L7964.7278 1996.75076661L7964.7278 1985.6178"
           style="font-size:657.22888183999998546px;font-style:normal;font-variant:normal;font-weight:500;font-stretch:normal;line-height:125%;letter-spacing:0px;word-spacing:0px;fill:#000000;fill-opacity:1;stroke:none;font-family:Digital Sans EF;-inkscape-font-specification:Digital Sans EF Medium"
           id="path3117"
           inkscape:connector-curvature="0" /><path
           id="path3119"
           transform="matrix(73.140777,0,0,-73.140777,15.246889,4869.7952)"
           d="M110.71875 35.0L110.33408221 35.0313805896L109.968248871 35.1509143703L109.673740434 35.3961122576L109.512302123 35.7423009034L109.46875 36.125L109.46875 36.5436693872L109.46875 36.9615143667L109.46875 37.3801161997L109.46875 37.7984647539L109.46875 38.21875L109.479669928 38.4342180776L109.516250874 38.6452126648L109.585411237 38.8474703152L109.694629597 39.0332447218L109.84375 39.1875L110.010551117 39.2940499852L110.19492598 39.3651131686L110.387494669 39.4084121218L110.58378269 39.430873219L110.78125 39.4375L111.274904949 39.4375L111.768853566 39.4375L112.262129935 39.4375L112.756258307 39.4375L113.25 39.4375L113.25 39.2875288762L113.25 39.137083938L113.25 38.987318755L113.25 38.8377244556L113.25 38.6875L112.787589035 38.6875L112.324902989 38.6875L111.862846644 38.6875L111.399992219 38.6875L110.9375 38.6875L110.839652489 38.6838592538L110.740934806 38.6716601052L110.645012201 38.6492137779L110.552637816 38.6137468375L110.46875 38.5625L110.385737937 38.4844617565L110.322543164 38.3905795639L110.279959672 38.2851031464L110.25699056 38.1751344084L110.25 38.0625L110.25 38.0383987427L110.25 38.0135450834L110.25 37.9885296184L110.25 37.9625974796L110.25 37.9375L110.856133292 37.7000457207L111.462627163 37.4624501834L112.068295616 37.2251780061L112.675010199 36.9874960044L113.28125 36.75L113.28125 36.6375216572L113.28125 36.5258414201L113.28125 36.4123257648L113.28125 36.300147123L113.28125 36.1875L113.243141839 35.8052108845L113.101683228 35.4496694691L112.832526983 35.1801892618L112.476864775 35.0383080124L112.09375 35.0L111.931281283 35.0L111.768299266 35.0L111.606053651 35.0L111.44399316 35.0L111.28125 35.0L111.28125 35.1499711238L111.28125 35.300416062L111.28125 35.450181245L111.28125 35.5997755444L111.28125 35.75L111.393728343 35.75L111.50540858 35.75L111.618924235 35.75L111.731102877 35.75L111.84375 35.75L112.025866418 35.7628599648L112.201745935 35.811268771L112.352015279 35.9134665994L112.443015777 36.0697462116L112.46875 36.25L112.46875 36.2620506287L112.46875 36.275511287L112.46875 36.2885815865L112.46875 36.2998157215L112.46875 36.3125L112.025085425 36.4874663111L111.581156922 36.662536707L111.13783259 36.8373688376L110.693742535 37.0125029441L110.25 37.1875L110.25 37.0125336889L110.25 36.8370145943L110.25 36.6622885475L110.25 36.4877618648L110.25 36.3125L110.279518023 36.1062012246L110.385576098 35.9284794041L110.558421473 35.8160762555L110.759892011 35.7637672177L110.96875 35.75L111.01934123 35.75L111.068949108 35.75L111.118449009 35.75L111.169513584 35.75L111.21875 35.75L111.21875 35.6000288762L111.21875 35.449583938L111.21875 35.299818755L111.21875 35.1502244556L111.21875 35.0L111.118769251 35.0L111.019497929 35.0L110.920230284 35.0L110.819787461 35.0L110.71875 35.0L110.71875 35.0L110.71875 35.0L110.71875 35.0L110.71875 35.0L110.71875 35.0"
           style="font-size:657.22888183999998546px;font-style:normal;font-variant:normal;font-weight:500;font-stretch:normal;line-height:125%;letter-spacing:0px;word-spacing:0px;fill:#000000;fill-opacity:1;stroke:none;font-family:Digital Sans EF;-inkscape-font-specification:Digital Sans EF Medium" /><path
           style="fill:#000000"
           d="M 48.875 17.625 L 48.625 17.84375 L 48.6875 18.21875 L 48.8125 18.5625 L 48.96875 18.90625 L 49.125 19.25 L 49.9375 20.5625 L 50.875 21.75 L 52 22.8125 L 53.21875 23.71875 L 54.5625 24.46875 L 55.875 25.0625 L 57.25 25.5625 L 58.65625 25.96875 L 60.125 26.1875 L 61.5625 26.25 L 63.53125 26.1875 L 65.5 26.0625 L 67.46875 25.9375 L 69.40625 25.78125 L 71.375 25.59375 L 74.4375 25.4375 L 77.5 25.375 L 80.5625 25.375 L 83.625 25.4375 L 86.6875 25.625 L 90 26.09375 L 93.28125 26.71875 L 96.53125 27.40625 L 99.78125 28.1875 L 103.03125 29.0625 L 105.5 29.84375 L 108 30.6875 L 110.4375 31.625 L 112.84375 32.65625 L 115.15625 33.875 L 115.625 34.21875 L 116.09375 34.59375 L 116.5 35 L 116.90625 35.46875 L 117.15625 35.96875 L 117.15625 37.09375 L 117.03125 38.1875 L 116.875 39.28125 L 116.65625 40.34375 L 116.375 41.4375 L 116.25 41.78125 L 116.125 42.125 L 115.96875 42.46875 L 115.78125 42.75 L 115.46875 42.96875 L 115.21875 43.03125 L 115 43.125 L 114.78125 43.1875 L 114.53125 43.25 L 114.28125 43.28125 L 114.125 43.3125 L 113.9375 43.375 L 113.75 43.4375 L 113.625 43.5625 L 113.625 43.75 L 113.625 43.90625 L 113.6875 44.03125 L 113.8125 44.09375 L 113.9375 44.15625 L 114.09375 44.1875 L 114.34375 44.21875 L 114.59375 44.21875 L 114.84375 44.25 L 115.09375 44.28125 L 115.34375 44.28125 L 115.8125 44.25 L 116.25 44.125 L 116.65625 43.9375 L 117 43.625 L 117.28125 43.21875 L 117.6875 42.25 L 117.96875 41.21875 L 118.21875 40.1875 L 118.40625 39.15625 L 118.53125 38.09375 L 118.59375 37.5625 L 118.65625 37.03125 L 118.6875 36.5 L 118.6875 35.9375 L 118.53125 35.4375 L 118.21875 34.75 L 117.78125 34.15625 L 117.28125 33.625 L 116.75 33.125 L 116.15625 32.65625 L 114.65625 31.75 L 113.09375 30.9375 L 111.53125 30.15625 L 109.9375 29.4375 L 108.3125 28.78125 L 105.625 27.875 L 102.90625 27.03125 L 100.1875 26.28125 L 97.4375 25.59375 L 94.6875 25.03125 L 94.0625 24.90625 L 93.46875 24.8125 L 92.875 24.6875 L 92.28125 24.5625 L 91.65625 24.46875 L 89.5625 24.09375 L 87.46875 23.875 L 85.34375 23.71875 L 83.25 23.59375 L 81.125 23.5625 L 78.8125 23.53125 L 76.5 23.5625 L 74.1875 23.6875 L 71.875 23.84375 L 69.59375 24.03125 L 67.4375 24.15625 L 65.25 24.25 L 63.09375 24.25 L 60.90625 24.21875 L 58.75 24 L 57.25 23.59375 L 55.78125 22.96875 L 54.40625 22.1875 L 53.125 21.28125 L 51.9375 20.25 L 51.375 19.6875 L 50.78125 19.125 L 50.1875 18.5625 L 49.5625 18.03125 L 48.875 17.625 z "
           id="path3597"
           transform="matrix(73.140777,0,0,-73.140777,15.246889,4869.7952)" /><path
           style="fill:#000000"
           d="M 55.71875 13.375 L 54.96875 13.40625 L 54.1875 13.4375 L 53.40625 13.46875 L 52.625 13.53125 L 49.96875 13.90625 L 47.34375 14.4375 L 44.71875 15.0625 L 42.09375 15.71875 L 39.5 16.46875 L 36.8125 17.25 L 34.09375 18.0625 L 31.375 18.78125 L 28.625 19.40625 L 25.84375 19.90625 L 24.1875 20.15625 L 22.53125 20.40625 L 20.84375 20.625 L 19.15625 20.75 L 17.46875 20.78125 L 17.03125 20.78125 L 16.59375 20.78125 L 16.15625 20.78125 L 15.71875 20.78125 L 15.28125 20.78125 L 14.9375 20.625 L 14.59375 20.4375 L 14.28125 20.28125 L 13.9375 20.125 L 13.59375 19.96875 L 12.90625 19.625 L 12.21875 19.3125 L 11.5 19 L 10.78125 18.75 L 10.03125 18.65625 L 9.6875 19.15625 L 9.65625 19.78125 L 9.75 20.40625 L 9.90625 21.03125 L 10.125 21.625 L 10.25 21.96875 L 10.375 22.34375 L 10.46875 22.75 L 10.53125 23.125 L 10.5625 23.5 L 10.5625 24.1875 L 10.46875 24.875 L 10.28125 25.53125 L 10.0625 26.15625 L 9.84375 26.8125 L 9.65625 27.46875 L 9.4375 28.125 L 9.25 28.8125 L 9.09375 29.46875 L 8.9375 30.15625 L 8.875 31.96875 L 8.96875 33.8125 L 9.1875 35.59375 L 9.4375 37.40625 L 9.78125 39.1875 L 10 40.28125 L 10.25 41.3125 L 10.5625 42.375 L 11.03125 43.34375 L 11.84375 44.0625 L 12.71875 44.25 L 13.59375 44.28125 L 14.5 44.28125 L 15.375 44.1875 L 16.21875 43.9375 L 16.3125 43.71875 L 16.21875 43.53125 L 16.0625 43.375 L 15.875 43.28125 L 15.65625 43.21875 L 15.375 43.15625 L 15.09375 43.09375 L 14.8125 43.0625 L 14.53125 43.03125 L 14.21875 43 L 13.96875 42.96875 L 13.71875 42.9375 L 13.46875 42.875 L 13.21875 42.84375 L 12.96875 42.75 L 12.71875 42.53125 L 12.5 42.25 L 12.34375 41.9375 L 12.1875 41.625 L 12.09375 41.28125 L 12.03125 41 L 11.9375 40.71875 L 11.875 40.46875 L 11.78125 40.1875 L 11.6875 39.90625 L 11.28125 38.5 L 11.03125 37.09375 L 10.84375 35.65625 L 10.75 34.21875 L 10.71875 32.75 L 10.71875 32.25 L 10.71875 31.71875 L 10.71875 31.21875 L 10.71875 30.6875 L 10.71875 30.1875 L 10.875 29.75 L 11.03125 29.28125 L 11.1875 28.84375 L 11.34375 28.375 L 11.5 27.9375 L 11.71875 27.28125 L 11.9375 26.59375 L 12.125 25.90625 L 12.21875 25.21875 L 12.25 24.5 L 12.25 23.90625 L 12.1875 23.34375 L 12.03125 22.78125 L 11.84375 22.25 L 11.625 21.71875 L 11.59375 21.625 L 11.59375 21.53125 L 11.65625 21.46875 L 11.71875 21.375 L 11.78125 21.34375 L 12.03125 21.28125 L 12.28125 21.34375 L 12.53125 21.4375 L 12.78125 21.5625 L 13 21.65625 L 14 22.125 L 15.03125 22.4375 L 16.125 22.5625 L 17.21875 22.59375 L 18.3125 22.625 L 20.40625 22.5625 L 22.5 22.40625 L 24.5625 22.21875 L 26.65625 21.96875 L 28.71875 21.65625 L 31.25 21.15625 L 33.75 20.53125 L 36.25 19.84375 L 38.71875 19.15625 L 41.21875 18.4375 L 43.3125 17.875 L 45.4375 17.34375 L 47.5625 16.875 L 49.71875 16.5 L 51.875 16.1875 L 53 16.0625 L 54.125 16 L 55.25 15.96875 L 56.375 15.9375 L 57.5 15.9375 L 58.28125 15.9375 L 59.0625 15.9375 L 59.8125 15.9375 L 60.59375 15.9375 L 61.375 15.9375 L 61.71875 16.03125 L 62.03125 16.125 L 62.375 16.21875 L 62.6875 16.3125 L 63.03125 16.375 L 63.9375 16.625 L 64.84375 16.90625 L 65.71875 17.21875 L 66.59375 17.53125 L 67.46875 17.90625 L 68.03125 18.15625 L 68.59375 18.40625 L 69.15625 18.65625 L 69.75 18.90625 L 70.3125 19.125 L 71.21875 19.5 L 72.125 19.90625 L 73.03125 20.3125 L 73.90625 20.71875 L 74.8125 21.15625 L 75.625 21.5625 L 76.4375 21.96875 L 77.28125 22.3125 L 78.125 22.59375 L 78.65625 22.59375 L 78.8125 22.28125 L 78.75 22.0625 L 78.375 21.6875 L 77.71875 21.25 L 77.0625 20.8125 L 76.40625 20.375 L 75.75 19.96875 L 74.3125 19.03125 L 72.84375 18.15625 L 71.3125 17.375 L 69.71875 16.65625 L 68.15625 16 L 65.90625 15.09375 L 63.625 14.34375 L 61.3125 13.78125 L 58.90625 13.46875 L 56.5 13.375 L 55.71875 13.375 z "
           id="path2987"
           transform="matrix(73.140777,0,0,-73.140777,15.246889,4869.7952)" /></g></g></g></svg>