  0
SECTION
  2
HEADER
  9
$ACADVER
  1
AC1014
  9
$HANDSEED
  5
FFFF
  9
$MEASUREMENT
 70
     1
  0
ENDSEC
  0
SECTION
  2
TABLES
  0
TABLE
  2
VPORT
  5
8
330
0
100
AcDbSymbolTable
 70
     4
  0
VPORT
  5
2E
330
8
100
AcDbSymbolTableRecord
100
AcDbViewportTableRecord
  2
*ACTIVE
 70
     0
 10
0.0
 20
0.0
 11
1.0
 21
1.0
 12
210.0
 22
148.5
 13
0.0
 23
0.0
 14
10.0
 24
10.0
 15
10.0
 25
10.0
 16
0.0
 26
0.0
 36
1.0
 17
0.0
 27
0.0
 37
0.0
 40
341.0
 41
1.24
 42
50.0
 43
0.0
 44
0.0
 50
0.0
 51
0.0
 71
     0
 72
   100
 73
     1
 74
     3
 75
     0
 76
     0
 77
     0
 78
     0
  0
ENDTAB
  0
TABLE
  2
LTYPE
  5
5
330
0
100
AcDbSymbolTable
 70
     1
  0
LTYPE
  5
14
330
5
100
AcDbSymbolTableRecord
100
AcDbLinetypeTableRecord
  2
BYBLOCK
 70
     0
  3

 72
    65
 73
     0
 40
0.0
  0
LTYPE
  5
15
330
5
100
AcDbSymbolTableRecord
100
AcDbLinetypeTableRecord
  2
BYLAYER
 70
     0
  3

 72
    65
 73
     0
 40
0.0
  0
LTYPE
  5
16
330
5
100
AcDbSymbolTableRecord
100
AcDbLinetypeTableRecord
  2
CONTINUOUS
 70
     0
  3
Solid line
 72
    65
 73
     0
 40
0.0
  0
ENDTAB
  0
TABLE
  2
LAYER
  5
2
100
AcDbSymbolTable
 70
1
  0
LAYER
  5
50
100
AcDbSymbolTableRecord
100
AcDbLayerTableRecord
  2
0
 70
0
  6
CONTINUOUS
  0
ENDTAB
  0
TABLE
  2
STYLE
  5
3
330
0
100
AcDbSymbolTable
 70
     1
  0
STYLE
  5
11
330
3
100
AcDbSymbolTableRecord
100
AcDbTextStyleTableRecord
  2
STANDARD
 70
     0
 40
0.0
 41
1.0
 50
0.0
 71
     0
 42
2.5
  3
txt
  4

  0
ENDTAB
  0
TABLE
  2
VIEW
  5
6
330
0
100
AcDbSymbolTable
 70
     0
  0
ENDTAB
  0
TABLE
  2
UCS
  5
7
330
0
100
AcDbSymbolTable
 70
     0
  0
ENDTAB
  0
TABLE
  2
APPID
  5
9
330
0
100
AcDbSymbolTable
 70
     2
  0
APPID
  5
12
330
9
100
AcDbSymbolTableRecord
100
AcDbRegAppTableRecord
  2
ACAD
 70
     0
  0
ENDTAB
  0
TABLE
  2
DIMSTYLE
  5
A
330
0
100
AcDbSymbolTable
 70
     1
  0
DIMSTYLE
105
27
330
A
100
AcDbSymbolTableRecord
100
AcDbDimStyleTableRecord
  2
ISO-25
 70
     0
  3

  4

  5

  6

  7

 40
1.0
 41
2.5
 42
0.625
 43
3.75
 44
1.25
 45
0.0
 46
0.0
 47
0.0
 48
0.0
140
2.5
141
2.5
142
0.0
143
0.03937007874016
144
1.0
145
0.0
146
1.0
147
0.625
 71
     0
 72
     0
 73
     0
 74
     0
 75
     0
 76
     0
 77
     1
 78
     8
170
     0
171
     3
172
     1
173
     0
174
     0
175
     0
176
     0
177
     0
178
     0
270
     2
271
     2
272
     2
273
     2
274
     3
340
11
275
     0
280
     0
281
     0
282
     0
283
     0
284
     8
285
     0
286
     0
287
     3
288
     0
  0
ENDTAB
  0
TABLE
  2
BLOCK_RECORD
  5
1
330
0
100
AcDbSymbolTable
 70
     1
  0
BLOCK_RECORD
  5
1F
330
1
100
AcDbSymbolTableRecord
100
AcDbBlockTableRecord
  2
*MODEL_SPACE
  0
BLOCK_RECORD
  5
1B
330
1
100
AcDbSymbolTableRecord
100
AcDbBlockTableRecord
  2
*PAPER_SPACE
  0
ENDTAB
  0
ENDSEC
  0
SECTION
  2
BLOCKS
  0
BLOCK
  5
20
330
1F
100
AcDbEntity
  8
0
100
AcDbBlockBegin
  2
*MODEL_SPACE
 70
     0
 10
0.0
 20
0.0
 30
0.0
  3
*MODEL_SPACE
  1

  0
ENDBLK
  5
21
330
1F
100
AcDbEntity
  8
0
100
AcDbBlockEnd
  0
BLOCK
  5
1C
330
1B
100
AcDbEntity
 67
     1
  8
0
100
AcDbBlockBegin
  2
*PAPER_SPACE
  1

  0
ENDBLK
  5
1D
330
1B
100
AcDbEntity
 67
     1
  8
0
100
AcDbBlockEnd
  0
ENDSEC
  0
SECTION
  2
ENTITIES
  0
LWPOLYLINE
  5
100
100
AcDbEntity
  8
0
 62
7
100
AcDbPolyline
 90
208
 70
0
 10
3.343682
 20
2.563765
 30
0.0
 10
3.117611
 20
2.766519
 30
0.0
 10
2.985363
 20
3.043257
 30
0.0
 10
2.895635
 20
3.337214
 30
0.0
 10
2.823493
 20
3.636051
 30
0.0
 10
2.759789
 20
3.936815
 30
0.0
 10
2.665782
 20
4.442262
 30
0.0
 10
2.588689
 20
4.950559
 30
0.0
 10
2.531393
 20
5.461452
 30
0.0
 10
2.501321
 20
5.974614
 30
0.0
 10
2.522887
 20
6.487769
 30
0.0
 10
2.562098
 20
6.679945
 30
0.0
 10
2.610870
 20
6.869979
 30
0.0
 10
2.664210
 20
7.058781
 30
0.0
 10
2.721156
 20
7.246532
 30
0.0
 10
2.781764
 20
7.433130
 30
0.0
 10
2.842762
 20
7.615224
 30
0.0
 10
2.901934
 20
7.797917
 30
0.0
 10
2.954439
 20
7.982611
 30
0.0
 10
2.983702
 20
8.172103
 30
0.0
 10
2.978696
 20
8.363969
 30
0.0
 10
2.968081
 20
8.473858
 30
0.0
 10
2.950756
 20
8.582890
 30
0.0
 10
2.926515
 20
8.690592
 30
0.0
 10
2.895114
 20
8.796429
 30
0.0
 10
2.856277
 20
8.899761
 30
0.0
 10
2.794445
 20
9.067224
 30
0.0
 10
2.748519
 20
9.239703
 30
0.0
 10
2.723351
 20
9.416339
 30
0.0
 10
2.732882
 20
9.594087
 30
0.0
 10
2.831873
 20
9.732744
 30
0.0
 10
3.044083
 20
9.705500
 30
0.0
 10
3.248232
 20
9.634412
 30
0.0
 10
3.447886
 20
9.551392
 30
0.0
 10
3.644739
 20
9.461925
 30
0.0
 10
3.839594
 20
9.368164
 30
0.0
 10
3.934065
 20
9.321670
 30
0.0
 10
4.028536
 20
9.275176
 30
0.0
 10
4.123005
 20
9.228682
 30
0.0
 10
4.217480
 20
9.182186
 30
0.0
 10
4.311951
 20
9.135693
 30
0.0
 10
4.436300
 20
9.135762
 30
0.0
 10
4.560650
 20
9.135832
 30
0.0
 10
4.684999
 20
9.135901
 30
0.0
 10
4.809354
 20
9.135970
 30
0.0
 10
4.933703
 20
9.136040
 30
0.0
 10
5.409423
 20
9.146095
 30
0.0
 10
5.884013
 20
9.180211
 30
0.0
 10
6.356495
 20
9.236654
 30
0.0
 10
6.827048
 20
9.307536
 30
0.0
 10
7.296350
 20
9.386304
 30
0.0
 10
8.079405
 20
9.525996
 30
0.0
 10
8.856137
 20
9.696860
 30
0.0
 10
9.623596
 20
9.905810
 30
0.0
 10
10.387440
 20
10.127723
 30
0.0
 10
11.150449
 20
10.352509
 30
0.0
 10
11.881706
 20
10.559908
 30
0.0
 10
12.617372
 20
10.751072
 30
0.0
 10
13.357619
 20
10.923610
 30
0.0
 10
14.103014
 20
11.072263
 30
0.0
 10
14.854721
 20
11.184104
 30
0.0
 10
15.072733
 20
11.201187
 30
0.0
 10
15.291189
 20
11.211570
 30
0.0
 10
15.509786
 20
11.218361
 30
0.0
 10
15.728454
 20
11.222154
 30
0.0
 10
15.947156
 20
11.222705
 30
0.0
 10
16.625820
 20
11.198554
 30
0.0
 10
17.299542
 20
11.114973
 30
0.0
 10
17.959603
 20
10.956258
 30
0.0
 10
18.602597
 20
10.737880
 30
0.0
 10
19.233206
 20
10.485663
 30
0.0
 10
19.679889
 20
10.295860
 30
0.0
 10
20.122341
 20
10.096440
 30
0.0
 10
20.554479
 20
9.875683
 30
0.0
 10
20.972260
 20
9.628789
 30
0.0
 10
21.380836
 20
9.366845
 30
0.0
 10
21.565693
 20
9.245982
 30
0.0
 10
21.750304
 20
9.124745
 30
0.0
 10
21.934126
 20
9.002321
 30
0.0
 10
22.114907
 20
8.875482
 30
0.0
 10
22.225207
 20
8.775175
 30
0.0
 10
22.243972
 20
8.707865
 30
0.0
 10
22.199525
 20
8.620214
 30
0.0
 10
22.050092
 20
8.620840
 30
0.0
 10
21.807339
 20
8.701917
 30
0.0
 10
21.572372
 20
8.803969
 30
0.0
 10
21.340813
 20
8.913589
 30
0.0
 10
21.111089
 20
9.026993
 30
0.0
 10
20.861100
 20
9.148510
 30
0.0
 10
20.609254
 20
9.266140
 30
0.0
 10
20.356107
 20
9.380953
 30
0.0
 10
20.101708
 20
9.492962
 30
0.0
 10
19.845677
 20
9.601167
 30
0.0
 10
19.683584
 20
9.668060
 30
0.0
 10
19.521807
 20
9.735710
 30
0.0
 10
19.360381
 20
9.804188
 30
0.0
 10
19.199451
 20
9.873825
 30
0.0
 10
19.039972
 20
9.946690
 30
0.0
 10
18.797066
 20
10.052771
 30
0.0
 10
18.548125
 20
10.144022
 30
0.0
 10
18.296364
 20
10.227204
 30
0.0
 10
18.042642
 20
10.304207
 30
0.0
 10
17.787270
 20
10.375561
 30
0.0
 10
17.694664
 20
10.400331
 30
0.0
 10
17.602058
 20
10.425100
 30
0.0
 10
17.509452
 20
10.449869
 30
0.0
 10
17.416842
 20
10.474639
 30
0.0
 10
17.324236
 20
10.499408
 30
0.0
 10
17.104296
 20
10.499609
 30
0.0
 10
16.884356
 20
10.499810
 30
0.0
 10
16.664412
 20
10.500010
 30
0.0
 10
16.444474
 20
10.500211
 30
0.0
 10
16.224530
 20
10.500412
 30
0.0
 10
15.907601
 20
10.499756
 30
0.0
 10
15.590689
 20
10.496255
 30
0.0
 10
15.273883
 20
10.487501
 30
0.0
 10
14.957516
 20
10.468990
 30
0.0
 10
14.642498
 20
10.434652
 30
0.0
 10
14.033255
 20
10.343273
 30
0.0
 10
13.426967
 20
10.234040
 30
0.0
 10
12.824862
 20
10.103728
 30
0.0
 10
12.227110
 20
9.954677
 30
0.0
 10
11.632777
 20
9.792483
 30
0.0
 10
10.930610
 20
9.595379
 30
0.0
 10
10.227977
 20
9.399955
 30
0.0
 10
9.524210
 20
9.208644
 30
0.0
 10
8.817324
 20
9.029326
 30
0.0
 10
8.102142
 20
8.887411
 30
0.0
 10
7.518873
 20
8.801940
 30
0.0
 10
6.933741
 20
8.730304
 30
0.0
 10
6.346987
 20
8.673513
 30
0.0
 10
5.758822
 20
8.634116
 30
0.0
 10
5.169594
 20
8.617721
 30
0.0
 10
4.860840
 20
8.619528
 30
0.0
 10
4.552358
 20
8.631913
 30
0.0
 10
4.246271
 20
8.670874
 30
0.0
 10
3.950400
 20
8.757753
 30
0.0
 10
3.669101
 20
8.884791
 30
0.0
 10
3.603658
 20
8.916708
 30
0.0
 10
3.537430
 20
8.946955
 30
0.0
 10
3.469667
 20
8.973550
 30
0.0
 10
3.398953
 20
8.990186
 30
0.0
 10
3.328480
 20
8.976922
 30
0.0
 10
3.306632
 20
8.963158
 30
0.0
 10
3.287962
 20
8.945374
 30
0.0
 10
3.275893
 20
8.922703
 30
0.0
 10
3.273928
 20
8.897106
 30
0.0
 10
3.280813
 20
8.872278
 30
0.0
 10
3.342637
 20
8.721893
 30
0.0
 10
3.398206
 20
8.569116
 30
0.0
 10
3.437611
 20
8.411501
 30
0.0
 10
3.453833
 20
8.249820
 30
0.0
 10
3.456127
 20
8.087249
 30
0.0
 10
3.449140
 20
7.886987
 30
0.0
 10
3.417942
 20
7.689165
 30
0.0
 10
3.365422
 20
7.495766
 30
0.0
 10
3.304681
 20
7.304756
 30
0.0
 10
3.241290
 20
7.114606
 30
0.0
 10
3.198645
 20
6.987941
 30
0.0
 10
3.155999
 20
6.861276
 30
0.0
 10
3.113354
 20
6.734612
 30
0.0
 10
3.070707
 20
6.607941
 30
0.0
 10
3.028061
 20
6.481277
 30
0.0
 10
3.028092
 20
6.335777
 30
0.0
 10
3.028123
 20
6.190276
 30
0.0
 10
3.028154
 20
6.044777
 30
0.0
 10
3.028185
 20
5.899271
 30
0.0
 10
3.028216
 20
5.753771
 30
0.0
 10
3.035514
 20
5.345230
 30
0.0
 10
3.060633
 20
4.937411
 30
0.0
 10
3.109393
 20
4.531774
 30
0.0
 10
3.187610
 20
4.130804
 30
0.0
 10
3.298863
 20
3.737734
 30
0.0
 10
3.324000
 20
3.660485
 30
0.0
 10
3.348536
 20
3.583047
 30
0.0
 10
3.372364
 20
3.505384
 30
0.0
 10
3.395128
 20
3.427407
 30
0.0
 10
3.413923
 20
3.348464
 30
0.0
 10
3.438500
 20
3.253402
 30
0.0
 10
3.480538
 20
3.164163
 30
0.0
 10
3.530455
 20
3.079056
 30
0.0
 10
3.587902
 20
2.998871
 30
0.0
 10
3.659998
 20
2.932498
 30
0.0
 10
3.729202
 20
2.911369
 30
0.0
 10
3.800093
 20
2.896439
 30
0.0
 10
3.871500
 20
2.884207
 30
0.0
 10
3.943229
 20
2.874021
 30
0.0
 10
4.015217
 20
2.865817
 30
0.0
 10
4.097232
 20
2.856789
 30
0.0
 10
4.179067
 20
2.846236
 30
0.0
 10
4.260708
 20
2.834268
 30
0.0
 10
4.342080
 20
2.820603
 30
0.0
 10
4.422843
 20
2.803758
 30
0.0
 10
4.480644
 20
2.784413
 30
0.0
 10
4.534137
 20
2.755283
 30
0.0
 10
4.578599
 20
2.713872
 30
0.0
 10
4.599953
 20
2.657828
 30
0.0
 10
4.575877
 20
2.603565
 30
0.0
 10
4.338728
 20
2.530571
 30
0.0
 10
4.089179
 20
2.506189
 30
0.0
 10
3.838473
 20
2.500136
 30
0.0
 10
3.588015
 20
2.512133
 30
0.0
 10
3.343682
 20
2.563765
 30
0.0
 10
3.343682
 20
2.563765
 30
0.0
 10
3.343682
 20
2.563765
 30
0.0
 10
3.343682
 20
2.563765
 30
0.0
 10
3.343682
 20
2.563765
 30
0.0
 10
3.343682
 20
2.563765
 30
0.0
  0
LWPOLYLINE
  5
101
100
AcDbEntity
  8
0
 62
7
100
AcDbPolyline
 90
136
 70
0
 10
32.199203
 20
2.532891
 30
0.0
 10
32.158723
 20
2.541050
 30
0.0
 10
32.119253
 20
2.553051
 30
0.0
 10
32.084837
 20
2.575259
 30
0.0
 10
32.067404
 20
2.612111
 30
0.0
 10
32.064152
 20
2.653217
 30
0.0
 10
32.070094
 20
2.705311
 30
0.0
 10
32.104194
 20
2.743593
 30
0.0
 10
32.153696
 20
2.761179
 30
0.0
 10
32.205190
 20
2.772148
 30
0.0
 10
32.257083
 20
2.781074
 30
0.0
 10
32.324287
 20
2.794188
 30
0.0
 10
32.390781
 20
2.810530
 30
0.0
 10
32.456571
 20
2.829517
 30
0.0
 10
32.521464
 20
2.851354
 30
0.0
 10
32.584707
 20
2.877540
 30
0.0
 10
32.672129
 20
2.933179
 30
0.0
 10
32.732127
 20
3.017533
 30
0.0
 10
32.773545
 20
3.112932
 30
0.0
 10
32.809087
 20
3.210714
 30
0.0
 10
32.842696
 20
3.309181
 30
0.0
 10
32.923060
 20
3.610278
 30
0.0
 10
32.982989
 20
3.916211
 30
0.0
 10
33.030050
 20
4.224387
 30
0.0
 10
33.063224
 20
4.534350
 30
0.0
 10
33.063046
 20
4.845421
 30
0.0
 10
32.990145
 20
4.994116
 30
0.0
 10
32.882469
 20
5.121266
 30
0.0
 10
32.761263
 20
5.235737
 30
0.0
 10
32.632239
 20
5.341361
 30
0.0
 10
32.497794
 20
5.440011
 30
0.0
 10
31.846719
 20
5.786355
 30
0.0
 10
31.166879
 20
6.074131
 30
0.0
 10
30.476250
 20
6.335063
 30
0.0
 10
29.778219
 20
6.575533
 30
0.0
 10
29.073724
 20
6.796335
 30
0.0
 10
28.163242
 20
7.043043
 30
0.0
 10
27.245425
 20
7.261067
 30
0.0
 10
26.322920
 20
7.458349
 30
0.0
 10
25.395957
 20
7.633466
 30
0.0
 10
24.462677
 20
7.769999
 30
0.0
 10
23.599342
 20
7.822060
 30
0.0
 10
22.734506
 20
7.840545
 30
0.0
 10
21.869465
 20
7.840421
 30
0.0
 10
21.004619
 20
7.822063
 30
0.0
 10
20.141026
 20
7.773584
 30
0.0
 10
19.589080
 20
7.726166
 30
0.0
 10
19.036771
 20
7.683202
 30
0.0
 10
18.484131
 20
7.644720
 30
0.0
 10
17.931114
 20
7.612050
 30
0.0
 10
17.377523
 20
7.592581
 30
0.0
 10
16.964990
 20
7.610806
 30
0.0
 10
16.556878
 20
7.673231
 30
0.0
 10
16.158444
 20
7.781553
 30
0.0
 10
15.771709
 20
7.926449
 30
0.0
 10
15.394928
 20
8.095717
 30
0.0
 10
15.019231
 20
8.307714
 30
0.0
 10
14.673716
 20
8.566074
 30
0.0
 10
14.362361
 20
8.864728
 30
0.0
 10
14.090745
 20
9.199886
 30
0.0
 10
13.867489
 20
9.568930
 30
0.0
 10
13.820246
 20
9.664630
 30
0.0
 10
13.775988
 20
9.761740
 30
0.0
 10
13.738003
 20
9.861435
 30
0.0
 10
13.720595
 20
9.966051
 30
0.0
 10
13.796467
 20
10.023174
 30
0.0
 10
13.990471
 20
9.907573
 30
0.0
 10
14.162723
 20
9.756931
 30
0.0
 10
14.330549
 20
9.601349
 30
0.0
 10
14.496607
 20
9.443883
 30
0.0
 10
14.661791
 20
9.285492
 30
0.0
 10
14.996459
 20
8.992473
 30
0.0
 10
15.358293
 20
8.733794
 30
0.0
 10
15.745471
 20
8.514920
 30
0.0
 10
16.155246
 20
8.342140
 30
0.0
 10
16.583491
 20
8.222435
 30
0.0
 10
17.192537
 20
8.165393
 30
0.0
 10
17.804584
 20
8.151839
 30
0.0
 10
18.416776
 20
8.157406
 30
0.0
 10
19.028609
 20
8.179184
 30
0.0
 10
19.639406
 20
8.220509
 30
0.0
 10
20.288606
 20
8.274440
 30
0.0
 10
20.938595
 20
8.317747
 30
0.0
 10
21.589405
 20
8.346040
 30
0.0
 10
22.240737
 20
8.356981
 30
0.0
 10
22.892154
 20
8.352369
 30
0.0
 10
23.490730
 20
8.337374
 30
0.0
 10
24.088870
 20
8.310179
 30
0.0
 10
24.685998
 20
8.266206
 30
0.0
 10
25.280906
 20
8.198765
 30
0.0
 10
25.871072
 20
8.098270
 30
0.0
 10
26.040389
 20
8.063969
 30
0.0
 10
26.209922
 20
8.030728
 30
0.0
 10
26.379646
 20
7.998492
 30
0.0
 10
26.549597
 20
7.967482
 30
0.0
 10
26.719968
 20
7.938854
 30
0.0
 10
27.501766
 20
7.777831
 30
0.0
 10
28.275810
 20
7.582227
 30
0.0
 10
29.045037
 20
7.368430
 30
0.0
 10
29.809219
 20
7.137260
 30
0.0
 10
30.564532
 20
6.878795
 30
0.0
 10
31.023142
 20
6.690723
 30
0.0
 10
31.474785
 20
6.486431
 30
0.0
 10
31.920771
 20
6.270047
 30
0.0
 10
32.359953
 20
6.040199
 30
0.0
 10
32.782645
 20
5.781886
 30
0.0
 10
32.945273
 20
5.651536
 30
0.0
 10
33.099046
 20
5.510869
 30
0.0
 10
33.240655
 20
5.358013
 30
0.0
 10
33.363823
 20
5.190054
 30
0.0
 10
33.454592
 20
5.002943
 30
0.0
 10
33.493158
 20
4.855168
 30
0.0
 10
33.498969
 20
4.702570
 30
0.0
 10
33.488039
 20
4.550048
 30
0.0
 10
33.472475
 20
4.397912
 30
0.0
 10
33.455533
 20
4.245922
 30
0.0
 10
33.414863
 20
3.949318
 30
0.0
 10
33.361450
 20
3.654736
 30
0.0
 10
33.295259
 20
3.362770
 30
0.0
 10
33.212886
 20
3.074978
 30
0.0
 10
33.098298
 20
2.798899
 30
0.0
 10
33.022180
 20
2.691917
 30
0.0
 10
32.924976
 20
2.603821
 30
0.0
 10
32.808915
 20
2.542763
 30
0.0
 10
32.681583
 20
2.510997
 30
0.0
 10
32.550421
 20
2.503951
 30
0.0
 10
32.479942
 20
2.506548
 30
0.0
 10
32.409535
 20
2.510676
 30
0.0
 10
32.339224
 20
2.516153
 30
0.0
 10
32.269051
 20
2.523185
 30
0.0
 10
32.199205
 20
2.532890
 30
0.0
 10
32.199203
 20
2.532891
 30
0.0
 10
32.199203
 20
2.532891
 30
0.0
 10
32.199203
 20
2.532891
 30
0.0
 10
32.199203
 20
2.532891
 30
0.0
 10
32.199203
 20
2.532891
 30
0.0
  0
LWPOLYLINE
  5
102
100
AcDbEntity
  8
0
 62
7
100
AcDbPolyline
 90
81
 70
0
 10
5.158125
 20
5.329457
 30
0.0
 10
5.026245
 20
5.329457
 30
0.0
 10
4.894366
 20
5.329457
 30
0.0
 10
4.762488
 20
5.329457
 30
0.0
 10
4.630603
 20
5.329457
 30
0.0
 10
4.498724
 20
5.329457
 30
0.0
 10
4.466089
 20
5.328428
 30
0.0
 10
4.433626
 20
5.324901
 30
0.0
 10
4.401732
 20
5.317971
 30
0.0
 10
4.371279
 20
5.306302
 30
0.0
 10
4.344177
 20
5.288244
 30
0.0
 10
4.322500
 20
5.264164
 30
0.0
 10
4.306096
 20
5.236223
 30
0.0
 10
4.295198
 20
5.205694
 30
0.0
 10
4.289287
 20
5.173810
 30
0.0
 10
4.287510
 20
5.141424
 30
0.0
 10
4.287510
 20
4.979151
 30
0.0
 10
4.287510
 20
4.816877
 30
0.0
 10
4.287510
 20
4.654605
 30
0.0
 10
4.287510
 20
4.492331
 30
0.0
 10
4.287510
 20
4.330052
 30
0.0
 10
4.288699
 20
4.293321
 30
0.0
 10
4.292802
 20
4.256810
 30
0.0
 10
4.300945
 20
4.220994
 30
0.0
 10
4.314813
 20
4.187028
 30
0.0
 10
4.336449
 20
4.157474
 30
0.0
 10
4.367123
 20
4.136987
 30
0.0
 10
4.401675
 20
4.123885
 30
0.0
 10
4.437837
 20
4.116162
 30
0.0
 10
4.474624
 20
4.112249
 30
0.0
 10
4.511603
 20
4.111110
 30
0.0
 10
4.640391
 20
4.111110
 30
0.0
 10
4.769180
 20
4.111110
 30
0.0
 10
4.897967
 20
4.111110
 30
0.0
 10
5.026761
 20
4.111110
 30
0.0
 10
5.155549
 20
4.111110
 30
0.0
 10
5.155549
 20
4.061140
 30
0.0
 10
5.155549
 20
4.011166
 30
0.0
 10
5.155549
 20
3.961198
 30
0.0
 10
5.155549
 20
3.911231
 30
0.0
 10
5.155549
 20
3.861259
 30
0.0
 10
5.008215
 20
3.861259
 30
0.0
 10
4.860881
 20
3.861259
 30
0.0
 10
4.713548
 20
3.861259
 30
0.0
 10
4.566208
 20
3.861259
 30
0.0
 10
4.418875
 20
3.861259
 30
0.0
 10
4.357220
 20
3.864353
 30
0.0
 10
4.296368
 20
3.874638
 30
0.0
 10
4.237689
 20
3.893679
 30
0.0
 10
4.183269
 20
3.922680
 30
0.0
 10
4.135538
 20
3.961714
 30
0.0
 10
4.097474
 20
4.010494
 30
0.0
 10
4.069261
 20
4.065575
 30
0.0
 10
4.050726
 20
4.124643
 30
0.0
 10
4.040687
 20
4.185755
 30
0.0
 10
4.037658
 20
4.247627
 30
0.0
 10
4.037658
 20
4.437719
 30
0.0
 10
4.037658
 20
4.627810
 30
0.0
 10
4.037658
 20
4.817901
 30
0.0
 10
4.037658
 20
5.007993
 30
0.0
 10
4.037658
 20
5.198092
 30
0.0
 10
4.040541
 20
5.263864
 30
0.0
 10
4.050376
 20
5.328939
 30
0.0
 10
4.069362
 20
5.391925
 30
0.0
 10
4.099903
 20
5.450126
 30
0.0
 10
4.143266
 20
5.499458
 30
0.0
 10
4.195194
 20
5.534194
 30
0.0
 10
4.253509
 20
5.556846
 30
0.0
 10
4.314631
 20
5.570378
 30
0.0
 10
4.376879
 20
5.577288
 30
0.0
 10
4.439481
 20
5.579307
 30
0.0
 10
4.583209
 20
5.579307
 30
0.0
 10
4.726937
 20
5.579307
 30
0.0
 10
4.870663
 20
5.579307
 30
0.0
 10
5.014397
 20
5.579307
 30
0.0
 10
5.158125
 20
5.579307
 30
0.0
 10
5.158125
 20
5.529338
 30
0.0
 10
5.158125
 20
5.479364
 30
0.0
 10
5.158125
 20
5.429395
 30
0.0
 10
5.158125
 20
5.379429
 30
0.0
 10
5.158125
 20
5.329457
 30
0.0
  0
LWPOLYLINE
  5
103
100
AcDbEntity
  8
0
 62
7
100
AcDbPolyline
 90
81
 70
0
 10
5.944306
 20
4.725347
 30
0.0
 10
5.901980
 20
4.725347
 30
0.0
 10
5.859521
 20
4.725347
 30
0.0
 10
5.817254
 20
4.725347
 30
0.0
 10
5.775036
 20
4.725347
 30
0.0
 10
5.732639
 20
4.725347
 30
0.0
 10
5.680771
 20
4.722395
 30
0.0
 10
5.629320
 20
4.712691
 30
0.0
 10
5.580132
 20
4.695334
 30
0.0
 10
5.534854
 20
4.670068
 30
0.0
 10
5.494514
 20
4.637153
 30
0.0
 10
5.460852
 20
4.597400
 30
0.0
 10
5.435503
 20
4.552021
 30
0.0
 10
5.418477
 20
4.502587
 30
0.0
 10
5.409179
 20
4.451400
 30
0.0
 10
5.406319
 20
4.399028
 30
0.0
 10
5.406319
 20
4.353175
 30
0.0
 10
5.406319
 20
4.307178
 30
0.0
 10
5.406319
 20
4.261389
 30
0.0
 10
5.406319
 20
4.215652
 30
0.0
 10
5.406319
 20
4.169722
 30
0.0
 10
5.409406
 20
4.118410
 30
0.0
 10
5.419821
 20
4.067851
 30
0.0
 10
5.439005
 20
4.019939
 30
0.0
 10
5.467344
 20
3.976833
 30
0.0
 10
5.503333
 20
3.940416
 30
0.0
 10
5.544846
 20
3.910289
 30
0.0
 10
5.590929
 20
3.887330
 30
0.0
 10
5.639517
 20
3.872077
 30
0.0
 10
5.690146
 20
3.863614
 30
0.0
 10
5.741458
 20
3.861041
 30
0.0
 10
5.782020
 20
3.861041
 30
0.0
 10
5.822710
 20
3.861041
 30
0.0
 10
5.863216
 20
3.861041
 30
0.0
 10
5.903675
 20
3.861041
 30
0.0
 10
5.944306
 20
3.861041
 30
0.0
 10
5.944306
 20
3.905130
 30
0.0
 10
5.944306
 20
3.949358
 30
0.0
 10
5.944306
 20
3.993386
 30
0.0
 10
5.944306
 20
4.037364
 30
0.0
 10
5.944306
 20
4.081528
 30
0.0
 10
5.912562
 20
4.081528
 30
0.0
 10
5.881043
 20
4.081528
 30
0.0
 10
5.849006
 20
4.081528
 30
0.0
 10
5.817347
 20
4.081528
 30
0.0
 10
5.785556
 20
4.081528
 30
0.0
 10
5.760547
 20
4.083466
 30
0.0
 10
5.736338
 20
4.089143
 30
0.0
 10
5.713057
 20
4.098345
 30
0.0
 10
5.691008
 20
4.110756
 30
0.0
 10
5.670903
 20
4.125625
 30
0.0
 10
5.654504
 20
4.142825
 30
0.0
 10
5.641732
 20
4.162455
 30
0.0
 10
5.632941
 20
4.184443
 30
0.0
 10
5.628214
 20
4.207568
 30
0.0
 10
5.626806
 20
4.231458
 30
0.0
 10
5.626806
 20
4.256148
 30
0.0
 10
5.626806
 20
4.280662
 30
0.0
 10
5.626806
 20
4.305176
 30
0.0
 10
5.626806
 20
4.329980
 30
0.0
 10
5.626806
 20
4.354930
 30
0.0
 10
5.631793
 20
4.406062
 30
0.0
 10
5.650639
 20
4.453924
 30
0.0
 10
5.686982
 20
4.490110
 30
0.0
 10
5.734393
 20
4.508685
 30
0.0
 10
5.785556
 20
4.513680
 30
0.0
 10
5.817299
 20
4.513680
 30
0.0
 10
5.848818
 20
4.513680
 30
0.0
 10
5.880855
 20
4.513680
 30
0.0
 10
5.912514
 20
4.513680
 30
0.0
 10
5.944306
 20
4.513680
 30
0.0
 10
5.944306
 20
4.556005
 30
0.0
 10
5.944306
 20
4.598464
 30
0.0
 10
5.944306
 20
4.640731
 30
0.0
 10
5.944306
 20
4.682950
 30
0.0
 10
5.944306
 20
4.725347
 30
0.0
 10
5.944306
 20
4.725347
 30
0.0
 10
5.944306
 20
4.725347
 30
0.0
 10
5.944306
 20
4.725347
 30
0.0
 10
5.944306
 20
4.725347
 30
0.0
 10
5.944306
 20
4.725347
 30
0.0
  0
LWPOLYLINE
  5
104
100
AcDbEntity
  8
0
 62
7
100
AcDbPolyline
 90
121
 70
0
 10
5.944306
 20
5.148680
 30
0.0
 10
5.836729
 20
5.148680
 30
0.0
 10
5.729364
 20
5.148680
 30
0.0
 10
5.621805
 20
5.148680
 30
0.0
 10
5.514311
 20
5.148680
 30
0.0
 10
5.406319
 20
5.148680
 30
0.0
 10
5.406319
 20
5.106355
 30
0.0
 10
5.406319
 20
5.063896
 30
0.0
 10
5.406319
 20
5.021629
 30
0.0
 10
5.406319
 20
4.979410
 30
0.0
 10
5.406319
 20
4.937014
 30
0.0
 10
5.513896
 20
4.937014
 30
0.0
 10
5.621261
 20
4.937014
 30
0.0
 10
5.728820
 20
4.937014
 30
0.0
 10
5.836314
 20
4.937014
 30
0.0
 10
5.944306
 20
4.937014
 30
0.0
 10
5.944306
 20
4.979339
 30
0.0
 10
5.944306
 20
5.021798
 30
0.0
 10
5.944306
 20
5.064065
 30
0.0
 10
5.944306
 20
5.106284
 30
0.0
 10
5.944306
 20
5.148680
 30
0.0
 10
5.944306
 20
5.148680
 30
0.0
 10
5.944306
 20
5.148680
 30
0.0
 10
5.944306
 20
5.148680
 30
0.0
 10
5.944306
 20
5.148680
 30
0.0
 10
5.944306
 20
5.148680
 30
0.0
 10
5.944306
 20
5.106355
 30
0.0
 10
5.944306
 20
5.063896
 30
0.0
 10
5.944306
 20
5.021629
 30
0.0
 10
5.944306
 20
4.979410
 30
0.0
 10
5.944306
 20
4.937014
 30
0.0
 10
5.972522
 20
4.937014
 30
0.0
 10
6.000539
 20
4.937014
 30
0.0
 10
6.028554
 20
4.937014
 30
0.0
 10
6.056902
 20
4.937014
 30
0.0
 10
6.085417
 20
4.937014
 30
0.0
 10
6.117566
 20
4.935123
 30
0.0
 10
6.148873
 20
4.928936
 30
0.0
 10
6.178788
 20
4.917400
 30
0.0
 10
6.205565
 20
4.899518
 30
0.0
 10
6.226528
 20
4.875278
 30
0.0
 10
6.240711
 20
4.847359
 30
0.0
 10
6.250308
 20
4.817583
 30
0.0
 10
6.256533
 20
4.787054
 30
0.0
 10
6.260167
 20
4.756479
 30
0.0
 10
6.261806
 20
4.725347
 30
0.0
 10
6.198318
 20
4.725347
 30
0.0
 10
6.134629
 20
4.725347
 30
0.0
 10
6.071229
 20
4.725347
 30
0.0
 10
6.007901
 20
4.725347
 30
0.0
 10
5.944306
 20
4.725347
 30
0.0
 10
5.944306
 20
4.683022
 30
0.0
 10
5.944306
 20
4.640563
 30
0.0
 10
5.944306
 20
4.598296
 30
0.0
 10
5.944306
 20
4.556077
 30
0.0
 10
5.944306
 20
4.513680
 30
0.0
 10
5.997212
 20
4.513680
 30
0.0
 10
6.050286
 20
4.513680
 30
0.0
 10
6.103119
 20
4.513680
 30
0.0
 10
6.155893
 20
4.513680
 30
0.0
 10
6.208889
 20
4.513680
 30
0.0
 10
6.221960
 20
4.513184
 30
0.0
 10
6.235306
 20
4.510731
 30
0.0
 10
6.246392
 20
4.503880
 30
0.0
 10
6.251851
 20
4.491902
 30
0.0
 10
6.252986
 20
4.478403
 30
0.0
 10
6.252986
 20
4.427260
 30
0.0
 10
6.252986
 20
4.375955
 30
0.0
 10
6.252986
 20
4.324882
 30
0.0
 10
6.252986
 20
4.273868
 30
0.0
 10
6.252986
 20
4.222639
 30
0.0
 10
6.248389
 20
4.175725
 30
0.0
 10
6.230165
 20
4.131833
 30
0.0
 10
6.195173
 20
4.100490
 30
0.0
 10
6.150394
 20
4.085385
 30
0.0
 10
6.103056
 20
4.081528
 30
0.0
 10
6.071312
 20
4.081528
 30
0.0
 10
6.039793
 20
4.081528
 30
0.0
 10
6.007756
 20
4.081528
 30
0.0
 10
5.976097
 20
4.081528
 30
0.0
 10
5.944306
 20
4.081528
 30
0.0
 10
5.944306
 20
4.037439
 30
0.0
 10
5.944306
 20
3.993211
 30
0.0
 10
5.944306
 20
3.949183
 30
0.0
 10
5.944306
 20
3.905205
 30
0.0
 10
5.944306
 20
3.861041
 30
0.0
 10
5.988394
 20
3.861041
 30
0.0
 10
6.032622
 20
3.861041
 30
0.0
 10
6.076650
 20
3.861041
 30
0.0
 10
6.120628
 20
3.861041
 30
0.0
 10
6.164792
 20
3.861041
 30
0.0
 10
6.215382
 20
3.863985
 30
0.0
 10
6.264732
 20
3.873449
 30
0.0
 10
6.312196
 20
3.890536
 30
0.0
 10
6.356121
 20
3.916008
 30
0.0
 10
6.394097
 20
3.949236
 30
0.0
 10
6.425529
 20
3.990103
 30
0.0
 10
6.448407
 20
4.036049
 30
0.0
 10
6.463256
 20
4.085415
 30
0.0
 10
6.471147
 20
4.136321
 30
0.0
 10
6.473472
 20
4.187361
 30
0.0
 10
6.473472
 20
4.314336
 30
0.0
 10
6.473472
 20
4.441062
 30
0.0
 10
6.473472
 20
4.568017
 30
0.0
 10
6.473472
 20
4.695225
 30
0.0
 10
6.473472
 20
4.822361
 30
0.0
 10
6.461746
 20
4.931899
 30
0.0
 10
6.417263
 20
5.032515
 30
0.0
 10
6.334898
 20
5.104200
 30
0.0
 10
6.230656
 20
5.139477
 30
0.0
 10
6.120694
 20
5.148680
 30
0.0
 10
6.085423
 20
5.148680
 30
0.0
 10
6.050403
 20
5.148680
 30
0.0
 10
6.014806
 20
5.148680
 30
0.0
 10
5.979629
 20
5.148680
 30
0.0
 10
5.944306
 20
5.148680
 30
0.0
 10
5.944306
 20
5.148680
 30
0.0
 10
5.944306
 20
5.148680
 30
0.0
 10
5.944306
 20
5.148680
 30
0.0
 10
5.944306
 20
5.148680
 30
0.0
 10
5.944306
 20
5.148680
 30
0.0
  0
LWPOLYLINE
  5
105
100
AcDbEntity
  8
0
 62
7
100
AcDbPolyline
 90
41
 70
0
 10
7.264312
 20
4.932785
 30
0.0
 10
7.223365
 20
4.932521
 30
0.0
 10
7.182432
 20
4.931591
 30
0.0
 10
7.141530
 20
4.929657
 30
0.0
 10
7.100760
 20
4.925936
 30
0.0
 10
7.060825
 20
4.917331
 30
0.0
 10
7.026240
 20
4.896493
 30
0.0
 10
7.000827
 20
4.865102
 30
0.0
 10
6.985480
 20
4.827650
 30
0.0
 10
6.977938
 20
4.787825
 30
0.0
 10
6.975824
 20
4.747329
 30
0.0
 10
6.975824
 20
4.570116
 30
0.0
 10
6.975824
 20
4.392903
 30
0.0
 10
6.975824
 20
4.215692
 30
0.0
 10
6.975824
 20
4.038478
 30
0.0
 10
6.975824
 20
3.861259
 30
0.0
 10
6.931521
 20
3.861259
 30
0.0
 10
6.887214
 20
3.861259
 30
0.0
 10
6.842912
 20
3.861259
 30
0.0
 10
6.798612
 20
3.861259
 30
0.0
 10
6.754307
 20
3.861259
 30
0.0
 10
6.754307
 20
4.050320
 30
0.0
 10
6.754307
 20
4.239382
 30
0.0
 10
6.754307
 20
4.428442
 30
0.0
 10
6.754307
 20
4.617504
 30
0.0
 10
6.754307
 20
4.806572
 30
0.0
 10
6.765109
 20
4.917892
 30
0.0
 10
6.805787
 20
5.021689
 30
0.0
 10
6.884348
 20
5.100249
 30
0.0
 10
6.988139
 20
5.140924
 30
0.0
 10
7.099462
 20
5.151727
 30
0.0
 10
7.132432
 20
5.151727
 30
0.0
 10
7.165404
 20
5.151727
 30
0.0
 10
7.198378
 20
5.151727
 30
0.0
 10
7.231349
 20
5.151727
 30
0.0
 10
7.264312
 20
5.151727
 30
0.0
 10
7.264312
 20
5.107939
 30
0.0
 10
7.264312
 20
5.064148
 30
0.0
 10
7.264312
 20
5.020361
 30
0.0
 10
7.264312
 20
4.976575
 30
0.0
 10
7.264312
 20
4.932785
 30
0.0
  0
LWPOLYLINE
  5
106
100
AcDbEntity
  8
0
 62
7
100
AcDbPolyline
 90
41
 70
0
 10
7.976175
 20
4.932785
 30
0.0
 10
7.935228
 20
4.932521
 30
0.0
 10
7.894294
 20
4.931591
 30
0.0
 10
7.853392
 20
4.929657
 30
0.0
 10
7.812623
 20
4.925936
 30
0.0
 10
7.772688
 20
4.917331
 30
0.0
 10
7.738102
 20
4.896493
 30
0.0
 10
7.712689
 20
4.865102
 30
0.0
 10
7.697343
 20
4.827650
 30
0.0
 10
7.689801
 20
4.787825
 30
0.0
 10
7.687687
 20
4.747329
 30
0.0
 10
7.687687
 20
4.570116
 30
0.0
 10
7.687687
 20
4.392903
 30
0.0
 10
7.687687
 20
4.215692
 30
0.0
 10
7.687687
 20
4.038478
 30
0.0
 10
7.687687
 20
3.861259
 30
0.0
 10
7.643384
 20
3.861259
 30
0.0
 10
7.599077
 20
3.861259
 30
0.0
 10
7.554775
 20
3.861259
 30
0.0
 10
7.510474
 20
3.861259
 30
0.0
 10
7.466169
 20
3.861259
 30
0.0
 10
7.466169
 20
4.050320
 30
0.0
 10
7.466169
 20
4.239382
 30
0.0
 10
7.466169
 20
4.428442
 30
0.0
 10
7.466169
 20
4.617504
 30
0.0
 10
7.466169
 20
4.806572
 30
0.0
 10
7.476972
 20
4.917892
 30
0.0
 10
7.517649
 20
5.021689
 30
0.0
 10
7.596210
 20
5.100249
 30
0.0
 10
7.700002
 20
5.140924
 30
0.0
 10
7.811325
 20
5.151727
 30
0.0
 10
7.844294
 20
5.151727
 30
0.0
 10
7.877267
 20
5.151727
 30
0.0
 10
7.910240
 20
5.151727
 30
0.0
 10
7.943211
 20
5.151727
 30
0.0
 10
7.976175
 20
5.151727
 30
0.0
 10
7.976175
 20
5.107939
 30
0.0
 10
7.976175
 20
5.064148
 30
0.0
 10
7.976175
 20
5.020361
 30
0.0
 10
7.976175
 20
4.976575
 30
0.0
 10
7.976175
 20
4.932785
 30
0.0
  0
LWPOLYLINE
  5
107
100
AcDbEntity
  8
0
 62
7
100
AcDbPolyline
 90
151
 70
0
 10
8.713611
 20
5.148680
 30
0.0
 10
8.676577
 20
5.148680
 30
0.0
 10
8.639805
 20
5.148680
 30
0.0
 10
8.602429
 20
5.148680
 30
0.0
 10
8.565493
 20
5.148680
 30
0.0
 10
8.528403
 20
5.148680
 30
0.0
 10
8.418675
 20
5.139420
 30
0.0
 10
8.314468
 20
5.103971
 30
0.0
 10
8.231906
 20
5.031979
 30
0.0
 10
8.187480
 20
4.931884
 30
0.0
 10
8.175625
 20
4.822361
 30
0.0
 10
8.175625
 20
4.700676
 30
0.0
 10
8.175625
 20
4.579231
 30
0.0
 10
8.175625
 20
4.457565
 30
0.0
 10
8.175625
 20
4.335974
 30
0.0
 10
8.175625
 20
4.213819
 30
0.0
 10
8.178636
 20
4.151758
 30
0.0
 10
8.188914
 20
4.090085
 30
0.0
 10
8.208420
 20
4.030951
 30
0.0
 10
8.238996
 20
3.977035
 30
0.0
 10
8.281458
 20
3.931597
 30
0.0
 10
8.328114
 20
3.901124
 30
0.0
 10
8.380207
 20
3.880990
 30
0.0
 10
8.434646
 20
3.868958
 30
0.0
 10
8.490165
 20
3.862825
 30
0.0
 10
8.546042
 20
3.861041
 30
0.0
 10
8.685362
 20
3.861041
 30
0.0
 10
8.824765
 20
3.861041
 30
0.0
 10
8.963979
 20
3.861041
 30
0.0
 10
9.103433
 20
3.861041
 30
0.0
 10
9.242778
 20
3.861041
 30
0.0
 10
9.242778
 20
3.905130
 30
0.0
 10
9.242778
 20
3.949358
 30
0.0
 10
9.242778
 20
3.993386
 30
0.0
 10
9.242778
 20
4.037364
 30
0.0
 10
9.242778
 20
4.081528
 30
0.0
 10
9.112275
 20
4.081528
 30
0.0
 10
8.981695
 20
4.081528
 30
0.0
 10
8.851292
 20
4.081528
 30
0.0
 10
8.720664
 20
4.081528
 30
0.0
 10
8.590139
 20
4.081528
 30
0.0
 10
8.562519
 20
4.082518
 30
0.0
 10
8.534658
 20
4.085864
 30
0.0
 10
8.507248
 20
4.092192
 30
0.0
 10
8.481374
 20
4.102147
 30
0.0
 10
8.457847
 20
4.116805
 30
0.0
 10
8.434780
 20
4.138519
 30
0.0
 10
8.416565
 20
4.165033
 30
0.0
 10
8.404557
 20
4.194403
 30
0.0
 10
8.398018
 20
4.225974
 30
0.0
 10
8.396111
 20
4.257916
 30
0.0
 10
8.396111
 20
4.266840
 30
0.0
 10
8.396111
 20
4.275590
 30
0.0
 10
8.396111
 20
4.284322
 30
0.0
 10
8.396111
 20
4.293329
 30
0.0
 10
8.396111
 20
4.302014
 30
0.0
 10
8.459599
 20
4.328467
 30
0.0
 10
8.523287
 20
4.355004
 30
0.0
 10
8.586688
 20
4.381421
 30
0.0
 10
8.650016
 20
4.407807
 30
0.0
 10
8.713611
 20
4.434305
 30
0.0
 10
8.713611
 20
4.476630
 30
0.0
 10
8.713611
 20
4.519089
 30
0.0
 10
8.713611
 20
4.561356
 30
0.0
 10
8.713611
 20
4.603575
 30
0.0
 10
8.713611
 20
4.645972
 30
0.0
 10
8.650123
 20
4.619519
 30
0.0
 10
8.586435
 20
4.592982
 30
0.0
 10
8.523034
 20
4.566565
 30
0.0
 10
8.459706
 20
4.540178
 30
0.0
 10
8.396111
 20
4.513680
 30
0.0
 10
8.396111
 20
4.564823
 30
0.0
 10
8.396111
 20
4.616128
 30
0.0
 10
8.396111
 20
4.667200
 30
0.0
 10
8.396111
 20
4.718215
 30
0.0
 10
8.396111
 20
4.769444
 30
0.0
 10
8.404121
 20
4.828864
 30
0.0
 10
8.433060
 20
4.881342
 30
0.0
 10
8.481345
 20
4.915926
 30
0.0
 10
8.538943
 20
4.932582
 30
0.0
 10
8.598958
 20
4.937014
 30
0.0
 10
8.622160
 20
4.937014
 30
0.0
 10
8.644911
 20
4.937014
 30
0.0
 10
8.667612
 20
4.937014
 30
0.0
 10
8.690554
 20
4.937014
 30
0.0
 10
8.713611
 20
4.937014
 30
0.0
 10
8.713611
 20
4.979339
 30
0.0
 10
8.713611
 20
5.021798
 30
0.0
 10
8.713611
 20
5.064065
 30
0.0
 10
8.713611
 20
5.106284
 30
0.0
 10
8.713611
 20
5.148680
 30
0.0
 10
8.713611
 20
5.148680
 30
0.0
 10
8.713611
 20
5.148680
 30
0.0
 10
8.713611
 20
5.148680
 30
0.0
 10
8.713611
 20
5.148680
 30
0.0
 10
8.713611
 20
5.148680
 30
0.0
 10
8.713611
 20
5.106355
 30
0.0
 10
8.713611
 20
5.063896
 30
0.0
 10
8.713611
 20
5.021629
 30
0.0
 10
8.713611
 20
4.979410
 30
0.0
 10
8.713611
 20
4.937014
 30
0.0
 10
8.740064
 20
4.937014
 30
0.0
 10
8.766330
 20
4.937014
 30
0.0
 10
8.792594
 20
4.937014
 30
0.0
 10
8.819170
 20
4.937014
 30
0.0
 10
8.845903
 20
4.937014
 30
0.0
 10
8.898749
 20
4.932722
 30
0.0
 10
8.948935
 20
4.917003
 30
0.0
 10
8.990602
 20
4.885347
 30
0.0
 10
9.015307
 20
4.839101
 30
0.0
 10
9.022292
 20
4.787083
 30
0.0
 10
9.022292
 20
4.783682
 30
0.0
 10
9.022292
 20
4.779883
 30
0.0
 10
9.022292
 20
4.776194
 30
0.0
 10
9.022292
 20
4.773024
 30
0.0
 10
9.022292
 20
4.769444
 30
0.0
 10
8.960567
 20
4.744754
 30
0.0
 10
8.898648
 20
4.719987
 30
0.0
 10
8.837009
 20
4.695331
 30
0.0
 10
8.775440
 20
4.670703
 30
0.0
 10
8.713611
 20
4.645972
 30
0.0
 10
8.713611
 20
4.603647
 30
0.0
 10
8.713611
 20
4.561188
 30
0.0
 10
8.713611
 20
4.518921
 30
0.0
 10
8.713611
 20
4.476702
 30
0.0
 10
8.713611
 20
4.434305
 30
0.0
 10
8.819424
 20
4.476630
 30
0.0
 10
8.925029
 20
4.518872
 30
0.0
 10
9.030825
 20
4.561191
 30
0.0
 10
9.136556
 20
4.603483
 30
0.0
 10
9.242778
 20
4.645972
 30
0.0
 10
9.242778
 20
4.677716
 30
0.0
 10
9.242778
 20
4.709234
 30
0.0
 10
9.242778
 20
4.741271
 30
0.0
 10
9.242778
 20
4.772930
 30
0.0
 10
9.242778
 20
4.804722
 30
0.0
 10
9.233303
 20
4.913078
 30
0.0
 10
9.197123
 20
5.015307
 30
0.0
 10
9.124384
 20
5.095191
 30
0.0
 10
9.024506
 20
5.137524
 30
0.0
 10
8.916458
 20
5.148680
 30
0.0
 10
8.875897
 20
5.148680
 30
0.0
 10
8.835207
 20
5.148680
 30
0.0
 10
8.794701
 20
5.148680
 30
0.0
 10
8.754241
 20
5.148680
 30
0.0
 10
8.713611
 20
5.148680
 30
0.0
 10
8.713611
 20
5.148680
 30
0.0
 10
8.713611
 20
5.148680
 30
0.0
 10
8.713611
 20
5.148680
 30
0.0
 10
8.713611
 20
5.148680
 30
0.0
 10
8.713611
 20
5.148680
 30
0.0
  0
LWPOLYLINE
  5
108
100
AcDbEntity
  8
0
 62
7
100
AcDbPolyline
 90
41
 70
0
 10
10.016176
 20
4.932785
 30
0.0
 10
9.975229
 20
4.932521
 30
0.0
 10
9.934296
 20
4.931591
 30
0.0
 10
9.893394
 20
4.929657
 30
0.0
 10
9.852624
 20
4.925936
 30
0.0
 10
9.812689
 20
4.917331
 30
0.0
 10
9.778104
 20
4.896493
 30
0.0
 10
9.752691
 20
4.865102
 30
0.0
 10
9.737344
 20
4.827650
 30
0.0
 10
9.729802
 20
4.787825
 30
0.0
 10
9.727688
 20
4.747329
 30
0.0
 10
9.727688
 20
4.570116
 30
0.0
 10
9.727688
 20
4.392903
 30
0.0
 10
9.727688
 20
4.215692
 30
0.0
 10
9.727688
 20
4.038478
 30
0.0
 10
9.727688
 20
3.861259
 30
0.0
 10
9.683385
 20
3.861259
 30
0.0
 10
9.639078
 20
3.861259
 30
0.0
 10
9.594776
 20
3.861259
 30
0.0
 10
9.550476
 20
3.861259
 30
0.0
 10
9.506171
 20
3.861259
 30
0.0
 10
9.506171
 20
4.050320
 30
0.0
 10
9.506171
 20
4.239382
 30
0.0
 10
9.506171
 20
4.428442
 30
0.0
 10
9.506171
 20
4.617504
 30
0.0
 10
9.506171
 20
4.806572
 30
0.0
 10
9.516973
 20
4.917892
 30
0.0
 10
9.557650
 20
5.021689
 30
0.0
 10
9.636211
 20
5.100249
 30
0.0
 10
9.740003
 20
5.140924
 30
0.0
 10
9.851326
 20
5.151727
 30
0.0
 10
9.884296
 20
5.151727
 30
0.0
 10
9.917268
 20
5.151727
 30
0.0
 10
9.950241
 20
5.151727
 30
0.0
 10
9.983213
 20
5.151727
 30
0.0
 10
10.016176
 20
5.151727
 30
0.0
 10
10.016176
 20
5.107939
 30
0.0
 10
10.016176
 20
5.064148
 30
0.0
 10
10.016176
 20
5.020361
 30
0.0
 10
10.016176
 20
4.976575
 30
0.0
 10
10.016176
 20
4.932785
 30
0.0
  0
LWPOLYLINE
  5
109
100
AcDbEntity
  8
0
 62
7
100
AcDbPolyline
 90
81
 70
0
 10
10.768542
 20
3.861041
 30
0.0
 10
10.768542
 20
3.905130
 30
0.0
 10
10.768542
 20
3.949358
 30
0.0
 10
10.768542
 20
3.993386
 30
0.0
 10
10.768542
 20
4.037364
 30
0.0
 10
10.768542
 20
4.081528
 30
0.0
 10
10.735034
 20
4.081528
 30
0.0
 10
10.701764
 20
4.081528
 30
0.0
 10
10.667948
 20
4.081528
 30
0.0
 10
10.634530
 20
4.081528
 30
0.0
 10
10.600972
 20
4.081528
 30
0.0
 10
10.575963
 20
4.083466
 30
0.0
 10
10.551755
 20
4.089143
 30
0.0
 10
10.528474
 20
4.098345
 30
0.0
 10
10.506425
 20
4.110756
 30
0.0
 10
10.486319
 20
4.125625
 30
0.0
 10
10.469920
 20
4.142825
 30
0.0
 10
10.457149
 20
4.162455
 30
0.0
 10
10.448358
 20
4.184443
 30
0.0
 10
10.443630
 20
4.207568
 30
0.0
 10
10.442222
 20
4.231458
 30
0.0
 10
10.442222
 20
4.256148
 30
0.0
 10
10.442222
 20
4.280662
 30
0.0
 10
10.442222
 20
4.305176
 30
0.0
 10
10.442222
 20
4.329980
 30
0.0
 10
10.442222
 20
4.354930
 30
0.0
 10
10.447210
 20
4.406062
 30
0.0
 10
10.466056
 20
4.453924
 30
0.0
 10
10.502399
 20
4.490110
 30
0.0
 10
10.549810
 20
4.508685
 30
0.0
 10
10.600972
 20
4.513680
 30
0.0
 10
10.634480
 20
4.513680
 30
0.0
 10
10.667749
 20
4.513680
 30
0.0
 10
10.701566
 20
4.513680
 30
0.0
 10
10.734984
 20
4.513680
 30
0.0
 10
10.768542
 20
4.513680
 30
0.0
 10
10.768542
 20
4.556005
 30
0.0
 10
10.768542
 20
4.598464
 30
0.0
 10
10.768542
 20
4.640731
 30
0.0
 10
10.768542
 20
4.682950
 30
0.0
 10
10.768542
 20
4.725347
 30
0.0
 10
10.724453
 20
4.725347
 30
0.0
 10
10.680225
 20
4.725347
 30
0.0
 10
10.636197
 20
4.725347
 30
0.0
 10
10.592219
 20
4.725347
 30
0.0
 10
10.548055
 20
4.725347
 30
0.0
 10
10.496187
 20
4.722395
 30
0.0
 10
10.444737
 20
4.712691
 30
0.0
 10
10.395548
 20
4.695334
 30
0.0
 10
10.350271
 20
4.670068
 30
0.0
 10
10.309930
 20
4.637153
 30
0.0
 10
10.276269
 20
4.597400
 30
0.0
 10
10.250920
 20
4.552021
 30
0.0
 10
10.233894
 20
4.502587
 30
0.0
 10
10.224596
 20
4.451400
 30
0.0
 10
10.221736
 20
4.399028
 30
0.0
 10
10.221736
 20
4.353175
 30
0.0
 10
10.221736
 20
4.307178
 30
0.0
 10
10.221736
 20
4.261389
 30
0.0
 10
10.221736
 20
4.215652
 30
0.0
 10
10.221736
 20
4.169722
 30
0.0
 10
10.224822
 20
4.118410
 30
0.0
 10
10.235237
 20
4.067851
 30
0.0
 10
10.254422
 20
4.019939
 30
0.0
 10
10.282761
 20
3.976833
 30
0.0
 10
10.318750
 20
3.940416
 30
0.0
 10
10.360263
 20
3.910289
 30
0.0
 10
10.406346
 20
3.887330
 30
0.0
 10
10.454933
 20
3.872077
 30
0.0
 10
10.505562
 20
3.863614
 30
0.0
 10
10.556875
 20
3.861041
 30
0.0
 10
10.599200
 20
3.861041
 30
0.0
 10
10.641659
 20
3.861041
 30
0.0
 10
10.683926
 20
3.861041
 30
0.0
 10
10.726145
 20
3.861041
 30
0.0
 10
10.768542
 20
3.861041
 30
0.0
 10
10.768542
 20
3.861041
 30
0.0
 10
10.768542
 20
3.861041
 30
0.0
 10
10.768542
 20
3.861041
 30
0.0
 10
10.768542
 20
3.861041
 30
0.0
 10
10.768542
 20
3.861041
 30
0.0
  0
LWPOLYLINE
  5
10a
100
AcDbEntity
  8
0
 62
7
100
AcDbPolyline
 90
96
 70
0
 10
10.221736
 20
5.148680
 30
0.0
 10
10.221736
 20
5.106355
 30
0.0
 10
10.221736
 20
5.063896
 30
0.0
 10
10.221736
 20
5.021629
 30
0.0
 10
10.221736
 20
4.979410
 30
0.0
 10
10.221736
 20
4.937014
 30
0.0
 10
10.357529
 20
4.937014
 30
0.0
 10
10.493403
 20
4.937014
 30
0.0
 10
10.629093
 20
4.937014
 30
0.0
 10
10.765016
 20
4.937014
 30
0.0
 10
10.900833
 20
4.937014
 30
0.0
 10
10.932983
 20
4.935123
 30
0.0
 10
10.964290
 20
4.928936
 30
0.0
 10
10.994205
 20
4.917400
 30
0.0
 10
11.020982
 20
4.899518
 30
0.0
 10
11.041944
 20
4.875278
 30
0.0
 10
11.056127
 20
4.847359
 30
0.0
 10
11.065724
 20
4.817583
 30
0.0
 10
11.071950
 20
4.787054
 30
0.0
 10
11.075583
 20
4.756479
 30
0.0
 10
11.077222
 20
4.725347
 30
0.0
 10
11.015498
 20
4.725347
 30
0.0
 10
10.953579
 20
4.725347
 30
0.0
 10
10.891939
 20
4.725347
 30
0.0
 10
10.830370
 20
4.725347
 30
0.0
 10
10.768542
 20
4.725347
 30
0.0
 10
10.768542
 20
4.683022
 30
0.0
 10
10.768542
 20
4.640563
 30
0.0
 10
10.768542
 20
4.598296
 30
0.0
 10
10.768542
 20
4.556077
 30
0.0
 10
10.768542
 20
4.513680
 30
0.0
 10
10.817921
 20
4.513680
 30
0.0
 10
10.867456
 20
4.513680
 30
0.0
 10
10.916768
 20
4.513680
 30
0.0
 10
10.966023
 20
4.513680
 30
0.0
 10
11.015486
 20
4.513680
 30
0.0
 10
11.030074
 20
4.513095
 30
0.0
 10
11.044314
 20
4.510682
 30
0.0
 10
11.057404
 20
4.504602
 30
0.0
 10
11.066115
 20
4.492839
 30
0.0
 10
11.068403
 20
4.478403
 30
0.0
 10
11.068403
 20
4.427260
 30
0.0
 10
11.068403
 20
4.375955
 30
0.0
 10
11.068403
 20
4.324882
 30
0.0
 10
11.068403
 20
4.273868
 30
0.0
 10
11.068403
 20
4.222639
 30
0.0
 10
11.063806
 20
4.175725
 30
0.0
 10
11.045581
 20
4.131833
 30
0.0
 10
11.010590
 20
4.100490
 30
0.0
 10
10.965811
 20
4.085385
 30
0.0
 10
10.918472
 20
4.081528
 30
0.0
 10
10.888492
 20
4.081528
 30
0.0
 10
10.858724
 20
4.081528
 30
0.0
 10
10.828467
 20
4.081528
 30
0.0
 10
10.798567
 20
4.081528
 30
0.0
 10
10.768542
 20
4.081528
 30
0.0
 10
10.768542
 20
4.037439
 30
0.0
 10
10.768542
 20
3.993211
 30
0.0
 10
10.768542
 20
3.949183
 30
0.0
 10
10.768542
 20
3.905205
 30
0.0
 10
10.768542
 20
3.861041
 30
0.0
 10
10.810867
 20
3.861041
 30
0.0
 10
10.853326
 20
3.861041
 30
0.0
 10
10.895593
 20
3.861041
 30
0.0
 10
10.937812
 20
3.861041
 30
0.0
 10
10.980208
 20
3.861041
 30
0.0
 10
11.030799
 20
3.863985
 30
0.0
 10
11.080149
 20
3.873449
 30
0.0
 10
11.127613
 20
3.890536
 30
0.0
 10
11.171538
 20
3.916008
 30
0.0
 10
11.209514
 20
3.949236
 30
0.0
 10
11.240946
 20
3.990103
 30
0.0
 10
11.263824
 20
4.036049
 30
0.0
 10
11.278673
 20
4.085415
 30
0.0
 10
11.286564
 20
4.136321
 30
0.0
 10
11.288889
 20
4.187361
 30
0.0
 10
11.288889
 20
4.314336
 30
0.0
 10
11.288889
 20
4.441062
 30
0.0
 10
11.288889
 20
4.568017
 30
0.0
 10
11.288889
 20
4.695225
 30
0.0
 10
11.288889
 20
4.822361
 30
0.0
 10
11.277163
 20
4.931899
 30
0.0
 10
11.232680
 20
5.032515
 30
0.0
 10
11.150314
 20
5.104200
 30
0.0
 10
11.046073
 20
5.139477
 30
0.0
 10
10.936111
 20
5.148680
 30
0.0
 10
10.793264
 20
5.148680
 30
0.0
 10
10.650331
 20
5.148680
 30
0.0
 10
10.507593
 20
5.148680
 30
0.0
 10
10.364609
 20
5.148680
 30
0.0
 10
10.221736
 20
5.148680
 30
0.0
 10
10.221736
 20
5.148680
 30
0.0
 10
10.221736
 20
5.148680
 30
0.0
 10
10.221736
 20
5.148680
 30
0.0
 10
10.221736
 20
5.148680
 30
0.0
 10
10.221736
 20
5.148680
 30
0.0
  0
LWPOLYLINE
  5
10b
100
AcDbEntity
  8
0
 62
7
100
AcDbPolyline
 90
111
 70
0
 10
12.232569
 20
4.734166
 30
0.0
 10
12.170845
 20
4.559575
 30
0.0
 10
12.109084
 20
4.384880
 30
0.0
 10
12.047407
 20
4.210422
 30
0.0
 10
11.985624
 20
4.035663
 30
0.0
 10
11.923889
 20
3.861041
 30
0.0
 10
11.978559
 20
3.861041
 30
0.0
 10
12.033402
 20
3.861041
 30
0.0
 10
12.087997
 20
3.861041
 30
0.0
 10
12.142529
 20
3.861041
 30
0.0
 10
12.197292
 20
3.861041
 30
0.0
 10
12.225508
 20
3.947455
 30
0.0
 10
12.253814
 20
4.034142
 30
0.0
 10
12.281992
 20
4.120438
 30
0.0
 10
12.310138
 20
4.206634
 30
0.0
 10
12.338403
 20
4.293194
 30
0.0
 10
12.475960
 20
4.293194
 30
0.0
 10
12.613598
 20
4.293194
 30
0.0
 10
12.751050
 20
4.293194
 30
0.0
 10
12.888738
 20
4.293194
 30
0.0
 10
13.026319
 20
4.293194
 30
0.0
 10
13.056300
 20
4.206780
 30
0.0
 10
13.086375
 20
4.120093
 30
0.0
 10
13.116314
 20
4.033798
 30
0.0
 10
13.146219
 20
3.947601
 30
0.0
 10
13.176250
 20
3.861041
 30
0.0
 10
13.229156
 20
3.861041
 30
0.0
 10
13.282230
 20
3.861041
 30
0.0
 10
13.335064
 20
3.861041
 30
0.0
 10
13.387837
 20
3.861041
 30
0.0
 10
13.440833
 20
3.861041
 30
0.0
 10
13.379109
 20
4.035633
 30
0.0
 10
13.317348
 20
4.210328
 30
0.0
 10
13.255671
 20
4.384786
 30
0.0
 10
13.193888
 20
4.559544
 30
0.0
 10
13.132153
 20
4.734166
 30
0.0
 10
13.081010
 20
4.734166
 30
0.0
 10
13.029705
 20
4.734166
 30
0.0
 10
12.978633
 20
4.734166
 30
0.0
 10
12.927618
 20
4.734166
 30
0.0
 10
12.876389
 20
4.734166
 30
0.0
 10
12.890497
 20
4.691841
 30
0.0
 10
12.904650
 20
4.649382
 30
0.0
 10
12.918739
 20
4.607115
 30
0.0
 10
12.932812
 20
4.564896
 30
0.0
 10
12.946944
 20
4.522500
 30
0.0
 10
12.842895
 20
4.522500
 30
0.0
 10
12.739050
 20
4.522500
 30
0.0
 10
12.635018
 20
4.522500
 30
0.0
 10
12.531048
 20
4.522500
 30
0.0
 10
12.426597
 20
4.522500
 30
0.0
 10
12.440706
 20
4.564825
 30
0.0
 10
12.454859
 20
4.607284
 30
0.0
 10
12.468948
 20
4.649551
 30
0.0
 10
12.483020
 20
4.691770
 30
0.0
 10
12.497153
 20
4.734166
 30
0.0
 10
12.444246
 20
4.734166
 30
0.0
 10
12.391173
 20
4.734166
 30
0.0
 10
12.338339
 20
4.734166
 30
0.0
 10
12.285565
 20
4.734166
 30
0.0
 10
12.232569
 20
4.734166
 30
0.0
 10
12.232569
 20
4.734166
 30
0.0
 10
12.232569
 20
4.734166
 30
0.0
 10
12.232569
 20
4.734166
 30
0.0
 10
12.232569
 20
4.734166
 30
0.0
 10
12.232569
 20
4.734166
 30
0.0
 10
12.285476
 20
4.734166
 30
0.0
 10
12.338549
 20
4.734166
 30
0.0
 10
12.391383
 20
4.734166
 30
0.0
 10
12.444157
 20
4.734166
 30
0.0
 10
12.497153
 20
4.734166
 30
0.0
 10
12.532424
 20
4.847034
 30
0.0
 10
12.567625
 20
4.959678
 30
0.0
 10
12.602891
 20
5.072527
 30
0.0
 10
12.638134
 20
5.185308
 30
0.0
 10
12.673542
 20
5.298611
 30
0.0
 10
12.714103
 20
5.185744
 30
0.0
 10
12.754585
 20
5.073099
 30
0.0
 10
12.795140
 20
4.960250
 30
0.0
 10
12.835671
 20
4.847469
 30
0.0
 10
12.876389
 20
4.734166
 30
0.0
 10
12.927532
 20
4.734166
 30
0.0
 10
12.978836
 20
4.734166
 30
0.0
 10
13.029909
 20
4.734166
 30
0.0
 10
13.080923
 20
4.734166
 30
0.0
 10
13.132153
 20
4.734166
 30
0.0
 10
13.082773
 20
4.875250
 30
0.0
 10
13.033365
 20
5.016418
 30
0.0
 10
12.984023
 20
5.157394
 30
0.0
 10
12.934596
 20
5.298613
 30
0.0
 10
12.885208
 20
5.439722
 30
0.0
 10
12.862290
 20
5.490238
 30
0.0
 10
12.830138
 20
5.535099
 30
0.0
 10
12.787645
 20
5.570405
 30
0.0
 10
12.736721
 20
5.591858
 30
0.0
 10
12.682361
 20
5.598472
 30
0.0
 10
12.628776
 20
5.591814
 30
0.0
 10
12.579785
 20
5.569997
 30
0.0
 10
12.539765
 20
5.534031
 30
0.0
 10
12.509894
 20
5.489045
 30
0.0
 10
12.488333
 20
5.439722
 30
0.0
 10
12.437190
 20
5.298638
 30
0.0
 10
12.386017
 20
5.157470
 30
0.0
 10
12.334913
 20
5.016494
 30
0.0
 10
12.283721
 20
4.875275
 30
0.0
 10
12.232569
 20
4.734166
 30
0.0
 10
12.232569
 20
4.734166
 30
0.0
 10
12.232569
 20
4.734166
 30
0.0
 10
12.232569
 20
4.734166
 30
0.0
 10
12.232569
 20
4.734166
 30
0.0
 10
12.232569
 20
4.734166
 30
0.0
  0
LWPOLYLINE
  5
10c
100
AcDbEntity
  8
0
 62
7
100
AcDbPolyline
 90
41
 70
0
 10
14.081087
 20
4.932785
 30
0.0
 10
14.040140
 20
4.932521
 30
0.0
 10
13.999207
 20
4.931591
 30
0.0
 10
13.958305
 20
4.929657
 30
0.0
 10
13.917536
 20
4.925936
 30
0.0
 10
13.877601
 20
4.917331
 30
0.0
 10
13.843015
 20
4.896493
 30
0.0
 10
13.817602
 20
4.865102
 30
0.0
 10
13.802256
 20
4.827650
 30
0.0
 10
13.794713
 20
4.787825
 30
0.0
 10
13.792599
 20
4.747329
 30
0.0
 10
13.792599
 20
4.570116
 30
0.0
 10
13.792599
 20
4.392903
 30
0.0
 10
13.792599
 20
4.215692
 30
0.0
 10
13.792599
 20
4.038478
 30
0.0
 10
13.792599
 20
3.861259
 30
0.0
 10
13.748296
 20
3.861259
 30
0.0
 10
13.703989
 20
3.861259
 30
0.0
 10
13.659687
 20
3.861259
 30
0.0
 10
13.615387
 20
3.861259
 30
0.0
 10
13.571082
 20
3.861259
 30
0.0
 10
13.571082
 20
4.050320
 30
0.0
 10
13.571082
 20
4.239382
 30
0.0
 10
13.571082
 20
4.428442
 30
0.0
 10
13.571082
 20
4.617504
 30
0.0
 10
13.571082
 20
4.806572
 30
0.0
 10
13.581884
 20
4.917892
 30
0.0
 10
13.622562
 20
5.021689
 30
0.0
 10
13.701123
 20
5.100249
 30
0.0
 10
13.804914
 20
5.140924
 30
0.0
 10
13.916237
 20
5.151727
 30
0.0
 10
13.949207
 20
5.151727
 30
0.0
 10
13.982180
 20
5.151727
 30
0.0
 10
14.015153
 20
5.151727
 30
0.0
 10
14.048124
 20
5.151727
 30
0.0
 10
14.081087
 20
5.151727
 30
0.0
 10
14.081087
 20
5.107939
 30
0.0
 10
14.081087
 20
5.064148
 30
0.0
 10
14.081087
 20
5.020361
 30
0.0
 10
14.081087
 20
4.976575
 30
0.0
 10
14.081087
 20
4.932785
 30
0.0
  0
LWPOLYLINE
  5
10d
100
AcDbEntity
  8
0
 62
7
100
AcDbPolyline
 90
41
 70
0
 10
14.785222
 20
4.932785
 30
0.0
 10
14.729070
 20
4.932785
 30
0.0
 10
14.672919
 20
4.932785
 30
0.0
 10
14.616767
 20
4.932785
 30
0.0
 10
14.560618
 20
4.932785
 30
0.0
 10
14.504462
 20
4.932785
 30
0.0
 10
14.504462
 20
4.718481
 30
0.0
 10
14.504462
 20
4.504177
 30
0.0
 10
14.504462
 20
4.289868
 30
0.0
 10
14.504462
 20
4.075567
 30
0.0
 10
14.504462
 20
3.861259
 30
0.0
 10
14.460158
 20
3.861259
 30
0.0
 10
14.415852
 20
3.861259
 30
0.0
 10
14.371550
 20
3.861259
 30
0.0
 10
14.327249
 20
3.861259
 30
0.0
 10
14.282944
 20
3.861259
 30
0.0
 10
14.282944
 20
4.210534
 30
0.0
 10
14.282944
 20
4.559808
 30
0.0
 10
14.282944
 20
4.909085
 30
0.0
 10
14.282944
 20
5.258365
 30
0.0
 10
14.282944
 20
5.607641
 30
0.0
 10
14.327247
 20
5.607641
 30
0.0
 10
14.371554
 20
5.607641
 30
0.0
 10
14.415856
 20
5.607641
 30
0.0
 10
14.460157
 20
5.607641
 30
0.0
 10
14.504462
 20
5.607641
 30
0.0
 10
14.504462
 20
5.516459
 30
0.0
 10
14.504462
 20
5.425277
 30
0.0
 10
14.504462
 20
5.334095
 30
0.0
 10
14.504462
 20
5.242909
 30
0.0
 10
14.504462
 20
5.151727
 30
0.0
 10
14.560614
 20
5.151727
 30
0.0
 10
14.616765
 20
5.151727
 30
0.0
 10
14.672916
 20
5.151727
 30
0.0
 10
14.729066
 20
5.151727
 30
0.0
 10
14.785222
 20
5.151727
 30
0.0
 10
14.785222
 20
5.107939
 30
0.0
 10
14.785222
 20
5.064148
 30
0.0
 10
14.785222
 20
5.020361
 30
0.0
 10
14.785222
 20
4.976575
 30
0.0
 10
14.785222
 20
4.932785
 30
0.0
  0
LWPOLYLINE
  5
10e
100
AcDbEntity
  8
0
 62
7
100
AcDbPolyline
 90
41
 70
0
 10
15.151769
 20
5.494307
 30
0.0
 10
15.150041
 20
5.471383
 30
0.0
 10
15.144648
 20
5.449038
 30
0.0
 10
15.135553
 20
5.427926
 30
0.0
 10
15.123123
 20
5.408583
 30
0.0
 10
15.107980
 20
5.391275
 30
0.0
 10
15.090674
 20
5.376133
 30
0.0
 10
15.071335
 20
5.363705
 30
0.0
 10
15.050224
 20
5.354609
 30
0.0
 10
15.027877
 20
5.349214
 30
0.0
 10
15.004949
 20
5.347487
 30
0.0
 10
14.982259
 20
5.349078
 30
0.0
 10
14.960074
 20
5.354065
 30
0.0
 10
14.938979
 20
5.362542
 30
0.0
 10
14.919491
 20
5.374258
 30
0.0
 10
14.901917
 20
5.388700
 30
0.0
 10
14.887476
 20
5.406273
 30
0.0
 10
14.875759
 20
5.425765
 30
0.0
 10
14.867282
 20
5.446861
 30
0.0
 10
14.862296
 20
5.469046
 30
0.0
 10
14.860705
 20
5.491731
 30
0.0
 10
14.862239
 20
5.514913
 30
0.0
 10
14.867098
 20
5.537629
 30
0.0
 10
14.875479
 20
5.559293
 30
0.0
 10
14.887240
 20
5.579329
 30
0.0
 10
14.901917
 20
5.597338
 30
0.0
 10
14.918935
 20
5.612875
 30
0.0
 10
14.938265
 20
5.625404
 30
0.0
 10
14.959495
 20
5.634347
 30
0.0
 10
14.981958
 20
5.639510
 30
0.0
 10
15.004949
 20
5.641126
 30
0.0
 10
15.027943
 20
5.639509
 30
0.0
 10
15.050400
 20
5.634348
 30
0.0
 10
15.071633
 20
5.625404
 30
0.0
 10
15.090962
 20
5.612875
 30
0.0
 10
15.107980
 20
5.597338
 30
0.0
 10
15.123518
 20
5.580320
 30
0.0
 10
15.136048
 20
5.560989
 30
0.0
 10
15.144990
 20
5.539759
 30
0.0
 10
15.150152
 20
5.517297
 30
0.0
 10
15.151769
 20
5.494307
 30
0.0
  0
LWPOLYLINE
  5
10f
100
AcDbEntity
  8
0
 62
7
100
AcDbPolyline
 90
21
 70
0
 10
15.118283
 20
3.861259
 30
0.0
 10
15.073980
 20
3.861259
 30
0.0
 10
15.029673
 20
3.861259
 30
0.0
 10
14.985371
 20
3.861259
 30
0.0
 10
14.941071
 20
3.861259
 30
0.0
 10
14.896766
 20
3.861259
 30
0.0
 10
14.896766
 20
4.119351
 30
0.0
 10
14.896766
 20
4.377443
 30
0.0
 10
14.896766
 20
4.635541
 30
0.0
 10
14.896766
 20
4.893630
 30
0.0
 10
14.896766
 20
5.151727
 30
0.0
 10
14.941069
 20
5.151727
 30
0.0
 10
14.985376
 20
5.151727
 30
0.0
 10
15.029678
 20
5.151727
 30
0.0
 10
15.073978
 20
5.151727
 30
0.0
 10
15.118283
 20
5.151727
 30
0.0
 10
15.118283
 20
4.893635
 30
0.0
 10
15.118283
 20
4.635543
 30
0.0
 10
15.118283
 20
4.377445
 30
0.0
 10
15.118283
 20
4.119356
 30
0.0
 10
15.118283
 20
3.861259
 30
0.0
  0
LWPOLYLINE
  5
110
100
AcDbEntity
  8
0
 62
7
100
AcDbPolyline
 90
71
 70
0
 10
15.897097
 20
4.932785
 30
0.0
 10
15.840430
 20
4.932785
 30
0.0
 10
15.783763
 20
4.932785
 30
0.0
 10
15.727096
 20
4.932785
 30
0.0
 10
15.670431
 20
4.932785
 30
0.0
 10
15.613760
 20
4.932785
 30
0.0
 10
15.613760
 20
4.718481
 30
0.0
 10
15.613760
 20
4.504177
 30
0.0
 10
15.613760
 20
4.289868
 30
0.0
 10
15.613760
 20
4.075567
 30
0.0
 10
15.613760
 20
3.861259
 30
0.0
 10
15.569457
 20
3.861259
 30
0.0
 10
15.525150
 20
3.861259
 30
0.0
 10
15.480848
 20
3.861259
 30
0.0
 10
15.436548
 20
3.861259
 30
0.0
 10
15.392243
 20
3.861259
 30
0.0
 10
15.392243
 20
4.147169
 30
0.0
 10
15.392243
 20
4.433080
 30
0.0
 10
15.392243
 20
4.718997
 30
0.0
 10
15.392243
 20
5.004910
 30
0.0
 10
15.392243
 20
5.290820
 30
0.0
 10
15.395475
 20
5.341941
 30
0.0
 10
15.406049
 20
5.392038
 30
0.0
 10
15.425000
 20
5.439587
 30
0.0
 10
15.452500
 20
5.482754
 30
0.0
 10
15.487547
 20
5.520065
 30
0.0
 10
15.529790
 20
5.552326
 30
0.0
 10
15.576649
 20
5.577423
 30
0.0
 10
15.626896
 20
5.594776
 30
0.0
 10
15.679151
 20
5.604590
 30
0.0
 10
15.732246
 20
5.607641
 30
0.0
 10
15.765216
 20
5.607641
 30
0.0
 10
15.798189
 20
5.607641
 30
0.0
 10
15.831162
 20
5.607641
 30
0.0
 10
15.864133
 20
5.607641
 30
0.0
 10
15.897097
 20
5.607641
 30
0.0
 10
15.897097
 20
5.564884
 30
0.0
 10
15.897097
 20
5.522122
 30
0.0
 10
15.897097
 20
5.479366
 30
0.0
 10
15.897097
 20
5.436611
 30
0.0
 10
15.897097
 20
5.393851
 30
0.0
 10
15.873915
 20
5.393851
 30
0.0
 10
15.850731
 20
5.393851
 30
0.0
 10
15.827547
 20
5.393851
 30
0.0
 10
15.804364
 20
5.393851
 30
0.0
 10
15.781186
 20
5.393851
 30
0.0
 10
15.754603
 20
5.392274
 30
0.0
 10
15.728478
 20
5.387147
 30
0.0
 10
15.703492
 20
5.377986
 30
0.0
 10
15.680466
 20
5.364647
 30
0.0
 10
15.660124
 20
5.347487
 30
0.0
 10
15.642963
 20
5.327144
 30
0.0
 10
15.629625
 20
5.304119
 30
0.0
 10
15.620463
 20
5.279133
 30
0.0
 10
15.615337
 20
5.253011
 30
0.0
 10
15.613760
 20
5.226425
 30
0.0
 10
15.613760
 20
5.211488
 30
0.0
 10
15.613760
 20
5.196548
 30
0.0
 10
15.613760
 20
5.181606
 30
0.0
 10
15.613760
 20
5.166670
 30
0.0
 10
15.613760
 20
5.151727
 30
0.0
 10
15.670427
 20
5.151727
 30
0.0
 10
15.727094
 20
5.151727
 30
0.0
 10
15.783760
 20
5.151727
 30
0.0
 10
15.840425
 20
5.151727
 30
0.0
 10
15.897097
 20
5.151727
 30
0.0
 10
15.897097
 20
5.107939
 30
0.0
 10
15.897097
 20
5.064148
 30
0.0
 10
15.897097
 20
5.020361
 30
0.0
 10
15.897097
 20
4.976575
 30
0.0
 10
15.897097
 20
4.932785
 30
0.0
  0
LWPOLYLINE
  5
111
100
AcDbEntity
  8
0
 62
7
100
AcDbPolyline
 90
41
 70
0
 10
16.258551
 20
5.494307
 30
0.0
 10
16.256824
 20
5.471383
 30
0.0
 10
16.251430
 20
5.449038
 30
0.0
 10
16.242335
 20
5.427926
 30
0.0
 10
16.229906
 20
5.408583
 30
0.0
 10
16.214763
 20
5.391275
 30
0.0
 10
16.197456
 20
5.376133
 30
0.0
 10
16.178118
 20
5.363705
 30
0.0
 10
16.157006
 20
5.354609
 30
0.0
 10
16.134660
 20
5.349214
 30
0.0
 10
16.111731
 20
5.347487
 30
0.0
 10
16.089041
 20
5.349078
 30
0.0
 10
16.066856
 20
5.354065
 30
0.0
 10
16.045762
 20
5.362542
 30
0.0
 10
16.026273
 20
5.374258
 30
0.0
 10
16.008700
 20
5.388700
 30
0.0
 10
15.994258
 20
5.406273
 30
0.0
 10
15.982541
 20
5.425765
 30
0.0
 10
15.974065
 20
5.446861
 30
0.0
 10
15.969078
 20
5.469046
 30
0.0
 10
15.967487
 20
5.491731
 30
0.0
 10
15.969021
 20
5.514913
 30
0.0
 10
15.973880
 20
5.537629
 30
0.0
 10
15.982262
 20
5.559293
 30
0.0
 10
15.994022
 20
5.579329
 30
0.0
 10
16.008700
 20
5.597338
 30
0.0
 10
16.025717
 20
5.612875
 30
0.0
 10
16.045048
 20
5.625404
 30
0.0
 10
16.066278
 20
5.634347
 30
0.0
 10
16.088740
 20
5.639510
 30
0.0
 10
16.111731
 20
5.641126
 30
0.0
 10
16.134726
 20
5.639509
 30
0.0
 10
16.157182
 20
5.634348
 30
0.0
 10
16.178415
 20
5.625404
 30
0.0
 10
16.197744
 20
5.612875
 30
0.0
 10
16.214763
 20
5.597338
 30
0.0
 10
16.230300
 20
5.580320
 30
0.0
 10
16.242830
 20
5.560989
 30
0.0
 10
16.251773
 20
5.539759
 30
0.0
 10
16.256935
 20
5.517297
 30
0.0
 10
16.258551
 20
5.494307
 30
0.0
  0
LWPOLYLINE
  5
112
100
AcDbEntity
  8
0
 62
7
100
AcDbPolyline
 90
21
 70
0
 10
16.225066
 20
3.861259
 30
0.0
 10
16.180762
 20
3.861259
 30
0.0
 10
16.136456
 20
3.861259
 30
0.0
 10
16.092154
 20
3.861259
 30
0.0
 10
16.047853
 20
3.861259
 30
0.0
 10
16.003548
 20
3.861259
 30
0.0
 10
16.003548
 20
4.119351
 30
0.0
 10
16.003548
 20
4.377443
 30
0.0
 10
16.003548
 20
4.635541
 30
0.0
 10
16.003548
 20
4.893630
 30
0.0
 10
16.003548
 20
5.151727
 30
0.0
 10
16.047851
 20
5.151727
 30
0.0
 10
16.092158
 20
5.151727
 30
0.0
 10
16.136460
 20
5.151727
 30
0.0
 10
16.180760
 20
5.151727
 30
0.0
 10
16.225066
 20
5.151727
 30
0.0
 10
16.225066
 20
4.893635
 30
0.0
 10
16.225066
 20
4.635543
 30
0.0
 10
16.225066
 20
4.377445
 30
0.0
 10
16.225066
 20
4.119356
 30
0.0
 10
16.225066
 20
3.861259
 30
0.0
  0
LWPOLYLINE
  5
113
100
AcDbEntity
  8
0
 62
7
100
AcDbPolyline
 90
66
 70
0
 10
17.361913
 20
3.861259
 30
0.0
 10
17.261458
 20
3.861259
 30
0.0
 10
17.161003
 20
3.861259
 30
0.0
 10
17.060549
 20
3.861259
 30
0.0
 10
16.960090
 20
3.861259
 30
0.0
 10
16.859635
 20
3.861259
 30
0.0
 10
16.746110
 20
3.871422
 30
0.0
 10
16.639155
 20
3.909854
 30
0.0
 10
16.555590
 20
3.986214
 30
0.0
 10
16.510954
 20
4.090554
 30
0.0
 10
16.499025
 20
4.203838
 30
0.0
 10
16.499025
 20
4.328506
 30
0.0
 10
16.499025
 20
4.453173
 30
0.0
 10
16.499025
 20
4.577839
 30
0.0
 10
16.499025
 20
4.702512
 30
0.0
 10
16.499025
 20
4.827178
 30
0.0
 10
16.507912
 20
4.928678
 30
0.0
 10
16.541546
 20
5.024556
 30
0.0
 10
16.608863
 20
5.100096
 30
0.0
 10
16.701749
 20
5.140821
 30
0.0
 10
16.802968
 20
5.151727
 30
0.0
 10
16.913726
 20
5.151727
 30
0.0
 10
17.024484
 20
5.151727
 30
0.0
 10
17.135241
 20
5.151727
 30
0.0
 10
17.246004
 20
5.151727
 30
0.0
 10
17.356762
 20
5.151727
 30
0.0
 10
17.356762
 20
5.107939
 30
0.0
 10
17.356762
 20
5.064148
 30
0.0
 10
17.356762
 20
5.020361
 30
0.0
 10
17.356762
 20
4.976575
 30
0.0
 10
17.356762
 20
4.932785
 30
0.0
 10
17.264549
 20
4.932785
 30
0.0
 10
17.172336
 20
4.932785
 30
0.0
 10
17.080125
 20
4.932785
 30
0.0
 10
16.987908
 20
4.932785
 30
0.0
 10
16.895696
 20
4.932785
 30
0.0
 10
16.866858
 20
4.931924
 30
0.0
 10
16.838163
 20
4.928951
 30
0.0
 10
16.809935
 20
4.923038
 30
0.0
 10
16.782969
 20
4.912887
 30
0.0
 10
16.759179
 20
4.896725
 30
0.0
 10
16.742039
 20
4.874574
 30
0.0
 10
16.731078
 20
4.848738
 30
0.0
 10
16.724679
 20
4.821383
 30
0.0
 10
16.721469
 20
4.793462
 30
0.0
 10
16.720542
 20
4.765360
 30
0.0
 10
16.720542
 20
4.663359
 30
0.0
 10
16.720542
 20
4.561359
 30
0.0
 10
16.720542
 20
4.459359
 30
0.0
 10
16.720542
 20
4.357354
 30
0.0
 10
16.720542
 20
4.255354
 30
0.0
 10
16.726818
 20
4.197699
 30
0.0
 10
16.750230
 20
4.144884
 30
0.0
 10
16.793481
 20
4.106770
 30
0.0
 10
16.848169
 20
4.087790
 30
0.0
 10
16.905999
 20
4.082777
 30
0.0
 10
16.997181
 20
4.082777
 30
0.0
 10
17.088364
 20
4.082777
 30
0.0
 10
17.179545
 20
4.082777
 30
0.0
 10
17.270731
 20
4.082777
 30
0.0
 10
17.361913
 20
4.082777
 30
0.0
 10
17.361913
 20
4.038473
 30
0.0
 10
17.361913
 20
3.994166
 30
0.0
 10
17.361913
 20
3.949864
 30
0.0
 10
17.361913
 20
3.905564
 30
0.0
 10
17.361913
 20
3.861259
 30
0.0
  0
LWPOLYLINE
  5
114
100
AcDbEntity
  8
0
 62
7
100
AcDbPolyline
 90
41
 70
0
 10
17.838232
 20
5.494307
 30
0.0
 10
17.836505
 20
5.471383
 30
0.0
 10
17.831111
 20
5.449038
 30
0.0
 10
17.822017
 20
5.427926
 30
0.0
 10
17.809587
 20
5.408583
 30
0.0
 10
17.794444
 20
5.391275
 30
0.0
 10
17.777138
 20
5.376133
 30
0.0
 10
17.757799
 20
5.363705
 30
0.0
 10
17.736688
 20
5.354609
 30
0.0
 10
17.714341
 20
5.349214
 30
0.0
 10
17.691413
 20
5.347487
 30
0.0
 10
17.668723
 20
5.349078
 30
0.0
 10
17.646538
 20
5.354065
 30
0.0
 10
17.625443
 20
5.362542
 30
0.0
 10
17.605955
 20
5.374258
 30
0.0
 10
17.588381
 20
5.388700
 30
0.0
 10
17.573940
 20
5.406273
 30
0.0
 10
17.562222
 20
5.425765
 30
0.0
 10
17.553746
 20
5.446861
 30
0.0
 10
17.548760
 20
5.469046
 30
0.0
 10
17.547169
 20
5.491731
 30
0.0
 10
17.548703
 20
5.514913
 30
0.0
 10
17.553562
 20
5.537629
 30
0.0
 10
17.561943
 20
5.559293
 30
0.0
 10
17.573704
 20
5.579329
 30
0.0
 10
17.588381
 20
5.597338
 30
0.0
 10
17.605398
 20
5.612875
 30
0.0
 10
17.624729
 20
5.625404
 30
0.0
 10
17.645959
 20
5.634347
 30
0.0
 10
17.668422
 20
5.639510
 30
0.0
 10
17.691413
 20
5.641126
 30
0.0
 10
17.714407
 20
5.639509
 30
0.0
 10
17.736864
 20
5.634348
 30
0.0
 10
17.758096
 20
5.625404
 30
0.0
 10
17.777426
 20
5.612875
 30
0.0
 10
17.794444
 20
5.597338
 30
0.0
 10
17.809982
 20
5.580320
 30
0.0
 10
17.822511
 20
5.560989
 30
0.0
 10
17.831454
 20
5.539759
 30
0.0
 10
17.836616
 20
5.517297
 30
0.0
 10
17.838232
 20
5.494307
 30
0.0
  0
LWPOLYLINE
  5
115
100
AcDbEntity
  8
0
 62
7
100
AcDbPolyline
 90
21
 70
0
 10
17.804747
 20
3.861259
 30
0.0
 10
17.760444
 20
3.861259
 30
0.0
 10
17.716137
 20
3.861259
 30
0.0
 10
17.671835
 20
3.861259
 30
0.0
 10
17.627535
 20
3.861259
 30
0.0
 10
17.583230
 20
3.861259
 30
0.0
 10
17.583230
 20
4.119351
 30
0.0
 10
17.583230
 20
4.377443
 30
0.0
 10
17.583230
 20
4.635541
 30
0.0
 10
17.583230
 20
4.893630
 30
0.0
 10
17.583230
 20
5.151727
 30
0.0
 10
17.627533
 20
5.151727
 30
0.0
 10
17.671840
 20
5.151727
 30
0.0
 10
17.716142
 20
5.151727
 30
0.0
 10
17.760442
 20
5.151727
 30
0.0
 10
17.804747
 20
5.151727
 30
0.0
 10
17.804747
 20
4.893635
 30
0.0
 10
17.804747
 20
4.635543
 30
0.0
 10
17.804747
 20
4.377445
 30
0.0
 10
17.804747
 20
4.119356
 30
0.0
 10
17.804747
 20
3.861259
 30
0.0
  0
LWPOLYLINE
  5
116
100
AcDbEntity
  8
0
 62
7
100
AcDbPolyline
 90
81
 70
0
 10
18.600208
 20
4.725347
 30
0.0
 10
18.561410
 20
4.725347
 30
0.0
 10
18.522489
 20
4.725347
 30
0.0
 10
18.483745
 20
4.725347
 30
0.0
 10
18.445044
 20
4.725347
 30
0.0
 10
18.406180
 20
4.725347
 30
0.0
 10
18.354312
 20
4.722395
 30
0.0
 10
18.302862
 20
4.712691
 30
0.0
 10
18.253673
 20
4.695334
 30
0.0
 10
18.208396
 20
4.670068
 30
0.0
 10
18.168055
 20
4.637153
 30
0.0
 10
18.134394
 20
4.597400
 30
0.0
 10
18.109045
 20
4.552021
 30
0.0
 10
18.092019
 20
4.502587
 30
0.0
 10
18.082721
 20
4.451400
 30
0.0
 10
18.079861
 20
4.399028
 30
0.0
 10
18.079861
 20
4.353175
 30
0.0
 10
18.079861
 20
4.307178
 30
0.0
 10
18.079861
 20
4.261389
 30
0.0
 10
18.079861
 20
4.215652
 30
0.0
 10
18.079861
 20
4.169722
 30
0.0
 10
18.082947
 20
4.118410
 30
0.0
 10
18.093362
 20
4.067851
 30
0.0
 10
18.112547
 20
4.019939
 30
0.0
 10
18.140886
 20
3.976833
 30
0.0
 10
18.176875
 20
3.940416
 30
0.0
 10
18.218388
 20
3.910289
 30
0.0
 10
18.264471
 20
3.887330
 30
0.0
 10
18.313058
 20
3.872077
 30
0.0
 10
18.363687
 20
3.863614
 30
0.0
 10
18.415000
 20
3.861041
 30
0.0
 10
18.452034
 20
3.861041
 30
0.0
 10
18.488806
 20
3.861041
 30
0.0
 10
18.526182
 20
3.861041
 30
0.0
 10
18.563118
 20
3.861041
 30
0.0
 10
18.600208
 20
3.861041
 30
0.0
 10
18.600208
 20
3.905130
 30
0.0
 10
18.600208
 20
3.949358
 30
0.0
 10
18.600208
 20
3.993386
 30
0.0
 10
18.600208
 20
4.037364
 30
0.0
 10
18.600208
 20
4.081528
 30
0.0
 10
18.571991
 20
4.081528
 30
0.0
 10
18.543975
 20
4.081528
 30
0.0
 10
18.515959
 20
4.081528
 30
0.0
 10
18.487612
 20
4.081528
 30
0.0
 10
18.459097
 20
4.081528
 30
0.0
 10
18.434088
 20
4.083466
 30
0.0
 10
18.409880
 20
4.089143
 30
0.0
 10
18.386599
 20
4.098345
 30
0.0
 10
18.364550
 20
4.110756
 30
0.0
 10
18.344444
 20
4.125625
 30
0.0
 10
18.328045
 20
4.142825
 30
0.0
 10
18.315274
 20
4.162455
 30
0.0
 10
18.306482
 20
4.184443
 30
0.0
 10
18.301755
 20
4.207568
 30
0.0
 10
18.300347
 20
4.231458
 30
0.0
 10
18.300347
 20
4.256148
 30
0.0
 10
18.300347
 20
4.280662
 30
0.0
 10
18.300347
 20
4.305176
 30
0.0
 10
18.300347
 20
4.329980
 30
0.0
 10
18.300347
 20
4.354930
 30
0.0
 10
18.305335
 20
4.406062
 30
0.0
 10
18.324181
 20
4.453924
 30
0.0
 10
18.360524
 20
4.490110
 30
0.0
 10
18.407935
 20
4.508685
 30
0.0
 10
18.459097
 20
4.513680
 30
0.0
 10
18.487314
 20
4.513680
 30
0.0
 10
18.515330
 20
4.513680
 30
0.0
 10
18.543346
 20
4.513680
 30
0.0
 10
18.571693
 20
4.513680
 30
0.0
 10
18.600208
 20
4.513680
 30
0.0
 10
18.600208
 20
4.556005
 30
0.0
 10
18.600208
 20
4.598464
 30
0.0
 10
18.600208
 20
4.640731
 30
0.0
 10
18.600208
 20
4.682950
 30
0.0
 10
18.600208
 20
4.725347
 30
0.0
 10
18.600208
 20
4.725347
 30
0.0
 10
18.600208
 20
4.725347
 30
0.0
 10
18.600208
 20
4.725347
 30
0.0
 10
18.600208
 20
4.725347
 30
0.0
 10
18.600208
 20
4.725347
 30
0.0
  0
LWPOLYLINE
  5
117
100
AcDbEntity
  8
0
 62
7
100
AcDbPolyline
 90
121
 70
0
 10
18.600208
 20
5.148680
 30
0.0
 10
18.496159
 20
5.148680
 30
0.0
 10
18.392314
 20
5.148680
 30
0.0
 10
18.288282
 20
5.148680
 30
0.0
 10
18.184312
 20
5.148680
 30
0.0
 10
18.079861
 20
5.148680
 30
0.0
 10
18.079861
 20
5.106355
 30
0.0
 10
18.079861
 20
5.063896
 30
0.0
 10
18.079861
 20
5.021629
 30
0.0
 10
18.079861
 20
4.979410
 30
0.0
 10
18.079861
 20
4.937014
 30
0.0
 10
18.183910
 20
4.937014
 30
0.0
 10
18.287755
 20
4.937014
 30
0.0
 10
18.391788
 20
4.937014
 30
0.0
 10
18.495757
 20
4.937014
 30
0.0
 10
18.600208
 20
4.937014
 30
0.0
 10
18.600208
 20
4.979339
 30
0.0
 10
18.600208
 20
5.021798
 30
0.0
 10
18.600208
 20
5.064065
 30
0.0
 10
18.600208
 20
5.106284
 30
0.0
 10
18.600208
 20
5.148680
 30
0.0
 10
18.600208
 20
5.148680
 30
0.0
 10
18.600208
 20
5.148680
 30
0.0
 10
18.600208
 20
5.148680
 30
0.0
 10
18.600208
 20
5.148680
 30
0.0
 10
18.600208
 20
5.148680
 30
0.0
 10
18.600208
 20
5.106355
 30
0.0
 10
18.600208
 20
5.063896
 30
0.0
 10
18.600208
 20
5.021629
 30
0.0
 10
18.600208
 20
4.979410
 30
0.0
 10
18.600208
 20
4.937014
 30
0.0
 10
18.633716
 20
4.937014
 30
0.0
 10
18.666985
 20
4.937014
 30
0.0
 10
18.700802
 20
4.937014
 30
0.0
 10
18.734220
 20
4.937014
 30
0.0
 10
18.767778
 20
4.937014
 30
0.0
 10
18.798244
 20
4.935254
 30
0.0
 10
18.828130
 20
4.929145
 30
0.0
 10
18.856405
 20
4.917264
 30
0.0
 10
18.880780
 20
4.899097
 30
0.0
 10
18.900069
 20
4.875278
 30
0.0
 10
18.914252
 20
4.847359
 30
0.0
 10
18.923849
 20
4.817583
 30
0.0
 10
18.930075
 20
4.787054
 30
0.0
 10
18.933708
 20
4.756479
 30
0.0
 10
18.935347
 20
4.725347
 30
0.0
 10
18.868332
 20
4.725347
 30
0.0
 10
18.801106
 20
4.725347
 30
0.0
 10
18.734183
 20
4.725347
 30
0.0
 10
18.667336
 20
4.725347
 30
0.0
 10
18.600208
 20
4.725347
 30
0.0
 10
18.600208
 20
4.683022
 30
0.0
 10
18.600208
 20
4.640563
 30
0.0
 10
18.600208
 20
4.598296
 30
0.0
 10
18.600208
 20
4.556077
 30
0.0
 10
18.600208
 20
4.513680
 30
0.0
 10
18.656642
 20
4.513680
 30
0.0
 10
18.713254
 20
4.513680
 30
0.0
 10
18.769610
 20
4.513680
 30
0.0
 10
18.825902
 20
4.513680
 30
0.0
 10
18.882430
 20
4.513680
 30
0.0
 10
18.897018
 20
4.513095
 30
0.0
 10
18.911258
 20
4.510682
 30
0.0
 10
18.924348
 20
4.504602
 30
0.0
 10
18.933060
 20
4.492839
 30
0.0
 10
18.935347
 20
4.478403
 30
0.0
 10
18.935347
 20
4.427260
 30
0.0
 10
18.935347
 20
4.375955
 30
0.0
 10
18.935347
 20
4.324882
 30
0.0
 10
18.935347
 20
4.273868
 30
0.0
 10
18.935347
 20
4.222639
 30
0.0
 10
18.929646
 20
4.174360
 30
0.0
 10
18.908687
 20
4.130841
 30
0.0
 10
18.871204
 20
4.100356
 30
0.0
 10
18.825201
 20
4.085491
 30
0.0
 10
18.776597
 20
4.081528
 30
0.0
 10
18.741326
 20
4.081528
 30
0.0
 10
18.706305
 20
4.081528
 30
0.0
 10
18.670709
 20
4.081528
 30
0.0
 10
18.635532
 20
4.081528
 30
0.0
 10
18.600208
 20
4.081528
 30
0.0
 10
18.600208
 20
4.037439
 30
0.0
 10
18.600208
 20
3.993211
 30
0.0
 10
18.600208
 20
3.949183
 30
0.0
 10
18.600208
 20
3.905205
 30
0.0
 10
18.600208
 20
3.861041
 30
0.0
 10
18.647824
 20
3.861041
 30
0.0
 10
18.695590
 20
3.861041
 30
0.0
 10
18.743141
 20
3.861041
 30
0.0
 10
18.790637
 20
3.861041
 30
0.0
 10
18.838333
 20
3.861041
 30
0.0
 10
18.888924
 20
3.863985
 30
0.0
 10
18.938274
 20
3.873449
 30
0.0
 10
18.985737
 20
3.890536
 30
0.0
 10
19.029663
 20
3.916008
 30
0.0
 10
19.067639
 20
3.949236
 30
0.0
 10
19.100082
 20
3.990103
 30
0.0
 10
19.125157
 20
4.035693
 30
0.0
 10
19.142593
 20
4.084588
 30
0.0
 10
19.152634
 20
4.135488
 30
0.0
 10
19.155833
 20
4.187361
 30
0.0
 10
19.155833
 20
4.314336
 30
0.0
 10
19.155833
 20
4.441062
 30
0.0
 10
19.155833
 20
4.568017
 30
0.0
 10
19.155833
 20
4.695225
 30
0.0
 10
19.155833
 20
4.822361
 30
0.0
 10
19.143051
 20
4.932939
 30
0.0
 10
19.095830
 20
5.033380
 30
0.0
 10
19.011067
 20
5.104251
 30
0.0
 10
18.905236
 20
5.139409
 30
0.0
 10
18.794236
 20
5.148680
 30
0.0
 10
18.755438
 20
5.148680
 30
0.0
 10
18.716517
 20
5.148680
 30
0.0
 10
18.677772
 20
5.148680
 30
0.0
 10
18.639072
 20
5.148680
 30
0.0
 10
18.600208
 20
5.148680
 30
0.0
 10
18.600208
 20
5.148680
 30
0.0
 10
18.600208
 20
5.148680
 30
0.0
 10
18.600208
 20
5.148680
 30
0.0
 10
18.600208
 20
5.148680
 30
0.0
 10
18.600208
 20
5.148680
 30
0.0
  0
LWPOLYLINE
  5
118
100
AcDbEntity
  8
0
 62
7
100
AcDbPolyline
 90
21
 70
0
 10
19.648485
 20
3.861259
 30
0.0
 10
19.604182
 20
3.861259
 30
0.0
 10
19.559875
 20
3.861259
 30
0.0
 10
19.515574
 20
3.861259
 30
0.0
 10
19.471273
 20
3.861259
 30
0.0
 10
19.426968
 20
3.861259
 30
0.0
 10
19.426968
 20
4.210534
 30
0.0
 10
19.426968
 20
4.559808
 30
0.0
 10
19.426968
 20
4.909085
 30
0.0
 10
19.426968
 20
5.258365
 30
0.0
 10
19.426968
 20
5.607641
 30
0.0
 10
19.471271
 20
5.607641
 30
0.0
 10
19.515578
 20
5.607641
 30
0.0
 10
19.559880
 20
5.607641
 30
0.0
 10
19.604180
 20
5.607641
 30
0.0
 10
19.648485
 20
5.607641
 30
0.0
 10
19.648485
 20
5.258367
 30
0.0
 10
19.648485
 20
4.909093
 30
0.0
 10
19.648485
 20
4.559816
 30
0.0
 10
19.648485
 20
4.210536
 30
0.0
 10
19.648485
 20
3.861259
 30
0.0
  0
LWPOLYLINE
  5
119
100
AcDbEntity
  8
0
 62
7
100
AcDbPolyline
 90
21
 70
0
 10
20.667893
 20
3.861259
 30
0.0
 10
20.617923
 20
3.861259
 30
0.0
 10
20.567949
 20
3.861259
 30
0.0
 10
20.517981
 20
3.861259
 30
0.0
 10
20.468014
 20
3.861259
 30
0.0
 10
20.418042
 20
3.861259
 30
0.0
 10
20.418042
 20
4.204867
 30
0.0
 10
20.418042
 20
4.548474
 30
0.0
 10
20.418042
 20
4.892084
 30
0.0
 10
20.418042
 20
5.235698
 30
0.0
 10
20.418042
 20
5.579307
 30
0.0
 10
20.468012
 20
5.579307
 30
0.0
 10
20.517986
 20
5.579307
 30
0.0
 10
20.567954
 20
5.579307
 30
0.0
 10
20.617921
 20
5.579307
 30
0.0
 10
20.667893
 20
5.579307
 30
0.0
 10
20.667893
 20
5.235700
 30
0.0
 10
20.667893
 20
4.892092
 30
0.0
 10
20.667893
 20
4.548482
 30
0.0
 10
20.667893
 20
4.204869
 30
0.0
 10
20.667893
 20
3.861259
 30
0.0
  0
LWPOLYLINE
  5
11a
100
AcDbEntity
  8
0
 62
7
100
AcDbPolyline
 90
61
 70
0
 10
22.002472
 20
3.861259
 30
0.0
 10
21.958683
 20
3.861259
 30
0.0
 10
21.914892
 20
3.861259
 30
0.0
 10
21.871105
 20
3.861259
 30
0.0
 10
21.827320
 20
3.861259
 30
0.0
 10
21.783530
 20
3.861259
 30
0.0
 10
21.783530
 20
4.044139
 30
0.0
 10
21.783530
 20
4.227018
 30
0.0
 10
21.783530
 20
4.409896
 30
0.0
 10
21.783530
 20
4.592776
 30
0.0
 10
21.783530
 20
4.775663
 30
0.0
 10
21.776545
 20
4.830728
 30
0.0
 10
21.750995
 20
4.879716
 30
0.0
 10
21.706747
 20
4.912809
 30
0.0
 10
21.653537
 20
4.928621
 30
0.0
 10
21.598073
 20
4.932785
 30
0.0
 10
21.548618
 20
4.932785
 30
0.0
 10
21.499160
 20
4.932785
 30
0.0
 10
21.449706
 20
4.932785
 30
0.0
 10
21.400255
 20
4.932785
 30
0.0
 10
21.350798
 20
4.932785
 30
0.0
 10
21.294891
 20
4.928675
 30
0.0
 10
21.241169
 20
4.913065
 30
0.0
 10
21.196193
 20
4.880226
 30
0.0
 10
21.169962
 20
4.831125
 30
0.0
 10
21.162766
 20
4.775663
 30
0.0
 10
21.162766
 20
4.592783
 30
0.0
 10
21.162766
 20
4.409903
 30
0.0
 10
21.162766
 20
4.227025
 30
0.0
 10
21.162766
 20
4.044145
 30
0.0
 10
21.162766
 20
3.861259
 30
0.0
 10
21.118462
 20
3.861259
 30
0.0
 10
21.074156
 20
3.861259
 30
0.0
 10
21.029854
 20
3.861259
 30
0.0
 10
20.985553
 20
3.861259
 30
0.0
 10
20.941248
 20
3.861259
 30
0.0
 10
20.941248
 20
4.056502
 30
0.0
 10
20.941248
 20
4.251746
 30
0.0
 10
20.941248
 20
4.446987
 30
0.0
 10
20.941248
 20
4.642231
 30
0.0
 10
20.941248
 20
4.837481
 30
0.0
 10
20.952658
 20
4.942425
 30
0.0
 10
20.995221
 20
5.038576
 30
0.0
 10
21.073891
 20
5.108001
 30
0.0
 10
21.173419
 20
5.142591
 30
0.0
 10
21.278676
 20
5.151727
 30
0.0
 10
21.356464
 20
5.151727
 30
0.0
 10
21.434252
 20
5.151727
 30
0.0
 10
21.512040
 20
5.151727
 30
0.0
 10
21.589831
 20
5.151727
 30
0.0
 10
21.667619
 20
5.151727
 30
0.0
 10
21.772443
 20
5.142519
 30
0.0
 10
21.871421
 20
5.107675
 30
0.0
 10
21.949311
 20
5.038009
 30
0.0
 10
21.991245
 20
4.942021
 30
0.0
 10
22.002472
 20
4.837481
 30
0.0
 10
22.002472
 20
4.642238
 30
0.0
 10
22.002472
 20
4.446995
 30
0.0
 10
22.002472
 20
4.251753
 30
0.0
 10
22.002472
 20
4.056509
 30
0.0
 10
22.002472
 20
3.861259
 30
0.0
  0
LWPOLYLINE
  5
11b
100
AcDbEntity
  8
0
 62
7
100
AcDbPolyline
 90
41
 70
0
 10
22.786758
 20
4.932785
 30
0.0
 10
22.730606
 20
4.932785
 30
0.0
 10
22.674455
 20
4.932785
 30
0.0
 10
22.618303
 20
4.932785
 30
0.0
 10
22.562154
 20
4.932785
 30
0.0
 10
22.505998
 20
4.932785
 30
0.0
 10
22.505998
 20
4.718481
 30
0.0
 10
22.505998
 20
4.504177
 30
0.0
 10
22.505998
 20
4.289868
 30
0.0
 10
22.505998
 20
4.075567
 30
0.0
 10
22.505998
 20
3.861259
 30
0.0
 10
22.461694
 20
3.861259
 30
0.0
 10
22.417388
 20
3.861259
 30
0.0
 10
22.373086
 20
3.861259
 30
0.0
 10
22.328785
 20
3.861259
 30
0.0
 10
22.284480
 20
3.861259
 30
0.0
 10
22.284480
 20
4.210534
 30
0.0
 10
22.284480
 20
4.559808
 30
0.0
 10
22.284480
 20
4.909085
 30
0.0
 10
22.284480
 20
5.258365
 30
0.0
 10
22.284480
 20
5.607641
 30
0.0
 10
22.328783
 20
5.607641
 30
0.0
 10
22.373090
 20
5.607641
 30
0.0
 10
22.417392
 20
5.607641
 30
0.0
 10
22.461692
 20
5.607641
 30
0.0
 10
22.505998
 20
5.607641
 30
0.0
 10
22.505998
 20
5.516459
 30
0.0
 10
22.505998
 20
5.425277
 30
0.0
 10
22.505998
 20
5.334095
 30
0.0
 10
22.505998
 20
5.242909
 30
0.0
 10
22.505998
 20
5.151727
 30
0.0
 10
22.562149
 20
5.151727
 30
0.0
 10
22.618301
 20
5.151727
 30
0.0
 10
22.674452
 20
5.151727
 30
0.0
 10
22.730602
 20
5.151727
 30
0.0
 10
22.786758
 20
5.151727
 30
0.0
 10
22.786758
 20
5.107939
 30
0.0
 10
22.786758
 20
5.064148
 30
0.0
 10
22.786758
 20
5.020361
 30
0.0
 10
22.786758
 20
4.976575
 30
0.0
 10
22.786758
 20
4.932785
 30
0.0
  0
LWPOLYLINE
  5
11c
100
AcDbEntity
  8
0
 62
7
100
AcDbPolyline
 90
151
 70
0
 10
23.433264
 20
5.148680
 30
0.0
 10
23.411847
 20
5.148680
 30
0.0
 10
23.390846
 20
5.148680
 30
0.0
 10
23.369891
 20
5.148680
 30
0.0
 10
23.348714
 20
5.148680
 30
0.0
 10
23.327430
 20
5.148680
 30
0.0
 10
23.217702
 20
5.139420
 30
0.0
 10
23.113496
 20
5.103971
 30
0.0
 10
23.030934
 20
5.031979
 30
0.0
 10
22.986508
 20
4.931884
 30
0.0
 10
22.974653
 20
4.822361
 30
0.0
 10
22.974653
 20
4.700676
 30
0.0
 10
22.974653
 20
4.579231
 30
0.0
 10
22.974653
 20
4.457565
 30
0.0
 10
22.974653
 20
4.335974
 30
0.0
 10
22.974653
 20
4.213819
 30
0.0
 10
22.977664
 20
4.151758
 30
0.0
 10
22.987941
 20
4.090085
 30
0.0
 10
23.007448
 20
4.030951
 30
0.0
 10
23.038024
 20
3.977035
 30
0.0
 10
23.080486
 20
3.931597
 30
0.0
 10
23.127142
 20
3.901124
 30
0.0
 10
23.179234
 20
3.880990
 30
0.0
 10
23.233674
 20
3.868958
 30
0.0
 10
23.289193
 20
3.862825
 30
0.0
 10
23.345069
 20
3.861041
 30
0.0
 10
23.484390
 20
3.861041
 30
0.0
 10
23.623793
 20
3.861041
 30
0.0
 10
23.763007
 20
3.861041
 30
0.0
 10
23.902461
 20
3.861041
 30
0.0
 10
24.041805
 20
3.861041
 30
0.0
 10
24.041805
 20
3.905130
 30
0.0
 10
24.041805
 20
3.949358
 30
0.0
 10
24.041805
 20
3.993386
 30
0.0
 10
24.041805
 20
4.037364
 30
0.0
 10
24.041805
 20
4.081528
 30
0.0
 10
23.911303
 20
4.081528
 30
0.0
 10
23.780722
 20
4.081528
 30
0.0
 10
23.650320
 20
4.081528
 30
0.0
 10
23.519692
 20
4.081528
 30
0.0
 10
23.389167
 20
4.081528
 30
0.0
 10
23.359600
 20
4.082620
 30
0.0
 10
23.330487
 20
4.086026
 30
0.0
 10
23.301718
 20
4.092161
 30
0.0
 10
23.273532
 20
4.101934
 30
0.0
 10
23.248055
 20
4.116805
 30
0.0
 10
23.225777
 20
4.138941
 30
0.0
 10
23.210117
 20
4.165801
 30
0.0
 10
23.200807
 20
4.195656
 30
0.0
 10
23.196349
 20
4.226655
 30
0.0
 10
23.195139
 20
4.257916
 30
0.0
 10
23.195139
 20
4.266840
 30
0.0
 10
23.195139
 20
4.275590
 30
0.0
 10
23.195139
 20
4.284322
 30
0.0
 10
23.195139
 20
4.293329
 30
0.0
 10
23.195139
 20
4.302014
 30
0.0
 10
23.242755
 20
4.321413
 30
0.0
 10
23.290521
 20
4.340873
 30
0.0
 10
23.338071
 20
4.360245
 30
0.0
 10
23.385567
 20
4.379596
 30
0.0
 10
23.433264
 20
4.399028
 30
0.0
 10
23.433264
 20
4.441353
 30
0.0
 10
23.433264
 20
4.483812
 30
0.0
 10
23.433264
 20
4.526079
 30
0.0
 10
23.433264
 20
4.568297
 30
0.0
 10
23.433264
 20
4.610694
 30
0.0
 10
23.385648
 20
4.591295
 30
0.0
 10
23.337882
 20
4.571835
 30
0.0
 10
23.290331
 20
4.552462
 30
0.0
 10
23.242835
 20
4.533112
 30
0.0
 10
23.195139
 20
4.513680
 30
0.0
 10
23.195139
 20
4.564823
 30
0.0
 10
23.195139
 20
4.616128
 30
0.0
 10
23.195139
 20
4.667200
 30
0.0
 10
23.195139
 20
4.718215
 30
0.0
 10
23.195139
 20
4.769444
 30
0.0
 10
23.203149
 20
4.828864
 30
0.0
 10
23.232088
 20
4.881342
 30
0.0
 10
23.280372
 20
4.915926
 30
0.0
 10
23.337971
 20
4.932582
 30
0.0
 10
23.397986
 20
4.937014
 30
0.0
 10
23.404788
 20
4.937014
 30
0.0
 10
23.411802
 20
4.937014
 30
0.0
 10
23.418862
 20
4.937014
 30
0.0
 10
23.426181
 20
4.937014
 30
0.0
 10
23.433264
 20
4.937014
 30
0.0
 10
23.433264
 20
4.979339
 30
0.0
 10
23.433264
 20
5.021798
 30
0.0
 10
23.433264
 20
5.064065
 30
0.0
 10
23.433264
 20
5.106284
 30
0.0
 10
23.433264
 20
5.148680
 30
0.0
 10
23.433264
 20
5.148680
 30
0.0
 10
23.433264
 20
5.148680
 30
0.0
 10
23.433264
 20
5.148680
 30
0.0
 10
23.433264
 20
5.148680
 30
0.0
 10
23.433264
 20
5.148680
 30
0.0
 10
23.433264
 20
5.106355
 30
0.0
 10
23.433264
 20
5.063896
 30
0.0
 10
23.433264
 20
5.021629
 30
0.0
 10
23.433264
 20
4.979410
 30
0.0
 10
23.433264
 20
4.937014
 30
0.0
 10
23.475589
 20
4.937014
 30
0.0
 10
23.518048
 20
4.937014
 30
0.0
 10
23.560315
 20
4.937014
 30
0.0
 10
23.602534
 20
4.937014
 30
0.0
 10
23.644930
 20
4.937014
 30
0.0
 10
23.696582
 20
4.932823
 30
0.0
 10
23.745425
 20
4.916989
 30
0.0
 10
23.784893
 20
4.884448
 30
0.0
 10
23.806662
 20
4.838146
 30
0.0
 10
23.812500
 20
4.787083
 30
0.0
 10
23.812500
 20
4.783682
 30
0.0
 10
23.812500
 20
4.779883
 30
0.0
 10
23.812500
 20
4.776194
 30
0.0
 10
23.812500
 20
4.773024
 30
0.0
 10
23.812500
 20
4.769444
 30
0.0
 10
23.736667
 20
4.737700
 30
0.0
 10
23.660595
 20
4.705856
 30
0.0
 10
23.584867
 20
4.674156
 30
0.0
 10
23.509224
 20
4.642492
 30
0.0
 10
23.433264
 20
4.610694
 30
0.0
 10
23.433264
 20
4.568369
 30
0.0
 10
23.433264
 20
4.525910
 30
0.0
 10
23.433264
 20
4.483643
 30
0.0
 10
23.433264
 20
4.441424
 30
0.0
 10
23.433264
 20
4.399028
 30
0.0
 10
23.554949
 20
4.448407
 30
0.0
 10
23.676706
 20
4.497816
 30
0.0
 10
23.798298
 20
4.547157
 30
0.0
 10
23.920099
 20
4.596584
 30
0.0
 10
24.041805
 20
4.645972
 30
0.0
 10
24.041805
 20
4.677716
 30
0.0
 10
24.041805
 20
4.709234
 30
0.0
 10
24.041805
 20
4.741271
 30
0.0
 10
24.041805
 20
4.772930
 30
0.0
 10
24.041805
 20
4.804722
 30
0.0
 10
24.032331
 20
4.913078
 30
0.0
 10
23.996151
 20
5.015307
 30
0.0
 10
23.923412
 20
5.095191
 30
0.0
 10
23.823534
 20
5.137524
 30
0.0
 10
23.715486
 20
5.148680
 30
0.0
 10
23.659052
 20
5.148680
 30
0.0
 10
23.602441
 20
5.148680
 30
0.0
 10
23.546084
 20
5.148680
 30
0.0
 10
23.489793
 20
5.148680
 30
0.0
 10
23.433264
 20
5.148680
 30
0.0
 10
23.433264
 20
5.148680
 30
0.0
 10
23.433264
 20
5.148680
 30
0.0
 10
23.433264
 20
5.148680
 30
0.0
 10
23.433264
 20
5.148680
 30
0.0
 10
23.433264
 20
5.148680
 30
0.0
  0
LWPOLYLINE
  5
11d
100
AcDbEntity
  8
0
 62
7
100
AcDbPolyline
 90
21
 70
0
 10
24.523361
 20
3.861259
 30
0.0
 10
24.479057
 20
3.861259
 30
0.0
 10
24.434751
 20
3.861259
 30
0.0
 10
24.390449
 20
3.861259
 30
0.0
 10
24.346148
 20
3.861259
 30
0.0
 10
24.301843
 20
3.861259
 30
0.0
 10
24.301843
 20
4.210534
 30
0.0
 10
24.301843
 20
4.559808
 30
0.0
 10
24.301843
 20
4.909085
 30
0.0
 10
24.301843
 20
5.258365
 30
0.0
 10
24.301843
 20
5.607641
 30
0.0
 10
24.346147
 20
5.607641
 30
0.0
 10
24.390453
 20
5.607641
 30
0.0
 10
24.434755
 20
5.607641
 30
0.0
 10
24.479056
 20
5.607641
 30
0.0
 10
24.523361
 20
5.607641
 30
0.0
 10
24.523361
 20
5.258367
 30
0.0
 10
24.523361
 20
4.909093
 30
0.0
 10
24.523361
 20
4.559816
 30
0.0
 10
24.523361
 20
4.210536
 30
0.0
 10
24.523361
 20
3.861259
 30
0.0
  0
LWPOLYLINE
  5
11e
100
AcDbEntity
  8
0
 62
7
100
AcDbPolyline
 90
21
 70
0
 10
25.016382
 20
3.861259
 30
0.0
 10
24.972079
 20
3.861259
 30
0.0
 10
24.927772
 20
3.861259
 30
0.0
 10
24.883470
 20
3.861259
 30
0.0
 10
24.839170
 20
3.861259
 30
0.0
 10
24.794865
 20
3.861259
 30
0.0
 10
24.794865
 20
4.210534
 30
0.0
 10
24.794865
 20
4.559808
 30
0.0
 10
24.794865
 20
4.909085
 30
0.0
 10
24.794865
 20
5.258365
 30
0.0
 10
24.794865
 20
5.607641
 30
0.0
 10
24.839168
 20
5.607641
 30
0.0
 10
24.883474
 20
5.607641
 30
0.0
 10
24.927776
 20
5.607641
 30
0.0
 10
24.972077
 20
5.607641
 30
0.0
 10
25.016382
 20
5.607641
 30
0.0
 10
25.016382
 20
5.258367
 30
0.0
 10
25.016382
 20
4.909093
 30
0.0
 10
25.016382
 20
4.559816
 30
0.0
 10
25.016382
 20
4.210536
 30
0.0
 10
25.016382
 20
3.861259
 30
0.0
  0
LWPOLYLINE
  5
11f
100
AcDbEntity
  8
0
 62
7
100
AcDbPolyline
 90
41
 70
0
 10
25.545464
 20
5.494307
 30
0.0
 10
25.543737
 20
5.471383
 30
0.0
 10
25.538343
 20
5.449038
 30
0.0
 10
25.529248
 20
5.427926
 30
0.0
 10
25.516819
 20
5.408583
 30
0.0
 10
25.501676
 20
5.391275
 30
0.0
 10
25.484370
 20
5.376133
 30
0.0
 10
25.465031
 20
5.363705
 30
0.0
 10
25.443919
 20
5.354609
 30
0.0
 10
25.421573
 20
5.349214
 30
0.0
 10
25.398644
 20
5.347487
 30
0.0
 10
25.375955
 20
5.349078
 30
0.0
 10
25.353769
 20
5.354065
 30
0.0
 10
25.332675
 20
5.362542
 30
0.0
 10
25.313187
 20
5.374258
 30
0.0
 10
25.295613
 20
5.388700
 30
0.0
 10
25.281171
 20
5.406273
 30
0.0
 10
25.269454
 20
5.425765
 30
0.0
 10
25.260978
 20
5.446861
 30
0.0
 10
25.255991
 20
5.469046
 30
0.0
 10
25.254400
 20
5.491731
 30
0.0
 10
25.255934
 20
5.514913
 30
0.0
 10
25.260793
 20
5.537629
 30
0.0
 10
25.269175
 20
5.559293
 30
0.0
 10
25.280935
 20
5.579329
 30
0.0
 10
25.295613
 20
5.597338
 30
0.0
 10
25.312630
 20
5.612875
 30
0.0
 10
25.331961
 20
5.625404
 30
0.0
 10
25.353191
 20
5.634347
 30
0.0
 10
25.375653
 20
5.639510
 30
0.0
 10
25.398644
 20
5.641126
 30
0.0
 10
25.421639
 20
5.639509
 30
0.0
 10
25.444095
 20
5.634348
 30
0.0
 10
25.465328
 20
5.625404
 30
0.0
 10
25.484658
 20
5.612875
 30
0.0
 10
25.501676
 20
5.597338
 30
0.0
 10
25.517213
 20
5.580320
 30
0.0
 10
25.529743
 20
5.560989
 30
0.0
 10
25.538686
 20
5.539759
 30
0.0
 10
25.543848
 20
5.517297
 30
0.0
 10
25.545464
 20
5.494307
 30
0.0
  0
LWPOLYLINE
  5
120
100
AcDbEntity
  8
0
 62
7
100
AcDbPolyline
 90
21
 70
0
 10
25.511979
 20
3.861259
 30
0.0
 10
25.467676
 20
3.861259
 30
0.0
 10
25.423369
 20
3.861259
 30
0.0
 10
25.379067
 20
3.861259
 30
0.0
 10
25.334766
 20
3.861259
 30
0.0
 10
25.290461
 20
3.861259
 30
0.0
 10
25.290461
 20
4.119351
 30
0.0
 10
25.290461
 20
4.377443
 30
0.0
 10
25.290461
 20
4.635541
 30
0.0
 10
25.290461
 20
4.893630
 30
0.0
 10
25.290461
 20
5.151727
 30
0.0
 10
25.334765
 20
5.151727
 30
0.0
 10
25.379071
 20
5.151727
 30
0.0
 10
25.423373
 20
5.151727
 30
0.0
 10
25.467674
 20
5.151727
 30
0.0
 10
25.511979
 20
5.151727
 30
0.0
 10
25.511979
 20
4.893635
 30
0.0
 10
25.511979
 20
4.635543
 30
0.0
 10
25.511979
 20
4.377445
 30
0.0
 10
25.511979
 20
4.119356
 30
0.0
 10
25.511979
 20
3.861259
 30
0.0
  0
LWPOLYLINE
  5
121
100
AcDbEntity
  8
0
 62
7
100
AcDbPolyline
 90
176
 70
0
 10
26.334861
 20
3.861041
 30
0.0
 10
26.396585
 20
3.861041
 30
0.0
 10
26.458504
 20
3.861041
 30
0.0
 10
26.520144
 20
3.861041
 30
0.0
 10
26.581713
 20
3.861041
 30
0.0
 10
26.643542
 20
3.861041
 30
0.0
 10
26.642932
 20
3.825104
 30
0.0
 10
26.640881
 20
3.789294
 30
0.0
 10
26.636831
 20
3.753416
 30
0.0
 10
26.629732
 20
3.718022
 30
0.0
 10
26.617083
 20
3.684653
 30
0.0
 10
26.594359
 20
3.657667
 30
0.0
 10
26.563668
 20
3.639407
 30
0.0
 10
26.529453
 20
3.629119
 30
0.0
 10
26.493829
 20
3.624233
 30
0.0
 10
26.458333
 20
3.622916
 30
0.0
 10
26.322540
 20
3.622916
 30
0.0
 10
26.186666
 20
3.622916
 30
0.0
 10
26.050977
 20
3.622916
 30
0.0
 10
25.915053
 20
3.622916
 30
0.0
 10
25.779236
 20
3.622916
 30
0.0
 10
25.779236
 20
3.578828
 30
0.0
 10
25.779236
 20
3.534600
 30
0.0
 10
25.779236
 20
3.490571
 30
0.0
 10
25.779236
 20
3.446594
 30
0.0
 10
25.779236
 20
3.402430
 30
0.0
 10
25.920320
 20
3.402430
 30
0.0
 10
26.061488
 20
3.402430
 30
0.0
 10
26.202464
 20
3.402430
 30
0.0
 10
26.343683
 20
3.402430
 30
0.0
 10
26.484792
 20
3.402430
 30
0.0
 10
26.601367
 20
3.412191
 30
0.0
 10
26.712292
 20
3.449161
 30
0.0
 10
26.801520
 20
3.524277
 30
0.0
 10
26.850699
 20
3.629925
 30
0.0
 10
26.864028
 20
3.746389
 30
0.0
 10
26.864028
 20
3.959778
 30
0.0
 10
26.864028
 20
4.173295
 30
0.0
 10
26.864028
 20
4.386520
 30
0.0
 10
26.864028
 20
4.600114
 30
0.0
 10
26.864028
 20
4.813541
 30
0.0
 10
26.861682
 20
4.871070
 30
0.0
 10
26.853807
 20
4.927689
 30
0.0
 10
26.838484
 20
4.983092
 30
0.0
 10
26.813269
 20
5.034695
 30
0.0
 10
26.775833
 20
5.078125
 30
0.0
 10
26.728132
 20
5.110244
 30
0.0
 10
26.674183
 20
5.130315
 30
0.0
 10
26.617603
 20
5.141672
 30
0.0
 10
26.560218
 20
5.147150
 30
0.0
 10
26.502430
 20
5.148680
 30
0.0
 10
26.468923
 20
5.148680
 30
0.0
 10
26.435653
 20
5.148680
 30
0.0
 10
26.401837
 20
5.148680
 30
0.0
 10
26.368419
 20
5.148680
 30
0.0
 10
26.334861
 20
5.148680
 30
0.0
 10
26.334861
 20
5.106355
 30
0.0
 10
26.334861
 20
5.063896
 30
0.0
 10
26.334861
 20
5.021629
 30
0.0
 10
26.334861
 20
4.979410
 30
0.0
 10
26.334861
 20
4.937014
 30
0.0
 10
26.359551
 20
4.937014
 30
0.0
 10
26.384065
 20
4.937014
 30
0.0
 10
26.408579
 20
4.937014
 30
0.0
 10
26.433383
 20
4.937014
 30
0.0
 10
26.458333
 20
4.937014
 30
0.0
 10
26.491551
 20
4.934603
 30
0.0
 10
26.524216
 20
4.927050
 30
0.0
 10
26.554865
 20
4.914422
 30
0.0
 10
26.583155
 20
4.896903
 30
0.0
 10
26.608264
 20
4.875278
 30
0.0
 10
26.624536
 20
4.852447
 30
0.0
 10
26.634446
 20
4.826328
 30
0.0
 10
26.640019
 20
4.799028
 30
0.0
 10
26.642773
 20
4.770927
 30
0.0
 10
26.643542
 20
4.742986
 30
0.0
 10
26.643542
 20
4.621301
 30
0.0
 10
26.643542
 20
4.499856
 30
0.0
 10
26.643542
 20
4.378190
 30
0.0
 10
26.643542
 20
4.256599
 30
0.0
 10
26.643542
 20
4.134444
 30
0.0
 10
26.641453
 20
4.117445
 30
0.0
 10
26.634727
 20
4.102331
 30
0.0
 10
26.622721
 20
4.090331
 30
0.0
 10
26.607248
 20
4.083517
 30
0.0
 10
26.590625
 20
4.081528
 30
0.0
 10
26.539482
 20
4.081528
 30
0.0
 10
26.488177
 20
4.081528
 30
0.0
 10
26.437105
 20
4.081528
 30
0.0
 10
26.386090
 20
4.081528
 30
0.0
 10
26.334861
 20
4.081528
 30
0.0
 10
26.334861
 20
4.037439
 30
0.0
 10
26.334861
 20
3.993211
 30
0.0
 10
26.334861
 20
3.949183
 30
0.0
 10
26.334861
 20
3.905205
 30
0.0
 10
26.334861
 20
3.861041
 30
0.0
 10
26.334861
 20
3.861041
 30
0.0
 10
26.334861
 20
3.861041
 30
0.0
 10
26.334861
 20
3.861041
 30
0.0
 10
26.334861
 20
3.861041
 30
0.0
 10
26.334861
 20
3.861041
 30
0.0
 10
26.334861
 20
3.905130
 30
0.0
 10
26.334861
 20
3.949358
 30
0.0
 10
26.334861
 20
3.993386
 30
0.0
 10
26.334861
 20
4.037364
 30
0.0
 10
26.334861
 20
4.081528
 30
0.0
 10
26.308408
 20
4.081528
 30
0.0
 10
26.282142
 20
4.081528
 30
0.0
 10
26.255878
 20
4.081528
 30
0.0
 10
26.229302
 20
4.081528
 30
0.0
 10
26.202569
 20
4.081528
 30
0.0
 10
26.143058
 20
4.086683
 30
0.0
 10
26.086325
 20
4.106047
 30
0.0
 10
26.040917
 20
4.144553
 30
0.0
 10
26.015550
 20
4.198377
 30
0.0
 10
26.008542
 20
4.257916
 30
0.0
 10
26.008542
 20
4.358439
 30
0.0
 10
26.008542
 20
4.458763
 30
0.0
 10
26.008542
 20
4.559269
 30
0.0
 10
26.008542
 20
4.659714
 30
0.0
 10
26.008542
 20
4.760625
 30
0.0
 10
26.014302
 20
4.817397
 30
0.0
 10
26.035540
 20
4.870180
 30
0.0
 10
26.075595
 20
4.910160
 30
0.0
 10
26.128165
 20
4.931258
 30
0.0
 10
26.184930
 20
4.937014
 30
0.0
 10
26.214911
 20
4.937014
 30
0.0
 10
26.244678
 20
4.937014
 30
0.0
 10
26.274935
 20
4.937014
 30
0.0
 10
26.304836
 20
4.937014
 30
0.0
 10
26.334861
 20
4.937014
 30
0.0
 10
26.334861
 20
4.979339
 30
0.0
 10
26.334861
 20
5.021798
 30
0.0
 10
26.334861
 20
5.064065
 30
0.0
 10
26.334861
 20
5.106284
 30
0.0
 10
26.334861
 20
5.148680
 30
0.0
 10
26.294299
 20
5.148680
 30
0.0
 10
26.253610
 20
5.148680
 30
0.0
 10
26.213104
 20
5.148680
 30
0.0
 10
26.172644
 20
5.148680
 30
0.0
 10
26.132014
 20
5.148680
 30
0.0
 10
26.074711
 20
5.146335
 30
0.0
 10
26.017672
 20
5.138261
 30
0.0
 10
25.962591
 20
5.122673
 30
0.0
 10
25.911383
 20
5.097342
 30
0.0
 10
25.867430
 20
5.060486
 30
0.0
 10
25.833979
 20
5.013139
 30
0.0
 10
25.811205
 20
4.959448
 30
0.0
 10
25.797304
 20
4.902796
 30
0.0
 10
25.790151
 20
4.845073
 30
0.0
 10
25.788055
 20
4.787083
 30
0.0
 10
25.788055
 20
4.667162
 30
0.0
 10
25.788055
 20
4.547476
 30
0.0
 10
25.788055
 20
4.427574
 30
0.0
 10
25.788055
 20
4.307745
 30
0.0
 10
25.788055
 20
4.187361
 30
0.0
 10
25.790681
 20
4.135424
 30
0.0
 10
25.799725
 20
4.083666
 30
0.0
 10
25.816519
 20
4.034547
 30
0.0
 10
25.842132
 20
3.989159
 30
0.0
 10
25.876250
 20
3.949236
 30
0.0
 10
25.925130
 20
3.913878
 30
0.0
 10
25.980304
 20
3.888757
 30
0.0
 10
26.038567
 20
3.872574
 30
0.0
 10
26.097983
 20
3.863781
 30
0.0
 10
26.158472
 20
3.861041
 30
0.0
 10
26.193743
 20
3.861041
 30
0.0
 10
26.228764
 20
3.861041
 30
0.0
 10
26.264360
 20
3.861041
 30
0.0
 10
26.299537
 20
3.861041
 30
0.0
 10
26.334861
 20
3.861041
 30
0.0
 10
26.334861
 20
3.861041
 30
0.0
 10
26.334861
 20
3.861041
 30
0.0
 10
26.334861
 20
3.861041
 30
0.0
 10
26.334861
 20
3.861041
 30
0.0
 10
26.334861
 20
3.861041
 30
0.0
  0
LWPOLYLINE
  5
122
100
AcDbEntity
  8
0
 62
7
100
AcDbPolyline
 90
151
 70
0
 10
27.737153
 20
5.148680
 30
0.0
 10
27.689537
 20
5.148680
 30
0.0
 10
27.641771
 20
5.148680
 30
0.0
 10
27.594220
 20
5.148680
 30
0.0
 10
27.546724
 20
5.148680
 30
0.0
 10
27.499028
 20
5.148680
 30
0.0
 10
27.388043
 20
5.139313
 30
0.0
 10
27.282734
 20
5.104183
 30
0.0
 10
27.197701
 20
5.033156
 30
0.0
 10
27.150366
 20
4.933045
 30
0.0
 10
27.137430
 20
4.822361
 30
0.0
 10
27.137430
 20
4.700676
 30
0.0
 10
27.137430
 20
4.579231
 30
0.0
 10
27.137430
 20
4.457565
 30
0.0
 10
27.137430
 20
4.335974
 30
0.0
 10
27.137430
 20
4.213819
 30
0.0
 10
27.141218
 20
4.151083
 30
0.0
 10
27.153450
 20
4.089615
 30
0.0
 10
27.175589
 20
4.030670
 30
0.0
 10
27.208598
 20
3.976916
 30
0.0
 10
27.252083
 20
3.931597
 30
0.0
 10
27.298739
 20
3.901124
 30
0.0
 10
27.350831
 20
3.880990
 30
0.0
 10
27.405271
 20
3.868958
 30
0.0
 10
27.460790
 20
3.862825
 30
0.0
 10
27.516667
 20
3.861041
 30
0.0
 10
27.655987
 20
3.861041
 30
0.0
 10
27.795390
 20
3.861041
 30
0.0
 10
27.934604
 20
3.861041
 30
0.0
 10
28.074058
 20
3.861041
 30
0.0
 10
28.213403
 20
3.861041
 30
0.0
 10
28.213403
 20
3.905130
 30
0.0
 10
28.213403
 20
3.949358
 30
0.0
 10
28.213403
 20
3.993386
 30
0.0
 10
28.213403
 20
4.037364
 30
0.0
 10
28.213403
 20
4.081528
 30
0.0
 10
28.082900
 20
4.081528
 30
0.0
 10
27.952320
 20
4.081528
 30
0.0
 10
27.821917
 20
4.081528
 30
0.0
 10
27.691289
 20
4.081528
 30
0.0
 10
27.560764
 20
4.081528
 30
0.0
 10
27.531197
 20
4.082620
 30
0.0
 10
27.502085
 20
4.086026
 30
0.0
 10
27.473316
 20
4.092161
 30
0.0
 10
27.445129
 20
4.101934
 30
0.0
 10
27.419653
 20
4.116805
 30
0.0
 10
27.397374
 20
4.138941
 30
0.0
 10
27.381714
 20
4.165801
 30
0.0
 10
27.372404
 20
4.195656
 30
0.0
 10
27.367946
 20
4.226655
 30
0.0
 10
27.366736
 20
4.257916
 30
0.0
 10
27.366736
 20
4.266840
 30
0.0
 10
27.366736
 20
4.275590
 30
0.0
 10
27.366736
 20
4.284322
 30
0.0
 10
27.366736
 20
4.293329
 30
0.0
 10
27.366736
 20
4.302014
 30
0.0
 10
27.440805
 20
4.331994
 30
0.0
 10
27.515108
 20
4.362069
 30
0.0
 10
27.589075
 20
4.392008
 30
0.0
 10
27.662958
 20
4.421913
 30
0.0
 10
27.737153
 20
4.451944
 30
0.0
 10
27.737153
 20
4.494269
 30
0.0
 10
27.737153
 20
4.536728
 30
0.0
 10
27.737153
 20
4.578995
 30
0.0
 10
27.737153
 20
4.621214
 30
0.0
 10
27.737153
 20
4.663611
 30
0.0
 10
27.663084
 20
4.633631
 30
0.0
 10
27.588780
 20
4.603555
 30
0.0
 10
27.514813
 20
4.573616
 30
0.0
 10
27.440930
 20
4.543711
 30
0.0
 10
27.366736
 20
4.513680
 30
0.0
 10
27.366736
 20
4.564823
 30
0.0
 10
27.366736
 20
4.616128
 30
0.0
 10
27.366736
 20
4.667200
 30
0.0
 10
27.366736
 20
4.718215
 30
0.0
 10
27.366736
 20
4.769444
 30
0.0
 10
27.374746
 20
4.828864
 30
0.0
 10
27.403685
 20
4.881342
 30
0.0
 10
27.451969
 20
4.915926
 30
0.0
 10
27.509568
 20
4.932582
 30
0.0
 10
27.569583
 20
4.937014
 30
0.0
 10
27.603091
 20
4.937014
 30
0.0
 10
27.636360
 20
4.937014
 30
0.0
 10
27.670177
 20
4.937014
 30
0.0
 10
27.703595
 20
4.937014
 30
0.0
 10
27.737153
 20
4.937014
 30
0.0
 10
27.737153
 20
4.979339
 30
0.0
 10
27.737153
 20
5.021798
 30
0.0
 10
27.737153
 20
5.064065
 30
0.0
 10
27.737153
 20
5.106284
 30
0.0
 10
27.737153
 20
5.148680
 30
0.0
 10
27.737153
 20
5.148680
 30
0.0
 10
27.737153
 20
5.148680
 30
0.0
 10
27.737153
 20
5.148680
 30
0.0
 10
27.737153
 20
5.148680
 30
0.0
 10
27.737153
 20
5.148680
 30
0.0
 10
27.737153
 20
5.106355
 30
0.0
 10
27.737153
 20
5.063896
 30
0.0
 10
27.737153
 20
5.021629
 30
0.0
 10
27.737153
 20
4.979410
 30
0.0
 10
27.737153
 20
4.937014
 30
0.0
 10
27.751431
 20
4.937014
 30
0.0
 10
27.765431
 20
4.937014
 30
0.0
 10
27.779401
 20
4.937014
 30
0.0
 10
27.793813
 20
4.937014
 30
0.0
 10
27.807708
 20
4.937014
 30
0.0
 10
27.860554
 20
4.932722
 30
0.0
 10
27.910740
 20
4.917003
 30
0.0
 10
27.952407
 20
4.885347
 30
0.0
 10
27.977112
 20
4.839101
 30
0.0
 10
27.984097
 20
4.787083
 30
0.0
 10
27.984097
 20
4.783682
 30
0.0
 10
27.984097
 20
4.779883
 30
0.0
 10
27.984097
 20
4.776194
 30
0.0
 10
27.984097
 20
4.773024
 30
0.0
 10
27.984097
 20
4.769444
 30
0.0
 10
27.934718
 20
4.748282
 30
0.0
 10
27.885182
 20
4.727052
 30
0.0
 10
27.835871
 20
4.705919
 30
0.0
 10
27.786615
 20
4.684809
 30
0.0
 10
27.737153
 20
4.663611
 30
0.0
 10
27.737153
 20
4.621286
 30
0.0
 10
27.737153
 20
4.578827
 30
0.0
 10
27.737153
 20
4.536560
 30
0.0
 10
27.737153
 20
4.494341
 30
0.0
 10
27.737153
 20
4.451944
 30
0.0
 10
27.832384
 20
4.490742
 30
0.0
 10
27.927428
 20
4.529464
 30
0.0
 10
28.022645
 20
4.568256
 30
0.0
 10
28.117803
 20
4.607024
 30
0.0
 10
28.213403
 20
4.645972
 30
0.0
 10
28.213403
 20
4.677716
 30
0.0
 10
28.213403
 20
4.709234
 30
0.0
 10
28.213403
 20
4.741271
 30
0.0
 10
28.213403
 20
4.772930
 30
0.0
 10
28.213403
 20
4.804722
 30
0.0
 10
28.203928
 20
4.913078
 30
0.0
 10
28.167748
 20
5.015307
 30
0.0
 10
28.095009
 20
5.095191
 30
0.0
 10
27.995131
 20
5.137524
 30
0.0
 10
27.887083
 20
5.148680
 30
0.0
 10
27.857103
 20
5.148680
 30
0.0
 10
27.827335
 20
5.148680
 30
0.0
 10
27.797078
 20
5.148680
 30
0.0
 10
27.767178
 20
5.148680
 30
0.0
 10
27.737153
 20
5.148680
 30
0.0
 10
27.737153
 20
5.148680
 30
0.0
 10
27.737153
 20
5.148680
 30
0.0
 10
27.737153
 20
5.148680
 30
0.0
 10
27.737153
 20
5.148680
 30
0.0
 10
27.737153
 20
5.148680
 30
0.0
  0
LWPOLYLINE
  5
123
100
AcDbEntity
  8
0
 62
7
100
AcDbPolyline
 90
61
 70
0
 10
29.533625
 20
3.861259
 30
0.0
 10
29.489837
 20
3.861259
 30
0.0
 10
29.446045
 20
3.861259
 30
0.0
 10
29.402258
 20
3.861259
 30
0.0
 10
29.358473
 20
3.861259
 30
0.0
 10
29.314683
 20
3.861259
 30
0.0
 10
29.314683
 20
4.044139
 30
0.0
 10
29.314683
 20
4.227018
 30
0.0
 10
29.314683
 20
4.409896
 30
0.0
 10
29.314683
 20
4.592776
 30
0.0
 10
29.314683
 20
4.775663
 30
0.0
 10
29.307698
 20
4.830728
 30
0.0
 10
29.282148
 20
4.879716
 30
0.0
 10
29.237900
 20
4.912809
 30
0.0
 10
29.184690
 20
4.928621
 30
0.0
 10
29.129226
 20
4.932785
 30
0.0
 10
29.079771
 20
4.932785
 30
0.0
 10
29.030313
 20
4.932785
 30
0.0
 10
28.980859
 20
4.932785
 30
0.0
 10
28.931408
 20
4.932785
 30
0.0
 10
28.881951
 20
4.932785
 30
0.0
 10
28.826044
 20
4.928675
 30
0.0
 10
28.772322
 20
4.913065
 30
0.0
 10
28.727346
 20
4.880226
 30
0.0
 10
28.701115
 20
4.831125
 30
0.0
 10
28.693919
 20
4.775663
 30
0.0
 10
28.693919
 20
4.592783
 30
0.0
 10
28.693919
 20
4.409903
 30
0.0
 10
28.693919
 20
4.227025
 30
0.0
 10
28.693919
 20
4.044145
 30
0.0
 10
28.693919
 20
3.861259
 30
0.0
 10
28.649615
 20
3.861259
 30
0.0
 10
28.605309
 20
3.861259
 30
0.0
 10
28.561006
 20
3.861259
 30
0.0
 10
28.516706
 20
3.861259
 30
0.0
 10
28.472401
 20
3.861259
 30
0.0
 10
28.472401
 20
4.056502
 30
0.0
 10
28.472401
 20
4.251746
 30
0.0
 10
28.472401
 20
4.446987
 30
0.0
 10
28.472401
 20
4.642231
 30
0.0
 10
28.472401
 20
4.837481
 30
0.0
 10
28.483810
 20
4.942425
 30
0.0
 10
28.526374
 20
5.038576
 30
0.0
 10
28.605044
 20
5.108001
 30
0.0
 10
28.704572
 20
5.142591
 30
0.0
 10
28.809829
 20
5.151727
 30
0.0
 10
28.887617
 20
5.151727
 30
0.0
 10
28.965405
 20
5.151727
 30
0.0
 10
29.043193
 20
5.151727
 30
0.0
 10
29.120985
 20
5.151727
 30
0.0
 10
29.198772
 20
5.151727
 30
0.0
 10
29.303596
 20
5.142519
 30
0.0
 10
29.402575
 20
5.107675
 30
0.0
 10
29.480464
 20
5.038009
 30
0.0
 10
29.522398
 20
4.942021
 30
0.0
 10
29.533625
 20
4.837481
 30
0.0
 10
29.533625
 20
4.642238
 30
0.0
 10
29.533625
 20
4.446995
 30
0.0
 10
29.533625
 20
4.251753
 30
0.0
 10
29.533625
 20
4.056509
 30
0.0
 10
29.533625
 20
3.861259
 30
0.0
  0
LWPOLYLINE
  5
124
100
AcDbEntity
  8
0
 62
7
100
AcDbPolyline
 90
66
 70
0
 10
30.676006
 20
3.861259
 30
0.0
 10
30.575551
 20
3.861259
 30
0.0
 10
30.475096
 20
3.861259
 30
0.0
 10
30.374642
 20
3.861259
 30
0.0
 10
30.274182
 20
3.861259
 30
0.0
 10
30.173728
 20
3.861259
 30
0.0
 10
30.060202
 20
3.871422
 30
0.0
 10
29.953247
 20
3.909854
 30
0.0
 10
29.869683
 20
3.986214
 30
0.0
 10
29.825047
 20
4.090554
 30
0.0
 10
29.813118
 20
4.203838
 30
0.0
 10
29.813118
 20
4.328506
 30
0.0
 10
29.813118
 20
4.453173
 30
0.0
 10
29.813118
 20
4.577839
 30
0.0
 10
29.813118
 20
4.702512
 30
0.0
 10
29.813118
 20
4.827178
 30
0.0
 10
29.822004
 20
4.928678
 30
0.0
 10
29.855639
 20
5.024556
 30
0.0
 10
29.922956
 20
5.100096
 30
0.0
 10
30.015842
 20
5.140821
 30
0.0
 10
30.117060
 20
5.151727
 30
0.0
 10
30.227818
 20
5.151727
 30
0.0
 10
30.338577
 20
5.151727
 30
0.0
 10
30.449334
 20
5.151727
 30
0.0
 10
30.560097
 20
5.151727
 30
0.0
 10
30.670854
 20
5.151727
 30
0.0
 10
30.670854
 20
5.107939
 30
0.0
 10
30.670854
 20
5.064148
 30
0.0
 10
30.670854
 20
5.020361
 30
0.0
 10
30.670854
 20
4.976575
 30
0.0
 10
30.670854
 20
4.932785
 30
0.0
 10
30.578642
 20
4.932785
 30
0.0
 10
30.486429
 20
4.932785
 30
0.0
 10
30.394217
 20
4.932785
 30
0.0
 10
30.302001
 20
4.932785
 30
0.0
 10
30.209789
 20
4.932785
 30
0.0
 10
30.180950
 20
4.931924
 30
0.0
 10
30.152256
 20
4.928951
 30
0.0
 10
30.124027
 20
4.923038
 30
0.0
 10
30.097062
 20
4.912887
 30
0.0
 10
30.073272
 20
4.896725
 30
0.0
 10
30.056132
 20
4.874574
 30
0.0
 10
30.045171
 20
4.848738
 30
0.0
 10
30.038771
 20
4.821383
 30
0.0
 10
30.035562
 20
4.793462
 30
0.0
 10
30.034635
 20
4.765360
 30
0.0
 10
30.034635
 20
4.663359
 30
0.0
 10
30.034635
 20
4.561359
 30
0.0
 10
30.034635
 20
4.459359
 30
0.0
 10
30.034635
 20
4.357354
 30
0.0
 10
30.034635
 20
4.255354
 30
0.0
 10
30.040911
 20
4.197699
 30
0.0
 10
30.064323
 20
4.144884
 30
0.0
 10
30.107574
 20
4.106770
 30
0.0
 10
30.162262
 20
4.087790
 30
0.0
 10
30.220092
 20
4.082777
 30
0.0
 10
30.311274
 20
4.082777
 30
0.0
 10
30.402456
 20
4.082777
 30
0.0
 10
30.493638
 20
4.082777
 30
0.0
 10
30.584824
 20
4.082777
 30
0.0
 10
30.676006
 20
4.082777
 30
0.0
 10
30.676006
 20
4.038473
 30
0.0
 10
30.676006
 20
3.994166
 30
0.0
 10
30.676006
 20
3.949864
 30
0.0
 10
30.676006
 20
3.905564
 30
0.0
 10
30.676006
 20
3.861259
 30
0.0
  0
LWPOLYLINE
  5
125
100
AcDbEntity
  8
0
 62
7
100
AcDbPolyline
 90
151
 70
0
 10
31.503055
 20
5.148680
 30
0.0
 10
31.451912
 20
5.148680
 30
0.0
 10
31.400608
 20
5.148680
 30
0.0
 10
31.349535
 20
5.148680
 30
0.0
 10
31.298521
 20
5.148680
 30
0.0
 10
31.247291
 20
5.148680
 30
0.0
 10
31.137564
 20
5.139420
 30
0.0
 10
31.033357
 20
5.103971
 30
0.0
 10
30.950795
 20
5.031979
 30
0.0
 10
30.906369
 20
4.931884
 30
0.0
 10
30.894514
 20
4.822361
 30
0.0
 10
30.894514
 20
4.700676
 30
0.0
 10
30.894514
 20
4.579231
 30
0.0
 10
30.894514
 20
4.457565
 30
0.0
 10
30.894514
 20
4.335974
 30
0.0
 10
30.894514
 20
4.213819
 30
0.0
 10
30.898301
 20
4.151083
 30
0.0
 10
30.910534
 20
4.089615
 30
0.0
 10
30.932672
 20
4.030670
 30
0.0
 10
30.965682
 20
3.976916
 30
0.0
 10
31.009166
 20
3.931597
 30
0.0
 10
31.055822
 20
3.901124
 30
0.0
 10
31.107915
 20
3.880990
 30
0.0
 10
31.162354
 20
3.868958
 30
0.0
 10
31.217873
 20
3.862825
 30
0.0
 10
31.273750
 20
3.861041
 30
0.0
 10
31.413070
 20
3.861041
 30
0.0
 10
31.552473
 20
3.861041
 30
0.0
 10
31.691687
 20
3.861041
 30
0.0
 10
31.831141
 20
3.861041
 30
0.0
 10
31.970486
 20
3.861041
 30
0.0
 10
31.970486
 20
3.905130
 30
0.0
 10
31.970486
 20
3.949358
 30
0.0
 10
31.970486
 20
3.993386
 30
0.0
 10
31.970486
 20
4.037364
 30
0.0
 10
31.970486
 20
4.081528
 30
0.0
 10
31.838220
 20
4.081528
 30
0.0
 10
31.705875
 20
4.081528
 30
0.0
 10
31.573710
 20
4.081528
 30
0.0
 10
31.441317
 20
4.081528
 30
0.0
 10
31.309028
 20
4.081528
 30
0.0
 10
31.281408
 20
4.082518
 30
0.0
 10
31.253547
 20
4.085864
 30
0.0
 10
31.226137
 20
4.092192
 30
0.0
 10
31.200263
 20
4.102147
 30
0.0
 10
31.176736
 20
4.116805
 30
0.0
 10
31.154458
 20
4.138941
 30
0.0
 10
31.138798
 20
4.165801
 30
0.0
 10
31.129488
 20
4.195656
 30
0.0
 10
31.125029
 20
4.226655
 30
0.0
 10
31.123819
 20
4.257916
 30
0.0
 10
31.123819
 20
4.266840
 30
0.0
 10
31.123819
 20
4.275590
 30
0.0
 10
31.123819
 20
4.284322
 30
0.0
 10
31.123819
 20
4.293329
 30
0.0
 10
31.123819
 20
4.302014
 30
0.0
 10
31.199652
 20
4.331994
 30
0.0
 10
31.275724
 20
4.362069
 30
0.0
 10
31.351453
 20
4.392008
 30
0.0
 10
31.427095
 20
4.421913
 30
0.0
 10
31.503055
 20
4.451944
 30
0.0
 10
31.503055
 20
4.496033
 30
0.0
 10
31.503055
 20
4.540261
 30
0.0
 10
31.503055
 20
4.584289
 30
0.0
 10
31.503055
 20
4.628267
 30
0.0
 10
31.503055
 20
4.672430
 30
0.0
 10
31.425459
 20
4.640686
 30
0.0
 10
31.347618
 20
4.608842
 30
0.0
 10
31.270128
 20
4.577142
 30
0.0
 10
31.192727
 20
4.545478
 30
0.0
 10
31.115000
 20
4.513680
 30
0.0
 10
31.115000
 20
4.564823
 30
0.0
 10
31.115000
 20
4.616128
 30
0.0
 10
31.115000
 20
4.667200
 30
0.0
 10
31.115000
 20
4.718215
 30
0.0
 10
31.115000
 20
4.769444
 30
0.0
 10
31.124271
 20
4.829903
 30
0.0
 10
31.155928
 20
4.881879
 30
0.0
 10
31.206414
 20
4.915865
 30
0.0
 10
31.265483
 20
4.932493
 30
0.0
 10
31.326666
 20
4.937014
 30
0.0
 10
31.361937
 20
4.937014
 30
0.0
 10
31.396958
 20
4.937014
 30
0.0
 10
31.432554
 20
4.937014
 30
0.0
 10
31.467731
 20
4.937014
 30
0.0
 10
31.503055
 20
4.937014
 30
0.0
 10
31.503055
 20
4.979339
 30
0.0
 10
31.503055
 20
5.021798
 30
0.0
 10
31.503055
 20
5.064065
 30
0.0
 10
31.503055
 20
5.106284
 30
0.0
 10
31.503055
 20
5.148680
 30
0.0
 10
31.503055
 20
5.148680
 30
0.0
 10
31.503055
 20
5.148680
 30
0.0
 10
31.503055
 20
5.148680
 30
0.0
 10
31.503055
 20
5.148680
 30
0.0
 10
31.503055
 20
5.148680
 30
0.0
 10
31.503055
 20
5.106355
 30
0.0
 10
31.503055
 20
5.063896
 30
0.0
 10
31.503055
 20
5.021629
 30
0.0
 10
31.503055
 20
4.979410
 30
0.0
 10
31.503055
 20
4.937014
 30
0.0
 10
31.515549
 20
4.937014
 30
0.0
 10
31.527799
 20
4.937014
 30
0.0
 10
31.540023
 20
4.937014
 30
0.0
 10
31.552633
 20
4.937014
 30
0.0
 10
31.564791
 20
4.937014
 30
0.0
 10
31.617637
 20
4.932722
 30
0.0
 10
31.667823
 20
4.917003
 30
0.0
 10
31.709490
 20
4.885347
 30
0.0
 10
31.734195
 20
4.839101
 30
0.0
 10
31.741180
 20
4.787083
 30
0.0
 10
31.741180
 20
4.783682
 30
0.0
 10
31.741180
 20
4.779883
 30
0.0
 10
31.741180
 20
4.776194
 30
0.0
 10
31.741180
 20
4.773024
 30
0.0
 10
31.741180
 20
4.769444
 30
0.0
 10
31.693565
 20
4.750045
 30
0.0
 10
31.645798
 20
4.730585
 30
0.0
 10
31.598248
 20
4.711212
 30
0.0
 10
31.550752
 20
4.691862
 30
0.0
 10
31.503055
 20
4.672430
 30
0.0
 10
31.503055
 20
4.628342
 30
0.0
 10
31.503055
 20
4.584114
 30
0.0
 10
31.503055
 20
4.540085
 30
0.0
 10
31.503055
 20
4.496107
 30
0.0
 10
31.503055
 20
4.451944
 30
0.0
 10
31.596523
 20
4.490742
 30
0.0
 10
31.689808
 20
4.529464
 30
0.0
 10
31.783261
 20
4.568256
 30
0.0
 10
31.876657
 20
4.607024
 30
0.0
 10
31.970486
 20
4.645972
 30
0.0
 10
31.970486
 20
4.677716
 30
0.0
 10
31.970486
 20
4.709234
 30
0.0
 10
31.970486
 20
4.741271
 30
0.0
 10
31.970486
 20
4.772930
 30
0.0
 10
31.970486
 20
4.804722
 30
0.0
 10
31.960088
 20
4.914192
 30
0.0
 10
31.921231
 20
5.016626
 30
0.0
 10
31.845768
 20
5.095556
 30
0.0
 10
31.744657
 20
5.137410
 30
0.0
 10
31.635347
 20
5.148680
 30
0.0
 10
31.608894
 20
5.148680
 30
0.0
 10
31.582628
 20
5.148680
 30
0.0
 10
31.556364
 20
5.148680
 30
0.0
 10
31.529788
 20
5.148680
 30
0.0
 10
31.503055
 20
5.148680
 30
0.0
 10
31.503055
 20
5.148680
 30
0.0
 10
31.503055
 20
5.148680
 30
0.0
 10
31.503055
 20
5.148680
 30
0.0
 10
31.503055
 20
5.148680
 30
0.0
 10
31.503055
 20
5.148680
 30
0.0
  0
ENDSEC
  0
SECTION
  2
OBJECTS
  0
DICTIONARY
  5
C
330
0
100
AcDbDictionary
  3
ACAD_GROUP
350
D
  3
ACAD_MLINESTYLE
350
17
  0
DICTIONARY
  5
D
330
C
100
AcDbDictionary
  0
DICTIONARY
  5
1A
330
C
100
AcDbDictionary
  0
DICTIONARY
  5
17
330
C
100
AcDbDictionary
  3
STANDARD
350
18
  0
DICTIONARY
  5
19
330
C
100
AcDbDictionary
  0
ENDSEC
  0
EOF
