  0
SECTION
  2
HEADER
  9
$ACADVER
  1
AC1014
  9
$HANDSEED
  5
FFFF
  9
$MEASUREMENT
 70
     1
  0
ENDSEC
  0
SECTION
  2
TABLES
  0
TABLE
  2
VPORT
  5
8
330
0
100
AcDbSymbolTable
 70
     4
  0
VPORT
  5
2E
330
8
100
AcDbSymbolTableRecord
100
AcDbViewportTableRecord
  2
*ACTIVE
 70
     0
 10
0.0
 20
0.0
 11
1.0
 21
1.0
 12
210.0
 22
148.5
 13
0.0
 23
0.0
 14
10.0
 24
10.0
 15
10.0
 25
10.0
 16
0.0
 26
0.0
 36
1.0
 17
0.0
 27
0.0
 37
0.0
 40
341.0
 41
1.24
 42
50.0
 43
0.0
 44
0.0
 50
0.0
 51
0.0
 71
     0
 72
   100
 73
     1
 74
     3
 75
     0
 76
     0
 77
     0
 78
     0
  0
ENDTAB
  0
TABLE
  2
LTYPE
  5
5
330
0
100
AcDbSymbolTable
 70
     1
  0
LTYPE
  5
14
330
5
100
AcDbSymbolTableRecord
100
AcDbLinetypeTableRecord
  2
BYBLOCK
 70
     0
  3

 72
    65
 73
     0
 40
0.0
  0
LTYPE
  5
15
330
5
100
AcDbSymbolTableRecord
100
AcDbLinetypeTableRecord
  2
BYLAYER
 70
     0
  3

 72
    65
 73
     0
 40
0.0
  0
LTYPE
  5
16
330
5
100
AcDbSymbolTableRecord
100
AcDbLinetypeTableRecord
  2
CONTINUOUS
 70
     0
  3
Solid line
 72
    65
 73
     0
 40
0.0
  0
ENDTAB
  0
TABLE
  2
LAYER
  5
2
100
AcDbSymbolTable
 70
1
  0
LAYER
  5
50
100
AcDbSymbolTableRecord
100
AcDbLayerTableRecord
  2
0
 70
0
  6
CONTINUOUS
  0
ENDTAB
  0
TABLE
  2
STYLE
  5
3
330
0
100
AcDbSymbolTable
 70
     1
  0
STYLE
  5
11
330
3
100
AcDbSymbolTableRecord
100
AcDbTextStyleTableRecord
  2
STANDARD
 70
     0
 40
0.0
 41
1.0
 50
0.0
 71
     0
 42
2.5
  3
txt
  4

  0
ENDTAB
  0
TABLE
  2
VIEW
  5
6
330
0
100
AcDbSymbolTable
 70
     0
  0
ENDTAB
  0
TABLE
  2
UCS
  5
7
330
0
100
AcDbSymbolTable
 70
     0
  0
ENDTAB
  0
TABLE
  2
APPID
  5
9
330
0
100
AcDbSymbolTable
 70
     2
  0
APPID
  5
12
330
9
100
AcDbSymbolTableRecord
100
AcDbRegAppTableRecord
  2
ACAD
 70
     0
  0
ENDTAB
  0
TABLE
  2
DIMSTYLE
  5
A
330
0
100
AcDbSymbolTable
 70
     1
  0
DIMSTYLE
105
27
330
A
100
AcDbSymbolTableRecord
100
AcDbDimStyleTableRecord
  2
ISO-25
 70
     0
  3

  4

  5

  6

  7

 40
1.0
 41
2.5
 42
0.625
 43
3.75
 44
1.25
 45
0.0
 46
0.0
 47
0.0
 48
0.0
140
2.5
141
2.5
142
0.0
143
0.03937007874016
144
1.0
145
0.0
146
1.0
147
0.625
 71
     0
 72
     0
 73
     0
 74
     0
 75
     0
 76
     0
 77
     1
 78
     8
170
     0
171
     3
172
     1
173
     0
174
     0
175
     0
176
     0
177
     0
178
     0
270
     2
271
     2
272
     2
273
     2
274
     3
340
11
275
     0
280
     0
281
     0
282
     0
283
     0
284
     8
285
     0
286
     0
287
     3
288
     0
  0
ENDTAB
  0
TABLE
  2
BLOCK_RECORD
  5
1
330
0
100
AcDbSymbolTable
 70
     1
  0
BLOCK_RECORD
  5
1F
330
1
100
AcDbSymbolTableRecord
100
AcDbBlockTableRecord
  2
*MODEL_SPACE
  0
BLOCK_RECORD
  5
1B
330
1
100
AcDbSymbolTableRecord
100
AcDbBlockTableRecord
  2
*PAPER_SPACE
  0
ENDTAB
  0
ENDSEC
  0
SECTION
  2
BLOCKS
  0
BLOCK
  5
20
330
1F
100
AcDbEntity
  8
0
100
AcDbBlockBegin
  2
*MODEL_SPACE
 70
     0
 10
0.0
 20
0.0
 30
0.0
  3
*MODEL_SPACE
  1

  0
ENDBLK
  5
21
330
1F
100
AcDbEntity
  8
0
100
AcDbBlockEnd
  0
BLOCK
  5
1C
330
1B
100
AcDbEntity
 67
     1
  8
0
100
AcDbBlockBegin
  2
*PAPER_SPACE
  1

  0
ENDBLK
  5
1D
330
1B
100
AcDbEntity
 67
     1
  8
0
100
AcDbBlockEnd
  0
ENDSEC
  0
SECTION
  2
ENTITIES
  0
LWPOLYLINE
  5
100
100
AcDbEntity
  8
0
 62
7
100
AcDbPolyline
 90
81
 70
0
 10
1.120180
 20
1.865723
 30
0.0
 10
0.988335
 20
1.865723
 30
0.0
 10
0.856489
 20
1.865723
 30
0.0
 10
0.724645
 20
1.865723
 30
0.0
 10
0.592793
 20
1.865723
 30
0.0
 10
0.460948
 20
1.865723
 30
0.0
 10
0.428418
 20
1.864733
 30
0.0
 10
0.396052
 20
1.861335
 30
0.0
 10
0.364211
 20
1.854652
 30
0.0
 10
0.333722
 20
1.843364
 30
0.0
 10
0.306441
 20
1.825765
 30
0.0
 10
0.284935
 20
1.802638
 30
0.0
 10
0.268523
 20
1.775649
 30
0.0
 10
0.257554
 20
1.746018
 30
0.0
 10
0.251584
 20
1.714975
 30
0.0
 10
0.249787
 20
1.683410
 30
0.0
 10
0.249787
 20
1.526071
 30
0.0
 10
0.249787
 20
1.368733
 30
0.0
 10
0.249787
 20
1.211395
 30
0.0
 10
0.249787
 20
1.054050
 30
0.0
 10
0.249787
 20
0.896713
 30
0.0
 10
0.250985
 20
0.860979
 30
0.0
 10
0.255117
 20
0.825471
 30
0.0
 10
0.263309
 20
0.790686
 30
0.0
 10
0.277216
 20
0.757802
 30
0.0
 10
0.298715
 20
0.729382
 30
0.0
 10
0.329593
 20
0.709415
 30
0.0
 10
0.364179
 20
0.696745
 30
0.0
 10
0.400282
 20
0.689296
 30
0.0
 10
0.436964
 20
0.685525
 30
0.0
 10
0.473823
 20
0.684428
 30
0.0
 10
0.602579
 20
0.684428
 30
0.0
 10
0.731334
 20
0.684428
 30
0.0
 10
0.860089
 20
0.684428
 30
0.0
 10
0.988850
 20
0.684428
 30
0.0
 10
1.117605
 20
0.684428
 30
0.0
 10
1.117605
 20
0.635977
 30
0.0
 10
1.117605
 20
0.587523
 30
0.0
 10
1.117605
 20
0.539074
 30
0.0
 10
1.117605
 20
0.490627
 30
0.0
 10
1.117605
 20
0.442175
 30
0.0
 10
0.970309
 20
0.442175
 30
0.0
 10
0.823012
 20
0.442175
 30
0.0
 10
0.675717
 20
0.442175
 30
0.0
 10
0.528414
 20
0.442175
 30
0.0
 10
0.381119
 20
0.442175
 30
0.0
 10
0.319752
 20
0.445147
 30
0.0
 10
0.259127
 20
0.455034
 30
0.0
 10
0.200532
 20
0.473384
 30
0.0
 10
0.145960
 20
0.501479
 30
0.0
 10
0.097855
 20
0.539575
 30
0.0
 10
0.060044
 20
0.586501
 30
0.0
 10
0.031814
 20
0.639753
 30
0.0
 10
0.013175
 20
0.697089
 30
0.0
 10
0.003055
 20
0.756545
 30
0.0
 10
0.000000
 20
0.816793
 30
0.0
 10
0.000000
 20
1.001104
 30
0.0
 10
0.000000
 20
1.185415
 30
0.0
 10
0.000000
 20
1.369724
 30
0.0
 10
0.000000
 20
1.554036
 30
0.0
 10
0.000000
 20
1.738353
 30
0.0
 10
0.002910
 20
1.802423
 30
0.0
 10
0.012838
 20
1.865768
 30
0.0
 10
0.031962
 20
1.926937
 30
0.0
 10
0.062553
 20
1.983188
 30
0.0
 10
0.105580
 20
2.030555
 30
0.0
 10
0.157844
 20
2.064405
 30
0.0
 10
0.216227
 20
2.086321
 30
0.0
 10
0.277249
 20
2.099372
 30
0.0
 10
0.339319
 20
2.106030
 30
0.0
 10
0.401720
 20
2.107977
 30
0.0
 10
0.545411
 20
2.107977
 30
0.0
 10
0.689103
 20
2.107977
 30
0.0
 10
0.832793
 20
2.107977
 30
0.0
 10
0.976490
 20
2.107977
 30
0.0
 10
1.120180
 20
2.107977
 30
0.0
 10
1.120180
 20
2.059526
 30
0.0
 10
1.120180
 20
2.011072
 30
0.0
 10
1.120180
 20
1.962623
 30
0.0
 10
1.120180
 20
1.914176
 30
0.0
 10
1.120180
 20
1.865723
 30
0.0
  0
LWPOLYLINE
  5
101
100
AcDbEntity
  8
0
 62
7
100
AcDbPolyline
 90
151
 70
0
 10
1.372690
 20
1.693334
 30
0.0
 10
1.372690
 20
1.651008
 30
0.0
 10
1.372690
 20
1.608549
 30
0.0
 10
1.372690
 20
1.566282
 30
0.0
 10
1.372690
 20
1.524063
 30
0.0
 10
1.372690
 20
1.481667
 30
0.0
 10
1.508483
 20
1.481667
 30
0.0
 10
1.644358
 20
1.481667
 30
0.0
 10
1.780047
 20
1.481667
 30
0.0
 10
1.915970
 20
1.481667
 30
0.0
 10
2.051787
 20
1.481667
 30
0.0
 10
2.083205
 20
1.480397
 30
0.0
 10
2.114202
 20
1.475952
 30
0.0
 10
2.144197
 20
1.466969
 30
0.0
 10
2.171553
 20
1.451576
 30
0.0
 10
2.192898
 20
1.428750
 30
0.0
 10
2.205502
 20
1.400867
 30
0.0
 10
2.212371
 20
1.370586
 30
0.0
 10
2.216153
 20
1.340082
 30
0.0
 10
2.218242
 20
1.309470
 30
0.0
 10
2.219342
 20
1.278821
 30
0.0
 10
2.113529
 20
1.278821
 30
0.0
 10
2.007925
 20
1.278821
 30
0.0
 10
1.902129
 20
1.278821
 30
0.0
 10
1.796397
 20
1.278821
 30
0.0
 10
1.690175
 20
1.278821
 30
0.0
 10
1.638862
 20
1.276535
 30
0.0
 10
1.588065
 20
1.268731
 30
0.0
 10
1.538963
 20
1.253991
 30
0.0
 10
1.492624
 20
1.230795
 30
0.0
 10
1.452050
 20
1.199458
 30
0.0
 10
1.418665
 20
1.161477
 30
0.0
 10
1.393191
 20
1.117845
 30
0.0
 10
1.376078
 20
1.070302
 30
0.0
 10
1.366685
 20
1.020527
 30
0.0
 10
1.363857
 20
0.970152
 30
0.0
 10
1.363857
 20
0.924300
 30
0.0
 10
1.363857
 20
0.878303
 30
0.0
 10
1.363857
 20
0.832514
 30
0.0
 10
1.363857
 20
0.786777
 30
0.0
 10
1.363857
 20
0.740847
 30
0.0
 10
1.366945
 20
0.691252
 30
0.0
 10
1.377362
 20
0.642659
 30
0.0
 10
1.396685
 20
0.596515
 30
0.0
 10
1.424979
 20
0.555359
 30
0.0
 10
1.460869
 20
0.520361
 30
0.0
 10
1.504271
 20
0.490384
 30
0.0
 10
1.551919
 20
0.467950
 30
0.0
 10
1.602565
 20
0.452566
 30
0.0
 10
1.655047
 20
0.443758
 30
0.0
 10
1.707813
 20
0.440992
 30
0.0
 10
1.744848
 20
0.440992
 30
0.0
 10
1.781619
 20
0.440992
 30
0.0
 10
1.818995
 20
0.440992
 30
0.0
 10
1.855931
 20
0.440992
 30
0.0
 10
1.893022
 20
0.440992
 30
0.0
 10
1.893022
 20
0.483317
 30
0.0
 10
1.893022
 20
0.525776
 30
0.0
 10
1.893022
 20
0.568043
 30
0.0
 10
1.893022
 20
0.610262
 30
0.0
 10
1.893022
 20
0.652659
 30
0.0
 10
1.863041
 20
0.652659
 30
0.0
 10
1.833274
 20
0.652659
 30
0.0
 10
1.803017
 20
0.652659
 30
0.0
 10
1.773116
 20
0.652659
 30
0.0
 10
1.743091
 20
0.652659
 30
0.0
 10
1.719864
 20
0.654521
 30
0.0
 10
1.697114
 20
0.660397
 30
0.0
 10
1.675866
 20
0.669981
 30
0.0
 10
1.655955
 20
0.682512
 30
0.0
 10
1.637258
 20
0.696767
 30
0.0
 10
1.619952
 20
0.713777
 30
0.0
 10
1.605118
 20
0.733318
 30
0.0
 10
1.593705
 20
0.755199
 30
0.0
 10
1.586709
 20
0.778375
 30
0.0
 10
1.584338
 20
0.802598
 30
0.0
 10
1.584338
 20
0.827286
 30
0.0
 10
1.584338
 20
0.851800
 30
0.0
 10
1.584338
 20
0.876314
 30
0.0
 10
1.584338
 20
0.901119
 30
0.0
 10
1.584338
 20
0.926070
 30
0.0
 10
1.589441
 20
0.975810
 30
0.0
 10
1.608759
 20
1.021587
 30
0.0
 10
1.645568
 20
1.055072
 30
0.0
 10
1.692961
 20
1.071690
 30
0.0
 10
1.743107
 20
1.075972
 30
0.0
 10
1.827757
 20
1.075972
 30
0.0
 10
1.912675
 20
1.075972
 30
0.0
 10
1.997209
 20
1.075972
 30
0.0
 10
2.081647
 20
1.075972
 30
0.0
 10
2.166440
 20
1.075972
 30
0.0
 10
2.181025
 20
1.075351
 30
0.0
 10
2.195263
 20
1.072812
 30
0.0
 10
2.208356
 20
1.066575
 30
0.0
 10
2.216910
 20
1.055243
 30
0.0
 10
2.219365
 20
1.040717
 30
0.0
 10
2.219365
 20
0.991338
 30
0.0
 10
2.219365
 20
0.941803
 30
0.0
 10
2.219365
 20
0.892491
 30
0.0
 10
2.219365
 20
0.843236
 30
0.0
 10
2.219365
 20
0.793773
 30
0.0
 10
2.213419
 20
0.745682
 30
0.0
 10
2.192111
 20
0.702488
 30
0.0
 10
2.154654
 20
0.671959
 30
0.0
 10
2.108878
 20
0.656775
 30
0.0
 10
2.060614
 20
0.652660
 30
0.0
 10
2.030633
 20
0.652660
 30
0.0
 10
2.000866
 20
0.652660
 30
0.0
 10
1.970609
 20
0.652660
 30
0.0
 10
1.940708
 20
0.652660
 30
0.0
 10
1.910683
 20
0.652660
 30
0.0
 10
1.910683
 20
0.610335
 30
0.0
 10
1.910683
 20
0.567876
 30
0.0
 10
1.910683
 20
0.525609
 30
0.0
 10
1.910683
 20
0.483390
 30
0.0
 10
1.910683
 20
0.440993
 30
0.0
 10
1.954772
 20
0.440993
 30
0.0
 10
1.999000
 20
0.440993
 30
0.0
 10
2.043028
 20
0.440993
 30
0.0
 10
2.087006
 20
0.440993
 30
0.0
 10
2.131169
 20
0.440993
 30
0.0
 10
2.179966
 20
0.443951
 30
0.0
 10
2.227632
 20
0.453665
 30
0.0
 10
2.273248
 20
0.471284
 30
0.0
 10
2.314741
 20
0.496693
 30
0.0
 10
2.351655
 20
0.529189
 30
0.0
 10
2.383555
 20
0.567857
 30
0.0
 10
2.408707
 20
0.611438
 30
0.0
 10
2.426405
 20
0.658656
 30
0.0
 10
2.436650
 20
0.708363
 30
0.0
 10
2.439847
 20
0.758495
 30
0.0
 10
2.439847
 20
0.881944
 30
0.0
 10
2.439847
 20
1.005149
 30
0.0
 10
2.439847
 20
1.128577
 30
0.0
 10
2.439847
 20
1.252252
 30
0.0
 10
2.439847
 20
1.375856
 30
0.0
 10
2.426656
 20
1.484682
 30
0.0
 10
2.378244
 20
1.582829
 30
0.0
 10
2.292482
 20
1.651220
 30
0.0
 10
2.187691
 20
1.684533
 30
0.0
 10
2.078246
 20
1.693334
 30
0.0
 10
1.937162
 20
1.693334
 30
0.0
 10
1.795994
 20
1.693334
 30
0.0
 10
1.655018
 20
1.693334
 30
0.0
 10
1.513799
 20
1.693334
 30
0.0
 10
1.372690
 20
1.693334
 30
0.0
 10
1.372690
 20
1.693334
 30
0.0
 10
1.372690
 20
1.693334
 30
0.0
 10
1.372690
 20
1.693334
 30
0.0
 10
1.372690
 20
1.693334
 30
0.0
 10
1.372690
 20
1.693334
 30
0.0
  0
LWPOLYLINE
  5
102
100
AcDbEntity
  8
0
 62
7
100
AcDbPolyline
 90
41
 70
0
 10
3.225829
 20
1.481115
 30
0.0
 10
3.184911
 20
1.480860
 30
0.0
 10
3.143997
 20
1.479960
 30
0.0
 10
3.103119
 20
1.478086
 30
0.0
 10
3.062360
 20
1.474481
 30
0.0
 10
3.022394
 20
1.466133
 30
0.0
 10
2.988258
 20
1.446300
 30
0.0
 10
2.962793
 20
1.416134
 30
0.0
 10
2.947240
 20
1.379755
 30
0.0
 10
2.939569
 20
1.340884
 30
0.0
 10
2.937424
 20
1.301301
 30
0.0
 10
2.937424
 20
1.129477
 30
0.0
 10
2.937424
 20
0.957653
 30
0.0
 10
2.937424
 20
0.785831
 30
0.0
 10
2.937424
 20
0.614006
 30
0.0
 10
2.937424
 20
0.442176
 30
0.0
 10
2.893133
 20
0.442176
 30
0.0
 10
2.848837
 20
0.442176
 30
0.0
 10
2.804546
 20
0.442176
 30
0.0
 10
2.760257
 20
0.442176
 30
0.0
 10
2.715963
 20
0.442176
 30
0.0
 10
2.715963
 20
0.625489
 30
0.0
 10
2.715963
 20
0.808801
 30
0.0
 10
2.715963
 20
0.992111
 30
0.0
 10
2.715963
 20
1.175424
 30
0.0
 10
2.715963
 20
1.358742
 30
0.0
 10
2.727124
 20
1.468288
 30
0.0
 10
2.769002
 20
1.569710
 30
0.0
 10
2.848415
 20
1.644961
 30
0.0
 10
2.951344
 20
1.683259
 30
0.0
 10
3.061031
 20
1.693402
 30
0.0
 10
3.093992
 20
1.693402
 30
0.0
 10
3.126956
 20
1.693402
 30
0.0
 10
3.159920
 20
1.693402
 30
0.0
 10
3.192883
 20
1.693402
 30
0.0
 10
3.225838
 20
1.693402
 30
0.0
 10
3.225838
 20
1.650945
 30
0.0
 10
3.225838
 20
1.608485
 30
0.0
 10
3.225838
 20
1.566030
 30
0.0
 10
3.225838
 20
1.523576
 30
0.0
 10
3.225838
 20
1.481117
 30
0.0
  0
LWPOLYLINE
  5
103
100
AcDbEntity
  8
0
 62
7
100
AcDbPolyline
 90
126
 70
0
 10
4.485954
 20
1.693334
 30
0.0
 10
4.377392
 20
1.684477
 30
0.0
 10
4.274146
 20
1.650743
 30
0.0
 10
4.191029
 20
1.581542
 30
0.0
 10
4.145467
 20
1.483840
 30
0.0
 10
4.133177
 20
1.375834
 30
0.0
 10
4.133177
 20
1.257676
 30
0.0
 10
4.133177
 20
1.139751
 30
0.0
 10
4.133177
 20
1.021612
 30
0.0
 10
4.133177
 20
0.903545
 30
0.0
 10
4.133177
 20
0.784931
 30
0.0
 10
4.137051
 20
0.723468
 30
0.0
 10
4.149475
 20
0.663635
 30
0.0
 10
4.171787
 20
0.606605
 30
0.0
 10
4.204652
 20
0.555061
 30
0.0
 10
4.247830
 20
0.511528
 30
0.0
 10
4.294904
 20
0.481458
 30
0.0
 10
4.346939
 20
0.461403
 30
0.0
 10
4.401286
 20
0.449182
 30
0.0
 10
4.456683
 20
0.442844
 30
0.0
 10
4.512413
 20
0.440981
 30
0.0
 10
4.651733
 20
0.440981
 30
0.0
 10
4.791137
 20
0.440981
 30
0.0
 10
4.930350
 20
0.440981
 30
0.0
 10
5.069804
 20
0.440981
 30
0.0
 10
5.209149
 20
0.440981
 30
0.0
 10
5.209149
 20
0.483307
 30
0.0
 10
5.209149
 20
0.525765
 30
0.0
 10
5.209149
 20
0.568033
 30
0.0
 10
5.209149
 20
0.610252
 30
0.0
 10
5.209149
 20
0.652648
 30
0.0
 10
5.076883
 20
0.652648
 30
0.0
 10
4.944538
 20
0.652648
 30
0.0
 10
4.812373
 20
0.652648
 30
0.0
 10
4.679980
 20
0.652648
 30
0.0
 10
4.547691
 20
0.652648
 30
0.0
 10
4.520075
 20
0.653664
 30
0.0
 10
4.492214
 20
0.657107
 30
0.0
 10
4.465143
 20
0.663443
 30
0.0
 10
4.439075
 20
0.673453
 30
0.0
 10
4.415399
 20
0.687917
 30
0.0
 10
4.393123
 20
0.709942
 30
0.0
 10
4.377463
 20
0.737250
 30
0.0
 10
4.368296
 20
0.766809
 30
0.0
 10
4.363764
 20
0.797568
 30
0.0
 10
4.362494
 20
0.829029
 30
0.0
 10
4.362494
 20
0.835830
 30
0.0
 10
4.362494
 20
0.842844
 30
0.0
 10
4.362494
 20
0.849904
 30
0.0
 10
4.362494
 20
0.857223
 30
0.0
 10
4.362494
 20
0.864306
 30
0.0
 10
4.531794
 20
0.931321
 30
0.0
 10
4.701196
 20
0.998376
 30
0.0
 10
4.870367
 20
1.065340
 30
0.0
 10
5.039830
 20
1.132418
 30
0.0
 10
5.209160
 20
1.199445
 30
0.0
 10
5.209160
 20
1.231189
 30
0.0
 10
5.209160
 20
1.262708
 30
0.0
 10
5.209160
 20
1.294744
 30
0.0
 10
5.209160
 20
1.326404
 30
0.0
 10
5.209160
 20
1.358195
 30
0.0
 10
5.199356
 20
1.465007
 30
0.0
 10
5.161947
 20
1.565491
 30
0.0
 10
5.088450
 20
1.642421
 30
0.0
 10
4.989439
 20
1.682692
 30
0.0
 10
4.882829
 20
1.693334
 30
0.0
 10
4.836976
 20
1.693334
 30
0.0
 10
4.790979
 20
1.693334
 30
0.0
 10
4.745190
 20
1.693334
 30
0.0
 10
4.699453
 20
1.693334
 30
0.0
 10
4.653523
 20
1.693334
 30
0.0
 10
4.653523
 20
1.651008
 30
0.0
 10
4.653523
 20
1.608549
 30
0.0
 10
4.653523
 20
1.566282
 30
0.0
 10
4.653523
 20
1.524063
 30
0.0
 10
4.653523
 20
1.481667
 30
0.0
 10
4.683504
 20
1.481667
 30
0.0
 10
4.713271
 20
1.481667
 30
0.0
 10
4.743528
 20
1.481667
 30
0.0
 10
4.773428
 20
1.481667
 30
0.0
 10
4.803454
 20
1.481667
 30
0.0
 10
4.854851
 20
1.478037
 30
0.0
 10
4.904488
 20
1.464375
 30
0.0
 10
4.946897
 20
1.435532
 30
0.0
 10
4.972579
 20
1.391427
 30
0.0
 10
4.979843
 20
1.340556
 30
0.0
 10
4.979843
 20
1.337155
 30
0.0
 10
4.979843
 20
1.333356
 30
0.0
 10
4.979843
 20
1.329667
 30
0.0
 10
4.979843
 20
1.326498
 30
0.0
 10
4.979843
 20
1.322920
 30
0.0
 10
4.856395
 20
1.273540
 30
0.0
 10
4.732873
 20
1.224131
 30
0.0
 10
4.609519
 20
1.174790
 30
0.0
 10
4.485953
 20
1.125363
 30
0.0
 10
4.362483
 20
1.075975
 30
0.0
 10
4.362483
 20
1.125355
 30
0.0
 10
4.362483
 20
1.174890
 30
0.0
 10
4.362483
 20
1.224201
 30
0.0
 10
4.362483
 20
1.273457
 30
0.0
 10
4.362483
 20
1.322920
 30
0.0
 10
4.370814
 20
1.381142
 30
0.0
 10
4.400746
 20
1.431299
 30
0.0
 10
4.449527
 20
1.463021
 30
0.0
 10
4.506386
 20
1.477784
 30
0.0
 10
4.565329
 20
1.481667
 30
0.0
 10
4.579607
 20
1.481667
 30
0.0
 10
4.593608
 20
1.481667
 30
0.0
 10
4.607577
 20
1.481667
 30
0.0
 10
4.621990
 20
1.481667
 30
0.0
 10
4.635887
 20
1.481667
 30
0.0
 10
4.635887
 20
1.523992
 30
0.0
 10
4.635887
 20
1.566451
 30
0.0
 10
4.635887
 20
1.608718
 30
0.0
 10
4.635887
 20
1.650937
 30
0.0
 10
4.635887
 20
1.693334
 30
0.0
 10
4.605907
 20
1.693334
 30
0.0
 10
4.576139
 20
1.693334
 30
0.0
 10
4.545882
 20
1.693334
 30
0.0
 10
4.515982
 20
1.693334
 30
0.0
 10
4.485957
 20
1.693334
 30
0.0
 10
4.485957
 20
1.693334
 30
0.0
 10
4.485957
 20
1.693334
 30
0.0
 10
4.485957
 20
1.693334
 30
0.0
 10
4.485957
 20
1.693334
 30
0.0
 10
4.485957
 20
1.693334
 30
0.0
  0
LWPOLYLINE
  5
104
100
AcDbEntity
  8
0
 62
7
100
AcDbPolyline
 90
86
 70
0
 10
8.639912
 20
2.125486
 30
0.0
 10
8.587292
 20
2.119690
 30
0.0
 10
8.538572
 20
2.100146
 30
0.0
 10
8.498151
 20
2.066720
 30
0.0
 10
8.467762
 20
2.023646
 30
0.0
 10
8.445884
 20
1.975556
 30
0.0
 10
8.333017
 20
1.668698
 30
0.0
 10
8.220083
 20
1.361658
 30
0.0
 10
8.107187
 20
1.054723
 30
0.0
 10
7.994264
 20
0.747711
 30
0.0
 10
7.881440
 20
0.440973
 30
0.0
 10
7.936110
 20
0.440973
 30
0.0
 10
7.990953
 20
0.440973
 30
0.0
 10
8.045548
 20
0.440973
 30
0.0
 10
8.100081
 20
0.440973
 30
0.0
 10
8.154843
 20
0.440973
 30
0.0
 10
8.184823
 20
0.523859
 30
0.0
 10
8.214898
 20
0.607008
 30
0.0
 10
8.244837
 20
0.689781
 30
0.0
 10
8.274743
 20
0.772459
 30
0.0
 10
8.304773
 20
0.855486
 30
0.0
 10
8.370024
 20
0.855486
 30
0.0
 10
8.435482
 20
0.855486
 30
0.0
 10
8.500644
 20
0.855486
 30
0.0
 10
8.565731
 20
0.855486
 30
0.0
 10
8.631093
 20
0.855486
 30
0.0
 10
8.631093
 20
0.901339
 30
0.0
 10
8.631093
 20
0.947336
 30
0.0
 10
8.631093
 20
0.993125
 30
0.0
 10
8.631093
 20
1.038862
 30
0.0
 10
8.631093
 20
1.084792
 30
0.0
 10
8.581714
 20
1.084792
 30
0.0
 10
8.532178
 20
1.084792
 30
0.0
 10
8.482867
 20
1.084792
 30
0.0
 10
8.433611
 20
1.084792
 30
0.0
 10
8.384149
 20
1.084792
 30
0.0
 10
8.433528
 20
1.234694
 30
0.0
 10
8.482937
 20
1.384684
 30
0.0
 10
8.532278
 20
1.534471
 30
0.0
 10
8.581705
 20
1.684517
 30
0.0
 10
8.631093
 20
1.834445
 30
0.0
 10
8.685763
 20
1.684543
 30
0.0
 10
8.740466
 20
1.534552
 30
0.0
 10
8.795094
 20
1.384765
 30
0.0
 10
8.849816
 20
1.234720
 30
0.0
 10
8.904496
 20
1.084792
 30
0.0
 10
8.853353
 20
1.084792
 30
0.0
 10
8.802048
 20
1.084792
 30
0.0
 10
8.750976
 20
1.084792
 30
0.0
 10
8.699961
 20
1.084792
 30
0.0
 10
8.648732
 20
1.084792
 30
0.0
 10
8.648732
 20
1.038940
 30
0.0
 10
8.648732
 20
0.992943
 30
0.0
 10
8.648732
 20
0.947153
 30
0.0
 10
8.648732
 20
0.901416
 30
0.0
 10
8.648732
 20
0.855486
 30
0.0
 10
8.715746
 20
0.855486
 30
0.0
 10
8.782973
 20
0.855486
 30
0.0
 10
8.849896
 20
0.855486
 30
0.0
 10
8.916743
 20
0.855486
 30
0.0
 10
8.983871
 20
0.855486
 30
0.0
 10
9.013851
 20
0.772600
 30
0.0
 10
9.043926
 20
0.689451
 30
0.0
 10
9.073865
 20
0.606678
 30
0.0
 10
9.103770
 20
0.524000
 30
0.0
 10
9.133801
 20
0.440973
 30
0.0
 10
9.186708
 20
0.440973
 30
0.0
 10
9.239781
 20
0.440973
 30
0.0
 10
9.292615
 20
0.440973
 30
0.0
 10
9.345389
 20
0.440973
 30
0.0
 10
9.398384
 20
0.440973
 30
0.0
 10
9.287281
 20
0.747830
 30
0.0
 10
9.176111
 20
1.054870
 30
0.0
 10
9.064979
 20
1.361806
 30
0.0
 10
8.953820
 20
1.668817
 30
0.0
 10
8.842759
 20
1.975556
 30
0.0
 10
8.819555
 20
2.024695
 30
0.0
 10
8.786826
 20
2.067677
 30
0.0
 10
8.743969
 20
2.100466
 30
0.0
 10
8.693580
 20
2.119657
 30
0.0
 10
8.639912
 20
2.125488
 30
0.0
 10
8.639912
 20
2.125488
 30
0.0
 10
8.639912
 20
2.125488
 30
0.0
 10
8.639912
 20
2.125488
 30
0.0
 10
8.639912
 20
2.125488
 30
0.0
 10
8.639912
 20
2.125488
 30
0.0
  0
LWPOLYLINE
  5
105
100
AcDbEntity
  8
0
 62
7
100
AcDbPolyline
 90
41
 70
0
 10
10.744818
 20
1.481115
 30
0.0
 10
10.688681
 20
1.481115
 30
0.0
 10
10.632543
 20
1.481115
 30
0.0
 10
10.576406
 20
1.481115
 30
0.0
 10
10.520271
 20
1.481115
 30
0.0
 10
10.464129
 20
1.481115
 30
0.0
 10
10.464129
 20
1.273328
 30
0.0
 10
10.464129
 20
1.065541
 30
0.0
 10
10.464129
 20
0.857749
 30
0.0
 10
10.464129
 20
0.649965
 30
0.0
 10
10.464129
 20
0.442174
 30
0.0
 10
10.419837
 20
0.442174
 30
0.0
 10
10.375542
 20
0.442174
 30
0.0
 10
10.331251
 20
0.442174
 30
0.0
 10
10.286962
 20
0.442174
 30
0.0
 10
10.242668
 20
0.442174
 30
0.0
 10
10.242668
 20
0.780828
 30
0.0
 10
10.242668
 20
1.119480
 30
0.0
 10
10.242668
 20
1.458136
 30
0.0
 10
10.242668
 20
1.796794
 30
0.0
 10
10.242668
 20
2.135449
 30
0.0
 10
10.286961
 20
2.135449
 30
0.0
 10
10.331256
 20
2.135449
 30
0.0
 10
10.375546
 20
2.135449
 30
0.0
 10
10.419835
 20
2.135449
 30
0.0
 10
10.464129
 20
2.135449
 30
0.0
 10
10.464129
 20
2.047040
 30
0.0
 10
10.464129
 20
1.958630
 30
0.0
 10
10.464129
 20
1.870221
 30
0.0
 10
10.464129
 20
1.781808
 30
0.0
 10
10.464129
 20
1.693399
 30
0.0
 10
10.520267
 20
1.693399
 30
0.0
 10
10.576404
 20
1.693399
 30
0.0
 10
10.632541
 20
1.693399
 30
0.0
 10
10.688676
 20
1.693399
 30
0.0
 10
10.744818
 20
1.693399
 30
0.0
 10
10.744818
 20
1.650942
 30
0.0
 10
10.744818
 20
1.608483
 30
0.0
 10
10.744818
 20
1.566027
 30
0.0
 10
10.744818
 20
1.523573
 30
0.0
 10
10.744818
 20
1.481115
 30
0.0
  0
LWPOLYLINE
  5
106
100
AcDbEntity
  8
0
 62
7
100
AcDbPolyline
 90
22
 70
0
 10
10.856736
 20
1.691458
 30
0.0
 10
10.856736
 20
1.444514
 30
0.0
 10
10.856736
 20
1.188750
 30
0.0
 10
10.856736
 20
0.941805
 30
0.0
 10
10.856736
 20
0.694861
 30
0.0
 10
10.856736
 20
0.439097
 30
0.0
 10
10.900833
 20
0.439097
 30
0.0
 10
10.944930
 20
0.439097
 30
0.0
 10
10.989028
 20
0.439097
 30
0.0
 10
11.033125
 20
0.439097
 30
0.0
 10
11.077222
 20
0.439097
 30
0.0
 10
11.077222
 20
0.694861
 30
0.0
 10
11.077222
 20
0.941805
 30
0.0
 10
11.077222
 20
1.188750
 30
0.0
 10
11.077222
 20
1.444514
 30
0.0
 10
11.077222
 20
1.691458
 30
0.0
 10
11.033125
 20
1.691458
 30
0.0
 10
10.989028
 20
1.691458
 30
0.0
 10
10.944930
 20
1.691458
 30
0.0
 10
10.900833
 20
1.691458
 30
0.0
 10
10.856736
 20
1.691458
 30
0.0
 10
10.856736
 20
1.691458
 30
0.0
  0
LWPOLYLINE
  5
107
100
AcDbEntity
  8
0
 62
7
100
AcDbPolyline
 90
42
 70
0
 10
10.944930
 20
2.167708
 30
0.0
 10
10.918472
 20
2.158889
 30
0.0
 10
10.900833
 20
2.150069
 30
0.0
 10
10.874375
 20
2.141250
 30
0.0
 10
10.865555
 20
2.123611
 30
0.0
 10
10.847917
 20
2.105972
 30
0.0
 10
10.839097
 20
2.088333
 30
0.0
 10
10.830278
 20
2.070694
 30
0.0
 10
10.821458
 20
2.044236
 30
0.0
 10
10.821458
 20
2.026597
 30
0.0
 10
10.821458
 20
2.000139
 30
0.0
 10
10.830278
 20
1.982500
 30
0.0
 10
10.839097
 20
1.956041
 30
0.0
 10
10.847917
 20
1.938403
 30
0.0
 10
10.865555
 20
1.920764
 30
0.0
 10
10.883194
 20
1.911944
 30
0.0
 10
10.900833
 20
1.894305
 30
0.0
 10
10.918472
 20
1.885486
 30
0.0
 10
10.944930
 20
1.885486
 30
0.0
 10
10.962569
 20
1.885486
 30
0.0
 10
10.989028
 20
1.885486
 30
0.0
 10
11.006667
 20
1.894305
 30
0.0
 10
11.033125
 20
1.903125
 30
0.0
 10
11.050764
 20
1.911944
 30
0.0
 10
11.068403
 20
1.929583
 30
0.0
 10
11.086042
 20
1.938403
 30
0.0
 10
11.094861
 20
1.964861
 30
0.0
 10
11.103680
 20
1.982500
 30
0.0
 10
11.112500
 20
2.000139
 30
0.0
 10
11.112500
 20
2.026597
 30
0.0
 10
11.112500
 20
2.044236
 30
0.0
 10
11.103680
 20
2.070694
 30
0.0
 10
11.094861
 20
2.088333
 30
0.0
 10
11.086042
 20
2.105972
 30
0.0
 10
11.068403
 20
2.123611
 30
0.0
 10
11.050764
 20
2.141250
 30
0.0
 10
11.033125
 20
2.150069
 30
0.0
 10
11.006667
 20
2.158889
 30
0.0
 10
10.989028
 20
2.167708
 30
0.0
 10
10.962569
 20
2.167708
 30
0.0
 10
10.944930
 20
2.167708
 30
0.0
 10
10.944930
 20
2.167708
 30
0.0
  0
LWPOLYLINE
  5
108
100
AcDbEntity
  8
0
 62
7
100
AcDbPolyline
 90
71
 70
0
 10
11.856408
 20
1.481115
 30
0.0
 10
11.799756
 20
1.481115
 30
0.0
 10
11.743104
 20
1.481115
 30
0.0
 10
11.686451
 20
1.481115
 30
0.0
 10
11.629801
 20
1.481115
 30
0.0
 10
11.573144
 20
1.481115
 30
0.0
 10
11.573144
 20
1.273328
 30
0.0
 10
11.573144
 20
1.065541
 30
0.0
 10
11.573144
 20
0.857749
 30
0.0
 10
11.573144
 20
0.649965
 30
0.0
 10
11.573144
 20
0.442174
 30
0.0
 10
11.528853
 20
0.442174
 30
0.0
 10
11.484557
 20
0.442174
 30
0.0
 10
11.440267
 20
0.442174
 30
0.0
 10
11.395978
 20
0.442174
 30
0.0
 10
11.351683
 20
0.442174
 30
0.0
 10
11.351683
 20
0.719390
 30
0.0
 10
11.351683
 20
0.996606
 30
0.0
 10
11.351683
 20
1.273828
 30
0.0
 10
11.351683
 20
1.551046
 30
0.0
 10
11.351683
 20
1.828261
 30
0.0
 10
11.354954
 20
1.878113
 30
0.0
 10
11.365636
 20
1.926892
 30
0.0
 10
11.384709
 20
1.973032
 30
0.0
 10
11.412200
 20
2.014699
 30
0.0
 10
11.446964
 20
2.050535
 30
0.0
 10
11.489500
 20
2.082005
 30
0.0
 10
11.536477
 20
2.106333
 30
0.0
 10
11.586675
 20
2.123076
 30
0.0
 10
11.638747
 20
2.132517
 30
0.0
 10
11.691601
 20
2.135449
 30
0.0
 10
11.724562
 20
2.135449
 30
0.0
 10
11.757526
 20
2.135449
 30
0.0
 10
11.790491
 20
2.135449
 30
0.0
 10
11.823454
 20
2.135449
 30
0.0
 10
11.856409
 20
2.135449
 30
0.0
 10
11.856409
 20
2.093991
 30
0.0
 10
11.856409
 20
2.052530
 30
0.0
 10
11.856409
 20
2.011074
 30
0.0
 10
11.856409
 20
1.969619
 30
0.0
 10
11.856409
 20
1.928160
 30
0.0
 10
11.833233
 20
1.928160
 30
0.0
 10
11.810054
 20
1.928160
 30
0.0
 10
11.786875
 20
1.928160
 30
0.0
 10
11.763699
 20
1.928160
 30
0.0
 10
11.740529
 20
1.928160
 30
0.0
 10
11.714079
 20
1.926646
 30
0.0
 10
11.688058
 20
1.921719
 30
0.0
 10
11.663095
 20
1.912886
 30
0.0
 10
11.640001
 20
1.899958
 30
0.0
 10
11.619498
 20
1.883206
 30
0.0
 10
11.602463
 20
1.863648
 30
0.0
 10
11.589125
 20
1.841403
 30
0.0
 10
11.579910
 20
1.817156
 30
0.0
 10
11.574737
 20
1.791728
 30
0.0
 10
11.573157
 20
1.765825
 30
0.0
 10
11.573157
 20
1.751343
 30
0.0
 10
11.573157
 20
1.736857
 30
0.0
 10
11.573157
 20
1.722369
 30
0.0
 10
11.573157
 20
1.707887
 30
0.0
 10
11.573157
 20
1.693399
 30
0.0
 10
11.629810
 20
1.693399
 30
0.0
 10
11.686462
 20
1.693399
 30
0.0
 10
11.743114
 20
1.693399
 30
0.0
 10
11.799764
 20
1.693399
 30
0.0
 10
11.856421
 20
1.693399
 30
0.0
 10
11.856421
 20
1.650942
 30
0.0
 10
11.856421
 20
1.608483
 30
0.0
 10
11.856421
 20
1.566027
 30
0.0
 10
11.856421
 20
1.523573
 30
0.0
 10
11.856421
 20
1.481115
 30
0.0
  0
LWPOLYLINE
  5
109
100
AcDbEntity
  8
0
 62
7
100
AcDbPolyline
 90
66
 70
0
 10
13.320850
 20
0.442174
 30
0.0
 10
13.220421
 20
0.442174
 30
0.0
 10
13.119991
 20
0.442174
 30
0.0
 10
13.019563
 20
0.442174
 30
0.0
 10
12.919129
 20
0.442174
 30
0.0
 10
12.818700
 20
0.442174
 30
0.0
 10
12.706790
 20
0.451727
 30
0.0
 10
12.600781
 20
0.487913
 30
0.0
 10
12.516460
 20
0.560934
 30
0.0
 10
12.470519
 20
0.662816
 30
0.0
 10
12.458183
 20
0.774336
 30
0.0
 10
12.458183
 20
0.895212
 30
0.0
 10
12.458183
 20
1.016087
 30
0.0
 10
12.458183
 20
1.136962
 30
0.0
 10
12.458183
 20
1.257844
 30
0.0
 10
12.458183
 20
1.378719
 30
0.0
 10
12.467349
 20
1.478539
 30
0.0
 10
12.501976
 20
1.572294
 30
0.0
 10
12.570179
 20
1.644822
 30
0.0
 10
12.662370
 20
1.683174
 30
0.0
 10
12.762047
 20
1.693399
 30
0.0
 10
12.872777
 20
1.693399
 30
0.0
 10
12.983507
 20
1.693399
 30
0.0
 10
13.094235
 20
1.693399
 30
0.0
 10
13.204970
 20
1.693399
 30
0.0
 10
13.315699
 20
1.693399
 30
0.0
 10
13.315699
 20
1.650942
 30
0.0
 10
13.315699
 20
1.608483
 30
0.0
 10
13.315699
 20
1.566027
 30
0.0
 10
13.315699
 20
1.523573
 30
0.0
 10
13.315699
 20
1.481115
 30
0.0
 10
13.223510
 20
1.481115
 30
0.0
 10
13.131321
 20
1.481115
 30
0.0
 10
13.039133
 20
1.481115
 30
0.0
 10
12.946940
 20
1.481115
 30
0.0
 10
12.854751
 20
1.481115
 30
0.0
 10
12.826002
 20
1.480286
 30
0.0
 10
12.797388
 20
1.477420
 30
0.0
 10
12.769211
 20
1.471719
 30
0.0
 10
12.742216
 20
1.461900
 30
0.0
 10
12.718270
 20
1.446152
 30
0.0
 10
12.701243
 20
1.424862
 30
0.0
 10
12.690251
 20
1.399858
 30
0.0
 10
12.683808
 20
1.373283
 30
0.0
 10
12.680576
 20
1.346127
 30
0.0
 10
12.679645
 20
1.318781
 30
0.0
 10
12.679645
 20
1.219883
 30
0.0
 10
12.679645
 20
1.120984
 30
0.0
 10
12.679645
 20
1.022086
 30
0.0
 10
12.679645
 20
0.923183
 30
0.0
 10
12.679645
 20
0.824286
 30
0.0
 10
12.686136
 20
0.767519
 30
0.0
 10
12.710229
 20
0.715965
 30
0.0
 10
12.753837
 20
0.679545
 30
0.0
 10
12.808033
 20
0.661671
 30
0.0
 10
12.865053
 20
0.656956
 30
0.0
 10
12.956213
 20
0.656956
 30
0.0
 10
13.047371
 20
0.656956
 30
0.0
 10
13.138530
 20
0.656956
 30
0.0
 10
13.229692
 20
0.656956
 30
0.0
 10
13.320851
 20
0.656956
 30
0.0
 10
13.320851
 20
0.614000
 30
0.0
 10
13.320851
 20
0.571041
 30
0.0
 10
13.320851
 20
0.528086
 30
0.0
 10
13.320851
 20
0.485133
 30
0.0
 10
13.320851
 20
0.442175
 30
0.0
  0
LWPOLYLINE
  5
10a
100
AcDbEntity
  8
0
 62
7
100
AcDbPolyline
 90
21
 70
0
 10
15.606839
 20
0.442174
 30
0.0
 10
15.562547
 20
0.442174
 30
0.0
 10
15.518252
 20
0.442174
 30
0.0
 10
15.473961
 20
0.442174
 30
0.0
 10
15.429672
 20
0.442174
 30
0.0
 10
15.385378
 20
0.442174
 30
0.0
 10
15.385378
 20
0.780828
 30
0.0
 10
15.385378
 20
1.119480
 30
0.0
 10
15.385378
 20
1.458136
 30
0.0
 10
15.385378
 20
1.796794
 30
0.0
 10
15.385378
 20
2.135449
 30
0.0
 10
15.429670
 20
2.135449
 30
0.0
 10
15.473965
 20
2.135449
 30
0.0
 10
15.518256
 20
2.135449
 30
0.0
 10
15.562545
 20
2.135449
 30
0.0
 10
15.606839
 20
2.135449
 30
0.0
 10
15.606839
 20
1.796795
 30
0.0
 10
15.606839
 20
1.458143
 30
0.0
 10
15.606839
 20
1.119488
 30
0.0
 10
15.606839
 20
0.780829
 30
0.0
 10
15.606839
 20
0.442174
 30
0.0
  0
LWPOLYLINE
  5
10b
100
AcDbEntity
  8
0
 62
7
100
AcDbPolyline
 90
61
 70
0
 10
17.960223
 20
0.442174
 30
0.0
 10
17.916446
 20
0.442174
 30
0.0
 10
17.872666
 20
0.442174
 30
0.0
 10
17.828890
 20
0.442174
 30
0.0
 10
17.785115
 20
0.442174
 30
0.0
 10
17.741337
 20
0.442174
 30
0.0
 10
17.741337
 20
0.619493
 30
0.0
 10
17.741337
 20
0.796811
 30
0.0
 10
17.741337
 20
0.974128
 30
0.0
 10
17.741337
 20
1.151446
 30
0.0
 10
17.741337
 20
1.328771
 30
0.0
 10
17.734101
 20
1.383022
 30
0.0
 10
17.707843
 20
1.430753
 30
0.0
 10
17.663371
 20
1.462289
 30
0.0
 10
17.610666
 20
1.477191
 30
0.0
 10
17.555930
 20
1.481115
 30
0.0
 10
17.506488
 20
1.481115
 30
0.0
 10
17.457042
 20
1.481115
 30
0.0
 10
17.407602
 20
1.481115
 30
0.0
 10
17.358163
 20
1.481115
 30
0.0
 10
17.308719
 20
1.481115
 30
0.0
 10
17.253548
 20
1.477241
 30
0.0
 10
17.200335
 20
1.462530
 30
0.0
 10
17.155146
 20
1.431244
 30
0.0
 10
17.128196
 20
1.383425
 30
0.0
 10
17.120735
 20
1.328771
 30
0.0
 10
17.120735
 20
1.151453
 30
0.0
 10
17.120735
 20
0.974135
 30
0.0
 10
17.120735
 20
0.796818
 30
0.0
 10
17.120735
 20
0.619499
 30
0.0
 10
17.120735
 20
0.442174
 30
0.0
 10
17.076443
 20
0.442174
 30
0.0
 10
17.032147
 20
0.442174
 30
0.0
 10
16.987857
 20
0.442174
 30
0.0
 10
16.943567
 20
0.442174
 30
0.0
 10
16.899274
 20
0.442174
 30
0.0
 10
16.899274
 20
0.631481
 30
0.0
 10
16.899274
 20
0.820786
 30
0.0
 10
16.899274
 20
1.010090
 30
0.0
 10
16.899274
 20
1.199397
 30
0.0
 10
16.899274
 20
1.388710
 30
0.0
 10
16.911076
 20
1.492037
 30
0.0
 10
16.954877
 20
1.585892
 30
0.0
 10
17.034205
 20
1.652236
 30
0.0
 10
17.132835
 20
1.684808
 30
0.0
 10
17.236614
 20
1.693400
 30
0.0
 10
17.314382
 20
1.693400
 30
0.0
 10
17.392151
 20
1.693400
 30
0.0
 10
17.469919
 20
1.693400
 30
0.0
 10
17.547690
 20
1.693400
 30
0.0
 10
17.625458
 20
1.693400
 30
0.0
 10
17.728796
 20
1.684743
 30
0.0
 10
17.826891
 20
1.651934
 30
0.0
 10
17.905457
 20
1.585339
 30
0.0
 10
17.948612
 20
1.491637
 30
0.0
 10
17.960225
 20
1.388710
 30
0.0
 10
17.960225
 20
1.199404
 30
0.0
 10
17.960225
 20
1.010098
 30
0.0
 10
17.960225
 20
0.820794
 30
0.0
 10
17.960225
 20
0.631487
 30
0.0
 10
17.960225
 20
0.442174
 30
0.0
  0
LWPOLYLINE
  5
10c
100
AcDbEntity
  8
0
 62
7
100
AcDbPolyline
 90
151
 70
0
 10
22.089565
 20
1.693334
 30
0.0
 10
22.032272
 20
1.690878
 30
0.0
 10
21.975721
 20
1.682615
 30
0.0
 10
21.920769
 20
1.666853
 30
0.0
 10
21.869197
 20
1.641433
 30
0.0
 10
21.824981
 20
1.605146
 30
0.0
 10
21.791772
 20
1.559731
 30
0.0
 10
21.768881
 20
1.507758
 30
0.0
 10
21.754905
 20
1.452878
 30
0.0
 10
21.747715
 20
1.396891
 30
0.0
 10
21.745598
 20
1.340563
 30
0.0
 10
21.745598
 20
1.224168
 30
0.0
 10
21.745598
 20
1.108003
 30
0.0
 10
21.745598
 20
0.991628
 30
0.0
 10
21.745598
 20
0.875323
 30
0.0
 10
21.745598
 20
0.758479
 30
0.0
 10
21.748335
 20
0.706438
 30
0.0
 10
21.757454
 20
0.654942
 30
0.0
 10
21.774263
 20
0.605434
 30
0.0
 10
21.799816
 20
0.559708
 30
0.0
 10
21.833786
 20
0.520354
 30
0.0
 10
21.881455
 20
0.486912
 30
0.0
 10
21.934906
 20
0.464050
 30
0.0
 10
21.991358
 20
0.450127
 30
0.0
 10
22.049133
 20
0.443027
 30
0.0
 10
22.107188
 20
0.440967
 30
0.0
 10
22.205947
 20
0.440967
 30
0.0
 10
22.304511
 20
0.440967
 30
0.0
 10
22.403254
 20
0.440967
 30
0.0
 10
22.501938
 20
0.440967
 30
0.0
 10
22.601077
 20
0.440967
 30
0.0
 10
22.600485
 20
0.406762
 30
0.0
 10
22.598453
 20
0.372508
 30
0.0
 10
22.594405
 20
0.338521
 30
0.0
 10
22.587299
 20
0.305165
 30
0.0
 10
22.574627
 20
0.273397
 30
0.0
 10
22.551449
 20
0.246597
 30
0.0
 10
22.520788
 20
0.228518
 30
0.0
 10
22.486672
 20
0.218102
 30
0.0
 10
22.451197
 20
0.213047
 30
0.0
 10
22.415884
 20
0.211667
 30
0.0
 10
22.280091
 20
0.211667
 30
0.0
 10
22.144217
 20
0.211667
 30
0.0
 10
22.008528
 20
0.211667
 30
0.0
 10
21.872604
 20
0.211667
 30
0.0
 10
21.736787
 20
0.211667
 30
0.0
 10
21.736787
 20
0.169342
 30
0.0
 10
21.736787
 20
0.126883
 30
0.0
 10
21.736787
 20
0.084616
 30
0.0
 10
21.736787
 20
0.042397
 30
0.0
 10
21.736787
 20
0.000000
 30
0.0
 10
21.877871
 20
0.000000
 30
0.0
 10
22.019039
 20
0.000000
 30
0.0
 10
22.160014
 20
0.000000
 30
0.0
 10
22.301233
 20
0.000000
 30
0.0
 10
22.442342
 20
0.000000
 30
0.0
 10
22.557668
 20
0.009367
 30
0.0
 10
22.667539
 20
0.044648
 30
0.0
 10
22.757339
 20
0.116999
 30
0.0
 10
22.807878
 20
0.220682
 30
0.0
 10
22.821578
 20
0.335138
 30
0.0
 10
22.821578
 20
0.541473
 30
0.0
 10
22.821578
 20
0.747930
 30
0.0
 10
22.821578
 20
0.954108
 30
0.0
 10
22.821578
 20
1.160641
 30
0.0
 10
22.821578
 20
1.367012
 30
0.0
 10
22.819235
 20
1.422738
 30
0.0
 10
22.811257
 20
1.477960
 30
0.0
 10
22.795799
 20
1.531585
 30
0.0
 10
22.770645
 20
1.581038
 30
0.0
 10
22.733384
 20
1.622778
 30
0.0
 10
22.685253
 20
1.654453
 30
0.0
 10
22.631360
 20
1.674445
 30
0.0
 10
22.575196
 20
1.685964
 30
0.0
 10
22.517787
 20
1.691699
 30
0.0
 10
22.459981
 20
1.693334
 30
0.0
 10
22.422947
 20
1.693334
 30
0.0
 10
22.386175
 20
1.693334
 30
0.0
 10
22.348799
 20
1.693334
 30
0.0
 10
22.311863
 20
1.693334
 30
0.0
 10
22.274773
 20
1.693334
 30
0.0
 10
22.274773
 20
1.651008
 30
0.0
 10
22.274773
 20
1.608549
 30
0.0
 10
22.274773
 20
1.566282
 30
0.0
 10
22.274773
 20
1.524063
 30
0.0
 10
22.274773
 20
1.481667
 30
0.0
 10
22.302990
 20
1.481667
 30
0.0
 10
22.331006
 20
1.481667
 30
0.0
 10
22.359022
 20
1.481667
 30
0.0
 10
22.387369
 20
1.481667
 30
0.0
 10
22.415884
 20
1.481667
 30
0.0
 10
22.448422
 20
1.480030
 30
0.0
 10
22.480785
 20
1.474518
 30
0.0
 10
22.511818
 20
1.464367
 30
0.0
 10
22.540441
 20
1.449124
 30
0.0
 10
22.565816
 20
1.428753
 30
0.0
 10
22.582086
 20
1.405935
 30
0.0
 10
22.591893
 20
1.379742
 30
0.0
 10
22.597532
 20
1.352056
 30
0.0
 10
22.600298
 20
1.324385
 30
0.0
 10
22.601088
 20
1.296464
 30
0.0
 10
22.601088
 20
1.178307
 30
0.0
 10
22.601088
 20
1.060382
 30
0.0
 10
22.601088
 20
0.942243
 30
0.0
 10
22.601088
 20
0.824175
 30
0.0
 10
22.601088
 20
0.705561
 30
0.0
 10
22.598999
 20
0.688930
 30
0.0
 10
22.591989
 20
0.673464
 30
0.0
 10
22.579997
 20
0.661543
 30
0.0
 10
22.564630
 20
0.654674
 30
0.0
 10
22.548171
 20
0.652642
 30
0.0
 10
22.470575
 20
0.652642
 30
0.0
 10
22.392734
 20
0.652642
 30
0.0
 10
22.315244
 20
0.652642
 30
0.0
 10
22.237843
 20
0.652642
 30
0.0
 10
22.160116
 20
0.652642
 30
0.0
 10
22.101878
 20
0.657163
 30
0.0
 10
22.045829
 20
0.674396
 30
0.0
 10
21.999686
 20
0.710054
 30
0.0
 10
21.973241
 20
0.762292
 30
0.0
 10
21.966087
 20
0.820210
 30
0.0
 10
21.966087
 20
0.918969
 30
0.0
 10
21.966087
 20
1.017533
 30
0.0
 10
21.966087
 20
1.116276
 30
0.0
 10
21.966087
 20
1.214959
 30
0.0
 10
21.966087
 20
1.314099
 30
0.0
 10
21.971977
 20
1.369387
 30
0.0
 10
21.993965
 20
1.420430
 30
0.0
 10
22.034789
 20
1.457732
 30
0.0
 10
22.087149
 20
1.476666
 30
0.0
 10
22.142476
 20
1.481670
 30
0.0
 10
22.165678
 20
1.481670
 30
0.0
 10
22.188428
 20
1.481670
 30
0.0
 10
22.211130
 20
1.481670
 30
0.0
 10
22.234072
 20
1.481670
 30
0.0
 10
22.257129
 20
1.481670
 30
0.0
 10
22.257129
 20
1.523995
 30
0.0
 10
22.257129
 20
1.566453
 30
0.0
 10
22.257129
 20
1.608721
 30
0.0
 10
22.257129
 20
1.650940
 30
0.0
 10
22.257129
 20
1.693336
 30
0.0
 10
22.223622
 20
1.693336
 30
0.0
 10
22.190352
 20
1.693336
 30
0.0
 10
22.156535
 20
1.693336
 30
0.0
 10
22.123117
 20
1.693336
 30
0.0
 10
22.089559
 20
1.693336
 30
0.0
 10
22.089559
 20
1.693336
 30
0.0
 10
22.089559
 20
1.693336
 30
0.0
 10
22.089559
 20
1.693336
 30
0.0
 10
22.089559
 20
1.693336
 30
0.0
 10
22.089559
 20
1.693336
 30
0.0
  0
ENDSEC
  0
SECTION
  2
OBJECTS
  0
DICTIONARY
  5
C
330
0
100
AcDbDictionary
  3
ACAD_GROUP
350
D
  3
ACAD_MLINESTYLE
350
17
  0
DICTIONARY
  5
D
330
C
100
AcDbDictionary
  0
DICTIONARY
  5
1A
330
C
100
AcDbDictionary
  0
DICTIONARY
  5
17
330
C
100
AcDbDictionary
  3
STANDARD
350
18
  0
DICTIONARY
  5
19
330
C
100
AcDbDictionary
  0
ENDSEC
  0
EOF
