<?xml version="1.0" encoding="UTF-8" standalone="no"?>
<!-- Created with Inkscape (http://www.inkscape.org/) -->

<svg
   xmlns:dc="http://purl.org/dc/elements/1.1/"
   xmlns:cc="http://creativecommons.org/ns#"
   xmlns:rdf="http://www.w3.org/1999/02/22-rdf-syntax-ns#"
   xmlns:svg="http://www.w3.org/2000/svg"
   xmlns="http://www.w3.org/2000/svg"
   xmlns:sodipodi="http://sodipodi.sourceforge.net/DTD/sodipodi-0.dtd"
   xmlns:inkscape="http://www.inkscape.org/namespaces/inkscape"
   width="70.866142"
   height="70.866142"
   id="svg5611"
   version="1.1"
   inkscape:version="0.48.5 r10040"
   sodipodi:docname="uas-ua.svg">
  <sodipodi:namedview
     id="base"
     pagecolor="#ffffff"
     bordercolor="#666666"
     borderopacity="1.0"
     inkscape:pageopacity="0.0"
     inkscape:pageshadow="2"
     inkscape:zoom="11.2"
     inkscape:cx="52.6756"
     inkscape:cy="28.224633"
     inkscape:document-units="mm"
     inkscape:current-layer="g5555"
     showgrid="false"
     inkscape:window-width="1600"
     inkscape:window-height="847"
     inkscape:window-x="0"
     inkscape:window-y="31"
     inkscape:window-maximized="1"
     units="mm" />
  <defs
     id="defs5613" />
  <metadata
     id="metadata5616">
    <rdf:RDF>
      <cc:Work
         rdf:about="">
        <dc:format>image/svg+xml</dc:format>
        <dc:type
           rdf:resource="http://purl.org/dc/dcmitype/StillImage" />
        <dc:title />
      </cc:Work>
    </rdf:RDF>
  </metadata>
  <g
     inkscape:label="Layer 1"
     inkscape:groupmode="layer"
     id="layer1"
     transform="translate(0,-981.49603)">
    <g
       transform="matrix(0.16397537,0,0,0.16397537,-4.4058297,889.58484)"
       id="g5555">
      <path
         style="font-size:63.73649597px;font-style:normal;font-variant:normal;font-weight:bold;font-stretch:normal;line-height:125%;letter-spacing:0px;word-spacing:0px;fill:#000000;fill-opacity:1;stroke:none;font-family:Dingbats;-inkscape-font-specification:Dingbats Bold"
         d="M29.9375 41.3125L29.9375 41.4581811652L29.9375 41.6034633143L29.9375 41.75L30.1143985577 41.75L30.290812596 41.75L30.46875 41.75L30.46875 41.6043188348L30.46875 41.4590366857L30.46875 41.3125L30.2918514423 41.3125L30.115437404 41.3125L29.9375 41.3125L29.9375 41.3125L29.9375 41.3125L29.9375 41.3125M31.21875 41.3125L31.21875 41.4581811652L31.21875 41.6034633143L31.21875 41.75L31.3852427602 41.75L31.5512795021 41.75L31.71875 41.75L31.71875 41.6043188348L31.71875 41.4590366857L31.71875 41.3125L31.5522572398 41.3125L31.3862204979 41.3125L31.21875 41.3125L31.21875 41.3125L31.21875 41.3125L31.21875 41.3125M22.03125 41.84375L21.7378208886 41.8691524448L21.4582137042 41.9574858108L21.21875 42.125L21.0513933032 42.3653626461L20.9628317708 42.6449397725L20.9375 42.9375L20.9622875113 43.2199216485L21.0519595531 43.488486989L21.21875 43.71875L21.4566634724 43.8945652127L21.7350843662 43.9982032169L22.03125 44.03125L22.3165759209 43.999238023L22.5840282922 43.8947010785L22.8125 43.71875L22.9784454897 43.490149925L23.0687378892 43.2210817303L23.09375 42.9375L23.0683091908 42.6443614409L22.9795478263 42.3647171016L22.8125 42.125L22.5842679779 41.9582244681L22.3143597642 41.8684030396L22.03125 41.84375L22.03125 41.84375L22.03125 41.84375L22.03125 41.84375M30.84375 41.84375L30.5503208886 41.8691524448L30.2707137042 41.9574858108L30.03125 42.125L29.8638933032 42.3653626461L29.7753317708 42.6449397725L29.75 42.9375L29.7747875113 43.2199216485L29.8644595531 43.488486989L30.03125 43.71875L30.2691634724 43.8945652127L30.5475843662 43.9982032169L30.84375 44.03125L31.1290746498 43.999238023L31.396526917 43.8947010785L31.625 43.71875L31.7909448481 43.490149925L31.8812379484 43.2210817303L31.90625 42.9375L31.8808092454 42.6443614409L31.7920471885 42.3647171016L31.625 42.125L31.3967666033 41.9582244681L31.1268584991 41.8684030396L30.84375 41.84375L30.84375 41.84375L30.84375 41.84375L30.84375 41.84375M33.03125 41.84375L32.8331374707 41.8550324966L32.640329032 41.9008195142L32.46875 42.0L32.346872752 42.141569509L32.2738203641 42.3132726597L32.25 42.5L32.2660058917 42.637825103L32.3199317089 42.7663305266L32.40625 42.875L32.5471215158 42.9783661422L32.7064449456 43.0475995569L32.875 43.09375L32.9374347851 43.114561595L32.9996985633 43.1353161878L33.0625 43.15625L33.1596534955 43.1791187561L33.2549778054 43.2068463581L33.34375 43.25L33.3805884461 43.2943771639L33.4003671809 43.3478631132L33.40625 43.40625L33.3962034031 43.469591476L33.3623488505 43.5232184797L33.3125 43.5625L33.2228896859 43.6007680268L33.1275943914 43.6194892405L33.03125 43.625L32.9049432886 43.6160040992L32.7787208496 43.5934849363L32.65625 43.5625L32.5267660336 43.5190573787L32.4030618338 43.4669365577L32.28125 43.40625L32.28125 43.5623369627L32.28125 43.7179964082L32.28125 43.875L32.4141968757 43.9152177661L32.5513672312 43.9440395549L32.6875 43.96875L32.8222467552 43.9960740632L32.9567011472 44.0203177626L33.09375 44.03125L33.3137606206 44.0142575976L33.5281041808 43.9553716094L33.71875 43.84375L33.8358034159 43.7019747033L33.8926414075 43.5271946127L33.90625 43.34375L33.8980122989 43.1978586721L33.8620653996 43.0569395618L33.78125 42.9375L33.6306353483 42.8331009229L33.4601467154 42.7642990008L33.28125 42.71875L33.1980036199 42.697938405L33.114985249 42.6771838122L33.03125 42.65625L32.9567885625 42.641351L32.882803952 42.6245255384L32.8125 42.59375L32.7764907974 42.5487838816L32.7566707695 42.4942905983L32.75 42.4375L32.7592988025 42.3752428247L32.7920255894 42.3208860468L32.84375 42.28125L32.9338565448 42.2434057674L33.0289781571 42.2242436542L33.125 42.21875L33.2305531294 42.2301928693L33.3339691874 42.254583739L33.4375 42.28125L33.5532862669 42.3065326044L33.6688995351 42.3346657482L33.78125 42.375L33.78125 42.2293188348L33.78125 42.0840366857L33.78125 41.9375L33.6581680952 41.9105192729L33.533014689 41.8915728136L33.40625 41.875L33.2825322201 41.8592086498L33.157562983 41.8482164645L33.03125 41.84375L33.03125 41.84375L33.03125 41.84375L33.03125 41.84375M46.78125 41.84375L46.4878930487 41.8679653239L46.2078215598 41.9574830562L45.96875 42.125L45.7895396633 42.3614311984L45.6874385721 42.6406252693L45.65625 42.9375L45.6868523251 43.2240310051L45.790824178 43.4928090817L45.96875 43.71875L46.2074024113 43.8946028339L46.4853652082 43.9994211458L46.78125 44.03125L46.8966257043 44.0211672072L47.0113552099 43.9972573406L47.125 43.96875L47.2313980581 43.9443323638L47.3361007356 43.916427624L47.4375 43.875L47.4375 43.7293188348L47.4375 43.5840366857L47.4375 43.4375L47.3496695385 43.4892756451L47.2541094363 43.5297164392L47.15625 43.5625L47.0550799403 43.5930689377L46.9505620625 43.6159374689L46.84375 43.625L46.6718308105 43.6064002197L46.5096246065 43.5449297064L46.375 43.4375L46.279315263 43.2873995892L46.231273455 43.1152784326L46.21875 42.9375L46.2316917187 42.7498693183L46.2787790472 42.5668527614L46.375 42.40625L46.5106910474 42.2982258864L46.6723219804 42.2372390594L46.84375 42.21875L46.9493144831 42.2276160246L47.0534567769 42.2502497133L47.15625 42.28125L47.2551817345 42.3232919696L47.3484616572 42.3780142389L47.4375 42.4375L47.4375 42.2918188348L47.4375 42.1465366857L47.4375 42.0L47.3367042689 41.9507188556L47.2320180688 41.9076924151L47.125 41.875L47.0118139281 41.8549786627L46.8973107496 41.8459767664L46.78125 41.84375L46.78125 41.84375L46.78125 41.84375L46.78125 41.84375M23.5 41.875L23.5 42.5721884333L23.5 43.2710387069L23.5 43.96875L23.8017681278 43.96875L24.1042555597 43.96875L24.40625 43.96875L24.6236316966 43.9557276518L24.8359592454 43.9092491555L25.03125 43.8125L25.1450841982 43.6929107307L25.2041907176 43.5393637378L25.21875 43.375L25.2098262744 43.2550759509L25.1801971036 43.1383323578L25.125 43.03125L25.0571218909 42.9492092919L24.9726807238 42.8845001775L24.875 42.84375L24.949105321 42.8064913318L25.0120427136 42.7528057574L25.0625 42.6875L25.1093186453 42.6109107953L25.1437240675 42.5275924243L25.15625 42.4375L25.1324972092 42.2698512388L25.059121067 42.1185950253L24.9375 42.0L24.7392806221 41.9164950841L24.5274661273 41.8831978186L24.3125 41.875L24.0419492647 41.875L23.7707536361 41.875L23.5 41.875L23.5 41.875L23.5 41.875L23.5 41.875M25.6875 41.875L25.6875 42.5721884333L25.6875 43.2710387069L25.6875 43.96875L26.1869782805 43.96875L26.6876471333 43.96875L27.1875 43.96875L27.1875 43.8334746324L27.1875 43.6985697796L27.1875 43.5625L26.8753260747 43.5625L26.5624080417 43.5625L26.25 43.5625L26.25 43.4064130373L26.25 43.2507535918L26.25 43.09375L26.5309565328 43.09375L26.8125827625 43.09375L27.09375 43.09375L27.09375 42.9584746324L27.09375 42.8235697796L27.09375 42.6875L26.8127934672 42.6875L26.5311672375 42.6875L26.25 42.6875L26.25 42.5522246324L26.25 42.4173197796L26.25 42.28125L26.5517681278 42.28125L26.8542555597 42.28125L27.15625 42.28125L27.15625 42.1459746324L27.15625 42.0110697796L27.15625 41.875L26.667177517 41.875L26.1769392653 41.875L25.6875 41.875L25.6875 41.875L25.6875 41.875L25.6875 41.875M27.65625 41.875L27.65625 42.5721884333L27.65625 43.2710387069L27.65625 43.96875L27.8331485577 43.96875L28.009562596 43.96875L28.1875 43.96875L28.1875 43.7086050622L28.1875 43.4478400347L28.1875 43.1875L28.2403991222 43.1875L28.2930201027 43.1875L28.34375 43.1875L28.4210312864 43.1939389947L28.4946206761 43.2138039924L28.5625 43.25L28.6254777814 43.313073729L28.6758966997 43.3884666409L28.71875 43.46875L28.8019963801 43.6352427602L28.885014751 43.8012795021L28.96875 43.96875L29.1664601527 43.96875L29.3636287837 43.96875L29.5625 43.96875L29.4584420249 43.7710398473L29.3546690612 43.5738712163L29.25 43.375L29.2050088052 43.2864644837L29.1557515765 43.2018461453L29.09375 43.125L29.0288088723 43.0704916927L28.9547429587 43.0279948652L28.875 43.0L28.9910513239 42.9569948551L29.0981604748 42.8975672576L29.1875 42.8125L29.2449412079 42.706262241L29.2734622367 42.5892688985L29.28125 42.46875L29.2655005798 42.3049911393L29.2055912448 42.1505227138L29.09375 42.03125L28.909726693 41.9365154445L28.7069920082 41.8884734059L28.5 41.875L28.2190434672 41.875L27.9374172375 41.875L27.65625 41.875L27.65625 41.875L27.65625 41.875L27.65625 41.875M34.15625 41.875L34.15625 42.0102753676L34.15625 42.1451802204L34.15625 42.28125L34.3851775452 42.28125L34.6134780654 42.28125L34.84375 42.28125L34.84375 42.8431630656L34.84375 43.406415525L34.84375 43.96875L35.0206485577 43.96875L35.197062596 43.96875L35.375 43.96875L35.375 43.4068369344L35.375 42.843584475L35.375 42.28125L35.6039275452 42.28125L35.8322280654 42.28125L36.0625 42.28125L36.0625 42.1459746324L36.0625 42.0110697796L36.0625 41.875L35.4277463518 41.875L34.7914796848 41.875L34.15625 41.875L34.15625 41.875L34.15625 41.875L34.15625 41.875M36.34375 41.875L36.34375 42.5721884333L36.34375 43.2710387069L36.34375 43.96875L36.8432282805 43.96875L37.3438971333 43.96875L37.84375 43.96875L37.84375 43.8334746324L37.84375 43.6985697796L37.84375 43.5625L37.5315760747 43.5625L37.2186580417 43.5625L36.90625 43.5625L36.90625 43.4064130373L36.90625 43.2507535918L36.90625 43.09375L37.1872065328 43.09375L37.4688327625 43.09375L37.75 43.09375L37.75 42.9584746324L37.75 42.8235697796L37.75 42.6875L37.4690434672 42.6875L37.1874172375 42.6875L36.90625 42.6875L36.90625 42.5522246324L36.90625 42.4173197796L36.90625 42.28125L37.2080181278 42.28125L37.5105055597 42.28125L37.8125 42.28125L37.8125 42.1459746324L37.8125 42.0110697796L37.8125 41.875L37.323427517 41.875L36.8331892653 41.875L36.34375 41.875L36.34375 41.875L36.34375 41.875L36.34375 41.875M38.3125 41.875L38.3125 42.5721884333L38.3125 43.2710387069L38.3125 43.96875L38.4893985577 43.96875L38.665812596 43.96875L38.84375 43.96875L38.84375 43.7086050622L38.84375 43.4478400347L38.84375 43.1875L38.8966491222 43.1875L38.9492701027 43.1875L39.0 43.1875L39.0772808445 43.1939389947L39.1508704179 43.2138039924L39.21875 43.25L39.2817272084 43.313073729L39.3321458307 43.3884666409L39.375 43.46875L39.4582463801 43.6352427602L39.541264751 43.8012795021L39.625 43.96875L39.8227101527 43.96875L40.0198787837 43.96875L40.21875 43.96875L40.1146920249 43.7710398473L40.0109190612 43.5738712163L39.90625 43.375L39.8612579391 43.2864644837L39.8120010166 43.2018461453L39.75 43.125L39.6850575496 43.0704916927L39.6109916002 43.0279948652L39.53125 43.0L39.64730044 42.9569948551L39.7544099693 42.8975672576L39.84375 42.8125L39.9011912079 42.706262241L39.9297122367 42.5892688985L39.9375 42.46875L39.9217505798 42.3049911393L39.8618412448 42.1505227138L39.75 42.03125L39.565976693 41.9365154445L39.3632420082 41.8884734059L39.15625 41.875L38.8752934672 41.875L38.5936672375 41.875L38.3125 41.875L38.3125 41.875L38.3125 41.875L38.3125 41.875M40.53125 41.875L40.53125 42.5721884333L40.53125 43.2710387069L40.53125 43.96875L40.7081485577 43.96875L40.884562596 43.96875L41.0625 43.96875L41.0625 43.7086050622L41.0625 43.4478400347L41.0625 43.1875L41.1153991222 43.1875L41.1680201027 43.1875L41.21875 43.1875L41.2960308445 43.1939389947L41.3696204179 43.2138039924L41.4375 43.25L41.5004772084 43.313073729L41.5508958307 43.3884666409L41.59375 43.46875L41.6769963801 43.6352427602L41.760014751 43.8012795021L41.84375 43.96875L42.0414601527 43.96875L42.2386287837 43.96875L42.4375 43.96875L42.3334420249 43.7710398473L42.2296690612 43.5738712163L42.125 43.375L42.0727919437 43.2842199454L42.0093223525 43.2009147269L41.9375 43.125L41.8831892004 43.0728546436L41.8205761125 43.0277034906L41.75 43.0L41.86605044 42.9569948551L41.9731599693 42.8975672576L42.0625 42.8125L42.1199407654 42.706262241L42.1484620424 42.5892688985L42.15625 42.46875L42.1405005798 42.3049911393L42.0805912448 42.1505227138L41.96875 42.03125L41.7737969594 41.9365154445L41.5615740844 41.889160309L41.34375 41.875L41.0731992647 41.875L40.8020036361 41.875L40.53125 41.875L40.53125 41.875L40.53125 41.875L40.53125 41.875M42.75 41.875L42.75 42.5721884333L42.75 43.2710387069L42.75 43.96875L43.239072483 43.96875L43.7293107347 43.96875L44.21875 43.96875L44.21875 43.8334746324L44.21875 43.6985697796L44.21875 43.5625L43.9065760747 43.5625L43.5936580417 43.5625L43.28125 43.5625L43.28125 43.4064130373L43.28125 43.2507535918L43.28125 43.09375L43.5726123303 43.09375L43.8646691611 43.09375L44.15625 43.09375L44.15625 42.9584746324L44.15625 42.8235697796L44.15625 42.6875L43.8648876697 42.6875L43.5728308389 42.6875L43.28125 42.6875L43.28125 42.5522246324L43.28125 42.4173197796L43.28125 42.28125L43.5830181278 42.28125L43.8855055597 42.28125L44.1875 42.28125L44.1875 42.1459746324L44.1875 42.0110697796L44.1875 41.875L43.7088333145 41.875L43.2290256639 41.875L42.75 41.875L42.75 41.875L42.75 41.875L42.75 41.875M44.71875 41.875L44.71875 42.5721884333L44.71875 43.2710387069L44.71875 43.96875L44.8956485577 43.96875L45.072062596 43.96875L45.25 43.96875L45.25 43.2715615667L45.25 42.5727112931L45.25 41.875L45.0731014423 41.875L44.896687404 41.875L44.71875 41.875L44.71875 41.875L44.71875 41.875L44.71875 41.875M47.90625 41.875L47.90625 42.5721884333L47.90625 43.2710387069L47.90625 43.96875L48.0831485577 43.96875L48.259562596 43.96875L48.4375 43.96875L48.4375 43.6773876697L48.4375 43.3853308389L48.4375 43.09375L48.6976449378 43.09375L48.9584099653 43.09375L49.21875 43.09375L49.21875 43.3851123303L49.21875 43.6771691611L49.21875 43.96875L49.4060543552 43.96875L49.5928456898 43.96875L49.78125 43.96875L49.78125 43.2715615667L49.78125 42.5727112931L49.78125 41.875L49.5939456448 41.875L49.4071543102 41.875L49.21875 41.875L49.21875 42.1455507353L49.21875 42.4167463639L49.21875 42.6875L48.9586050622 42.6875L48.6978400347 42.6875L48.4375 42.6875L48.4375 42.4169492647L48.4375 42.1457536361L48.4375 41.875L48.2606014423 41.875L48.084187404 41.875L47.90625 41.875L47.90625 41.875L47.90625 41.875L47.90625 41.875M22.03125 42.21875L22.1749704211 42.238202488L22.3044449478 42.3027770001L22.40625 42.40625L22.4863030235 42.5715302166L22.5219994984 42.753612583L22.53125 42.9375L22.5223865579 43.1112280247L22.4864339715 43.2816388876L22.40625 43.4375L22.3046186945 43.5408467261L22.1749956492 43.6055424253L22.03125 43.625L21.8787656279 43.6050706308L21.7385417768 43.5431271793L21.625 43.4375L21.544945126 43.2820313181L21.50893444 43.1118607746L21.5 42.9375L21.5093693105 42.7525188592L21.5450270761 42.5712619793L21.625 42.40625L21.7380085077 42.3009711427L21.8787103148 42.2386968163L22.03125 42.21875L22.03125 42.21875L22.03125 42.21875L22.03125 42.21875M30.84375 42.21875L30.9874708317 42.238202488L31.1169458366 42.3027770001L31.21875 42.40625L31.2988039005 42.5715302166L31.3344998589 42.753612583L31.34375 42.9375L31.3348869067 43.1112280247L31.2989348481 43.2816388876L31.21875 43.4375L31.1171195834 43.5408467261L30.98749606 43.6055424253L30.84375 43.625L30.6912656279 43.6050706308L30.5510417768 43.5431271793L30.4375 43.4375L30.3574455645 43.2820313181L30.3214346155 43.1118607746L30.3125 42.9375L30.3218694925 42.7525188592L30.3575275148 42.5712619793L30.4375 42.40625L30.5505085077 42.3009711427L30.6912103148 42.2386968163L30.84375 42.21875L30.84375 42.21875L30.84375 42.21875L30.84375 42.21875M24.0625 42.25L24.1561521776 42.25L24.2495478449 42.25L24.34375 42.25L24.411188989 42.2558085776L24.4745937641 42.2756482265L24.53125 42.3125L24.5691296803 42.3572150442L24.5889003312 42.411998435L24.59375 42.46875L24.5886735553 42.5270778898L24.5685026057 42.5815964892L24.53125 42.625L24.4750493945 42.6612315918L24.4099438124 42.6817594837L24.34375 42.6875L24.2500978224 42.6875L24.1567021551 42.6875L24.0625 42.6875L24.0625 42.5418188348L24.0625 42.3965366857L24.0625 42.25L24.0625 42.25L24.0625 42.25L24.0625 42.25M28.1875 42.28125L28.2707463801 42.28125L28.353764751 42.28125L28.4375 42.28125L28.5244682845 42.2860030152L28.6103854515 42.3037317105L28.6875 42.34375L28.729668266 42.397254962L28.7467117208 42.4629822429L28.75 42.53125L28.7464113302 42.6082688101L28.7300142236 42.685158282L28.6875 42.75L28.6096262985 42.790664094L28.5245403641 42.8078937772L28.4375 42.8125L28.3542536199 42.8125L28.271235249 42.8125L28.1875 42.8125L28.1875 42.6356014423L28.1875 42.459187404L28.1875 42.28125L28.1875 42.28125L28.1875 42.28125L28.1875 42.28125M38.84375 42.28125L38.9269963801 42.28125L39.010014751 42.28125L39.09375 42.28125L39.1709233129 42.2854770271L39.2459777533 42.3035176485L39.3125 42.34375L39.3639642676 42.3960005371L39.3965070358 42.4600768885L39.40625 42.53125L39.3955903005 42.6122634454L39.3637880556 42.6879946054L39.3125 42.75L39.2459082657 42.790664094L39.1714347197 42.8083515942L39.09375 42.8125L39.0105036199 42.8125L38.927485249 42.8125L38.84375 42.8125L38.84375 42.6356014423L38.84375 42.459187404L38.84375 42.28125L38.84375 42.28125L38.84375 42.28125L38.84375 42.28125M41.0625 42.28125L41.1457463801 42.28125L41.228764751 42.28125L41.3125 42.28125L41.389674165 42.2854770271L41.4647283405 42.3035176485L41.53125 42.34375L41.5827147949 42.3960005371L41.6152579089 42.4600768885L41.625 42.53125L41.6143411811 42.6122634454L41.58253858 42.6879946054L41.53125 42.75L41.4646588536 42.790664094L41.3901855737 42.8083515942L41.3125 42.8125L41.2292536199 42.8125L41.146235249 42.8125L41.0625 42.8125L41.0625 42.6356014423L41.0625 42.459187404L41.0625 42.28125L41.0625 42.28125L41.0625 42.28125L41.0625 42.28125M24.0625 43.0625L24.1665579751 43.0625L24.2703309388 43.0625L24.375 43.0625L24.4616802758 43.0667274273L24.5480264887 43.0841190972L24.625 43.125L24.6686336523 43.1900188477L24.6844332075 43.2667114954L24.6875 43.34375L24.677884367 43.4157913679L24.6448550188 43.4799625474L24.59375 43.53125L24.5278344009 43.571779966L24.452436309 43.5898637573L24.375 43.59375L24.2709420249 43.59375L24.1671690612 43.59375L24.0625 43.59375L24.0625 43.4168514423L24.0625 43.240437404L24.0625 43.0625L24.0625 43.0625L24.0625 43.0625L24.0625 43.0625"
         transform="matrix(6.0984769,0,0,6.0984769,26.86885,560.51827)"
         id="path5106" />
      <path
         inkscape:connector-curvature="0"
         id="rect3438"
         d="M318.18187 709.71717L302.460371704 709.745184626L286.739441835 709.758360682L271.019039205 709.760717543L255.299109304 709.756273625L239.579577639 709.749046494L223.857938957 709.743052422L208.137509028 709.742310513L192.418053417 709.750836883L176.697178838 709.772650836L160.97633 709.81177L156.719861416 710.375145018L152.600450915 711.585455804L148.699691934 713.384845208L145.088879037 715.711049319L141.828304214 718.506121786L138.975578292 721.717925143L136.595127609 725.2914385L134.753247614 729.170297228L133.520046147 733.283224907L132.95752 737.54088L132.839291737 739.826045405L132.772113064 742.113585907L132.74557816 744.401203377L132.749181782 746.69088448L132.772420701 748.978849081L132.804814867 751.267201756L132.835897824 753.556334397L132.855174604 755.844794584L132.852171073 758.13378428L132.81639 760.42227L132.822285965 766.157519748L132.814657593 771.893055411L132.799632923 777.628714552L132.783341808 783.363114332L132.771902751 789.097709092L132.771439321 794.832366207L132.788084001 800.56837666L132.8279549 806.302410259L132.897209792 812.037788051L133.00197 817.77223L133.769475921 821.905219809L135.145169858 825.876765917L137.072448494 829.612483944L139.493282858 833.050981387L142.350788347 836.135431793L145.593263265 838.813016771L149.167077411 841.026293704L153.017307149 842.716176833L157.07339926 843.820149992L161.25083 844.28461L163.389022156 844.370707774L165.529118176 844.4163725L167.669024441 844.430378587L169.808826726 844.421581073L171.949008529 844.398808029L174.089461322 844.370881385L176.230607991 844.346620652L178.371146369 844.334867337L180.512257127 844.344449431L182.65303 844.38421L196.876559509 844.372284672L211.099748249 844.3722919L225.322570725 844.37976265L239.545013506 844.390228906L253.767081256 844.399223523L267.988807577 844.402280006L282.212012919 844.394930416L296.4341338 844.372707824L310.657272779 844.331140079L324.88006 844.26576L328.985405579 843.598230598L332.94835732 842.333443036L336.694121039 840.525040082L340.162115773 838.227625561L343.298360938 835.492150865L346.047174077 832.368842705L348.352129843 828.906395415L350.153589162 825.155897675L351.387630498 821.184789407L351.99936 817.07004L352.133220004 814.92983818L352.209823912 812.785897428L352.240877877 810.640843887L352.238282148 808.496044007L352.213945892 806.351143219L352.179769049 804.2076906L352.147568978 802.063500864L352.129206382 799.92000022L352.136522168 797.776128647L352.18138 795.63292L352.167606737 789.705913759L352.170807517 783.778628815L352.184138525 777.851226496L352.200754074 771.92512933L352.213820194 765.998827825L352.216498528 760.072452505L352.20194206 754.144662685L352.163306537 748.217808119L352.093740193 742.291163346L351.9864 736.36545L351.235964365 732.295030921L349.893769486 728.379038004L348.014378857 724.690301991L345.654644434 721.288815664L342.868008067 718.226579457L339.705791955 715.555216836L336.216485775 713.326767629L332.454993048 711.598887976L328.482705152 710.429310794L324.38135 709.87193L323.761846809 709.827494778L323.142781095 709.791148972L322.523217244 709.762219892L321.902474135 709.740089334L321.283181602 709.724235524L320.662399917 709.713974419L320.042275158 709.708746877L319.42271293 709.70793484L318.80225606 709.710938438L318.18187 709.71716L318.18187 709.71717L318.18187 709.71717L318.18187 709.71717L318.18187 709.71717L318.18187 709.71717L318.18187 709.71717L318.18187 709.71717L318.18187 709.71717L318.18187 709.71717L318.18187 709.71717M165.76567 714.56669L174.116608065 714.599121889L182.467406214 714.617999901L190.818057346 714.625991705L199.168561448 714.625764286L207.518929126 714.619984007L215.870462247 714.611315284L224.221370475 714.602425842L232.571749386 714.59598139L240.922841365 714.594647104L249.27385 714.60109L256.818550012 714.613790491L264.36321308 714.615647337L271.907773603 714.610887536L279.452172395 714.603737131L286.996359874 714.59842135L294.541453026 714.599165618L302.085775204 714.610196122L309.629353622 714.635736178L317.17325144 714.680016001L324.71669 714.74726L328.242873678 715.362595569L331.633609186 716.508405619L334.824005169 718.133547073L337.757902018 720.18413867L340.389005465 722.611667098L342.670574665 725.370825424L344.55201445 728.415709824L345.979900044 731.698197397L346.898081825 735.158466224L347.25683 738.71897L347.323996239 740.728769551L347.357556154 742.739054247L347.365049834 744.750241041L347.354017613 746.761205595L347.331988834 748.773913244L347.306547763 750.785057866L347.285217191 752.796842202L347.275554643 754.808080215L347.285106086 756.81991874L347.32143 758.83154L347.309529398 764.700569582L347.313596688 770.569440226L347.327041951 776.438133978L347.343287425 782.306645328L347.35576251 788.176061735L347.357886906 794.045849141L347.343072533 799.915502685L347.304712323 805.785651363L347.236205782 811.654026555L347.1309 817.52218L346.428114041 821.02960525L345.199416422 824.389272036L343.497467486 827.53762229L341.377402437 830.419915299L338.888718066 832.991172225L336.078588509 835.205319092L332.991187535 837.014980421L329.677890689 838.366471626L326.200612885 839.205446268L322.63588 839.48503L320.464037588 839.525405065L318.291956334 839.544180584L316.119127747 839.54642471L313.946708452 839.537207744L311.772517298 839.521590057L309.600067557 839.504671202L307.426921671 839.491507615L305.254302731 839.487179106L303.080913758 839.49675977L300.90758 839.52533L286.865495224 839.513954679L272.823705206 839.514602916L258.782250148 839.522732288L244.74115833 839.533801405L230.700440171 839.54326976L216.660077517 839.546597509L202.618288158 839.539243341L188.577617905 839.516666931L174.536006049 839.47432267L160.49482 839.40767L156.964814728 838.832259025L153.565471034 837.722055416L150.363581498 836.129275568L147.413590523 834.107322439L144.763133831 831.705831112L142.457922538 828.969203633L140.549145428 825.943377984L139.091374154 822.677781976L138.140635432 819.230132097L137.74832 815.67674L137.668117079 813.696534355L137.626987604 811.714586166L137.616310467 809.732831662L137.627389885 807.751188709L137.651576961 805.767754792L137.680162697 803.785822167L137.704505864 801.803254336L137.715926563 799.821254311L137.705758326 797.838726156L137.66532 795.85651L137.678968052 789.934700953L137.675547261 784.012522285L137.661954855 778.090167629L137.645089967 772.169090744L137.631839859 766.247815835L137.629096265 760.326505732L137.643759652 754.403853349L137.682717924 748.483323142L137.752897612 742.561511981L137.86119 736.6408L138.561361323 733.127425475L139.788329784 729.759356864L141.488443988 726.604632867L143.608630165 723.715257125L146.099752393 721.137682904L148.914597625 718.919341626L152.00785833 717.109148075L155.32809778 715.761046168L158.814218782 714.929373715L162.38649 714.6613L162.724515708 714.643182748L163.062889259 714.627680597L163.40057358 714.614572019L163.737649172 714.603576757L164.07620348 714.594370033L164.414343177 714.58674727L164.752116071 714.580437882L165.090592544 714.575159348L165.428121239 714.570673032L165.76569 714.5667L165.76567 714.56669L165.76567 714.56669L165.76567 714.56669L165.76567 714.56669L165.76567 714.56669L165.76567 714.56669L165.76567 714.56669L165.76567 714.56669L165.76567 714.56669L165.76567 714.56669"
         style="font-size:medium;font-style:normal;font-variant:normal;font-weight:normal;font-stretch:normal;text-indent:0;text-align:start;text-decoration:none;line-height:normal;letter-spacing:normal;word-spacing:normal;text-transform:none;direction:ltr;block-progression:tb;writing-mode:lr-tb;text-anchor:start;baseline-shift:baseline;color:#000000;fill:#000000;fill-opacity:0.95686275;stroke:none;stroke-width:5.65752029;marker:none;visibility:visible;display:inline;overflow:visible;enable-background:accumulate;font-family:Sans;-inkscape-font-specification:Sans" />
      <path
         inkscape:connector-curvature="0"
         d="M180.67676 740.12906L176.507731372 740.454545999L172.442188386 741.430005935L168.5818293 743.033577354L165.019963527 745.222557048L161.841336973 747.939807954L159.122991326 751.117161918L156.932879988 754.678070686L155.328321443 758.538048826L154.352532081 762.602357581L154.02689 766.77082L154.02689 769.999308607L154.02689 773.228000672L154.02689 776.455633562L154.02689 779.684561395L154.02689 782.913404341L154.02689 786.142250147L154.02689 789.369697129L154.02689 792.597323237L154.02689 795.826479353L154.02689 799.0555L154.805229968 799.0555L155.583149802 799.0555L156.360809108 799.0555L157.13886098 799.0555L157.916614596 799.0555L158.696041524 799.0555L159.475483486 799.0555L160.25351199 799.0555L161.032413689 799.0555L161.81024 799.0555L161.81024 797.054518228L161.81024 795.053410355L161.81024 793.051750703L161.81024 791.051708313L161.81024 789.050506582L161.81024 787.04930297L161.81024 785.048966247L161.81024 783.048518433L161.81024 781.04712227L161.81024 779.04581L169.346354101 779.04581L176.882943126 779.04581L184.419334988 779.04581L191.955271245 779.04581L199.492102969 779.04581L207.027212943 779.04581L214.563842487 779.04581L222.099373045 779.04581L229.63538059 779.04581L237.1709 779.04581L237.1709 778.267470032L237.1709 777.489550198L237.1709 776.711890892L237.1709 775.93383902L237.1709 775.156085404L237.1709 774.376658476L237.1709 773.597216514L237.1709 772.81918801L237.1709 772.040286311L237.1709 771.26246L229.634785899 771.26246L222.098196874 771.26246L214.561805012 771.26246L207.025868755 771.26246L199.489037031 771.26246L191.953927057 771.26246L184.417297513 771.26246L176.881766955 771.26246L169.34575941 771.26246L161.81024 771.26246L161.81024 770.813293133L161.81024 770.363285519L161.81024 769.913416517L161.81024 769.464535182L161.81024 769.015916743L161.81024 768.566399698L161.81024 768.116926556L161.81024 767.667335207L161.81024 767.218722686L161.81024 766.77082L162.034529908 763.81467312L162.711857842 760.928068426L163.834537645 758.183445904L165.377386178 755.651287136L167.300756796 753.396736424L169.557202541 751.474708371L172.089613985 749.934030903L174.833856705 748.813020843L177.719727033 748.136595159L180.67676 747.91241L186.326210059 747.91241L191.976016145 747.91241L197.625674427 747.91241L203.275799684 747.91241L208.92570513 747.91241L214.575563478 747.91241L220.22500463 747.91241L225.873569023 747.91241L231.522443086 747.91241L237.1709 747.91241L237.1709 747.134070032L237.1709 746.356150198L237.1709 745.578490892L237.1709 744.80043902L237.1709 744.022685404L237.1709 743.243258476L237.1709 742.463816514L237.1709 741.68578801L237.1709 740.906886311L237.1709 740.12906L231.521449941 740.12906L225.871643855 740.12906L220.221985573 740.12906L214.571860316 740.12906L208.92195487 740.12906L203.272096522 740.12906L197.62265537 740.12906L191.974090977 740.12906L186.325216914 740.12906L180.67676 740.12906L180.67676 740.12906L180.67676 740.12906L180.67676 740.12906L180.67676 740.12906L180.67676 740.12906L180.67676 740.12906L180.67676 740.12906L180.67676 740.12906L180.67676 740.12906L180.67676 740.12906M247.39465 722.63274L247.39465 730.275064779L247.39465 737.917871176L247.39465 745.560477629L247.39465 753.202622058L247.39465 760.845674574L247.39465 768.486981075L247.39465 776.12982856L247.39465 783.771561572L247.39465 791.413778294L247.39465 799.0555L248.172989968 799.0555L248.950909802 799.0555L249.728569108 799.0555L250.50662098 799.0555L251.284374596 799.0555L252.063801524 799.0555L252.843243486 799.0555L253.62127199 799.0555L254.400173689 799.0555L255.178 799.0555L255.178 795.899980859L255.178 792.744262858L255.178 789.589580093L255.178 786.433631653L255.178 783.277766181L255.178 780.121897915L255.178 776.967396856L255.178 773.81272072L255.178 770.656549156L255.178 767.50051L255.418154317 764.417379026L256.140803632 761.411998185L257.333444707 758.560114904L258.965837268 755.932999817L260.991773834 753.597903552L263.359604606 751.608593815L266.00902616 750.013352063L268.87474963 748.850421204L271.886396173 748.146377105L274.96879 747.91241L277.829999262 747.91241L280.691388838 747.91241L283.551839732 747.91241L286.413438253 747.91241L289.274961545 747.91241L292.13648737 747.91241L294.996773505 747.91241L297.857218388 747.91241L300.719019223 747.91241L303.5807 747.91241L306.650672658 748.145241971L309.649092646 748.848378471L312.499283055 750.013189122L315.128774113 751.613314025L317.472848743 753.610121997L319.471534098 755.952980269L321.073904959 758.582594131L322.239965486 761.432368855L322.943662428 764.429401187L323.17691 767.50051L323.17691 770.656029141L323.17691 773.811747142L323.17691 776.966429907L323.17691 780.122378347L323.17691 783.278243819L323.17691 786.434112085L323.17691 789.588613144L323.17691 792.74328928L323.17691 795.899460844L323.17691 799.0555L323.955249968 799.0555L324.733169802 799.0555L325.510829108 799.0555L326.28888098 799.0555L327.066634596 799.0555L327.846061524 799.0555L328.625503486 799.0555L329.40353199 799.0555L330.182433689 799.0555L330.96026 799.0555L330.96026 795.899980859L330.96026 792.744262858L330.96026 789.589580093L330.96026 786.433631653L330.96026 783.277766181L330.96026 780.121897915L330.96026 776.967396856L330.96026 773.81272072L330.96026 770.656549156L330.96026 767.50051L330.625678657 763.217220238L329.622988521 759.040761232L327.974233819 755.074596626L325.724261762 751.416543968L322.931475797 748.152386109L319.665989488 745.361131962L316.006525805 743.112453103L312.039959181 741.46510047L307.863691681 740.463348956L303.5807 740.12906L300.719490738 740.12906L297.858101162 740.12906L294.997650268 740.12906L292.136051747 740.12906L289.274528455 740.12906L286.41300263 740.12906L283.552716495 740.12906L280.692271612 740.12906L277.830470777 740.12906L274.96879 740.12906L272.757832526 740.217482237L270.561580736 740.48359627L268.393184 740.927381259L266.26865231 741.546255912L264.202404008 742.335779728L262.205780405 743.291135308L260.294392674 744.403977485L258.47839888 745.667286431L256.768597785 747.07296667L255.178 748.60967L255.178 746.011960419L255.178 743.414087132L255.178 740.815497515L255.178 738.217520423L255.178 735.619677171L255.178 733.021879529L255.178 730.425245094L255.178 727.828498298L255.178 725.230549277L255.178 722.63274L254.399660032 722.63274L253.621740198 722.63274L252.844080892 722.63274L252.06602902 722.63274L251.288275404 722.63274L250.508848476 722.63274L249.729406514 722.63274L248.95137801 722.63274L248.172476311 722.63274L247.39465 722.63274L247.39465 722.63274L247.39465 722.63274L247.39465 722.63274L247.39465 722.63274L247.39465 722.63274L247.39465 722.63274L247.39465 722.63274L247.39465 722.63274L247.39465 722.63274L247.39465 722.63274"
         id="rect3440"
         style="fill:#000000;fill-opacity:1;fill-rule:nonzero;stroke:none" />
      <path
         inkscape:connector-curvature="0"
         id="path3487"
         d="m 329.41466,806.9055 c -23.74115,0.17867 -47.49293,0.0622 -71.23817,0.12763 -34.75782,0.0291 -69.51565,0.0585 -104.27348,0.0873 -1.6723,0.6174 -1.19237,3.09095 0.42992,3.38779 1.48677,0.22671 2.96617,-0.36403 4.497,-0.11408 57.66696,-0.0478 115.33393,-0.0966 173.0009,-0.14388 0.64445,-1.26193 0.26799,-3.24541 -1.40155,-3.3104 -0.33571,-0.0495 -0.6762,-0.0448 -1.01462,-0.0344 z"
         style="font-size:medium;font-style:normal;font-variant:normal;font-weight:normal;font-stretch:normal;text-indent:0;text-align:start;text-decoration:none;line-height:normal;letter-spacing:normal;word-spacing:normal;text-transform:none;direction:ltr;block-progression:tb;writing-mode:lr-tb;text-anchor:start;baseline-shift:baseline;color:#000000;fill:#000000;fill-opacity:1;fill-rule:evenodd;stroke:none;stroke-width:3.90986133;marker:none;visibility:visible;display:inline;overflow:visible;enable-background:accumulate;font-family:Sans;-inkscape-font-specification:Sans" />
      <path
         style="fill:#ffff00;fill-opacity:1;stroke:none"
         d="m 650.25948,714.59169 c -12.1521,-0.0829 -22.97999,10.16104 -24.3939,22.10698 -0.43202,19.72857 -0.10892,39.34219 -0.19058,59.07899 0.19485,6.60612 -0.34218,13.21893 0,19.82003 0.33828,12.07251 10.89625,22.84014 22.86929,23.82218 46.80033,0.26772 93.46136,-0.0628 140.26497,0 7.24298,-0.13232 14.48491,0.17626 21.72583,0 12.11168,0.0366 23.16322,-9.9966 24.58448,-21.9164 0.41897,-19.53511 0.11707,-39.13903 0.19026,-58.69782 -0.17381,-6.70351 0.28847,-13.50099 0,-20.20121 -0.22686,-12.11102 -10.71009,-22.69901 -22.6787,-23.82217 -25.14337,-0.26711 -50.32171,-0.12563 -75.46865,-0.19028 -27.83589,-0.0366 -55.63846,0.13356 -83.47291,0 -1.12712,0.0122 -2.30483,-0.0652 -3.43039,0 z m 85.1881,8.00425 7.6231,0 0,25.91853 c 4.98881,-5.22097 12.0435,-8.38541 19.82006,-8.38541 l 28.5866,0 c 15.09781,0 27.44315,12.15451 27.44315,27.25257 l 0,31.63585 -7.81367,0 0,-31.63585 c 0,-10.92042 -8.70901,-19.43889 -19.62948,-19.43889 l -28.5866,0 c -10.92048,0 -19.82006,8.51847 -19.82006,19.43889 l 0,31.63585 -7.6231,0 z m -66.89266,17.53312 56.60148,0 0,7.81368 -56.60148,0 c -10.51681,0 -18.86717,8.35034 -18.86717,18.86716 l 0,4.38328 75.46865,0 0,7.81367 -75.46865,0 0,20.01063 -7.62309,0 0,-32.20758 c 0,-14.69416 11.79612,-26.68084 26.49026,-26.68084 z m 148.84094,66.7021 c 0.33846,-0.0121 0.61716,-0.0488 0.9529,0 1.6695,0.0652 2.16909,2.16854 1.52461,3.43038 -57.66702,0.0488 -115.37735,0.1427 -173.04428,0.19027 -1.53083,-0.25003 -3.08708,0.22686 -4.57386,0 -1.62228,-0.297 -2.05346,-2.81297 -0.38115,-3.43039 34.75781,-0.0305 69.48799,0.0305 104.24584,0 23.74528,-0.0653 47.53482,-0.0121 71.27594,-0.19026 z m -119.87318,5.52673 3.23982,0 0,2.94715 -3.23982,0 z m 7.6231,0 3.04923,0 0,2.94715 -3.04923,0 z m -56.02976,3.2398 c 2.05513,0 3.59986,0.72981 4.76444,1.90578 1.16457,1.17596 1.90577,2.69199 1.90577,4.76445 0,2.06641 -0.7412,3.77903 -1.90577,4.95499 -1.16458,1.176 -2.70931,1.71521 -4.76444,1.71521 -2.04943,0 -3.59416,-0.53971 -4.76443,-1.71521 -1.16458,-1.17596 -1.7152,-2.88858 -1.7152,-4.95499 0,-2.07246 0.55063,-3.58849 1.7152,-4.76445 1.17027,-1.17597 2.715,-1.90578 4.76443,-1.90578 z m 53.74283,0 c 2.05512,0 3.59983,0.72981 4.76443,1.90578 1.16457,1.17596 1.90578,2.69199 1.90578,4.76445 0,2.06641 -0.74121,3.77903 -1.90578,4.95499 -1.1646,1.176 -2.70931,1.71521 -4.76443,1.71521 -2.04943,0 -3.59417,-0.53971 -4.76444,-1.71521 -1.16458,-1.17596 -1.71519,-2.88858 -1.71519,-4.95499 0,-2.07246 0.55063,-3.58849 1.71519,-4.76445 1.17027,-1.17597 2.71501,-1.90578 4.76444,-1.90578 z m 13.53099,0 c 0.70218,0 1.35423,0.0824 2.09636,0.1903 0.74212,0.10244 1.49339,0.36042 2.28692,0.5714 l 0,2.66811 c -0.70218,-0.31408 -1.42844,-0.60255 -2.09635,-0.76233 -0.6679,-0.15978 -1.12151,-0.19027 -1.71519,-0.19027 -0.7878,0 -1.52902,0.16465 -1.90578,0.38117 -0.37688,0.21709 -0.57143,0.4964 -0.57143,0.95287 0,0.34273 0.1299,0.56838 0.38116,0.76231 0.25674,0.18845 0.85671,0.43482 1.52462,0.57143 l 1.33404,0.19027 c 1.42143,0.28541 2.44982,0.75182 3.04924,1.33404 0.59948,0.58241 0.95289,1.40442 0.95289,2.47751 0,1.41014 -0.49459,2.35859 -1.33405,3.04924 -0.83347,0.6851 -2.09324,1.14347 -3.81154,1.14347 -0.81061,0 -1.66117,-0.0366 -2.47751,-0.19026 -0.81634,-0.15431 -1.66117,-0.45984 -2.47751,-0.76234 l 0,-2.85865 c 0.81634,0.43361 1.71825,0.92088 2.47751,1.14347 0.76493,0.21649 1.3885,0.19027 2.09635,0.19027 0.71932,0 1.3327,-0.14148 1.7152,-0.38116 0.38237,-0.23966 0.57143,-0.50799 0.57143,-0.95288 0,-0.39946 -0.11832,-0.73608 -0.38116,-0.9529 -0.25675,-0.21649 -0.74822,-0.40065 -1.52462,-0.5714 l -1.33404,-0.19 c -1.27873,-0.2738 -2.26498,-0.73448 -2.85866,-1.33404 -0.58789,-0.59947 -0.76231,-1.46138 -0.76231,-2.47748 0,-1.27312 0.32139,-2.17358 1.14346,-2.85868 0.82201,-0.68509 2.07964,-1.14347 3.62097,-1.14347 z m 83.85407,0 c 0.71357,0 1.43983,0.22139 2.09634,0.38117 0.65651,0.15978 1.30069,0.25795 1.90578,0.57143 l 0,2.66808 c -0.61084,-0.41713 -1.31203,-0.75889 -1.90578,-0.9529 -0.59399,-0.19393 -1.24926,-0.19027 -1.90577,-0.19027 -1.17597,0 -1.99446,0.3897 -2.66808,1.14347 -0.67365,0.75334 -1.14347,1.72465 -1.14347,3.04925 0,1.3188 0.46957,2.29558 1.14347,3.04922 0.67362,0.75366 1.49211,1.14347 2.66808,1.14347 0.65651,0 1.31208,0.003 1.90577,-0.19027 0.594,-0.19392 1.29494,-0.53605 1.90578,-0.95287 l 0,2.66808 c -0.60498,0.31406 -1.24927,0.60252 -1.90578,0.7623 -0.65651,0.15978 -1.38277,0.19027 -2.09634,0.19027 -2.12937,0 -3.90109,-0.52752 -5.14559,-1.71521 -1.24445,-1.19302 -1.71521,-2.91695 -1.71521,-4.95499 0,-2.04385 0.47081,-3.57687 1.71521,-4.76445 1.2445,-1.19303 3.01622,-1.90578 5.14559,-1.90578 z m -141.98017,0.1906 4.95501,0 c 1.77541,0 3.01801,0.41652 3.81155,0.95287 0.7992,0.53669 1.14346,1.29574 1.14346,2.47751 0,0.62212 -0.09,1.2758 -0.38115,1.71521 -0.29114,0.43358 -0.78033,0.74156 -1.33404,0.95287 0.70785,0.20551 1.32701,0.58973 1.71519,1.14348 0.38817,0.55374 0.57173,1.10096 0.57173,1.90577 0,1.23292 -0.50056,2.25362 -1.33404,2.85865 -0.83346,0.60497 -2.11037,0.9529 -3.81155,0.9529 l -5.33616,0 z m 13.34041,0 8.76656,0 0,2.66808 -5.52674,0 0,2.28691 5.33617,0 0,2.47751 -5.33617,0 0,2.85868 5.71732,0 0,2.66808 -8.95714,0 z m 12.00638,0 4.95501,0 c 1.68406,0 2.83886,0.38785 3.62097,0.95287 0.78778,0.56533 1.33401,1.44644 1.33404,2.66808 -3e-5,0.84502 -0.35127,1.55403 -0.7623,2.09638 -0.40531,0.54213 -0.89316,0.8867 -1.7152,1.14344 0.45098,0.10307 0.78951,0.39701 1.14346,0.7623 0.35963,0.35982 0.77812,0.97863 1.14347,1.71521 l 1.71519,3.62098 -3.43039,0 -1.52462,-3.23981 c -0.31401,-0.63943 -0.6275,-1.09986 -0.95289,-1.33404 -0.31968,-0.23418 -0.79744,-0.38117 -1.33404,-0.38117 l -0.95288,0 0,4.95502 -3.23982,0 z m 39.44952,0 11.81579,0 0,2.66808 -4.19269,0 0,10.29118 -3.43041,0 0,-10.29118 -4.19269,0 z m 13.531,0 8.76657,0 0,2.66808 -5.52676,0 0,2.28691 5.33616,0 0,2.47751 -5.33616,0 0,2.85868 5.71733,0 0,2.66808 -8.95714,0 z m 12.00638,0 4.955,0 c 1.68403,0 2.83892,0.38785 3.62098,0.95287 0.78781,0.56533 1.33404,1.44644 1.33404,2.66808 0,0.84502 -0.35129,1.55403 -0.76231,2.09638 -0.40554,0.54213 -0.89319,0.8867 -1.7152,1.14344 0.45067,0.10307 0.78952,0.39701 1.14347,0.7623 0.35981,0.35982 0.7781,0.97863 1.14347,1.71521 l 1.71518,3.62098 -3.43039,0 -1.5246,-3.23981 c -0.31409,-0.63943 -0.81806,-1.09986 -1.14348,-1.33404 -0.31956,-0.23418 -0.60679,-0.38117 -1.14347,-0.38117 l -0.95287,0 0,4.95502 -3.23982,0 z m 13.3404,0 5.14559,0 c 1.68404,0 2.83892,0.38785 3.62099,0.95287 0.78781,0.56533 1.14347,1.44644 1.14347,2.66808 0,0.84502 -0.16042,1.55403 -0.57144,2.09638 -0.40554,0.54213 -1.08376,0.8867 -1.90577,1.14344 0.45067,0.10307 0.98008,0.39701 1.33404,0.7623 0.35981,0.35982 0.7781,0.97863 1.14347,1.71521 l 1.71518,3.62098 -3.43039,0 -1.7152,-3.23981 c -0.31406,-0.63943 -0.62746,-1.09986 -0.95288,-1.33404 -0.31956,-0.23418 -0.60679,-0.38117 -1.14347,-0.38117 l -0.95287,0 0,4.95502 -3.43041,0 z m 13.531,0 8.95714,0 0,2.66808 -5.71733,0 0,2.28691 5.33619,0 0,2.47751 -5.33619,0 0,2.85868 5.9079,0 0,2.66808 -9.14771,0 z m 12.00639,0 3.23981,0 0,12.95926 -3.23981,0 z m 19.43889,0 3.23981,0 0,4.95499 4.95502,0 0,-4.95499 3.23982,0 0,12.95926 -3.23982,0 0,-5.52676 -4.95502,0 0,5.52676 -3.23981,0 z m -157.79809,2.28691 c -1.00474,0 -1.73322,0.40128 -2.28693,1.14347 -0.55374,0.74206 -0.95289,1.70184 -0.95289,3.04925 0,1.34136 0.39915,2.30717 0.95289,3.04922 0.55368,0.74208 1.28219,1.14347 2.28693,1.14347 1.01044,0 1.73316,-0.40128 2.28693,-1.14347 0.55368,-0.74205 0.95289,-1.70786 0.95289,-3.04922 0,-1.34741 -0.39921,-2.30719 -0.95289,-3.04925 -0.55374,-0.74205 -1.27649,-1.14347 -2.28693,-1.14347 z m 12.38753,0 0,2.66808 1.7152,0 c 0.51947,0 1.06571,0.0366 1.33404,-0.19026 0.26827,-0.22868 0.3811,-0.69828 0.38116,-1.14347 -3e-5,-0.43969 -0.11289,-0.7245 -0.38116,-0.95288 -0.26833,-0.23418 -0.81456,-0.38116 -1.33404,-0.38116 z m 41.3553,0 c -1.00475,0 -1.73322,0.40128 -2.28693,1.14347 -0.55374,0.74206 -0.95289,1.70184 -0.95289,3.04925 0,1.34136 0.39915,2.30717 0.95289,3.04922 0.55374,0.74208 1.28218,1.14347 2.28693,1.14347 1.01044,0 1.73316,-0.40128 2.28693,-1.14347 0.55374,-0.74205 0.95288,-1.70786 0.95288,-3.04922 0,-1.34741 -0.39914,-2.30719 -0.95288,-3.04925 -0.55375,-0.74205 -1.27649,-1.14347 -2.28693,-1.14347 z m -16.0085,0.19027 0,3.23982 1.33404,0 c 0.69077,0 1.22776,-0.1244 1.52462,-0.38114 0.30254,-0.25675 0.38115,-0.55559 0.38115,-1.14347 0,-0.58241 -0.0786,-1.08286 -0.38115,-1.33404 -0.29688,-0.25127 -0.83385,-0.38117 -1.52462,-0.38117 z m 64.9869,0 0,3.23982 1.33404,0 c 0.69077,0 1.22775,-0.1244 1.52461,-0.38114 0.30247,-0.25675 0.38117,-0.55559 0.38117,-1.14347 0,-0.58241 -0.0787,-1.08286 -0.38117,-1.33404 -0.297,-0.25127 -0.83384,-0.38117 -1.52461,-0.38117 z m 13.531,0 0,3.23982 1.33404,0 c 0.69071,0 1.22774,-0.1244 1.5246,-0.38114 0.30248,-0.25675 0.38117,-0.55559 0.38117,-1.14347 0,-0.58241 -0.0787,-1.08286 -0.38117,-1.33404 -0.29699,-0.25127 -0.83389,-0.38117 -1.5246,-0.38117 z m -103.8647,4.76445 0,3.43039 1.90578,0 c 0.6622,0 1.1935,-0.10123 1.52462,-0.38114 0.33675,-0.27933 0.57173,-0.76891 0.57173,-1.33407 0,-0.55374 -0.24065,-1.06026 -0.57173,-1.33404 -0.33109,-0.27991 -0.85669,-0.38114 -1.52462,-0.38114 z"
         id="rect5234"
         inkscape:connector-curvature="0"
         sodipodi:nodetypes="cccccccccccccccscsssccsssscccsccssccccccssccccccccccccccscccssssscscsssscscscsssccsscscccsscsscccscsccccscssccccscssscccsscscscccscccssscccccccccccccccccccccccccccscccccccccccccccccccccccccccccsccccccccscccccccsccccccccscccccccccccccccccccccccscccccccccccscscscscscsscccscscscscsssccscscscccscscscccscscscccscscscc" />
      <path
         style="fill:#ffff00;fill-opacity:1;stroke:none"
         d="m 648.38374,700.60479 c -19.33786,1.0056 -35.74306,16.805 -36.78144,36.4003 -0.52854,8.3807 0.17042,16.2394 0,23.2505 l 0,0.1905 c 0.0487,19.0108 -0.22931,38.225 0.19057,57.5544 l 0,0.3812 0,0.3811 c 2.00698,18.7957 17.66443,33.9951 36.78144,34.6851 0.038,0 0.15261,0 0.19058,0 7.75757,0.3835 15.00876,-0.1762 21.53525,0 l 0.19057,0 c 47.3733,-0.065 94.8949,0.2629 142.36131,0 l 0.38116,0 0.19058,-0.1906 c 18.64222,-1.5884 34.10666,-16.5316 35.44739,-35.4474 l 0.19058,0 c 0.003,-0.026 -0.003,-0.1641 0,-0.1905 0.62101,-8.0806 -0.0122,-15.305 0.19058,-21.7258 l 0,-0.1906 0,-0.1906 c -0.0813,-19.6318 0.24272,-39.4833 -0.19058,-59.4601 l 0,-0.3812 -0.19058,-0.3811 c -1.97118,-18.5039 -17.2959,-33.3237 -36.01912,-34.4946 -2.3792,-0.1785 -4.74885,-0.2153 -6.86079,-0.1906 -52.33371,0.1222 -104.81499,-0.1635 -157.22635,0 l -0.19058,0 -0.19057,0 z m 0.38115,9.1478 c 52.40162,-0.1635 104.82459,0.1227 157.22635,0 2.06753,-0.025 4.22675,0.028 6.28905,0.1905 13.96769,0.8024 26.15867,12.6439 27.63373,26.4903 0.42829,19.7473 0.10873,39.5151 0.19057,59.2696 -0.22534,7.1443 0.36445,14.2114 -0.19057,21.3446 -0.96545,14.0374 -13.12515,26.065 -27.062,27.2526 -47.40578,0.2625 -94.95283,-0.065 -142.36131,0 -7.13333,-0.1926 -14.21688,0.3643 -21.34466,0 -14.23182,-0.4444 -26.7033,-12.4224 -28.20546,-26.4903 -0.41508,-19.1081 -0.14158,-38.2485 -0.19058,-57.3638 0.18551,-7.6263 -0.49098,-15.252 0,-22.8692 0.71556,-14.5315 13.59054,-27.0743 28.01488,-27.8243 z"
         id="rect5481"
         inkscape:connector-curvature="0" />
    </g>
  </g>
</svg>
