  0
SECTION
  2
HEADER
  9
$ACADVER
  1
AC1014
  9
$HANDSEED
  5
FFFF
  9
$MEASUREMENT
 70
     1
  0
ENDSEC
  0
SECTION
  2
TABLES
  0
TABLE
  2
VPORT
  5
8
330
0
100
AcDbSymbolTable
 70
     4
  0
VPORT
  5
2E
330
8
100
AcDbSymbolTableRecord
100
AcDbViewportTableRecord
  2
*ACTIVE
 70
     0
 10
0.0
 20
0.0
 11
1.0
 21
1.0
 12
210.0
 22
148.5
 13
0.0
 23
0.0
 14
10.0
 24
10.0
 15
10.0
 25
10.0
 16
0.0
 26
0.0
 36
1.0
 17
0.0
 27
0.0
 37
0.0
 40
341.0
 41
1.24
 42
50.0
 43
0.0
 44
0.0
 50
0.0
 51
0.0
 71
     0
 72
   100
 73
     1
 74
     3
 75
     0
 76
     0
 77
     0
 78
     0
  0
ENDTAB
  0
TABLE
  2
LTYPE
  5
5
330
0
100
AcDbSymbolTable
 70
     1
  0
LTYPE
  5
14
330
5
100
AcDbSymbolTableRecord
100
AcDbLinetypeTableRecord
  2
BYBLOCK
 70
     0
  3

 72
    65
 73
     0
 40
0.0
  0
LTYPE
  5
15
330
5
100
AcDbSymbolTableRecord
100
AcDbLinetypeTableRecord
  2
BYLAYER
 70
     0
  3

 72
    65
 73
     0
 40
0.0
  0
LTYPE
  5
16
330
5
100
AcDbSymbolTableRecord
100
AcDbLinetypeTableRecord
  2
CONTINUOUS
 70
     0
  3
Solid line
 72
    65
 73
     0
 40
0.0
  0
ENDTAB
  0
TABLE
  2
LAYER
  5
2
100
AcDbSymbolTable
 70
2
  0
LAYER
  5
50
100
AcDbSymbolTableRecord
100
AcDbLayerTableRecord
  2
0
 70
0
  6
CONTINUOUS
  0
LAYER
  5
51
100
AcDbSymbolTableRecord
100
AcDbLayerTableRecord
  2
Layer_1
 70
0
  6
CONTINUOUS
  0
ENDTAB
  0
TABLE
  2
STYLE
  5
3
330
0
100
AcDbSymbolTable
 70
     1
  0
STYLE
  5
11
330
3
100
AcDbSymbolTableRecord
100
AcDbTextStyleTableRecord
  2
STANDARD
 70
     0
 40
0.0
 41
1.0
 50
0.0
 71
     0
 42
2.5
  3
txt
  4

  0
ENDTAB
  0
TABLE
  2
VIEW
  5
6
330
0
100
AcDbSymbolTable
 70
     0
  0
ENDTAB
  0
TABLE
  2
UCS
  5
7
330
0
100
AcDbSymbolTable
 70
     0
  0
ENDTAB
  0
TABLE
  2
APPID
  5
9
330
0
100
AcDbSymbolTable
 70
     2
  0
APPID
  5
12
330
9
100
AcDbSymbolTableRecord
100
AcDbRegAppTableRecord
  2
ACAD
 70
     0
  0
ENDTAB
  0
TABLE
  2
DIMSTYLE
  5
A
330
0
100
AcDbSymbolTable
 70
     1
  0
DIMSTYLE
105
27
330
A
100
AcDbSymbolTableRecord
100
AcDbDimStyleTableRecord
  2
ISO-25
 70
     0
  3

  4

  5

  6

  7

 40
1.0
 41
2.5
 42
0.625
 43
3.75
 44
1.25
 45
0.0
 46
0.0
 47
0.0
 48
0.0
140
2.5
141
2.5
142
0.0
143
0.03937007874016
144
1.0
145
0.0
146
1.0
147
0.625
 71
     0
 72
     0
 73
     0
 74
     0
 75
     0
 76
     0
 77
     1
 78
     8
170
     0
171
     3
172
     1
173
     0
174
     0
175
     0
176
     0
177
     0
178
     0
270
     2
271
     2
272
     2
273
     2
274
     3
340
11
275
     0
280
     0
281
     0
282
     0
283
     0
284
     8
285
     0
286
     0
287
     3
288
     0
  0
ENDTAB
  0
TABLE
  2
BLOCK_RECORD
  5
1
330
0
100
AcDbSymbolTable
 70
     1
  0
BLOCK_RECORD
  5
1F
330
1
100
AcDbSymbolTableRecord
100
AcDbBlockTableRecord
  2
*MODEL_SPACE
  0
BLOCK_RECORD
  5
1B
330
1
100
AcDbSymbolTableRecord
100
AcDbBlockTableRecord
  2
*PAPER_SPACE
  0
ENDTAB
  0
ENDSEC
  0
SECTION
  2
BLOCKS
  0
BLOCK
  5
20
330
1F
100
AcDbEntity
  8
0
100
AcDbBlockBegin
  2
*MODEL_SPACE
 70
     0
 10
0.0
 20
0.0
 30
0.0
  3
*MODEL_SPACE
  1

  0
ENDBLK
  5
21
330
1F
100
AcDbEntity
  8
0
100
AcDbBlockEnd
  0
BLOCK
  5
1C
330
1B
100
AcDbEntity
 67
     1
  8
0
100
AcDbBlockBegin
  2
*PAPER_SPACE
  1

  0
ENDBLK
  5
1D
330
1B
100
AcDbEntity
 67
     1
  8
0
100
AcDbBlockEnd
  0
ENDSEC
  0
SECTION
  2
ENTITIES
  0
LWPOLYLINE
  5
100
100
AcDbEntity
  8
Layer_1
 62
7
100
AcDbPolyline
 90
16
 70
0
 10
8.449028
 20
8.340694
 30
0.0
 10
8.449028
 20
8.299580
 30
0.0
 10
8.449028
 20
8.258578
 30
0.0
 10
8.449028
 20
8.217222
 30
0.0
 10
8.498953
 20
8.217222
 30
0.0
 10
8.548740
 20
8.217222
 30
0.0
 10
8.598958
 20
8.217222
 30
0.0
 10
8.598958
 20
8.258336
 30
0.0
 10
8.598958
 20
8.299338
 30
0.0
 10
8.598958
 20
8.340694
 30
0.0
 10
8.549034
 20
8.340694
 30
0.0
 10
8.499246
 20
8.340694
 30
0.0
 10
8.449028
 20
8.340694
 30
0.0
 10
8.449028
 20
8.340694
 30
0.0
 10
8.449028
 20
8.340694
 30
0.0
 10
8.449028
 20
8.340694
 30
0.0
  0
LWPOLYLINE
  5
101
100
AcDbEntity
  8
Layer_1
 62
7
100
AcDbPolyline
 90
16
 70
0
 10
8.810625
 20
8.340694
 30
0.0
 10
8.810625
 20
8.299580
 30
0.0
 10
8.810625
 20
8.258578
 30
0.0
 10
8.810625
 20
8.217222
 30
0.0
 10
8.857613
 20
8.217222
 30
0.0
 10
8.904472
 20
8.217222
 30
0.0
 10
8.951736
 20
8.217222
 30
0.0
 10
8.951736
 20
8.258336
 30
0.0
 10
8.951736
 20
8.299338
 30
0.0
 10
8.951736
 20
8.340694
 30
0.0
 10
8.904748
 20
8.340694
 30
0.0
 10
8.857889
 20
8.340694
 30
0.0
 10
8.810625
 20
8.340694
 30
0.0
 10
8.810625
 20
8.340694
 30
0.0
 10
8.810625
 20
8.340694
 30
0.0
 10
8.810625
 20
8.340694
 30
0.0
  0
LWPOLYLINE
  5
102
100
AcDbEntity
  8
Layer_1
 62
7
100
AcDbPolyline
 90
28
 70
0
 10
6.217708
 20
8.190764
 30
0.0
 10
6.134896
 20
8.183595
 30
0.0
 10
6.055985
 20
8.158665
 30
0.0
 10
5.988403
 20
8.111389
 30
0.0
 10
5.941171
 20
8.043553
 30
0.0
 10
5.916177
 20
7.964650
 30
0.0
 10
5.909028
 20
7.882083
 30
0.0
 10
5.916023
 20
7.802377
 30
0.0
 10
5.941331
 20
7.726582
 30
0.0
 10
5.988403
 20
7.661597
 30
0.0
 10
6.055547
 20
7.611978
 30
0.0
 10
6.134124
 20
7.582729
 30
0.0
 10
6.217708
 20
7.573403
 30
0.0
 10
6.298234
 20
7.582437
 30
0.0
 10
6.373715
 20
7.611940
 30
0.0
 10
6.438194
 20
7.661597
 30
0.0
 10
6.485028
 20
7.726113
 30
0.0
 10
6.510510
 20
7.802050
 30
0.0
 10
6.517569
 20
7.882083
 30
0.0
 10
6.510390
 20
7.964813
 30
0.0
 10
6.485339
 20
8.043735
 30
0.0
 10
6.438194
 20
8.111389
 30
0.0
 10
6.373782
 20
8.158456
 30
0.0
 10
6.297608
 20
8.183806
 30
0.0
 10
6.217708
 20
8.190764
 30
0.0
 10
6.217708
 20
8.190764
 30
0.0
 10
6.217708
 20
8.190764
 30
0.0
 10
6.217708
 20
8.190764
 30
0.0
  0
LWPOLYLINE
  5
103
100
AcDbEntity
  8
Layer_1
 62
7
100
AcDbPolyline
 90
28
 70
0
 10
8.704792
 20
8.190764
 30
0.0
 10
8.621979
 20
8.183595
 30
0.0
 10
8.543068
 20
8.158665
 30
0.0
 10
8.475486
 20
8.111389
 30
0.0
 10
8.428254
 20
8.043553
 30
0.0
 10
8.403260
 20
7.964650
 30
0.0
 10
8.396111
 20
7.882083
 30
0.0
 10
8.403107
 20
7.802377
 30
0.0
 10
8.428414
 20
7.726582
 30
0.0
 10
8.475486
 20
7.661597
 30
0.0
 10
8.542631
 20
7.611978
 30
0.0
 10
8.621207
 20
7.582729
 30
0.0
 10
8.704792
 20
7.573403
 30
0.0
 10
8.785317
 20
7.582437
 30
0.0
 10
8.860798
 20
7.611940
 30
0.0
 10
8.925278
 20
7.661597
 30
0.0
 10
8.972111
 20
7.726113
 30
0.0
 10
8.997594
 20
7.802050
 30
0.0
 10
9.004653
 20
7.882083
 30
0.0
 10
8.997473
 20
7.964813
 30
0.0
 10
8.972422
 20
8.043735
 30
0.0
 10
8.925278
 20
8.111389
 30
0.0
 10
8.860865
 20
8.158456
 30
0.0
 10
8.784691
 20
8.183806
 30
0.0
 10
8.704792
 20
8.190764
 30
0.0
 10
8.704792
 20
8.190764
 30
0.0
 10
8.704792
 20
8.190764
 30
0.0
 10
8.704792
 20
8.190764
 30
0.0
  0
LWPOLYLINE
  5
104
100
AcDbEntity
  8
Layer_1
 62
7
100
AcDbPolyline
 90
88
 70
0
 10
9.322153
 20
8.190764
 30
0.0
 10
9.266241
 20
8.187580
 30
0.0
 10
9.211826
 20
8.174657
 30
0.0
 10
9.163403
 20
8.146666
 30
0.0
 10
9.129006
 20
8.106712
 30
0.0
 10
9.108389
 20
8.058254
 30
0.0
 10
9.101667
 20
8.005555
 30
0.0
 10
9.106184
 20
7.966658
 30
0.0
 10
9.121403
 20
7.930391
 30
0.0
 10
9.145764
 20
7.899722
 30
0.0
 10
9.185521
 20
7.870550
 30
0.0
 10
9.230486
 20
7.851011
 30
0.0
 10
9.278056
 20
7.837986
 30
0.0
 10
9.295676
 20
7.832112
 30
0.0
 10
9.313248
 20
7.826255
 30
0.0
 10
9.330972
 20
7.820347
 30
0.0
 10
9.358391
 20
7.813893
 30
0.0
 10
9.385294
 20
7.806068
 30
0.0
 10
9.410347
 20
7.793889
 30
0.0
 10
9.420744
 20
7.781364
 30
0.0
 10
9.426326
 20
7.766270
 30
0.0
 10
9.427986
 20
7.749791
 30
0.0
 10
9.425151
 20
7.731915
 30
0.0
 10
9.415596
 20
7.716780
 30
0.0
 10
9.401528
 20
7.705694
 30
0.0
 10
9.376238
 20
7.694894
 30
0.0
 10
9.349343
 20
7.689611
 30
0.0
 10
9.322153
 20
7.688055
 30
0.0
 10
9.286506
 20
7.690594
 30
0.0
 10
9.250883
 20
7.696950
 30
0.0
 10
9.216319
 20
7.705694
 30
0.0
 10
9.179776
 20
7.717955
 30
0.0
 10
9.144864
 20
7.732664
 30
0.0
 10
9.110486
 20
7.749791
 30
0.0
 10
9.110486
 20
7.705740
 30
0.0
 10
9.110486
 20
7.661810
 30
0.0
 10
9.110486
 20
7.617500
 30
0.0
 10
9.148007
 20
7.606149
 30
0.0
 10
9.186719
 20
7.598015
 30
0.0
 10
9.225139
 20
7.591041
 30
0.0
 10
9.263167
 20
7.583330
 30
0.0
 10
9.301113
 20
7.576488
 30
0.0
 10
9.339792
 20
7.573403
 30
0.0
 10
9.401884
 20
7.578198
 30
0.0
 10
9.462376
 20
7.594817
 30
0.0
 10
9.516181
 20
7.626319
 30
0.0
 10
9.549216
 20
7.666331
 30
0.0
 10
9.565257
 20
7.715658
 30
0.0
 10
9.569097
 20
7.767430
 30
0.0
 10
9.566772
 20
7.808604
 30
0.0
 10
9.556627
 20
7.848375
 30
0.0
 10
9.533819
 20
7.882083
 30
0.0
 10
9.491313
 20
7.911547
 30
0.0
 10
9.443197
 20
7.930964
 30
0.0
 10
9.392708
 20
7.943819
 30
0.0
 10
9.369214
 20
7.949693
 30
0.0
 10
9.345785
 20
7.955550
 30
0.0
 10
9.322153
 20
7.961458
 30
0.0
 10
9.301138
 20
7.965663
 30
0.0
 10
9.280258
 20
7.970411
 30
0.0
 10
9.260417
 20
7.979097
 30
0.0
 10
9.250254
 20
7.991787
 30
0.0
 10
9.244660
 20
8.007167
 30
0.0
 10
9.242778
 20
8.023194
 30
0.0
 10
9.245402
 20
8.040765
 30
0.0
 10
9.254638
 20
8.056105
 30
0.0
 10
9.269236
 20
8.067291
 30
0.0
 10
9.294666
 20
8.077972
 30
0.0
 10
9.321512
 20
8.083380
 30
0.0
 10
9.348611
 20
8.084930
 30
0.0
 10
9.378401
 20
8.081701
 30
0.0
 10
9.407587
 20
8.074817
 30
0.0
 10
9.436806
 20
8.067291
 30
0.0
 10
9.469483
 20
8.060156
 30
0.0
 10
9.502112
 20
8.052216
 30
0.0
 10
9.533819
 20
8.040833
 30
0.0
 10
9.533819
 20
8.081948
 30
0.0
 10
9.533819
 20
8.122949
 30
0.0
 10
9.533819
 20
8.164305
 30
0.0
 10
9.499083
 20
8.171920
 30
0.0
 10
9.463762
 20
8.177267
 30
0.0
 10
9.427986
 20
8.181944
 30
0.0
 10
9.393070
 20
8.186401
 30
0.0
 10
9.357801
 20
8.189503
 30
0.0
 10
9.322153
 20
8.190764
 30
0.0
 10
9.322153
 20
8.190764
 30
0.0
 10
9.322153
 20
8.190764
 30
0.0
 10
9.322153
 20
8.190764
 30
0.0
  0
LWPOLYLINE
  5
105
100
AcDbEntity
  8
Layer_1
 62
7
100
AcDbPolyline
 90
58
 70
0
 10
13.202708
 20
8.190764
 30
0.0
 10
13.119917
 20
8.183930
 30
0.0
 10
13.040874
 20
8.158666
 30
0.0
 10
12.973403
 20
8.111389
 30
0.0
 10
12.922826
 20
8.044663
 30
0.0
 10
12.894010
 20
7.965868
 30
0.0
 10
12.885208
 20
7.882083
 30
0.0
 10
12.893845
 20
7.801218
 30
0.0
 10
12.923188
 20
7.725363
 30
0.0
 10
12.973403
 20
7.661597
 30
0.0
 10
13.040756
 20
7.611967
 30
0.0
 10
13.119203
 20
7.582385
 30
0.0
 10
13.202708
 20
7.573403
 30
0.0
 10
13.235270
 20
7.576248
 30
0.0
 10
13.267649
 20
7.582996
 30
0.0
 10
13.299722
 20
7.591041
 30
0.0
 10
13.329750
 20
7.597933
 30
0.0
 10
13.359300
 20
7.605808
 30
0.0
 10
13.387917
 20
7.617500
 30
0.0
 10
13.387917
 20
7.658614
 30
0.0
 10
13.387917
 20
7.699616
 30
0.0
 10
13.387917
 20
7.740972
 30
0.0
 10
13.363129
 20
7.726360
 30
0.0
 10
13.336160
 20
7.714946
 30
0.0
 10
13.308542
 20
7.705694
 30
0.0
 10
13.279989
 20
7.697067
 30
0.0
 10
13.250492
 20
7.690613
 30
0.0
 10
13.220347
 20
7.688055
 30
0.0
 10
13.171828
 20
7.693305
 30
0.0
 10
13.126050
 20
7.710653
 30
0.0
 10
13.088056
 20
7.740972
 30
0.0
 10
13.061051
 20
7.783334
 30
0.0
 10
13.047493
 20
7.831910
 30
0.0
 10
13.043958
 20
7.882083
 30
0.0
 10
13.047611
 20
7.935037
 30
0.0
 10
13.060900
 20
7.986688
 30
0.0
 10
13.088056
 20
8.032014
 30
0.0
 10
13.126351
 20
8.062500
 30
0.0
 10
13.171966
 20
8.079712
 30
0.0
 10
13.220347
 20
8.084930
 30
0.0
 10
13.250140
 20
8.082428
 30
0.0
 10
13.279531
 20
8.076040
 30
0.0
 10
13.308542
 20
8.067291
 30
0.0
 10
13.336462
 20
8.055426
 30
0.0
 10
13.362788
 20
8.039982
 30
0.0
 10
13.387917
 20
8.023194
 30
0.0
 10
13.387917
 20
8.064309
 30
0.0
 10
13.387917
 20
8.105311
 30
0.0
 10
13.387917
 20
8.146666
 30
0.0
 10
13.359470
 20
8.160575
 30
0.0
 10
13.329925
 20
8.172718
 30
0.0
 10
13.299722
 20
8.181944
 30
0.0
 10
13.267779
 20
8.187595
 30
0.0
 10
13.235463
 20
8.190135
 30
0.0
 10
13.202708
 20
8.190764
 30
0.0
 10
13.202708
 20
8.190764
 30
0.0
 10
13.202708
 20
8.190764
 30
0.0
 10
13.202708
 20
8.190764
 30
0.0
  0
LWPOLYLINE
  5
106
100
AcDbEntity
  8
Layer_1
 62
7
100
AcDbPolyline
 90
37
 70
0
 10
6.632222
 20
8.181944
 30
0.0
 10
6.632222
 20
7.985182
 30
0.0
 10
6.632222
 20
7.787951
 30
0.0
 10
6.632222
 20
7.591041
 30
0.0
 10
6.717388
 20
7.591041
 30
0.0
 10
6.802757
 20
7.591041
 30
0.0
 10
6.887986
 20
7.591041
 30
0.0
 10
6.949336
 20
7.594717
 30
0.0
 10
7.009260
 20
7.607834
 30
0.0
 10
7.064375
 20
7.635139
 30
0.0
 10
7.096502
 20
7.668889
 30
0.0
 10
7.113183
 20
7.712224
 30
0.0
 10
7.117292
 20
7.758611
 30
0.0
 10
7.114773
 20
7.792456
 30
0.0
 10
7.106411
 20
7.825404
 30
0.0
 10
7.090833
 20
7.855625
 30
0.0
 10
7.071677
 20
7.878779
 30
0.0
 10
7.047845
 20
7.897041
 30
0.0
 10
7.020278
 20
7.908541
 30
0.0
 10
7.041192
 20
7.919057
 30
0.0
 10
7.058954
 20
7.934208
 30
0.0
 10
7.073194
 20
7.952639
 30
0.0
 10
7.086408
 20
7.974254
 30
0.0
 10
7.096118
 20
7.997768
 30
0.0
 10
7.099653
 20
8.023194
 30
0.0
 10
7.092949
 20
8.070508
 30
0.0
 10
7.072241
 20
8.113196
 30
0.0
 10
7.037917
 20
8.146666
 30
0.0
 10
6.981975
 20
8.170233
 30
0.0
 10
6.922196
 20
8.179631
 30
0.0
 10
6.861528
 20
8.181944
 30
0.0
 10
6.785172
 20
8.181944
 30
0.0
 10
6.708635
 20
8.181944
 30
0.0
 10
6.632222
 20
8.181944
 30
0.0
 10
6.632222
 20
8.181944
 30
0.0
 10
6.632222
 20
8.181944
 30
0.0
 10
6.632222
 20
8.181944
 30
0.0
  0
LWPOLYLINE
  5
107
100
AcDbEntity
  8
Layer_1
 62
7
100
AcDbPolyline
 90
40
 70
0
 10
7.249583
 20
8.181944
 30
0.0
 10
7.249583
 20
7.985182
 30
0.0
 10
7.249583
 20
7.787951
 30
0.0
 10
7.249583
 20
7.591041
 30
0.0
 10
7.390547
 20
7.591041
 30
0.0
 10
7.531847
 20
7.591041
 30
0.0
 10
7.672917
 20
7.591041
 30
0.0
 10
7.672917
 20
7.629219
 30
0.0
 10
7.672917
 20
7.667292
 30
0.0
 10
7.672917
 20
7.705694
 30
0.0
 10
7.584814
 20
7.705694
 30
0.0
 10
7.496502
 20
7.705694
 30
0.0
 10
7.408333
 20
7.705694
 30
0.0
 10
7.408333
 20
7.749745
 30
0.0
 10
7.408333
 20
7.793676
 30
0.0
 10
7.408333
 20
7.837986
 30
0.0
 10
7.487626
 20
7.837986
 30
0.0
 10
7.567107
 20
7.837986
 30
0.0
 10
7.646458
 20
7.837986
 30
0.0
 10
7.646458
 20
7.876164
 30
0.0
 10
7.646458
 20
7.914237
 30
0.0
 10
7.646458
 20
7.952639
 30
0.0
 10
7.567166
 20
7.952639
 30
0.0
 10
7.487685
 20
7.952639
 30
0.0
 10
7.408333
 20
7.952639
 30
0.0
 10
7.408333
 20
7.990816
 30
0.0
 10
7.408333
 20
8.028890
 30
0.0
 10
7.408333
 20
8.067291
 30
0.0
 10
7.493499
 20
8.067291
 30
0.0
 10
7.578868
 20
8.067291
 30
0.0
 10
7.664097
 20
8.067291
 30
0.0
 10
7.664097
 20
8.105469
 30
0.0
 10
7.664097
 20
8.143542
 30
0.0
 10
7.664097
 20
8.181944
 30
0.0
 10
7.526070
 20
8.181944
 30
0.0
 10
7.387714
 20
8.181944
 30
0.0
 10
7.249583
 20
8.181944
 30
0.0
 10
7.249583
 20
8.181944
 30
0.0
 10
7.249583
 20
8.181944
 30
0.0
 10
7.249583
 20
8.181944
 30
0.0
  0
LWPOLYLINE
  5
108
100
AcDbEntity
  8
Layer_1
 62
7
100
AcDbPolyline
 90
52
 70
0
 10
7.805208
 20
8.181944
 30
0.0
 10
7.805208
 20
7.985182
 30
0.0
 10
7.805208
 20
7.787951
 30
0.0
 10
7.805208
 20
7.591041
 30
0.0
 10
7.855133
 20
7.591041
 30
0.0
 10
7.904921
 20
7.591041
 30
0.0
 10
7.955139
 20
7.591041
 30
0.0
 10
7.955139
 20
7.664460
 30
0.0
 10
7.955139
 20
7.738054
 30
0.0
 10
7.955139
 20
7.811528
 30
0.0
 10
7.970068
 20
7.811528
 30
0.0
 10
7.984919
 20
7.811528
 30
0.0
 10
7.999236
 20
7.811528
 30
0.0
 10
8.021047
 20
7.809710
 30
0.0
 10
8.041815
 20
7.804104
 30
0.0
 10
8.060972
 20
7.793889
 30
0.0
 10
8.078746
 20
7.776088
 30
0.0
 10
8.092975
 20
7.754810
 30
0.0
 10
8.105069
 20
7.732153
 30
0.0
 10
8.128563
 20
7.685165
 30
0.0
 10
8.151993
 20
7.638305
 30
0.0
 10
8.175625
 20
7.591041
 30
0.0
 10
8.231423
 20
7.591041
 30
0.0
 10
8.287069
 20
7.591041
 30
0.0
 10
8.343194
 20
7.591041
 30
0.0
 10
8.313827
 20
7.646840
 30
0.0
 10
8.284540
 20
7.702485
 30
0.0
 10
8.255000
 20
7.758611
 30
0.0
 10
8.242303
 20
7.783598
 30
0.0
 10
8.228401
 20
7.807479
 30
0.0
 10
8.210903
 20
7.829166
 30
0.0
 10
8.192575
 20
7.844550
 30
0.0
 10
8.171672
 20
7.856543
 30
0.0
 10
8.149167
 20
7.864444
 30
0.0
 10
8.181919
 20
7.876581
 30
0.0
 10
8.212148
 20
7.893353
 30
0.0
 10
8.237361
 20
7.917361
 30
0.0
 10
8.253572
 20
7.947344
 30
0.0
 10
8.261622
 20
7.980362
 30
0.0
 10
8.263819
 20
8.014375
 30
0.0
 10
8.259375
 20
8.060591
 30
0.0
 10
8.242467
 20
8.104186
 30
0.0
 10
8.210903
 20
8.137847
 30
0.0
 10
8.158967
 20
8.164583
 30
0.0
 10
8.101751
 20
8.178142
 30
0.0
 10
8.043333
 20
8.181944
 30
0.0
 10
7.964041
 20
8.181944
 30
0.0
 10
7.884560
 20
8.181944
 30
0.0
 10
7.805208
 20
8.181944
 30
0.0
 10
7.805208
 20
8.181944
 30
0.0
 10
7.805208
 20
8.181944
 30
0.0
 10
7.805208
 20
8.181944
 30
0.0
  0
LWPOLYLINE
  5
109
100
AcDbEntity
  8
Layer_1
 62
7
100
AcDbPolyline
 90
28
 70
0
 10
9.639653
 20
8.181944
 30
0.0
 10
9.639653
 20
8.143767
 30
0.0
 10
9.639653
 20
8.105693
 30
0.0
 10
9.639653
 20
8.067291
 30
0.0
 10
9.704261
 20
8.067291
 30
0.0
 10
9.768693
 20
8.067291
 30
0.0
 10
9.833681
 20
8.067291
 30
0.0
 10
9.833681
 20
7.908707
 30
0.0
 10
9.833681
 20
7.749745
 30
0.0
 10
9.833681
 20
7.591041
 30
0.0
 10
9.883605
 20
7.591041
 30
0.0
 10
9.933393
 20
7.591041
 30
0.0
 10
9.983611
 20
7.591041
 30
0.0
 10
9.983611
 20
7.749626
 30
0.0
 10
9.983611
 20
7.908588
 30
0.0
 10
9.983611
 20
8.067291
 30
0.0
 10
10.048220
 20
8.067291
 30
0.0
 10
10.112651
 20
8.067291
 30
0.0
 10
10.177639
 20
8.067291
 30
0.0
 10
10.177639
 20
8.105469
 30
0.0
 10
10.177639
 20
8.143542
 30
0.0
 10
10.177639
 20
8.181944
 30
0.0
 10
9.998497
 20
8.181944
 30
0.0
 10
9.818929
 20
8.181944
 30
0.0
 10
9.639653
 20
8.181944
 30
0.0
 10
9.639653
 20
8.181944
 30
0.0
 10
9.639653
 20
8.181944
 30
0.0
 10
9.639653
 20
8.181944
 30
0.0
  0
LWPOLYLINE
  5
10a
100
AcDbEntity
  8
Layer_1
 62
7
100
AcDbPolyline
 90
40
 70
0
 10
10.257014
 20
8.181944
 30
0.0
 10
10.257014
 20
7.985182
 30
0.0
 10
10.257014
 20
7.787951
 30
0.0
 10
10.257014
 20
7.591041
 30
0.0
 10
10.397978
 20
7.591041
 30
0.0
 10
10.539278
 20
7.591041
 30
0.0
 10
10.680347
 20
7.591041
 30
0.0
 10
10.680347
 20
7.629219
 30
0.0
 10
10.680347
 20
7.667292
 30
0.0
 10
10.680347
 20
7.705694
 30
0.0
 10
10.592245
 20
7.705694
 30
0.0
 10
10.503932
 20
7.705694
 30
0.0
 10
10.415764
 20
7.705694
 30
0.0
 10
10.415764
 20
7.749745
 30
0.0
 10
10.415764
 20
7.793676
 30
0.0
 10
10.415764
 20
7.837986
 30
0.0
 10
10.495056
 20
7.837986
 30
0.0
 10
10.574537
 20
7.837986
 30
0.0
 10
10.653889
 20
7.837986
 30
0.0
 10
10.653889
 20
7.876164
 30
0.0
 10
10.653889
 20
7.914237
 30
0.0
 10
10.653889
 20
7.952639
 30
0.0
 10
10.574597
 20
7.952639
 30
0.0
 10
10.495116
 20
7.952639
 30
0.0
 10
10.415764
 20
7.952639
 30
0.0
 10
10.415764
 20
7.990816
 30
0.0
 10
10.415764
 20
8.028890
 30
0.0
 10
10.415764
 20
8.067291
 30
0.0
 10
10.500930
 20
8.067291
 30
0.0
 10
10.586298
 20
8.067291
 30
0.0
 10
10.671528
 20
8.067291
 30
0.0
 10
10.671528
 20
8.105469
 30
0.0
 10
10.671528
 20
8.143542
 30
0.0
 10
10.671528
 20
8.181944
 30
0.0
 10
10.533501
 20
8.181944
 30
0.0
 10
10.395145
 20
8.181944
 30
0.0
 10
10.257014
 20
8.181944
 30
0.0
 10
10.257014
 20
8.181944
 30
0.0
 10
10.257014
 20
8.181944
 30
0.0
 10
10.257014
 20
8.181944
 30
0.0
  0
LWPOLYLINE
  5
10b
100
AcDbEntity
  8
Layer_1
 62
7
100
AcDbPolyline
 90
52
 70
0
 10
10.812639
 20
8.181944
 30
0.0
 10
10.812639
 20
7.985182
 30
0.0
 10
10.812639
 20
7.787951
 30
0.0
 10
10.812639
 20
7.591041
 30
0.0
 10
10.862564
 20
7.591041
 30
0.0
 10
10.912352
 20
7.591041
 30
0.0
 10
10.962569
 20
7.591041
 30
0.0
 10
10.962569
 20
7.664460
 30
0.0
 10
10.962569
 20
7.738054
 30
0.0
 10
10.962569
 20
7.811528
 30
0.0
 10
10.977499
 20
7.811528
 30
0.0
 10
10.992350
 20
7.811528
 30
0.0
 10
11.006667
 20
7.811528
 30
0.0
 10
11.028477
 20
7.809710
 30
0.0
 10
11.049246
 20
7.804104
 30
0.0
 10
11.068403
 20
7.793889
 30
0.0
 10
11.086176
 20
7.776088
 30
0.0
 10
11.100406
 20
7.754810
 30
0.0
 10
11.112500
 20
7.732153
 30
0.0
 10
11.135994
 20
7.685165
 30
0.0
 10
11.159424
 20
7.638305
 30
0.0
 10
11.183056
 20
7.591041
 30
0.0
 10
11.238854
 20
7.591041
 30
0.0
 10
11.294499
 20
7.591041
 30
0.0
 10
11.350625
 20
7.591041
 30
0.0
 10
11.321258
 20
7.646840
 30
0.0
 10
11.291971
 20
7.702485
 30
0.0
 10
11.262431
 20
7.758611
 30
0.0
 10
11.249733
 20
7.783598
 30
0.0
 10
11.235831
 20
7.807479
 30
0.0
 10
11.218333
 20
7.829166
 30
0.0
 10
11.200005
 20
7.844550
 30
0.0
 10
11.179102
 20
7.856543
 30
0.0
 10
11.156597
 20
7.864444
 30
0.0
 10
11.189349
 20
7.876581
 30
0.0
 10
11.219578
 20
7.893353
 30
0.0
 10
11.244792
 20
7.917361
 30
0.0
 10
11.261003
 20
7.947344
 30
0.0
 10
11.269052
 20
7.980362
 30
0.0
 10
11.271250
 20
8.014375
 30
0.0
 10
11.266805
 20
8.060591
 30
0.0
 10
11.249897
 20
8.104186
 30
0.0
 10
11.218333
 20
8.137847
 30
0.0
 10
11.166398
 20
8.164583
 30
0.0
 10
11.109182
 20
8.178142
 30
0.0
 10
11.050764
 20
8.181944
 30
0.0
 10
10.971472
 20
8.181944
 30
0.0
 10
10.891991
 20
8.181944
 30
0.0
 10
10.812639
 20
8.181944
 30
0.0
 10
10.812639
 20
8.181944
 30
0.0
 10
10.812639
 20
8.181944
 30
0.0
 10
10.812639
 20
8.181944
 30
0.0
  0
LWPOLYLINE
  5
10c
100
AcDbEntity
  8
Layer_1
 62
7
100
AcDbPolyline
 90
52
 70
0
 10
11.438819
 20
8.181944
 30
0.0
 10
11.438819
 20
7.985182
 30
0.0
 10
11.438819
 20
7.787951
 30
0.0
 10
11.438819
 20
7.591041
 30
0.0
 10
11.488744
 20
7.591041
 30
0.0
 10
11.538532
 20
7.591041
 30
0.0
 10
11.588750
 20
7.591041
 30
0.0
 10
11.588750
 20
7.664460
 30
0.0
 10
11.588750
 20
7.738054
 30
0.0
 10
11.588750
 20
7.811528
 30
0.0
 10
11.603679
 20
7.811528
 30
0.0
 10
11.618530
 20
7.811528
 30
0.0
 10
11.632847
 20
7.811528
 30
0.0
 10
11.654658
 20
7.809710
 30
0.0
 10
11.675426
 20
7.804104
 30
0.0
 10
11.694583
 20
7.793889
 30
0.0
 10
11.712357
 20
7.776088
 30
0.0
 10
11.726586
 20
7.754810
 30
0.0
 10
11.738681
 20
7.732153
 30
0.0
 10
11.762175
 20
7.685165
 30
0.0
 10
11.785604
 20
7.638305
 30
0.0
 10
11.809236
 20
7.591041
 30
0.0
 10
11.865034
 20
7.591041
 30
0.0
 10
11.920680
 20
7.591041
 30
0.0
 10
11.976806
 20
7.591041
 30
0.0
 10
11.947438
 20
7.646840
 30
0.0
 10
11.918151
 20
7.702485
 30
0.0
 10
11.888611
 20
7.758611
 30
0.0
 10
11.873877
 20
7.784231
 30
0.0
 10
11.855964
 20
7.807742
 30
0.0
 10
11.835694
 20
7.829166
 30
0.0
 10
11.820367
 20
7.843883
 30
0.0
 10
11.802696
 20
7.856626
 30
0.0
 10
11.782778
 20
7.864444
 30
0.0
 10
11.815530
 20
7.876581
 30
0.0
 10
11.845759
 20
7.893353
 30
0.0
 10
11.870972
 20
7.917361
 30
0.0
 10
11.887183
 20
7.947344
 30
0.0
 10
11.895233
 20
7.980362
 30
0.0
 10
11.897431
 20
8.014375
 30
0.0
 10
11.892986
 20
8.060591
 30
0.0
 10
11.876078
 20
8.104186
 30
0.0
 10
11.844514
 20
8.137847
 30
0.0
 10
11.789494
 20
8.164583
 30
0.0
 10
11.729600
 20
8.177948
 30
0.0
 10
11.668125
 20
8.181944
 30
0.0
 10
11.591770
 20
8.181944
 30
0.0
 10
11.515232
 20
8.181944
 30
0.0
 10
11.438819
 20
8.181944
 30
0.0
 10
11.438819
 20
8.181944
 30
0.0
 10
11.438819
 20
8.181944
 30
0.0
 10
11.438819
 20
8.181944
 30
0.0
  0
LWPOLYLINE
  5
10d
100
AcDbEntity
  8
Layer_1
 62
7
100
AcDbPolyline
 90
40
 70
0
 10
12.065000
 20
8.181944
 30
0.0
 10
12.065000
 20
7.985182
 30
0.0
 10
12.065000
 20
7.787951
 30
0.0
 10
12.065000
 20
7.591041
 30
0.0
 10
12.203027
 20
7.591041
 30
0.0
 10
12.341383
 20
7.591041
 30
0.0
 10
12.479514
 20
7.591041
 30
0.0
 10
12.479514
 20
7.629219
 30
0.0
 10
12.479514
 20
7.667292
 30
0.0
 10
12.479514
 20
7.705694
 30
0.0
 10
12.391412
 20
7.705694
 30
0.0
 10
12.303099
 20
7.705694
 30
0.0
 10
12.214931
 20
7.705694
 30
0.0
 10
12.214931
 20
7.749745
 30
0.0
 10
12.214931
 20
7.793676
 30
0.0
 10
12.214931
 20
7.837986
 30
0.0
 10
12.297160
 20
7.837986
 30
0.0
 10
12.379584
 20
7.837986
 30
0.0
 10
12.461875
 20
7.837986
 30
0.0
 10
12.461875
 20
7.876164
 30
0.0
 10
12.461875
 20
7.914237
 30
0.0
 10
12.461875
 20
7.952639
 30
0.0
 10
12.379646
 20
7.952639
 30
0.0
 10
12.297221
 20
7.952639
 30
0.0
 10
12.214931
 20
7.952639
 30
0.0
 10
12.214931
 20
7.990816
 30
0.0
 10
12.214931
 20
8.028890
 30
0.0
 10
12.214931
 20
8.067291
 30
0.0
 10
12.300096
 20
8.067291
 30
0.0
 10
12.385465
 20
8.067291
 30
0.0
 10
12.470694
 20
8.067291
 30
0.0
 10
12.470694
 20
8.105469
 30
0.0
 10
12.470694
 20
8.143542
 30
0.0
 10
12.470694
 20
8.181944
 30
0.0
 10
12.335604
 20
8.181944
 30
0.0
 10
12.200192
 20
8.181944
 30
0.0
 10
12.065000
 20
8.181944
 30
0.0
 10
12.065000
 20
8.181944
 30
0.0
 10
12.065000
 20
8.181944
 30
0.0
 10
12.065000
 20
8.181944
 30
0.0
  0
LWPOLYLINE
  5
10e
100
AcDbEntity
  8
Layer_1
 62
7
100
AcDbPolyline
 90
16
 70
0
 10
12.620625
 20
8.181944
 30
0.0
 10
12.620625
 20
7.985182
 30
0.0
 10
12.620625
 20
7.787951
 30
0.0
 10
12.620625
 20
7.591041
 30
0.0
 10
12.670550
 20
7.591041
 30
0.0
 10
12.720338
 20
7.591041
 30
0.0
 10
12.770556
 20
7.591041
 30
0.0
 10
12.770556
 20
7.787804
 30
0.0
 10
12.770556
 20
7.985035
 30
0.0
 10
12.770556
 20
8.181944
 30
0.0
 10
12.720631
 20
8.181944
 30
0.0
 10
12.670843
 20
8.181944
 30
0.0
 10
12.620625
 20
8.181944
 30
0.0
 10
12.620625
 20
8.181944
 30
0.0
 10
12.620625
 20
8.181944
 30
0.0
 10
12.620625
 20
8.181944
 30
0.0
  0
LWPOLYLINE
  5
10f
100
AcDbEntity
  8
Layer_1
 62
7
100
AcDbPolyline
 90
40
 70
0
 10
13.520208
 20
8.181944
 30
0.0
 10
13.520208
 20
7.985182
 30
0.0
 10
13.520208
 20
7.787951
 30
0.0
 10
13.520208
 20
7.591041
 30
0.0
 10
13.570133
 20
7.591041
 30
0.0
 10
13.619921
 20
7.591041
 30
0.0
 10
13.670139
 20
7.591041
 30
0.0
 10
13.670139
 20
7.673270
 30
0.0
 10
13.670139
 20
7.755695
 30
0.0
 10
13.670139
 20
7.837986
 30
0.0
 10
13.743558
 20
7.837986
 30
0.0
 10
13.817151
 20
7.837986
 30
0.0
 10
13.890625
 20
7.837986
 30
0.0
 10
13.890625
 20
7.755757
 30
0.0
 10
13.890625
 20
7.673332
 30
0.0
 10
13.890625
 20
7.591041
 30
0.0
 10
13.943487
 20
7.591041
 30
0.0
 10
13.996203
 20
7.591041
 30
0.0
 10
14.049375
 20
7.591041
 30
0.0
 10
14.049375
 20
7.787804
 30
0.0
 10
14.049375
 20
7.985035
 30
0.0
 10
14.049375
 20
8.181944
 30
0.0
 10
13.996514
 20
8.181944
 30
0.0
 10
13.943797
 20
8.181944
 30
0.0
 10
13.890625
 20
8.181944
 30
0.0
 10
13.890625
 20
8.105589
 30
0.0
 10
13.890625
 20
8.029051
 30
0.0
 10
13.890625
 20
7.952639
 30
0.0
 10
13.817206
 20
7.952639
 30
0.0
 10
13.743613
 20
7.952639
 30
0.0
 10
13.670139
 20
7.952639
 30
0.0
 10
13.670139
 20
8.028994
 30
0.0
 10
13.670139
 20
8.105532
 30
0.0
 10
13.670139
 20
8.181944
 30
0.0
 10
13.620214
 20
8.181944
 30
0.0
 10
13.570426
 20
8.181944
 30
0.0
 10
13.520208
 20
8.181944
 30
0.0
 10
13.520208
 20
8.181944
 30
0.0
 10
13.520208
 20
8.181944
 30
0.0
 10
13.520208
 20
8.181944
 30
0.0
  0
LWPOLYLINE
  5
110
100
AcDbEntity
  8
Layer_1
 62
7
100
AcDbPolyline
 90
28
 70
0
 10
6.217708
 20
8.084930
 30
0.0
 10
6.258269
 20
8.079440
 30
0.0
 10
6.294810
 20
8.061216
 30
0.0
 10
6.323542
 20
8.032014
 30
0.0
 10
6.346134
 20
7.985368
 30
0.0
 10
6.356209
 20
7.933980
 30
0.0
 10
6.358819
 20
7.882083
 30
0.0
 10
6.356318
 20
7.833053
 30
0.0
 10
6.346171
 20
7.784959
 30
0.0
 10
6.323542
 20
7.740972
 30
0.0
 10
6.294859
 20
7.711805
 30
0.0
 10
6.258277
 20
7.693547
 30
0.0
 10
6.217708
 20
7.688055
 30
0.0
 10
6.174674
 20
7.693680
 30
0.0
 10
6.135100
 20
7.711162
 30
0.0
 10
6.103056
 20
7.740972
 30
0.0
 10
6.080462
 20
7.784849
 30
0.0
 10
6.070299
 20
7.832875
 30
0.0
 10
6.067778
 20
7.882083
 30
0.0
 10
6.070422
 20
7.934289
 30
0.0
 10
6.080485
 20
7.985444
 30
0.0
 10
6.103056
 20
8.032014
 30
0.0
 10
6.134949
 20
8.061726
 30
0.0
 10
6.174658
 20
8.079301
 30
0.0
 10
6.217708
 20
8.084930
 30
0.0
 10
6.217708
 20
8.084930
 30
0.0
 10
6.217708
 20
8.084930
 30
0.0
 10
6.217708
 20
8.084930
 30
0.0
  0
LWPOLYLINE
  5
111
100
AcDbEntity
  8
Layer_1
 62
7
100
AcDbPolyline
 90
28
 70
0
 10
8.704792
 20
8.084930
 30
0.0
 10
8.745353
 20
8.079440
 30
0.0
 10
8.781894
 20
8.061216
 30
0.0
 10
8.810625
 20
8.032014
 30
0.0
 10
8.833218
 20
7.985368
 30
0.0
 10
8.843292
 20
7.933980
 30
0.0
 10
8.845903
 20
7.882083
 30
0.0
 10
8.843401
 20
7.833053
 30
0.0
 10
8.833255
 20
7.784959
 30
0.0
 10
8.810625
 20
7.740972
 30
0.0
 10
8.781943
 20
7.711805
 30
0.0
 10
8.745360
 20
7.693547
 30
0.0
 10
8.704792
 20
7.688055
 30
0.0
 10
8.661757
 20
7.693680
 30
0.0
 10
8.622183
 20
7.711162
 30
0.0
 10
8.590139
 20
7.740972
 30
0.0
 10
8.567546
 20
7.784849
 30
0.0
 10
8.557383
 20
7.832875
 30
0.0
 10
8.554861
 20
7.882083
 30
0.0
 10
8.557505
 20
7.934289
 30
0.0
 10
8.567569
 20
7.985444
 30
0.0
 10
8.590139
 20
8.032014
 30
0.0
 10
8.622032
 20
8.061726
 30
0.0
 10
8.661742
 20
8.079301
 30
0.0
 10
8.704792
 20
8.084930
 30
0.0
 10
8.704792
 20
8.084930
 30
0.0
 10
8.704792
 20
8.084930
 30
0.0
 10
8.704792
 20
8.084930
 30
0.0
  0
LWPOLYLINE
  5
112
100
AcDbEntity
  8
Layer_1
 62
7
100
AcDbPolyline
 90
25
 70
0
 10
6.790972
 20
8.076111
 30
0.0
 10
6.817403
 20
8.076111
 30
0.0
 10
6.843761
 20
8.076111
 30
0.0
 10
6.870347
 20
8.076111
 30
0.0
 10
6.889380
 20
8.074472
 30
0.0
 10
6.907274
 20
8.068872
 30
0.0
 10
6.923264
 20
8.058472
 30
0.0
 10
6.933954
 20
8.045852
 30
0.0
 10
6.939534
 20
8.030391
 30
0.0
 10
6.940903
 20
8.014375
 30
0.0
 10
6.939470
 20
7.997913
 30
0.0
 10
6.933777
 20
7.982527
 30
0.0
 10
6.923264
 20
7.970278
 30
0.0
 10
6.907403
 20
7.960052
 30
0.0
 10
6.889029
 20
7.954259
 30
0.0
 10
6.870347
 20
7.952639
 30
0.0
 10
6.843917
 20
7.952639
 30
0.0
 10
6.817558
 20
7.952639
 30
0.0
 10
6.790972
 20
7.952639
 30
0.0
 10
6.790972
 20
7.993753
 30
0.0
 10
6.790972
 20
8.034755
 30
0.0
 10
6.790972
 20
8.076111
 30
0.0
 10
6.790972
 20
8.076111
 30
0.0
 10
6.790972
 20
8.076111
 30
0.0
 10
6.790972
 20
8.076111
 30
0.0
  0
LWPOLYLINE
  5
113
100
AcDbEntity
  8
Layer_1
 62
7
100
AcDbPolyline
 90
25
 70
0
 10
7.955139
 20
8.067291
 30
0.0
 10
7.978633
 20
8.067291
 30
0.0
 10
8.002063
 20
8.067291
 30
0.0
 10
8.025694
 20
8.067291
 30
0.0
 10
8.050239
 20
8.065950
 30
0.0
 10
8.074487
 20
8.060947
 30
0.0
 10
8.096250
 20
8.049653
 30
0.0
 10
8.108151
 20
8.034552
 30
0.0
 10
8.112961
 20
8.016003
 30
0.0
 10
8.113889
 20
7.996736
 30
0.0
 10
8.112876
 20
7.974999
 30
0.0
 10
8.108248
 20
7.953300
 30
0.0
 10
8.096250
 20
7.935000
 30
0.0
 10
8.074272
 20
7.923523
 30
0.0
 10
8.050259
 20
7.918661
 30
0.0
 10
8.025694
 20
7.917361
 30
0.0
 10
8.002200
 20
7.917361
 30
0.0
 10
7.978771
 20
7.917361
 30
0.0
 10
7.955139
 20
7.917361
 30
0.0
 10
7.955139
 20
7.967286
 30
0.0
 10
7.955139
 20
8.017074
 30
0.0
 10
7.955139
 20
8.067291
 30
0.0
 10
7.955139
 20
8.067291
 30
0.0
 10
7.955139
 20
8.067291
 30
0.0
 10
7.955139
 20
8.067291
 30
0.0
  0
LWPOLYLINE
  5
114
100
AcDbEntity
  8
Layer_1
 62
7
100
AcDbPolyline
 90
25
 70
0
 10
10.962569
 20
8.067291
 30
0.0
 10
10.986063
 20
8.067291
 30
0.0
 10
11.009493
 20
8.067291
 30
0.0
 10
11.033125
 20
8.067291
 30
0.0
 10
11.054905
 20
8.066099
 30
0.0
 10
11.076087
 20
8.061007
 30
0.0
 10
11.094861
 20
8.049653
 30
0.0
 10
11.109386
 20
8.034906
 30
0.0
 10
11.118570
 20
8.016823
 30
0.0
 10
11.121319
 20
7.996736
 30
0.0
 10
11.118311
 20
7.973872
 30
0.0
 10
11.109336
 20
7.952499
 30
0.0
 10
11.094861
 20
7.935000
 30
0.0
 10
11.076067
 20
7.923523
 30
0.0
 10
11.055049
 20
7.918532
 30
0.0
 10
11.033125
 20
7.917361
 30
0.0
 10
11.009631
 20
7.917361
 30
0.0
 10
10.986201
 20
7.917361
 30
0.0
 10
10.962569
 20
7.917361
 30
0.0
 10
10.962569
 20
7.967286
 30
0.0
 10
10.962569
 20
8.017074
 30
0.0
 10
10.962569
 20
8.067291
 30
0.0
 10
10.962569
 20
8.067291
 30
0.0
 10
10.962569
 20
8.067291
 30
0.0
 10
10.962569
 20
8.067291
 30
0.0
  0
LWPOLYLINE
  5
115
100
AcDbEntity
  8
Layer_1
 62
7
100
AcDbPolyline
 90
25
 70
0
 10
11.588750
 20
8.067291
 30
0.0
 10
11.612244
 20
8.067291
 30
0.0
 10
11.635674
 20
8.067291
 30
0.0
 10
11.659306
 20
8.067291
 30
0.0
 10
11.681086
 20
8.066099
 30
0.0
 10
11.702268
 20
8.061007
 30
0.0
 10
11.721042
 20
8.049653
 30
0.0
 10
11.735566
 20
8.034906
 30
0.0
 10
11.744751
 20
8.016823
 30
0.0
 10
11.747500
 20
7.996736
 30
0.0
 10
11.744492
 20
7.973872
 30
0.0
 10
11.735516
 20
7.952499
 30
0.0
 10
11.721042
 20
7.935000
 30
0.0
 10
11.702248
 20
7.923523
 30
0.0
 10
11.681230
 20
7.918532
 30
0.0
 10
11.659306
 20
7.917361
 30
0.0
 10
11.635812
 20
7.917361
 30
0.0
 10
11.612382
 20
7.917361
 30
0.0
 10
11.588750
 20
7.917361
 30
0.0
 10
11.588750
 20
7.967286
 30
0.0
 10
11.588750
 20
8.017074
 30
0.0
 10
11.588750
 20
8.067291
 30
0.0
 10
11.588750
 20
8.067291
 30
0.0
 10
11.588750
 20
8.067291
 30
0.0
 10
11.588750
 20
8.067291
 30
0.0
  0
LWPOLYLINE
  5
116
100
AcDbEntity
  8
Layer_1
 62
7
100
AcDbPolyline
 90
25
 70
0
 10
6.790972
 20
7.846805
 30
0.0
 10
6.820340
 20
7.846805
 30
0.0
 10
6.849627
 20
7.846805
 30
0.0
 10
6.879167
 20
7.846805
 30
0.0
 10
6.903630
 20
7.845612
 30
0.0
 10
6.927999
 20
7.840704
 30
0.0
 10
6.949722
 20
7.829166
 30
0.0
 10
6.962037
 20
7.810817
 30
0.0
 10
6.966496
 20
7.789172
 30
0.0
 10
6.967361
 20
7.767430
 30
0.0
 10
6.964647
 20
7.747099
 30
0.0
 10
6.955326
 20
7.728988
 30
0.0
 10
6.940903
 20
7.714514
 30
0.0
 10
6.922300
 20
7.703075
 30
0.0
 10
6.901021
 20
7.697972
 30
0.0
 10
6.879167
 20
7.696875
 30
0.0
 10
6.849799
 20
7.696875
 30
0.0
 10
6.820512
 20
7.696875
 30
0.0
 10
6.790972
 20
7.696875
 30
0.0
 10
6.790972
 20
7.746800
 30
0.0
 10
6.790972
 20
7.796587
 30
0.0
 10
6.790972
 20
7.846805
 30
0.0
 10
6.790972
 20
7.846805
 30
0.0
 10
6.790972
 20
7.846805
 30
0.0
 10
6.790972
 20
7.846805
 30
0.0
  0
LWPOLYLINE
  5
117
100
AcDbEntity
  8
Layer_1
 62
7
100
AcDbPolyline
 90
131
 70
0
 10
13.481236
 20
13.095449
 30
0.0
 10
12.753685
 20
13.094152
 30
0.0
 10
12.026160
 20
13.093543
 30
0.0
 10
11.298659
 20
13.093434
 30
0.0
 10
10.571180
 20
13.093639
 30
0.0
 10
9.843719
 20
13.093974
 30
0.0
 10
9.116161
 20
13.094251
 30
0.0
 10
8.388659
 20
13.094285
 30
0.0
 10
7.661202
 20
13.093891
 30
0.0
 10
6.933679
 20
13.092881
 30
0.0
 10
6.206158
 20
13.091071
 30
0.0
 10
6.009179
 20
13.064999
 30
0.0
 10
5.818543
 20
13.008989
 30
0.0
 10
5.638026
 20
12.925718
 30
0.0
 10
5.470927
 20
12.818067
 30
0.0
 10
5.320035
 20
12.688718
 30
0.0
 10
5.188018
 20
12.540084
 30
0.0
 10
5.077857
 20
12.374711
 30
0.0
 10
4.992619
 20
12.195207
 30
0.0
 10
4.935550
 20
12.004871
 30
0.0
 10
4.909518
 20
11.807837
 30
0.0
 10
4.904046
 20
11.702085
 30
0.0
 10
4.900938
 20
11.596224
 30
0.0
 10
4.899710
 20
11.490359
 30
0.0
 10
4.899876
 20
11.384398
 30
0.0
 10
4.900952
 20
11.278517
 30
0.0
 10
4.902451
 20
11.172617
 30
0.0
 10
4.903889
 20
11.066682
 30
0.0
 10
4.904781
 20
10.960778
 30
0.0
 10
4.904642
 20
10.854849
 30
0.0
 10
4.902987
 20
10.748944
 30
0.0
 10
4.903259
 20
10.483531
 30
0.0
 10
4.902906
 20
10.218105
 30
0.0
 10
4.902211
 20
9.952673
 30
0.0
 10
4.901457
 20
9.687299
 30
0.0
 10
4.900928
 20
9.421916
 30
0.0
 10
4.900906
 20
9.156531
 30
0.0
 10
4.901677
 20
8.891083
 30
0.0
 10
4.903522
 20
8.625726
 30
0.0
 10
4.906727
 20
8.360307
 30
0.0
 10
4.911575
 20
8.094931
 30
0.0
 10
4.947093
 20
7.903667
 30
0.0
 10
5.010757
 20
7.719874
 30
0.0
 10
5.099946
 20
7.546994
 30
0.0
 10
5.211976
 20
7.387869
 30
0.0
 10
5.344215
 20
7.245129
 30
0.0
 10
5.494268
 20
7.121217
 30
0.0
 10
5.659655
 20
7.018792
 30
0.0
 10
5.837834
 20
6.940588
 30
0.0
 10
6.025540
 20
6.889499
 30
0.0
 10
6.218861
 20
6.868005
 30
0.0
 10
6.317811
 20
6.864021
 30
0.0
 10
6.416850
 20
6.861907
 30
0.0
 10
6.515879
 20
6.861259
 30
0.0
 10
6.614904
 20
6.861666
 30
0.0
 10
6.713946
 20
6.862720
 30
0.0
 10
6.813001
 20
6.864013
 30
0.0
 10
6.912088
 20
6.865135
 30
0.0
 10
7.011146
 20
6.865679
 30
0.0
 10
7.110232
 20
6.865236
 30
0.0
 10
7.209301
 20
6.863396
 30
0.0
 10
7.867531
 20
6.863948
 30
0.0
 10
8.525744
 20
6.863947
 30
0.0
 10
9.183941
 20
6.863602
 30
0.0
 10
9.842120
 20
6.863117
 30
0.0
 10
10.500281
 20
6.862701
 30
0.0
 10
11.158427
 20
6.862559
 30
0.0
 10
11.816641
 20
6.862900
 30
0.0
 10
12.474806
 20
6.863928
 30
0.0
 10
13.133017
 20
6.865852
 30
0.0
 10
13.791212
 20
6.868877
 30
0.0
 10
13.981197
 20
6.899769
 30
0.0
 10
14.164592
 20
6.958300
 30
0.0
 10
14.337937
 20
7.041988
 30
0.0
 10
14.498427
 20
7.148307
 30
0.0
 10
14.643565
 20
7.274898
 30
0.0
 10
14.770773
 20
7.419437
 30
0.0
 10
14.877440
 20
7.579670
 30
0.0
 10
14.960807
 20
7.753234
 30
0.0
 10
15.017916
 20
7.937007
 30
0.0
 10
15.046225
 20
8.127427
 30
0.0
 10
15.052420
 20
8.226470
 30
0.0
 10
15.055965
 20
8.325686
 30
0.0
 10
15.057402
 20
8.424954
 30
0.0
 10
15.057282
 20
8.524210
 30
0.0
 10
15.056155
 20
8.623471
 30
0.0
 10
15.054574
 20
8.722664
 30
0.0
 10
15.053084
 20
8.821892
 30
0.0
 10
15.052234
 20
8.921088
 30
0.0
 10
15.052573
 20
9.020301
 30
0.0
 10
15.054648
 20
9.119483
 30
0.0
 10
15.054011
 20
9.393770
 30
0.0
 10
15.054159
 20
9.668070
 30
0.0
 10
15.054776
 20
9.942375
 30
0.0
 10
15.055545
 20
10.216620
 30
0.0
 10
15.056150
 20
10.490875
 30
0.0
 10
15.056274
 20
10.765133
 30
0.0
 10
15.055600
 20
11.039456
 30
0.0
 10
15.053812
 20
11.313736
 30
0.0
 10
15.050593
 20
11.588006
 30
0.0
 10
15.045625
 20
11.862233
 30
0.0
 10
15.010897
 20
12.050602
 30
0.0
 10
14.948784
 20
12.231824
 30
0.0
 10
14.861810
 20
12.402530
 30
0.0
 10
14.752607
 20
12.559942
 30
0.0
 10
14.623649
 20
12.701655
 30
0.0
 10
14.477309
 20
12.825279
 30
0.0
 10
14.315833
 20
12.928406
 30
0.0
 10
14.141761
 20
13.008368
 30
0.0
 10
13.957933
 20
13.062493
 30
0.0
 10
13.768133
 20
13.088287
 30
0.0
 10
13.739464
 20
13.090343
 30
0.0
 10
13.710815
 20
13.092025
 30
0.0
 10
13.682143
 20
13.093364
 30
0.0
 10
13.653417
 20
13.094388
 30
0.0
 10
13.624757
 20
13.095122
 30
0.0
 10
13.596029
 20
13.095597
 30
0.0
 10
13.567331
 20
13.095839
 30
0.0
 10
13.538659
 20
13.095876
 30
0.0
 10
13.509946
 20
13.095737
 30
0.0
 10
13.481236
 20
13.095449
 30
0.0
 10
13.481236
 20
13.095449
 30
0.0
 10
13.481236
 20
13.095449
 30
0.0
 10
13.481236
 20
13.095449
 30
0.0
 10
13.481236
 20
13.095449
 30
0.0
 10
13.481236
 20
13.095449
 30
0.0
 10
13.481236
 20
13.095449
 30
0.0
 10
13.481236
 20
13.095449
 30
0.0
 10
13.481236
 20
13.095449
 30
0.0
 10
13.481236
 20
13.095449
 30
0.0
 10
13.481236
 20
13.095449
 30
0.0
  0
LWPOLYLINE
  5
118
100
AcDbEntity
  8
Layer_1
 62
7
100
AcDbPolyline
 90
141
 70
0
 10
6.427797
 20
12.871025
 30
0.0
 10
6.814257
 20
12.869524
 30
0.0
 10
7.200711
 20
12.868651
 30
0.0
 10
7.587158
 20
12.868281
 30
0.0
 10
7.973599
 20
12.868291
 30
0.0
 10
8.360033
 20
12.868559
 30
0.0
 10
8.746521
 20
12.868960
 30
0.0
 10
9.132980
 20
12.869371
 30
0.0
 10
9.519415
 20
12.869670
 30
0.0
 10
9.905882
 20
12.869731
 30
0.0
 10
10.292346
 20
12.869433
 30
0.0
 10
10.641496
 20
12.868845
 30
0.0
 10
10.990644
 20
12.868760
 30
0.0
 10
11.339787
 20
12.868980
 30
0.0
 10
11.688923
 20
12.869311
 30
0.0
 10
12.038049
 20
12.869557
 30
0.0
 10
12.387217
 20
12.869522
 30
0.0
 10
12.736349
 20
12.869012
 30
0.0
 10
13.085447
 20
12.867830
 30
0.0
 10
13.434560
 20
12.865781
 30
0.0
 10
13.783651
 20
12.862669
 30
0.0
 10
13.946834
 20
12.834193
 30
0.0
 10
14.103749
 20
12.781167
 30
0.0
 10
14.251393
 20
12.705960
 30
0.0
 10
14.387166
 20
12.611064
 30
0.0
 10
14.508927
 20
12.498724
 30
0.0
 10
14.614512
 20
12.371037
 30
0.0
 10
14.701580
 20
12.230127
 30
0.0
 10
14.767659
 20
12.078222
 30
0.0
 10
14.810151
 20
11.918089
 30
0.0
 10
14.826753
 20
11.753318
 30
0.0
 10
14.829861
 20
11.660310
 30
0.0
 10
14.831414
 20
11.567279
 30
0.0
 10
14.831761
 20
11.474206
 30
0.0
 10
14.831250
 20
11.381144
 30
0.0
 10
14.830231
 20
11.288001
 30
0.0
 10
14.829053
 20
11.194930
 30
0.0
 10
14.828066
 20
11.101830
 30
0.0
 10
14.827619
 20
11.008754
 30
0.0
 10
14.828061
 20
10.915652
 30
0.0
 10
14.829742
 20
10.822559
 30
0.0
 10
14.829191
 20
10.550955
 30
0.0
 10
14.829380
 20
10.279358
 30
0.0
 10
14.830002
 20
10.007770
 30
0.0
 10
14.830754
 20
9.736190
 30
0.0
 10
14.831331
 20
9.464568
 30
0.0
 10
14.831429
 20
9.192929
 30
0.0
 10
14.830744
 20
8.921296
 30
0.0
 10
14.828968
 20
8.649640
 30
0.0
 10
14.825798
 20
8.378067
 30
0.0
 10
14.820925
 20
8.106503
 30
0.0
 10
14.788402
 20
7.944188
 30
0.0
 10
14.731541
 20
7.788711
 30
0.0
 10
14.652779
 20
7.643014
 30
0.0
 10
14.554667
 20
7.509628
 30
0.0
 10
14.439497
 20
7.390637
 30
0.0
 10
14.309452
 20
7.288172
 30
0.0
 10
14.166574
 20
7.204425
 30
0.0
 10
14.013243
 20
7.141882
 30
0.0
 10
13.852324
 20
7.103056
 30
0.0
 10
13.687357
 20
7.090118
 30
0.0
 10
13.586849
 20
7.088249
 30
0.0
 10
13.486331
 20
7.087380
 30
0.0
 10
13.385778
 20
7.087276
 30
0.0
 10
13.285244
 20
7.087703
 30
0.0
 10
13.184628
 20
7.088426
 30
0.0
 10
13.084092
 20
7.089209
 30
0.0
 10
12.983524
 20
7.089818
 30
0.0
 10
12.882981
 20
7.090018
 30
0.0
 10
12.782402
 20
7.089575
 30
0.0
 10
12.681825
 20
7.088253
 30
0.0
 10
12.031993
 20
7.088779
 30
0.0
 10
11.382174
 20
7.088749
 30
0.0
 10
10.732371
 20
7.088373
 30
0.0
 10
10.082584
 20
7.087860
 30
0.0
 10
9.432815
 20
7.087422
 30
0.0
 10
8.783062
 20
7.087268
 30
0.0
 10
8.133243
 20
7.087609
 30
0.0
 10
7.483476
 20
7.088653
 30
0.0
 10
6.833666
 20
7.090613
 30
0.0
 10
6.183875
 20
7.093698
 30
0.0
 10
6.020515
 20
7.120326
 30
0.0
 10
5.863202
 20
7.171704
 30
0.0
 10
5.715027
 20
7.245413
 30
0.0
 10
5.578508
 20
7.338984
 30
0.0
 10
5.455852
 20
7.450119
 30
0.0
 10
5.349173
 20
7.576764
 30
0.0
 10
5.260839
 20
7.716791
 30
0.0
 10
5.193377
 20
7.867915
 30
0.0
 10
5.149379
 20
8.027463
 30
0.0
 10
5.131224
 20
8.191905
 30
0.0
 10
5.127512
 20
8.283544
 30
0.0
 10
5.125609
 20
8.375264
 30
0.0
 10
5.125115
 20
8.466975
 30
0.0
 10
5.125628
 20
8.558680
 30
0.0
 10
5.126747
 20
8.650468
 30
0.0
 10
5.128070
 20
8.742187
 30
0.0
 10
5.129196
 20
8.833936
 30
0.0
 10
5.129725
 20
8.925658
 30
0.0
 10
5.129254
 20
9.017404
 30
0.0
 10
5.127383
 20
9.109136
 30
0.0
 10
5.128014
 20
9.383183
 30
0.0
 10
5.127856
 20
9.657246
 30
0.0
 10
5.127227
 20
9.931318
 30
0.0
 10
5.126447
 20
10.205330
 30
0.0
 10
5.125833
 20
10.479352
 30
0.0
 10
5.125707
 20
10.753376
 30
0.0
 10
5.126385
 20
11.027461
 30
0.0
 10
5.128188
 20
11.301448
 30
0.0
 10
5.131436
 20
11.575495
 30
0.0
 10
5.136447
 20
11.849491
 30
0.0
 10
5.168849
 20
12.012081
 30
0.0
 10
5.225630
 20
12.167947
 30
0.0
 10
5.304307
 20
12.313939
 30
0.0
 10
5.402424
 20
12.447652
 30
0.0
 10
5.517707
 20
12.566936
 30
0.0
 10
5.647971
 20
12.669595
 30
0.0
 10
5.791120
 20
12.753367
 30
0.0
 10
5.944772
 20
12.815753
 30
0.0
 10
6.106101
 20
12.854241
 30
0.0
 10
6.271417
 20
12.866647
 30
0.0
 10
6.287060
 20
12.867485
 30
0.0
 10
6.302719
 20
12.868203
 30
0.0
 10
6.318346
 20
12.868809
 30
0.0
 10
6.333945
 20
12.869318
 30
0.0
 10
6.349612
 20
12.869744
 30
0.0
 10
6.365261
 20
12.870097
 30
0.0
 10
6.380892
 20
12.870389
 30
0.0
 10
6.396556
 20
12.870633
 30
0.0
 10
6.412176
 20
12.870841
 30
0.0
 10
6.427798
 20
12.871025
 30
0.0
 10
6.427797
 20
12.871025
 30
0.0
 10
6.427797
 20
12.871025
 30
0.0
 10
6.427797
 20
12.871025
 30
0.0
 10
6.427797
 20
12.871025
 30
0.0
 10
6.427797
 20
12.871025
 30
0.0
 10
6.427797
 20
12.871025
 30
0.0
 10
6.427797
 20
12.871025
 30
0.0
 10
6.427797
 20
12.871025
 30
0.0
 10
6.427797
 20
12.871025
 30
0.0
 10
6.427797
 20
12.871025
 30
0.0
  0
LWPOLYLINE
  5
119
100
AcDbEntity
  8
Layer_1
 62
7
100
AcDbPolyline
 90
131
 70
0
 10
7.117845
 20
11.688063
 30
0.0
 10
6.924912
 20
11.673000
 30
0.0
 10
6.736769
 20
11.627858
 30
0.0
 10
6.558121
 20
11.553649
 30
0.0
 10
6.393287
 20
11.452348
 30
0.0
 10
6.246188
 20
11.326601
 30
0.0
 10
6.120390
 20
11.179561
 30
0.0
 10
6.019037
 20
11.014771
 30
0.0
 10
5.944782
 20
10.836141
 30
0.0
 10
5.899625
 20
10.648055
 30
0.0
 10
5.884555
 20
10.455149
 30
0.0
 10
5.884555
 20
10.305743
 30
0.0
 10
5.884555
 20
10.156327
 30
0.0
 10
5.884555
 20
10.006960
 30
0.0
 10
5.884555
 20
9.857533
 30
0.0
 10
5.884555
 20
9.708111
 30
0.0
 10
5.884555
 20
9.558688
 30
0.0
 10
5.884555
 20
9.409329
 30
0.0
 10
5.884555
 20
9.259963
 30
0.0
 10
5.884555
 20
9.110526
 30
0.0
 10
5.884555
 20
8.961095
 30
0.0
 10
5.920575
 20
8.961095
 30
0.0
 10
5.956575
 20
8.961095
 30
0.0
 10
5.992563
 20
8.961095
 30
0.0
 10
6.028570
 20
8.961095
 30
0.0
 10
6.064562
 20
8.961095
 30
0.0
 10
6.100632
 20
8.961095
 30
0.0
 10
6.136703
 20
8.961095
 30
0.0
 10
6.172708
 20
8.961095
 30
0.0
 10
6.208753
 20
8.961095
 30
0.0
 10
6.244749
 20
8.961095
 30
0.0
 10
6.244749
 20
9.053695
 30
0.0
 10
6.244749
 20
9.146301
 30
0.0
 10
6.244749
 20
9.238933
 30
0.0
 10
6.244749
 20
9.331490
 30
0.0
 10
6.244749
 20
9.424101
 30
0.0
 10
6.244749
 20
9.516712
 30
0.0
 10
6.244749
 20
9.609282
 30
0.0
 10
6.244749
 20
9.701858
 30
0.0
 10
6.244749
 20
9.794477
 30
0.0
 10
6.244749
 20
9.887093
 30
0.0
 10
6.593502
 20
9.887093
 30
0.0
 10
6.942276
 20
9.887093
 30
0.0
 10
7.291041
 20
9.887093
 30
0.0
 10
7.639786
 20
9.887093
 30
0.0
 10
7.988571
 20
9.887093
 30
0.0
 10
8.337277
 20
9.887093
 30
0.0
 10
8.686054
 20
9.887093
 30
0.0
 10
9.034779
 20
9.887093
 30
0.0
 10
9.383527
 20
9.887093
 30
0.0
 10
9.732252
 20
9.887093
 30
0.0
 10
9.732252
 20
9.923113
 30
0.0
 10
9.732252
 20
9.959113
 30
0.0
 10
9.732252
 20
9.995101
 30
0.0
 10
9.732252
 20
10.031107
 30
0.0
 10
9.732252
 20
10.067100
 30
0.0
 10
9.732252
 20
10.103170
 30
0.0
 10
9.732252
 20
10.139240
 30
0.0
 10
9.732252
 20
10.175246
 30
0.0
 10
9.732252
 20
10.211291
 30
0.0
 10
9.732252
 20
10.247287
 30
0.0
 10
9.383499
 20
10.247287
 30
0.0
 10
9.034725
 20
10.247287
 30
0.0
 10
8.685959
 20
10.247287
 30
0.0
 10
8.337215
 20
10.247287
 30
0.0
 10
7.988430
 20
10.247287
 30
0.0
 10
7.639724
 20
10.247287
 30
0.0
 10
7.290947
 20
10.247287
 30
0.0
 10
6.942222
 20
10.247287
 30
0.0
 10
6.593474
 20
10.247287
 30
0.0
 10
6.244749
 20
10.247287
 30
0.0
 10
6.244749
 20
10.268073
 30
0.0
 10
6.244749
 20
10.288899
 30
0.0
 10
6.244749
 20
10.309717
 30
0.0
 10
6.244749
 20
10.330490
 30
0.0
 10
6.244749
 20
10.351251
 30
0.0
 10
6.244749
 20
10.372054
 30
0.0
 10
6.244749
 20
10.392854
 30
0.0
 10
6.244749
 20
10.413660
 30
0.0
 10
6.244749
 20
10.434421
 30
0.0
 10
6.244749
 20
10.455149
 30
0.0
 10
6.255129
 20
10.591952
 30
0.0
 10
6.286474
 20
10.725537
 30
0.0
 10
6.338429
 20
10.852551
 30
0.0
 10
6.409828
 20
10.969733
 30
0.0
 10
6.498837
 20
11.074068
 30
0.0
 10
6.603259
 20
11.163015
 30
0.0
 10
6.720453
 20
11.234313
 30
0.0
 10
6.847450
 20
11.286191
 30
0.0
 10
6.981000
 20
11.317494
 30
0.0
 10
7.117845
 20
11.327869
 30
0.0
 10
7.379287
 20
11.327869
 30
0.0
 10
7.640746
 20
11.327869
 30
0.0
 10
7.902198
 20
11.327869
 30
0.0
 10
8.163671
 20
11.327869
 30
0.0
 10
8.425135
 20
11.327869
 30
0.0
 10
8.686596
 20
11.327869
 30
0.0
 10
8.948038
 20
11.327869
 30
0.0
 10
9.209440
 20
11.327869
 30
0.0
 10
9.470855
 20
11.327869
 30
0.0
 10
9.732252
 20
11.327869
 30
0.0
 10
9.732252
 20
11.363888
 30
0.0
 10
9.732252
 20
11.399889
 30
0.0
 10
9.732252
 20
11.435877
 30
0.0
 10
9.732252
 20
11.471883
 30
0.0
 10
9.732252
 20
11.507876
 30
0.0
 10
9.732252
 20
11.543945
 30
0.0
 10
9.732252
 20
11.580016
 30
0.0
 10
9.732252
 20
11.616021
 30
0.0
 10
9.732252
 20
11.652067
 30
0.0
 10
9.732252
 20
11.688063
 30
0.0
 10
9.470809
 20
11.688063
 30
0.0
 10
9.209350
 20
11.688063
 30
0.0
 10
8.947898
 20
11.688063
 30
0.0
 10
8.686425
 20
11.688063
 30
0.0
 10
8.424961
 20
11.688063
 30
0.0
 10
8.163500
 20
11.688063
 30
0.0
 10
7.902058
 20
11.688063
 30
0.0
 10
7.640657
 20
11.688063
 30
0.0
 10
7.379241
 20
11.688063
 30
0.0
 10
7.117845
 20
11.688063
 30
0.0
 10
7.117845
 20
11.688063
 30
0.0
 10
7.117845
 20
11.688063
 30
0.0
 10
7.117845
 20
11.688063
 30
0.0
 10
7.117845
 20
11.688063
 30
0.0
 10
7.117845
 20
11.688063
 30
0.0
 10
7.117845
 20
11.688063
 30
0.0
 10
7.117845
 20
11.688063
 30
0.0
 10
7.117845
 20
11.688063
 30
0.0
 10
7.117845
 20
11.688063
 30
0.0
 10
7.117845
 20
11.688063
 30
0.0
  0
SPLINE
  5
11a
100
AcDbEntity
  8
Layer_1
 62
7
100
AcDbSpline
 70
8
 71
3
 72
8
 73
4
 74
0
 40
0
 40
0
 40
0
 40
0
 40
1
 40
1
 40
1
 40
1
 10
14.001062
 20
8.597816
 30
0.0
 10
12.902381
 20
8.589548
 30
0.0
 10
11.803208
 20
8.594938
 30
0.0
 10
10.704338
 20
8.591910
 30
0.0
  0
SPLINE
  5
11b
100
AcDbEntity
  8
Layer_1
 62
7
100
AcDbSpline
 70
8
 71
3
 72
8
 73
4
 74
0
 40
0
 40
0
 40
0
 40
0
 40
1
 40
1
 40
1
 40
1
 10
10.704338
 20
8.591910
 30
0.0
 10
9.095833
 20
8.590563
 30
0.0
 10
7.487328
 20
8.589203
 30
0.0
 10
5.878822
 20
8.587870
 30
0.0
  0
SPLINE
  5
11c
100
AcDbEntity
  8
Layer_1
 62
7
100
AcDbSpline
 70
8
 71
3
 72
8
 73
4
 74
0
 40
0
 40
0
 40
0
 40
0
 40
1
 40
1
 40
1
 40
1
 10
5.878822
 20
8.587870
 30
0.0
 10
5.801433
 20
8.559298
 30
0.0
 10
5.823643
 20
8.444829
 30
0.0
 10
5.898718
 20
8.431092
 30
0.0
  0
SPLINE
  5
11d
100
AcDbEntity
  8
Layer_1
 62
7
100
AcDbSpline
 70
8
 71
3
 72
8
 73
4
 74
0
 40
0
 40
0
 40
0
 40
0
 40
1
 40
1
 40
1
 40
1
 10
5.898718
 20
8.431092
 30
0.0
 10
5.967522
 20
8.420600
 30
0.0
 10
6.035985
 20
8.447938
 30
0.0
 10
6.106828
 20
8.436371
 30
0.0
  0
SPLINE
  5
11e
100
AcDbEntity
  8
Layer_1
 62
7
100
AcDbSpline
 70
8
 71
3
 72
8
 73
4
 74
0
 40
0
 40
0
 40
0
 40
0
 40
1
 40
1
 40
1
 40
1
 10
6.106828
 20
8.436371
 30
0.0
 10
8.775510
 20
8.438583
 30
0.0
 10
11.444193
 20
8.440841
 30
0.0
 10
14.112876
 20
8.443029
 30
0.0
  0
SPLINE
  5
11f
100
AcDbEntity
  8
Layer_1
 62
7
100
AcDbSpline
 70
8
 71
3
 72
8
 73
4
 74
0
 40
0
 40
0
 40
0
 40
0
 40
1
 40
1
 40
1
 40
1
 10
14.112876
 20
8.443029
 30
0.0
 10
14.142699
 20
8.501428
 30
0.0
 10
14.125278
 20
8.593219
 30
0.0
 10
14.048016
 20
8.596226
 30
0.0
  0
SPLINE
  5
120
100
AcDbEntity
  8
Layer_1
 62
7
100
AcDbSpline
 70
8
 71
3
 72
8
 73
4
 74
0
 40
0
 40
0
 40
0
 40
0
 40
1
 40
1
 40
1
 40
1
 10
14.048016
 20
8.596226
 30
0.0
 10
14.032480
 20
8.598517
 30
0.0
 10
14.016723
 20
8.598300
 30
0.0
 10
14.001062
 20
8.597818
 30
0.0
  0
LWPOLYLINE
  5
121
100
AcDbEntity
  8
Layer_1
 62
7
100
AcDbPolyline
 90
151
 70
0
 10
10.205381
 20
12.497749
 30
0.0
 10
10.205381
 20
12.144081
 30
0.0
 10
10.205381
 20
11.790391
 30
0.0
 10
10.205381
 20
11.436710
 30
0.0
 10
10.205381
 20
11.083051
 30
0.0
 10
10.205381
 20
10.729350
 30
0.0
 10
10.205381
 20
10.375729
 30
0.0
 10
10.205381
 20
10.022037
 30
0.0
 10
10.205381
 20
9.668397
 30
0.0
 10
10.205381
 20
9.314735
 30
0.0
 10
10.205381
 20
8.961095
 30
0.0
 10
10.241401
 20
8.961095
 30
0.0
 10
10.277401
 20
8.961095
 30
0.0
 10
10.313389
 20
8.961095
 30
0.0
 10
10.349395
 20
8.961095
 30
0.0
 10
10.385388
 20
8.961095
 30
0.0
 10
10.421458
 20
8.961095
 30
0.0
 10
10.457528
 20
8.961095
 30
0.0
 10
10.493534
 20
8.961095
 30
0.0
 10
10.529579
 20
8.961095
 30
0.0
 10
10.565575
 20
8.961095
 30
0.0
 10
10.565575
 20
9.107124
 30
0.0
 10
10.565575
 20
9.253163
 30
0.0
 10
10.565575
 20
9.399154
 30
0.0
 10
10.565575
 20
9.545203
 30
0.0
 10
10.565575
 20
9.691249
 30
0.0
 10
10.565575
 20
9.837294
 30
0.0
 10
10.565575
 20
9.983277
 30
0.0
 10
10.565575
 20
10.129267
 30
0.0
 10
10.565575
 20
10.275327
 30
0.0
 10
10.565575
 20
10.421381
 30
0.0
 10
10.576689
 20
10.564060
 30
0.0
 10
10.610131
 20
10.703142
 30
0.0
 10
10.665324
 20
10.835120
 30
0.0
 10
10.740867
 20
10.956696
 30
0.0
 10
10.834622
 20
11.064758
 30
0.0
 10
10.944199
 20
11.156819
 30
0.0
 10
11.066808
 20
11.230642
 30
0.0
 10
11.199426
 20
11.284460
 30
0.0
 10
11.338798
 20
11.317041
 30
0.0
 10
11.481443
 20
11.327869
 30
0.0
 10
11.613853
 20
11.327869
 30
0.0
 10
11.746271
 20
11.327869
 30
0.0
 10
11.878645
 20
11.327869
 30
0.0
 10
12.011073
 20
11.327869
 30
0.0
 10
12.143497
 20
11.327869
 30
0.0
 10
12.275921
 20
11.327869
 30
0.0
 10
12.408288
 20
11.327869
 30
0.0
 10
12.540662
 20
11.327869
 30
0.0
 10
12.673099
 20
11.327869
 30
0.0
 10
12.805531
 20
11.327869
 30
0.0
 10
12.947601
 20
11.317094
 30
0.0
 10
13.086361
 20
11.284555
 30
0.0
 10
13.218260
 20
11.230650
 30
0.0
 10
13.339947
 20
11.156600
 30
0.0
 10
13.448425
 20
11.064193
 30
0.0
 10
13.540919
 20
10.955771
 30
0.0
 10
13.615072
 20
10.834079
 30
0.0
 10
13.669035
 20
10.702199
 30
0.0
 10
13.701600
 20
10.563504
 30
0.0
 10
13.712394
 20
10.421381
 30
0.0
 10
13.712394
 20
10.275351
 30
0.0
 10
13.712394
 20
10.129312
 30
0.0
 10
13.712394
 20
9.983322
 30
0.0
 10
13.712394
 20
9.837272
 30
0.0
 10
13.712394
 20
9.691227
 30
0.0
 10
13.712394
 20
9.545181
 30
0.0
 10
13.712394
 20
9.399199
 30
0.0
 10
13.712394
 20
9.253208
 30
0.0
 10
13.712394
 20
9.107148
 30
0.0
 10
13.712394
 20
8.961095
 30
0.0
 10
13.748414
 20
8.961095
 30
0.0
 10
13.784414
 20
8.961095
 30
0.0
 10
13.820402
 20
8.961095
 30
0.0
 10
13.856408
 20
8.961095
 30
0.0
 10
13.892401
 20
8.961095
 30
0.0
 10
13.928471
 20
8.961095
 30
0.0
 10
13.964541
 20
8.961095
 30
0.0
 10
14.000547
 20
8.961095
 30
0.0
 10
14.036592
 20
8.961095
 30
0.0
 10
14.072588
 20
8.961095
 30
0.0
 10
14.072588
 20
9.107124
 30
0.0
 10
14.072588
 20
9.253163
 30
0.0
 10
14.072588
 20
9.399154
 30
0.0
 10
14.072588
 20
9.545203
 30
0.0
 10
14.072588
 20
9.691249
 30
0.0
 10
14.072588
 20
9.837294
 30
0.0
 10
14.072588
 20
9.983277
 30
0.0
 10
14.072588
 20
10.129267
 30
0.0
 10
14.072588
 20
10.275327
 30
0.0
 10
14.072588
 20
10.421381
 30
0.0
 10
14.057105
 20
10.619601
 30
0.0
 10
14.010703
 20
10.812877
 30
0.0
 10
13.934402
 20
10.996421
 30
0.0
 10
13.830279
 20
11.165706
 30
0.0
 10
13.701036
 20
11.316763
 30
0.0
 10
13.549918
 20
11.445936
 30
0.0
 10
13.380567
 20
11.549999
 30
0.0
 10
13.197004
 20
11.626234
 30
0.0
 10
13.003737
 20
11.672593
 30
0.0
 10
12.805531
 20
11.688063
 30
0.0
 10
12.673121
 20
11.688063
 30
0.0
 10
12.540703
 20
11.688063
 30
0.0
 10
12.408329
 20
11.688063
 30
0.0
 10
12.275901
 20
11.688063
 30
0.0
 10
12.143477
 20
11.688063
 30
0.0
 10
12.011053
 20
11.688063
 30
0.0
 10
11.878686
 20
11.688063
 30
0.0
 10
11.746312
 20
11.688063
 30
0.0
 10
11.613875
 20
11.688063
 30
0.0
 10
11.481443
 20
11.688063
 30
0.0
 10
11.379126
 20
11.683971
 30
0.0
 10
11.277489
 20
11.671656
 30
0.0
 10
11.177141
 20
11.651118
 30
0.0
 10
11.078823
 20
11.622478
 30
0.0
 10
10.983202
 20
11.585941
 30
0.0
 10
10.890803
 20
11.541730
 30
0.0
 10
10.802349
 20
11.490230
 30
0.0
 10
10.718309
 20
11.431768
 30
0.0
 10
10.639184
 20
11.366716
 30
0.0
 10
10.565575
 20
11.295601
 30
0.0
 10
10.565575
 20
11.415817
 30
0.0
 10
10.565575
 20
11.536040
 30
0.0
 10
10.565575
 20
11.656296
 30
0.0
 10
10.565575
 20
11.776524
 30
0.0
 10
10.565575
 20
11.896746
 30
0.0
 10
10.565575
 20
12.016965
 30
0.0
 10
10.565575
 20
12.137131
 30
0.0
 10
10.565575
 20
12.257302
 30
0.0
 10
10.565575
 20
12.377528
 30
0.0
 10
10.565575
 20
12.497749
 30
0.0
 10
10.529556
 20
12.497749
 30
0.0
 10
10.493555
 20
12.497749
 30
0.0
 10
10.457567
 20
12.497749
 30
0.0
 10
10.421561
 20
12.497749
 30
0.0
 10
10.385568
 20
12.497749
 30
0.0
 10
10.349499
 20
12.497749
 30
0.0
 10
10.313428
 20
12.497749
 30
0.0
 10
10.277423
 20
12.497749
 30
0.0
 10
10.241377
 20
12.497749
 30
0.0
 10
10.205381
 20
12.497749
 30
0.0
 10
10.205381
 20
12.497749
 30
0.0
 10
10.205381
 20
12.497749
 30
0.0
 10
10.205381
 20
12.497749
 30
0.0
 10
10.205381
 20
12.497749
 30
0.0
 10
10.205381
 20
12.497749
 30
0.0
 10
10.205381
 20
12.497749
 30
0.0
 10
10.205381
 20
12.497749
 30
0.0
 10
10.205381
 20
12.497749
 30
0.0
 10
10.205381
 20
12.497749
 30
0.0
 10
10.205381
 20
12.497749
 30
0.0
  0
SPLINE
  5
122
100
AcDbEntity
  8
Layer_1
 62
7
100
AcDbSpline
 70
8
 71
3
 72
8
 73
4
 74
0
 40
0
 40
0
 40
0
 40
0
 40
1
 40
1
 40
1
 40
1
 10
28.848956
 20
12.869868
 30
0.0
 10
28.286587
 20
12.873705
 30
0.0
 10
27.785499
 20
12.399641
 30
0.0
 10
27.720067
 20
11.846813
 30
0.0
  0
SPLINE
  5
123
100
AcDbEntity
  8
Layer_1
 62
7
100
AcDbSpline
 70
8
 71
3
 72
8
 73
4
 74
0
 40
0
 40
0
 40
0
 40
0
 40
1
 40
1
 40
1
 40
1
 10
27.720067
 20
11.846813
 30
0.0
 10
27.700074
 20
10.933824
 30
0.0
 10
27.715027
 20
10.026155
 30
0.0
 10
27.711248
 20
9.112785
 30
0.0
  0
SPLINE
  5
124
100
AcDbEntity
  8
Layer_1
 62
7
100
AcDbSpline
 70
8
 71
3
 72
8
 73
4
 74
0
 40
0
 40
0
 40
0
 40
0
 40
1
 40
1
 40
1
 40
1
 10
27.711248
 20
9.112785
 30
0.0
 10
27.720265
 20
8.807070
 30
0.0
 10
27.695412
 20
8.501046
 30
0.0
 10
27.711248
 20
8.195564
 30
0.0
  0
SPLINE
  5
125
100
AcDbEntity
  8
Layer_1
 62
7
100
AcDbSpline
 70
8
 71
3
 72
8
 73
4
 74
0
 40
0
 40
0
 40
0
 40
0
 40
1
 40
1
 40
1
 40
1
 10
27.711248
 20
8.195564
 30
0.0
 10
27.726902
 20
7.636878
 30
0.0
 10
28.215499
 20
7.138579
 30
0.0
 10
28.769581
 20
7.093133
 30
0.0
  0
SPLINE
  5
126
100
AcDbEntity
  8
Layer_1
 62
7
100
AcDbSpline
 70
8
 71
3
 72
8
 73
4
 74
0
 40
0
 40
0
 40
0
 40
0
 40
1
 40
1
 40
1
 40
1
 10
28.769581
 20
7.093133
 30
0.0
 10
30.935383
 20
7.080744
 30
0.0
 10
33.094738
 20
7.096039
 30
0.0
 10
35.260692
 20
7.093133
 30
0.0
  0
SPLINE
  5
127
100
AcDbEntity
  8
Layer_1
 62
7
100
AcDbSpline
 70
8
 71
3
 72
8
 73
4
 74
0
 40
0
 40
0
 40
0
 40
0
 40
1
 40
1
 40
1
 40
1
 10
35.260692
 20
7.093133
 30
0.0
 10
35.595879
 20
7.099256
 30
0.0
 10
35.931018
 20
7.084976
 30
0.0
 10
36.266109
 20
7.093133
 30
0.0
  0
SPLINE
  5
128
100
AcDbEntity
  8
Layer_1
 62
7
100
AcDbSpline
 70
8
 71
3
 72
8
 73
4
 74
0
 40
0
 40
0
 40
0
 40
0
 40
1
 40
1
 40
1
 40
1
 10
36.266109
 20
7.093133
 30
0.0
 10
36.826607
 20
7.091439
 30
0.0
 10
37.338045
 20
7.555751
 30
0.0
 10
37.403817
 20
8.107369
 30
0.0
  0
SPLINE
  5
129
100
AcDbEntity
  8
Layer_1
 62
7
100
AcDbSpline
 70
8
 71
3
 72
8
 73
4
 74
0
 40
0
 40
0
 40
0
 40
0
 40
1
 40
1
 40
1
 40
1
 10
37.403817
 20
8.107369
 30
0.0
 10
37.423206
 20
9.011405
 30
0.0
 10
37.409235
 20
9.918625
 30
0.0
 10
37.412622
 20
10.823757
 30
0.0
  0
SPLINE
  5
12a
100
AcDbEntity
  8
Layer_1
 62
7
100
AcDbSpline
 70
8
 71
3
 72
8
 73
4
 74
0
 40
0
 40
0
 40
0
 40
0
 40
1
 40
1
 40
1
 40
1
 10
37.412622
 20
10.823757
 30
0.0
 10
37.404579
 20
11.133979
 30
0.0
 10
37.425972
 20
11.448549
 30
0.0
 10
37.412622
 20
11.758618
 30
0.0
  0
SPLINE
  5
12b
100
AcDbEntity
  8
Layer_1
 62
7
100
AcDbSpline
 70
8
 71
3
 72
8
 73
4
 74
0
 40
0
 40
0
 40
0
 40
0
 40
1
 40
1
 40
1
 40
1
 10
37.412622
 20
11.758618
 30
0.0
 10
37.402124
 20
12.319086
 30
0.0
 10
36.916986
 20
12.809072
 30
0.0
 10
36.363109
 20
12.861049
 30
0.0
  0
SPLINE
  5
12c
100
AcDbEntity
  8
Layer_1
 62
7
100
AcDbSpline
 70
8
 71
3
 72
8
 73
4
 74
0
 40
0
 40
0
 40
0
 40
0
 40
1
 40
1
 40
1
 40
1
 10
36.363109
 20
12.861049
 30
0.0
 10
35.199536
 20
12.873410
 30
0.0
 10
34.034346
 20
12.866862
 30
0.0
 10
32.870609
 20
12.869854
 30
0.0
  0
SPLINE
  5
12d
100
AcDbEntity
  8
Layer_1
 62
7
100
AcDbSpline
 70
8
 71
3
 72
8
 73
4
 74
0
 40
0
 40
0
 40
0
 40
0
 40
1
 40
1
 40
1
 40
1
 10
32.870609
 20
12.869854
 30
0.0
 10
31.582433
 20
12.871548
 30
0.0
 10
30.295800
 20
12.863674
 30
0.0
 10
29.007692
 20
12.869854
 30
0.0
  0
SPLINE
  5
12e
100
AcDbEntity
  8
Layer_1
 62
7
100
AcDbSpline
 70
8
 71
3
 72
8
 73
4
 74
0
 40
0
 40
0
 40
0
 40
0
 40
1
 40
1
 40
1
 40
1
 10
29.007692
 20
12.869854
 30
0.0
 10
28.955531
 20
12.869290
 30
0.0
 10
28.901030
 20
12.872872
 30
0.0
 10
28.848942
 20
12.869854
 30
0.0
  0
LWPOLYLINE
  5
12f
100
AcDbEntity
  8
Layer_1
 62
7
100
AcDbPolyline
 90
2
 70
1
 10
14.001062
 20
8.597818
 30
0.0
 10
14.001062
 20
8.597816
 30
0.0
  0
LWPOLYLINE
  5
130
100
AcDbEntity
  8
Layer_1
 62
7
100
AcDbPolyline
 90
2
 70
1
 10
28.848942
 20
12.869854
 30
0.0
 10
28.848956
 20
12.869868
 30
0.0
  0
SPLINE
  5
131
100
AcDbEntity
  8
Layer_1
 62
7
100
AcDbSpline
 70
8
 71
3
 72
8
 73
4
 74
0
 40
0
 40
0
 40
0
 40
0
 40
1
 40
1
 40
1
 40
1
 10
33.144025
 20
11.300007
 30
0.0
 10
33.374895
 20
11.541620
 30
0.0
 10
33.701368
 20
11.688063
 30
0.0
 10
34.061248
 20
11.688063
 30
0.0
  0
LWPOLYLINE
  5
132
100
AcDbEntity
  8
Layer_1
 62
7
100
AcDbPolyline
 90
3
 70
1
 10
32.791247
 20
12.499452
 30
0.0
 10
33.144025
 20
12.499452
 30
0.0
 10
33.144025
 20
11.300007
 30
0.0
  0
SPLINE
  5
133
100
AcDbEntity
  8
Layer_1
 62
7
100
AcDbSpline
 70
8
 71
3
 72
8
 73
4
 74
0
 40
0
 40
0
 40
0
 40
0
 40
1
 40
1
 40
1
 40
1
 10
35.384164
 20
11.688063
 30
0.0
 10
36.082853
 20
11.688063
 30
0.0
 10
36.654164
 20
11.125582
 30
0.0
 10
36.654164
 20
10.426882
 30
0.0
  0
LWPOLYLINE
  5
134
100
AcDbEntity
  8
Layer_1
 62
7
100
AcDbPolyline
 90
2
 70
1
 10
34.061248
 20
11.688063
 30
0.0
 10
35.384164
 20
11.688063
 30
0.0
  0
SPLINE
  5
135
100
AcDbEntity
  8
Layer_1
 62
7
100
AcDbSpline
 70
8
 71
3
 72
8
 73
4
 74
0
 40
0
 40
0
 40
0
 40
0
 40
1
 40
1
 40
1
 40
1
 10
36.292567
 20
10.426882
 30
0.0
 10
36.292567
 20
10.932252
 30
0.0
 10
35.889536
 20
11.326465
 30
0.0
 10
35.384164
 20
11.326465
 30
0.0
  0
LWPOLYLINE
  5
136
100
AcDbEntity
  8
Layer_1
 62
7
100
AcDbPolyline
 90
4
 70
1
 10
36.654164
 20
10.426882
 30
0.0
 10
36.654164
 20
8.962854
 30
0.0
 10
36.292567
 20
8.962854
 30
0.0
 10
36.292567
 20
10.426882
 30
0.0
  0
SPLINE
  5
137
100
AcDbEntity
  8
Layer_1
 62
7
100
AcDbSpline
 70
8
 71
3
 72
8
 73
4
 74
0
 40
0
 40
0
 40
0
 40
0
 40
1
 40
1
 40
1
 40
1
 10
34.061248
 20
11.326465
 30
0.0
 10
33.555876
 20
11.326465
 30
0.0
 10
33.144025
 20
10.932252
 30
0.0
 10
33.144025
 20
10.426882
 30
0.0
  0
LWPOLYLINE
  5
138
100
AcDbEntity
  8
Layer_1
 62
7
100
AcDbPolyline
 90
2
 70
1
 10
35.384164
 20
11.326465
 30
0.0
 10
34.061248
 20
11.326465
 30
0.0
  0
LWPOLYLINE
  5
139
100
AcDbEntity
  8
Layer_1
 62
7
100
AcDbPolyline
 90
4
 70
1
 10
33.144025
 20
10.426882
 30
0.0
 10
33.144025
 20
8.962854
 30
0.0
 10
32.791247
 20
8.962854
 30
0.0
 10
32.791247
 20
12.499452
 30
0.0
  0
SPLINE
  5
13a
100
AcDbEntity
  8
Layer_1
 62
7
100
AcDbSpline
 70
8
 71
3
 72
8
 73
4
 74
0
 40
0
 40
0
 40
0
 40
0
 40
1
 40
1
 40
1
 40
1
 10
29.695623
 20
11.326465
 30
0.0
 10
29.208931
 20
11.326465
 30
0.0
 10
28.822497
 20
10.940032
 30
0.0
 10
28.822497
 20
10.453340
 30
0.0
  0
LWPOLYLINE
  5
13b
100
AcDbEntity
  8
Layer_1
 62
7
100
AcDbPolyline
 90
4
 70
1
 10
29.695623
 20
11.688063
 30
0.0
 10
32.314997
 20
11.688063
 30
0.0
 10
32.314997
 20
11.326465
 30
0.0
 10
29.695623
 20
11.326465
 30
0.0
  0
SPLINE
  5
13c
100
AcDbEntity
  8
Layer_1
 62
7
100
AcDbSpline
 70
8
 71
3
 72
8
 73
4
 74
0
 40
0
 40
0
 40
0
 40
0
 40
1
 40
1
 40
1
 40
1
 10
28.469720
 20
10.453340
 30
0.0
 10
28.469720
 20
11.133349
 30
0.0
 10
29.015615
 20
11.688063
 30
0.0
 10
29.695623
 20
11.688063
 30
0.0
  0
LWPOLYLINE
  5
13d
100
AcDbEntity
  8
Layer_1
 62
7
100
AcDbPolyline
 90
8
 70
1
 10
28.822497
 20
10.453340
 30
0.0
 10
28.822497
 20
10.250493
 30
0.0
 10
32.314997
 20
10.250493
 30
0.0
 10
32.314997
 20
9.888896
 30
0.0
 10
28.822497
 20
9.888896
 30
0.0
 10
28.822497
 20
8.962854
 30
0.0
 10
28.469720
 20
8.962854
 30
0.0
 10
28.469720
 20
10.453340
 30
0.0
  0
SPLINE
  5
13e
100
AcDbEntity
  8
Layer_1
 62
7
100
AcDbSpline
 70
8
 71
3
 72
8
 73
4
 74
0
 40
0
 40
0
 40
0
 40
0
 40
1
 40
1
 40
1
 40
1
 10
36.583608
 20
8.601257
 30
0.0
 10
36.599271
 20
8.601817
 30
0.0
 10
36.612169
 20
8.603515
 30
0.0
 10
36.627706
 20
8.601257
 30
0.0
  0
SPLINE
  5
13f
100
AcDbEntity
  8
Layer_1
 62
7
100
AcDbSpline
 70
8
 71
3
 72
8
 73
4
 74
0
 40
0
 40
0
 40
0
 40
0
 40
1
 40
1
 40
1
 40
1
 10
36.627706
 20
8.601257
 30
0.0
 10
36.704966
 20
8.598239
 30
0.0
 10
36.728086
 20
8.500902
 30
0.0
 10
36.698261
 20
8.442507
 30
0.0
  0
SPLINE
  5
140
100
AcDbEntity
  8
Layer_1
 62
7
100
AcDbSpline
 70
8
 71
3
 72
8
 73
4
 74
0
 40
0
 40
0
 40
0
 40
0
 40
1
 40
1
 40
1
 40
1
 10
36.698261
 20
8.442507
 30
0.0
 10
34.029576
 20
8.440249
 30
0.0
 10
31.358887
 20
8.435904
 30
0.0
 10
28.690206
 20
8.433702
 30
0.0
  0
SPLINE
  5
141
100
AcDbEntity
  8
Layer_1
 62
7
100
AcDbSpline
 70
8
 71
3
 72
8
 73
4
 74
0
 40
0
 40
0
 40
0
 40
0
 40
1
 40
1
 40
1
 40
1
 10
28.690206
 20
8.433702
 30
0.0
 10
28.619363
 20
8.445273
 30
0.0
 10
28.547344
 20
8.423204
 30
0.0
 10
28.478539
 20
8.433702
 30
0.0
  0
SPLINE
  5
142
100
AcDbEntity
  8
Layer_1
 62
7
100
AcDbSpline
 70
8
 71
3
 72
8
 73
4
 74
0
 40
0
 40
0
 40
0
 40
0
 40
1
 40
1
 40
1
 40
1
 10
28.478539
 20
8.433702
 30
0.0
 10
28.403464
 20
8.447447
 30
0.0
 10
28.383510
 20
8.563879
 30
0.0
 10
28.460900
 20
8.592452
 30
0.0
  0
SPLINE
  5
143
100
AcDbEntity
  8
Layer_1
 62
7
100
AcDbSpline
 70
8
 71
3
 72
8
 73
4
 74
0
 40
0
 40
0
 40
0
 40
0
 40
1
 40
1
 40
1
 40
1
 10
28.460900
 20
8.592452
 30
0.0
 10
30.069405
 20
8.593863
 30
0.0
 10
31.676630
 20
8.591041
 30
0.0
 10
33.285137
 20
8.592452
 30
0.0
  0
SPLINE
  5
144
100
AcDbEntity
  8
Layer_1
 62
7
100
AcDbSpline
 70
8
 71
3
 72
8
 73
4
 74
0
 40
0
 40
0
 40
0
 40
0
 40
1
 40
1
 40
1
 40
1
 10
33.285137
 20
8.592452
 30
0.0
 10
34.384009
 20
8.595474
 30
0.0
 10
35.484929
 20
8.593012
 30
0.0
 10
36.583608
 20
8.601257
 30
0.0
  0
LWPOLYLINE
  5
145
100
AcDbEntity
  8
Layer_1
 62
7
100
AcDbPolyline
 90
2
 70
1
 10
29.695623
 20
11.688063
 30
0.0
 10
29.695623
 20
11.688063
 30
0.0
  0
LWPOLYLINE
  5
146
100
AcDbEntity
  8
Layer_1
 62
7
100
AcDbPolyline
 90
2
 70
1
 10
36.583608
 20
8.601257
 30
0.0
 10
36.583608
 20
8.601257
 30
0.0
  0
LWPOLYLINE
  5
147
100
AcDbEntity
  8
Layer_1
 62
7
100
AcDbPolyline
 90
5
 70
1
 10
31.036178
 20
8.345494
 30
0.0
 10
31.186109
 20
8.345494
 30
0.0
 10
31.186109
 20
8.209107
 30
0.0
 10
31.036178
 20
8.209107
 30
0.0
 10
31.036178
 20
8.345494
 30
0.0
  0
SPLINE
  5
148
100
AcDbEntity
  8
Layer_1
 62
7
100
AcDbSpline
 70
8
 71
3
 72
8
 73
4
 74
0
 40
0
 40
0
 40
0
 40
0
 40
1
 40
1
 40
1
 40
1
 10
28.796039
 20
8.195564
 30
0.0
 10
28.891145
 20
8.195564
 30
0.0
 10
28.962632
 20
8.161790
 30
0.0
 10
29.016526
 20
8.107369
 30
0.0
  0
SPLINE
  5
149
100
AcDbEntity
  8
Layer_1
 62
7
100
AcDbSpline
 70
8
 71
3
 72
8
 73
4
 74
0
 40
0
 40
0
 40
0
 40
0
 40
1
 40
1
 40
1
 40
1
 10
29.016526
 20
8.107369
 30
0.0
 10
29.070419
 20
8.052949
 30
0.0
 10
29.104720
 20
7.982790
 30
0.0
 10
29.104720
 20
7.886882
 30
0.0
  0
SPLINE
  5
14a
100
AcDbEntity
  8
Layer_1
 62
7
100
AcDbSpline
 70
8
 71
3
 72
8
 73
4
 74
0
 40
0
 40
0
 40
0
 40
0
 40
1
 40
1
 40
1
 40
1
 10
29.104720
 20
7.886882
 30
0.0
 10
29.104720
 20
7.791254
 30
0.0
 10
29.070419
 20
7.711998
 30
0.0
 10
29.016526
 20
7.657578
 30
0.0
  0
SPLINE
  5
14b
100
AcDbEntity
  8
Layer_1
 62
7
100
AcDbSpline
 70
8
 71
3
 72
8
 73
4
 74
0
 40
0
 40
0
 40
0
 40
0
 40
1
 40
1
 40
1
 40
1
 10
29.016526
 20
7.657578
 30
0.0
 10
28.962632
 20
7.603155
 30
0.0
 10
28.891145
 20
7.578202
 30
0.0
 10
28.796039
 20
7.578202
 30
0.0
  0
SPLINE
  5
14c
100
AcDbEntity
  8
Layer_1
 62
7
100
AcDbSpline
 70
8
 71
3
 72
8
 73
4
 74
0
 40
0
 40
0
 40
0
 40
0
 40
1
 40
1
 40
1
 40
1
 10
28.796039
 20
7.578202
 30
0.0
 10
28.701197
 20
7.578202
 30
0.0
 10
28.629711
 20
7.603178
 30
0.0
 10
28.575553
 20
7.657578
 30
0.0
  0
SPLINE
  5
14d
100
AcDbEntity
  8
Layer_1
 62
7
100
AcDbSpline
 70
8
 71
3
 72
8
 73
4
 74
0
 40
0
 40
0
 40
0
 40
0
 40
1
 40
1
 40
1
 40
1
 10
28.575553
 20
7.657578
 30
0.0
 10
28.521660
 20
7.711998
 30
0.0
 10
28.496178
 20
7.791254
 30
0.0
 10
28.496178
 20
7.886882
 30
0.0
  0
SPLINE
  5
14e
100
AcDbEntity
  8
Layer_1
 62
7
100
AcDbSpline
 70
8
 71
3
 72
8
 73
4
 74
0
 40
0
 40
0
 40
0
 40
0
 40
1
 40
1
 40
1
 40
1
 10
28.496178
 20
7.886882
 30
0.0
 10
28.496178
 20
7.982790
 30
0.0
 10
28.521660
 20
8.052949
 30
0.0
 10
28.575553
 20
8.107369
 30
0.0
  0
SPLINE
  5
14f
100
AcDbEntity
  8
Layer_1
 62
7
100
AcDbSpline
 70
8
 71
3
 72
8
 73
4
 74
0
 40
0
 40
0
 40
0
 40
0
 40
1
 40
1
 40
1
 40
1
 10
28.575553
 20
8.107369
 30
0.0
 10
28.629711
 20
8.161790
 30
0.0
 10
28.701197
 20
8.195564
 30
0.0
 10
28.796039
 20
8.195564
 30
0.0
  0
LWPOLYLINE
  5
150
100
AcDbEntity
  8
Layer_1
 62
7
100
AcDbPolyline
 90
5
 70
1
 10
31.388956
 20
8.345494
 30
0.0
 10
31.530067
 20
8.345494
 30
0.0
 10
31.530067
 20
8.209107
 30
0.0
 10
31.388956
 20
8.209107
 30
0.0
 10
31.388956
 20
8.345494
 30
0.0
  0
SPLINE
  5
151
100
AcDbEntity
  8
Layer_1
 62
7
100
AcDbSpline
 70
8
 71
3
 72
8
 73
4
 74
0
 40
0
 40
0
 40
0
 40
0
 40
1
 40
1
 40
1
 40
1
 10
31.283123
 20
8.195564
 30
0.0
 10
31.378228
 20
8.195564
 30
0.0
 10
31.449714
 20
8.161790
 30
0.0
 10
31.503609
 20
8.107369
 30
0.0
  0
SPLINE
  5
152
100
AcDbEntity
  8
Layer_1
 62
7
100
AcDbSpline
 70
8
 71
3
 72
8
 73
4
 74
0
 40
0
 40
0
 40
0
 40
0
 40
1
 40
1
 40
1
 40
1
 10
31.503609
 20
8.107369
 30
0.0
 10
31.557502
 20
8.052949
 30
0.0
 10
31.591803
 20
7.982790
 30
0.0
 10
31.591803
 20
7.886882
 30
0.0
  0
SPLINE
  5
153
100
AcDbEntity
  8
Layer_1
 62
7
100
AcDbSpline
 70
8
 71
3
 72
8
 73
4
 74
0
 40
0
 40
0
 40
0
 40
0
 40
1
 40
1
 40
1
 40
1
 10
31.591803
 20
7.886882
 30
0.0
 10
31.591803
 20
7.791254
 30
0.0
 10
31.557502
 20
7.711998
 30
0.0
 10
31.503609
 20
7.657578
 30
0.0
  0
SPLINE
  5
154
100
AcDbEntity
  8
Layer_1
 62
7
100
AcDbSpline
 70
8
 71
3
 72
8
 73
4
 74
0
 40
0
 40
0
 40
0
 40
0
 40
1
 40
1
 40
1
 40
1
 10
31.503609
 20
7.657578
 30
0.0
 10
31.449714
 20
7.603155
 30
0.0
 10
31.378228
 20
7.578202
 30
0.0
 10
31.283123
 20
7.578202
 30
0.0
  0
SPLINE
  5
155
100
AcDbEntity
  8
Layer_1
 62
7
100
AcDbSpline
 70
8
 71
3
 72
8
 73
4
 74
0
 40
0
 40
0
 40
0
 40
0
 40
1
 40
1
 40
1
 40
1
 10
31.283123
 20
7.578202
 30
0.0
 10
31.188280
 20
7.578202
 30
0.0
 10
31.116794
 20
7.603178
 30
0.0
 10
31.062636
 20
7.657578
 30
0.0
  0
SPLINE
  5
156
100
AcDbEntity
  8
Layer_1
 62
7
100
AcDbSpline
 70
8
 71
3
 72
8
 73
4
 74
0
 40
0
 40
0
 40
0
 40
0
 40
1
 40
1
 40
1
 40
1
 10
31.062636
 20
7.657578
 30
0.0
 10
31.008742
 20
7.711998
 30
0.0
 10
30.983262
 20
7.791254
 30
0.0
 10
30.983262
 20
7.886882
 30
0.0
  0
SPLINE
  5
157
100
AcDbEntity
  8
Layer_1
 62
7
100
AcDbSpline
 70
8
 71
3
 72
8
 73
4
 74
0
 40
0
 40
0
 40
0
 40
0
 40
1
 40
1
 40
1
 40
1
 10
30.983262
 20
7.886882
 30
0.0
 10
30.983262
 20
7.982790
 30
0.0
 10
31.008743
 20
8.052949
 30
0.0
 10
31.062636
 20
8.107369
 30
0.0
  0
SPLINE
  5
158
100
AcDbEntity
  8
Layer_1
 62
7
100
AcDbSpline
 70
8
 71
3
 72
8
 73
4
 74
0
 40
0
 40
0
 40
0
 40
0
 40
1
 40
1
 40
1
 40
1
 10
31.062636
 20
8.107369
 30
0.0
 10
31.116794
 20
8.161790
 30
0.0
 10
31.188280
 20
8.195564
 30
0.0
 10
31.283123
 20
8.195564
 30
0.0
  0
LWPOLYLINE
  5
159
100
AcDbEntity
  8
Layer_1
 62
7
100
AcDbPolyline
 90
2
 70
1
 10
28.796039
 20
8.195564
 30
0.0
 10
28.796039
 20
8.195564
 30
0.0
  0
SPLINE
  5
15a
100
AcDbEntity
  8
Layer_1
 62
7
100
AcDbSpline
 70
8
 71
3
 72
8
 73
4
 74
0
 40
0
 40
0
 40
0
 40
0
 40
1
 40
1
 40
1
 40
1
 10
31.909303
 20
8.195564
 30
0.0
 10
31.941798
 20
8.195564
 30
0.0
 10
31.971973
 20
8.191750
 30
0.0
 10
32.006317
 20
8.186757
 30
0.0
  0
SPLINE
  5
15b
100
AcDbEntity
  8
Layer_1
 62
7
100
AcDbSpline
 70
8
 71
3
 72
8
 73
4
 74
0
 40
0
 40
0
 40
0
 40
0
 40
1
 40
1
 40
1
 40
1
 10
32.006317
 20
8.186757
 30
0.0
 10
32.040661
 20
8.182016
 30
0.0
 10
32.075428
 20
8.170078
 30
0.0
 10
32.112150
 20
8.160314
 30
0.0
  0
LWPOLYLINE
  5
15c
100
AcDbEntity
  8
Layer_1
 62
7
100
AcDbPolyline
 90
2
 70
1
 10
31.283123
 20
8.195564
 30
0.0
 10
31.283123
 20
8.195564
 30
0.0
  0
SPLINE
  5
15d
100
AcDbEntity
  8
Layer_1
 62
7
100
AcDbSpline
 70
8
 71
3
 72
8
 73
4
 74
0
 40
0
 40
0
 40
0
 40
0
 40
1
 40
1
 40
1
 40
1
 10
32.112150
 20
8.036841
 30
0.0
 10
32.079655
 20
8.051376
 30
0.0
 10
32.046046
 20
8.064725
 30
0.0
 10
32.015136
 20
8.072119
 30
0.0
  0
SPLINE
  5
15e
100
AcDbEntity
  8
Layer_1
 62
7
100
AcDbSpline
 70
8
 71
3
 72
8
 73
4
 74
0
 40
0
 40
0
 40
0
 40
0
 40
1
 40
1
 40
1
 40
1
 10
32.015136
 20
8.072119
 30
0.0
 10
31.984228
 20
8.079514
 30
0.0
 10
31.963236
 20
8.080925
 30
0.0
 10
31.935762
 20
8.080925
 30
0.0
  0
SPLINE
  5
15f
100
AcDbEntity
  8
Layer_1
 62
7
100
AcDbSpline
 70
8
 71
3
 72
8
 73
4
 74
0
 40
0
 40
0
 40
0
 40
0
 40
1
 40
1
 40
1
 40
1
 10
31.935762
 20
8.080925
 30
0.0
 10
31.899304
 20
8.080925
 30
0.0
 10
31.865002
 20
8.073305
 30
0.0
 10
31.847567
 20
8.063285
 30
0.0
  0
SPLINE
  5
160
100
AcDbEntity
  8
Layer_1
 62
7
100
AcDbSpline
 70
8
 71
3
 72
8
 73
4
 74
0
 40
0
 40
0
 40
0
 40
0
 40
1
 40
1
 40
1
 40
1
 10
31.847567
 20
8.063285
 30
0.0
 10
31.830126
 20
8.053239
 30
0.0
 10
31.821123
 20
8.040313
 30
0.0
 10
31.821123
 20
8.019189
 30
0.0
  0
SPLINE
  5
161
100
AcDbEntity
  8
Layer_1
 62
7
100
AcDbSpline
 70
8
 71
3
 72
8
 73
4
 74
0
 40
0
 40
0
 40
0
 40
0
 40
1
 40
1
 40
1
 40
1
 10
31.821123
 20
8.019189
 30
0.0
 10
31.821123
 20
8.003328
 30
0.0
 10
31.827134
 20
7.992885
 30
0.0
 10
31.838762
 20
7.983911
 30
0.0
  0
SPLINE
  5
162
100
AcDbEntity
  8
Layer_1
 62
7
100
AcDbSpline
 70
8
 71
3
 72
8
 73
4
 74
0
 40
0
 40
0
 40
0
 40
0
 40
1
 40
1
 40
1
 40
1
 10
31.838762
 20
7.983911
 30
0.0
 10
31.850643
 20
7.975190
 30
0.0
 10
31.878408
 20
7.963788
 30
0.0
 10
31.909317
 20
7.957466
 30
0.0
  0
LWPOLYLINE
  5
163
100
AcDbEntity
  8
Layer_1
 62
7
100
AcDbPolyline
 90
2
 70
1
 10
32.112150
 20
8.160314
 30
0.0
 10
32.112150
 20
8.036841
 30
0.0
  0
SPLINE
  5
164
100
AcDbEntity
  8
Layer_1
 62
7
100
AcDbSpline
 70
8
 71
3
 72
8
 73
4
 74
0
 40
0
 40
0
 40
0
 40
0
 40
1
 40
1
 40
1
 40
1
 10
31.971053
 20
7.948661
 30
0.0
 10
32.036834
 20
7.935453
 30
0.0
 10
32.084425
 20
7.913869
 30
0.0
 10
32.112165
 20
7.886925
 30
0.0
  0
SPLINE
  5
165
100
AcDbEntity
  8
Layer_1
 62
7
100
AcDbSpline
 70
8
 71
3
 72
8
 73
4
 74
0
 40
0
 40
0
 40
0
 40
0
 40
1
 40
1
 40
1
 40
1
 10
32.112165
 20
7.886925
 30
0.0
 10
32.139907
 20
7.859973
 30
0.0
 10
32.156262
 20
7.821932
 30
0.0
 10
32.156262
 20
7.772272
 30
0.0
  0
SPLINE
  5
166
100
AcDbEntity
  8
Layer_1
 62
7
100
AcDbSpline
 70
8
 71
3
 72
8
 73
4
 74
0
 40
0
 40
0
 40
0
 40
0
 40
1
 40
1
 40
1
 40
1
 10
32.156262
 20
7.772272
 30
0.0
 10
32.156262
 20
7.707015
 30
0.0
 10
32.133374
 20
7.663123
 30
0.0
 10
32.094525
 20
7.631161
 30
0.0
  0
SPLINE
  5
167
100
AcDbEntity
  8
Layer_1
 62
7
100
AcDbSpline
 70
8
 71
3
 72
8
 73
4
 74
0
 40
0
 40
0
 40
0
 40
0
 40
1
 40
1
 40
1
 40
1
 10
32.094525
 20
7.631161
 30
0.0
 10
32.055955
 20
7.599456
 30
0.0
 10
31.997656
 20
7.578244
 30
0.0
 10
31.918137
 20
7.578244
 30
0.0
  0
SPLINE
  5
168
100
AcDbEntity
  8
Layer_1
 62
7
100
AcDbSpline
 70
8
 71
3
 72
8
 73
4
 74
0
 40
0
 40
0
 40
0
 40
0
 40
1
 40
1
 40
1
 40
1
 10
31.918137
 20
7.578244
 30
0.0
 10
31.880624
 20
7.578244
 30
0.0
 10
31.841262
 20
7.579938
 30
0.0
 10
31.803484
 20
7.587049
 30
0.0
  0
SPLINE
  5
169
100
AcDbEntity
  8
Layer_1
 62
7
100
AcDbSpline
 70
8
 71
3
 72
8
 73
4
 74
0
 40
0
 40
0
 40
0
 40
0
 40
1
 40
1
 40
1
 40
1
 10
31.803484
 20
7.587049
 30
0.0
 10
31.765706
 20
7.594190
 30
0.0
 10
31.726609
 20
7.608329
 30
0.0
 10
31.688831
 20
7.622328
 30
0.0
  0
LWPOLYLINE
  5
16a
100
AcDbEntity
  8
Layer_1
 62
7
100
AcDbPolyline
 90
2
 70
1
 10
31.909317
 20
7.957466
 30
0.0
 10
31.971053
 20
7.948661
 30
0.0
  0
SPLINE
  5
16b
100
AcDbEntity
  8
Layer_1
 62
7
100
AcDbSpline
 70
8
 71
3
 72
8
 73
4
 74
0
 40
0
 40
0
 40
0
 40
0
 40
1
 40
1
 40
1
 40
1
 10
31.688831
 20
7.754619
 30
0.0
 10
31.726609
 20
7.734553
 30
0.0
 10
31.768347
 20
7.712003
 30
0.0
 10
31.803484
 20
7.701702
 30
0.0
  0
SPLINE
  5
16c
100
AcDbEntity
  8
Layer_1
 62
7
100
AcDbSpline
 70
8
 71
3
 72
8
 73
4
 74
0
 40
0
 40
0
 40
0
 40
0
 40
1
 40
1
 40
1
 40
1
 10
31.803484
 20
7.701702
 30
0.0
 10
31.838883
 20
7.691684
 30
0.0
 10
31.867740
 20
7.692897
 30
0.0
 10
31.900498
 20
7.692897
 30
0.0
  0
SPLINE
  5
16d
100
AcDbEntity
  8
Layer_1
 62
7
100
AcDbSpline
 70
8
 71
3
 72
8
 73
4
 74
0
 40
0
 40
0
 40
0
 40
0
 40
1
 40
1
 40
1
 40
1
 10
31.900498
 20
7.692897
 30
0.0
 10
31.933786
 20
7.692897
 30
0.0
 10
31.962172
 20
7.699444
 30
0.0
 10
31.979873
 20
7.710536
 30
0.0
  0
SPLINE
  5
16e
100
AcDbEntity
  8
Layer_1
 62
7
100
AcDbSpline
 70
8
 71
3
 72
8
 73
4
 74
0
 40
0
 40
0
 40
0
 40
0
 40
1
 40
1
 40
1
 40
1
 10
31.979873
 20
7.710536
 30
0.0
 10
31.997568
 20
7.721627
 30
0.0
 10
32.006317
 20
7.734045
 30
0.0
 10
32.006317
 20
7.754633
 30
0.0
  0
SPLINE
  5
16f
100
AcDbEntity
  8
Layer_1
 62
7
100
AcDbSpline
 70
8
 71
3
 72
8
 73
4
 74
0
 40
0
 40
0
 40
0
 40
0
 40
1
 40
1
 40
1
 40
1
 10
32.006317
 20
7.754633
 30
0.0
 10
32.006317
 20
7.773119
 30
0.0
 10
32.000842
 20
7.788697
 30
0.0
 10
31.988678
 20
7.798731
 30
0.0
  0
SPLINE
  5
170
100
AcDbEntity
  8
Layer_1
 62
7
100
AcDbSpline
 70
8
 71
3
 72
8
 73
4
 74
0
 40
0
 40
0
 40
0
 40
0
 40
1
 40
1
 40
1
 40
1
 10
31.988678
 20
7.798731
 30
0.0
 10
31.976796
 20
7.808750
 30
0.0
 10
31.954052
 20
7.817272
 30
0.0
 10
31.918123
 20
7.825174
 30
0.0
  0
LWPOLYLINE
  5
171
100
AcDbEntity
  8
Layer_1
 62
7
100
AcDbPolyline
 90
2
 70
1
 10
31.688831
 20
7.622328
 30
0.0
 10
31.688831
 20
7.754619
 30
0.0
  0
SPLINE
  5
172
100
AcDbEntity
  8
Layer_1
 62
7
100
AcDbSpline
 70
8
 71
3
 72
8
 73
4
 74
0
 40
0
 40
0
 40
0
 40
0
 40
1
 40
1
 40
1
 40
1
 10
31.856387
 20
7.833967
 30
0.0
 10
31.797210
 20
7.846637
 30
0.0
 10
31.751569
 20
7.867957
 30
0.0
 10
31.724095
 20
7.895703
 30
0.0
  0
SPLINE
  5
173
100
AcDbEntity
  8
Layer_1
 62
7
100
AcDbSpline
 70
8
 71
3
 72
8
 73
4
 74
0
 40
0
 40
0
 40
0
 40
0
 40
1
 40
1
 40
1
 40
1
 10
31.724095
 20
7.895703
 30
0.0
 10
31.696889
 20
7.923445
 30
0.0
 10
31.688817
 20
7.963332
 30
0.0
 10
31.688817
 20
8.010354
 30
0.0
  0
SPLINE
  5
174
100
AcDbEntity
  8
Layer_1
 62
7
100
AcDbSpline
 70
8
 71
3
 72
8
 73
4
 74
0
 40
0
 40
0
 40
0
 40
0
 40
1
 40
1
 40
1
 40
1
 10
31.688817
 20
8.010354
 30
0.0
 10
31.688817
 20
8.069271
 30
0.0
 10
31.703690
 20
8.110942
 30
0.0
 10
31.741734
 20
8.142647
 30
0.0
  0
SPLINE
  5
175
100
AcDbEntity
  8
Layer_1
 62
7
100
AcDbSpline
 70
8
 71
3
 72
8
 73
4
 74
0
 40
0
 40
0
 40
0
 40
0
 40
1
 40
1
 40
1
 40
1
 10
31.741734
 20
8.142647
 30
0.0
 10
31.779774
 20
8.174351
 30
0.0
 10
31.837974
 20
8.195564
 30
0.0
 10
31.909303
 20
8.195564
 30
0.0
  0
LWPOLYLINE
  5
176
100
AcDbEntity
  8
Layer_1
 62
7
100
AcDbPolyline
 90
2
 70
1
 10
31.918123
 20
7.825174
 30
0.0
 10
31.856387
 20
7.833967
 30
0.0
  0
SPLINE
  5
177
100
AcDbEntity
  8
Layer_1
 62
7
100
AcDbSpline
 70
8
 71
3
 72
8
 73
4
 74
0
 40
0
 40
0
 40
0
 40
0
 40
1
 40
1
 40
1
 40
1
 10
35.789859
 20
8.195564
 30
0.0
 10
35.822881
 20
8.195564
 30
0.0
 10
35.856491
 20
8.185318
 30
0.0
 10
35.886873
 20
8.177924
 30
0.0
  0
SPLINE
  5
178
100
AcDbEntity
  8
Layer_1
 62
7
100
AcDbSpline
 70
8
 71
3
 72
8
 73
4
 74
0
 40
0
 40
0
 40
0
 40
0
 40
1
 40
1
 40
1
 40
1
 10
35.886873
 20
8.177924
 30
0.0
 10
35.917254
 20
8.170530
 30
0.0
 10
35.947065
 20
8.165987
 30
0.0
 10
35.975067
 20
8.151480
 30
0.0
  0
LWPOLYLINE
  5
179
100
AcDbEntity
  8
Layer_1
 62
7
100
AcDbPolyline
 90
2
 70
1
 10
31.909303
 20
8.195564
 30
0.0
 10
31.909303
 20
8.195564
 30
0.0
  0
SPLINE
  5
17a
100
AcDbEntity
  8
Layer_1
 62
7
100
AcDbSpline
 70
8
 71
3
 72
8
 73
4
 74
0
 40
0
 40
0
 40
0
 40
0
 40
1
 40
1
 40
1
 40
1
 10
35.975067
 20
8.028008
 30
0.0
 10
35.946799
 20
8.047311
 30
0.0
 10
35.914350
 20
8.063127
 30
0.0
 10
35.886873
 20
8.072106
 30
0.0
  0
SPLINE
  5
17b
100
AcDbEntity
  8
Layer_1
 62
7
100
AcDbSpline
 70
8
 71
3
 72
8
 73
4
 74
0
 40
0
 40
0
 40
0
 40
0
 40
1
 40
1
 40
1
 40
1
 10
35.886873
 20
8.072106
 30
0.0
 10
35.859384
 20
8.081080
 30
0.0
 10
35.829060
 20
8.080911
 30
0.0
 10
35.798678
 20
8.080911
 30
0.0
  0
SPLINE
  5
17c
100
AcDbEntity
  8
Layer_1
 62
7
100
AcDbSpline
 70
8
 71
3
 72
8
 73
4
 74
0
 40
0
 40
0
 40
0
 40
0
 40
1
 40
1
 40
1
 40
1
 10
35.798678
 20
8.080911
 30
0.0
 10
35.744257
 20
8.080911
 30
0.0
 10
35.706380
 20
8.062876
 30
0.0
 10
35.675206
 20
8.027994
 30
0.0
  0
SPLINE
  5
17d
100
AcDbEntity
  8
Layer_1
 62
7
100
AcDbSpline
 70
8
 71
3
 72
8
 73
4
 74
0
 40
0
 40
0
 40
0
 40
0
 40
1
 40
1
 40
1
 40
1
 10
35.675206
 20
8.027994
 30
0.0
 10
35.644031
 20
7.993131
 30
0.0
 10
35.622289
 20
7.948181
 30
0.0
 10
35.622289
 20
7.886882
 30
0.0
  0
SPLINE
  5
17e
100
AcDbEntity
  8
Layer_1
 62
7
100
AcDbSpline
 70
8
 71
3
 72
8
 73
4
 74
0
 40
0
 40
0
 40
0
 40
0
 40
1
 40
1
 40
1
 40
1
 10
35.622289
 20
7.886882
 30
0.0
 10
35.622289
 20
7.825851
 30
0.0
 10
35.644020
 20
7.780649
 30
0.0
 10
35.675206
 20
7.745772
 30
0.0
  0
SPLINE
  5
17f
100
AcDbEntity
  8
Layer_1
 62
7
100
AcDbSpline
 70
8
 71
3
 72
8
 73
4
 74
0
 40
0
 40
0
 40
0
 40
0
 40
1
 40
1
 40
1
 40
1
 10
35.675206
 20
7.745772
 30
0.0
 10
35.706380
 20
7.710894
 30
0.0
 10
35.744257
 20
7.692855
 30
0.0
 10
35.798678
 20
7.692855
 30
0.0
  0
SPLINE
  5
180
100
AcDbEntity
  8
Layer_1
 62
7
100
AcDbSpline
 70
8
 71
3
 72
8
 73
4
 74
0
 40
0
 40
0
 40
0
 40
0
 40
1
 40
1
 40
1
 40
1
 10
35.798678
 20
7.692855
 30
0.0
 10
35.829060
 20
7.692855
 30
0.0
 10
35.859398
 20
7.692716
 30
0.0
 10
35.886873
 20
7.701660
 30
0.0
  0
SPLINE
  5
181
100
AcDbEntity
  8
Layer_1
 62
7
100
AcDbSpline
 70
8
 71
3
 72
8
 73
4
 74
0
 40
0
 40
0
 40
0
 40
0
 40
1
 40
1
 40
1
 40
1
 10
35.886873
 20
7.701660
 30
0.0
 10
35.914361
 20
7.710634
 30
0.0
 10
35.946799
 20
7.726467
 30
0.0
 10
35.975067
 20
7.745757
 30
0.0
  0
LWPOLYLINE
  5
182
100
AcDbEntity
  8
Layer_1
 62
7
100
AcDbPolyline
 90
2
 70
1
 10
35.975067
 20
8.151480
 30
0.0
 10
35.975067
 20
8.028008
 30
0.0
  0
SPLINE
  5
183
100
AcDbEntity
  8
Layer_1
 62
7
100
AcDbSpline
 70
8
 71
3
 72
8
 73
4
 74
0
 40
0
 40
0
 40
0
 40
0
 40
1
 40
1
 40
1
 40
1
 10
35.975067
 20
7.622285
 30
0.0
 10
35.947070
 20
7.607751
 30
0.0
 10
35.917254
 20
7.594401
 30
0.0
 10
35.886873
 20
7.587007
 30
0.0
  0
SPLINE
  5
184
100
AcDbEntity
  8
Layer_1
 62
7
100
AcDbSpline
 70
8
 71
3
 72
8
 73
4
 74
0
 40
0
 40
0
 40
0
 40
0
 40
1
 40
1
 40
1
 40
1
 10
35.886873
 20
7.587007
 30
0.0
 10
35.856491
 20
7.579613
 30
0.0
 10
35.822881
 20
7.578202
 30
0.0
 10
35.789859
 20
7.578202
 30
0.0
  0
SPLINE
  5
185
100
AcDbEntity
  8
Layer_1
 62
7
100
AcDbSpline
 70
8
 71
3
 72
8
 73
4
 74
0
 40
0
 40
0
 40
0
 40
0
 40
1
 40
1
 40
1
 40
1
 10
35.789859
 20
7.578202
 30
0.0
 10
35.691317
 20
7.578202
 30
0.0
 10
35.609326
 20
7.602614
 30
0.0
 10
35.551734
 20
7.657578
 30
0.0
  0
SPLINE
  5
186
100
AcDbEntity
  8
Layer_1
 62
7
100
AcDbSpline
 70
8
 71
3
 72
8
 73
4
 74
0
 40
0
 40
0
 40
0
 40
0
 40
1
 40
1
 40
1
 40
1
 10
35.551734
 20
7.657578
 30
0.0
 10
35.494144
 20
7.712788
 30
0.0
 10
35.472359
 20
7.792567
 30
0.0
 10
35.472359
 20
7.886882
 30
0.0
  0
SPLINE
  5
187
100
AcDbEntity
  8
Layer_1
 62
7
100
AcDbSpline
 70
8
 71
3
 72
8
 73
4
 74
0
 40
0
 40
0
 40
0
 40
0
 40
1
 40
1
 40
1
 40
1
 10
35.472359
 20
7.886882
 30
0.0
 10
35.472359
 20
7.981466
 30
0.0
 10
35.494146
 20
8.052411
 30
0.0
 10
35.551734
 20
8.107369
 30
0.0
  0
SPLINE
  5
188
100
AcDbEntity
  8
Layer_1
 62
7
100
AcDbSpline
 70
8
 71
3
 72
8
 73
4
 74
0
 40
0
 40
0
 40
0
 40
0
 40
1
 40
1
 40
1
 40
1
 10
35.551734
 20
8.107369
 30
0.0
 10
35.609326
 20
8.162579
 30
0.0
 10
35.691317
 20
8.195564
 30
0.0
 10
35.789859
 20
8.195564
 30
0.0
  0
LWPOLYLINE
  5
189
100
AcDbEntity
  8
Layer_1
 62
7
100
AcDbPolyline
 90
2
 70
1
 10
35.975067
 20
7.745757
 30
0.0
 10
35.975067
 20
7.622285
 30
0.0
  0
LWPOLYLINE
  5
18a
100
AcDbEntity
  8
Layer_1
 62
7
100
AcDbPolyline
 90
2
 70
1
 10
35.789859
 20
8.195564
 30
0.0
 10
35.789859
 20
8.195564
 30
0.0
  0
SPLINE
  5
18b
100
AcDbEntity
  8
Layer_1
 62
7
100
AcDbSpline
 70
8
 71
3
 72
8
 73
4
 74
0
 40
0
 40
0
 40
0
 40
0
 40
1
 40
1
 40
1
 40
1
 10
29.448678
 20
8.186743
 30
0.0
 10
29.530840
 20
8.186743
 30
0.0
 10
29.588344
 20
8.167468
 30
0.0
 10
29.625067
 20
8.142647
 30
0.0
  0
SPLINE
  5
18c
100
AcDbEntity
  8
Layer_1
 62
7
100
AcDbSpline
 70
8
 71
3
 72
8
 73
4
 74
0
 40
0
 40
0
 40
0
 40
0
 40
1
 40
1
 40
1
 40
1
 10
29.625067
 20
8.142647
 30
0.0
 10
29.662052
 20
8.117810
 30
0.0
 10
29.677984
 20
8.082683
 30
0.0
 10
29.677984
 20
8.027994
 30
0.0
  0
SPLINE
  5
18d
100
AcDbEntity
  8
Layer_1
 62
7
100
AcDbSpline
 70
8
 71
3
 72
8
 73
4
 74
0
 40
0
 40
0
 40
0
 40
0
 40
1
 40
1
 40
1
 40
1
 10
29.677984
 20
8.027994
 30
0.0
 10
29.677984
 20
7.999204
 30
0.0
 10
29.673819
 20
7.968953
 30
0.0
 10
29.660345
 20
7.948618
 30
0.0
  0
SPLINE
  5
18e
100
AcDbEntity
  8
Layer_1
 62
7
100
AcDbSpline
 70
8
 71
3
 72
8
 73
4
 74
0
 40
0
 40
0
 40
0
 40
0
 40
1
 40
1
 40
1
 40
1
 10
29.660345
 20
7.948618
 30
0.0
 10
29.646872
 20
7.928553
 30
0.0
 10
29.624233
 20
7.914301
 30
0.0
 10
29.598609
 20
7.904522
 30
0.0
  0
SPLINE
  5
18f
100
AcDbEntity
  8
Layer_1
 62
7
100
AcDbSpline
 70
8
 71
3
 72
8
 73
4
 74
0
 40
0
 40
0
 40
0
 40
0
 40
1
 40
1
 40
1
 40
1
 10
29.598609
 20
7.904522
 30
0.0
 10
29.631366
 20
7.895011
 30
0.0
 10
29.660020
 20
7.877231
 30
0.0
 10
29.677984
 20
7.851604
 30
0.0
  0
SPLINE
  5
190
100
AcDbEntity
  8
Layer_1
 62
7
100
AcDbSpline
 70
8
 71
3
 72
8
 73
4
 74
0
 40
0
 40
0
 40
0
 40
0
 40
1
 40
1
 40
1
 40
1
 10
29.677984
 20
7.851604
 30
0.0
 10
29.695947
 20
7.825979
 30
0.0
 10
29.704442
 20
7.800655
 30
0.0
 10
29.704442
 20
7.763410
 30
0.0
  0
SPLINE
  5
191
100
AcDbEntity
  8
Layer_1
 62
7
100
AcDbSpline
 70
8
 71
3
 72
8
 73
4
 74
0
 40
0
 40
0
 40
0
 40
0
 40
1
 40
1
 40
1
 40
1
 10
29.704442
 20
7.763410
 30
0.0
 10
29.704442
 20
7.706354
 30
0.0
 10
29.681277
 20
7.659118
 30
0.0
 10
29.642706
 20
7.631119
 30
0.0
  0
SPLINE
  5
192
100
AcDbEntity
  8
Layer_1
 62
7
100
AcDbSpline
 70
8
 71
3
 72
8
 73
4
 74
0
 40
0
 40
0
 40
0
 40
0
 40
1
 40
1
 40
1
 40
1
 10
29.642706
 20
7.631119
 30
0.0
 10
29.604135
 20
7.603122
 30
0.0
 10
29.545043
 20
7.587021
 30
0.0
 10
29.466317
 20
7.587021
 30
0.0
  0
LWPOLYLINE
  5
193
100
AcDbEntity
  8
Layer_1
 62
7
100
AcDbPolyline
 90
2
 70
1
 10
29.219373
 20
8.186743
 30
0.0
 10
29.448678
 20
8.186743
 30
0.0
  0
LWPOLYLINE
  5
194
100
AcDbEntity
  8
Layer_1
 62
7
100
AcDbPolyline
 90
3
 70
1
 10
29.466317
 20
7.587021
 30
0.0
 10
29.219373
 20
7.587021
 30
0.0
 10
29.219373
 20
8.186743
 30
0.0
  0
LWPOLYLINE
  5
195
100
AcDbEntity
  8
Layer_1
 62
7
100
AcDbPolyline
 90
13
 70
1
 10
29.836734
 20
8.186743
 30
0.0
 10
30.242428
 20
8.186743
 30
0.0
 10
30.242428
 20
8.063271
 30
0.0
 10
29.986664
 20
8.063271
 30
0.0
 10
29.986664
 20
7.957439
 30
0.0
 10
30.233609
 20
7.957439
 30
0.0
 10
30.233609
 20
7.842786
 30
0.0
 10
29.986664
 20
7.842786
 30
0.0
 10
29.986664
 20
7.710493
 30
0.0
 10
30.251247
 20
7.710493
 30
0.0
 10
30.251247
 20
7.587021
 30
0.0
 10
29.836734
 20
7.587021
 30
0.0
 10
29.836734
 20
8.186743
 30
0.0
  0
SPLINE
  5
196
100
AcDbEntity
  8
Layer_1
 62
7
100
AcDbSpline
 70
8
 71
3
 72
8
 73
4
 74
0
 40
0
 40
0
 40
0
 40
0
 40
1
 40
1
 40
1
 40
1
 10
30.621664
 20
8.186743
 30
0.0
 10
30.699598
 20
8.186743
 30
0.0
 10
30.753039
 20
8.168795
 30
0.0
 10
30.789234
 20
8.142647
 30
0.0
  0
SPLINE
  5
197
100
AcDbEntity
  8
Layer_1
 62
7
100
AcDbSpline
 70
8
 71
3
 72
8
 73
4
 74
0
 40
0
 40
0
 40
0
 40
0
 40
1
 40
1
 40
1
 40
1
 10
30.789234
 20
8.142647
 30
0.0
 10
30.825690
 20
8.116485
 30
0.0
 10
30.850968
 20
8.075709
 30
0.0
 10
30.850970
 20
8.019175
 30
0.0
  0
SPLINE
  5
198
100
AcDbEntity
  8
Layer_1
 62
7
100
AcDbSpline
 70
8
 71
3
 72
8
 73
4
 74
0
 40
0
 40
0
 40
0
 40
0
 40
1
 40
1
 40
1
 40
1
 10
30.850970
 20
8.019175
 30
0.0
 10
30.850968
 20
7.980069
 30
0.0
 10
30.834714
 20
7.947258
 30
0.0
 10
30.815692
 20
7.922160
 30
0.0
  0
SPLINE
  5
199
100
AcDbEntity
  8
Layer_1
 62
7
100
AcDbSpline
 70
8
 71
3
 72
8
 73
4
 74
0
 40
0
 40
0
 40
0
 40
0
 40
1
 40
1
 40
1
 40
1
 10
30.815692
 20
7.922160
 30
0.0
 10
30.796936
 20
7.897071
 30
0.0
 10
30.774359
 20
7.881125
 30
0.0
 10
30.736317
 20
7.869244
 30
0.0
  0
SPLINE
  5
19a
100
AcDbEntity
  8
Layer_1
 62
7
100
AcDbSpline
 70
8
 71
3
 72
8
 73
4
 74
0
 40
0
 40
0
 40
0
 40
0
 40
1
 40
1
 40
1
 40
1
 10
30.736317
 20
7.869244
 30
0.0
 10
30.757187
 20
7.864474
 30
0.0
 10
30.772854
 20
7.850871
 30
0.0
 10
30.789234
 20
7.833967
 30
0.0
  0
SPLINE
  5
19b
100
AcDbEntity
  8
Layer_1
 62
7
100
AcDbSpline
 70
8
 71
3
 72
8
 73
4
 74
0
 40
0
 40
0
 40
0
 40
0
 40
1
 40
1
 40
1
 40
1
 10
30.789234
 20
7.833967
 30
0.0
 10
30.805876
 20
7.817315
 30
0.0
 10
30.825243
 20
7.788678
 30
0.0
 10
30.842150
 20
7.754591
 30
0.0
  0
LWPOLYLINE
  5
19c
100
AcDbEntity
  8
Layer_1
 62
7
100
AcDbPolyline
 90
2
 70
1
 10
30.392359
 20
8.186743
 30
0.0
 10
30.621664
 20
8.186743
 30
0.0
  0
SPLINE
  5
19d
100
AcDbEntity
  8
Layer_1
 62
7
100
AcDbSpline
 70
8
 71
3
 72
8
 73
4
 74
0
 40
0
 40
0
 40
0
 40
0
 40
1
 40
1
 40
1
 40
1
 10
30.692220
 20
7.736951
 30
0.0
 10
30.677688
 20
7.766543
 30
0.0
 10
30.663181
 20
7.787850
 30
0.0
 10
30.648122
 20
7.798687
 30
0.0
  0
SPLINE
  5
19e
100
AcDbEntity
  8
Layer_1
 62
7
100
AcDbSpline
 70
8
 71
3
 72
8
 73
4
 74
0
 40
0
 40
0
 40
0
 40
0
 40
1
 40
1
 40
1
 40
1
 10
30.648122
 20
7.798687
 30
0.0
 10
30.633328
 20
7.809525
 30
0.0
 10
30.611219
 20
7.816327
 30
0.0
 10
30.586386
 20
7.816327
 30
0.0
  0
LWPOLYLINE
  5
19f
100
AcDbEntity
  8
Layer_1
 62
7
100
AcDbPolyline
 90
4
 70
1
 10
30.842150
 20
7.754591
 30
0.0
 10
30.921525
 20
7.587021
 30
0.0
 10
30.762775
 20
7.587021
 30
0.0
 10
30.692220
 20
7.736951
 30
0.0
  0
LWPOLYLINE
  5
1a0
100
AcDbEntity
  8
Layer_1
 62
7
100
AcDbPolyline
 90
5
 70
1
 10
30.586386
 20
7.816327
 30
0.0
 10
30.542289
 20
7.816327
 30
0.0
 10
30.542289
 20
7.587021
 30
0.0
 10
30.392359
 20
7.587021
 30
0.0
 10
30.392359
 20
8.186743
 30
0.0
  0
LWPOLYLINE
  5
1a1
100
AcDbEntity
  8
Layer_1
 62
7
100
AcDbPolyline
 90
9
 70
1
 10
32.217984
 20
8.186743
 30
0.0
 10
32.764789
 20
8.186743
 30
0.0
 10
32.764789
 20
8.063271
 30
0.0
 10
32.570762
 20
8.063271
 30
0.0
 10
32.570762
 20
7.587021
 30
0.0
 10
32.412011
 20
7.587021
 30
0.0
 10
32.412011
 20
8.063271
 30
0.0
 10
32.217984
 20
8.063271
 30
0.0
 10
32.217984
 20
8.186743
 30
0.0
  0
LWPOLYLINE
  5
1a2
100
AcDbEntity
  8
Layer_1
 62
7
100
AcDbPolyline
 90
13
 70
1
 10
32.844164
 20
8.186743
 30
0.0
 10
33.249859
 20
8.186743
 30
0.0
 10
33.249859
 20
8.063271
 30
0.0
 10
32.994095
 20
8.063271
 30
0.0
 10
32.994095
 20
7.957439
 30
0.0
 10
33.241039
 20
7.957439
 30
0.0
 10
33.241039
 20
7.842786
 30
0.0
 10
32.994095
 20
7.842786
 30
0.0
 10
32.994095
 20
7.710493
 30
0.0
 10
33.258678
 20
7.710493
 30
0.0
 10
33.258678
 20
7.587021
 30
0.0
 10
32.844164
 20
7.587021
 30
0.0
 10
32.844164
 20
8.186743
 30
0.0
  0
SPLINE
  5
1a3
100
AcDbEntity
  8
Layer_1
 62
7
100
AcDbSpline
 70
8
 71
3
 72
8
 73
4
 74
0
 40
0
 40
0
 40
0
 40
0
 40
1
 40
1
 40
1
 40
1
 10
33.629094
 20
8.186743
 30
0.0
 10
33.707027
 20
8.186743
 30
0.0
 10
33.760473
 20
8.168795
 30
0.0
 10
33.796664
 20
8.142647
 30
0.0
  0
SPLINE
  5
1a4
100
AcDbEntity
  8
Layer_1
 62
7
100
AcDbSpline
 70
8
 71
3
 72
8
 73
4
 74
0
 40
0
 40
0
 40
0
 40
0
 40
1
 40
1
 40
1
 40
1
 10
33.796664
 20
8.142647
 30
0.0
 10
33.833122
 20
8.116485
 30
0.0
 10
33.858400
 20
8.075709
 30
0.0
 10
33.858400
 20
8.019175
 30
0.0
  0
SPLINE
  5
1a5
100
AcDbEntity
  8
Layer_1
 62
7
100
AcDbSpline
 70
8
 71
3
 72
8
 73
4
 74
0
 40
0
 40
0
 40
0
 40
0
 40
1
 40
1
 40
1
 40
1
 10
33.858400
 20
8.019175
 30
0.0
 10
33.858400
 20
7.980069
 30
0.0
 10
33.842144
 20
7.947258
 30
0.0
 10
33.823123
 20
7.922160
 30
0.0
  0
SPLINE
  5
1a6
100
AcDbEntity
  8
Layer_1
 62
7
100
AcDbSpline
 70
8
 71
3
 72
8
 73
4
 74
0
 40
0
 40
0
 40
0
 40
0
 40
1
 40
1
 40
1
 40
1
 10
33.823123
 20
7.922160
 30
0.0
 10
33.804355
 20
7.897071
 30
0.0
 10
33.781788
 20
7.881125
 30
0.0
 10
33.743747
 20
7.869244
 30
0.0
  0
SPLINE
  5
1a7
100
AcDbEntity
  8
Layer_1
 62
7
100
AcDbSpline
 70
8
 71
3
 72
8
 73
4
 74
0
 40
0
 40
0
 40
0
 40
0
 40
1
 40
1
 40
1
 40
1
 10
33.743747
 20
7.869244
 30
0.0
 10
33.764603
 20
7.864474
 30
0.0
 10
33.780284
 20
7.850871
 30
0.0
 10
33.796664
 20
7.833967
 30
0.0
  0
SPLINE
  5
1a8
100
AcDbEntity
  8
Layer_1
 62
7
100
AcDbSpline
 70
8
 71
3
 72
8
 73
4
 74
0
 40
0
 40
0
 40
0
 40
0
 40
1
 40
1
 40
1
 40
1
 10
33.796664
 20
7.833967
 30
0.0
 10
33.813315
 20
7.817315
 30
0.0
 10
33.832673
 20
7.788678
 30
0.0
 10
33.849581
 20
7.754591
 30
0.0
  0
LWPOLYLINE
  5
1a9
100
AcDbEntity
  8
Layer_1
 62
7
100
AcDbPolyline
 90
2
 70
1
 10
33.399790
 20
8.186743
 30
0.0
 10
33.629094
 20
8.186743
 30
0.0
  0
SPLINE
  5
1aa
100
AcDbEntity
  8
Layer_1
 62
7
100
AcDbSpline
 70
8
 71
3
 72
8
 73
4
 74
0
 40
0
 40
0
 40
0
 40
0
 40
1
 40
1
 40
1
 40
1
 10
33.699651
 20
7.736951
 30
0.0
 10
33.685116
 20
7.766543
 30
0.0
 10
33.661793
 20
7.787850
 30
0.0
 10
33.646734
 20
7.798687
 30
0.0
  0
SPLINE
  5
1ab
100
AcDbEntity
  8
Layer_1
 62
7
100
AcDbSpline
 70
8
 71
3
 72
8
 73
4
 74
0
 40
0
 40
0
 40
0
 40
0
 40
1
 40
1
 40
1
 40
1
 10
33.646734
 20
7.798687
 30
0.0
 10
33.631945
 20
7.809525
 30
0.0
 10
33.618653
 20
7.816327
 30
0.0
 10
33.593817
 20
7.816327
 30
0.0
  0
LWPOLYLINE
  5
1ac
100
AcDbEntity
  8
Layer_1
 62
7
100
AcDbPolyline
 90
4
 70
1
 10
33.849581
 20
7.754591
 30
0.0
 10
33.928956
 20
7.587021
 30
0.0
 10
33.770206
 20
7.587021
 30
0.0
 10
33.699651
 20
7.736951
 30
0.0
  0
LWPOLYLINE
  5
1ad
100
AcDbEntity
  8
Layer_1
 62
7
100
AcDbPolyline
 90
5
 70
1
 10
33.593817
 20
7.816327
 30
0.0
 10
33.549720
 20
7.816327
 30
0.0
 10
33.549720
 20
7.587021
 30
0.0
 10
33.399790
 20
7.587021
 30
0.0
 10
33.399790
 20
8.186743
 30
0.0
  0
SPLINE
  5
1ae
100
AcDbEntity
  8
Layer_1
 62
7
100
AcDbSpline
 70
8
 71
3
 72
8
 73
4
 74
0
 40
0
 40
0
 40
0
 40
0
 40
1
 40
1
 40
1
 40
1
 10
34.255275
 20
8.186743
 30
0.0
 10
34.333208
 20
8.186743
 30
0.0
 10
34.386653
 20
8.168795
 30
0.0
 10
34.422845
 20
8.142647
 30
0.0
  0
SPLINE
  5
1af
100
AcDbEntity
  8
Layer_1
 62
7
100
AcDbSpline
 70
8
 71
3
 72
8
 73
4
 74
0
 40
0
 40
0
 40
0
 40
0
 40
1
 40
1
 40
1
 40
1
 10
34.422845
 20
8.142647
 30
0.0
 10
34.459303
 20
8.116485
 30
0.0
 10
34.475762
 20
8.075709
 30
0.0
 10
34.475762
 20
8.019175
 30
0.0
  0
SPLINE
  5
1b0
100
AcDbEntity
  8
Layer_1
 62
7
100
AcDbSpline
 70
8
 71
3
 72
8
 73
4
 74
0
 40
0
 40
0
 40
0
 40
0
 40
1
 40
1
 40
1
 40
1
 10
34.475762
 20
8.019175
 30
0.0
 10
34.475762
 20
7.980069
 30
0.0
 10
34.468338
 20
7.947258
 30
0.0
 10
34.449317
 20
7.922160
 30
0.0
  0
SPLINE
  5
1b1
100
AcDbEntity
  8
Layer_1
 62
7
100
AcDbSpline
 70
8
 71
3
 72
8
 73
4
 74
0
 40
0
 40
0
 40
0
 40
0
 40
1
 40
1
 40
1
 40
1
 10
34.449317
 20
7.922160
 30
0.0
 10
34.430550
 20
7.897071
 30
0.0
 10
34.399164
 20
7.881125
 30
0.0
 10
34.361123
 20
7.869244
 30
0.0
  0
SPLINE
  5
1b2
100
AcDbEntity
  8
Layer_1
 62
7
100
AcDbSpline
 70
8
 71
3
 72
8
 73
4
 74
0
 40
0
 40
0
 40
0
 40
0
 40
1
 40
1
 40
1
 40
1
 10
34.361123
 20
7.869244
 30
0.0
 10
34.381979
 20
7.864474
 30
0.0
 10
34.406479
 20
7.850871
 30
0.0
 10
34.422859
 20
7.833967
 30
0.0
  0
SPLINE
  5
1b3
100
AcDbEntity
  8
Layer_1
 62
7
100
AcDbSpline
 70
8
 71
3
 72
8
 73
4
 74
0
 40
0
 40
0
 40
0
 40
0
 40
1
 40
1
 40
1
 40
1
 10
34.422859
 20
7.833967
 30
0.0
 10
34.439510
 20
7.817315
 30
0.0
 10
34.458868
 20
7.788678
 30
0.0
 10
34.475776
 20
7.754591
 30
0.0
  0
LWPOLYLINE
  5
1b4
100
AcDbEntity
  8
Layer_1
 62
7
100
AcDbPolyline
 90
2
 70
1
 10
34.017150
 20
8.186743
 30
0.0
 10
34.255275
 20
8.186743
 30
0.0
  0
SPLINE
  5
1b5
100
AcDbEntity
  8
Layer_1
 62
7
100
AcDbSpline
 70
8
 71
3
 72
8
 73
4
 74
0
 40
0
 40
0
 40
0
 40
0
 40
1
 40
1
 40
1
 40
1
 10
34.317025
 20
7.736951
 30
0.0
 10
34.302491
 20
7.766543
 30
0.0
 10
34.287988
 20
7.787850
 30
0.0
 10
34.272928
 20
7.798687
 30
0.0
  0
SPLINE
  5
1b6
100
AcDbEntity
  8
Layer_1
 62
7
100
AcDbSpline
 70
8
 71
3
 72
8
 73
4
 74
0
 40
0
 40
0
 40
0
 40
0
 40
1
 40
1
 40
1
 40
1
 10
34.272928
 20
7.798687
 30
0.0
 10
34.258140
 20
7.809525
 30
0.0
 10
34.244848
 20
7.816327
 30
0.0
 10
34.220011
 20
7.816327
 30
0.0
  0
LWPOLYLINE
  5
1b7
100
AcDbEntity
  8
Layer_1
 62
7
100
AcDbPolyline
 90
4
 70
1
 10
34.475776
 20
7.754591
 30
0.0
 10
34.555150
 20
7.587021
 30
0.0
 10
34.396400
 20
7.587021
 30
0.0
 10
34.317025
 20
7.736951
 30
0.0
  0
LWPOLYLINE
  5
1b8
100
AcDbEntity
  8
Layer_1
 62
7
100
AcDbPolyline
 90
5
 70
1
 10
34.220011
 20
7.816327
 30
0.0
 10
34.175915
 20
7.816327
 30
0.0
 10
34.175915
 20
7.587021
 30
0.0
 10
34.017164
 20
7.587021
 30
0.0
 10
34.017150
 20
8.186743
 30
0.0
  0
LWPOLYLINE
  5
1b9
100
AcDbEntity
  8
Layer_1
 62
7
100
AcDbPolyline
 90
13
 70
1
 10
34.643331
 20
8.186743
 30
0.0
 10
35.057845
 20
8.186743
 30
0.0
 10
35.057845
 20
8.063271
 30
0.0
 10
34.793261
 20
8.063271
 30
0.0
 10
34.793261
 20
7.957439
 30
0.0
 10
35.040206
 20
7.957439
 30
0.0
 10
35.040206
 20
7.842786
 30
0.0
 10
34.793261
 20
7.842786
 30
0.0
 10
34.793261
 20
7.710493
 30
0.0
 10
35.066664
 20
7.710493
 30
0.0
 10
35.066664
 20
7.587021
 30
0.0
 10
34.643331
 20
7.587021
 30
0.0
 10
34.643331
 20
8.186743
 30
0.0
  0
LWPOLYLINE
  5
1ba
100
AcDbEntity
  8
Layer_1
 62
7
100
AcDbPolyline
 90
5
 70
1
 10
35.198956
 20
8.186743
 30
0.0
 10
35.348886
 20
8.186743
 30
0.0
 10
35.348886
 20
7.587021
 30
0.0
 10
35.198956
 20
7.587021
 30
0.0
 10
35.198956
 20
8.186743
 30
0.0
  0
SPLINE
  5
1bb
100
AcDbEntity
  8
Layer_1
 62
7
100
AcDbSpline
 70
8
 71
3
 72
8
 73
4
 74
0
 40
0
 40
0
 40
0
 40
0
 40
1
 40
1
 40
1
 40
1
 10
28.796039
 20
8.080911
 30
0.0
 10
28.749542
 20
8.080911
 30
0.0
 10
28.715830
 20
8.062341
 30
0.0
 10
28.690206
 20
8.027994
 30
0.0
  0
SPLINE
  5
1bc
100
AcDbEntity
  8
Layer_1
 62
7
100
AcDbSpline
 70
8
 71
3
 72
8
 73
4
 74
0
 40
0
 40
0
 40
0
 40
0
 40
1
 40
1
 40
1
 40
1
 10
28.690206
 20
8.027994
 30
0.0
 10
28.664580
 20
7.993653
 30
0.0
 10
28.646108
 20
7.949237
 30
0.0
 10
28.646108
 20
7.886882
 30
0.0
  0
SPLINE
  5
1bd
100
AcDbEntity
  8
Layer_1
 62
7
100
AcDbSpline
 70
8
 71
3
 72
8
 73
4
 74
0
 40
0
 40
0
 40
0
 40
0
 40
1
 40
1
 40
1
 40
1
 10
28.646108
 20
7.886882
 30
0.0
 10
28.646108
 20
7.824807
 30
0.0
 10
28.664580
 20
7.780112
 30
0.0
 10
28.690206
 20
7.745772
 30
0.0
  0
SPLINE
  5
1be
100
AcDbEntity
  8
Layer_1
 62
7
100
AcDbSpline
 70
8
 71
3
 72
8
 73
4
 74
0
 40
0
 40
0
 40
0
 40
0
 40
1
 40
1
 40
1
 40
1
 10
28.690206
 20
7.745772
 30
0.0
 10
28.715829
 20
7.711430
 30
0.0
 10
28.749542
 20
7.692855
 30
0.0
 10
28.796039
 20
7.692855
 30
0.0
  0
SPLINE
  5
1bf
100
AcDbEntity
  8
Layer_1
 62
7
100
AcDbSpline
 70
8
 71
3
 72
8
 73
4
 74
0
 40
0
 40
0
 40
0
 40
0
 40
1
 40
1
 40
1
 40
1
 10
28.796039
 20
7.692855
 30
0.0
 10
28.842800
 20
7.692855
 30
0.0
 10
28.876246
 20
7.711425
 30
0.0
 10
28.901873
 20
7.745772
 30
0.0
  0
SPLINE
  5
1c0
100
AcDbEntity
  8
Layer_1
 62
7
100
AcDbSpline
 70
8
 71
3
 72
8
 73
4
 74
0
 40
0
 40
0
 40
0
 40
0
 40
1
 40
1
 40
1
 40
1
 10
28.901873
 20
7.745772
 30
0.0
 10
28.927496
 20
7.780112
 30
0.0
 10
28.945970
 20
7.824807
 30
0.0
 10
28.945970
 20
7.886882
 30
0.0
  0
SPLINE
  5
1c1
100
AcDbEntity
  8
Layer_1
 62
7
100
AcDbSpline
 70
8
 71
3
 72
8
 73
4
 74
0
 40
0
 40
0
 40
0
 40
0
 40
1
 40
1
 40
1
 40
1
 10
28.945970
 20
7.886882
 30
0.0
 10
28.945970
 20
7.949237
 30
0.0
 10
28.927496
 20
7.993653
 30
0.0
 10
28.901873
 20
8.027994
 30
0.0
  0
SPLINE
  5
1c2
100
AcDbEntity
  8
Layer_1
 62
7
100
AcDbSpline
 70
8
 71
3
 72
8
 73
4
 74
0
 40
0
 40
0
 40
0
 40
0
 40
1
 40
1
 40
1
 40
1
 10
28.901873
 20
8.027994
 30
0.0
 10
28.876247
 20
8.062334
 30
0.0
 10
28.842800
 20
8.080911
 30
0.0
 10
28.796039
 20
8.080911
 30
0.0
  0
LWPOLYLINE
  5
1c3
100
AcDbEntity
  8
Layer_1
 62
7
100
AcDbPolyline
 90
13
 70
1
 10
36.098539
 20
8.186743
 30
0.0
 10
36.248470
 20
8.186743
 30
0.0
 10
36.248470
 20
7.957439
 30
0.0
 10
36.477775
 20
7.957439
 30
0.0
 10
36.477775
 20
8.186743
 30
0.0
 10
36.627706
 20
8.186743
 30
0.0
 10
36.627706
 20
7.587021
 30
0.0
 10
36.477775
 20
7.587021
 30
0.0
 10
36.477775
 20
7.842786
 30
0.0
 10
36.248470
 20
7.842786
 30
0.0
 10
36.248470
 20
7.587021
 30
0.0
 10
36.098539
 20
7.587021
 30
0.0
 10
36.098539
 20
8.186743
 30
0.0
  0
LWPOLYLINE
  5
1c4
100
AcDbEntity
  8
Layer_1
 62
7
100
AcDbPolyline
 90
2
 70
1
 10
28.796039
 20
8.080911
 30
0.0
 10
28.796039
 20
8.080911
 30
0.0
  0
SPLINE
  5
1c5
100
AcDbEntity
  8
Layer_1
 62
7
100
AcDbSpline
 70
8
 71
3
 72
8
 73
4
 74
0
 40
0
 40
0
 40
0
 40
0
 40
1
 40
1
 40
1
 40
1
 10
29.448678
 20
7.957439
 30
0.0
 10
29.472718
 20
7.957439
 30
0.0
 10
29.497997
 20
7.955745
 30
0.0
 10
29.510414
 20
7.966243
 30
0.0
  0
SPLINE
  5
1c6
100
AcDbEntity
  8
Layer_1
 62
7
100
AcDbSpline
 70
8
 71
3
 72
8
 73
4
 74
0
 40
0
 40
0
 40
0
 40
0
 40
1
 40
1
 40
1
 40
1
 10
29.510414
 20
7.966243
 30
0.0
 10
29.522829
 20
7.976826
 30
0.0
 10
29.528051
 20
7.998558
 30
0.0
 10
29.528053
 20
8.019160
 30
0.0
  0
SPLINE
  5
1c7
100
AcDbEntity
  8
Layer_1
 62
7
100
AcDbSpline
 70
8
 71
3
 72
8
 73
4
 74
0
 40
0
 40
0
 40
0
 40
0
 40
1
 40
1
 40
1
 40
1
 10
29.528053
 20
8.019160
 30
0.0
 10
29.528052
 20
8.039508
 30
0.0
 10
29.522829
 20
8.052688
 30
0.0
 10
29.510414
 20
8.063257
 30
0.0
  0
SPLINE
  5
1c8
100
AcDbEntity
  8
Layer_1
 62
7
100
AcDbSpline
 70
8
 71
3
 72
8
 73
4
 74
0
 40
0
 40
0
 40
0
 40
0
 40
1
 40
1
 40
1
 40
1
 10
29.510414
 20
8.063257
 30
0.0
 10
29.497997
 20
8.074095
 30
0.0
 10
29.472718
 20
8.080896
 30
0.0
 10
29.448678
 20
8.080896
 30
0.0
  0
LWPOLYLINE
  5
1c9
100
AcDbEntity
  8
Layer_1
 62
7
100
AcDbPolyline
 90
3
 70
1
 10
29.369303
 20
8.080911
 30
0.0
 10
29.369303
 20
7.957439
 30
0.0
 10
29.448678
 20
7.957439
 30
0.0
  0
SPLINE
  5
1ca
100
AcDbEntity
  8
Layer_1
 62
7
100
AcDbSpline
 70
8
 71
3
 72
8
 73
4
 74
0
 40
0
 40
0
 40
0
 40
0
 40
1
 40
1
 40
1
 40
1
 10
31.283123
 20
8.080911
 30
0.0
 10
31.236625
 20
8.080911
 30
0.0
 10
31.202914
 20
8.062341
 30
0.0
 10
31.177289
 20
8.027994
 30
0.0
  0
SPLINE
  5
1cb
100
AcDbEntity
  8
Layer_1
 62
7
100
AcDbSpline
 70
8
 71
3
 72
8
 73
4
 74
0
 40
0
 40
0
 40
0
 40
0
 40
1
 40
1
 40
1
 40
1
 10
31.177289
 20
8.027994
 30
0.0
 10
31.151664
 20
7.993653
 30
0.0
 10
31.133192
 20
7.949237
 30
0.0
 10
31.133192
 20
7.886882
 30
0.0
  0
SPLINE
  5
1cc
100
AcDbEntity
  8
Layer_1
 62
7
100
AcDbSpline
 70
8
 71
3
 72
8
 73
4
 74
0
 40
0
 40
0
 40
0
 40
0
 40
1
 40
1
 40
1
 40
1
 10
31.133192
 20
7.886882
 30
0.0
 10
31.133192
 20
7.824807
 30
0.0
 10
31.151664
 20
7.780112
 30
0.0
 10
31.177289
 20
7.745772
 30
0.0
  0
SPLINE
  5
1cd
100
AcDbEntity
  8
Layer_1
 62
7
100
AcDbSpline
 70
8
 71
3
 72
8
 73
4
 74
0
 40
0
 40
0
 40
0
 40
0
 40
1
 40
1
 40
1
 40
1
 10
31.177289
 20
7.745772
 30
0.0
 10
31.202915
 20
7.711430
 30
0.0
 10
31.236625
 20
7.692855
 30
0.0
 10
31.283123
 20
7.692855
 30
0.0
  0
SPLINE
  5
1ce
100
AcDbEntity
  8
Layer_1
 62
7
100
AcDbSpline
 70
8
 71
3
 72
8
 73
4
 74
0
 40
0
 40
0
 40
0
 40
0
 40
1
 40
1
 40
1
 40
1
 10
31.283123
 20
7.692855
 30
0.0
 10
31.329883
 20
7.692855
 30
0.0
 10
31.363329
 20
7.711425
 30
0.0
 10
31.388956
 20
7.745772
 30
0.0
  0
SPLINE
  5
1cf
100
AcDbEntity
  8
Layer_1
 62
7
100
AcDbSpline
 70
8
 71
3
 72
8
 73
4
 74
0
 40
0
 40
0
 40
0
 40
0
 40
1
 40
1
 40
1
 40
1
 10
31.388956
 20
7.745772
 30
0.0
 10
31.414582
 20
7.780112
 30
0.0
 10
31.433053
 20
7.824807
 30
0.0
 10
31.433053
 20
7.886882
 30
0.0
  0
SPLINE
  5
1d0
100
AcDbEntity
  8
Layer_1
 62
7
100
AcDbSpline
 70
8
 71
3
 72
8
 73
4
 74
0
 40
0
 40
0
 40
0
 40
0
 40
1
 40
1
 40
1
 40
1
 10
31.433053
 20
7.886882
 30
0.0
 10
31.433053
 20
7.949237
 30
0.0
 10
31.414582
 20
7.993653
 30
0.0
 10
31.388956
 20
8.027994
 30
0.0
  0
SPLINE
  5
1d1
100
AcDbEntity
  8
Layer_1
 62
7
100
AcDbSpline
 70
8
 71
3
 72
8
 73
4
 74
0
 40
0
 40
0
 40
0
 40
0
 40
1
 40
1
 40
1
 40
1
 10
31.388956
 20
8.027994
 30
0.0
 10
31.363330
 20
8.062334
 30
0.0
 10
31.329883
 20
8.080911
 30
0.0
 10
31.283123
 20
8.080911
 30
0.0
  0
LWPOLYLINE
  5
1d2
100
AcDbEntity
  8
Layer_1
 62
7
100
AcDbPolyline
 90
2
 70
1
 10
29.448678
 20
8.080896
 30
0.0
 10
29.369303
 20
8.080911
 30
0.0
  0
LWPOLYLINE
  5
1d3
100
AcDbEntity
  8
Layer_1
 62
7
100
AcDbPolyline
 90
2
 70
1
 10
31.283123
 20
8.080911
 30
0.0
 10
31.283123
 20
8.080911
 30
0.0
  0
SPLINE
  5
1d4
100
AcDbEntity
  8
Layer_1
 62
7
100
AcDbSpline
 70
8
 71
3
 72
8
 73
4
 74
0
 40
0
 40
0
 40
0
 40
0
 40
1
 40
1
 40
1
 40
1
 10
30.604025
 20
7.922175
 30
0.0
 10
30.635993
 20
7.922175
 30
0.0
 10
30.660843
 20
7.927932
 30
0.0
 10
30.674581
 20
7.939813
 30
0.0
  0
SPLINE
  5
1d5
100
AcDbEntity
  8
Layer_1
 62
7
100
AcDbSpline
 70
8
 71
3
 72
8
 73
4
 74
0
 40
0
 40
0
 40
0
 40
0
 40
1
 40
1
 40
1
 40
1
 10
30.674581
 20
7.939813
 30
0.0
 10
30.688582
 20
7.951695
 30
0.0
 10
30.692220
 20
7.965524
 30
0.0
 10
30.692220
 20
7.992730
 30
0.0
  0
SPLINE
  5
1d6
100
AcDbEntity
  8
Layer_1
 62
7
100
AcDbSpline
 70
8
 71
3
 72
8
 73
4
 74
0
 40
0
 40
0
 40
0
 40
0
 40
1
 40
1
 40
1
 40
1
 10
30.692220
 20
7.992730
 30
0.0
 10
30.692220
 20
8.019682
 30
0.0
 10
30.688582
 20
8.042842
 30
0.0
 10
30.674581
 20
8.054466
 30
0.0
  0
SPLINE
  5
1d7
100
AcDbEntity
  8
Layer_1
 62
7
100
AcDbSpline
 70
8
 71
3
 72
8
 73
4
 74
0
 40
0
 40
0
 40
0
 40
0
 40
1
 40
1
 40
1
 40
1
 10
30.674581
 20
8.054466
 30
0.0
 10
30.660842
 20
8.066094
 30
0.0
 10
30.635993
 20
8.072106
 30
0.0
 10
30.604025
 20
8.072106
 30
0.0
  0
LWPOLYLINE
  5
1d8
100
AcDbEntity
  8
Layer_1
 62
7
100
AcDbPolyline
 90
3
 70
1
 10
30.542289
 20
8.072106
 30
0.0
 10
30.542289
 20
7.922175
 30
0.0
 10
30.604025
 20
7.922175
 30
0.0
  0
LWPOLYLINE
  5
1d9
100
AcDbEntity
  8
Layer_1
 62
7
100
AcDbPolyline
 90
2
 70
1
 10
30.604025
 20
8.072106
 30
0.0
 10
30.542289
 20
8.072106
 30
0.0
  0
SPLINE
  5
1da
100
AcDbEntity
  8
Layer_1
 62
7
100
AcDbSpline
 70
8
 71
3
 72
8
 73
4
 74
0
 40
0
 40
0
 40
0
 40
0
 40
1
 40
1
 40
1
 40
1
 10
33.611456
 20
7.922175
 30
0.0
 10
33.643423
 20
7.922175
 30
0.0
 10
33.668273
 20
7.927932
 30
0.0
 10
33.682011
 20
7.939813
 30
0.0
  0
SPLINE
  5
1db
100
AcDbEntity
  8
Layer_1
 62
7
100
AcDbSpline
 70
8
 71
3
 72
8
 73
4
 74
0
 40
0
 40
0
 40
0
 40
0
 40
1
 40
1
 40
1
 40
1
 10
33.682011
 20
7.939813
 30
0.0
 10
33.696009
 20
7.951695
 30
0.0
 10
33.699651
 20
7.965524
 30
0.0
 10
33.699651
 20
7.992730
 30
0.0
  0
SPLINE
  5
1dc
100
AcDbEntity
  8
Layer_1
 62
7
100
AcDbSpline
 70
8
 71
3
 72
8
 73
4
 74
0
 40
0
 40
0
 40
0
 40
0
 40
1
 40
1
 40
1
 40
1
 10
33.699651
 20
7.992730
 30
0.0
 10
33.699651
 20
8.019682
 30
0.0
 10
33.696009
 20
8.042842
 30
0.0
 10
33.682011
 20
8.054466
 30
0.0
  0
SPLINE
  5
1dd
100
AcDbEntity
  8
Layer_1
 62
7
100
AcDbSpline
 70
8
 71
3
 72
8
 73
4
 74
0
 40
0
 40
0
 40
0
 40
0
 40
1
 40
1
 40
1
 40
1
 10
33.682011
 20
8.054466
 30
0.0
 10
33.668267
 20
8.066094
 30
0.0
 10
33.643423
 20
8.072106
 30
0.0
 10
33.611456
 20
8.072106
 30
0.0
  0
LWPOLYLINE
  5
1de
100
AcDbEntity
  8
Layer_1
 62
7
100
AcDbPolyline
 90
3
 70
1
 10
33.549720
 20
8.072106
 30
0.0
 10
33.549720
 20
7.922175
 30
0.0
 10
33.611456
 20
7.922175
 30
0.0
  0
LWPOLYLINE
  5
1df
100
AcDbEntity
  8
Layer_1
 62
7
100
AcDbPolyline
 90
2
 70
1
 10
33.611456
 20
8.072106
 30
0.0
 10
33.549720
 20
8.072106
 30
0.0
  0
SPLINE
  5
1e0
100
AcDbEntity
  8
Layer_1
 62
7
100
AcDbSpline
 70
8
 71
3
 72
8
 73
4
 74
0
 40
0
 40
0
 40
0
 40
0
 40
1
 40
1
 40
1
 40
1
 10
34.237637
 20
7.922175
 30
0.0
 10
34.269601
 20
7.922175
 30
0.0
 10
34.294454
 20
7.927932
 30
0.0
 10
34.308192
 20
7.939813
 30
0.0
  0
SPLINE
  5
1e1
100
AcDbEntity
  8
Layer_1
 62
7
100
AcDbSpline
 70
8
 71
3
 72
8
 73
4
 74
0
 40
0
 40
0
 40
0
 40
0
 40
1
 40
1
 40
1
 40
1
 10
34.308192
 20
7.939813
 30
0.0
 10
34.322190
 20
7.951695
 30
0.0
 10
34.325831
 20
7.965524
 30
0.0
 10
34.325831
 20
7.992730
 30
0.0
  0
SPLINE
  5
1e2
100
AcDbEntity
  8
Layer_1
 62
7
100
AcDbSpline
 70
8
 71
3
 72
8
 73
4
 74
0
 40
0
 40
0
 40
0
 40
0
 40
1
 40
1
 40
1
 40
1
 10
34.325831
 20
7.992730
 30
0.0
 10
34.325831
 20
8.019682
 30
0.0
 10
34.322189
 20
8.042842
 30
0.0
 10
34.308192
 20
8.054466
 30
0.0
  0
SPLINE
  5
1e3
100
AcDbEntity
  8
Layer_1
 62
7
100
AcDbSpline
 70
8
 71
3
 72
8
 73
4
 74
0
 40
0
 40
0
 40
0
 40
0
 40
1
 40
1
 40
1
 40
1
 10
34.308192
 20
8.054466
 30
0.0
 10
34.294448
 20
8.066094
 30
0.0
 10
34.269601
 20
8.072106
 30
0.0
 10
34.237637
 20
8.072106
 30
0.0
  0
LWPOLYLINE
  5
1e4
100
AcDbEntity
  8
Layer_1
 62
7
100
AcDbPolyline
 90
3
 70
1
 10
34.175901
 20
8.072106
 30
0.0
 10
34.175901
 20
7.922175
 30
0.0
 10
34.237637
 20
7.922175
 30
0.0
  0
LWPOLYLINE
  5
1e5
100
AcDbEntity
  8
Layer_1
 62
7
100
AcDbPolyline
 90
2
 70
1
 10
34.237637
 20
8.072106
 30
0.0
 10
34.175901
 20
8.072106
 30
0.0
  0
SPLINE
  5
1e6
100
AcDbEntity
  8
Layer_1
 62
7
100
AcDbSpline
 70
8
 71
3
 72
8
 73
4
 74
0
 40
0
 40
0
 40
0
 40
0
 40
1
 40
1
 40
1
 40
1
 10
29.457498
 20
7.692869
 30
0.0
 10
29.488143
 20
7.692869
 30
0.0
 10
29.512730
 20
7.697554
 30
0.0
 10
29.528053
 20
7.710507
 30
0.0
  0
SPLINE
  5
1e7
100
AcDbEntity
  8
Layer_1
 62
7
100
AcDbSpline
 70
8
 71
3
 72
8
 73
4
 74
0
 40
0
 40
0
 40
0
 40
0
 40
1
 40
1
 40
1
 40
1
 10
29.528053
 20
7.710507
 30
0.0
 10
29.543637
 20
7.723434
 30
0.0
 10
29.554512
 20
7.746090
 30
0.0
 10
29.554512
 20
7.772245
 30
0.0
  0
SPLINE
  5
1e8
100
AcDbEntity
  8
Layer_1
 62
7
100
AcDbSpline
 70
8
 71
3
 72
8
 73
4
 74
0
 40
0
 40
0
 40
0
 40
0
 40
1
 40
1
 40
1
 40
1
 10
29.554512
 20
7.772245
 30
0.0
 10
29.554512
 20
7.797870
 30
0.0
 10
29.543375
 20
7.821311
 30
0.0
 10
29.528053
 20
7.833981
 30
0.0
  0
SPLINE
  5
1e9
100
AcDbEntity
  8
Layer_1
 62
7
100
AcDbSpline
 70
8
 71
3
 72
8
 73
4
 74
0
 40
0
 40
0
 40
0
 40
0
 40
1
 40
1
 40
1
 40
1
 10
29.528053
 20
7.833981
 30
0.0
 10
29.512731
 20
7.846934
 30
0.0
 10
29.488408
 20
7.851619
 30
0.0
 10
29.457498
 20
7.851619
 30
0.0
  0
LWPOLYLINE
  5
1ea
100
AcDbEntity
  8
Layer_1
 62
7
100
AcDbPolyline
 90
3
 70
1
 10
29.369303
 20
7.851619
 30
0.0
 10
29.369303
 20
7.692869
 30
0.0
 10
29.457498
 20
7.692869
 30
0.0
  0
SPLINE
  5
1eb
100
AcDbEntity
  8
Layer_1
 62
7
100
AcDbSpline
 70
8
 71
3
 72
8
 73
4
 74
0
 40
0
 40
0
 40
0
 40
0
 40
1
 40
1
 40
1
 40
1
 10
28.762151
 20
13.517147
 30
0.0
 10
27.867243
 20
13.470610
 30
0.0
 10
27.108052
 20
12.739454
 30
0.0
 10
27.059998
 20
11.832632
 30
0.0
  0
SPLINE
  5
1ec
100
AcDbEntity
  8
Layer_1
 62
7
100
AcDbSpline
 70
8
 71
3
 72
8
 73
4
 74
0
 40
0
 40
0
 40
0
 40
0
 40
1
 40
1
 40
1
 40
1
 10
27.059998
 20
11.832632
 30
0.0
 10
27.035539
 20
11.444794
 30
0.0
 10
27.067885
 20
11.081114
 30
0.0
 10
27.059998
 20
10.756657
 30
0.0
  0
LWPOLYLINE
  5
1ed
100
AcDbEntity
  8
Layer_1
 62
7
100
AcDbPolyline
 90
2
 70
1
 10
29.457498
 20
7.851619
 30
0.0
 10
29.369303
 20
7.851619
 30
0.0
  0
SPLINE
  5
1ee
100
AcDbEntity
  8
Layer_1
 62
7
100
AcDbSpline
 70
8
 71
3
 72
8
 73
4
 74
0
 40
0
 40
0
 40
0
 40
0
 40
1
 40
1
 40
1
 40
1
 10
27.059998
 20
10.747842
 30
0.0
 10
27.062252
 20
9.868069
 30
0.0
 10
27.049386
 20
8.978884
 30
0.0
 10
27.068817
 20
8.084368
 30
0.0
  0
LWPOLYLINE
  5
1ef
100
AcDbEntity
  8
Layer_1
 62
7
100
AcDbPolyline
 90
2
 70
1
 10
27.059998
 20
10.756657
 30
0.0
 10
27.059998
 20
10.747842
 30
0.0
  0
SPLINE
  5
1f0
100
AcDbEntity
  8
Layer_1
 62
7
100
AcDbSpline
 70
8
 71
3
 72
8
 73
4
 74
0
 40
0
 40
0
 40
0
 40
0
 40
1
 40
1
 40
1
 40
1
 10
27.068817
 20
8.049091
 30
0.0
 10
27.161695
 20
7.179273
 30
0.0
 10
27.886283
 20
6.475883
 30
0.0
 10
28.770970
 20
6.443951
 30
0.0
  0
SPLINE
  5
1f1
100
AcDbEntity
  8
Layer_1
 62
7
100
AcDbSpline
 70
8
 71
3
 72
8
 73
4
 74
0
 40
0
 40
0
 40
0
 40
0
 40
1
 40
1
 40
1
 40
1
 10
28.770970
 20
6.443951
 30
0.0
 10
28.772729
 20
6.443951
 30
0.0
 10
28.778033
 20
6.443951
 30
0.0
 10
28.779790
 20
6.443951
 30
0.0
  0
SPLINE
  5
1f2
100
AcDbEntity
  8
Layer_1
 62
7
100
AcDbSpline
 70
8
 71
3
 72
8
 73
4
 74
0
 40
0
 40
0
 40
0
 40
0
 40
1
 40
1
 40
1
 40
1
 10
28.779790
 20
6.443951
 30
0.0
 10
29.138791
 20
6.426204
 30
0.0
 10
29.474358
 20
6.452105
 30
0.0
 10
29.776387
 20
6.443951
 30
0.0
  0
LWPOLYLINE
  5
1f3
100
AcDbEntity
  8
Layer_1
 62
7
100
AcDbPolyline
 90
3
 70
1
 10
27.068817
 20
8.084368
 30
0.0
 10
27.068817
 20
8.066727
 30
0.0
 10
27.068817
 20
8.049091
 30
0.0
  0
SPLINE
  5
1f4
100
AcDbEntity
  8
Layer_1
 62
7
100
AcDbSpline
 70
8
 71
3
 72
8
 73
4
 74
0
 40
0
 40
0
 40
0
 40
0
 40
1
 40
1
 40
1
 40
1
 10
29.785206
 20
6.443951
 30
0.0
 10
31.977524
 20
6.446959
 30
0.0
 10
34.176704
 20
6.431785
 30
0.0
 10
36.373331
 20
6.443951
 30
0.0
  0
LWPOLYLINE
  5
1f5
100
AcDbEntity
  8
Layer_1
 62
7
100
AcDbPolyline
 90
2
 70
1
 10
29.776387
 20
6.443951
 30
0.0
 10
29.785206
 20
6.443951
 30
0.0
  0
SPLINE
  5
1f6
100
AcDbEntity
  8
Layer_1
 62
7
100
AcDbSpline
 70
8
 71
3
 72
8
 73
4
 74
0
 40
0
 40
0
 40
0
 40
0
 40
1
 40
1
 40
1
 40
1
 10
36.399790
 20
6.452772
 30
0.0
 10
37.262505
 20
6.526279
 30
0.0
 10
37.978160
 20
7.217813
 30
0.0
 10
38.040206
 20
8.093189
 30
0.0
  0
LWPOLYLINE
  5
1f7
100
AcDbEntity
  8
Layer_1
 62
7
100
AcDbPolyline
 90
3
 70
1
 10
36.373331
 20
6.443951
 30
0.0
 10
36.390970
 20
6.443951
 30
0.0
 10
36.399790
 20
6.452772
 30
0.0
  0
SPLINE
  5
1f8
100
AcDbEntity
  8
Layer_1
 62
7
100
AcDbSpline
 70
8
 71
3
 72
8
 73
4
 74
0
 40
0
 40
0
 40
0
 40
0
 40
1
 40
1
 40
1
 40
1
 10
38.049025
 20
8.093189
 30
0.0
 10
38.049164
 20
8.094392
 30
0.0
 10
38.048887
 20
8.100783
 30
0.0
 10
38.049025
 20
8.102005
 30
0.0
  0
SPLINE
  5
1f9
100
AcDbEntity
  8
Layer_1
 62
7
100
AcDbSpline
 70
8
 71
3
 72
8
 73
4
 74
0
 40
0
 40
0
 40
0
 40
0
 40
1
 40
1
 40
1
 40
1
 10
38.049025
 20
8.102005
 30
0.0
 10
38.077764
 20
8.475954
 30
0.0
 10
38.048461
 20
8.810282
 30
0.0
 10
38.057845
 20
9.107420
 30
0.0
  0
LWPOLYLINE
  5
1fa
100
AcDbEntity
  8
Layer_1
 62
7
100
AcDbPolyline
 90
2
 70
1
 10
38.040206
 20
8.093189
 30
0.0
 10
38.049025
 20
8.093189
 30
0.0
  0
SPLINE
  5
1fb
100
AcDbEntity
  8
Layer_1
 62
7
100
AcDbSpline
 70
8
 71
3
 72
8
 73
4
 74
0
 40
0
 40
0
 40
0
 40
0
 40
1
 40
1
 40
1
 40
1
 10
38.057845
 20
9.125061
 30
0.0
 10
38.054083
 20
10.033572
 30
0.0
 10
38.069078
 20
10.952249
 30
0.0
 10
38.049025
 20
11.876725
 30
0.0
  0
LWPOLYLINE
  5
1fc
100
AcDbEntity
  8
Layer_1
 62
7
100
AcDbPolyline
 90
3
 70
1
 10
38.057845
 20
9.107420
 30
0.0
 10
38.057845
 20
9.116241
 30
0.0
 10
38.057845
 20
9.125061
 30
0.0
  0
SPLINE
  5
1fd
100
AcDbEntity
  8
Layer_1
 62
7
100
AcDbSpline
 70
8
 71
3
 72
8
 73
4
 74
0
 40
0
 40
0
 40
0
 40
0
 40
1
 40
1
 40
1
 40
1
 10
38.040206
 20
11.912003
 30
0.0
 10
37.948985
 20
12.768317
 30
0.0
 10
37.239795
 20
13.454140
 30
0.0
 10
36.373331
 20
13.508326
 30
0.0
  0
SPLINE
  5
1fe
100
AcDbEntity
  8
Layer_1
 62
7
100
AcDbSpline
 70
8
 71
3
 72
8
 73
4
 74
0
 40
0
 40
0
 40
0
 40
0
 40
1
 40
1
 40
1
 40
1
 10
36.373331
 20
13.508326
 30
0.0
 10
36.263228
 20
13.516587
 30
0.0
 10
36.153566
 20
13.518290
 30
0.0
 10
36.055831
 20
13.517147
 30
0.0
  0
SPLINE
  5
1ff
100
AcDbEntity
  8
Layer_1
 62
7
100
AcDbSpline
 70
8
 71
3
 72
8
 73
4
 74
0
 40
0
 40
0
 40
0
 40
0
 40
1
 40
1
 40
1
 40
1
 10
36.055831
 20
13.517147
 30
0.0
 10
33.633958
 20
13.511492
 30
0.0
 10
31.205256
 20
13.524713
 30
0.0
 10
28.779790
 20
13.517147
 30
0.0
  0
LWPOLYLINE
  5
200
100
AcDbEntity
  8
Layer_1
 62
7
100
AcDbPolyline
 90
3
 70
1
 10
38.049025
 20
11.876725
 30
0.0
 10
38.049025
 20
11.894366
 30
0.0
 10
38.040206
 20
11.912003
 30
0.0
  0
SPLINE
  5
201
100
AcDbEntity
  8
Layer_1
 62
7
100
AcDbSpline
 70
8
 71
3
 72
8
 73
4
 74
0
 40
0
 40
0
 40
0
 40
0
 40
1
 40
1
 40
1
 40
1
 10
28.779790
 20
13.093810
 30
0.0
 10
31.204805
 20
13.101376
 30
0.0
 10
33.630809
 20
13.088131
 30
0.0
 10
36.055831
 20
13.093810
 30
0.0
  0
SPLINE
  5
202
100
AcDbEntity
  8
Layer_1
 62
7
100
AcDbSpline
 70
8
 71
3
 72
8
 73
4
 74
0
 40
0
 40
0
 40
0
 40
0
 40
1
 40
1
 40
1
 40
1
 10
36.055831
 20
13.093810
 30
0.0
 10
36.151511
 20
13.094967
 30
0.0
 10
36.251435
 20
13.092514
 30
0.0
 10
36.346873
 20
13.084994
 30
0.0
  0
SPLINE
  5
203
100
AcDbEntity
  8
Layer_1
 62
7
100
AcDbSpline
 70
8
 71
3
 72
8
 73
4
 74
0
 40
0
 40
0
 40
0
 40
0
 40
1
 40
1
 40
1
 40
1
 10
36.346873
 20
13.084994
 30
0.0
 10
36.993262
 20
13.047861
 30
0.0
 10
37.557430
 20
12.499866
 30
0.0
 10
37.625692
 20
11.859089
 30
0.0
  0
SPLINE
  5
204
100
AcDbEntity
  8
Layer_1
 62
7
100
AcDbSpline
 70
8
 71
3
 72
8
 73
4
 74
0
 40
0
 40
0
 40
0
 40
0
 40
1
 40
1
 40
1
 40
1
 10
37.625692
 20
11.859089
 30
0.0
 10
37.645513
 20
10.945234
 30
0.0
 10
37.630724
 20
10.030429
 30
0.0
 10
37.634511
 20
9.116241
 30
0.0
  0
SPLINE
  5
205
100
AcDbEntity
  8
Layer_1
 62
7
100
AcDbSpline
 70
8
 71
3
 72
8
 73
4
 74
0
 40
0
 40
0
 40
0
 40
0
 40
1
 40
1
 40
1
 40
1
 10
37.634511
 20
9.116241
 30
0.0
 10
37.624083
 20
8.785620
 30
0.0
 10
37.651377
 20
8.458573
 30
0.0
 10
37.625692
 20
8.128466
 30
0.0
  0
SPLINE
  5
206
100
AcDbEntity
  8
Layer_1
 62
7
100
AcDbSpline
 70
8
 71
3
 72
8
 73
4
 74
0
 40
0
 40
0
 40
0
 40
0
 40
1
 40
1
 40
1
 40
1
 10
37.625692
 20
8.128466
 30
0.0
 10
37.581014
 20
7.478850
 30
0.0
 10
37.018293
 20
6.922243
 30
0.0
 10
36.373331
 20
6.867284
 30
0.0
  0
SPLINE
  5
207
100
AcDbEntity
  8
Layer_1
 62
7
100
AcDbSpline
 70
8
 71
3
 72
8
 73
4
 74
0
 40
0
 40
0
 40
0
 40
0
 40
1
 40
1
 40
1
 40
1
 10
36.373331
 20
6.867284
 30
0.0
 10
34.179510
 20
6.855136
 30
0.0
 10
31.979152
 20
6.870292
 30
0.0
 10
29.785206
 20
6.867284
 30
0.0
  0
SPLINE
  5
208
100
AcDbEntity
  8
Layer_1
 62
7
100
AcDbSpline
 70
8
 71
3
 72
8
 73
4
 74
0
 40
0
 40
0
 40
0
 40
0
 40
1
 40
1
 40
1
 40
1
 10
29.785206
 20
6.867284
 30
0.0
 10
29.455094
 20
6.876197
 30
0.0
 10
29.127285
 20
6.850425
 30
0.0
 10
28.797429
 20
6.867284
 30
0.0
  0
SPLINE
  5
209
100
AcDbEntity
  8
Layer_1
 62
7
100
AcDbSpline
 70
8
 71
3
 72
8
 73
4
 74
0
 40
0
 40
0
 40
0
 40
0
 40
1
 40
1
 40
1
 40
1
 10
28.797429
 20
6.867284
 30
0.0
 10
28.138816
 20
6.887850
 30
0.0
 10
27.561667
 20
7.442162
 30
0.0
 10
27.492151
 20
8.093189
 30
0.0
  0
SPLINE
  5
20a
100
AcDbEntity
  8
Layer_1
 62
7
100
AcDbSpline
 70
8
 71
3
 72
8
 73
4
 74
0
 40
0
 40
0
 40
0
 40
0
 40
1
 40
1
 40
1
 40
1
 10
27.492151
 20
8.093189
 30
0.0
 10
27.472942
 20
8.977464
 30
0.0
 10
27.485599
 20
9.863233
 30
0.0
 10
27.483331
 20
10.747842
 30
0.0
  0
SPLINE
  5
20b
100
AcDbEntity
  8
Layer_1
 62
7
100
AcDbSpline
 70
8
 71
3
 72
8
 73
4
 74
0
 40
0
 40
0
 40
0
 40
0
 40
1
 40
1
 40
1
 40
1
 10
27.483331
 20
10.747842
 30
0.0
 10
27.491916
 20
11.100768
 30
0.0
 10
27.460610
 20
11.453666
 30
0.0
 10
27.483331
 20
11.806171
 30
0.0
  0
SPLINE
  5
20c
100
AcDbEntity
  8
Layer_1
 62
7
100
AcDbSpline
 70
8
 71
3
 72
8
 73
4
 74
0
 40
0
 40
0
 40
0
 40
0
 40
1
 40
1
 40
1
 40
1
 10
27.483331
 20
11.806171
 30
0.0
 10
27.516446
 20
12.478652
 30
0.0
 10
28.112268
 20
13.059102
 30
0.0
 10
28.779790
 20
13.093810
 30
0.0
  0
LWPOLYLINE
  5
20d
100
AcDbEntity
  8
Layer_1
 62
7
100
AcDbPolyline
 90
4
 70
1
 10
28.779790
 20
13.517147
 30
0.0
 10
28.770970
 20
13.517147
 30
0.0
 10
28.762151
 20
13.517147
 30
0.0
 10
28.762151
 20
13.517147
 30
0.0
  0
LWPOLYLINE
  5
20e
100
AcDbEntity
  8
Layer_1
 62
7
100
AcDbPolyline
 90
2
 70
1
 10
28.779790
 20
13.093810
 30
0.0
 10
28.779790
 20
13.093810
 30
0.0
  0
ENDSEC
  0
SECTION
  2
OBJECTS
  0
DICTIONARY
  5
C
330
0
100
AcDbDictionary
  3
ACAD_GROUP
350
D
  3
ACAD_MLINESTYLE
350
17
  0
DICTIONARY
  5
D
330
C
100
AcDbDictionary
  0
DICTIONARY
  5
1A
330
C
100
AcDbDictionary
  0
DICTIONARY
  5
17
330
C
100
AcDbDictionary
  3
STANDARD
350
18
  0
DICTIONARY
  5
19
330
C
100
AcDbDictionary
  0
ENDSEC
  0
EOF
