  0
SECTION
  2
HEADER
  9
$ACADVER
  1
AC1014
  9
$HANDSEED
  5
FFFF
  9
$MEASUREMENT
 70
     1
  0
ENDSEC
  0
SECTION
  2
TABLES
  0
TABLE
  2
VPORT
  5
8
330
0
100
AcDbSymbolTable
 70
     4
  0
VPORT
  5
2E
330
8
100
AcDbSymbolTableRecord
100
AcDbViewportTableRecord
  2
*ACTIVE
 70
     0
 10
0.0
 20
0.0
 11
1.0
 21
1.0
 12
210.0
 22
148.5
 13
0.0
 23
0.0
 14
10.0
 24
10.0
 15
10.0
 25
10.0
 16
0.0
 26
0.0
 36
1.0
 17
0.0
 27
0.0
 37
0.0
 40
341.0
 41
1.24
 42
50.0
 43
0.0
 44
0.0
 50
0.0
 51
0.0
 71
     0
 72
   100
 73
     1
 74
     3
 75
     0
 76
     0
 77
     0
 78
     0
  0
ENDTAB
  0
TABLE
  2
LTYPE
  5
5
330
0
100
AcDbSymbolTable
 70
     1
  0
LTYPE
  5
14
330
5
100
AcDbSymbolTableRecord
100
AcDbLinetypeTableRecord
  2
BYBLOCK
 70
     0
  3

 72
    65
 73
     0
 40
0.0
  0
LTYPE
  5
15
330
5
100
AcDbSymbolTableRecord
100
AcDbLinetypeTableRecord
  2
BYLAYER
 70
     0
  3

 72
    65
 73
     0
 40
0.0
  0
LTYPE
  5
16
330
5
100
AcDbSymbolTableRecord
100
AcDbLinetypeTableRecord
  2
CONTINUOUS
 70
     0
  3
Solid line
 72
    65
 73
     0
 40
0.0
  0
ENDTAB
  0
TABLE
  2
LAYER
  5
2
100
AcDbSymbolTable
 70
2
  0
LAYER
  5
50
100
AcDbSymbolTableRecord
100
AcDbLayerTableRecord
  2
0
 70
0
  6
CONTINUOUS
  0
LAYER
  5
51
100
AcDbSymbolTableRecord
100
AcDbLayerTableRecord
  2
Layer_1
 70
0
  6
CONTINUOUS
  0
ENDTAB
  0
TABLE
  2
STYLE
  5
3
330
0
100
AcDbSymbolTable
 70
     1
  0
STYLE
  5
11
330
3
100
AcDbSymbolTableRecord
100
AcDbTextStyleTableRecord
  2
STANDARD
 70
     0
 40
0.0
 41
1.0
 50
0.0
 71
     0
 42
2.5
  3
txt
  4

  0
ENDTAB
  0
TABLE
  2
VIEW
  5
6
330
0
100
AcDbSymbolTable
 70
     0
  0
ENDTAB
  0
TABLE
  2
UCS
  5
7
330
0
100
AcDbSymbolTable
 70
     0
  0
ENDTAB
  0
TABLE
  2
APPID
  5
9
330
0
100
AcDbSymbolTable
 70
     2
  0
APPID
  5
12
330
9
100
AcDbSymbolTableRecord
100
AcDbRegAppTableRecord
  2
ACAD
 70
     0
  0
ENDTAB
  0
TABLE
  2
DIMSTYLE
  5
A
330
0
100
AcDbSymbolTable
 70
     1
  0
DIMSTYLE
105
27
330
A
100
AcDbSymbolTableRecord
100
AcDbDimStyleTableRecord
  2
ISO-25
 70
     0
  3

  4

  5

  6

  7

 40
1.0
 41
2.5
 42
0.625
 43
3.75
 44
1.25
 45
0.0
 46
0.0
 47
0.0
 48
0.0
140
2.5
141
2.5
142
0.0
143
0.03937007874016
144
1.0
145
0.0
146
1.0
147
0.625
 71
     0
 72
     0
 73
     0
 74
     0
 75
     0
 76
     0
 77
     1
 78
     8
170
     0
171
     3
172
     1
173
     0
174
     0
175
     0
176
     0
177
     0
178
     0
270
     2
271
     2
272
     2
273
     2
274
     3
340
11
275
     0
280
     0
281
     0
282
     0
283
     0
284
     8
285
     0
286
     0
287
     3
288
     0
  0
ENDTAB
  0
TABLE
  2
BLOCK_RECORD
  5
1
330
0
100
AcDbSymbolTable
 70
     1
  0
BLOCK_RECORD
  5
1F
330
1
100
AcDbSymbolTableRecord
100
AcDbBlockTableRecord
  2
*MODEL_SPACE
  0
BLOCK_RECORD
  5
1B
330
1
100
AcDbSymbolTableRecord
100
AcDbBlockTableRecord
  2
*PAPER_SPACE
  0
ENDTAB
  0
ENDSEC
  0
SECTION
  2
BLOCKS
  0
BLOCK
  5
20
330
1F
100
AcDbEntity
  8
0
100
AcDbBlockBegin
  2
*MODEL_SPACE
 70
     0
 10
0.0
 20
0.0
 30
0.0
  3
*MODEL_SPACE
  1

  0
ENDBLK
  5
21
330
1F
100
AcDbEntity
  8
0
100
AcDbBlockEnd
  0
BLOCK
  5
1C
330
1B
100
AcDbEntity
 67
     1
  8
0
100
AcDbBlockBegin
  2
*PAPER_SPACE
  1

  0
ENDBLK
  5
1D
330
1B
100
AcDbEntity
 67
     1
  8
0
100
AcDbBlockEnd
  0
ENDSEC
  0
SECTION
  2
ENTITIES
  0
LWPOLYLINE
  5
100
100
AcDbEntity
  8
Layer_1
 62
7
100
AcDbPolyline
 90
16
 70
0
 10
-14.128750
 20
8.340694
 30
0.0
 10
-14.128750
 20
8.299580
 30
0.0
 10
-14.128750
 20
8.258578
 30
0.0
 10
-14.128750
 20
8.217222
 30
0.0
 10
-14.078825
 20
8.217222
 30
0.0
 10
-14.029037
 20
8.217222
 30
0.0
 10
-13.978819
 20
8.217222
 30
0.0
 10
-13.978819
 20
8.258336
 30
0.0
 10
-13.978819
 20
8.299338
 30
0.0
 10
-13.978819
 20
8.340694
 30
0.0
 10
-14.028744
 20
8.340694
 30
0.0
 10
-14.078532
 20
8.340694
 30
0.0
 10
-14.128750
 20
8.340694
 30
0.0
 10
-14.128750
 20
8.340694
 30
0.0
 10
-14.128750
 20
8.340694
 30
0.0
 10
-14.128750
 20
8.340694
 30
0.0
  0
LWPOLYLINE
  5
101
100
AcDbEntity
  8
Layer_1
 62
7
100
AcDbPolyline
 90
16
 70
0
 10
-13.767153
 20
8.340694
 30
0.0
 10
-13.767153
 20
8.299580
 30
0.0
 10
-13.767153
 20
8.258578
 30
0.0
 10
-13.767153
 20
8.217222
 30
0.0
 10
-13.720165
 20
8.217222
 30
0.0
 10
-13.673306
 20
8.217222
 30
0.0
 10
-13.626042
 20
8.217222
 30
0.0
 10
-13.626042
 20
8.258336
 30
0.0
 10
-13.626042
 20
8.299338
 30
0.0
 10
-13.626042
 20
8.340694
 30
0.0
 10
-13.673030
 20
8.340694
 30
0.0
 10
-13.719889
 20
8.340694
 30
0.0
 10
-13.767153
 20
8.340694
 30
0.0
 10
-13.767153
 20
8.340694
 30
0.0
 10
-13.767153
 20
8.340694
 30
0.0
 10
-13.767153
 20
8.340694
 30
0.0
  0
LWPOLYLINE
  5
102
100
AcDbEntity
  8
Layer_1
 62
7
100
AcDbPolyline
 90
28
 70
0
 10
-16.360069
 20
8.190764
 30
0.0
 10
-16.442882
 20
8.183595
 30
0.0
 10
-16.521793
 20
8.158665
 30
0.0
 10
-16.589375
 20
8.111389
 30
0.0
 10
-16.636607
 20
8.043553
 30
0.0
 10
-16.661601
 20
7.964650
 30
0.0
 10
-16.668750
 20
7.882083
 30
0.0
 10
-16.661755
 20
7.802378
 30
0.0
 10
-16.636447
 20
7.726583
 30
0.0
 10
-16.589375
 20
7.661597
 30
0.0
 10
-16.522231
 20
7.611978
 30
0.0
 10
-16.443654
 20
7.582729
 30
0.0
 10
-16.360069
 20
7.573403
 30
0.0
 10
-16.279544
 20
7.582437
 30
0.0
 10
-16.204063
 20
7.611940
 30
0.0
 10
-16.139584
 20
7.661597
 30
0.0
 10
-16.092750
 20
7.726113
 30
0.0
 10
-16.067268
 20
7.802050
 30
0.0
 10
-16.060208
 20
7.882083
 30
0.0
 10
-16.067388
 20
7.964813
 30
0.0
 10
-16.092439
 20
8.043735
 30
0.0
 10
-16.139584
 20
8.111389
 30
0.0
 10
-16.203996
 20
8.158457
 30
0.0
 10
-16.280169
 20
8.183806
 30
0.0
 10
-16.360069
 20
8.190764
 30
0.0
 10
-16.360069
 20
8.190764
 30
0.0
 10
-16.360069
 20
8.190764
 30
0.0
 10
-16.360069
 20
8.190764
 30
0.0
  0
LWPOLYLINE
  5
103
100
AcDbEntity
  8
Layer_1
 62
7
100
AcDbPolyline
 90
28
 70
0
 10
-13.872986
 20
8.190764
 30
0.0
 10
-13.955799
 20
8.183595
 30
0.0
 10
-14.034710
 20
8.158665
 30
0.0
 10
-14.102292
 20
8.111389
 30
0.0
 10
-14.149524
 20
8.043553
 30
0.0
 10
-14.174518
 20
7.964650
 30
0.0
 10
-14.181667
 20
7.882083
 30
0.0
 10
-14.174671
 20
7.802378
 30
0.0
 10
-14.149364
 20
7.726583
 30
0.0
 10
-14.102292
 20
7.661597
 30
0.0
 10
-14.035147
 20
7.611978
 30
0.0
 10
-13.956571
 20
7.582729
 30
0.0
 10
-13.872986
 20
7.573403
 30
0.0
 10
-13.792461
 20
7.582437
 30
0.0
 10
-13.716980
 20
7.611940
 30
0.0
 10
-13.652500
 20
7.661597
 30
0.0
 10
-13.605667
 20
7.726113
 30
0.0
 10
-13.580184
 20
7.802050
 30
0.0
 10
-13.573125
 20
7.882083
 30
0.0
 10
-13.580305
 20
7.964813
 30
0.0
 10
-13.605356
 20
8.043735
 30
0.0
 10
-13.652500
 20
8.111389
 30
0.0
 10
-13.716913
 20
8.158457
 30
0.0
 10
-13.793087
 20
8.183806
 30
0.0
 10
-13.872986
 20
8.190764
 30
0.0
 10
-13.872986
 20
8.190764
 30
0.0
 10
-13.872986
 20
8.190764
 30
0.0
 10
-13.872986
 20
8.190764
 30
0.0
  0
LWPOLYLINE
  5
104
100
AcDbEntity
  8
Layer_1
 62
7
100
AcDbPolyline
 90
88
 70
0
 10
-13.255625
 20
8.190764
 30
0.0
 10
-13.311537
 20
8.187580
 30
0.0
 10
-13.365951
 20
8.174658
 30
0.0
 10
-13.414375
 20
8.146667
 30
0.0
 10
-13.448771
 20
8.106713
 30
0.0
 10
-13.469388
 20
8.058254
 30
0.0
 10
-13.476111
 20
8.005556
 30
0.0
 10
-13.471594
 20
7.966659
 30
0.0
 10
-13.456375
 20
7.930391
 30
0.0
 10
-13.432014
 20
7.899722
 30
0.0
 10
-13.392257
 20
7.870550
 30
0.0
 10
-13.347293
 20
7.851011
 30
0.0
 10
-13.299723
 20
7.837986
 30
0.0
 10
-13.282102
 20
7.832113
 30
0.0
 10
-13.264530
 20
7.826255
 30
0.0
 10
-13.246806
 20
7.820348
 30
0.0
 10
-13.219387
 20
7.813893
 30
0.0
 10
-13.192484
 20
7.806068
 30
0.0
 10
-13.167431
 20
7.793889
 30
0.0
 10
-13.157034
 20
7.781365
 30
0.0
 10
-13.151452
 20
7.766270
 30
0.0
 10
-13.149791
 20
7.749792
 30
0.0
 10
-13.152628
 20
7.731916
 30
0.0
 10
-13.162182
 20
7.716781
 30
0.0
 10
-13.176251
 20
7.705695
 30
0.0
 10
-13.201541
 20
7.694894
 30
0.0
 10
-13.228435
 20
7.689611
 30
0.0
 10
-13.255626
 20
7.688056
 30
0.0
 10
-13.291272
 20
7.690597
 30
0.0
 10
-13.326895
 20
7.696952
 30
0.0
 10
-13.361459
 20
7.705697
 30
0.0
 10
-13.398003
 20
7.717957
 30
0.0
 10
-13.432914
 20
7.732667
 30
0.0
 10
-13.467292
 20
7.749794
 30
0.0
 10
-13.467292
 20
7.705742
 30
0.0
 10
-13.467292
 20
7.661812
 30
0.0
 10
-13.467292
 20
7.617502
 30
0.0
 10
-13.429772
 20
7.606152
 30
0.0
 10
-13.391060
 20
7.598018
 30
0.0
 10
-13.352640
 20
7.591044
 30
0.0
 10
-13.314611
 20
7.583332
 30
0.0
 10
-13.276665
 20
7.576490
 30
0.0
 10
-13.237987
 20
7.573404
 30
0.0
 10
-13.175895
 20
7.578199
 30
0.0
 10
-13.115403
 20
7.594818
 30
0.0
 10
-13.061598
 20
7.626320
 30
0.0
 10
-13.028563
 20
7.666332
 30
0.0
 10
-13.012522
 20
7.715659
 30
0.0
 10
-13.008681
 20
7.767431
 30
0.0
 10
-13.011004
 20
7.808605
 30
0.0
 10
-13.021149
 20
7.848376
 30
0.0
 10
-13.043957
 20
7.882084
 30
0.0
 10
-13.086464
 20
7.911548
 30
0.0
 10
-13.134580
 20
7.930965
 30
0.0
 10
-13.185068
 20
7.943820
 30
0.0
 10
-13.208562
 20
7.949694
 30
0.0
 10
-13.231992
 20
7.955551
 30
0.0
 10
-13.255624
 20
7.961459
 30
0.0
 10
-13.276638
 20
7.965665
 30
0.0
 10
-13.297519
 20
7.970414
 30
0.0
 10
-13.317360
 20
7.979099
 30
0.0
 10
-13.327523
 20
7.991790
 30
0.0
 10
-13.333116
 20
8.007169
 30
0.0
 10
-13.335000
 20
8.023197
 30
0.0
 10
-13.332376
 20
8.040767
 30
0.0
 10
-13.323140
 20
8.056107
 30
0.0
 10
-13.308542
 20
8.067294
 30
0.0
 10
-13.283112
 20
8.077974
 30
0.0
 10
-13.256267
 20
8.083382
 30
0.0
 10
-13.229167
 20
8.084933
 30
0.0
 10
-13.199378
 20
8.081703
 30
0.0
 10
-13.170191
 20
8.074819
 30
0.0
 10
-13.140973
 20
8.067293
 30
0.0
 10
-13.108295
 20
8.060158
 30
0.0
 10
-13.075666
 20
8.052218
 30
0.0
 10
-13.043958
 20
8.040835
 30
0.0
 10
-13.043958
 20
8.081949
 30
0.0
 10
-13.043958
 20
8.122951
 30
0.0
 10
-13.043958
 20
8.164307
 30
0.0
 10
-13.078695
 20
8.171922
 30
0.0
 10
-13.114016
 20
8.177269
 30
0.0
 10
-13.149792
 20
8.181946
 30
0.0
 10
-13.184708
 20
8.186403
 30
0.0
 10
-13.219977
 20
8.189503
 30
0.0
 10
-13.255625
 20
8.190762
 30
0.0
 10
-13.255625
 20
8.190762
 30
0.0
 10
-13.255625
 20
8.190762
 30
0.0
 10
-13.255625
 20
8.190762
 30
0.0
  0
LWPOLYLINE
  5
105
100
AcDbEntity
  8
Layer_1
 62
7
100
AcDbPolyline
 90
58
 70
0
 10
-9.375070
 20
8.190762
 30
0.0
 10
-9.457862
 20
8.183928
 30
0.0
 10
-9.536904
 20
8.158664
 30
0.0
 10
-9.604375
 20
8.111387
 30
0.0
 10
-9.654953
 20
8.044661
 30
0.0
 10
-9.683768
 20
7.965866
 30
0.0
 10
-9.692570
 20
7.882081
 30
0.0
 10
-9.683933
 20
7.801216
 30
0.0
 10
-9.654590
 20
7.725361
 30
0.0
 10
-9.604375
 20
7.661595
 30
0.0
 10
-9.537022
 20
7.611966
 30
0.0
 10
-9.458575
 20
7.582384
 30
0.0
 10
-9.375070
 20
7.573401
 30
0.0
 10
-9.342508
 20
7.576247
 30
0.0
 10
-9.310129
 20
7.582995
 30
0.0
 10
-9.278056
 20
7.591040
 30
0.0
 10
-9.248028
 20
7.597931
 30
0.0
 10
-9.218479
 20
7.605807
 30
0.0
 10
-9.189861
 20
7.617499
 30
0.0
 10
-9.189861
 20
7.658613
 30
0.0
 10
-9.189861
 20
7.699615
 30
0.0
 10
-9.189861
 20
7.740971
 30
0.0
 10
-9.214649
 20
7.726359
 30
0.0
 10
-9.241618
 20
7.714945
 30
0.0
 10
-9.269237
 20
7.705693
 30
0.0
 10
-9.297789
 20
7.697066
 30
0.0
 10
-9.327286
 20
7.690611
 30
0.0
 10
-9.357431
 20
7.688052
 30
0.0
 10
-9.405951
 20
7.693302
 30
0.0
 10
-9.451729
 20
7.710650
 30
0.0
 10
-9.489722
 20
7.740969
 30
0.0
 10
-9.516727
 20
7.783330
 30
0.0
 10
-9.530285
 20
7.831907
 30
0.0
 10
-9.533821
 20
7.882080
 30
0.0
 10
-9.530169
 20
7.935033
 30
0.0
 10
-9.516880
 20
7.986685
 30
0.0
 10
-9.489725
 20
8.032010
 30
0.0
 10
-9.451430
 20
8.062497
 30
0.0
 10
-9.405814
 20
8.079709
 30
0.0
 10
-9.357433
 20
8.084927
 30
0.0
 10
-9.327641
 20
8.082424
 30
0.0
 10
-9.298249
 20
8.076036
 30
0.0
 10
-9.269239
 20
8.067287
 30
0.0
 10
-9.241318
 20
8.055422
 30
0.0
 10
-9.214992
 20
8.039978
 30
0.0
 10
-9.189864
 20
8.023190
 30
0.0
 10
-9.189864
 20
8.064304
 30
0.0
 10
-9.189864
 20
8.105306
 30
0.0
 10
-9.189864
 20
8.146662
 30
0.0
 10
-9.218311
 20
8.160570
 30
0.0
 10
-9.247855
 20
8.172713
 30
0.0
 10
-9.278058
 20
8.181940
 30
0.0
 10
-9.310002
 20
8.187590
 30
0.0
 10
-9.342317
 20
8.190131
 30
0.0
 10
-9.375072
 20
8.190760
 30
0.0
 10
-9.375072
 20
8.190760
 30
0.0
 10
-9.375072
 20
8.190760
 30
0.0
 10
-9.375072
 20
8.190760
 30
0.0
  0
LWPOLYLINE
  5
106
100
AcDbEntity
  8
Layer_1
 62
7
100
AcDbPolyline
 90
37
 70
0
 10
-15.945558
 20
8.181941
 30
0.0
 10
-15.945558
 20
7.985178
 30
0.0
 10
-15.945558
 20
7.787947
 30
0.0
 10
-15.945558
 20
7.591038
 30
0.0
 10
-15.860393
 20
7.591038
 30
0.0
 10
-15.775024
 20
7.591038
 30
0.0
 10
-15.689795
 20
7.591038
 30
0.0
 10
-15.628444
 20
7.594712
 30
0.0
 10
-15.568521
 20
7.607829
 30
0.0
 10
-15.513406
 20
7.635134
 30
0.0
 10
-15.481279
 20
7.668885
 30
0.0
 10
-15.464598
 20
7.712219
 30
0.0
 10
-15.460489
 20
7.758606
 30
0.0
 10
-15.463006
 20
7.792452
 30
0.0
 10
-15.471368
 20
7.825399
 30
0.0
 10
-15.486946
 20
7.855620
 30
0.0
 10
-15.506103
 20
7.878774
 30
0.0
 10
-15.529934
 20
7.897036
 30
0.0
 10
-15.557502
 20
7.908537
 30
0.0
 10
-15.536587
 20
7.919052
 30
0.0
 10
-15.518825
 20
7.934203
 30
0.0
 10
-15.504585
 20
7.952634
 30
0.0
 10
-15.491371
 20
7.974249
 30
0.0
 10
-15.481662
 20
7.997764
 30
0.0
 10
-15.478126
 20
8.023190
 30
0.0
 10
-15.484830
 20
8.070504
 30
0.0
 10
-15.505538
 20
8.113192
 30
0.0
 10
-15.539862
 20
8.146662
 30
0.0
 10
-15.595804
 20
8.170229
 30
0.0
 10
-15.655583
 20
8.179626
 30
0.0
 10
-15.716251
 20
8.181940
 30
0.0
 10
-15.792606
 20
8.181940
 30
0.0
 10
-15.869144
 20
8.181940
 30
0.0
 10
-15.945556
 20
8.181940
 30
0.0
 10
-15.945556
 20
8.181940
 30
0.0
 10
-15.945556
 20
8.181940
 30
0.0
 10
-15.945556
 20
8.181940
 30
0.0
  0
LWPOLYLINE
  5
107
100
AcDbEntity
  8
Layer_1
 62
7
100
AcDbPolyline
 90
40
 70
0
 10
-15.328195
 20
8.181940
 30
0.0
 10
-15.328195
 20
7.985178
 30
0.0
 10
-15.328195
 20
7.787947
 30
0.0
 10
-15.328195
 20
7.591037
 30
0.0
 10
-15.187232
 20
7.591037
 30
0.0
 10
-15.045932
 20
7.591037
 30
0.0
 10
-14.904862
 20
7.591037
 30
0.0
 10
-14.904862
 20
7.629215
 30
0.0
 10
-14.904862
 20
7.667288
 30
0.0
 10
-14.904862
 20
7.705690
 30
0.0
 10
-14.992964
 20
7.705690
 30
0.0
 10
-15.081277
 20
7.705690
 30
0.0
 10
-15.169445
 20
7.705690
 30
0.0
 10
-15.169445
 20
7.749741
 30
0.0
 10
-15.169445
 20
7.793672
 30
0.0
 10
-15.169445
 20
7.837982
 30
0.0
 10
-15.090153
 20
7.837982
 30
0.0
 10
-15.010672
 20
7.837982
 30
0.0
 10
-14.931320
 20
7.837982
 30
0.0
 10
-14.931320
 20
7.876159
 30
0.0
 10
-14.931320
 20
7.914233
 30
0.0
 10
-14.931320
 20
7.952635
 30
0.0
 10
-15.010613
 20
7.952635
 30
0.0
 10
-15.090094
 20
7.952635
 30
0.0
 10
-15.169445
 20
7.952635
 30
0.0
 10
-15.169445
 20
7.990812
 30
0.0
 10
-15.169445
 20
8.028886
 30
0.0
 10
-15.169445
 20
8.067287
 30
0.0
 10
-15.084279
 20
8.067287
 30
0.0
 10
-14.998911
 20
8.067287
 30
0.0
 10
-14.913682
 20
8.067287
 30
0.0
 10
-14.913682
 20
8.105465
 30
0.0
 10
-14.913682
 20
8.143538
 30
0.0
 10
-14.913682
 20
8.181940
 30
0.0
 10
-15.051708
 20
8.181940
 30
0.0
 10
-15.190065
 20
8.181940
 30
0.0
 10
-15.328195
 20
8.181940
 30
0.0
 10
-15.328195
 20
8.181940
 30
0.0
 10
-15.328195
 20
8.181940
 30
0.0
 10
-15.328195
 20
8.181940
 30
0.0
  0
LWPOLYLINE
  5
108
100
AcDbEntity
  8
Layer_1
 62
7
100
AcDbPolyline
 90
52
 70
0
 10
-14.772570
 20
8.181940
 30
0.0
 10
-14.772570
 20
7.985178
 30
0.0
 10
-14.772570
 20
7.787947
 30
0.0
 10
-14.772570
 20
7.591037
 30
0.0
 10
-14.722646
 20
7.591037
 30
0.0
 10
-14.672858
 20
7.591037
 30
0.0
 10
-14.622640
 20
7.591037
 30
0.0
 10
-14.622640
 20
7.664456
 30
0.0
 10
-14.622640
 20
7.738050
 30
0.0
 10
-14.622640
 20
7.811523
 30
0.0
 10
-14.607711
 20
7.811523
 30
0.0
 10
-14.592860
 20
7.811523
 30
0.0
 10
-14.578542
 20
7.811523
 30
0.0
 10
-14.556732
 20
7.809705
 30
0.0
 10
-14.535963
 20
7.804098
 30
0.0
 10
-14.516806
 20
7.793883
 30
0.0
 10
-14.499033
 20
7.776082
 30
0.0
 10
-14.484804
 20
7.754805
 30
0.0
 10
-14.472709
 20
7.732147
 30
0.0
 10
-14.449215
 20
7.685159
 30
0.0
 10
-14.425785
 20
7.638300
 30
0.0
 10
-14.402154
 20
7.591036
 30
0.0
 10
-14.346356
 20
7.591036
 30
0.0
 10
-14.290710
 20
7.591036
 30
0.0
 10
-14.234584
 20
7.591036
 30
0.0
 10
-14.263952
 20
7.646834
 30
0.0
 10
-14.293239
 20
7.702479
 30
0.0
 10
-14.322779
 20
7.758605
 30
0.0
 10
-14.335476
 20
7.783592
 30
0.0
 10
-14.349378
 20
7.807473
 30
0.0
 10
-14.366876
 20
7.829161
 30
0.0
 10
-14.385204
 20
7.844544
 30
0.0
 10
-14.406107
 20
7.856538
 30
0.0
 10
-14.428612
 20
7.864439
 30
0.0
 10
-14.395860
 20
7.876576
 30
0.0
 10
-14.365631
 20
7.893348
 30
0.0
 10
-14.340417
 20
7.917355
 30
0.0
 10
-14.324206
 20
7.947338
 30
0.0
 10
-14.316157
 20
7.980356
 30
0.0
 10
-14.313959
 20
8.014369
 30
0.0
 10
-14.318406
 20
8.060586
 30
0.0
 10
-14.335314
 20
8.104180
 30
0.0
 10
-14.366878
 20
8.137841
 30
0.0
 10
-14.418813
 20
8.164578
 30
0.0
 10
-14.476030
 20
8.178136
 30
0.0
 10
-14.534447
 20
8.181940
 30
0.0
 10
-14.613740
 20
8.181940
 30
0.0
 10
-14.693221
 20
8.181940
 30
0.0
 10
-14.772572
 20
8.181940
 30
0.0
 10
-14.772572
 20
8.181940
 30
0.0
 10
-14.772572
 20
8.181940
 30
0.0
 10
-14.772572
 20
8.181940
 30
0.0
  0
LWPOLYLINE
  5
109
100
AcDbEntity
  8
Layer_1
 62
7
100
AcDbPolyline
 90
28
 70
0
 10
-12.938128
 20
8.181940
 30
0.0
 10
-12.938128
 20
8.143763
 30
0.0
 10
-12.938128
 20
8.105689
 30
0.0
 10
-12.938128
 20
8.067287
 30
0.0
 10
-12.873520
 20
8.067287
 30
0.0
 10
-12.809088
 20
8.067287
 30
0.0
 10
-12.744100
 20
8.067287
 30
0.0
 10
-12.744100
 20
7.908703
 30
0.0
 10
-12.744100
 20
7.749741
 30
0.0
 10
-12.744100
 20
7.591037
 30
0.0
 10
-12.694176
 20
7.591037
 30
0.0
 10
-12.644387
 20
7.591037
 30
0.0
 10
-12.594170
 20
7.591037
 30
0.0
 10
-12.594170
 20
7.749622
 30
0.0
 10
-12.594170
 20
7.908584
 30
0.0
 10
-12.594170
 20
8.067287
 30
0.0
 10
-12.529561
 20
8.067287
 30
0.0
 10
-12.465130
 20
8.067287
 30
0.0
 10
-12.400142
 20
8.067287
 30
0.0
 10
-12.400142
 20
8.105465
 30
0.0
 10
-12.400142
 20
8.143538
 30
0.0
 10
-12.400142
 20
8.181940
 30
0.0
 10
-12.579283
 20
8.181940
 30
0.0
 10
-12.758852
 20
8.181940
 30
0.0
 10
-12.938128
 20
8.181940
 30
0.0
 10
-12.938128
 20
8.181940
 30
0.0
 10
-12.938128
 20
8.181940
 30
0.0
 10
-12.938128
 20
8.181940
 30
0.0
  0
LWPOLYLINE
  5
10a
100
AcDbEntity
  8
Layer_1
 62
7
100
AcDbPolyline
 90
40
 70
0
 10
-12.320767
 20
8.181940
 30
0.0
 10
-12.320767
 20
7.985178
 30
0.0
 10
-12.320767
 20
7.787947
 30
0.0
 10
-12.320767
 20
7.591037
 30
0.0
 10
-12.179803
 20
7.591037
 30
0.0
 10
-12.038503
 20
7.591037
 30
0.0
 10
-11.897434
 20
7.591037
 30
0.0
 10
-11.897434
 20
7.629215
 30
0.0
 10
-11.897434
 20
7.667288
 30
0.0
 10
-11.897434
 20
7.705690
 30
0.0
 10
-11.985536
 20
7.705690
 30
0.0
 10
-12.073848
 20
7.705690
 30
0.0
 10
-12.162017
 20
7.705690
 30
0.0
 10
-12.162017
 20
7.749741
 30
0.0
 10
-12.162017
 20
7.793672
 30
0.0
 10
-12.162017
 20
7.837982
 30
0.0
 10
-12.082725
 20
7.837982
 30
0.0
 10
-12.003244
 20
7.837982
 30
0.0
 10
-11.923892
 20
7.837982
 30
0.0
 10
-11.923892
 20
7.876159
 30
0.0
 10
-11.923892
 20
7.914233
 30
0.0
 10
-11.923892
 20
7.952635
 30
0.0
 10
-12.003184
 20
7.952635
 30
0.0
 10
-12.082665
 20
7.952635
 30
0.0
 10
-12.162017
 20
7.952635
 30
0.0
 10
-12.162017
 20
7.990812
 30
0.0
 10
-12.162017
 20
8.028886
 30
0.0
 10
-12.162017
 20
8.067287
 30
0.0
 10
-12.076851
 20
8.067287
 30
0.0
 10
-11.991483
 20
8.067287
 30
0.0
 10
-11.906253
 20
8.067287
 30
0.0
 10
-11.906253
 20
8.105465
 30
0.0
 10
-11.906253
 20
8.143538
 30
0.0
 10
-11.906253
 20
8.181940
 30
0.0
 10
-12.044280
 20
8.181940
 30
0.0
 10
-12.182636
 20
8.181940
 30
0.0
 10
-12.320767
 20
8.181940
 30
0.0
 10
-12.320767
 20
8.181940
 30
0.0
 10
-12.320767
 20
8.181940
 30
0.0
 10
-12.320767
 20
8.181940
 30
0.0
  0
LWPOLYLINE
  5
10b
100
AcDbEntity
  8
Layer_1
 62
7
100
AcDbPolyline
 90
52
 70
0
 10
-11.765142
 20
8.181940
 30
0.0
 10
-11.765142
 20
7.985178
 30
0.0
 10
-11.765142
 20
7.787947
 30
0.0
 10
-11.765142
 20
7.591037
 30
0.0
 10
-11.715217
 20
7.591037
 30
0.0
 10
-11.665429
 20
7.591037
 30
0.0
 10
-11.615212
 20
7.591037
 30
0.0
 10
-11.615212
 20
7.664456
 30
0.0
 10
-11.615212
 20
7.738050
 30
0.0
 10
-11.615212
 20
7.811523
 30
0.0
 10
-11.600282
 20
7.811523
 30
0.0
 10
-11.585431
 20
7.811523
 30
0.0
 10
-11.571114
 20
7.811523
 30
0.0
 10
-11.549304
 20
7.809705
 30
0.0
 10
-11.528535
 20
7.804098
 30
0.0
 10
-11.509378
 20
7.793883
 30
0.0
 10
-11.491604
 20
7.776082
 30
0.0
 10
-11.477375
 20
7.754805
 30
0.0
 10
-11.465280
 20
7.732147
 30
0.0
 10
-11.441786
 20
7.685159
 30
0.0
 10
-11.418357
 20
7.638300
 30
0.0
 10
-11.394725
 20
7.591036
 30
0.0
 10
-11.338927
 20
7.591036
 30
0.0
 10
-11.283281
 20
7.591036
 30
0.0
 10
-11.227155
 20
7.591036
 30
0.0
 10
-11.256523
 20
7.646834
 30
0.0
 10
-11.285810
 20
7.702479
 30
0.0
 10
-11.315350
 20
7.758605
 30
0.0
 10
-11.328048
 20
7.783592
 30
0.0
 10
-11.341949
 20
7.807473
 30
0.0
 10
-11.359447
 20
7.829161
 30
0.0
 10
-11.377775
 20
7.844544
 30
0.0
 10
-11.398678
 20
7.856538
 30
0.0
 10
-11.421183
 20
7.864439
 30
0.0
 10
-11.388431
 20
7.876576
 30
0.0
 10
-11.358203
 20
7.893348
 30
0.0
 10
-11.332989
 20
7.917355
 30
0.0
 10
-11.316777
 20
7.947338
 30
0.0
 10
-11.308728
 20
7.980356
 30
0.0
 10
-11.306530
 20
8.014369
 30
0.0
 10
-11.310973
 20
8.060586
 30
0.0
 10
-11.327881
 20
8.104180
 30
0.0
 10
-11.359445
 20
8.137841
 30
0.0
 10
-11.411380
 20
8.164578
 30
0.0
 10
-11.468597
 20
8.178136
 30
0.0
 10
-11.527015
 20
8.181940
 30
0.0
 10
-11.606307
 20
8.181940
 30
0.0
 10
-11.685788
 20
8.181940
 30
0.0
 10
-11.765140
 20
8.181940
 30
0.0
 10
-11.765140
 20
8.181940
 30
0.0
 10
-11.765140
 20
8.181940
 30
0.0
 10
-11.765140
 20
8.181940
 30
0.0
  0
LWPOLYLINE
  5
10c
100
AcDbEntity
  8
Layer_1
 62
7
100
AcDbPolyline
 90
52
 70
0
 10
-11.138959
 20
8.181940
 30
0.0
 10
-11.138959
 20
7.985178
 30
0.0
 10
-11.138959
 20
7.787947
 30
0.0
 10
-11.138959
 20
7.591037
 30
0.0
 10
-11.089034
 20
7.591037
 30
0.0
 10
-11.039246
 20
7.591037
 30
0.0
 10
-10.989028
 20
7.591037
 30
0.0
 10
-10.989028
 20
7.664456
 30
0.0
 10
-10.989028
 20
7.738050
 30
0.0
 10
-10.989028
 20
7.811523
 30
0.0
 10
-10.974099
 20
7.811523
 30
0.0
 10
-10.959248
 20
7.811523
 30
0.0
 10
-10.944931
 20
7.811523
 30
0.0
 10
-10.923121
 20
7.809705
 30
0.0
 10
-10.902352
 20
7.804098
 30
0.0
 10
-10.883195
 20
7.793883
 30
0.0
 10
-10.865421
 20
7.776082
 30
0.0
 10
-10.851192
 20
7.754805
 30
0.0
 10
-10.839097
 20
7.732147
 30
0.0
 10
-10.815604
 20
7.685159
 30
0.0
 10
-10.792174
 20
7.638300
 30
0.0
 10
-10.768542
 20
7.591036
 30
0.0
 10
-10.712744
 20
7.591036
 30
0.0
 10
-10.657099
 20
7.591036
 30
0.0
 10
-10.600972
 20
7.591036
 30
0.0
 10
-10.630340
 20
7.646834
 30
0.0
 10
-10.659627
 20
7.702479
 30
0.0
 10
-10.689167
 20
7.758605
 30
0.0
 10
-10.703901
 20
7.784225
 30
0.0
 10
-10.721814
 20
7.807736
 30
0.0
 10
-10.742084
 20
7.829161
 30
0.0
 10
-10.757412
 20
7.843877
 30
0.0
 10
-10.775082
 20
7.856620
 30
0.0
 10
-10.795000
 20
7.864439
 30
0.0
 10
-10.762249
 20
7.876576
 30
0.0
 10
-10.732020
 20
7.893348
 30
0.0
 10
-10.706806
 20
7.917355
 30
0.0
 10
-10.690595
 20
7.947338
 30
0.0
 10
-10.682546
 20
7.980356
 30
0.0
 10
-10.680348
 20
8.014369
 30
0.0
 10
-10.684790
 20
8.060586
 30
0.0
 10
-10.701698
 20
8.104180
 30
0.0
 10
-10.733262
 20
8.137841
 30
0.0
 10
-10.788282
 20
8.164578
 30
0.0
 10
-10.848176
 20
8.177942
 30
0.0
 10
-10.909651
 20
8.181941
 30
0.0
 10
-10.986006
 20
8.181941
 30
0.0
 10
-11.062544
 20
8.181941
 30
0.0
 10
-11.138957
 20
8.181941
 30
0.0
 10
-11.138957
 20
8.181941
 30
0.0
 10
-11.138957
 20
8.181941
 30
0.0
 10
-11.138957
 20
8.181941
 30
0.0
  0
LWPOLYLINE
  5
10d
100
AcDbEntity
  8
Layer_1
 62
7
100
AcDbPolyline
 90
40
 70
0
 10
-10.512776
 20
8.181941
 30
0.0
 10
-10.512776
 20
7.985178
 30
0.0
 10
-10.512776
 20
7.787947
 30
0.0
 10
-10.512776
 20
7.591038
 30
0.0
 10
-10.374749
 20
7.591038
 30
0.0
 10
-10.236393
 20
7.591038
 30
0.0
 10
-10.098262
 20
7.591038
 30
0.0
 10
-10.098262
 20
7.629216
 30
0.0
 10
-10.098262
 20
7.667289
 30
0.0
 10
-10.098262
 20
7.705691
 30
0.0
 10
-10.186364
 20
7.705691
 30
0.0
 10
-10.274677
 20
7.705691
 30
0.0
 10
-10.362845
 20
7.705691
 30
0.0
 10
-10.362845
 20
7.749742
 30
0.0
 10
-10.362845
 20
7.793672
 30
0.0
 10
-10.362845
 20
7.837982
 30
0.0
 10
-10.280616
 20
7.837982
 30
0.0
 10
-10.198192
 20
7.837982
 30
0.0
 10
-10.115901
 20
7.837982
 30
0.0
 10
-10.115901
 20
7.876160
 30
0.0
 10
-10.115901
 20
7.914233
 30
0.0
 10
-10.115901
 20
7.952635
 30
0.0
 10
-10.198130
 20
7.952635
 30
0.0
 10
-10.280554
 20
7.952635
 30
0.0
 10
-10.362845
 20
7.952635
 30
0.0
 10
-10.362845
 20
7.990813
 30
0.0
 10
-10.362845
 20
8.028886
 30
0.0
 10
-10.362845
 20
8.067288
 30
0.0
 10
-10.277680
 20
8.067288
 30
0.0
 10
-10.192311
 20
8.067288
 30
0.0
 10
-10.107081
 20
8.067288
 30
0.0
 10
-10.107081
 20
8.105466
 30
0.0
 10
-10.107081
 20
8.143539
 30
0.0
 10
-10.107081
 20
8.181941
 30
0.0
 10
-10.242172
 20
8.181941
 30
0.0
 10
-10.377584
 20
8.181941
 30
0.0
 10
-10.512776
 20
8.181941
 30
0.0
 10
-10.512776
 20
8.181941
 30
0.0
 10
-10.512776
 20
8.181941
 30
0.0
 10
-10.512776
 20
8.181941
 30
0.0
  0
LWPOLYLINE
  5
10e
100
AcDbEntity
  8
Layer_1
 62
7
100
AcDbPolyline
 90
16
 70
0
 10
-9.957151
 20
8.181941
 30
0.0
 10
-9.957151
 20
7.985178
 30
0.0
 10
-9.957151
 20
7.787947
 30
0.0
 10
-9.957151
 20
7.591038
 30
0.0
 10
-9.907226
 20
7.591038
 30
0.0
 10
-9.857438
 20
7.591038
 30
0.0
 10
-9.807220
 20
7.591038
 30
0.0
 10
-9.807220
 20
7.787800
 30
0.0
 10
-9.807220
 20
7.985031
 30
0.0
 10
-9.807220
 20
8.181941
 30
0.0
 10
-9.857145
 20
8.181941
 30
0.0
 10
-9.906933
 20
8.181941
 30
0.0
 10
-9.957151
 20
8.181941
 30
0.0
 10
-9.957151
 20
8.181941
 30
0.0
 10
-9.957151
 20
8.181941
 30
0.0
 10
-9.957151
 20
8.181941
 30
0.0
  0
LWPOLYLINE
  5
10f
100
AcDbEntity
  8
Layer_1
 62
7
100
AcDbPolyline
 90
40
 70
0
 10
-9.057568
 20
8.181941
 30
0.0
 10
-9.057568
 20
7.985178
 30
0.0
 10
-9.057568
 20
7.787947
 30
0.0
 10
-9.057568
 20
7.591038
 30
0.0
 10
-9.007643
 20
7.591038
 30
0.0
 10
-8.957855
 20
7.591038
 30
0.0
 10
-8.907637
 20
7.591038
 30
0.0
 10
-8.907637
 20
7.673267
 30
0.0
 10
-8.907637
 20
7.755692
 30
0.0
 10
-8.907637
 20
7.837982
 30
0.0
 10
-8.834218
 20
7.837982
 30
0.0
 10
-8.760625
 20
7.837982
 30
0.0
 10
-8.687151
 20
7.837982
 30
0.0
 10
-8.687151
 20
7.755753
 30
0.0
 10
-8.687151
 20
7.673328
 30
0.0
 10
-8.687151
 20
7.591038
 30
0.0
 10
-8.634290
 20
7.591038
 30
0.0
 10
-8.581573
 20
7.591038
 30
0.0
 10
-8.528401
 20
7.591038
 30
0.0
 10
-8.528401
 20
7.787800
 30
0.0
 10
-8.528401
 20
7.985031
 30
0.0
 10
-8.528401
 20
8.181941
 30
0.0
 10
-8.581262
 20
8.181941
 30
0.0
 10
-8.633979
 20
8.181941
 30
0.0
 10
-8.687151
 20
8.181941
 30
0.0
 10
-8.687151
 20
8.105585
 30
0.0
 10
-8.687151
 20
8.029048
 30
0.0
 10
-8.687151
 20
7.952635
 30
0.0
 10
-8.760570
 20
7.952635
 30
0.0
 10
-8.834163
 20
7.952635
 30
0.0
 10
-8.907637
 20
7.952635
 30
0.0
 10
-8.907637
 20
8.028990
 30
0.0
 10
-8.907637
 20
8.105528
 30
0.0
 10
-8.907637
 20
8.181941
 30
0.0
 10
-8.957561
 20
8.181941
 30
0.0
 10
-9.007350
 20
8.181941
 30
0.0
 10
-9.057568
 20
8.181941
 30
0.0
 10
-9.057568
 20
8.181941
 30
0.0
 10
-9.057568
 20
8.181941
 30
0.0
 10
-9.057568
 20
8.181941
 30
0.0
  0
LWPOLYLINE
  5
110
100
AcDbEntity
  8
Layer_1
 62
7
100
AcDbPolyline
 90
28
 70
0
 10
-16.360068
 20
8.084927
 30
0.0
 10
-16.319507
 20
8.079437
 30
0.0
 10
-16.282966
 20
8.061212
 30
0.0
 10
-16.254235
 20
8.032010
 30
0.0
 10
-16.231642
 20
7.985364
 30
0.0
 10
-16.221567
 20
7.933976
 30
0.0
 10
-16.218957
 20
7.882080
 30
0.0
 10
-16.221456
 20
7.833049
 30
0.0
 10
-16.231603
 20
7.784956
 30
0.0
 10
-16.254233
 20
7.740968
 30
0.0
 10
-16.282915
 20
7.711801
 30
0.0
 10
-16.319498
 20
7.693543
 30
0.0
 10
-16.360066
 20
7.688052
 30
0.0
 10
-16.403101
 20
7.693676
 30
0.0
 10
-16.442675
 20
7.711158
 30
0.0
 10
-16.474719
 20
7.740968
 30
0.0
 10
-16.497312
 20
7.784845
 30
0.0
 10
-16.507475
 20
7.832871
 30
0.0
 10
-16.509997
 20
7.882080
 30
0.0
 10
-16.507355
 20
7.934285
 30
0.0
 10
-16.497291
 20
7.985440
 30
0.0
 10
-16.474721
 20
8.032010
 30
0.0
 10
-16.442828
 20
8.061722
 30
0.0
 10
-16.403119
 20
8.079297
 30
0.0
 10
-16.360069
 20
8.084927
 30
0.0
 10
-16.360069
 20
8.084927
 30
0.0
 10
-16.360069
 20
8.084927
 30
0.0
 10
-16.360069
 20
8.084927
 30
0.0
  0
LWPOLYLINE
  5
111
100
AcDbEntity
  8
Layer_1
 62
7
100
AcDbPolyline
 90
28
 70
0
 10
-13.872985
 20
8.084927
 30
0.0
 10
-13.832424
 20
8.079437
 30
0.0
 10
-13.795883
 20
8.061212
 30
0.0
 10
-13.767152
 20
8.032010
 30
0.0
 10
-13.744559
 20
7.985364
 30
0.0
 10
-13.734484
 20
7.933976
 30
0.0
 10
-13.731874
 20
7.882080
 30
0.0
 10
-13.734373
 20
7.833049
 30
0.0
 10
-13.744520
 20
7.784956
 30
0.0
 10
-13.767150
 20
7.740968
 30
0.0
 10
-13.795832
 20
7.711801
 30
0.0
 10
-13.832415
 20
7.693543
 30
0.0
 10
-13.872983
 20
7.688052
 30
0.0
 10
-13.916018
 20
7.693676
 30
0.0
 10
-13.955592
 20
7.711158
 30
0.0
 10
-13.987636
 20
7.740968
 30
0.0
 10
-14.010229
 20
7.784845
 30
0.0
 10
-14.020392
 20
7.832871
 30
0.0
 10
-14.022914
 20
7.882080
 30
0.0
 10
-14.020272
 20
7.934285
 30
0.0
 10
-14.010208
 20
7.985440
 30
0.0
 10
-13.987638
 20
8.032010
 30
0.0
 10
-13.955745
 20
8.061722
 30
0.0
 10
-13.916036
 20
8.079297
 30
0.0
 10
-13.872986
 20
8.084927
 30
0.0
 10
-13.872986
 20
8.084927
 30
0.0
 10
-13.872986
 20
8.084927
 30
0.0
 10
-13.872986
 20
8.084927
 30
0.0
  0
LWPOLYLINE
  5
112
100
AcDbEntity
  8
Layer_1
 62
7
100
AcDbPolyline
 90
25
 70
0
 10
-15.786805
 20
8.076107
 30
0.0
 10
-15.760374
 20
8.076107
 30
0.0
 10
-15.734016
 20
8.076107
 30
0.0
 10
-15.707430
 20
8.076107
 30
0.0
 10
-15.688397
 20
8.074469
 30
0.0
 10
-15.670503
 20
8.068870
 30
0.0
 10
-15.654514
 20
8.058469
 30
0.0
 10
-15.643823
 20
8.045850
 30
0.0
 10
-15.638243
 20
8.030389
 30
0.0
 10
-15.636873
 20
8.014372
 30
0.0
 10
-15.638308
 20
7.997911
 30
0.0
 10
-15.644001
 20
7.982524
 30
0.0
 10
-15.654514
 20
7.970275
 30
0.0
 10
-15.670375
 20
7.960049
 30
0.0
 10
-15.688750
 20
7.954256
 30
0.0
 10
-15.707431
 20
7.952636
 30
0.0
 10
-15.733862
 20
7.952636
 30
0.0
 10
-15.760220
 20
7.952636
 30
0.0
 10
-15.786806
 20
7.952636
 30
0.0
 10
-15.786806
 20
7.993751
 30
0.0
 10
-15.786806
 20
8.034753
 30
0.0
 10
-15.786806
 20
8.076109
 30
0.0
 10
-15.786806
 20
8.076109
 30
0.0
 10
-15.786806
 20
8.076109
 30
0.0
 10
-15.786806
 20
8.076109
 30
0.0
  0
LWPOLYLINE
  5
113
100
AcDbEntity
  8
Layer_1
 62
7
100
AcDbPolyline
 90
25
 70
0
 10
-14.622639
 20
8.067289
 30
0.0
 10
-14.599145
 20
8.067289
 30
0.0
 10
-14.575716
 20
8.067289
 30
0.0
 10
-14.552084
 20
8.067289
 30
0.0
 10
-14.527539
 20
8.065947
 30
0.0
 10
-14.503291
 20
8.060943
 30
0.0
 10
-14.481528
 20
8.049649
 30
0.0
 10
-14.469627
 20
8.034549
 30
0.0
 10
-14.464817
 20
8.015999
 30
0.0
 10
-14.463892
 20
7.996732
 30
0.0
 10
-14.464905
 20
7.974996
 30
0.0
 10
-14.469533
 20
7.953296
 30
0.0
 10
-14.481531
 20
7.934996
 30
0.0
 10
-14.503509
 20
7.923520
 30
0.0
 10
-14.527522
 20
7.918658
 30
0.0
 10
-14.552087
 20
7.917357
 30
0.0
 10
-14.575581
 20
7.917357
 30
0.0
 10
-14.599010
 20
7.917357
 30
0.0
 10
-14.622643
 20
7.917357
 30
0.0
 10
-14.622643
 20
7.967282
 30
0.0
 10
-14.622643
 20
8.017070
 30
0.0
 10
-14.622643
 20
8.067288
 30
0.0
 10
-14.622643
 20
8.067288
 30
0.0
 10
-14.622643
 20
8.067288
 30
0.0
 10
-14.622643
 20
8.067288
 30
0.0
  0
LWPOLYLINE
  5
114
100
AcDbEntity
  8
Layer_1
 62
7
100
AcDbPolyline
 90
25
 70
0
 10
-11.615212
 20
8.067288
 30
0.0
 10
-11.591718
 20
8.067288
 30
0.0
 10
-11.568288
 20
8.067288
 30
0.0
 10
-11.544657
 20
8.067288
 30
0.0
 10
-11.522877
 20
8.066094
 30
0.0
 10
-11.501694
 20
8.061002
 30
0.0
 10
-11.482920
 20
8.049648
 30
0.0
 10
-11.468396
 20
8.034901
 30
0.0
 10
-11.459212
 20
8.016817
 30
0.0
 10
-11.456463
 20
7.996731
 30
0.0
 10
-11.459471
 20
7.973867
 30
0.0
 10
-11.468446
 20
7.952494
 30
0.0
 10
-11.482921
 20
7.934995
 30
0.0
 10
-11.501714
 20
7.923518
 30
0.0
 10
-11.522733
 20
7.918527
 30
0.0
 10
-11.544657
 20
7.917356
 30
0.0
 10
-11.568151
 20
7.917356
 30
0.0
 10
-11.591581
 20
7.917356
 30
0.0
 10
-11.615213
 20
7.917356
 30
0.0
 10
-11.615213
 20
7.967281
 30
0.0
 10
-11.615213
 20
8.017069
 30
0.0
 10
-11.615213
 20
8.067286
 30
0.0
 10
-11.615213
 20
8.067286
 30
0.0
 10
-11.615213
 20
8.067286
 30
0.0
 10
-11.615213
 20
8.067286
 30
0.0
  0
LWPOLYLINE
  5
115
100
AcDbEntity
  8
Layer_1
 62
7
100
AcDbPolyline
 90
25
 70
0
 10
-10.989032
 20
8.067286
 30
0.0
 10
-10.965538
 20
8.067286
 30
0.0
 10
-10.942108
 20
8.067286
 30
0.0
 10
-10.918476
 20
8.067286
 30
0.0
 10
-10.896696
 20
8.066092
 30
0.0
 10
-10.875514
 20
8.061000
 30
0.0
 10
-10.856740
 20
8.049646
 30
0.0
 10
-10.842216
 20
8.034900
 30
0.0
 10
-10.833031
 20
8.016816
 30
0.0
 10
-10.830282
 20
7.996729
 30
0.0
 10
-10.833290
 20
7.973866
 30
0.0
 10
-10.842266
 20
7.952493
 30
0.0
 10
-10.856741
 20
7.934993
 30
0.0
 10
-10.875534
 20
7.923517
 30
0.0
 10
-10.896552
 20
7.918525
 30
0.0
 10
-10.918477
 20
7.917355
 30
0.0
 10
-10.941971
 20
7.917355
 30
0.0
 10
-10.965400
 20
7.917355
 30
0.0
 10
-10.989032
 20
7.917355
 30
0.0
 10
-10.989032
 20
7.967279
 30
0.0
 10
-10.989032
 20
8.017067
 30
0.0
 10
-10.989032
 20
8.067285
 30
0.0
 10
-10.989032
 20
8.067285
 30
0.0
 10
-10.989032
 20
8.067285
 30
0.0
 10
-10.989032
 20
8.067285
 30
0.0
  0
LWPOLYLINE
  5
116
100
AcDbEntity
  8
Layer_1
 62
7
100
AcDbPolyline
 90
25
 70
0
 10
-15.786810
 20
7.846799
 30
0.0
 10
-15.757443
 20
7.846799
 30
0.0
 10
-15.728156
 20
7.846799
 30
0.0
 10
-15.698616
 20
7.846799
 30
0.0
 10
-15.674153
 20
7.845605
 30
0.0
 10
-15.649784
 20
7.840696
 30
0.0
 10
-15.628060
 20
7.829159
 30
0.0
 10
-15.615746
 20
7.810809
 30
0.0
 10
-15.611285
 20
7.789165
 30
0.0
 10
-15.610419
 20
7.767423
 30
0.0
 10
-15.613131
 20
7.747091
 30
0.0
 10
-15.622452
 20
7.728981
 30
0.0
 10
-15.636876
 20
7.714506
 30
0.0
 10
-15.655478
 20
7.703068
 30
0.0
 10
-15.676758
 20
7.697964
 30
0.0
 10
-15.698612
 20
7.696867
 30
0.0
 10
-15.727979
 20
7.696867
 30
0.0
 10
-15.757266
 20
7.696867
 30
0.0
 10
-15.786806
 20
7.696867
 30
0.0
 10
-15.786806
 20
7.746792
 30
0.0
 10
-15.786806
 20
7.796580
 30
0.0
 10
-15.786806
 20
7.846798
 30
0.0
 10
-15.786806
 20
7.846798
 30
0.0
 10
-15.786806
 20
7.846798
 30
0.0
 10
-15.786806
 20
7.846798
 30
0.0
  0
LWPOLYLINE
  5
117
100
AcDbEntity
  8
Layer_1
 62
7
100
AcDbPolyline
 90
131
 70
0
 10
-9.096542
 20
13.095449
 30
0.0
 10
-9.824093
 20
13.094153
 30
0.0
 10
-10.551618
 20
13.093542
 30
0.0
 10
-11.279119
 20
13.093450
 30
0.0
 10
-12.006598
 20
13.093635
 30
0.0
 10
-12.734058
 20
13.093959
 30
0.0
 10
-13.461617
 20
13.094236
 30
0.0
 10
-14.189119
 20
13.094271
 30
0.0
 10
-14.916576
 20
13.093854
 30
0.0
 10
-15.644098
 20
13.092845
 30
0.0
 10
-16.371620
 20
13.091036
 30
0.0
 10
-16.568599
 20
13.064964
 30
0.0
 10
-16.759235
 20
13.008954
 30
0.0
 10
-16.939752
 20
12.925683
 30
0.0
 10
-17.106851
 20
12.818032
 30
0.0
 10
-17.257743
 20
12.688683
 30
0.0
 10
-17.389760
 20
12.540049
 30
0.0
 10
-17.499921
 20
12.374675
 30
0.0
 10
-17.585159
 20
12.195172
 30
0.0
 10
-17.642228
 20
12.004836
 30
0.0
 10
-17.668260
 20
11.807802
 30
0.0
 10
-17.673732
 20
11.702050
 30
0.0
 10
-17.676841
 20
11.596188
 30
0.0
 10
-17.678068
 20
11.490324
 30
0.0
 10
-17.677883
 20
11.384363
 30
0.0
 10
-17.676809
 20
11.278481
 30
0.0
 10
-17.675310
 20
11.172582
 30
0.0
 10
-17.673870
 20
11.066647
 30
0.0
 10
-17.672977
 20
10.960743
 30
0.0
 10
-17.673116
 20
10.854814
 30
0.0
 10
-17.674773
 20
10.748909
 30
0.0
 10
-17.674495
 20
10.483496
 30
0.0
 10
-17.674865
 20
10.218069
 30
0.0
 10
-17.675559
 20
9.952638
 30
0.0
 10
-17.676314
 20
9.687264
 30
0.0
 10
-17.676841
 20
9.421881
 30
0.0
 10
-17.676863
 20
9.156496
 30
0.0
 10
-17.676095
 20
8.891047
 30
0.0
 10
-17.674248
 20
8.625691
 30
0.0
 10
-17.671041
 20
8.360272
 30
0.0
 10
-17.666193
 20
8.094896
 30
0.0
 10
-17.630675
 20
7.903632
 30
0.0
 10
-17.567011
 20
7.719838
 30
0.0
 10
-17.477822
 20
7.546959
 30
0.0
 10
-17.365791
 20
7.387834
 30
0.0
 10
-17.233553
 20
7.245093
 30
0.0
 10
-17.083500
 20
7.121181
 30
0.0
 10
-16.918113
 20
7.018757
 30
0.0
 10
-16.739934
 20
6.940553
 30
0.0
 10
-16.552227
 20
6.889464
 30
0.0
 10
-16.358906
 20
6.867970
 30
0.0
 10
-16.259956
 20
6.863985
 30
0.0
 10
-16.160918
 20
6.861870
 30
0.0
 10
-16.061889
 20
6.861223
 30
0.0
 10
-15.962864
 20
6.861639
 30
0.0
 10
-15.863822
 20
6.862694
 30
0.0
 10
-15.764767
 20
6.863985
 30
0.0
 10
-15.665680
 20
6.865110
 30
0.0
 10
-15.566621
 20
6.865656
 30
0.0
 10
-15.467536
 20
6.865193
 30
0.0
 10
-15.368466
 20
6.863351
 30
0.0
 10
-14.710237
 20
6.863902
 30
0.0
 10
-14.052024
 20
6.863902
 30
0.0
 10
-13.393827
 20
6.863578
 30
0.0
 10
-12.735648
 20
6.863092
 30
0.0
 10
-12.077487
 20
6.862675
 30
0.0
 10
-11.419340
 20
6.862536
 30
0.0
 10
-10.761126
 20
6.862860
 30
0.0
 10
-10.102962
 20
6.863888
 30
0.0
 10
-9.444750
 20
6.865813
 30
0.0
 10
-8.786556
 20
6.868839
 30
0.0
 10
-8.596571
 20
6.899731
 30
0.0
 10
-8.413175
 20
6.958262
 30
0.0
 10
-8.239831
 20
7.041951
 30
0.0
 10
-8.079340
 20
7.148269
 30
0.0
 10
-7.934203
 20
7.274860
 30
0.0
 10
-7.806995
 20
7.419399
 30
0.0
 10
-7.700327
 20
7.579632
 30
0.0
 10
-7.616960
 20
7.753196
 30
0.0
 10
-7.559852
 20
7.936969
 30
0.0
 10
-7.531543
 20
8.127389
 30
0.0
 10
-7.525348
 20
8.226432
 30
0.0
 10
-7.521803
 20
8.325648
 30
0.0
 10
-7.520364
 20
8.424916
 30
0.0
 10
-7.520503
 20
8.524172
 30
0.0
 10
-7.521627
 20
8.623433
 30
0.0
 10
-7.523210
 20
8.722626
 30
0.0
 10
-7.524700
 20
8.821854
 30
0.0
 10
-7.525552
 20
8.921050
 30
0.0
 10
-7.525228
 20
9.020263
 30
0.0
 10
-7.523150
 20
9.119445
 30
0.0
 10
-7.523788
 20
9.393732
 30
0.0
 10
-7.523650
 20
9.668032
 30
0.0
 10
-7.523034
 20
9.942337
 30
0.0
 10
-7.522266
 20
10.216582
 30
0.0
 10
-7.521660
 20
10.490837
 30
0.0
 10
-7.521521
 20
10.765095
 30
0.0
 10
-7.522196
 20
11.039418
 30
0.0
 10
-7.523983
 20
11.313698
 30
0.0
 10
-7.527204
 20
11.587968
 30
0.0
 10
-7.532171
 20
11.862195
 30
0.0
 10
-7.566899
 20
12.050564
 30
0.0
 10
-7.629013
 20
12.231786
 30
0.0
 10
-7.715986
 20
12.402492
 30
0.0
 10
-7.825189
 20
12.559904
 30
0.0
 10
-7.954147
 20
12.701617
 30
0.0
 10
-8.100487
 20
12.825241
 30
0.0
 10
-8.261963
 20
12.928368
 30
0.0
 10
-8.436035
 20
13.008330
 30
0.0
 10
-8.619863
 20
13.062455
 30
0.0
 10
-8.809664
 20
13.088249
 30
0.0
 10
-8.838333
 20
13.090304
 30
0.0
 10
-8.866982
 20
13.091984
 30
0.0
 10
-8.895653
 20
13.093321
 30
0.0
 10
-8.924380
 20
13.094344
 30
0.0
 10
-8.953039
 20
13.095079
 30
0.0
 10
-8.981767
 20
13.095556
 30
0.0
 10
-9.010465
 20
13.095788
 30
0.0
 10
-9.039137
 20
13.095825
 30
0.0
 10
-9.067850
 20
13.095687
 30
0.0
 10
-9.096560
 20
13.095409
 30
0.0
 10
-9.096560
 20
13.095409
 30
0.0
 10
-9.096560
 20
13.095409
 30
0.0
 10
-9.096560
 20
13.095409
 30
0.0
 10
-9.096560
 20
13.095409
 30
0.0
 10
-9.096560
 20
13.095409
 30
0.0
 10
-9.096560
 20
13.095409
 30
0.0
 10
-9.096560
 20
13.095409
 30
0.0
 10
-9.096560
 20
13.095409
 30
0.0
 10
-9.096560
 20
13.095409
 30
0.0
 10
-9.096560
 20
13.095409
 30
0.0
  0
LWPOLYLINE
  5
118
100
AcDbEntity
  8
Layer_1
 62
7
100
AcDbPolyline
 90
141
 70
0
 10
-16.150000
 20
12.870985
 30
0.0
 10
-15.763540
 20
12.869485
 30
0.0
 10
-15.377085
 20
12.868611
 30
0.0
 10
-14.990638
 20
12.868241
 30
0.0
 10
-14.604198
 20
12.868251
 30
0.0
 10
-14.217763
 20
12.868529
 30
0.0
 10
-13.831276
 20
12.868945
 30
0.0
 10
-13.444817
 20
12.869362
 30
0.0
 10
-13.058382
 20
12.869640
 30
0.0
 10
-12.671915
 20
12.869686
 30
0.0
 10
-12.285451
 20
12.869408
 30
0.0
 10
-11.936301
 20
12.868820
 30
0.0
 10
-11.587153
 20
12.868728
 30
0.0
 10
-11.238009
 20
12.868959
 30
0.0
 10
-10.888873
 20
12.869283
 30
0.0
 10
-10.539747
 20
12.869515
 30
0.0
 10
-10.190579
 20
12.869480
 30
0.0
 10
-9.841447
 20
12.868971
 30
0.0
 10
-9.492349
 20
12.867791
 30
0.0
 10
-9.143236
 20
12.865741
 30
0.0
 10
-8.794145
 20
12.862631
 30
0.0
 10
-8.630962
 20
12.834154
 30
0.0
 10
-8.474047
 20
12.781129
 30
0.0
 10
-8.326403
 20
12.705922
 30
0.0
 10
-8.190630
 20
12.611026
 30
0.0
 10
-8.068869
 20
12.498686
 30
0.0
 10
-7.963284
 20
12.370999
 30
0.0
 10
-7.876216
 20
12.230089
 30
0.0
 10
-7.810137
 20
12.078184
 30
0.0
 10
-7.767646
 20
11.918051
 30
0.0
 10
-7.751044
 20
11.753280
 30
0.0
 10
-7.747934
 20
11.660272
 30
0.0
 10
-7.746379
 20
11.567241
 30
0.0
 10
-7.746055
 20
11.474168
 30
0.0
 10
-7.746564
 20
11.381106
 30
0.0
 10
-7.747582
 20
11.287963
 30
0.0
 10
-7.748758
 20
11.194892
 30
0.0
 10
-7.749743
 20
11.101792
 30
0.0
 10
-7.750206
 20
11.008717
 30
0.0
 10
-7.749743
 20
10.915614
 30
0.0
 10
-7.748063
 20
10.822521
 30
0.0
 10
-7.748614
 20
10.550917
 30
0.0
 10
-7.748429
 20
10.279320
 30
0.0
 10
-7.747809
 20
10.007732
 30
0.0
 10
-7.747055
 20
9.736152
 30
0.0
 10
-7.746476
 20
9.464530
 30
0.0
 10
-7.746384
 20
9.192891
 30
0.0
 10
-7.747069
 20
8.921258
 30
0.0
 10
-7.748846
 20
8.649602
 30
0.0
 10
-7.752016
 20
8.378028
 30
0.0
 10
-7.756889
 20
8.106465
 30
0.0
 10
-7.789412
 20
7.944150
 30
0.0
 10
-7.846273
 20
7.788673
 30
0.0
 10
-7.925035
 20
7.642976
 30
0.0
 10
-8.023146
 20
7.509590
 30
0.0
 10
-8.138316
 20
7.390599
 30
0.0
 10
-8.268362
 20
7.288134
 30
0.0
 10
-8.411239
 20
7.204387
 30
0.0
 10
-8.564571
 20
7.141844
 30
0.0
 10
-8.725490
 20
7.103018
 30
0.0
 10
-8.890457
 20
7.090080
 30
0.0
 10
-8.990965
 20
7.088210
 30
0.0
 10
-9.091483
 20
7.087340
 30
0.0
 10
-9.192036
 20
7.087247
 30
0.0
 10
-9.292570
 20
7.087664
 30
0.0
 10
-9.393186
 20
7.088386
 30
0.0
 10
-9.493722
 20
7.089168
 30
0.0
 10
-9.594290
 20
7.089779
 30
0.0
 10
-9.694833
 20
7.089964
 30
0.0
 10
-9.795412
 20
7.089501
 30
0.0
 10
-9.895988
 20
7.088178
 30
0.0
 10
-10.545821
 20
7.088705
 30
0.0
 10
-11.195640
 20
7.088675
 30
0.0
 10
-11.845444
 20
7.088305
 30
0.0
 10
-12.495230
 20
7.087791
 30
0.0
 10
-13.144999
 20
7.087375
 30
0.0
 10
-13.794752
 20
7.087236
 30
0.0
 10
-14.444571
 20
7.087560
 30
0.0
 10
-15.094338
 20
7.088606
 30
0.0
 10
-15.744148
 20
7.090563
 30
0.0
 10
-16.393939
 20
7.093645
 30
0.0
 10
-16.557299
 20
7.120274
 30
0.0
 10
-16.714612
 20
7.171651
 30
0.0
 10
-16.862787
 20
7.245361
 30
0.0
 10
-16.999306
 20
7.338932
 30
0.0
 10
-17.121962
 20
7.450067
 30
0.0
 10
-17.228642
 20
7.576711
 30
0.0
 10
-17.316975
 20
7.716739
 30
0.0
 10
-17.384437
 20
7.867863
 30
0.0
 10
-17.428435
 20
8.027411
 30
0.0
 10
-17.446590
 20
8.191853
 30
0.0
 10
-17.450302
 20
8.283492
 30
0.0
 10
-17.452204
 20
8.375212
 30
0.0
 10
-17.452699
 20
8.466922
 30
0.0
 10
-17.452185
 20
8.558628
 30
0.0
 10
-17.451066
 20
8.650416
 30
0.0
 10
-17.449742
 20
8.742135
 30
0.0
 10
-17.448617
 20
8.833884
 30
0.0
 10
-17.448090
 20
8.925606
 30
0.0
 10
-17.448562
 20
9.017352
 30
0.0
 10
-17.450432
 20
9.109084
 30
0.0
 10
-17.449802
 20
9.383130
 30
0.0
 10
-17.449941
 20
9.657194
 30
0.0
 10
-17.450570
 20
9.931265
 30
0.0
 10
-17.451352
 20
10.205278
 30
0.0
 10
-17.451963
 20
10.479300
 30
0.0
 10
-17.452102
 20
10.753323
 30
0.0
 10
-17.451422
 20
11.027409
 30
0.0
 10
-17.449617
 20
11.301396
 30
0.0
 10
-17.446368
 20
11.575443
 30
0.0
 10
-17.441356
 20
11.849438
 30
0.0
 10
-17.408954
 20
12.012028
 30
0.0
 10
-17.352173
 20
12.167894
 30
0.0
 10
-17.273496
 20
12.313887
 30
0.0
 10
-17.175379
 20
12.447600
 30
0.0
 10
-17.060097
 20
12.566884
 30
0.0
 10
-16.929832
 20
12.669543
 30
0.0
 10
-16.786684
 20
12.753314
 30
0.0
 10
-16.633032
 20
12.815701
 30
0.0
 10
-16.471703
 20
12.854189
 30
0.0
 10
-16.306387
 20
12.866595
 30
0.0
 10
-16.290744
 20
12.867432
 30
0.0
 10
-16.275085
 20
12.868149
 30
0.0
 10
-16.259458
 20
12.868756
 30
0.0
 10
-16.243859
 20
12.869265
 30
0.0
 10
-16.228192
 20
12.869681
 30
0.0
 10
-16.212543
 20
12.870051
 30
0.0
 10
-16.196912
 20
12.870329
 30
0.0
 10
-16.181248
 20
12.870561
 30
0.0
 10
-16.165628
 20
12.870746
 30
0.0
 10
-16.150006
 20
12.870931
 30
0.0
 10
-16.150007
 20
12.870931
 30
0.0
 10
-16.150007
 20
12.870931
 30
0.0
 10
-16.150007
 20
12.870931
 30
0.0
 10
-16.150007
 20
12.870931
 30
0.0
 10
-16.150007
 20
12.870931
 30
0.0
 10
-16.150007
 20
12.870931
 30
0.0
 10
-16.150007
 20
12.870931
 30
0.0
 10
-16.150007
 20
12.870931
 30
0.0
 10
-16.150007
 20
12.870931
 30
0.0
 10
-16.150007
 20
12.870931
 30
0.0
  0
LWPOLYLINE
  5
119
100
AcDbEntity
  8
Layer_1
 62
7
100
AcDbPolyline
 90
131
 70
0
 10
-15.459933
 20
11.688063
 30
0.0
 10
-15.652866
 20
11.673000
 30
0.0
 10
-15.841009
 20
11.627858
 30
0.0
 10
-16.019656
 20
11.553649
 30
0.0
 10
-16.184491
 20
11.452348
 30
0.0
 10
-16.331589
 20
11.326601
 30
0.0
 10
-16.457388
 20
11.179561
 30
0.0
 10
-16.558741
 20
11.014771
 30
0.0
 10
-16.632996
 20
10.836141
 30
0.0
 10
-16.678153
 20
10.648055
 30
0.0
 10
-16.693223
 20
10.455149
 30
0.0
 10
-16.693223
 20
10.305742
 30
0.0
 10
-16.693223
 20
10.156327
 30
0.0
 10
-16.693223
 20
10.006960
 30
0.0
 10
-16.693223
 20
9.857533
 30
0.0
 10
-16.693223
 20
9.708111
 30
0.0
 10
-16.693223
 20
9.558688
 30
0.0
 10
-16.693223
 20
9.409329
 30
0.0
 10
-16.693223
 20
9.259963
 30
0.0
 10
-16.693223
 20
9.110526
 30
0.0
 10
-16.693223
 20
8.961095
 30
0.0
 10
-16.657203
 20
8.961095
 30
0.0
 10
-16.621203
 20
8.961095
 30
0.0
 10
-16.585215
 20
8.961095
 30
0.0
 10
-16.549208
 20
8.961095
 30
0.0
 10
-16.513216
 20
8.961095
 30
0.0
 10
-16.477146
 20
8.961095
 30
0.0
 10
-16.441075
 20
8.961095
 30
0.0
 10
-16.405070
 20
8.961095
 30
0.0
 10
-16.369025
 20
8.961095
 30
0.0
 10
-16.333029
 20
8.961095
 30
0.0
 10
-16.333029
 20
9.053695
 30
0.0
 10
-16.333029
 20
9.146302
 30
0.0
 10
-16.333029
 20
9.238933
 30
0.0
 10
-16.333029
 20
9.331490
 30
0.0
 10
-16.333029
 20
9.424101
 30
0.0
 10
-16.333029
 20
9.516712
 30
0.0
 10
-16.333029
 20
9.609282
 30
0.0
 10
-16.333029
 20
9.701858
 30
0.0
 10
-16.333029
 20
9.794477
 30
0.0
 10
-16.333029
 20
9.887093
 30
0.0
 10
-15.984276
 20
9.887093
 30
0.0
 10
-15.635502
 20
9.887093
 30
0.0
 10
-15.286737
 20
9.887093
 30
0.0
 10
-14.937992
 20
9.887093
 30
0.0
 10
-14.589207
 20
9.887093
 30
0.0
 10
-14.240501
 20
9.887093
 30
0.0
 10
-13.891724
 20
9.887093
 30
0.0
 10
-13.542998
 20
9.887093
 30
0.0
 10
-13.194251
 20
9.887093
 30
0.0
 10
-12.845526
 20
9.887093
 30
0.0
 10
-12.845526
 20
9.923113
 30
0.0
 10
-12.845526
 20
9.959113
 30
0.0
 10
-12.845526
 20
9.995101
 30
0.0
 10
-12.845526
 20
10.031107
 30
0.0
 10
-12.845526
 20
10.067100
 30
0.0
 10
-12.845526
 20
10.103170
 30
0.0
 10
-12.845526
 20
10.139240
 30
0.0
 10
-12.845526
 20
10.175245
 30
0.0
 10
-12.845526
 20
10.211291
 30
0.0
 10
-12.845526
 20
10.247287
 30
0.0
 10
-13.194278
 20
10.247287
 30
0.0
 10
-13.543053
 20
10.247287
 30
0.0
 10
-13.891819
 20
10.247287
 30
0.0
 10
-14.240563
 20
10.247287
 30
0.0
 10
-14.589348
 20
10.247287
 30
0.0
 10
-14.938054
 20
10.247287
 30
0.0
 10
-15.286831
 20
10.247287
 30
0.0
 10
-15.635556
 20
10.247287
 30
0.0
 10
-15.984304
 20
10.247287
 30
0.0
 10
-16.333029
 20
10.247287
 30
0.0
 10
-16.333029
 20
10.268073
 30
0.0
 10
-16.333029
 20
10.288898
 30
0.0
 10
-16.333029
 20
10.309717
 30
0.0
 10
-16.333029
 20
10.330490
 30
0.0
 10
-16.333029
 20
10.351251
 30
0.0
 10
-16.333029
 20
10.372054
 30
0.0
 10
-16.333029
 20
10.392854
 30
0.0
 10
-16.333029
 20
10.413660
 30
0.0
 10
-16.333029
 20
10.434421
 30
0.0
 10
-16.333029
 20
10.455149
 30
0.0
 10
-16.322649
 20
10.591952
 30
0.0
 10
-16.291304
 20
10.725537
 30
0.0
 10
-16.239349
 20
10.852551
 30
0.0
 10
-16.167950
 20
10.969733
 30
0.0
 10
-16.078941
 20
11.074068
 30
0.0
 10
-15.974519
 20
11.163014
 30
0.0
 10
-15.857325
 20
11.234313
 30
0.0
 10
-15.730329
 20
11.286191
 30
0.0
 10
-15.596777
 20
11.317494
 30
0.0
 10
-15.459933
 20
11.327869
 30
0.0
 10
-15.198491
 20
11.327869
 30
0.0
 10
-14.937032
 20
11.327869
 30
0.0
 10
-14.675580
 20
11.327869
 30
0.0
 10
-14.414106
 20
11.327869
 30
0.0
 10
-14.152643
 20
11.327869
 30
0.0
 10
-13.891182
 20
11.327869
 30
0.0
 10
-13.629740
 20
11.327869
 30
0.0
 10
-13.368338
 20
11.327869
 30
0.0
 10
-13.106922
 20
11.327869
 30
0.0
 10
-12.845526
 20
11.327869
 30
0.0
 10
-12.845526
 20
11.363888
 30
0.0
 10
-12.845526
 20
11.399889
 30
0.0
 10
-12.845526
 20
11.435877
 30
0.0
 10
-12.845526
 20
11.471883
 30
0.0
 10
-12.845526
 20
11.507875
 30
0.0
 10
-12.845526
 20
11.543945
 30
0.0
 10
-12.845526
 20
11.580016
 30
0.0
 10
-12.845526
 20
11.616021
 30
0.0
 10
-12.845526
 20
11.652067
 30
0.0
 10
-12.845526
 20
11.688063
 30
0.0
 10
-13.106969
 20
11.688063
 30
0.0
 10
-13.368427
 20
11.688063
 30
0.0
 10
-13.629880
 20
11.688063
 30
0.0
 10
-13.891353
 20
11.688063
 30
0.0
 10
-14.152817
 20
11.688063
 30
0.0
 10
-14.414278
 20
11.688063
 30
0.0
 10
-14.675720
 20
11.688063
 30
0.0
 10
-14.937121
 20
11.688063
 30
0.0
 10
-15.198537
 20
11.688063
 30
0.0
 10
-15.459933
 20
11.688063
 30
0.0
 10
-15.459933
 20
11.688063
 30
0.0
 10
-15.459933
 20
11.688063
 30
0.0
 10
-15.459933
 20
11.688063
 30
0.0
 10
-15.459933
 20
11.688063
 30
0.0
 10
-15.459933
 20
11.688063
 30
0.0
 10
-15.459933
 20
11.688063
 30
0.0
 10
-15.459933
 20
11.688063
 30
0.0
 10
-15.459933
 20
11.688063
 30
0.0
 10
-15.459933
 20
11.688063
 30
0.0
 10
-15.459933
 20
11.688063
 30
0.0
  0
SPLINE
  5
11a
100
AcDbEntity
  8
Layer_1
 62
7
100
AcDbSpline
 70
8
 71
3
 72
8
 73
4
 74
0
 40
0
 40
0
 40
0
 40
0
 40
1
 40
1
 40
1
 40
1
 10
-8.576716
 20
8.597816
 30
0.0
 10
-9.675397
 20
8.589548
 30
0.0
 10
-10.774570
 20
8.594938
 30
0.0
 10
-11.873440
 20
8.591910
 30
0.0
  0
SPLINE
  5
11b
100
AcDbEntity
  8
Layer_1
 62
7
100
AcDbSpline
 70
8
 71
3
 72
8
 73
4
 74
0
 40
0
 40
0
 40
0
 40
0
 40
1
 40
1
 40
1
 40
1
 10
-11.873440
 20
8.591910
 30
0.0
 10
-13.481945
 20
8.590563
 30
0.0
 10
-15.090450
 20
8.589203
 30
0.0
 10
-16.698955
 20
8.587870
 30
0.0
  0
SPLINE
  5
11c
100
AcDbEntity
  8
Layer_1
 62
7
100
AcDbSpline
 70
8
 71
3
 72
8
 73
4
 74
0
 40
0
 40
0
 40
0
 40
0
 40
1
 40
1
 40
1
 40
1
 10
-16.698955
 20
8.587870
 30
0.0
 10
-16.776345
 20
8.559298
 30
0.0
 10
-16.754135
 20
8.444829
 30
0.0
 10
-16.679060
 20
8.431092
 30
0.0
  0
SPLINE
  5
11d
100
AcDbEntity
  8
Layer_1
 62
7
100
AcDbSpline
 70
8
 71
3
 72
8
 73
4
 74
0
 40
0
 40
0
 40
0
 40
0
 40
1
 40
1
 40
1
 40
1
 10
-16.679060
 20
8.431092
 30
0.0
 10
-16.610256
 20
8.420600
 30
0.0
 10
-16.541793
 20
8.447938
 30
0.0
 10
-16.470950
 20
8.436371
 30
0.0
  0
SPLINE
  5
11e
100
AcDbEntity
  8
Layer_1
 62
7
100
AcDbSpline
 70
8
 71
3
 72
8
 73
4
 74
0
 40
0
 40
0
 40
0
 40
0
 40
1
 40
1
 40
1
 40
1
 10
-16.470950
 20
8.436371
 30
0.0
 10
-13.802267
 20
8.438583
 30
0.0
 10
-11.133585
 20
8.440841
 30
0.0
 10
-8.464902
 20
8.443029
 30
0.0
  0
SPLINE
  5
11f
100
AcDbEntity
  8
Layer_1
 62
7
100
AcDbSpline
 70
8
 71
3
 72
8
 73
4
 74
0
 40
0
 40
0
 40
0
 40
0
 40
1
 40
1
 40
1
 40
1
 10
-8.464902
 20
8.443029
 30
0.0
 10
-8.435078
 20
8.501428
 30
0.0
 10
-8.452500
 20
8.593219
 30
0.0
 10
-8.529762
 20
8.596226
 30
0.0
  0
SPLINE
  5
120
100
AcDbEntity
  8
Layer_1
 62
7
100
AcDbSpline
 70
8
 71
3
 72
8
 73
4
 74
0
 40
0
 40
0
 40
0
 40
0
 40
1
 40
1
 40
1
 40
1
 10
-8.529762
 20
8.596226
 30
0.0
 10
-8.545298
 20
8.598517
 30
0.0
 10
-8.561055
 20
8.598300
 30
0.0
 10
-8.576716
 20
8.597818
 30
0.0
  0
LWPOLYLINE
  5
121
100
AcDbEntity
  8
Layer_1
 62
7
100
AcDbPolyline
 90
151
 70
0
 10
-12.372397
 20
12.497749
 30
0.0
 10
-12.372397
 20
12.144081
 30
0.0
 10
-12.372397
 20
11.790391
 30
0.0
 10
-12.372397
 20
11.436710
 30
0.0
 10
-12.372397
 20
11.083051
 30
0.0
 10
-12.372397
 20
10.729350
 30
0.0
 10
-12.372397
 20
10.375729
 30
0.0
 10
-12.372397
 20
10.022037
 30
0.0
 10
-12.372397
 20
9.668397
 30
0.0
 10
-12.372397
 20
9.314734
 30
0.0
 10
-12.372397
 20
8.961095
 30
0.0
 10
-12.336377
 20
8.961095
 30
0.0
 10
-12.300377
 20
8.961095
 30
0.0
 10
-12.264389
 20
8.961095
 30
0.0
 10
-12.228382
 20
8.961095
 30
0.0
 10
-12.192390
 20
8.961095
 30
0.0
 10
-12.156320
 20
8.961095
 30
0.0
 10
-12.120249
 20
8.961095
 30
0.0
 10
-12.084244
 20
8.961095
 30
0.0
 10
-12.048198
 20
8.961095
 30
0.0
 10
-12.012203
 20
8.961095
 30
0.0
 10
-12.012203
 20
9.107124
 30
0.0
 10
-12.012203
 20
9.253163
 30
0.0
 10
-12.012203
 20
9.399154
 30
0.0
 10
-12.012203
 20
9.545203
 30
0.0
 10
-12.012203
 20
9.691249
 30
0.0
 10
-12.012203
 20
9.837294
 30
0.0
 10
-12.012203
 20
9.983277
 30
0.0
 10
-12.012203
 20
10.129267
 30
0.0
 10
-12.012203
 20
10.275327
 30
0.0
 10
-12.012203
 20
10.421381
 30
0.0
 10
-12.001089
 20
10.564060
 30
0.0
 10
-11.967646
 20
10.703142
 30
0.0
 10
-11.912454
 20
10.835120
 30
0.0
 10
-11.836911
 20
10.956696
 30
0.0
 10
-11.743156
 20
11.064759
 30
0.0
 10
-11.633578
 20
11.156819
 30
0.0
 10
-11.510970
 20
11.230643
 30
0.0
 10
-11.378351
 20
11.284460
 30
0.0
 10
-11.238980
 20
11.317041
 30
0.0
 10
-11.096335
 20
11.327869
 30
0.0
 10
-10.963925
 20
11.327869
 30
0.0
 10
-10.831507
 20
11.327869
 30
0.0
 10
-10.699132
 20
11.327869
 30
0.0
 10
-10.566705
 20
11.327869
 30
0.0
 10
-10.434281
 20
11.327869
 30
0.0
 10
-10.301856
 20
11.327869
 30
0.0
 10
-10.169489
 20
11.327869
 30
0.0
 10
-10.037115
 20
11.327869
 30
0.0
 10
-9.904678
 20
11.327869
 30
0.0
 10
-9.772247
 20
11.327869
 30
0.0
 10
-9.630176
 20
11.317094
 30
0.0
 10
-9.491417
 20
11.284554
 30
0.0
 10
-9.359517
 20
11.230650
 30
0.0
 10
-9.237831
 20
11.156600
 30
0.0
 10
-9.129353
 20
11.064193
 30
0.0
 10
-9.036859
 20
10.955771
 30
0.0
 10
-8.962705
 20
10.834080
 30
0.0
 10
-8.908743
 20
10.702199
 30
0.0
 10
-8.876177
 20
10.563504
 30
0.0
 10
-8.865384
 20
10.421381
 30
0.0
 10
-8.865384
 20
10.275351
 30
0.0
 10
-8.865384
 20
10.129312
 30
0.0
 10
-8.865384
 20
9.983322
 30
0.0
 10
-8.865384
 20
9.837272
 30
0.0
 10
-8.865384
 20
9.691227
 30
0.0
 10
-8.865384
 20
9.545181
 30
0.0
 10
-8.865384
 20
9.399199
 30
0.0
 10
-8.865384
 20
9.253208
 30
0.0
 10
-8.865384
 20
9.107148
 30
0.0
 10
-8.865384
 20
8.961095
 30
0.0
 10
-8.829364
 20
8.961095
 30
0.0
 10
-8.793364
 20
8.961095
 30
0.0
 10
-8.757376
 20
8.961095
 30
0.0
 10
-8.721369
 20
8.961095
 30
0.0
 10
-8.685377
 20
8.961095
 30
0.0
 10
-8.649307
 20
8.961095
 30
0.0
 10
-8.613236
 20
8.961095
 30
0.0
 10
-8.577231
 20
8.961095
 30
0.0
 10
-8.541185
 20
8.961095
 30
0.0
 10
-8.505190
 20
8.961095
 30
0.0
 10
-8.505190
 20
9.107124
 30
0.0
 10
-8.505190
 20
9.253163
 30
0.0
 10
-8.505190
 20
9.399154
 30
0.0
 10
-8.505190
 20
9.545203
 30
0.0
 10
-8.505190
 20
9.691249
 30
0.0
 10
-8.505190
 20
9.837294
 30
0.0
 10
-8.505190
 20
9.983277
 30
0.0
 10
-8.505190
 20
10.129267
 30
0.0
 10
-8.505190
 20
10.275327
 30
0.0
 10
-8.505190
 20
10.421381
 30
0.0
 10
-8.520673
 20
10.619601
 30
0.0
 10
-8.567075
 20
10.812877
 30
0.0
 10
-8.643375
 20
10.996421
 30
0.0
 10
-8.747499
 20
11.165706
 30
0.0
 10
-8.876741
 20
11.316763
 30
0.0
 10
-9.027860
 20
11.445936
 30
0.0
 10
-9.197211
 20
11.549999
 30
0.0
 10
-9.380774
 20
11.626234
 30
0.0
 10
-9.574041
 20
11.672593
 30
0.0
 10
-9.772247
 20
11.688063
 30
0.0
 10
-9.904657
 20
11.688063
 30
0.0
 10
-10.037075
 20
11.688063
 30
0.0
 10
-10.169449
 20
11.688063
 30
0.0
 10
-10.301877
 20
11.688063
 30
0.0
 10
-10.434301
 20
11.688063
 30
0.0
 10
-10.566725
 20
11.688063
 30
0.0
 10
-10.699092
 20
11.688063
 30
0.0
 10
-10.831466
 20
11.688063
 30
0.0
 10
-10.963903
 20
11.688063
 30
0.0
 10
-11.096335
 20
11.688063
 30
0.0
 10
-11.198652
 20
11.683972
 30
0.0
 10
-11.300289
 20
11.671656
 30
0.0
 10
-11.400637
 20
11.651119
 30
0.0
 10
-11.498955
 20
11.622479
 30
0.0
 10
-11.594576
 20
11.585942
 30
0.0
 10
-11.686975
 20
11.541731
 30
0.0
 10
-11.775429
 20
11.490231
 30
0.0
 10
-11.859468
 20
11.431768
 30
0.0
 10
-11.938594
 20
11.366717
 30
0.0
 10
-12.012203
 20
11.295602
 30
0.0
 10
-12.012203
 20
11.415818
 30
0.0
 10
-12.012203
 20
11.536041
 30
0.0
 10
-12.012203
 20
11.656297
 30
0.0
 10
-12.012203
 20
11.776525
 30
0.0
 10
-12.012203
 20
11.896746
 30
0.0
 10
-12.012203
 20
12.016966
 30
0.0
 10
-12.012203
 20
12.137132
 30
0.0
 10
-12.012203
 20
12.257303
 30
0.0
 10
-12.012203
 20
12.377529
 30
0.0
 10
-12.012203
 20
12.497749
 30
0.0
 10
-12.048222
 20
12.497749
 30
0.0
 10
-12.084222
 20
12.497749
 30
0.0
 10
-12.120211
 20
12.497749
 30
0.0
 10
-12.156217
 20
12.497749
 30
0.0
 10
-12.192209
 20
12.497749
 30
0.0
 10
-12.228279
 20
12.497749
 30
0.0
 10
-12.264350
 20
12.497749
 30
0.0
 10
-12.300355
 20
12.497749
 30
0.0
 10
-12.336401
 20
12.497749
 30
0.0
 10
-12.372397
 20
12.497749
 30
0.0
 10
-12.372397
 20
12.497749
 30
0.0
 10
-12.372397
 20
12.497749
 30
0.0
 10
-12.372397
 20
12.497749
 30
0.0
 10
-12.372397
 20
12.497749
 30
0.0
 10
-12.372397
 20
12.497749
 30
0.0
 10
-12.372397
 20
12.497749
 30
0.0
 10
-12.372397
 20
12.497749
 30
0.0
 10
-12.372397
 20
12.497749
 30
0.0
 10
-12.372397
 20
12.497749
 30
0.0
 10
-12.372397
 20
12.497749
 30
0.0
  0
LWPOLYLINE
  5
122
100
AcDbEntity
  8
Layer_1
 62
7
100
AcDbPolyline
 90
2
 70
1
 10
-8.576716
 20
8.597818
 30
0.0
 10
-8.576716
 20
8.597816
 30
0.0
  0
LWPOLYLINE
  5
123
100
AcDbEntity
  8
Layer_1
 62
7
100
AcDbPolyline
 90
141
 70
0
 10
6.182431
 20
13.517708
 30
0.0
 10
5.671289
 20
13.413498
 30
0.0
 10
5.211601
 20
13.166623
 30
0.0
 10
4.839628
 20
12.800781
 30
0.0
 10
4.586859
 20
12.344208
 30
0.0
 10
4.480278
 20
11.833194
 30
0.0
 10
4.471880
 20
11.618237
 30
0.0
 10
4.471671
 20
11.402858
 30
0.0
 10
4.476068
 20
11.187506
 30
0.0
 10
4.480738
 20
10.972605
 30
0.0
 10
4.480278
 20
10.757222
 30
0.0
 10
4.480278
 20
10.755177
 30
0.0
 10
4.480278
 20
10.753584
 30
0.0
 10
4.480278
 20
10.751749
 30
0.0
 10
4.480278
 20
10.749900
 30
0.0
 10
4.480278
 20
10.748403
 30
0.0
 10
4.480187
 20
10.215690
 30
0.0
 10
4.478746
 20
9.683001
 30
0.0
 10
4.478255
 20
9.150087
 30
0.0
 10
4.480971
 20
8.617198
 30
0.0
 10
4.489097
 20
8.084930
 30
0.0
 10
4.489097
 20
8.081529
 30
0.0
 10
4.489097
 20
8.077731
 30
0.0
 10
4.489097
 20
8.074042
 30
0.0
 10
4.489097
 20
8.070871
 30
0.0
 10
4.489097
 20
8.067291
 30
0.0
 10
4.489097
 20
8.063891
 30
0.0
 10
4.489097
 20
8.060092
 30
0.0
 10
4.489097
 20
8.056403
 30
0.0
 10
4.489097
 20
8.053232
 30
0.0
 10
4.489097
 20
8.049653
 30
0.0
 10
4.614426
 20
7.557628
 30
0.0
 10
4.872197
 20
7.119827
 30
0.0
 10
5.240446
 20
6.770100
 30
0.0
 10
5.691739
 20
6.537323
 30
0.0
 10
6.191250
 20
6.444514
 30
0.0
 10
6.193296
 20
6.444514
 30
0.0
 10
6.194888
 20
6.444514
 30
0.0
 10
6.196723
 20
6.444514
 30
0.0
 10
6.198572
 20
6.444514
 30
0.0
 10
6.200069
 20
6.444514
 30
0.0
 10
6.399469
 20
6.438622
 30
0.0
 10
6.598940
 20
6.438930
 30
0.0
 10
6.797932
 20
6.442498
 30
0.0
 10
6.997191
 20
6.445822
 30
0.0
 10
7.196667
 20
6.444514
 30
0.0
 10
7.198712
 20
6.444514
 30
0.0
 10
7.200305
 20
6.444514
 30
0.0
 10
7.202139
 20
6.444514
 30
0.0
 10
7.203989
 20
6.444514
 30
0.0
 10
7.205486
 20
6.444514
 30
0.0
 10
8.522911
 20
6.444499
 30
0.0
 10
9.840567
 20
6.442306
 30
0.0
 10
11.158270
 20
6.440123
 30
0.0
 10
12.476021
 20
6.440131
 30
0.0
 10
13.793611
 20
6.444514
 30
0.0
 10
13.797012
 20
6.444514
 30
0.0
 10
13.800811
 20
6.444514
 30
0.0
 10
13.804500
 20
6.444514
 30
0.0
 10
13.807670
 20
6.444514
 30
0.0
 10
13.811250
 20
6.444514
 30
0.0
 10
13.812951
 20
6.446214
 30
0.0
 10
13.814559
 20
6.447823
 30
0.0
 10
13.816476
 20
6.449740
 30
0.0
 10
13.818449
 20
6.451712
 30
0.0
 10
13.820070
 20
6.453333
 30
0.0
 10
14.310140
 20
6.565871
 30
0.0
 10
14.750550
 20
6.809080
 30
0.0
 10
15.107735
 20
7.163287
 30
0.0
 10
15.352240
 20
7.602826
 30
0.0
 10
15.460486
 20
8.093750
 30
0.0
 10
15.462532
 20
8.093750
 30
0.0
 10
15.464124
 20
8.093750
 30
0.0
 10
15.465959
 20
8.093750
 30
0.0
 10
15.467808
 20
8.093750
 30
0.0
 10
15.469306
 20
8.093750
 30
0.0
 10
15.469345
 20
8.095464
 30
0.0
 10
15.469318
 20
8.097442
 30
0.0
 10
15.469290
 20
8.099039
 30
0.0
 10
15.469267
 20
8.100714
 30
0.0
 10
15.469306
 20
8.102569
 30
0.0
 10
15.479832
 20
8.303489
 30
0.0
 10
15.482258
 20
8.504602
 30
0.0
 10
15.479753
 20
8.705827
 30
0.0
 10
15.476514
 20
8.906979
 30
0.0
 10
15.478125
 20
9.107986
 30
0.0
 10
15.478125
 20
9.110031
 30
0.0
 10
15.478125
 20
9.111624
 30
0.0
 10
15.478125
 20
9.113459
 30
0.0
 10
15.478125
 20
9.115308
 30
0.0
 10
15.478125
 20
9.116805
 30
0.0
 10
15.478125
 20
9.118851
 30
0.0
 10
15.478125
 20
9.120443
 30
0.0
 10
15.478125
 20
9.122278
 30
0.0
 10
15.478125
 20
9.124127
 30
0.0
 10
15.478125
 20
9.125625
 30
0.0
 10
15.477695
 20
9.675792
 30
0.0
 10
15.479186
 20
10.226036
 30
0.0
 10
15.479985
 20
10.776605
 30
0.0
 10
15.477527
 20
11.327231
 30
0.0
 10
15.469306
 20
11.877291
 30
0.0
 10
15.469306
 20
11.880692
 30
0.0
 10
15.469306
 20
11.884491
 30
0.0
 10
15.469306
 20
11.888180
 30
0.0
 10
15.469306
 20
11.891351
 30
0.0
 10
15.469306
 20
11.894930
 30
0.0
 10
15.467605
 20
11.898331
 30
0.0
 10
15.465706
 20
11.902130
 30
0.0
 10
15.463861
 20
11.905819
 30
0.0
 10
15.462276
 20
11.908989
 30
0.0
 10
15.460486
 20
11.912569
 30
0.0
 10
15.337663
 20
12.396454
 30
0.0
 10
15.084942
 20
12.827454
 30
0.0
 10
14.724421
 20
13.173078
 30
0.0
 10
14.283095
 20
13.407128
 30
0.0
 10
13.793611
 20
13.508889
 30
0.0
 10
13.730196
 20
13.512955
 30
0.0
 10
13.666840
 20
13.515741
 30
0.0
 10
13.603025
 20
13.517398
 30
0.0
 10
13.539330
 20
13.518017
 30
0.0
 10
13.476111
 20
13.517708
 30
0.0
 10
12.020828
 20
13.516263
 30
0.0
 10
10.565453
 20
13.517447
 30
0.0
 10
9.110176
 20
13.519350
 30
0.0
 10
7.654976
 20
13.520071
 30
0.0
 10
6.200069
 20
13.517708
 30
0.0
 10
6.198024
 20
13.517708
 30
0.0
 10
6.196431
 20
13.517708
 30
0.0
 10
6.194597
 20
13.517708
 30
0.0
 10
6.192747
 20
13.517708
 30
0.0
 10
6.191250
 20
13.517708
 30
0.0
 10
6.189204
 20
13.517708
 30
0.0
 10
6.187612
 20
13.517708
 30
0.0
 10
6.185777
 20
13.517708
 30
0.0
 10
6.183928
 20
13.517708
 30
0.0
 10
6.182431
 20
13.517708
 30
0.0
 10
6.182431
 20
13.517708
 30
0.0
 10
6.182431
 20
13.517708
 30
0.0
 10
6.182431
 20
13.517708
 30
0.0
 10
6.182431
 20
13.517708
 30
0.0
 10
6.182431
 20
13.517708
 30
0.0
  0
LWPOLYLINE
  5
124
100
AcDbEntity
  8
Layer_1
 62
7
100
AcDbPolyline
 90
66
 70
0
 10
6.200069
 20
13.094375
 30
0.0
 10
7.655270
 20
13.096735
 30
0.0
 10
9.110503
 20
13.096008
 30
0.0
 10
10.565429
 20
13.094101
 30
0.0
 10
12.020840
 20
13.092921
 30
0.0
 10
13.476111
 20
13.094375
 30
0.0
 10
13.534300
 20
13.094623
 30
0.0
 10
13.592663
 20
13.093931
 30
0.0
 10
13.650976
 20
13.092244
 30
0.0
 10
13.708939
 20
13.089499
 30
0.0
 10
13.767153
 20
13.085555
 30
0.0
 10
14.140848
 20
13.005679
 30
0.0
 10
14.476860
 20
12.822553
 30
0.0
 10
14.752606
 20
12.557157
 30
0.0
 10
14.948996
 20
12.229217
 30
0.0
 10
15.045972
 20
11.859653
 30
0.0
 10
15.054136
 20
11.311372
 30
0.0
 10
15.056548
 20
10.762772
 30
0.0
 10
15.055760
 20
10.214228
 30
0.0
 10
15.054323
 20
9.665480
 30
0.0
 10
15.054792
 20
9.116805
 30
0.0
 10
15.052335
 20
8.919098
 30
0.0
 10
15.054576
 20
8.721567
 30
0.0
 10
15.057171
 20
8.523872
 30
0.0
 10
15.055739
 20
8.326272
 30
0.0
 10
15.045972
 20
8.129028
 30
0.0
 10
14.960864
 20
7.754649
 30
0.0
 10
14.771603
 20
7.420305
 30
0.0
 10
14.500062
 20
7.148330
 30
0.0
 10
14.166805
 20
6.957579
 30
0.0
 10
13.793611
 20
6.867847
 30
0.0
 10
12.476155
 20
6.863470
 30
0.0
 10
11.158355
 20
6.863466
 30
0.0
 10
9.840551
 20
6.865648
 30
0.0
 10
8.523203
 20
6.867835
 30
0.0
 10
7.205486
 20
6.867847
 30
0.0
 10
7.007950
 20
6.869653
 30
0.0
 10
6.810395
 20
6.866846
 30
0.0
 10
6.612590
 20
6.863127
 30
0.0
 10
6.415290
 20
6.862230
 30
0.0
 10
6.217708
 20
6.867847
 30
0.0
 10
5.837153
 20
6.940233
 30
0.0
 10
5.494058
 20
7.120533
 30
0.0
 10
5.212278
 20
7.386862
 30
0.0
 10
5.011360
 20
7.718904
 30
0.0
 10
4.912431
 20
8.093750
 30
0.0
 10
4.904353
 20
8.624667
 30
0.0
 10
4.901681
 20
9.155573
 30
0.0
 10
4.902163
 20
9.686453
 30
0.0
 10
4.903555
 20
10.217503
 30
0.0
 10
4.903611
 20
10.748403
 30
0.0
 10
4.904724
 20
10.960359
 30
0.0
 10
4.900772
 20
11.172034
 30
0.0
 10
4.896270
 20
11.383460
 30
0.0
 10
4.895710
 20
11.595137
 30
0.0
 10
4.903611
 20
11.806736
 30
0.0
 10
4.986693
 20
12.194556
 30
0.0
 10
5.182009
 20
12.540482
 30
0.0
 10
5.464559
 20
12.819563
 30
0.0
 10
5.811899
 20
13.011619
 30
0.0
 10
6.200069
 20
13.094375
 30
0.0
 10
6.200069
 20
13.094375
 30
0.0
 10
6.200069
 20
13.094375
 30
0.0
 10
6.200069
 20
13.094375
 30
0.0
 10
6.200069
 20
13.094375
 30
0.0
 10
6.200069
 20
13.094375
 30
0.0
  0
LWPOLYLINE
  5
125
100
AcDbEntity
  8
Layer_1
 62
7
100
AcDbPolyline
 90
71
 70
0
 10
6.270625
 20
12.873889
 30
0.0
 10
5.944012
 20
12.822186
 30
0.0
 10
5.648393
 20
12.674114
 30
0.0
 10
5.404908
 20
12.450272
 30
0.0
 10
5.230120
 20
12.169527
 30
0.0
 10
5.141736
 20
11.850833
 30
0.0
 10
5.133509
 20
11.304057
 30
0.0
 10
5.131083
 20
10.757445
 30
0.0
 10
5.131896
 20
10.210785
 30
0.0
 10
5.133367
 20
9.663680
 30
0.0
 10
5.132917
 20
9.116805
 30
0.0
 10
5.134858
 20
8.933167
 30
0.0
 10
5.132249
 20
8.749719
 30
0.0
 10
5.128674
 20
8.566457
 30
0.0
 10
5.127701
 20
8.382976
 30
0.0
 10
5.132917
 20
8.199583
 30
0.0
 10
5.195913
 20
7.874454
 30
0.0
 10
5.353167
 20
7.582543
 30
0.0
 10
5.583692
 20
7.344074
 30
0.0
 10
5.869219
 20
7.175911
 30
0.0
 10
6.191250
 20
7.097153
 30
0.0
 10
7.489745
 20
7.092675
 30
0.0
 10
8.787715
 20
7.092637
 30
0.0
 10
10.086024
 20
7.094841
 30
0.0
 10
11.384348
 20
7.097080
 30
0.0
 10
12.682361
 20
7.097153
 30
0.0
 10
12.883664
 20
7.098721
 30
0.0
 10
13.084709
 20
7.097447
 30
0.0
 10
13.285547
 20
7.095393
 30
0.0
 10
13.486668
 20
7.094608
 30
0.0
 10
13.687778
 20
7.097153
 30
0.0
 10
14.014171
 20
7.148755
 30
0.0
 10
14.310891
 20
7.294191
 30
0.0
 10
14.557523
 20
7.515004
 30
0.0
 10
14.735557
 20
7.793575
 30
0.0
 10
14.825486
 20
8.111389
 30
0.0
 10
14.833528
 20
8.654681
 30
0.0
 10
14.835992
 20
9.197821
 30
0.0
 10
14.835322
 20
9.741087
 30
0.0
 10
14.833949
 20
10.284556
 30
0.0
 10
14.834306
 20
10.827778
 30
0.0
 10
14.832499
 20
11.014544
 30
0.0
 10
14.834678
 20
11.201702
 30
0.0
 10
14.837755
 20
11.388870
 30
0.0
 10
14.838662
 20
11.575717
 30
0.0
 10
14.834306
 20
11.762639
 30
0.0
 10
14.774459
 20
12.087066
 30
0.0
 10
14.619310
 20
12.378597
 30
0.0
 10
14.389857
 20
12.616461
 30
0.0
 10
14.105261
 20
12.784413
 30
0.0
 10
13.784792
 20
12.865069
 30
0.0
 10
13.086223
 20
12.870447
 30
0.0
 10
12.387733
 20
12.872652
 30
0.0
 10
11.689320
 20
12.873052
 30
0.0
 10
10.990705
 20
12.873009
 30
0.0
 10
10.292292
 20
12.873889
 30
0.0
 10
9.519736
 20
12.873946
 30
0.0
 10
8.747170
 20
12.872840
 30
0.0
 10
7.974307
 20
12.871706
 30
0.0
 10
7.201946
 20
12.871678
 30
0.0
 10
6.429375
 20
12.873889
 30
0.0
 10
6.397340
 20
12.873968
 30
0.0
 10
6.365589
 20
12.874521
 30
0.0
 10
6.333860
 20
12.875031
 30
0.0
 10
6.302067
 20
12.874992
 30
0.0
 10
6.270625
 20
12.873889
 30
0.0
 10
6.270625
 20
12.873889
 30
0.0
 10
6.270625
 20
12.873889
 30
0.0
 10
6.270625
 20
12.873889
 30
0.0
 10
6.270625
 20
12.873889
 30
0.0
 10
6.270625
 20
12.873889
 30
0.0
  0
LWPOLYLINE
  5
126
100
AcDbEntity
  8
Layer_1
 62
7
100
AcDbPolyline
 90
76
 70
0
 10
10.212917
 20
12.503472
 30
0.0
 10
10.283459
 20
12.503472
 30
0.0
 10
10.354224
 20
12.503472
 30
0.0
 10
10.424669
 20
12.503472
 30
0.0
 10
10.495033
 20
12.503472
 30
0.0
 10
10.565694
 20
12.503472
 30
0.0
 10
10.565694
 20
12.263629
 30
0.0
 10
10.565694
 20
12.023644
 30
0.0
 10
10.565694
 20
11.783985
 30
0.0
 10
10.565694
 20
11.543912
 30
0.0
 10
10.565694
 20
11.304028
 30
0.0
 10
10.718476
 20
11.439639
 30
0.0
 10
10.891565
 20
11.548631
 30
0.0
 10
11.079833
 20
11.627988
 30
0.0
 10
11.278913
 20
11.676117
 30
0.0
 10
11.482917
 20
11.692083
 30
0.0
 10
11.747449
 20
11.692083
 30
0.0
 10
12.012139
 20
11.692083
 30
0.0
 10
12.276468
 20
11.692083
 30
0.0
 10
12.541255
 20
11.692083
 30
0.0
 10
12.805833
 20
11.692083
 30
0.0
 10
13.197337
 20
11.630888
 30
0.0
 10
13.550705
 20
11.452267
 30
0.0
 10
13.832258
 20
11.173639
 30
0.0
 10
14.013624
 20
10.821946
 30
0.0
 10
14.075833
 20
10.430903
 30
0.0
 10
14.075833
 20
10.138153
 30
0.0
 10
14.075833
 20
9.845230
 30
0.0
 10
14.075833
 20
9.552705
 30
0.0
 10
14.075833
 20
9.259675
 30
0.0
 10
14.075833
 20
8.966875
 30
0.0
 10
14.003528
 20
8.966875
 30
0.0
 10
13.930994
 20
8.966875
 30
0.0
 10
13.858788
 20
8.966875
 30
0.0
 10
13.786664
 20
8.966875
 30
0.0
 10
13.714236
 20
8.966875
 30
0.0
 10
13.714236
 20
9.259624
 30
0.0
 10
13.714236
 20
9.552547
 30
0.0
 10
13.714236
 20
9.845072
 30
0.0
 10
13.714236
 20
10.138102
 30
0.0
 10
13.714236
 20
10.430903
 30
0.0
 10
13.670780
 20
10.710866
 30
0.0
 10
13.541898
 20
10.963332
 30
0.0
 10
13.339875
 20
11.162266
 30
0.0
 10
13.086145
 20
11.288063
 30
0.0
 10
12.805833
 20
11.330486
 30
0.0
 10
12.541301
 20
11.330486
 30
0.0
 10
12.276611
 20
11.330486
 30
0.0
 10
12.012282
 20
11.330486
 30
0.0
 10
11.747496
 20
11.330486
 30
0.0
 10
11.482917
 20
11.330486
 30
0.0
 10
11.201213
 20
11.287899
 30
0.0
 10
10.945683
 20
11.162173
 30
0.0
 10
10.741657
 20
10.964069
 30
0.0
 10
10.610276
 20
10.711643
 30
0.0
 10
10.565694
 20
10.430903
 30
0.0
 10
10.565694
 20
10.138153
 30
0.0
 10
10.565694
 20
9.845230
 30
0.0
 10
10.565694
 20
9.552705
 30
0.0
 10
10.565694
 20
9.259675
 30
0.0
 10
10.565694
 20
8.966875
 30
0.0
 10
10.495153
 20
8.966875
 30
0.0
 10
10.424388
 20
8.966875
 30
0.0
 10
10.353943
 20
8.966875
 30
0.0
 10
10.283578
 20
8.966875
 30
0.0
 10
10.212917
 20
8.966875
 30
0.0
 10
10.212917
 20
9.674058
 30
0.0
 10
10.212917
 20
10.381662
 30
0.0
 10
10.212917
 20
11.089024
 30
0.0
 10
10.212917
 20
11.796104
 30
0.0
 10
10.212917
 20
12.503472
 30
0.0
 10
10.212917
 20
12.503472
 30
0.0
 10
10.212917
 20
12.503472
 30
0.0
 10
10.212917
 20
12.503472
 30
0.0
 10
10.212917
 20
12.503472
 30
0.0
 10
10.212917
 20
12.503472
 30
0.0
  0
LWPOLYLINE
  5
127
100
AcDbEntity
  8
Layer_1
 62
7
100
AcDbPolyline
 90
66
 70
0
 10
7.117292
 20
11.692083
 30
0.0
 10
7.641066
 20
11.692083
 30
0.0
 10
8.165152
 20
11.692083
 30
0.0
 10
8.689058
 20
11.692083
 30
0.0
 10
9.213096
 20
11.692083
 30
0.0
 10
9.736667
 20
11.692083
 30
0.0
 10
9.736667
 20
11.619778
 30
0.0
 10
9.736667
 20
11.547244
 30
0.0
 10
9.736667
 20
11.475037
 30
0.0
 10
9.736667
 20
11.402914
 30
0.0
 10
9.736667
 20
11.330486
 30
0.0
 10
9.212893
 20
11.330486
 30
0.0
 10
8.688807
 20
11.330486
 30
0.0
 10
8.164900
 20
11.330486
 30
0.0
 10
7.640863
 20
11.330486
 30
0.0
 10
7.117292
 20
11.330486
 30
0.0
 10
6.847006
 20
11.288804
 30
0.0
 10
6.602600
 20
11.165420
 30
0.0
 10
6.409189
 20
10.971994
 30
0.0
 10
6.285862
 20
10.727688
 30
0.0
 10
6.244167
 20
10.457361
 30
0.0
 10
6.244167
 20
10.416799
 30
0.0
 10
6.244167
 20
10.376110
 30
0.0
 10
6.244167
 20
10.335604
 30
0.0
 10
6.244167
 20
10.295144
 30
0.0
 10
6.244167
 20
10.254514
 30
0.0
 10
6.942532
 20
10.254514
 30
0.0
 10
7.641313
 20
10.254514
 30
0.0
 10
8.339855
 20
10.254514
 30
0.0
 10
9.038119
 20
10.254514
 30
0.0
 10
9.736667
 20
10.254514
 30
0.0
 10
9.736667
 20
10.182208
 30
0.0
 10
9.736667
 20
10.109674
 30
0.0
 10
9.736667
 20
10.037468
 30
0.0
 10
9.736667
 20
9.965344
 30
0.0
 10
9.736667
 20
9.892916
 30
0.0
 10
9.038301
 20
9.892916
 30
0.0
 10
8.339520
 20
9.892916
 30
0.0
 10
7.640978
 20
9.892916
 30
0.0
 10
6.942715
 20
9.892916
 30
0.0
 10
6.244167
 20
9.892916
 30
0.0
 10
6.244167
 20
9.707744
 30
0.0
 10
6.244167
 20
9.522461
 30
0.0
 10
6.244167
 20
9.337430
 30
0.0
 10
6.244167
 20
9.152080
 30
0.0
 10
6.244167
 20
8.966875
 30
0.0
 10
6.173625
 20
8.966875
 30
0.0
 10
6.102860
 20
8.966875
 30
0.0
 10
6.032415
 20
8.966875
 30
0.0
 10
5.962050
 20
8.966875
 30
0.0
 10
5.891389
 20
8.966875
 30
0.0
 10
5.891389
 20
9.264915
 30
0.0
 10
5.891389
 20
9.563132
 30
0.0
 10
5.891389
 20
9.860943
 30
0.0
 10
5.891389
 20
10.159269
 30
0.0
 10
5.891389
 20
10.457361
 30
0.0
 10
5.950649
 20
10.837815
 30
0.0
 10
6.124051
 20
11.181576
 30
0.0
 10
6.394779
 20
11.455346
 30
0.0
 10
6.737111
 20
11.631750
 30
0.0
 10
7.117292
 20
11.692083
 30
0.0
 10
7.117292
 20
11.692083
 30
0.0
 10
7.117292
 20
11.692083
 30
0.0
 10
7.117292
 20
11.692083
 30
0.0
 10
7.117292
 20
11.692083
 30
0.0
 10
7.117292
 20
11.692083
 30
0.0
  0
LWPOLYLINE
  5
128
100
AcDbEntity
  8
Layer_1
 62
7
100
AcDbPolyline
 90
41
 70
0
 10
14.005278
 20
8.605278
 30
0.0
 10
14.013832
 20
8.605679
 30
0.0
 10
14.022689
 20
8.606151
 30
0.0
 10
14.031656
 20
8.606414
 30
0.0
 10
14.040328
 20
8.606198
 30
0.0
 10
14.049375
 20
8.605278
 30
0.0
 10
14.088458
 20
8.593708
 30
0.0
 10
14.116459
 20
8.564436
 30
0.0
 10
14.130358
 20
8.526068
 30
0.0
 10
14.131498
 20
8.485459
 30
0.0
 10
14.119931
 20
8.446528
 30
0.0
 10
12.518413
 20
8.444954
 30
0.0
 10
10.916730
 20
8.443081
 30
0.0
 10
9.315342
 20
8.441114
 30
0.0
 10
7.713464
 20
8.439254
 30
0.0
 10
6.111875
 20
8.437708
 30
0.0
 10
6.069430
 20
8.441142
 30
0.0
 10
6.027038
 20
8.439714
 30
0.0
 10
5.985005
 20
8.436574
 30
0.0
 10
5.942321
 20
8.434787
 30
0.0
 10
5.900208
 20
8.437708
 30
0.0
 10
5.862842
 20
8.456094
 30
0.0
 10
5.839306
 20
8.491224
 30
0.0
 10
5.833796
 20
8.532943
 30
0.0
 10
5.848851
 20
8.572148
 30
0.0
 10
5.882569
 20
8.596458
 30
0.0
 10
6.847304
 20
8.596865
 30
0.0
 10
7.812148
 20
8.596661
 30
0.0
 10
8.777049
 20
8.596255
 30
0.0
 10
9.741835
 20
8.596052
 30
0.0
 10
10.706806
 20
8.596458
 30
0.0
 10
11.366582
 20
8.597745
 30
0.0
 10
12.026342
 20
8.598494
 30
0.0
 10
12.686021
 20
8.599482
 30
0.0
 10
13.345815
 20
8.601484
 30
0.0
 10
14.005278
 20
8.605278
 30
0.0
 10
14.005278
 20
8.605278
 30
0.0
 10
14.005278
 20
8.605278
 30
0.0
 10
14.005278
 20
8.605278
 30
0.0
 10
14.005278
 20
8.605278
 30
0.0
 10
14.005278
 20
8.605278
 30
0.0
  0
LWPOLYLINE
  5
129
100
AcDbEntity
  8
Layer_1
 62
7
100
AcDbPolyline
 90
26
 70
0
 10
8.457847
 20
8.349514
 30
0.0
 10
8.487828
 20
8.349514
 30
0.0
 10
8.517595
 20
8.349514
 30
0.0
 10
8.547852
 20
8.349514
 30
0.0
 10
8.577752
 20
8.349514
 30
0.0
 10
8.607778
 20
8.349514
 30
0.0
 10
8.607778
 20
8.321297
 30
0.0
 10
8.607778
 20
8.293280
 30
0.0
 10
8.607778
 20
8.265265
 30
0.0
 10
8.607778
 20
8.236918
 30
0.0
 10
8.607778
 20
8.208403
 30
0.0
 10
8.577797
 20
8.208403
 30
0.0
 10
8.548030
 20
8.208403
 30
0.0
 10
8.517773
 20
8.208403
 30
0.0
 10
8.487873
 20
8.208403
 30
0.0
 10
8.457847
 20
8.208403
 30
0.0
 10
8.457847
 20
8.236619
 30
0.0
 10
8.457847
 20
8.264636
 30
0.0
 10
8.457847
 20
8.292651
 30
0.0
 10
8.457847
 20
8.320999
 30
0.0
 10
8.457847
 20
8.349514
 30
0.0
 10
8.457847
 20
8.349514
 30
0.0
 10
8.457847
 20
8.349514
 30
0.0
 10
8.457847
 20
8.349514
 30
0.0
 10
8.457847
 20
8.349514
 30
0.0
 10
8.457847
 20
8.349514
 30
0.0
  0
LWPOLYLINE
  5
12a
100
AcDbEntity
  8
Layer_1
 62
7
100
AcDbPolyline
 90
26
 70
0
 10
8.810625
 20
8.349514
 30
0.0
 10
8.838842
 20
8.349514
 30
0.0
 10
8.866858
 20
8.349514
 30
0.0
 10
8.894874
 20
8.349514
 30
0.0
 10
8.923221
 20
8.349514
 30
0.0
 10
8.951736
 20
8.349514
 30
0.0
 10
8.951736
 20
8.321297
 30
0.0
 10
8.951736
 20
8.293280
 30
0.0
 10
8.951736
 20
8.265265
 30
0.0
 10
8.951736
 20
8.236918
 30
0.0
 10
8.951736
 20
8.208403
 30
0.0
 10
8.923519
 20
8.208403
 30
0.0
 10
8.895503
 20
8.208403
 30
0.0
 10
8.867487
 20
8.208403
 30
0.0
 10
8.839140
 20
8.208403
 30
0.0
 10
8.810625
 20
8.208403
 30
0.0
 10
8.810625
 20
8.236619
 30
0.0
 10
8.810625
 20
8.264636
 30
0.0
 10
8.810625
 20
8.292651
 30
0.0
 10
8.810625
 20
8.320999
 30
0.0
 10
8.810625
 20
8.349514
 30
0.0
 10
8.810625
 20
8.349514
 30
0.0
 10
8.810625
 20
8.349514
 30
0.0
 10
8.810625
 20
8.349514
 30
0.0
 10
8.810625
 20
8.349514
 30
0.0
 10
8.810625
 20
8.349514
 30
0.0
  0
LWPOLYLINE
  5
12b
100
AcDbEntity
  8
Layer_1
 62
7
100
AcDbPolyline
 90
46
 70
0
 10
6.217708
 20
8.199583
 30
0.0
 10
6.266215
 20
8.196456
 30
0.0
 10
6.313987
 20
8.186346
 30
0.0
 10
6.359393
 20
8.168625
 30
0.0
 10
6.401356
 20
8.143188
 30
0.0
 10
6.438194
 20
8.111389
 30
0.0
 10
6.469809
 20
8.074396
 30
0.0
 10
6.495167
 20
8.032698
 30
0.0
 10
6.513006
 20
7.987428
 30
0.0
 10
6.523210
 20
7.939740
 30
0.0
 10
6.526389
 20
7.890903
 30
0.0
 10
6.523082
 20
7.840464
 30
0.0
 10
6.512804
 20
7.791058
 30
0.0
 10
6.495252
 20
7.743983
 30
0.0
 10
6.470262
 20
7.700303
 30
0.0
 10
6.438194
 20
7.661597
 30
0.0
 10
6.401324
 20
7.630802
 30
0.0
 10
6.359153
 20
7.607688
 30
0.0
 10
6.313256
 20
7.592548
 30
0.0
 10
6.265518
 20
7.584540
 30
0.0
 10
6.217708
 20
7.582222
 30
0.0
 10
6.169826
 20
7.584561
 30
0.0
 10
6.122344
 20
7.592554
 30
0.0
 10
6.076658
 20
7.607611
 30
0.0
 10
6.034388
 20
7.630701
 30
0.0
 10
5.997222
 20
7.661597
 30
0.0
 10
5.966147
 20
7.700407
 30
0.0
 10
5.943417
 20
7.744435
 30
0.0
 10
5.928388
 20
7.792219
 30
0.0
 10
5.920303
 20
7.841278
 30
0.0
 10
5.917847
 20
7.890903
 30
0.0
 10
5.920225
 20
7.939147
 30
0.0
 10
5.928308
 20
7.986669
 30
0.0
 10
5.943449
 20
8.032177
 30
0.0
 10
5.966527
 20
8.074234
 30
0.0
 10
5.997222
 20
8.111389
 30
0.0
 10
6.034225
 20
8.143212
 30
0.0
 10
6.076134
 20
8.168584
 30
0.0
 10
6.121584
 20
8.186337
 30
0.0
 10
6.169235
 20
8.196445
 30
0.0
 10
6.217708
 20
8.199583
 30
0.0
 10
6.217708
 20
8.199583
 30
0.0
 10
6.217708
 20
8.199583
 30
0.0
 10
6.217708
 20
8.199583
 30
0.0
 10
6.217708
 20
8.199583
 30
0.0
 10
6.217708
 20
8.199583
 30
0.0
  0
LWPOLYLINE
  5
12c
100
AcDbEntity
  8
Layer_1
 62
7
100
AcDbPolyline
 90
46
 70
0
 10
8.704792
 20
8.199583
 30
0.0
 10
8.753298
 20
8.196456
 30
0.0
 10
8.801070
 20
8.186346
 30
0.0
 10
8.846476
 20
8.168625
 30
0.0
 10
8.888439
 20
8.143188
 30
0.0
 10
8.925278
 20
8.111389
 30
0.0
 10
8.956892
 20
8.074396
 30
0.0
 10
8.982250
 20
8.032698
 30
0.0
 10
9.000089
 20
7.987428
 30
0.0
 10
9.010293
 20
7.939740
 30
0.0
 10
9.013472
 20
7.890903
 30
0.0
 10
9.010165
 20
7.840464
 30
0.0
 10
8.999887
 20
7.791058
 30
0.0
 10
8.982336
 20
7.743983
 30
0.0
 10
8.957345
 20
7.700303
 30
0.0
 10
8.925278
 20
7.661597
 30
0.0
 10
8.888407
 20
7.630802
 30
0.0
 10
8.846236
 20
7.607688
 30
0.0
 10
8.800339
 20
7.592548
 30
0.0
 10
8.752601
 20
7.584540
 30
0.0
 10
8.704792
 20
7.582222
 30
0.0
 10
8.656909
 20
7.584561
 30
0.0
 10
8.609428
 20
7.592554
 30
0.0
 10
8.563741
 20
7.607611
 30
0.0
 10
8.521471
 20
7.630701
 30
0.0
 10
8.484306
 20
7.661597
 30
0.0
 10
8.453230
 20
7.700407
 30
0.0
 10
8.430500
 20
7.744435
 30
0.0
 10
8.415472
 20
7.792219
 30
0.0
 10
8.407386
 20
7.841278
 30
0.0
 10
8.404931
 20
7.890903
 30
0.0
 10
8.407309
 20
7.939147
 30
0.0
 10
8.415392
 20
7.986669
 30
0.0
 10
8.430533
 20
8.032177
 30
0.0
 10
8.453610
 20
8.074234
 30
0.0
 10
8.484306
 20
8.111389
 30
0.0
 10
8.521309
 20
8.143212
 30
0.0
 10
8.563218
 20
8.168584
 30
0.0
 10
8.608667
 20
8.186337
 30
0.0
 10
8.656318
 20
8.196445
 30
0.0
 10
8.704792
 20
8.199583
 30
0.0
 10
8.704792
 20
8.199583
 30
0.0
 10
8.704792
 20
8.199583
 30
0.0
 10
8.704792
 20
8.199583
 30
0.0
 10
8.704792
 20
8.199583
 30
0.0
 10
8.704792
 20
8.199583
 30
0.0
  0
LWPOLYLINE
  5
12d
100
AcDbEntity
  8
Layer_1
 62
7
100
AcDbPolyline
 90
146
 70
0
 10
9.330972
 20
8.199583
 30
0.0
 10
9.350541
 20
8.199132
 30
0.0
 10
9.370082
 20
8.197848
 30
0.0
 10
9.389501
 20
8.195895
 30
0.0
 10
9.409015
 20
8.193438
 30
0.0
 10
9.427986
 20
8.190764
 30
0.0
 10
9.449385
 20
8.186975
 30
0.0
 10
9.470702
 20
8.181903
 30
0.0
 10
9.491568
 20
8.176195
 30
0.0
 10
9.512504
 20
8.170210
 30
0.0
 10
9.533819
 20
8.164305
 30
0.0
 10
9.533819
 20
8.139616
 30
0.0
 10
9.533819
 20
8.115101
 30
0.0
 10
9.533819
 20
8.090588
 30
0.0
 10
9.533819
 20
8.065784
 30
0.0
 10
9.533819
 20
8.040833
 30
0.0
 10
9.514680
 20
8.049178
 30
0.0
 10
9.495499
 20
8.057022
 30
0.0
 10
9.476359
 20
8.064187
 30
0.0
 10
9.456956
 20
8.070601
 30
0.0
 10
9.436806
 20
8.076111
 30
0.0
 10
9.421009
 20
8.079545
 30
0.0
 10
9.405093
 20
8.082187
 30
0.0
 10
9.389295
 20
8.083882
 30
0.0
 10
9.373265
 20
8.084723
 30
0.0
 10
9.357431
 20
8.084930
 30
0.0
 10
9.339312
 20
8.084310
 30
0.0
 10
9.321223
 20
8.082445
 30
0.0
 10
9.303177
 20
8.079222
 30
0.0
 10
9.285640
 20
8.074408
 30
0.0
 10
9.269236
 20
8.067291
 30
0.0
 10
9.260318
 20
8.061302
 30
0.0
 10
9.252689
 20
8.053883
 30
0.0
 10
9.246865
 20
8.044502
 30
0.0
 10
9.243680
 20
8.034000
 30
0.0
 10
9.242778
 20
8.023194
 30
0.0
 10
9.243409
 20
8.014818
 30
0.0
 10
9.245506
 20
8.006852
 30
0.0
 10
9.249187
 20
7.999640
 30
0.0
 10
9.254119
 20
7.993508
 30
0.0
 10
9.260417
 20
7.987916
 30
0.0
 10
9.273465
 20
7.980317
 30
0.0
 10
9.287347
 20
7.974259
 30
0.0
 10
9.301782
 20
7.969125
 30
0.0
 10
9.316404
 20
7.964859
 30
0.0
 10
9.330972
 20
7.961458
 30
0.0
 10
9.343465
 20
7.959673
 30
0.0
 10
9.355716
 20
7.957923
 30
0.0
 10
9.367940
 20
7.956177
 30
0.0
 10
9.380550
 20
7.954376
 30
0.0
 10
9.392708
 20
7.952639
 30
0.0
 10
9.422907
 20
7.945660
 30
0.0
 10
9.453001
 20
7.936530
 30
0.0
 10
9.481925
 20
7.924935
 30
0.0
 10
9.509441
 20
7.909980
 30
0.0
 10
9.533819
 20
7.890903
 30
0.0
 10
9.550339
 20
7.871618
 30
0.0
 10
9.563017
 20
7.849680
 30
0.0
 10
9.571668
 20
7.825840
 30
0.0
 10
9.576422
 20
7.801412
 30
0.0
 10
9.577917
 20
7.776250
 30
0.0
 10
9.575923
 20
7.744447
 30
0.0
 10
9.569213
 20
7.713220
 30
0.0
 10
9.556938
 20
7.683823
 30
0.0
 10
9.538987
 20
7.657539
 30
0.0
 10
9.516181
 20
7.635139
 30
0.0
 10
9.485228
 20
7.614407
 30
0.0
 10
9.451054
 20
7.599359
 30
0.0
 10
9.414494
 20
7.589339
 30
0.0
 10
9.377255
 20
7.583890
 30
0.0
 10
9.339792
 20
7.582222
 30
0.0
 10
9.316732
 20
7.582464
 30
0.0
 10
9.293838
 20
7.583292
 30
0.0
 10
9.270653
 20
7.584897
 30
0.0
 10
9.247789
 20
7.587418
 30
0.0
 10
9.225139
 20
7.591041
 30
0.0
 10
9.201529
 20
7.596313
 30
0.0
 10
9.178376
 20
7.602805
 30
0.0
 10
9.155463
 20
7.610188
 30
0.0
 10
9.132882
 20
7.618107
 30
0.0
 10
9.110486
 20
7.626319
 30
0.0
 10
9.110486
 20
7.652772
 30
0.0
 10
9.110486
 20
7.679038
 30
0.0
 10
9.110486
 20
7.705303
 30
0.0
 10
9.110486
 20
7.731878
 30
0.0
 10
9.110486
 20
7.758611
 30
0.0
 10
9.132996
 20
7.746679
 30
0.0
 10
9.155520
 20
7.735049
 30
0.0
 10
9.177993
 20
7.724139
 30
0.0
 10
9.201408
 20
7.713993
 30
0.0
 10
9.225139
 20
7.705694
 30
0.0
 10
9.244430
 20
7.701160
 30
0.0
 10
9.263643
 20
7.698409
 30
0.0
 10
9.283214
 20
7.697122
 30
0.0
 10
9.302462
 20
7.696831
 30
0.0
 10
9.322153
 20
7.696875
 30
0.0
 10
9.338853
 20
7.697445
 30
0.0
 10
9.355320
 20
7.699235
 30
0.0
 10
9.371282
 20
7.702386
 30
0.0
 10
9.386904
 20
7.707297
 30
0.0
 10
9.401528
 20
7.714514
 30
0.0
 10
9.410540
 20
7.720937
 30
0.0
 10
9.418186
 20
7.728526
 30
0.0
 10
9.423771
 20
7.737393
 30
0.0
 10
9.427061
 20
7.747849
 30
0.0
 10
9.427986
 20
7.758611
 30
0.0
 10
9.427401
 20
7.768685
 30
0.0
 10
9.425575
 20
7.778182
 30
0.0
 10
9.422182
 20
7.787414
 30
0.0
 10
9.417108
 20
7.795715
 30
0.0
 10
9.410347
 20
7.802708
 30
0.0
 10
9.397693
 20
7.810829
 30
0.0
 10
9.383676
 20
7.816885
 30
0.0
 10
9.369377
 20
7.821638
 30
0.0
 10
9.354574
 20
7.825692
 30
0.0
 10
9.339792
 20
7.829166
 30
0.0
 10
9.327298
 20
7.830951
 30
0.0
 10
9.315048
 20
7.832701
 30
0.0
 10
9.302824
 20
7.834448
 30
0.0
 10
9.290214
 20
7.836249
 30
0.0
 10
9.278056
 20
7.837986
 30
0.0
 10
9.249404
 20
7.845092
 30
0.0
 10
9.221097
 20
7.854372
 30
0.0
 10
9.194050
 20
7.866081
 30
0.0
 10
9.168395
 20
7.881040
 30
0.0
 10
9.145764
 20
7.899722
 30
0.0
 10
9.130769
 20
7.919235
 30
0.0
 10
9.120420
 20
7.941796
 30
0.0
 10
9.114360
 20
7.965375
 30
0.0
 10
9.111327
 20
7.989815
 30
0.0
 10
9.110486
 20
8.014375
 30
0.0
 10
9.111910
 20
8.043885
 30
0.0
 10
9.116977
 20
8.072910
 30
0.0
 10
9.127024
 20
8.100717
 30
0.0
 10
9.142643
 20
8.125582
 30
0.0
 10
9.163403
 20
8.146666
 30
0.0
 10
9.192831
 20
8.166784
 30
0.0
 10
9.225362
 20
8.181747
 30
0.0
 10
9.259657
 20
8.191901
 30
0.0
 10
9.295045
 20
8.197721
 30
0.0
 10
9.330972
 20
8.199583
 30
0.0
 10
9.330972
 20
8.199583
 30
0.0
 10
9.330972
 20
8.199583
 30
0.0
 10
9.330972
 20
8.199583
 30
0.0
 10
9.330972
 20
8.199583
 30
0.0
 10
9.330972
 20
8.199583
 30
0.0
  0
LWPOLYLINE
  5
12e
100
AcDbEntity
  8
Layer_1
 62
7
100
AcDbPolyline
 90
96
 70
0
 10
13.211528
 20
8.199583
 30
0.0
 10
13.231304
 20
8.198467
 30
0.0
 10
13.250826
 20
8.195572
 30
0.0
 10
13.270233
 20
8.191475
 30
0.0
 10
13.289390
 20
8.186762
 30
0.0
 10
13.308542
 20
8.181944
 30
0.0
 10
13.326269
 20
8.177841
 30
0.0
 10
13.344333
 20
8.173690
 30
0.0
 10
13.362277
 20
8.168957
 30
0.0
 10
13.379695
 20
8.163111
 30
0.0
 10
13.396736
 20
8.155486
 30
0.0
 10
13.396736
 20
8.130796
 30
0.0
 10
13.396736
 20
8.106282
 30
0.0
 10
13.396736
 20
8.081768
 30
0.0
 10
13.396736
 20
8.056964
 30
0.0
 10
13.396736
 20
8.032014
 30
0.0
 10
13.380109
 20
8.042691
 30
0.0
 10
13.363118
 20
8.052370
 30
0.0
 10
13.345622
 20
8.061190
 30
0.0
 10
13.327254
 20
8.069247
 30
0.0
 10
13.308542
 20
8.076111
 30
0.0
 10
13.291463
 20
8.080528
 30
0.0
 10
13.273618
 20
8.083172
 30
0.0
 10
13.255949
 20
8.084440
 30
0.0
 10
13.238218
 20
8.084878
 30
0.0
 10
13.220347
 20
8.084930
 30
0.0
 10
13.192556
 20
8.083190
 30
0.0
 10
13.165564
 20
8.077379
 30
0.0
 10
13.139846
 20
8.066649
 30
0.0
 10
13.116897
 20
8.051267
 30
0.0
 10
13.096875
 20
8.032014
 30
0.0
 10
13.077900
 20
8.007622
 30
0.0
 10
13.062723
 20
7.980629
 30
0.0
 10
13.051991
 20
7.951590
 30
0.0
 10
13.045915
 20
7.921806
 30
0.0
 10
13.043958
 20
7.890903
 30
0.0
 10
13.045906
 20
7.860156
 30
0.0
 10
13.052078
 20
7.830021
 30
0.0
 10
13.062797
 20
7.801096
 30
0.0
 10
13.077882
 20
7.774239
 30
0.0
 10
13.096875
 20
7.749791
 30
0.0
 10
13.116784
 20
7.730632
 30
0.0
 10
13.139830
 20
7.715167
 30
0.0
 10
13.165597
 20
7.704418
 30
0.0
 10
13.192707
 20
7.698595
 30
0.0
 10
13.220347
 20
7.696875
 30
0.0
 10
13.238123
 20
7.696929
 30
0.0
 10
13.255724
 20
7.697364
 30
0.0
 10
13.273524
 20
7.698635
 30
0.0
 10
13.291320
 20
7.701260
 30
0.0
 10
13.308542
 20
7.705694
 30
0.0
 10
13.327196
 20
7.712533
 30
0.0
 10
13.345136
 20
7.720387
 30
0.0
 10
13.362749
 20
7.729241
 30
0.0
 10
13.380011
 20
7.739059
 30
0.0
 10
13.396736
 20
7.749791
 30
0.0
 10
13.396736
 20
7.725102
 30
0.0
 10
13.396736
 20
7.700587
 30
0.0
 10
13.396736
 20
7.676074
 30
0.0
 10
13.396736
 20
7.651270
 30
0.0
 10
13.396736
 20
7.626319
 30
0.0
 10
13.379797
 20
7.617812
 30
0.0
 10
13.362398
 20
7.609775
 30
0.0
 10
13.344962
 20
7.602588
 30
0.0
 10
13.326852
 20
7.596205
 30
0.0
 10
13.308542
 20
7.591041
 30
0.0
 10
13.289660
 20
7.587236
 30
0.0
 10
13.270249
 20
7.584688
 30
0.0
 10
13.250681
 20
7.583168
 30
0.0
 10
13.231124
 20
7.582424
 30
0.0
 10
13.211528
 20
7.582222
 30
0.0
 10
13.160056
 20
7.584622
 30
0.0
 10
13.109253
 20
7.592579
 30
0.0
 10
13.060137
 20
7.607335
 30
0.0
 10
13.013989
 20
7.630239
 30
0.0
 10
12.973403
 20
7.661597
 30
0.0
 10
12.941607
 20
7.699720
 30
0.0
 10
12.918563
 20
7.743882
 30
0.0
 10
12.903944
 20
7.791521
 30
0.0
 10
12.896265
 20
7.841039
 30
0.0
 10
12.894028
 20
7.890903
 30
0.0
 10
12.896171
 20
7.939138
 30
0.0
 10
12.903710
 20
7.986676
 30
0.0
 10
12.918483
 20
8.032491
 30
0.0
 10
12.941965
 20
8.074917
 30
0.0
 10
12.973403
 20
8.111389
 30
0.0
 10
13.013824
 20
8.143789
 30
0.0
 10
13.059436
 20
8.168906
 30
0.0
 10
13.108602
 20
8.186382
 30
0.0
 10
13.159798
 20
8.196418
 30
0.0
 10
13.211528
 20
8.199583
 30
0.0
 10
13.211528
 20
8.199583
 30
0.0
 10
13.211528
 20
8.199583
 30
0.0
 10
13.211528
 20
8.199583
 30
0.0
 10
13.211528
 20
8.199583
 30
0.0
 10
13.211528
 20
8.199583
 30
0.0
  0
LWPOLYLINE
  5
12f
100
AcDbEntity
  8
Layer_1
 62
7
100
AcDbPolyline
 90
61
 70
0
 10
6.641042
 20
8.190764
 30
0.0
 10
6.686894
 20
8.190764
 30
0.0
 10
6.732891
 20
8.190764
 30
0.0
 10
6.778680
 20
8.190764
 30
0.0
 10
6.824418
 20
8.190764
 30
0.0
 10
6.870347
 20
8.190764
 30
0.0
 10
6.907069
 20
8.189404
 30
0.0
 10
6.943956
 20
8.184928
 30
0.0
 10
6.979810
 20
8.176844
 30
0.0
 10
7.014323
 20
8.164435
 30
0.0
 10
7.046736
 20
8.146666
 30
0.0
 10
7.067046
 20
8.129835
 30
0.0
 10
7.082808
 20
8.108833
 30
0.0
 10
7.093051
 20
8.084479
 30
0.0
 10
7.098231
 20
8.058385
 30
0.0
 10
7.099653
 20
8.032014
 30
0.0
 10
7.099180
 20
8.015740
 30
0.0
 10
7.097590
 20
7.999360
 30
0.0
 10
7.094596
 20
7.983279
 30
0.0
 10
7.089625
 20
7.967416
 30
0.0
 10
7.082014
 20
7.952639
 30
0.0
 10
7.072322
 20
7.940705
 30
0.0
 10
7.060613
 20
7.930309
 30
0.0
 10
7.047876
 20
7.921712
 30
0.0
 10
7.034528
 20
7.914614
 30
0.0
 10
7.020278
 20
7.908541
 30
0.0
 10
7.038591
 20
7.902174
 30
0.0
 10
7.056104
 20
7.893797
 30
0.0
 10
7.072490
 20
7.883256
 30
0.0
 10
7.087258
 20
7.870449
 30
0.0
 10
7.099653
 20
7.855625
 30
0.0
 10
7.109435
 20
7.839944
 30
0.0
 10
7.117188
 20
7.823020
 30
0.0
 10
7.122478
 20
7.804937
 30
0.0
 10
7.125319
 20
7.786028
 30
0.0
 10
7.126111
 20
7.767430
 30
0.0
 10
7.123817
 20
7.737056
 30
0.0
 10
7.116751
 20
7.707890
 30
0.0
 10
7.104422
 20
7.680207
 30
0.0
 10
7.086679
 20
7.655365
 30
0.0
 10
7.064375
 20
7.635139
 30
0.0
 10
7.032184
 20
7.616693
 30
0.0
 10
6.997516
 20
7.604270
 30
0.0
 10
6.961281
 20
7.596434
 30
0.0
 10
6.924619
 20
7.592286
 30
0.0
 10
6.887986
 20
7.591041
 30
0.0
 10
6.838607
 20
7.591041
 30
0.0
 10
6.789071
 20
7.591041
 30
0.0
 10
6.739760
 20
7.591041
 30
0.0
 10
6.690504
 20
7.591041
 30
0.0
 10
6.641042
 20
7.591041
 30
0.0
 10
6.641042
 20
7.710963
 30
0.0
 10
6.641042
 20
7.830648
 30
0.0
 10
6.641042
 20
7.950550
 30
0.0
 10
6.641042
 20
8.070379
 30
0.0
 10
6.641042
 20
8.190764
 30
0.0
 10
6.641042
 20
8.190764
 30
0.0
 10
6.641042
 20
8.190764
 30
0.0
 10
6.641042
 20
8.190764
 30
0.0
 10
6.641042
 20
8.190764
 30
0.0
 10
6.641042
 20
8.190764
 30
0.0
  0
LWPOLYLINE
  5
130
100
AcDbEntity
  8
Layer_1
 62
7
100
AcDbPolyline
 90
66
 70
0
 10
7.258403
 20
8.190764
 30
0.0
 10
7.339526
 20
8.190764
 30
0.0
 10
7.420906
 20
8.190764
 30
0.0
 10
7.501918
 20
8.190764
 30
0.0
 10
7.582837
 20
8.190764
 30
0.0
 10
7.664097
 20
8.190764
 30
0.0
 10
7.664097
 20
8.166074
 30
0.0
 10
7.664097
 20
8.141559
 30
0.0
 10
7.664097
 20
8.117046
 30
0.0
 10
7.664097
 20
8.092242
 30
0.0
 10
7.664097
 20
8.067291
 30
0.0
 10
7.612954
 20
8.067291
 30
0.0
 10
7.561650
 20
8.067291
 30
0.0
 10
7.510577
 20
8.067291
 30
0.0
 10
7.459563
 20
8.067291
 30
0.0
 10
7.408333
 20
8.067291
 30
0.0
 10
7.408333
 20
8.045875
 30
0.0
 10
7.408333
 20
8.024874
 30
0.0
 10
7.408333
 20
8.003919
 30
0.0
 10
7.408333
 20
7.982741
 30
0.0
 10
7.408333
 20
7.961458
 30
0.0
 10
7.457713
 20
7.961458
 30
0.0
 10
7.507248
 20
7.961458
 30
0.0
 10
7.556560
 20
7.961458
 30
0.0
 10
7.605815
 20
7.961458
 30
0.0
 10
7.655278
 20
7.961458
 30
0.0
 10
7.655278
 20
7.938256
 30
0.0
 10
7.655278
 20
7.915506
 30
0.0
 10
7.655278
 20
7.892805
 30
0.0
 10
7.655278
 20
7.869862
 30
0.0
 10
7.655278
 20
7.846805
 30
0.0
 10
7.605898
 20
7.846805
 30
0.0
 10
7.556363
 20
7.846805
 30
0.0
 10
7.507051
 20
7.846805
 30
0.0
 10
7.457796
 20
7.846805
 30
0.0
 10
7.408333
 20
7.846805
 30
0.0
 10
7.408333
 20
7.820352
 30
0.0
 10
7.408333
 20
7.794087
 30
0.0
 10
7.408333
 20
7.767822
 30
0.0
 10
7.408333
 20
7.741247
 30
0.0
 10
7.408333
 20
7.714514
 30
0.0
 10
7.461240
 20
7.714514
 30
0.0
 10
7.514313
 20
7.714514
 30
0.0
 10
7.567147
 20
7.714514
 30
0.0
 10
7.619921
 20
7.714514
 30
0.0
 10
7.672917
 20
7.714514
 30
0.0
 10
7.672917
 20
7.689824
 30
0.0
 10
7.672917
 20
7.665309
 30
0.0
 10
7.672917
 20
7.640796
 30
0.0
 10
7.672917
 20
7.615992
 30
0.0
 10
7.672917
 20
7.591041
 30
0.0
 10
7.590030
 20
7.591041
 30
0.0
 10
7.506881
 20
7.591041
 30
0.0
 10
7.424108
 20
7.591041
 30
0.0
 10
7.341430
 20
7.591041
 30
0.0
 10
7.258403
 20
7.591041
 30
0.0
 10
7.258403
 20
7.710963
 30
0.0
 10
7.258403
 20
7.830648
 30
0.0
 10
7.258403
 20
7.950550
 30
0.0
 10
7.258403
 20
8.070379
 30
0.0
 10
7.258403
 20
8.190764
 30
0.0
 10
7.258403
 20
8.190764
 30
0.0
 10
7.258403
 20
8.190764
 30
0.0
 10
7.258403
 20
8.190764
 30
0.0
 10
7.258403
 20
8.190764
 30
0.0
 10
7.258403
 20
8.190764
 30
0.0
  0
LWPOLYLINE
  5
131
100
AcDbEntity
  8
Layer_1
 62
7
100
AcDbPolyline
 90
86
 70
0
 10
7.814028
 20
8.190764
 30
0.0
 10
7.859880
 20
8.190764
 30
0.0
 10
7.905877
 20
8.190764
 30
0.0
 10
7.951667
 20
8.190764
 30
0.0
 10
7.997404
 20
8.190764
 30
0.0
 10
8.043333
 20
8.190764
 30
0.0
 10
8.078511
 20
8.189455
 30
0.0
 10
8.113212
 20
8.185169
 30
0.0
 10
8.147793
 20
8.177058
 30
0.0
 10
8.180500
 20
8.164545
 30
0.0
 10
8.210903
 20
8.146666
 30
0.0
 10
8.232712
 20
8.127769
 30
0.0
 10
8.250353
 20
8.105132
 30
0.0
 10
8.263100
 20
8.079184
 30
0.0
 10
8.270316
 20
8.051887
 30
0.0
 10
8.272639
 20
8.023194
 30
0.0
 10
8.271078
 20
8.002301
 30
0.0
 10
8.266494
 20
7.981938
 30
0.0
 10
8.259072
 20
7.962236
 30
0.0
 10
8.249322
 20
7.943770
 30
0.0
 10
8.237361
 20
7.926180
 30
0.0
 10
8.224872
 20
7.911477
 30
0.0
 10
8.210360
 20
7.898664
 30
0.0
 10
8.194220
 20
7.888251
 30
0.0
 10
8.176318
 20
7.879787
 30
0.0
 10
8.157986
 20
7.873264
 30
0.0
 10
8.170109
 20
7.869310
 30
0.0
 10
8.181693
 20
7.863164
 30
0.0
 10
8.192012
 20
7.855688
 30
0.0
 10
8.201798
 20
7.847041
 30
0.0
 10
8.210903
 20
7.837986
 30
0.0
 10
8.223607
 20
7.823612
 30
0.0
 10
8.234993
 20
7.808182
 30
0.0
 10
8.245311
 20
7.792240
 30
0.0
 10
8.254999
 20
7.775509
 30
0.0
 10
8.263819
 20
7.758611
 30
0.0
 10
8.279691
 20
7.725103
 30
0.0
 10
8.295451
 20
7.691834
 30
0.0
 10
8.311469
 20
7.658017
 30
0.0
 10
8.327299
 20
7.624599
 30
0.0
 10
8.343194
 20
7.591041
 30
0.0
 10
8.311451
 20
7.591041
 30
0.0
 10
8.279932
 20
7.591041
 30
0.0
 10
8.247895
 20
7.591041
 30
0.0
 10
8.216236
 20
7.591041
 30
0.0
 10
8.184444
 20
7.591041
 30
0.0
 10
8.170336
 20
7.621022
 30
0.0
 10
8.156328
 20
7.650789
 30
0.0
 10
8.142089
 20
7.681046
 30
0.0
 10
8.128018
 20
7.710947
 30
0.0
 10
8.113889
 20
7.740972
 30
0.0
 10
8.106906
 20
7.754543
 30
0.0
 10
8.099170
 20
7.768005
 30
0.0
 10
8.090768
 20
7.780647
 30
0.0
 10
8.081004
 20
7.792637
 30
0.0
 10
8.069792
 20
7.802708
 30
0.0
 10
8.058663
 20
7.809420
 30
0.0
 10
8.046525
 20
7.814394
 30
0.0
 10
8.034187
 20
7.817711
 30
0.0
 10
8.021076
 20
7.819712
 30
0.0
 10
8.008056
 20
7.820347
 30
0.0
 10
7.999132
 20
7.820347
 30
0.0
 10
7.990382
 20
7.820347
 30
0.0
 10
7.981650
 20
7.820347
 30
0.0
 10
7.972643
 20
7.820347
 30
0.0
 10
7.963958
 20
7.820347
 30
0.0
 10
7.963958
 20
7.774495
 30
0.0
 10
7.963958
 20
7.728498
 30
0.0
 10
7.963958
 20
7.682708
 30
0.0
 10
7.963958
 20
7.636971
 30
0.0
 10
7.963958
 20
7.591041
 30
0.0
 10
7.933978
 20
7.591041
 30
0.0
 10
7.904210
 20
7.591041
 30
0.0
 10
7.873954
 20
7.591041
 30
0.0
 10
7.844053
 20
7.591041
 30
0.0
 10
7.814028
 20
7.591041
 30
0.0
 10
7.814028
 20
7.710963
 30
0.0
 10
7.814028
 20
7.830648
 30
0.0
 10
7.814028
 20
7.950550
 30
0.0
 10
7.814028
 20
8.070379
 30
0.0
 10
7.814028
 20
8.190764
 30
0.0
 10
7.814028
 20
8.190764
 30
0.0
 10
7.814028
 20
8.190764
 30
0.0
 10
7.814028
 20
8.190764
 30
0.0
 10
7.814028
 20
8.190764
 30
0.0
 10
7.814028
 20
8.190764
 30
0.0
  0
LWPOLYLINE
  5
132
100
AcDbEntity
  8
Layer_1
 62
7
100
AcDbPolyline
 90
46
 70
0
 10
9.639653
 20
8.190764
 30
0.0
 10
9.748993
 20
8.190764
 30
0.0
 10
9.858118
 20
8.190764
 30
0.0
 10
9.967440
 20
8.190764
 30
0.0
 10
10.076696
 20
8.190764
 30
0.0
 10
10.186458
 20
8.190764
 30
0.0
 10
10.186458
 20
8.166074
 30
0.0
 10
10.186458
 20
8.141559
 30
0.0
 10
10.186458
 20
8.117046
 30
0.0
 10
10.186458
 20
8.092242
 30
0.0
 10
10.186458
 20
8.067291
 30
0.0
 10
10.147660
 20
8.067291
 30
0.0
 10
10.108740
 20
8.067291
 30
0.0
 10
10.069995
 20
8.067291
 30
0.0
 10
10.031294
 20
8.067291
 30
0.0
 10
9.992431
 20
8.067291
 30
0.0
 10
9.992431
 20
7.972060
 30
0.0
 10
9.992431
 20
7.876527
 30
0.0
 10
9.992431
 20
7.781426
 30
0.0
 10
9.992431
 20
7.686434
 30
0.0
 10
9.992431
 20
7.591041
 30
0.0
 10
9.960687
 20
7.591041
 30
0.0
 10
9.929168
 20
7.591041
 30
0.0
 10
9.897131
 20
7.591041
 30
0.0
 10
9.865472
 20
7.591041
 30
0.0
 10
9.833681
 20
7.591041
 30
0.0
 10
9.833681
 20
7.686273
 30
0.0
 10
9.833681
 20
7.781806
 30
0.0
 10
9.833681
 20
7.876907
 30
0.0
 10
9.833681
 20
7.971899
 30
0.0
 10
9.833681
 20
8.067291
 30
0.0
 10
9.794883
 20
8.067291
 30
0.0
 10
9.755962
 20
8.067291
 30
0.0
 10
9.717217
 20
8.067291
 30
0.0
 10
9.678516
 20
8.067291
 30
0.0
 10
9.639653
 20
8.067291
 30
0.0
 10
9.639653
 20
8.091981
 30
0.0
 10
9.639653
 20
8.116496
 30
0.0
 10
9.639653
 20
8.141009
 30
0.0
 10
9.639653
 20
8.165813
 30
0.0
 10
9.639653
 20
8.190764
 30
0.0
 10
9.639653
 20
8.190764
 30
0.0
 10
9.639653
 20
8.190764
 30
0.0
 10
9.639653
 20
8.190764
 30
0.0
 10
9.639653
 20
8.190764
 30
0.0
 10
9.639653
 20
8.190764
 30
0.0
  0
LWPOLYLINE
  5
133
100
AcDbEntity
  8
Layer_1
 62
7
100
AcDbPolyline
 90
66
 70
0
 10
10.265833
 20
8.190764
 30
0.0
 10
10.346957
 20
8.190764
 30
0.0
 10
10.428336
 20
8.190764
 30
0.0
 10
10.509348
 20
8.190764
 30
0.0
 10
10.590268
 20
8.190764
 30
0.0
 10
10.671528
 20
8.190764
 30
0.0
 10
10.671528
 20
8.166074
 30
0.0
 10
10.671528
 20
8.141559
 30
0.0
 10
10.671528
 20
8.117046
 30
0.0
 10
10.671528
 20
8.092242
 30
0.0
 10
10.671528
 20
8.067291
 30
0.0
 10
10.620385
 20
8.067291
 30
0.0
 10
10.569080
 20
8.067291
 30
0.0
 10
10.518008
 20
8.067291
 30
0.0
 10
10.466993
 20
8.067291
 30
0.0
 10
10.415764
 20
8.067291
 30
0.0
 10
10.415764
 20
8.045875
 30
0.0
 10
10.415764
 20
8.024874
 30
0.0
 10
10.415764
 20
8.003919
 30
0.0
 10
10.415764
 20
7.982741
 30
0.0
 10
10.415764
 20
7.961458
 30
0.0
 10
10.465143
 20
7.961458
 30
0.0
 10
10.514679
 20
7.961458
 30
0.0
 10
10.563990
 20
7.961458
 30
0.0
 10
10.613246
 20
7.961458
 30
0.0
 10
10.662708
 20
7.961458
 30
0.0
 10
10.662708
 20
7.938256
 30
0.0
 10
10.662708
 20
7.915506
 30
0.0
 10
10.662708
 20
7.892805
 30
0.0
 10
10.662708
 20
7.869862
 30
0.0
 10
10.662708
 20
7.846805
 30
0.0
 10
10.613329
 20
7.846805
 30
0.0
 10
10.563794
 20
7.846805
 30
0.0
 10
10.514482
 20
7.846805
 30
0.0
 10
10.465227
 20
7.846805
 30
0.0
 10
10.415764
 20
7.846805
 30
0.0
 10
10.415764
 20
7.820352
 30
0.0
 10
10.415764
 20
7.794087
 30
0.0
 10
10.415764
 20
7.767822
 30
0.0
 10
10.415764
 20
7.741247
 30
0.0
 10
10.415764
 20
7.714514
 30
0.0
 10
10.468670
 20
7.714514
 30
0.0
 10
10.521744
 20
7.714514
 30
0.0
 10
10.574578
 20
7.714514
 30
0.0
 10
10.627351
 20
7.714514
 30
0.0
 10
10.680347
 20
7.714514
 30
0.0
 10
10.680347
 20
7.689824
 30
0.0
 10
10.680347
 20
7.665309
 30
0.0
 10
10.680347
 20
7.640796
 30
0.0
 10
10.680347
 20
7.615992
 30
0.0
 10
10.680347
 20
7.591041
 30
0.0
 10
10.597460
 20
7.591041
 30
0.0
 10
10.514312
 20
7.591041
 30
0.0
 10
10.431539
 20
7.591041
 30
0.0
 10
10.348860
 20
7.591041
 30
0.0
 10
10.265833
 20
7.591041
 30
0.0
 10
10.265833
 20
7.710963
 30
0.0
 10
10.265833
 20
7.830648
 30
0.0
 10
10.265833
 20
7.950550
 30
0.0
 10
10.265833
 20
8.070379
 30
0.0
 10
10.265833
 20
8.190764
 30
0.0
 10
10.265833
 20
8.190764
 30
0.0
 10
10.265833
 20
8.190764
 30
0.0
 10
10.265833
 20
8.190764
 30
0.0
 10
10.265833
 20
8.190764
 30
0.0
 10
10.265833
 20
8.190764
 30
0.0
  0
LWPOLYLINE
  5
134
100
AcDbEntity
  8
Layer_1
 62
7
100
AcDbPolyline
 90
86
 70
0
 10
10.821458
 20
8.190764
 30
0.0
 10
10.867311
 20
8.190764
 30
0.0
 10
10.913308
 20
8.190764
 30
0.0
 10
10.959097
 20
8.190764
 30
0.0
 10
11.004834
 20
8.190764
 30
0.0
 10
11.050764
 20
8.190764
 30
0.0
 10
11.085941
 20
8.189455
 30
0.0
 10
11.120642
 20
8.185169
 30
0.0
 10
11.155224
 20
8.177058
 30
0.0
 10
11.187931
 20
8.164545
 30
0.0
 10
11.218333
 20
8.146666
 30
0.0
 10
11.240144
 20
8.127769
 30
0.0
 10
11.257784
 20
8.105132
 30
0.0
 10
11.270531
 20
8.079184
 30
0.0
 10
11.277747
 20
8.051887
 30
0.0
 10
11.280069
 20
8.023194
 30
0.0
 10
11.278509
 20
8.002301
 30
0.0
 10
11.273925
 20
7.981938
 30
0.0
 10
11.266503
 20
7.962236
 30
0.0
 10
11.256752
 20
7.943770
 30
0.0
 10
11.244792
 20
7.926180
 30
0.0
 10
11.232299
 20
7.911477
 30
0.0
 10
11.217785
 20
7.898664
 30
0.0
 10
11.201647
 20
7.888251
 30
0.0
 10
11.183747
 20
7.879787
 30
0.0
 10
11.165417
 20
7.873264
 30
0.0
 10
11.177534
 20
7.869310
 30
0.0
 10
11.189118
 20
7.863164
 30
0.0
 10
11.199438
 20
7.855688
 30
0.0
 10
11.209227
 20
7.847041
 30
0.0
 10
11.218333
 20
7.837986
 30
0.0
 10
11.231041
 20
7.823612
 30
0.0
 10
11.242427
 20
7.808182
 30
0.0
 10
11.252743
 20
7.792240
 30
0.0
 10
11.262429
 20
7.775509
 30
0.0
 10
11.271250
 20
7.758611
 30
0.0
 10
11.287122
 20
7.725103
 30
0.0
 10
11.302881
 20
7.691834
 30
0.0
 10
11.318900
 20
7.658017
 30
0.0
 10
11.334729
 20
7.624599
 30
0.0
 10
11.350625
 20
7.591041
 30
0.0
 10
11.318881
 20
7.591041
 30
0.0
 10
11.287363
 20
7.591041
 30
0.0
 10
11.255326
 20
7.591041
 30
0.0
 10
11.223667
 20
7.591041
 30
0.0
 10
11.191875
 20
7.591041
 30
0.0
 10
11.177767
 20
7.621022
 30
0.0
 10
11.163758
 20
7.650789
 30
0.0
 10
11.149520
 20
7.681046
 30
0.0
 10
11.135449
 20
7.710947
 30
0.0
 10
11.121319
 20
7.740972
 30
0.0
 10
11.113133
 20
7.755485
 30
0.0
 10
11.103751
 20
7.768662
 30
0.0
 10
11.093031
 20
7.781045
 30
0.0
 10
11.081201
 20
7.792457
 30
0.0
 10
11.068403
 20
7.802708
 30
0.0
 10
11.058776
 20
7.809212
 30
0.0
 10
11.048713
 20
7.814403
 30
0.0
 10
11.037933
 20
7.817953
 30
0.0
 10
11.026864
 20
7.819807
 30
0.0
 10
11.015486
 20
7.820347
 30
0.0
 10
11.006562
 20
7.820347
 30
0.0
 10
10.997812
 20
7.820347
 30
0.0
 10
10.989081
 20
7.820347
 30
0.0
 10
10.980074
 20
7.820347
 30
0.0
 10
10.971389
 20
7.820347
 30
0.0
 10
10.971389
 20
7.774495
 30
0.0
 10
10.971389
 20
7.728498
 30
0.0
 10
10.971389
 20
7.682708
 30
0.0
 10
10.971389
 20
7.636971
 30
0.0
 10
10.971389
 20
7.591041
 30
0.0
 10
10.941409
 20
7.591041
 30
0.0
 10
10.911641
 20
7.591041
 30
0.0
 10
10.881384
 20
7.591041
 30
0.0
 10
10.851484
 20
7.591041
 30
0.0
 10
10.821458
 20
7.591041
 30
0.0
 10
10.821458
 20
7.710963
 30
0.0
 10
10.821458
 20
7.830648
 30
0.0
 10
10.821458
 20
7.950550
 30
0.0
 10
10.821458
 20
8.070379
 30
0.0
 10
10.821458
 20
8.190764
 30
0.0
 10
10.821458
 20
8.190764
 30
0.0
 10
10.821458
 20
8.190764
 30
0.0
 10
10.821458
 20
8.190764
 30
0.0
 10
10.821458
 20
8.190764
 30
0.0
 10
10.821458
 20
8.190764
 30
0.0
  0
LWPOLYLINE
  5
135
100
AcDbEntity
  8
Layer_1
 62
7
100
AcDbPolyline
 90
86
 70
0
 10
11.438819
 20
8.190764
 30
0.0
 10
11.486435
 20
8.190764
 30
0.0
 10
11.534202
 20
8.190764
 30
0.0
 10
11.581752
 20
8.190764
 30
0.0
 10
11.629248
 20
8.190764
 30
0.0
 10
11.676944
 20
8.190764
 30
0.0
 10
11.712122
 20
8.189455
 30
0.0
 10
11.746823
 20
8.185169
 30
0.0
 10
11.781404
 20
8.177058
 30
0.0
 10
11.814111
 20
8.164545
 30
0.0
 10
11.844514
 20
8.146666
 30
0.0
 10
11.865278
 20
8.127769
 30
0.0
 10
11.880705
 20
8.104775
 30
0.0
 10
11.890663
 20
8.078918
 30
0.0
 10
11.895914
 20
8.051305
 30
0.0
 10
11.897431
 20
8.023194
 30
0.0
 10
11.896686
 20
8.002732
 30
0.0
 10
11.894130
 20
7.982244
 30
0.0
 10
11.889321
 20
7.962428
 30
0.0
 10
11.881609
 20
7.943292
 30
0.0
 10
11.870972
 20
7.926180
 30
0.0
 10
11.856907
 20
7.910975
 30
0.0
 10
11.840034
 20
7.898354
 30
0.0
 10
11.821781
 20
7.888289
 30
0.0
 10
11.802456
 20
7.880035
 30
0.0
 10
11.782778
 20
7.873264
 30
0.0
 10
11.796352
 20
7.869118
 30
0.0
 10
11.809340
 20
7.863383
 30
0.0
 10
11.821863
 20
7.856237
 30
0.0
 10
11.833874
 20
7.847633
 30
0.0
 10
11.844514
 20
7.837986
 30
0.0
 10
11.857222
 20
7.823612
 30
0.0
 10
11.868607
 20
7.808182
 30
0.0
 10
11.878924
 20
7.792240
 30
0.0
 10
11.888610
 20
7.775509
 30
0.0
 10
11.897431
 20
7.758611
 30
0.0
 10
11.913303
 20
7.725103
 30
0.0
 10
11.929062
 20
7.691834
 30
0.0
 10
11.945080
 20
7.658017
 30
0.0
 10
11.960910
 20
7.624599
 30
0.0
 10
11.976806
 20
7.591041
 30
0.0
 10
11.945062
 20
7.591041
 30
0.0
 10
11.913543
 20
7.591041
 30
0.0
 10
11.881506
 20
7.591041
 30
0.0
 10
11.849847
 20
7.591041
 30
0.0
 10
11.818056
 20
7.591041
 30
0.0
 10
11.802184
 20
7.621022
 30
0.0
 10
11.786424
 20
7.650789
 30
0.0
 10
11.770406
 20
7.681046
 30
0.0
 10
11.754576
 20
7.710947
 30
0.0
 10
11.738681
 20
7.740972
 30
0.0
 10
11.731697
 20
7.754543
 30
0.0
 10
11.723961
 20
7.768005
 30
0.0
 10
11.715560
 20
7.780647
 30
0.0
 10
11.705796
 20
7.792637
 30
0.0
 10
11.694583
 20
7.802708
 30
0.0
 10
11.684957
 20
7.809212
 30
0.0
 10
11.674894
 20
7.814403
 30
0.0
 10
11.664114
 20
7.817953
 30
0.0
 10
11.653045
 20
7.819807
 30
0.0
 10
11.641667
 20
7.820347
 30
0.0
 10
11.632743
 20
7.820347
 30
0.0
 10
11.623993
 20
7.820347
 30
0.0
 10
11.615261
 20
7.820347
 30
0.0
 10
11.606254
 20
7.820347
 30
0.0
 10
11.597569
 20
7.820347
 30
0.0
 10
11.597569
 20
7.774495
 30
0.0
 10
11.597569
 20
7.728498
 30
0.0
 10
11.597569
 20
7.682708
 30
0.0
 10
11.597569
 20
7.636971
 30
0.0
 10
11.597569
 20
7.591041
 30
0.0
 10
11.565826
 20
7.591041
 30
0.0
 10
11.534307
 20
7.591041
 30
0.0
 10
11.502270
 20
7.591041
 30
0.0
 10
11.470611
 20
7.591041
 30
0.0
 10
11.438819
 20
7.591041
 30
0.0
 10
11.438819
 20
7.710963
 30
0.0
 10
11.438819
 20
7.830648
 30
0.0
 10
11.438819
 20
7.950550
 30
0.0
 10
11.438819
 20
8.070379
 30
0.0
 10
11.438819
 20
8.190764
 30
0.0
 10
11.438819
 20
8.190764
 30
0.0
 10
11.438819
 20
8.190764
 30
0.0
 10
11.438819
 20
8.190764
 30
0.0
 10
11.438819
 20
8.190764
 30
0.0
 10
11.438819
 20
8.190764
 30
0.0
  0
LWPOLYLINE
  5
136
100
AcDbEntity
  8
Layer_1
 62
7
100
AcDbPolyline
 90
66
 70
0
 10
12.065000
 20
8.190764
 30
0.0
 10
12.147887
 20
8.190764
 30
0.0
 10
12.231036
 20
8.190764
 30
0.0
 10
12.313809
 20
8.190764
 30
0.0
 10
12.396487
 20
8.190764
 30
0.0
 10
12.479514
 20
8.190764
 30
0.0
 10
12.479514
 20
8.166074
 30
0.0
 10
12.479514
 20
8.141559
 30
0.0
 10
12.479514
 20
8.117046
 30
0.0
 10
12.479514
 20
8.092242
 30
0.0
 10
12.479514
 20
8.067291
 30
0.0
 10
12.426607
 20
8.067291
 30
0.0
 10
12.373534
 20
8.067291
 30
0.0
 10
12.320700
 20
8.067291
 30
0.0
 10
12.267926
 20
8.067291
 30
0.0
 10
12.214931
 20
8.067291
 30
0.0
 10
12.214931
 20
8.045875
 30
0.0
 10
12.214931
 20
8.024874
 30
0.0
 10
12.214931
 20
8.003919
 30
0.0
 10
12.214931
 20
7.982741
 30
0.0
 10
12.214931
 20
7.961458
 30
0.0
 10
12.264310
 20
7.961458
 30
0.0
 10
12.313845
 20
7.961458
 30
0.0
 10
12.363157
 20
7.961458
 30
0.0
 10
12.412412
 20
7.961458
 30
0.0
 10
12.461875
 20
7.961458
 30
0.0
 10
12.461875
 20
7.938256
 30
0.0
 10
12.461875
 20
7.915506
 30
0.0
 10
12.461875
 20
7.892805
 30
0.0
 10
12.461875
 20
7.869862
 30
0.0
 10
12.461875
 20
7.846805
 30
0.0
 10
12.412496
 20
7.846805
 30
0.0
 10
12.362960
 20
7.846805
 30
0.0
 10
12.313649
 20
7.846805
 30
0.0
 10
12.264393
 20
7.846805
 30
0.0
 10
12.214931
 20
7.846805
 30
0.0
 10
12.214931
 20
7.820352
 30
0.0
 10
12.214931
 20
7.794087
 30
0.0
 10
12.214931
 20
7.767822
 30
0.0
 10
12.214931
 20
7.741247
 30
0.0
 10
12.214931
 20
7.714514
 30
0.0
 10
12.269601
 20
7.714514
 30
0.0
 10
12.324443
 20
7.714514
 30
0.0
 10
12.379038
 20
7.714514
 30
0.0
 10
12.433571
 20
7.714514
 30
0.0
 10
12.488333
 20
7.714514
 30
0.0
 10
12.488333
 20
7.689824
 30
0.0
 10
12.488333
 20
7.665309
 30
0.0
 10
12.488333
 20
7.640796
 30
0.0
 10
12.488333
 20
7.615992
 30
0.0
 10
12.488333
 20
7.591041
 30
0.0
 10
12.403683
 20
7.591041
 30
0.0
 10
12.318765
 20
7.591041
 30
0.0
 10
12.234231
 20
7.591041
 30
0.0
 10
12.149793
 20
7.591041
 30
0.0
 10
12.065000
 20
7.591041
 30
0.0
 10
12.065000
 20
7.710963
 30
0.0
 10
12.065000
 20
7.830648
 30
0.0
 10
12.065000
 20
7.950550
 30
0.0
 10
12.065000
 20
8.070379
 30
0.0
 10
12.065000
 20
8.190764
 30
0.0
 10
12.065000
 20
8.190764
 30
0.0
 10
12.065000
 20
8.190764
 30
0.0
 10
12.065000
 20
8.190764
 30
0.0
 10
12.065000
 20
8.190764
 30
0.0
 10
12.065000
 20
8.190764
 30
0.0
  0
LWPOLYLINE
  5
137
100
AcDbEntity
  8
Layer_1
 62
7
100
AcDbPolyline
 90
26
 70
0
 10
12.620625
 20
8.190764
 30
0.0
 10
12.650605
 20
8.190764
 30
0.0
 10
12.680373
 20
8.190764
 30
0.0
 10
12.710630
 20
8.190764
 30
0.0
 10
12.740530
 20
8.190764
 30
0.0
 10
12.770556
 20
8.190764
 30
0.0
 10
12.770556
 20
8.070842
 30
0.0
 10
12.770556
 20
7.951157
 30
0.0
 10
12.770556
 20
7.831255
 30
0.0
 10
12.770556
 20
7.711426
 30
0.0
 10
12.770556
 20
7.591041
 30
0.0
 10
12.740575
 20
7.591041
 30
0.0
 10
12.710808
 20
7.591041
 30
0.0
 10
12.680551
 20
7.591041
 30
0.0
 10
12.650650
 20
7.591041
 30
0.0
 10
12.620625
 20
7.591041
 30
0.0
 10
12.620625
 20
7.710963
 30
0.0
 10
12.620625
 20
7.830648
 30
0.0
 10
12.620625
 20
7.950550
 30
0.0
 10
12.620625
 20
8.070379
 30
0.0
 10
12.620625
 20
8.190764
 30
0.0
 10
12.620625
 20
8.190764
 30
0.0
 10
12.620625
 20
8.190764
 30
0.0
 10
12.620625
 20
8.190764
 30
0.0
 10
12.620625
 20
8.190764
 30
0.0
 10
12.620625
 20
8.190764
 30
0.0
  0
LWPOLYLINE
  5
138
100
AcDbEntity
  8
Layer_1
 62
7
100
AcDbPolyline
 90
66
 70
0
 10
13.520208
 20
8.190764
 30
0.0
 10
13.550189
 20
8.190764
 30
0.0
 10
13.579956
 20
8.190764
 30
0.0
 10
13.610213
 20
8.190764
 30
0.0
 10
13.640114
 20
8.190764
 30
0.0
 10
13.670139
 20
8.190764
 30
0.0
 10
13.670139
 20
8.144911
 30
0.0
 10
13.670139
 20
8.098914
 30
0.0
 10
13.670139
 20
8.053125
 30
0.0
 10
13.670139
 20
8.007388
 30
0.0
 10
13.670139
 20
7.961458
 30
0.0
 10
13.715991
 20
7.961458
 30
0.0
 10
13.761988
 20
7.961458
 30
0.0
 10
13.807778
 20
7.961458
 30
0.0
 10
13.853515
 20
7.961458
 30
0.0
 10
13.899445
 20
7.961458
 30
0.0
 10
13.899445
 20
8.007310
 30
0.0
 10
13.899445
 20
8.053308
 30
0.0
 10
13.899445
 20
8.099097
 30
0.0
 10
13.899445
 20
8.144834
 30
0.0
 10
13.899445
 20
8.190764
 30
0.0
 10
13.929425
 20
8.190764
 30
0.0
 10
13.959192
 20
8.190764
 30
0.0
 10
13.989449
 20
8.190764
 30
0.0
 10
14.019350
 20
8.190764
 30
0.0
 10
14.049375
 20
8.190764
 30
0.0
 10
14.049375
 20
8.070842
 30
0.0
 10
14.049375
 20
7.951157
 30
0.0
 10
14.049375
 20
7.831255
 30
0.0
 10
14.049375
 20
7.711426
 30
0.0
 10
14.049375
 20
7.591041
 30
0.0
 10
14.019395
 20
7.591041
 30
0.0
 10
13.989627
 20
7.591041
 30
0.0
 10
13.959370
 20
7.591041
 30
0.0
 10
13.929470
 20
7.591041
 30
0.0
 10
13.899445
 20
7.591041
 30
0.0
 10
13.899445
 20
7.642184
 30
0.0
 10
13.899445
 20
7.693489
 30
0.0
 10
13.899445
 20
7.744562
 30
0.0
 10
13.899445
 20
7.795576
 30
0.0
 10
13.899445
 20
7.846805
 30
0.0
 10
13.853592
 20
7.846805
 30
0.0
 10
13.807595
 20
7.846805
 30
0.0
 10
13.761806
 20
7.846805
 30
0.0
 10
13.716069
 20
7.846805
 30
0.0
 10
13.670139
 20
7.846805
 30
0.0
 10
13.670139
 20
7.795662
 30
0.0
 10
13.670139
 20
7.744358
 30
0.0
 10
13.670139
 20
7.693285
 30
0.0
 10
13.670139
 20
7.642271
 30
0.0
 10
13.670139
 20
7.591041
 30
0.0
 10
13.640159
 20
7.591041
 30
0.0
 10
13.610391
 20
7.591041
 30
0.0
 10
13.580134
 20
7.591041
 30
0.0
 10
13.550234
 20
7.591041
 30
0.0
 10
13.520208
 20
7.591041
 30
0.0
 10
13.520208
 20
7.710963
 30
0.0
 10
13.520208
 20
7.830648
 30
0.0
 10
13.520208
 20
7.950550
 30
0.0
 10
13.520208
 20
8.070379
 30
0.0
 10
13.520208
 20
8.190764
 30
0.0
 10
13.520208
 20
8.190764
 30
0.0
 10
13.520208
 20
8.190764
 30
0.0
 10
13.520208
 20
8.190764
 30
0.0
 10
13.520208
 20
8.190764
 30
0.0
 10
13.520208
 20
8.190764
 30
0.0
  0
LWPOLYLINE
  5
139
100
AcDbEntity
  8
Layer_1
 62
7
100
AcDbPolyline
 90
46
 70
0
 10
6.217708
 20
8.084930
 30
0.0
 10
6.193362
 20
8.083070
 30
0.0
 10
6.169477
 20
8.076853
 30
0.0
 10
6.147193
 20
8.065727
 30
0.0
 10
6.127879
 20
8.050341
 30
0.0
 10
6.111875
 20
8.032014
 30
0.0
 10
6.095436
 20
8.006569
 30
0.0
 10
6.082815
 20
7.979235
 30
0.0
 10
6.074156
 20
7.950450
 30
0.0
 10
6.069285
 20
7.920819
 30
0.0
 10
6.067778
 20
7.890903
 30
0.0
 10
6.069288
 20
7.861060
 30
0.0
 10
6.074193
 20
7.831319
 30
0.0
 10
6.082930
 20
7.802360
 30
0.0
 10
6.095514
 20
7.775129
 30
0.0
 10
6.111875
 20
7.749791
 30
0.0
 10
6.128189
 20
7.731166
 30
0.0
 10
6.147366
 20
7.715969
 30
0.0
 10
6.169378
 20
7.704990
 30
0.0
 10
6.192975
 20
7.698798
 30
0.0
 10
6.217708
 20
7.696875
 30
0.0
 10
6.242151
 20
7.698735
 30
0.0
 10
6.266054
 20
7.704952
 30
0.0
 10
6.288299
 20
7.716078
 30
0.0
 10
6.307561
 20
7.731465
 30
0.0
 10
6.323542
 20
7.749791
 30
0.0
 10
6.339980
 20
7.775271
 30
0.0
 10
6.352600
 20
7.802663
 30
0.0
 10
6.361184
 20
7.831151
 30
0.0
 10
6.366113
 20
7.860909
 30
0.0
 10
6.367639
 20
7.890903
 30
0.0
 10
6.366129
 20
7.920842
 30
0.0
 10
6.361223
 20
7.950610
 30
0.0
 10
6.352486
 20
7.979537
 30
0.0
 10
6.339902
 20
8.006709
 30
0.0
 10
6.323542
 20
8.032014
 30
0.0
 10
6.307252
 20
8.050638
 30
0.0
 10
6.288127
 20
8.065836
 30
0.0
 10
6.266153
 20
8.076814
 30
0.0
 10
6.242539
 20
8.083007
 30
0.0
 10
6.217708
 20
8.084930
 30
0.0
 10
6.217708
 20
8.084930
 30
0.0
 10
6.217708
 20
8.084930
 30
0.0
 10
6.217708
 20
8.084930
 30
0.0
 10
6.217708
 20
8.084930
 30
0.0
 10
6.217708
 20
8.084930
 30
0.0
  0
LWPOLYLINE
  5
13a
100
AcDbEntity
  8
Layer_1
 62
7
100
AcDbPolyline
 90
41
 70
0
 10
6.790972
 20
8.084930
 30
0.0
 10
6.790972
 20
8.060241
 30
0.0
 10
6.790972
 20
8.035726
 30
0.0
 10
6.790972
 20
8.011213
 30
0.0
 10
6.790972
 20
7.986409
 30
0.0
 10
6.790972
 20
7.961458
 30
0.0
 10
6.807035
 20
7.961458
 30
0.0
 10
6.822785
 20
7.961458
 30
0.0
 10
6.838502
 20
7.961458
 30
0.0
 10
6.854385
 20
7.961458
 30
0.0
 10
6.870347
 20
7.961458
 30
0.0
 10
6.882781
 20
7.961380
 30
0.0
 10
6.895650
 20
7.961440
 30
0.0
 10
6.908480
 20
7.962206
 30
0.0
 10
6.921026
 20
7.964604
 30
0.0
 10
6.932083
 20
7.970278
 30
0.0
 10
6.939437
 20
7.979045
 30
0.0
 10
6.944305
 20
7.989245
 30
0.0
 10
6.947442
 20
8.000321
 30
0.0
 10
6.949164
 20
8.011637
 30
0.0
 10
6.949722
 20
8.023194
 30
0.0
 10
6.949249
 20
8.033074
 30
0.0
 10
6.947526
 20
8.042878
 30
0.0
 10
6.944186
 20
8.052011
 30
0.0
 10
6.939056
 20
8.060139
 30
0.0
 10
6.932083
 20
8.067291
 30
0.0
 10
6.920998
 20
8.074416
 30
0.0
 10
6.908829
 20
8.079206
 30
0.0
 10
6.896226
 20
8.082397
 30
0.0
 10
6.883415
 20
8.084281
 30
0.0
 10
6.870347
 20
8.084930
 30
0.0
 10
6.854285
 20
8.084930
 30
0.0
 10
6.838534
 20
8.084930
 30
0.0
 10
6.822818
 20
8.084930
 30
0.0
 10
6.806935
 20
8.084930
 30
0.0
 10
6.790972
 20
8.084930
 30
0.0
 10
6.790972
 20
8.084930
 30
0.0
 10
6.790972
 20
8.084930
 30
0.0
 10
6.790972
 20
8.084930
 30
0.0
 10
6.790972
 20
8.084930
 30
0.0
 10
6.790972
 20
8.084930
 30
0.0
  0
LWPOLYLINE
  5
13b
100
AcDbEntity
  8
Layer_1
 62
7
100
AcDbPolyline
 90
46
 70
0
 10
8.704792
 20
8.084930
 30
0.0
 10
8.680446
 20
8.083070
 30
0.0
 10
8.656560
 20
8.076853
 30
0.0
 10
8.634277
 20
8.065727
 30
0.0
 10
8.614962
 20
8.050341
 30
0.0
 10
8.598958
 20
8.032014
 30
0.0
 10
8.582519
 20
8.006569
 30
0.0
 10
8.569899
 20
7.979235
 30
0.0
 10
8.561240
 20
7.950450
 30
0.0
 10
8.556369
 20
7.920819
 30
0.0
 10
8.554861
 20
7.890903
 30
0.0
 10
8.556371
 20
7.861060
 30
0.0
 10
8.561276
 20
7.831319
 30
0.0
 10
8.570013
 20
7.802360
 30
0.0
 10
8.582597
 20
7.775129
 30
0.0
 10
8.598958
 20
7.749791
 30
0.0
 10
8.615274
 20
7.731166
 30
0.0
 10
8.634451
 20
7.715969
 30
0.0
 10
8.656462
 20
7.704990
 30
0.0
 10
8.680059
 20
7.698798
 30
0.0
 10
8.704792
 20
7.696875
 30
0.0
 10
8.729234
 20
7.698735
 30
0.0
 10
8.753138
 20
7.704952
 30
0.0
 10
8.775382
 20
7.716078
 30
0.0
 10
8.794644
 20
7.731465
 30
0.0
 10
8.810625
 20
7.749791
 30
0.0
 10
8.827064
 20
7.775271
 30
0.0
 10
8.839685
 20
7.802663
 30
0.0
 10
8.848268
 20
7.831151
 30
0.0
 10
8.853197
 20
7.860909
 30
0.0
 10
8.854722
 20
7.890903
 30
0.0
 10
8.853212
 20
7.920842
 30
0.0
 10
8.848307
 20
7.950610
 30
0.0
 10
8.839570
 20
7.979537
 30
0.0
 10
8.826987
 20
8.006709
 30
0.0
 10
8.810625
 20
8.032014
 30
0.0
 10
8.794335
 20
8.050638
 30
0.0
 10
8.775210
 20
8.065836
 30
0.0
 10
8.753236
 20
8.076814
 30
0.0
 10
8.729622
 20
8.083007
 30
0.0
 10
8.704792
 20
8.084930
 30
0.0
 10
8.704792
 20
8.084930
 30
0.0
 10
8.704792
 20
8.084930
 30
0.0
 10
8.704792
 20
8.084930
 30
0.0
 10
8.704792
 20
8.084930
 30
0.0
 10
8.704792
 20
8.084930
 30
0.0
  0
LWPOLYLINE
  5
13c
100
AcDbEntity
  8
Layer_1
 62
7
100
AcDbPolyline
 90
41
 70
0
 10
7.963958
 20
8.076111
 30
0.0
 10
7.963958
 20
8.046131
 30
0.0
 10
7.963958
 20
8.016363
 30
0.0
 10
7.963958
 20
7.986106
 30
0.0
 10
7.963958
 20
7.956206
 30
0.0
 10
7.963958
 20
7.926180
 30
0.0
 10
7.976452
 20
7.926180
 30
0.0
 10
7.988702
 20
7.926180
 30
0.0
 10
8.000926
 20
7.926180
 30
0.0
 10
8.013536
 20
7.926180
 30
0.0
 10
8.025694
 20
7.926180
 30
0.0
 10
8.040490
 20
7.926625
 30
0.0
 10
8.055460
 20
7.928160
 30
0.0
 10
8.069851
 20
7.931066
 30
0.0
 10
8.083909
 20
7.936043
 30
0.0
 10
8.096250
 20
7.943819
 30
0.0
 10
8.104021
 20
7.952016
 30
0.0
 10
8.109481
 20
7.962117
 30
0.0
 10
8.112414
 20
7.973483
 30
0.0
 10
8.113594
 20
7.984873
 30
0.0
 10
8.113889
 20
7.996736
 30
0.0
 10
8.113549
 20
8.009960
 30
0.0
 10
8.112264
 20
8.023308
 30
0.0
 10
8.109595
 20
8.036044
 30
0.0
 10
8.104712
 20
8.048075
 30
0.0
 10
8.096250
 20
8.058472
 30
0.0
 10
8.083925
 20
8.066134
 30
0.0
 10
8.069744
 20
8.071154
 30
0.0
 10
8.055502
 20
8.074068
 30
0.0
 10
8.040798
 20
8.075630
 30
0.0
 10
8.025694
 20
8.076111
 30
0.0
 10
8.013201
 20
8.076111
 30
0.0
 10
8.000951
 20
8.076111
 30
0.0
 10
7.988727
 20
8.076111
 30
0.0
 10
7.976117
 20
8.076111
 30
0.0
 10
7.963958
 20
8.076111
 30
0.0
 10
7.963958
 20
8.076111
 30
0.0
 10
7.963958
 20
8.076111
 30
0.0
 10
7.963958
 20
8.076111
 30
0.0
 10
7.963958
 20
8.076111
 30
0.0
 10
7.963958
 20
8.076111
 30
0.0
  0
LWPOLYLINE
  5
13d
100
AcDbEntity
  8
Layer_1
 62
7
100
AcDbPolyline
 90
41
 70
0
 10
10.971389
 20
8.076111
 30
0.0
 10
10.971389
 20
8.046131
 30
0.0
 10
10.971389
 20
8.016363
 30
0.0
 10
10.971389
 20
7.986106
 30
0.0
 10
10.971389
 20
7.956206
 30
0.0
 10
10.971389
 20
7.926180
 30
0.0
 10
10.983882
 20
7.926180
 30
0.0
 10
10.996133
 20
7.926180
 30
0.0
 10
11.008356
 20
7.926180
 30
0.0
 10
11.020966
 20
7.926180
 30
0.0
 10
11.033125
 20
7.926180
 30
0.0
 10
11.047920
 20
7.926625
 30
0.0
 10
11.062891
 20
7.928160
 30
0.0
 10
11.077282
 20
7.931066
 30
0.0
 10
11.091339
 20
7.936043
 30
0.0
 10
11.103681
 20
7.943819
 30
0.0
 10
11.111450
 20
7.952016
 30
0.0
 10
11.116910
 20
7.962117
 30
0.0
 10
11.119844
 20
7.973483
 30
0.0
 10
11.121025
 20
7.984873
 30
0.0
 10
11.121319
 20
7.996736
 30
0.0
 10
11.120979
 20
8.009960
 30
0.0
 10
11.119694
 20
8.023308
 30
0.0
 10
11.117024
 20
8.036044
 30
0.0
 10
11.112141
 20
8.048075
 30
0.0
 10
11.103681
 20
8.058472
 30
0.0
 10
11.091353
 20
8.066134
 30
0.0
 10
11.077172
 20
8.071154
 30
0.0
 10
11.062931
 20
8.074068
 30
0.0
 10
11.048228
 20
8.075630
 30
0.0
 10
11.033125
 20
8.076111
 30
0.0
 10
11.020632
 20
8.076111
 30
0.0
 10
11.008381
 20
8.076111
 30
0.0
 10
10.996158
 20
8.076111
 30
0.0
 10
10.983548
 20
8.076111
 30
0.0
 10
10.971389
 20
8.076111
 30
0.0
 10
10.971389
 20
8.076111
 30
0.0
 10
10.971389
 20
8.076111
 30
0.0
 10
10.971389
 20
8.076111
 30
0.0
 10
10.971389
 20
8.076111
 30
0.0
 10
10.971389
 20
8.076111
 30
0.0
  0
LWPOLYLINE
  5
13e
100
AcDbEntity
  8
Layer_1
 62
7
100
AcDbPolyline
 90
41
 70
0
 10
11.597569
 20
8.076111
 30
0.0
 10
11.597569
 20
8.046131
 30
0.0
 10
11.597569
 20
8.016363
 30
0.0
 10
11.597569
 20
7.986106
 30
0.0
 10
11.597569
 20
7.956206
 30
0.0
 10
11.597569
 20
7.926180
 30
0.0
 10
11.610063
 20
7.926180
 30
0.0
 10
11.622313
 20
7.926180
 30
0.0
 10
11.634537
 20
7.926180
 30
0.0
 10
11.647147
 20
7.926180
 30
0.0
 10
11.659306
 20
7.926180
 30
0.0
 10
11.674100
 20
7.926625
 30
0.0
 10
11.689070
 20
7.928160
 30
0.0
 10
11.703461
 20
7.931066
 30
0.0
 10
11.717520
 20
7.936043
 30
0.0
 10
11.729861
 20
7.943819
 30
0.0
 10
11.737631
 20
7.952016
 30
0.0
 10
11.743091
 20
7.962117
 30
0.0
 10
11.746024
 20
7.973483
 30
0.0
 10
11.747205
 20
7.984873
 30
0.0
 10
11.747500
 20
7.996736
 30
0.0
 10
11.747160
 20
8.009960
 30
0.0
 10
11.745874
 20
8.023308
 30
0.0
 10
11.743205
 20
8.036044
 30
0.0
 10
11.738322
 20
8.048075
 30
0.0
 10
11.729861
 20
8.058472
 30
0.0
 10
11.717534
 20
8.066134
 30
0.0
 10
11.703352
 20
8.071154
 30
0.0
 10
11.689111
 20
8.074068
 30
0.0
 10
11.674408
 20
8.075630
 30
0.0
 10
11.659306
 20
8.076111
 30
0.0
 10
11.646812
 20
8.076111
 30
0.0
 10
11.634562
 20
8.076111
 30
0.0
 10
11.622338
 20
8.076111
 30
0.0
 10
11.609728
 20
8.076111
 30
0.0
 10
11.597569
 20
8.076111
 30
0.0
 10
11.597569
 20
8.076111
 30
0.0
 10
11.597569
 20
8.076111
 30
0.0
 10
11.597569
 20
8.076111
 30
0.0
 10
11.597569
 20
8.076111
 30
0.0
 10
11.597569
 20
8.076111
 30
0.0
  0
LWPOLYLINE
  5
13f
100
AcDbEntity
  8
Layer_1
 62
7
100
AcDbPolyline
 90
41
 70
0
 10
6.790972
 20
7.855625
 30
0.0
 10
6.790972
 20
7.823881
 30
0.0
 10
6.790972
 20
7.792362
 30
0.0
 10
6.790972
 20
7.760326
 30
0.0
 10
6.790972
 20
7.728666
 30
0.0
 10
6.790972
 20
7.696875
 30
0.0
 10
6.808820
 20
7.696875
 30
0.0
 10
6.826320
 20
7.696875
 30
0.0
 10
6.843783
 20
7.696875
 30
0.0
 10
6.861431
 20
7.696875
 30
0.0
 10
6.879167
 20
7.696875
 30
0.0
 10
6.893746
 20
7.697269
 30
0.0
 10
6.908740
 20
7.698716
 30
0.0
 10
6.923063
 20
7.701553
 30
0.0
 10
6.936901
 20
7.706458
 30
0.0
 10
6.949722
 20
7.714514
 30
0.0
 10
6.959209
 20
7.724328
 30
0.0
 10
6.966606
 20
7.735865
 30
0.0
 10
6.971885
 20
7.748528
 30
0.0
 10
6.975133
 20
7.762327
 30
0.0
 10
6.976181
 20
7.776250
 30
0.0
 10
6.975142
 20
7.789802
 30
0.0
 10
6.971916
 20
7.803495
 30
0.0
 10
6.966669
 20
7.816241
 30
0.0
 10
6.959257
 20
7.828017
 30
0.0
 10
6.949722
 20
7.837986
 30
0.0
 10
6.937040
 20
7.845993
 30
0.0
 10
6.923013
 20
7.850985
 30
0.0
 10
6.908719
 20
7.853803
 30
0.0
 10
6.894106
 20
7.855215
 30
0.0
 10
6.879167
 20
7.855625
 30
0.0
 10
6.861319
 20
7.855625
 30
0.0
 10
6.843819
 20
7.855625
 30
0.0
 10
6.826356
 20
7.855625
 30
0.0
 10
6.808708
 20
7.855625
 30
0.0
 10
6.790972
 20
7.855625
 30
0.0
 10
6.790972
 20
7.855625
 30
0.0
 10
6.790972
 20
7.855625
 30
0.0
 10
6.790972
 20
7.855625
 30
0.0
 10
6.790972
 20
7.855625
 30
0.0
 10
6.790972
 20
7.855625
 30
0.0
  0
ENDSEC
  0
SECTION
  2
OBJECTS
  0
DICTIONARY
  5
C
330
0
100
AcDbDictionary
  3
ACAD_GROUP
350
D
  3
ACAD_MLINESTYLE
350
17
  0
DICTIONARY
  5
D
330
C
100
AcDbDictionary
  0
DICTIONARY
  5
1A
330
C
100
AcDbDictionary
  0
DICTIONARY
  5
17
330
C
100
AcDbDictionary
  3
STANDARD
350
18
  0
DICTIONARY
  5
19
330
C
100
AcDbDictionary
  0
ENDSEC
  0
EOF
